<?xml version="1.0" encoding="UTF-8" standalone="no"?>
<!DOCTYPE svg PUBLIC "-//W3C//DTD SVG 1.1//EN"
 "http://www.w3.org/Graphics/SVG/1.1/DTD/svg11.dtd">
<!-- Generated by graphviz version 2.40.1 (20161225.0304)
 -->
<!-- Title: schwz::SolverRAS&lt; ValueType, IndexType, MixedValueType &gt; Pages: 1 -->
<svg width="1739pt" height="585pt"
 viewBox="0.00 0.00 1739.00 585.00" xmlns="http://www.w3.org/2000/svg" xmlns:xlink="http://www.w3.org/1999/xlink">
<g id="graph0" class="graph" transform="scale(1 1) rotate(0) translate(4 581)">
<title>schwz::SolverRAS&lt; ValueType, IndexType, MixedValueType &gt;</title>
<polygon fill="#ffffff" stroke="transparent" points="-4,4 -4,-581 1735,-581 1735,4 -4,4"/>
<!-- Node0 -->
<g id="node1" class="node">
<title>Node0</title>
<polygon fill="#bfbfbf" stroke="#000000" points="1573,-113.5 1573,-143.5 1731,-143.5 1731,-113.5 1573,-113.5"/>
<text text-anchor="start" x="1581" y="-131.5" font-family="Helvetica,sans-Serif" font-size="10.00" fill="#000000">schwz::SolverRAS&lt; ValueType,</text>
<text text-anchor="middle" x="1652" y="-120.5" font-family="Helvetica,sans-Serif" font-size="10.00" fill="#000000"> IndexType, MixedValueType &gt;</text>
</g>
<!-- Node1 -->
<g id="node2" class="node">
<title>Node1</title>
<g id="a_node2"><a xlink:href="classschwz_1_1SchwarzBase.html" target="_top" xlink:title="The Base solver class is meant to be the class implementing the common implementations for all the sc...">
<polygon fill="#ffffff" stroke="#000000" points="1409,-108 1409,-149 1536,-149 1536,-108 1409,-108"/>
<text text-anchor="start" x="1417" y="-137" font-family="Helvetica,sans-Serif" font-size="10.00" fill="#000000">schwz::SchwarzBase</text>
<text text-anchor="start" x="1417" y="-126" font-family="Helvetica,sans-Serif" font-size="10.00" fill="#000000">&lt; ValueType, IndexType,</text>
<text text-anchor="middle" x="1472.5" y="-115" font-family="Helvetica,sans-Serif" font-size="10.00" fill="#000000"> MixedValueType &gt;</text>
</a>
</g>
</g>
<!-- Node1&#45;&gt;Node0 -->
<g id="edge1" class="edge">
<title>Node1&#45;&gt;Node0</title>
<path fill="none" stroke="#191970" d="M1546.2177,-128.5C1554.9902,-128.5 1563.9738,-128.5 1572.8187,-128.5"/>
<polygon fill="#191970" stroke="#191970" points="1546.0376,-125.0001 1536.0376,-128.5 1546.0376,-132.0001 1546.0376,-125.0001"/>
</g>
<!-- Node2 -->
<g id="node3" class="node">
<title>Node2</title>
<g id="a_node3"><a xlink:href="classschwz_1_1Initialize.html" target="_top" xlink:title="The initialization class that provides methods for initialization of the solver. ">
<polygon fill="#ffffff" stroke="#000000" points="1232,-315.5 1232,-345.5 1359,-345.5 1359,-315.5 1232,-315.5"/>
<text text-anchor="start" x="1240" y="-333.5" font-family="Helvetica,sans-Serif" font-size="10.00" fill="#000000">schwz::Initialize&lt;</text>
<text text-anchor="middle" x="1295.5" y="-322.5" font-family="Helvetica,sans-Serif" font-size="10.00" fill="#000000"> ValueType, IndexType &gt;</text>
</a>
</g>
</g>
<!-- Node2&#45;&gt;Node1 -->
<g id="edge2" class="edge">
<title>Node2&#45;&gt;Node1</title>
<path fill="none" stroke="#191970" d="M1315.4308,-307.7541C1350.1082,-268.1788 1421.0239,-187.2467 1454.3871,-149.1712"/>
<polygon fill="#191970" stroke="#191970" points="1312.7617,-305.4894 1308.8038,-315.3172 1318.0265,-310.1026 1312.7617,-305.4894"/>
</g>
<!-- Node3 -->
<g id="node4" class="node">
<title>Node3</title>
<g id="a_node4"><a xlink:href="structschwz_1_1Settings.html" target="_top" xlink:title="The struct that contains the solver settings and the parameters to be set by the user. ">
<polygon fill="#ffffff" stroke="#000000" points="937.5,-392 937.5,-411 1024.5,-411 1024.5,-392 937.5,-392"/>
<text text-anchor="middle" x="981" y="-399" font-family="Helvetica,sans-Serif" font-size="10.00" fill="#000000">schwz::Settings</text>
</a>
</g>
</g>
<!-- Node3&#45;&gt;Node2 -->
<g id="edge3" class="edge">
<title>Node3&#45;&gt;Node2</title>
<path fill="none" stroke="#191970" d="M1034.6696,-394.6677C1079.6209,-388.2516 1145.2001,-377.2663 1201,-361.5 1209.2603,-359.1661 1210.9004,-357.3419 1219,-354.5 1227.6688,-351.4584 1236.9524,-348.3899 1245.9578,-345.5106"/>
<polygon fill="#191970" stroke="#191970" points="1033.973,-391.231 1024.555,-396.0839 1034.9438,-398.1633 1033.973,-391.231"/>
</g>
<!-- Node21 -->
<g id="node21" class="node">
<title>Node21</title>
<g id="a_node21"><a xlink:href="classschwz_1_1Solve.html" target="_top" xlink:title="The Solver class the provides the solver and the convergence checking methods. ">
<polygon fill="#ffffff" stroke="#000000" points="1219,-364.5 1219,-394.5 1372,-394.5 1372,-364.5 1219,-364.5"/>
<text text-anchor="start" x="1227" y="-382.5" font-family="Helvetica,sans-Serif" font-size="10.00" fill="#000000">schwz::Solve&lt; ValueType,</text>
<text text-anchor="middle" x="1295.5" y="-371.5" font-family="Helvetica,sans-Serif" font-size="10.00" fill="#000000"> IndexType, MixedValueType &gt;</text>
</a>
</g>
</g>
<!-- Node3&#45;&gt;Node21 -->
<g id="edge28" class="edge">
<title>Node3&#45;&gt;Node21</title>
<path fill="none" stroke="#191970" d="M1034.8581,-397.9163C1079.4016,-394.9311 1144.3167,-390.5317 1201,-386.5 1206.8255,-386.0857 1212.8525,-385.6516 1218.9132,-385.2113"/>
<polygon fill="#191970" stroke="#191970" points="1034.5773,-394.4272 1024.8334,-398.5873 1035.0448,-401.4115 1034.5773,-394.4272"/>
</g>
<!-- Node4 -->
<g id="node5" class="node">
<title>Node4</title>
<g id="a_node5"><a xlink:href="structschwz_1_1Settings_1_1comm__settings.html" target="_top" xlink:title="The settings for the various available communication paradigms. ">
<polygon fill="#ffffff" stroke="#000000" points="617.5,-497.5 617.5,-527.5 737.5,-527.5 737.5,-497.5 617.5,-497.5"/>
<text text-anchor="start" x="625.5" y="-515.5" font-family="Helvetica,sans-Serif" font-size="10.00" fill="#000000">schwz::Settings::comm</text>
<text text-anchor="middle" x="677.5" y="-504.5" font-family="Helvetica,sans-Serif" font-size="10.00" fill="#000000">_settings</text>
</a>
</g>
</g>
<!-- Node4&#45;&gt;Node3 -->
<g id="edge4" class="edge">
<title>Node4&#45;&gt;Node3</title>
<path fill="none" stroke="#9a32cd" stroke-dasharray="5,2" d="M747.8982,-512.8979C790.207,-510.7271 844.1616,-503.5927 888,-483.5 925.571,-466.2799 959.098,-428.7649 973.5133,-411.0837"/>
<polygon fill="#9a32cd" stroke="#9a32cd" points="747.5225,-509.4107 737.6825,-513.3381 747.8239,-516.4043 747.5225,-509.4107"/>
<text text-anchor="middle" x="832.5" y="-512.5" font-family="Helvetica,sans-Serif" font-size="10.00" fill="#000000"> comm_settings</text>
</g>
<!-- Node5 -->
<g id="node6" class="node">
<title>Node5</title>
<g id="a_node6"><a xlink:title="STL class. ">
<polygon fill="#ffffff" stroke="#bfbfbf" points="647.5,-361 647.5,-380 707.5,-380 707.5,-361 647.5,-361"/>
<text text-anchor="middle" x="677.5" y="-368" font-family="Helvetica,sans-Serif" font-size="10.00" fill="#000000">std::string</text>
</a>
</g>
</g>
<!-- Node5&#45;&gt;Node3 -->
<g id="edge5" class="edge">
<title>Node5&#45;&gt;Node3</title>
<path fill="none" stroke="#9a32cd" stroke-dasharray="5,2" d="M717.7861,-374.6149C774.7763,-380.436 878.5281,-391.0333 937.3139,-397.0378"/>
<polygon fill="#9a32cd" stroke="#9a32cd" points="718.0142,-371.1201 707.7103,-373.5857 717.3029,-378.0838 718.0142,-371.1201"/>
<text text-anchor="middle" x="832.5" y="-471.5" font-family="Helvetica,sans-Serif" font-size="10.00" fill="#000000"> factorization</text>
<text text-anchor="middle" x="832.5" y="-460.5" font-family="Helvetica,sans-Serif" font-size="10.00" fill="#000000">metis_objtype</text>
<text text-anchor="middle" x="832.5" y="-449.5" font-family="Helvetica,sans-Serif" font-size="10.00" fill="#000000">thres_type</text>
<text text-anchor="middle" x="832.5" y="-438.5" font-family="Helvetica,sans-Serif" font-size="10.00" fill="#000000">matrix_filename</text>
<text text-anchor="middle" x="832.5" y="-427.5" font-family="Helvetica,sans-Serif" font-size="10.00" fill="#000000">norm_type</text>
<text text-anchor="middle" x="832.5" y="-416.5" font-family="Helvetica,sans-Serif" font-size="10.00" fill="#000000">reorder</text>
<text text-anchor="middle" x="832.5" y="-405.5" font-family="Helvetica,sans-Serif" font-size="10.00" fill="#000000">executor_string</text>
<text text-anchor="middle" x="832.5" y="-394.5" font-family="Helvetica,sans-Serif" font-size="10.00" fill="#000000">rhs_type</text>
</g>
<!-- Node9 -->
<g id="node9" class="node">
<title>Node9</title>
<g id="a_node9"><a xlink:href="structschwz_1_1Metadata.html" target="_top" xlink:title="The solver metadata struct. ">
<polygon fill="#ffffff" stroke="#000000" points="906,-282.5 906,-312.5 1056,-312.5 1056,-282.5 906,-282.5"/>
<text text-anchor="start" x="914" y="-300.5" font-family="Helvetica,sans-Serif" font-size="10.00" fill="#000000">schwz::Metadata&lt; ValueType,</text>
<text text-anchor="middle" x="981" y="-289.5" font-family="Helvetica,sans-Serif" font-size="10.00" fill="#000000"> IndexType &gt;</text>
</a>
</g>
</g>
<!-- Node5&#45;&gt;Node9 -->
<g id="edge11" class="edge">
<title>Node5&#45;&gt;Node9</title>
<path fill="none" stroke="#9a32cd" stroke-dasharray="5,2" d="M706.0881,-356.6113C725.6391,-347.6428 752.3758,-336.4006 777,-329.5 800.7756,-322.8372 858.03,-314.0796 905.8504,-307.4106"/>
<polygon fill="#9a32cd" stroke="#9a32cd" points="704.4189,-353.5279 696.839,-360.9304 707.3807,-359.8705 704.4189,-353.5279"/>
<text text-anchor="middle" x="832.5" y="-332.5" font-family="Helvetica,sans-Serif" font-size="10.00" fill="#000000"> local_precond</text>
</g>
<!-- Node6 -->
<g id="node7" class="node">
<title>Node6</title>
<polygon fill="#ffffff" stroke="#bfbfbf" points="272.5,-348.5 272.5,-378.5 367.5,-378.5 367.5,-348.5 272.5,-348.5"/>
<text text-anchor="start" x="280.5" y="-366.5" font-family="Helvetica,sans-Serif" font-size="10.00" fill="#000000">std::basic_string&lt;</text>
<text text-anchor="middle" x="320" y="-355.5" font-family="Helvetica,sans-Serif" font-size="10.00" fill="#000000"> char &gt;</text>
</g>
<!-- Node6&#45;&gt;Node5 -->
<g id="edge6" class="edge">
<title>Node6&#45;&gt;Node5</title>
<path fill="none" stroke="#191970" d="M377.8449,-364.6326C454.7087,-366.1377 587.715,-368.742 647.2107,-369.9069"/>
<polygon fill="#191970" stroke="#191970" points="377.9097,-361.1333 367.8431,-364.4368 377.7726,-368.132 377.9097,-361.1333"/>
</g>
<!-- Node8 -->
<g id="node8" class="node">
<title>Node8</title>
<g id="a_node8"><a xlink:href="structschwz_1_1Settings_1_1convergence__settings.html" target="_top" xlink:title="The various convergence settings available. ">
<polygon fill="#ffffff" stroke="#000000" points="603,-546.5 603,-576.5 752,-576.5 752,-546.5 603,-546.5"/>
<text text-anchor="start" x="611" y="-564.5" font-family="Helvetica,sans-Serif" font-size="10.00" fill="#000000">schwz::Settings::convergence</text>
<text text-anchor="middle" x="677.5" y="-553.5" font-family="Helvetica,sans-Serif" font-size="10.00" fill="#000000">_settings</text>
</a>
</g>
</g>
<!-- Node8&#45;&gt;Node3 -->
<g id="edge7" class="edge">
<title>Node8&#45;&gt;Node3</title>
<path fill="none" stroke="#9a32cd" stroke-dasharray="5,2" d="M762.4924,-560.7449C803.001,-556.9822 850.643,-547.337 888,-524.5 934.5959,-496.0151 965.9855,-434.8218 976.815,-411.1373"/>
<polygon fill="#9a32cd" stroke="#9a32cd" points="762.037,-557.2705 752.3579,-561.5792 762.6114,-564.2469 762.037,-557.2705"/>
<text text-anchor="middle" x="832.5" y="-561.5" font-family="Helvetica,sans-Serif" font-size="10.00" fill="#000000"> convergence_settings</text>
</g>
<!-- Node9&#45;&gt;Node2 -->
<g id="edge8" class="edge">
<title>Node9&#45;&gt;Node2</title>
<path fill="none" stroke="#191970" d="M1066.5793,-306.4797C1118.7627,-311.9552 1184.3418,-318.8363 1231.9198,-323.8286"/>
<polygon fill="#191970" stroke="#191970" points="1066.6413,-302.9671 1056.3306,-305.4043 1065.9107,-309.9289 1066.6413,-302.9671"/>
</g>
<!-- Node10 -->
<g id="node10" class="node">
<title>Node10</title>
<polygon fill="#ffffff" stroke="#bfbfbf" points="402,-314 402,-355 578,-355 578,-314 402,-314"/>
<text text-anchor="start" x="410" y="-343" font-family="Helvetica,sans-Serif" font-size="10.00" fill="#000000">std::vector&lt; std::tuple</text>
<text text-anchor="start" x="410" y="-332" font-family="Helvetica,sans-Serif" font-size="10.00" fill="#000000">&lt; int, int, int, std::</text>
<text text-anchor="middle" x="490" y="-321" font-family="Helvetica,sans-Serif" font-size="10.00" fill="#000000">string, std::vector&lt; ValueType &gt; &gt; &gt;</text>
</g>
<!-- Node10&#45;&gt;Node9 -->
<g id="edge9" class="edge">
<title>Node10&#45;&gt;Node9</title>
<path fill="none" stroke="#9a32cd" stroke-dasharray="5,2" d="M588.3873,-326.3353C643.7815,-321.8087 714.2343,-316.1686 777,-311.5 819.6596,-308.3269 867.3577,-305.0392 905.8994,-302.4477"/>
<polygon fill="#9a32cd" stroke="#9a32cd" points="587.9057,-322.8629 578.2245,-327.1671 588.4767,-329.8396 587.9057,-322.8629"/>
<text text-anchor="middle" x="677.5" y="-328.5" font-family="Helvetica,sans-Serif" font-size="10.00" fill="#000000"> time_struct</text>
</g>
<!-- Node11 -->
<g id="node11" class="node">
<title>Node11</title>
<g id="a_node11"><a xlink:title="STL class. ">
<polygon fill="#ffffff" stroke="#bfbfbf" points="0,-164 0,-183 87,-183 87,-164 0,-164"/>
<text text-anchor="middle" x="43.5" y="-171" font-family="Helvetica,sans-Serif" font-size="10.00" fill="#000000">std::vector&lt; T &gt;</text>
</a>
</g>
</g>
<!-- Node11&#45;&gt;Node10 -->
<g id="edge10" class="edge">
<title>Node11&#45;&gt;Node10</title>
<path fill="none" stroke="#ffa500" stroke-dasharray="5,2" d="M49.2662,-193.0027C57.4728,-217.0773 74.9588,-257.3041 105,-277.5 152.1732,-309.2133 303.639,-323.8619 401.9333,-330.1781"/>
<polygon fill="#ffa500" stroke="#ffa500" points="52.5142,-191.6684 46.1368,-183.208 45.8463,-193.7988 52.5142,-191.6684"/>
<text text-anchor="start" x="105" y="-338.5" font-family="Helvetica,sans-Serif" font-size="10.00" fill="#000000"> &lt; std::tuple&lt; int,</text>
<text text-anchor="start" x="105" y="-327.5" font-family="Helvetica,sans-Serif" font-size="10.00" fill="#000000"> int, int, std::string,</text>
<text text-anchor="middle" x="171.5" y="-316.5" font-family="Helvetica,sans-Serif" font-size="10.00" fill="#000000"> std::vector&lt; ValueType &gt; &gt; &gt;</text>
</g>
<!-- Node13 -->
<g id="node13" class="node">
<title>Node13</title>
<polygon fill="#ffffff" stroke="#bfbfbf" points="256,-164 256,-183 384,-183 384,-164 256,-164"/>
<text text-anchor="middle" x="320" y="-171" font-family="Helvetica,sans-Serif" font-size="10.00" fill="#000000">std::vector&lt; ValueType &gt;</text>
</g>
<!-- Node11&#45;&gt;Node13 -->
<g id="edge14" class="edge">
<title>Node11&#45;&gt;Node13</title>
<path fill="none" stroke="#ffa500" stroke-dasharray="5,2" d="M97.2432,-173.5C142.6573,-173.5 207.8094,-173.5 255.9285,-173.5"/>
<polygon fill="#ffa500" stroke="#ffa500" points="97.0073,-170.0001 87.0073,-173.5 97.0073,-177.0001 97.0073,-170.0001"/>
<text text-anchor="middle" x="171.5" y="-176.5" font-family="Helvetica,sans-Serif" font-size="10.00" fill="#000000"> &lt; ValueType &gt;</text>
</g>
<!-- Node14 -->
<g id="node14" class="node">
<title>Node14</title>
<polygon fill="#ffffff" stroke="#bfbfbf" points="260.5,-114.5 260.5,-144.5 379.5,-144.5 379.5,-114.5 260.5,-114.5"/>
<text text-anchor="start" x="268.5" y="-132.5" font-family="Helvetica,sans-Serif" font-size="10.00" fill="#000000">std::vector&lt; std::vector</text>
<text text-anchor="middle" x="320" y="-121.5" font-family="Helvetica,sans-Serif" font-size="10.00" fill="#000000">&lt; ValueType &gt; &gt;</text>
</g>
<!-- Node11&#45;&gt;Node14 -->
<g id="edge16" class="edge">
<title>Node11&#45;&gt;Node14</title>
<path fill="none" stroke="#ffa500" stroke-dasharray="5,2" d="M89.6235,-161.6962C94.7941,-160.5382 99.9986,-159.4445 105,-158.5 157.1844,-148.6449 217.1068,-140.8484 260.4127,-135.8324"/>
<polygon fill="#ffa500" stroke="#ffa500" points="88.7343,-158.3095 79.7846,-163.98 90.317,-165.1282 88.7343,-158.3095"/>
<text text-anchor="middle" x="171.5" y="-161.5" font-family="Helvetica,sans-Serif" font-size="10.00" fill="#000000"> &lt; std::vector&lt; ValueType &gt; &gt;</text>
</g>
<!-- Node15 -->
<g id="node15" class="node">
<title>Node15</title>
<polygon fill="#ffffff" stroke="#bfbfbf" points="429,-245 429,-308 551,-308 551,-245 429,-245"/>
<text text-anchor="start" x="437" y="-296" font-family="Helvetica,sans-Serif" font-size="10.00" fill="#000000">std::vector&lt; std::tuple</text>
<text text-anchor="start" x="437" y="-285" font-family="Helvetica,sans-Serif" font-size="10.00" fill="#000000">&lt; int, std::vector&lt; std</text>
<text text-anchor="start" x="437" y="-274" font-family="Helvetica,sans-Serif" font-size="10.00" fill="#000000">::tuple&lt; int, int &gt; &gt;, std</text>
<text text-anchor="start" x="437" y="-263" font-family="Helvetica,sans-Serif" font-size="10.00" fill="#000000">::vector&lt; std::tuple&lt; int,</text>
<text text-anchor="middle" x="490" y="-252" font-family="Helvetica,sans-Serif" font-size="10.00" fill="#000000"> int &gt; &gt;, int, int &gt; &gt;</text>
</g>
<!-- Node11&#45;&gt;Node15 -->
<g id="edge18" class="edge">
<title>Node11&#45;&gt;Node15</title>
<path fill="none" stroke="#ffa500" stroke-dasharray="5,2" d="M92.2239,-185.4527C96.5426,-186.4913 100.8487,-187.5194 105,-188.5 219.271,-215.4935 352.9427,-245.7516 428.9242,-262.8273"/>
<polygon fill="#ffa500" stroke="#ffa500" points="92.7338,-181.9752 82.1914,-183.0276 91.0891,-188.7793 92.7338,-181.9752"/>
<text text-anchor="start" x="118" y="-265.5" font-family="Helvetica,sans-Serif" font-size="10.00" fill="#000000"> &lt; std::tuple&lt; int,</text>
<text text-anchor="start" x="118" y="-254.5" font-family="Helvetica,sans-Serif" font-size="10.00" fill="#000000"> std::vector&lt; std::tuple</text>
<text text-anchor="start" x="118" y="-243.5" font-family="Helvetica,sans-Serif" font-size="10.00" fill="#000000">&lt; int, int &gt; &gt;, std::vector</text>
<text text-anchor="start" x="118" y="-232.5" font-family="Helvetica,sans-Serif" font-size="10.00" fill="#000000">&lt; std::tuple&lt; int, int &gt; &gt;</text>
<text text-anchor="middle" x="171.5" y="-221.5" font-family="Helvetica,sans-Serif" font-size="10.00" fill="#000000">, int, int &gt; &gt;</text>
</g>
<!-- Node16 -->
<g id="node16" class="node">
<title>Node16</title>
<polygon fill="#ffffff" stroke="#bfbfbf" points="777,-347.5 777,-377.5 888,-377.5 888,-347.5 777,-347.5"/>
<text text-anchor="start" x="785" y="-365.5" font-family="Helvetica,sans-Serif" font-size="10.00" fill="#000000">std::vector&lt; unsigned</text>
<text text-anchor="middle" x="832.5" y="-354.5" font-family="Helvetica,sans-Serif" font-size="10.00" fill="#000000"> int &gt;</text>
</g>
<!-- Node11&#45;&gt;Node16 -->
<g id="edge20" class="edge">
<title>Node11&#45;&gt;Node16</title>
<path fill="none" stroke="#ffa500" stroke-dasharray="5,2" d="M47.8925,-193.3901C57.4511,-234.9289 81.1979,-328.8388 105,-350.5 156.1027,-397.0063 187.4263,-379.0163 256,-387.5 477.8659,-414.9483 540.3127,-435.9086 759,-389.5 767.5638,-387.6826 768.8507,-384.6986 777,-381.5 780.4129,-380.1604 783.9635,-378.8219 787.5455,-377.5105"/>
<polygon fill="#ffa500" stroke="#ffa500" points="51.2491,-192.3647 45.632,-183.3815 44.4211,-193.9069 51.2491,-192.3647"/>
<text text-anchor="middle" x="320" y="-407.5" font-family="Helvetica,sans-Serif" font-size="10.00" fill="#000000"> &lt; unsigned int &gt;</text>
</g>
<!-- Node19 -->
<g id="node19" class="node">
<title>Node19</title>
<polygon fill="#ffffff" stroke="#bfbfbf" points="256.5,-67 256.5,-86 383.5,-86 383.5,-67 256.5,-67"/>
<text text-anchor="middle" x="320" y="-74" font-family="Helvetica,sans-Serif" font-size="10.00" fill="#000000">std::vector&lt; IndexType &gt;</text>
</g>
<!-- Node11&#45;&gt;Node19 -->
<g id="edge24" class="edge">
<title>Node11&#45;&gt;Node19</title>
<path fill="none" stroke="#ffa500" stroke-dasharray="5,2" d="M60.2028,-156.6936C71.8214,-145.9386 88.1899,-132.5416 105,-124.5 152.9561,-101.5587 212.2201,-89.3791 256.3742,-83.0381"/>
<polygon fill="#ffa500" stroke="#ffa500" points="57.7726,-154.1748 52.9709,-163.6191 62.6142,-159.2305 57.7726,-154.1748"/>
<text text-anchor="middle" x="171.5" y="-127.5" font-family="Helvetica,sans-Serif" font-size="10.00" fill="#000000"> &lt; IndexType &gt;</text>
</g>
<!-- Node20 -->
<g id="node20" class="node">
<title>Node20</title>
<polygon fill="#ffffff" stroke="#bfbfbf" points="270.5,-11 270.5,-30 369.5,-30 369.5,-11 270.5,-11"/>
<text text-anchor="middle" x="320" y="-18" font-family="Helvetica,sans-Serif" font-size="10.00" fill="#000000">std::vector&lt; bool &gt;</text>
</g>
<!-- Node11&#45;&gt;Node20 -->
<g id="edge26" class="edge">
<title>Node11&#45;&gt;Node20</title>
<path fill="none" stroke="#ffa500" stroke-dasharray="5,2" d="M49.7852,-154.4139C58.4477,-131.1719 76.3227,-92.4337 105,-71.5 153.6465,-35.9894 223.4895,-24.8529 270.2335,-21.5503"/>
<polygon fill="#ffa500" stroke="#ffa500" points="46.4711,-153.2878 46.4477,-163.8826 53.073,-155.6149 46.4711,-153.2878"/>
<text text-anchor="middle" x="171.5" y="-74.5" font-family="Helvetica,sans-Serif" font-size="10.00" fill="#000000"> &lt; bool &gt;</text>
</g>
<!-- Node12 -->
<g id="node12" class="node">
<title>Node12</title>
<g id="a_node12"><a xlink:href="structschwz_1_1Metadata_1_1post__process__data.html" target="_top" xlink:title="The struct used for storing data for post&#45;processing. ">
<polygon fill="#ffffff" stroke="#000000" points="596,-158.5 596,-188.5 759,-188.5 759,-158.5 596,-158.5"/>
<text text-anchor="start" x="604" y="-176.5" font-family="Helvetica,sans-Serif" font-size="10.00" fill="#000000">schwz::Metadata&lt; ValueType,</text>
<text text-anchor="middle" x="677.5" y="-165.5" font-family="Helvetica,sans-Serif" font-size="10.00" fill="#000000"> IndexType &gt;::post_process_data</text>
</a>
</g>
</g>
<!-- Node12&#45;&gt;Node9 -->
<g id="edge12" class="edge">
<title>Node12&#45;&gt;Node9</title>
<path fill="none" stroke="#9a32cd" stroke-dasharray="5,2" d="M769.2253,-187.5219C807.2267,-195.5026 850.9813,-207.5953 888,-225.5 918.3301,-240.1696 948.1969,-265.8395 965.5979,-282.2355"/>
<polygon fill="#9a32cd" stroke="#9a32cd" points="769.6814,-184.0431 759.1845,-185.4797 768.2862,-190.9027 769.6814,-184.0431"/>
<text text-anchor="middle" x="832.5" y="-228.5" font-family="Helvetica,sans-Serif" font-size="10.00" fill="#000000"> post_process_data</text>
</g>
<!-- Node13&#45;&gt;Node1 -->
<g id="edge29" class="edge">
<title>Node13&#45;&gt;Node1</title>
<path fill="none" stroke="#9a32cd" stroke-dasharray="5,2" d="M372.1621,-160.1007C376.3135,-158.175 380.319,-155.9859 384,-153.5 394.4696,-146.4295 390.5911,-136.926 402,-131.5 492.6318,-88.3959 1192.4264,-115.8942 1408.8996,-125.5398"/>
<polygon fill="#9a32cd" stroke="#9a32cd" points="370.8254,-156.8659 362.9099,-163.9083 373.4894,-163.3392 370.8254,-156.8659"/>
<text text-anchor="middle" x="981" y="-116.5" font-family="Helvetica,sans-Serif" font-size="10.00" fill="#000000"> local_residual_vector_out</text>
</g>
<!-- Node13&#45;&gt;Node12 -->
<g id="edge13" class="edge">
<title>Node13&#45;&gt;Node12</title>
<path fill="none" stroke="#9a32cd" stroke-dasharray="5,2" d="M394.2179,-169.7178C396.8438,-169.6355 399.4441,-169.5623 402,-169.5 480.199,-167.5938 499.7936,-167.9286 578,-169.5 583.7904,-169.6163 589.7692,-169.7707 595.7879,-169.9512"/>
<polygon fill="#9a32cd" stroke="#9a32cd" points="393.8731,-166.2276 384.002,-170.0763 394.1187,-173.2233 393.8731,-166.2276"/>
<text text-anchor="middle" x="490" y="-227.5" font-family="Helvetica,sans-Serif" font-size="10.00" fill="#000000"> local_timestamp</text>
<text text-anchor="middle" x="490" y="-216.5" font-family="Helvetica,sans-Serif" font-size="10.00" fill="#000000">local_converged_resnorm</text>
<text text-anchor="start" x="434" y="-205.5" font-family="Helvetica,sans-Serif" font-size="10.00" fill="#000000">local_residual_vector</text>
<text text-anchor="middle" x="490" y="-194.5" font-family="Helvetica,sans-Serif" font-size="10.00" fill="#000000">_out</text>
<text text-anchor="start" x="434" y="-183.5" font-family="Helvetica,sans-Serif" font-size="10.00" fill="#000000">local_converged_iter</text>
<text text-anchor="middle" x="490" y="-172.5" font-family="Helvetica,sans-Serif" font-size="10.00" fill="#000000">_count</text>
</g>
<!-- Node14&#45;&gt;Node1 -->
<g id="edge30" class="edge">
<title>Node14&#45;&gt;Node1</title>
<path fill="none" stroke="#9a32cd" stroke-dasharray="5,2" d="M358.9087,-110.1744C372.2512,-104.4173 387.4833,-98.7754 402,-95.5 521.5959,-68.5154 554.8976,-81.5 677.5,-81.5 677.5,-81.5 677.5,-81.5 1295.5,-81.5 1339.5348,-81.5 1387.7301,-95.2568 1422.6952,-107.8851"/>
<polygon fill="#9a32cd" stroke="#9a32cd" points="357.2635,-107.0761 349.5646,-114.3547 360.122,-113.4659 357.2635,-107.0761"/>
<text text-anchor="middle" x="981" y="-84.5" font-family="Helvetica,sans-Serif" font-size="10.00" fill="#000000"> global_residual_vector_out</text>
</g>
<!-- Node14&#45;&gt;Node12 -->
<g id="edge15" class="edge">
<title>Node14&#45;&gt;Node12</title>
<path fill="none" stroke="#9a32cd" stroke-dasharray="5,2" d="M389.7715,-133.9866C441.8182,-137.819 514.5742,-144.202 578,-153.5 587.5884,-154.9056 597.6495,-156.6304 607.5376,-158.4724"/>
<polygon fill="#9a32cd" stroke="#9a32cd" points="389.8737,-130.485 379.6472,-133.2541 389.3685,-137.4667 389.8737,-130.485"/>
<text text-anchor="middle" x="490" y="-156.5" font-family="Helvetica,sans-Serif" font-size="10.00" fill="#000000"> global_residual_vector_out</text>
</g>
<!-- Node15&#45;&gt;Node9 -->
<g id="edge17" class="edge">
<title>Node15&#45;&gt;Node9</title>
<path fill="none" stroke="#9a32cd" stroke-dasharray="5,2" d="M561.3422,-267.3106C572.9094,-266.1414 584.7733,-265.1335 596,-264.5 668.3294,-260.4189 686.7491,-259.2077 759,-264.5 816.797,-268.7335 830.6802,-274.9644 888,-283.5 893.8139,-284.3658 899.8317,-285.2649 905.8812,-286.1708"/>
<polygon fill="#9a32cd" stroke="#9a32cd" points="560.8537,-263.8427 551.2769,-268.3742 561.5893,-270.8039 560.8537,-263.8427"/>
<text text-anchor="middle" x="677.5" y="-267.5" font-family="Helvetica,sans-Serif" font-size="10.00" fill="#000000"> comm_data_struct</text>
</g>
<!-- Node16&#45;&gt;Node2 -->
<g id="edge19" class="edge">
<title>Node16&#45;&gt;Node2</title>
<path fill="none" stroke="#9a32cd" stroke-dasharray="5,2" d="M898.5646,-357.934C987.3328,-351.7988 1144.0558,-340.967 1231.6677,-334.9117"/>
<polygon fill="#9a32cd" stroke="#9a32cd" points="898.0835,-354.4588 888.3486,-358.6401 898.5662,-361.4421 898.0835,-354.4588"/>
<text text-anchor="middle" x="981" y="-371.5" font-family="Helvetica,sans-Serif" font-size="10.00" fill="#000000"> cell_weights</text>
<text text-anchor="middle" x="981" y="-360.5" font-family="Helvetica,sans-Serif" font-size="10.00" fill="#000000">partition_indices</text>
</g>
<!-- Node17 -->
<g id="node17" class="node">
<title>Node17</title>
<g id="a_node17"><a xlink:href="classschwz_1_1Communicate.html" target="_top" xlink:title="The communication class that provides the methods for the communication between the subdomains...">
<polygon fill="#ffffff" stroke="#000000" points="1074,-15 1074,-56 1201,-56 1201,-15 1074,-15"/>
<text text-anchor="start" x="1082" y="-44" font-family="Helvetica,sans-Serif" font-size="10.00" fill="#000000">schwz::Communicate</text>
<text text-anchor="start" x="1082" y="-33" font-family="Helvetica,sans-Serif" font-size="10.00" fill="#000000">&lt; ValueType, IndexType,</text>
<text text-anchor="middle" x="1137.5" y="-22" font-family="Helvetica,sans-Serif" font-size="10.00" fill="#000000"> MixedValueType &gt;</text>
</a>
</g>
</g>
<!-- Node17&#45;&gt;Node1 -->
<g id="edge21" class="edge">
<title>Node17&#45;&gt;Node1</title>
<path fill="none" stroke="#191970" d="M1211.3592,-34.9369C1263.3178,-36.8757 1333.5488,-44.2834 1391,-67.5 1413.9407,-76.7706 1436.1644,-94.1448 1451.5944,-107.9868"/>
<polygon fill="#191970" stroke="#191970" points="1211.3251,-31.4342 1201.2203,-34.619 1211.1057,-38.4308 1211.3251,-31.4342"/>
</g>
<!-- Node18 -->
<g id="node18" class="node">
<title>Node18</title>
<g id="a_node18"><a xlink:href="structschwz_1_1Communicate_1_1comm__struct.html" target="_top" xlink:title="The communication struct used to store the communication data. ">
<polygon fill="#ffffff" stroke="#000000" points="610.5,-.5 610.5,-52.5 744.5,-52.5 744.5,-.5 610.5,-.5"/>
<text text-anchor="start" x="618.5" y="-40.5" font-family="Helvetica,sans-Serif" font-size="10.00" fill="#000000">schwz::Communicate</text>
<text text-anchor="start" x="618.5" y="-29.5" font-family="Helvetica,sans-Serif" font-size="10.00" fill="#000000">&lt; ValueType, IndexType,</text>
<text text-anchor="start" x="618.5" y="-18.5" font-family="Helvetica,sans-Serif" font-size="10.00" fill="#000000"> MixedValueType &gt;::comm</text>
<text text-anchor="middle" x="677.5" y="-7.5" font-family="Helvetica,sans-Serif" font-size="10.00" fill="#000000">_struct</text>
</a>
</g>
</g>
<!-- Node18&#45;&gt;Node17 -->
<g id="edge22" class="edge">
<title>Node18&#45;&gt;Node17</title>
<path fill="none" stroke="#9a32cd" stroke-dasharray="5,2" d="M754.9793,-28.0159C844.5486,-29.7683 990.3041,-32.6201 1073.6466,-34.2507"/>
<polygon fill="#9a32cd" stroke="#9a32cd" points="754.9472,-24.5147 744.8806,-27.8183 754.8102,-31.5134 754.9472,-24.5147"/>
<text text-anchor="middle" x="832.5" y="-34.5" font-family="Helvetica,sans-Serif" font-size="10.00" fill="#000000"> comm_struct</text>
</g>
<!-- Node19&#45;&gt;Node18 -->
<g id="edge23" class="edge">
<title>Node19&#45;&gt;Node18</title>
<path fill="none" stroke="#9a32cd" stroke-dasharray="5,2" d="M349.8217,-62.8126C365.0997,-56.4268 384.1926,-49.3915 402,-45.5 472.023,-30.1978 554.2172,-26.2884 610.4866,-25.6839"/>
<polygon fill="#9a32cd" stroke="#9a32cd" points="348.1854,-59.7064 340.3846,-66.8756 350.9536,-66.1358 348.1854,-59.7064"/>
<text text-anchor="middle" x="490" y="-59.5" font-family="Helvetica,sans-Serif" font-size="10.00" fill="#000000"> recv</text>
<text text-anchor="middle" x="490" y="-48.5" font-family="Helvetica,sans-Serif" font-size="10.00" fill="#000000">send</text>
</g>
<!-- Node20&#45;&gt;Node18 -->
<g id="edge25" class="edge">
<title>Node20&#45;&gt;Node18</title>
<path fill="none" stroke="#9a32cd" stroke-dasharray="5,2" d="M379.8648,-13.1635C387.3086,-12.4773 394.8231,-11.8927 402,-11.5 480.1054,-7.2266 499.9966,-5.6534 578,-11.5 588.5395,-12.29 599.6546,-13.5443 610.4846,-14.9994"/>
<polygon fill="#9a32cd" stroke="#9a32cd" points="379.4056,-9.6917 369.7962,-14.1537 380.0907,-16.6581 379.4056,-9.6917"/>
<text text-anchor="middle" x="490" y="-14.5" font-family="Helvetica,sans-Serif" font-size="10.00" fill="#000000"> is_local_neighbor</text>
</g>
<!-- Node21&#45;&gt;Node1 -->
<g id="edge27" class="edge">
<title>Node21&#45;&gt;Node1</title>
<path fill="none" stroke="#191970" d="M1366.5397,-358.8922C1368.4453,-357.5212 1370.2722,-356.0591 1372,-354.5 1435.123,-297.541 1460.7223,-193.496 1469.0818,-149.2743"/>
<polygon fill="#191970" stroke="#191970" points="1364.4019,-356.0992 1357.7421,-364.3392 1368.0869,-362.0508 1364.4019,-356.0992"/>
</g>
</g>
</svg>
