<?xml version="1.0" encoding="UTF-8" standalone="no"?>
<!DOCTYPE svg PUBLIC "-//W3C//DTD SVG 1.1//EN"
 "http://www.w3.org/Graphics/SVG/1.1/DTD/svg11.dtd">
<!-- Generated by graphviz version 2.40.1 (20161225.0304)
 -->
<!-- Title: schwz::SolverRAS&lt; ValueType, IndexType, MixedValueType &gt; Pages: 1 -->
<!--zoomable 589 -->
<svg id="main" version="1.1" xmlns="http://www.w3.org/2000/svg" xmlns:xlink="http://www.w3.org/1999/xlink" xml:space="preserve" onload="init(evt)">
<style type="text/css"><![CDATA[
.edge:hover path { stroke: red; }
.edge:hover polygon { stroke: red; fill: red; }
]]></style>
<script type="text/javascript"><![CDATA[
var edges = document.getElementsByTagName('g');
if (edges && edges.length) {
  for (var i=0;i<edges.length;i++) {
    if (edges[i].id.substr(0,4)=='edge') {
      edges[i].setAttribute('class','edge');
    }
  }
}
]]></script>
        <defs>
                <circle id="rim" cx="0" cy="0" r="7"/>
                <circle id="rim2" cx="0" cy="0" r="3.5"/>
                <g id="zoomPlus">
                        <use xlink:href="#rim" fill="#404040">
                                <set attributeName="fill" to="#808080" begin="zoomplus.mouseover" end="zoomplus.mouseout"/>
                        </use>
                        <path d="M-4,0h8M0,-4v8" fill="none" stroke="white" stroke-width="1.5" pointer-events="none"/>
                </g>
                <g id="zoomMin">
                        <use xlink:href="#rim" fill="#404040">
                                <set attributeName="fill" to="#808080" begin="zoomminus.mouseover" end="zoomminus.mouseout"/>
                        </use>
                        <path d="M-4,0h8" fill="none" stroke="white" stroke-width="1.5" pointer-events="none"/>
                </g>
                <g id="dirArrow">
                        <path fill="none" stroke="white" stroke-width="1.5" d="M0,-3.0v7 M-2.5,-0.5L0,-3.0L2.5,-0.5"/>
                </g>
               <g id="resetDef">
                       <use xlink:href="#rim2" fill="#404040">
                               <set attributeName="fill" to="#808080" begin="reset.mouseover" end="reset.mouseout"/>
                       </use>
               </g>
        </defs>

<script type="text/javascript">
var viewWidth = 1739;
var viewHeight = 589;
var sectionId = 'dynsection-0';
</script>
<script xlink:href="svgpan.js"/>
<svg id="graph" class="graph">
<g id="viewport">
<title>schwz::SolverRAS&lt; ValueType, IndexType, MixedValueType &gt;</title>
<polygon fill="#ffffff" stroke="transparent" points="-4,4 -4,-585 1735,-585 1735,4 -4,4"/>
<!-- Node0 -->
<g id="node1" class="node">
<title>Node0</title>
<polygon fill="#bfbfbf" stroke="#000000" points="1573,-113.5 1573,-143.5 1731,-143.5 1731,-113.5 1573,-113.5"/>
<text text-anchor="start" x="1581" y="-131.5" font-family="Helvetica,sans-Serif" font-size="10.00" fill="#000000">schwz::SolverRAS&lt; ValueType,</text>
<text text-anchor="middle" x="1652" y="-120.5" font-family="Helvetica,sans-Serif" font-size="10.00" fill="#000000"> IndexType, MixedValueType &gt;</text>
</g>
<!-- Node1 -->
<g id="node2" class="node">
<title>Node1</title>
<g id="a_node2"><a xlink:href="classschwz_1_1SchwarzBase.html" target="_top" xlink:title="The Base solver class is meant to be the class implementing the common implementations for all the sc...">
<polygon fill="#ffffff" stroke="#000000" points="1409,-108 1409,-149 1536,-149 1536,-108 1409,-108"/>
<text text-anchor="start" x="1417" y="-137" font-family="Helvetica,sans-Serif" font-size="10.00" fill="#000000">schwz::SchwarzBase</text>
<text text-anchor="start" x="1417" y="-126" font-family="Helvetica,sans-Serif" font-size="10.00" fill="#000000">&lt; ValueType, IndexType,</text>
<text text-anchor="middle" x="1472.5" y="-115" font-family="Helvetica,sans-Serif" font-size="10.00" fill="#000000"> MixedValueType &gt;</text>
</a>
</g>
</g>
<!-- Node1&#45;&gt;Node0 -->
<g id="edge1" class="edge">
<title>Node1&#45;&gt;Node0</title>
<path fill="none" stroke="#191970" d="M1546.2177,-128.5C1554.9902,-128.5 1563.9738,-128.5 1572.8187,-128.5"/>
<polygon fill="#191970" stroke="#191970" points="1546.0376,-125.0001 1536.0376,-128.5 1546.0376,-132.0001 1546.0376,-125.0001"/>
</g>
<!-- Node2 -->
<g id="node3" class="node">
<title>Node2</title>
<g id="a_node3"><a xlink:href="classschwz_1_1Initialize.html" target="_top" xlink:title="The initialization class that provides methods for initialization of the solver. ">
<polygon fill="#ffffff" stroke="#000000" points="1232,-320.5 1232,-350.5 1359,-350.5 1359,-320.5 1232,-320.5"/>
<text text-anchor="start" x="1240" y="-338.5" font-family="Helvetica,sans-Serif" font-size="10.00" fill="#000000">schwz::Initialize&lt;</text>
<text text-anchor="middle" x="1295.5" y="-327.5" font-family="Helvetica,sans-Serif" font-size="10.00" fill="#000000"> ValueType, IndexType &gt;</text>
</a>
</g>
</g>
<!-- Node2&#45;&gt;Node1 -->
<g id="edge2" class="edge">
<title>Node2&#45;&gt;Node1</title>
<path fill="none" stroke="#191970" d="M1315.1426,-312.5281C1349.8762,-271.9075 1421.601,-188.026 1454.856,-149.1345"/>
<polygon fill="#191970" stroke="#191970" points="1312.354,-310.4038 1308.5152,-320.2788 1317.6742,-314.953 1312.354,-310.4038"/>
</g>
<!-- Node3 -->
<g id="node4" class="node">
<title>Node3</title>
<g id="a_node4"><a xlink:href="structschwz_1_1Settings.html" target="_top" xlink:title="The struct that contains the solver settings and the parameters to be set by the user. ">
<polygon fill="#ffffff" stroke="#000000" points="937.5,-396 937.5,-415 1024.5,-415 1024.5,-396 937.5,-396"/>
<text text-anchor="middle" x="981" y="-403" font-family="Helvetica,sans-Serif" font-size="10.00" fill="#000000">schwz::Settings</text>
</a>
</g>
</g>
<!-- Node3&#45;&gt;Node2 -->
<g id="edge3" class="edge">
<title>Node3&#45;&gt;Node2</title>
<path fill="none" stroke="#191970" d="M1034.8418,-397.6765C1079.6342,-390.6993 1144.9025,-379.4437 1201,-365.5 1217.8719,-361.3063 1236.1402,-355.752 1252.0768,-350.5635"/>
<polygon fill="#191970" stroke="#191970" points="1034.1122,-394.2475 1024.7612,-399.2284 1035.1773,-401.166 1034.1122,-394.2475"/>
</g>
<!-- Node20 -->
<g id="node20" class="node">
<title>Node20</title>
<g id="a_node20"><a xlink:href="classschwz_1_1Solve.html" target="_top" xlink:title="The Solver class the provides the solver and the convergence checking methods. ">
<polygon fill="#ffffff" stroke="#000000" points="1219,-389.5 1219,-419.5 1372,-419.5 1372,-389.5 1219,-389.5"/>
<text text-anchor="start" x="1227" y="-407.5" font-family="Helvetica,sans-Serif" font-size="10.00" fill="#000000">schwz::Solve&lt; ValueType,</text>
<text text-anchor="middle" x="1295.5" y="-396.5" font-family="Helvetica,sans-Serif" font-size="10.00" fill="#000000"> IndexType, MixedValueType &gt;</text>
</a>
</g>
</g>
<!-- Node3&#45;&gt;Node20 -->
<g id="edge26" class="edge">
<title>Node3&#45;&gt;Node20</title>
<path fill="none" stroke="#191970" d="M1034.8186,-405.3289C1085.4759,-405.1678 1161.8688,-404.9249 1218.8789,-404.7436"/>
<polygon fill="#191970" stroke="#191970" points="1034.7187,-401.8291 1024.7299,-405.361 1034.741,-408.829 1034.7187,-401.8291"/>
</g>
<!-- Node4 -->
<g id="node5" class="node">
<title>Node4</title>
<g id="a_node5"><a xlink:href="structschwz_1_1Settings_1_1comm__settings.html" target="_top" xlink:title="The settings for the various available communication paradigms. ">
<polygon fill="#ffffff" stroke="#000000" points="617.5,-501.5 617.5,-531.5 737.5,-531.5 737.5,-501.5 617.5,-501.5"/>
<text text-anchor="start" x="625.5" y="-519.5" font-family="Helvetica,sans-Serif" font-size="10.00" fill="#000000">schwz::Settings::comm</text>
<text text-anchor="middle" x="677.5" y="-508.5" font-family="Helvetica,sans-Serif" font-size="10.00" fill="#000000">_settings</text>
</a>
</g>
</g>
<!-- Node4&#45;&gt;Node3 -->
<g id="edge4" class="edge">
<title>Node4&#45;&gt;Node3</title>
<path fill="none" stroke="#9a32cd" stroke-dasharray="5,2" d="M747.9563,-517.8895C790.2862,-516.2376 844.2425,-509.6254 888,-489.5 926.1492,-471.954 959.6354,-433.1206 973.8065,-415.0699"/>
<polygon fill="#9a32cd" stroke="#9a32cd" points="747.6234,-514.398 737.735,-518.2018 747.8372,-521.3947 747.6234,-514.398"/>
<text text-anchor="middle" x="832.5" y="-518.5" font-family="Helvetica,sans-Serif" font-size="10.00" fill="#000000"> comm_settings</text>
</g>
<!-- Node5 -->
<g id="node6" class="node">
<title>Node5</title>
<g id="a_node6"><a xlink:title="STL class. ">
<polygon fill="#ffffff" stroke="#bfbfbf" points="647.5,-370 647.5,-389 707.5,-389 707.5,-370 647.5,-370"/>
<text text-anchor="middle" x="677.5" y="-377" font-family="Helvetica,sans-Serif" font-size="10.00" fill="#000000">std::string</text>
</a>
</g>
</g>
<!-- Node5&#45;&gt;Node3 -->
<g id="edge5" class="edge">
<title>Node5&#45;&gt;Node3</title>
<path fill="none" stroke="#9a32cd" stroke-dasharray="5,2" d="M717.7861,-382.9512C774.7763,-387.8334 878.5281,-396.7215 937.3139,-401.7575"/>
<polygon fill="#9a32cd" stroke="#9a32cd" points="717.9726,-379.4544 707.7103,-382.088 717.3751,-386.4289 717.9726,-379.4544"/>
<text text-anchor="middle" x="832.5" y="-477.5" font-family="Helvetica,sans-Serif" font-size="10.00" fill="#000000"> factorization</text>
<text text-anchor="middle" x="832.5" y="-466.5" font-family="Helvetica,sans-Serif" font-size="10.00" fill="#000000">metis_objtype</text>
<text text-anchor="middle" x="832.5" y="-455.5" font-family="Helvetica,sans-Serif" font-size="10.00" fill="#000000">thres_type</text>
<text text-anchor="middle" x="832.5" y="-444.5" font-family="Helvetica,sans-Serif" font-size="10.00" fill="#000000">matrix_filename</text>
<text text-anchor="middle" x="832.5" y="-433.5" font-family="Helvetica,sans-Serif" font-size="10.00" fill="#000000">norm_type</text>
<text text-anchor="middle" x="832.5" y="-422.5" font-family="Helvetica,sans-Serif" font-size="10.00" fill="#000000">reorder</text>
<text text-anchor="middle" x="832.5" y="-411.5" font-family="Helvetica,sans-Serif" font-size="10.00" fill="#000000">executor_string</text>
<text text-anchor="middle" x="832.5" y="-400.5" font-family="Helvetica,sans-Serif" font-size="10.00" fill="#000000">rhs_type</text>
</g>
<!-- Node9 -->
<g id="node9" class="node">
<title>Node9</title>
<g id="a_node9"><a xlink:href="structschwz_1_1Metadata.html" target="_top" xlink:title="The solver metadata struct. ">
<polygon fill="#ffffff" stroke="#000000" points="906,-286.5 906,-316.5 1056,-316.5 1056,-286.5 906,-286.5"/>
<text text-anchor="start" x="914" y="-304.5" font-family="Helvetica,sans-Serif" font-size="10.00" fill="#000000">schwz::Metadata&lt; ValueType,</text>
<text text-anchor="middle" x="981" y="-293.5" font-family="Helvetica,sans-Serif" font-size="10.00" fill="#000000"> IndexType &gt;</text>
</a>
</g>
</g>
<!-- Node5&#45;&gt;Node9 -->
<g id="edge11" class="edge">
<title>Node5&#45;&gt;Node9</title>
<path fill="none" stroke="#9a32cd" stroke-dasharray="5,2" d="M703.4634,-365.0645C723.0958,-354.7582 751.0185,-341.3756 777,-333.5 800.6298,-326.3373 857.8953,-317.6177 905.757,-311.0906"/>
<polygon fill="#9a32cd" stroke="#9a32cd" points="701.7036,-362.0366 694.5365,-369.8393 705.0052,-368.2091 701.7036,-362.0366"/>
<text text-anchor="middle" x="832.5" y="-336.5" font-family="Helvetica,sans-Serif" font-size="10.00" fill="#000000"> local_precond</text>
</g>
<!-- Node6 -->
<g id="node7" class="node">
<title>Node6</title>
<polygon fill="#ffffff" stroke="#bfbfbf" points="272.5,-357.5 272.5,-387.5 367.5,-387.5 367.5,-357.5 272.5,-357.5"/>
<text text-anchor="start" x="280.5" y="-375.5" font-family="Helvetica,sans-Serif" font-size="10.00" fill="#000000">std::basic_string&lt;</text>
<text text-anchor="middle" x="320" y="-364.5" font-family="Helvetica,sans-Serif" font-size="10.00" fill="#000000"> char &gt;</text>
</g>
<!-- Node6&#45;&gt;Node5 -->
<g id="edge6" class="edge">
<title>Node6&#45;&gt;Node5</title>
<path fill="none" stroke="#191970" d="M377.8449,-373.6326C454.7087,-375.1377 587.715,-377.742 647.2107,-378.9069"/>
<polygon fill="#191970" stroke="#191970" points="377.9097,-370.1333 367.8431,-373.4368 377.7726,-377.132 377.9097,-370.1333"/>
</g>
<!-- Node8 -->
<g id="node8" class="node">
<title>Node8</title>
<g id="a_node8"><a xlink:href="structschwz_1_1Settings_1_1convergence__settings.html" target="_top" xlink:title="The various convergence settings available. ">
<polygon fill="#ffffff" stroke="#000000" points="603,-550.5 603,-580.5 752,-580.5 752,-550.5 603,-550.5"/>
<text text-anchor="start" x="611" y="-568.5" font-family="Helvetica,sans-Serif" font-size="10.00" fill="#000000">schwz::Settings::convergence</text>
<text text-anchor="middle" x="677.5" y="-557.5" font-family="Helvetica,sans-Serif" font-size="10.00" fill="#000000">_settings</text>
</a>
</g>
</g>
<!-- Node8&#45;&gt;Node3 -->
<g id="edge7" class="edge">
<title>Node8&#45;&gt;Node3</title>
<path fill="none" stroke="#9a32cd" stroke-dasharray="5,2" d="M762.529,-565.8062C803.0462,-562.4885 850.685,-553.2732 888,-530.5 935.1008,-501.7546 966.1906,-439.446 976.8775,-415.3191"/>
<polygon fill="#9a32cd" stroke="#9a32cd" points="762.1184,-562.3265 752.392,-566.5273 762.6152,-569.3089 762.1184,-562.3265"/>
<text text-anchor="middle" x="832.5" y="-566.5" font-family="Helvetica,sans-Serif" font-size="10.00" fill="#000000"> convergence_settings</text>
</g>
<!-- Node9&#45;&gt;Node2 -->
<g id="edge8" class="edge">
<title>Node9&#45;&gt;Node2</title>
<path fill="none" stroke="#191970" d="M1066.5793,-310.7518C1118.7627,-316.3933 1184.3418,-323.4829 1231.9198,-328.6265"/>
<polygon fill="#191970" stroke="#191970" points="1066.6489,-307.239 1056.3306,-309.6438 1065.8964,-314.1985 1066.6489,-307.239"/>
</g>
<!-- Node10 -->
<g id="node10" class="node">
<title>Node10</title>
<polygon fill="#ffffff" stroke="#bfbfbf" points="402,-254 402,-295 578,-295 578,-254 402,-254"/>
<text text-anchor="start" x="410" y="-283" font-family="Helvetica,sans-Serif" font-size="10.00" fill="#000000">std::vector&lt; std::tuple</text>
<text text-anchor="start" x="410" y="-272" font-family="Helvetica,sans-Serif" font-size="10.00" fill="#000000">&lt; int, int, int, std::</text>
<text text-anchor="middle" x="490" y="-261" font-family="Helvetica,sans-Serif" font-size="10.00" fill="#000000">string, std::vector&lt; ValueType &gt; &gt; &gt;</text>
</g>
<!-- Node10&#45;&gt;Node9 -->
<g id="edge9" class="edge">
<title>Node10&#45;&gt;Node9</title>
<path fill="none" stroke="#9a32cd" stroke-dasharray="5,2" d="M588.2921,-268.7431C590.8878,-268.6533 593.4608,-268.5718 596,-268.5 668.4155,-266.4521 686.7491,-263.2077 759,-268.5 816.797,-272.7335 830.6802,-278.9644 888,-287.5 893.8139,-288.3658 899.8317,-289.2649 905.8812,-290.1708"/>
<polygon fill="#9a32cd" stroke="#9a32cd" points="588.0492,-265.2498 578.19,-269.1288 588.3163,-272.2447 588.0492,-265.2498"/>
<text text-anchor="middle" x="677.5" y="-271.5" font-family="Helvetica,sans-Serif" font-size="10.00" fill="#000000"> time_struct</text>
</g>
<!-- Node11 -->
<g id="node11" class="node">
<title>Node11</title>
<g id="a_node11"><a xlink:title="STL class. ">
<polygon fill="#ffffff" stroke="#bfbfbf" points="0,-212 0,-231 87,-231 87,-212 0,-212"/>
<text text-anchor="middle" x="43.5" y="-219" font-family="Helvetica,sans-Serif" font-size="10.00" fill="#000000">std::vector&lt; T &gt;</text>
</a>
</g>
</g>
<!-- Node11&#45;&gt;Node10 -->
<g id="edge10" class="edge">
<title>Node11&#45;&gt;Node10</title>
<path fill="none" stroke="#ffa500" stroke-dasharray="5,2" d="M97.353,-227.8924C172.8691,-236.8562 311.1217,-253.267 401.7839,-264.0287"/>
<polygon fill="#ffa500" stroke="#ffa500" points="97.4681,-224.3816 87.1253,-226.6784 96.643,-231.3328 97.4681,-224.3816"/>
<text text-anchor="start" x="105" y="-268.5" font-family="Helvetica,sans-Serif" font-size="10.00" fill="#000000"> &lt; std::tuple&lt; int,</text>
<text text-anchor="start" x="105" y="-257.5" font-family="Helvetica,sans-Serif" font-size="10.00" fill="#000000"> int, int, std::string,</text>
<text text-anchor="middle" x="171.5" y="-246.5" font-family="Helvetica,sans-Serif" font-size="10.00" fill="#000000"> std::vector&lt; ValueType &gt; &gt; &gt;</text>
</g>
<!-- Node13 -->
<g id="node13" class="node">
<title>Node13</title>
<polygon fill="#ffffff" stroke="#bfbfbf" points="256,-178 256,-197 384,-197 384,-178 256,-178"/>
<text text-anchor="middle" x="320" y="-185" font-family="Helvetica,sans-Serif" font-size="10.00" fill="#000000">std::vector&lt; ValueType &gt;</text>
</g>
<!-- Node11&#45;&gt;Node13 -->
<g id="edge14" class="edge">
<title>Node11&#45;&gt;Node13</title>
<path fill="none" stroke="#ffa500" stroke-dasharray="5,2" d="M96.9566,-214.9267C142.3829,-209.3408 207.7081,-201.308 255.9285,-195.3786"/>
<polygon fill="#ffa500" stroke="#ffa500" points="96.5053,-211.4557 87.0073,-216.1501 97.3597,-218.4034 96.5053,-211.4557"/>
<text text-anchor="middle" x="171.5" y="-216.5" font-family="Helvetica,sans-Serif" font-size="10.00" fill="#000000"> &lt; ValueType &gt;</text>
</g>
<!-- Node14 -->
<g id="node14" class="node">
<title>Node14</title>
<polygon fill="#ffffff" stroke="#bfbfbf" points="260.5,-128.5 260.5,-158.5 379.5,-158.5 379.5,-128.5 260.5,-128.5"/>
<text text-anchor="start" x="268.5" y="-146.5" font-family="Helvetica,sans-Serif" font-size="10.00" fill="#000000">std::vector&lt; std::vector</text>
<text text-anchor="middle" x="320" y="-135.5" font-family="Helvetica,sans-Serif" font-size="10.00" fill="#000000">&lt; ValueType &gt; &gt;</text>
</g>
<!-- Node11&#45;&gt;Node14 -->
<g id="edge16" class="edge">
<title>Node11&#45;&gt;Node14</title>
<path fill="none" stroke="#ffa500" stroke-dasharray="5,2" d="M64.3644,-205.9104C75.8177,-198.0672 90.589,-189.0681 105,-183.5 155.4668,-164.0009 216.3674,-153.8158 260.4489,-148.6174"/>
<polygon fill="#ffa500" stroke="#ffa500" points="62.0965,-203.2278 55.9607,-211.8652 66.1436,-208.9393 62.0965,-203.2278"/>
<text text-anchor="middle" x="171.5" y="-186.5" font-family="Helvetica,sans-Serif" font-size="10.00" fill="#000000"> &lt; std::vector&lt; ValueType &gt; &gt;</text>
</g>
<!-- Node15 -->
<g id="node15" class="node">
<title>Node15</title>
<polygon fill="#ffffff" stroke="#bfbfbf" points="429,-301 429,-364 551,-364 551,-301 429,-301"/>
<text text-anchor="start" x="437" y="-352" font-family="Helvetica,sans-Serif" font-size="10.00" fill="#000000">std::vector&lt; std::tuple</text>
<text text-anchor="start" x="437" y="-341" font-family="Helvetica,sans-Serif" font-size="10.00" fill="#000000">&lt; int, std::vector&lt; std</text>
<text text-anchor="start" x="437" y="-330" font-family="Helvetica,sans-Serif" font-size="10.00" fill="#000000">::tuple&lt; int, int &gt; &gt;, std</text>
<text text-anchor="start" x="437" y="-319" font-family="Helvetica,sans-Serif" font-size="10.00" fill="#000000">::vector&lt; std::tuple&lt; int,</text>
<text text-anchor="middle" x="490" y="-308" font-family="Helvetica,sans-Serif" font-size="10.00" fill="#000000"> int &gt; &gt;, int, int &gt; &gt;</text>
</g>
<!-- Node11&#45;&gt;Node15 -->
<g id="edge18" class="edge">
<title>Node11&#45;&gt;Node15</title>
<path fill="none" stroke="#ffa500" stroke-dasharray="5,2" d="M57.0259,-239.6154C68.2725,-253.2404 85.5412,-271.1135 105,-280.5 210.5508,-331.4157 350.1743,-337.171 428.9977,-335.6134"/>
<polygon fill="#ffa500" stroke="#ffa500" points="59.4874,-237.0851 50.5424,-231.4072 53.9943,-241.424 59.4874,-237.0851"/>
<text text-anchor="start" x="118" y="-368.5" font-family="Helvetica,sans-Serif" font-size="10.00" fill="#000000"> &lt; std::tuple&lt; int,</text>
<text text-anchor="start" x="118" y="-357.5" font-family="Helvetica,sans-Serif" font-size="10.00" fill="#000000"> std::vector&lt; std::tuple</text>
<text text-anchor="start" x="118" y="-346.5" font-family="Helvetica,sans-Serif" font-size="10.00" fill="#000000">&lt; int, int &gt; &gt;, std::vector</text>
<text text-anchor="start" x="118" y="-335.5" font-family="Helvetica,sans-Serif" font-size="10.00" fill="#000000">&lt; std::tuple&lt; int, int &gt; &gt;</text>
<text text-anchor="middle" x="171.5" y="-324.5" font-family="Helvetica,sans-Serif" font-size="10.00" fill="#000000">, int, int &gt; &gt;</text>
</g>
<!-- Node16 -->
<g id="node16" class="node">
<title>Node16</title>
<polygon fill="#ffffff" stroke="#bfbfbf" points="777,-351.5 777,-381.5 888,-381.5 888,-351.5 777,-351.5"/>
<text text-anchor="start" x="785" y="-369.5" font-family="Helvetica,sans-Serif" font-size="10.00" fill="#000000">std::vector&lt; unsigned</text>
<text text-anchor="middle" x="832.5" y="-358.5" font-family="Helvetica,sans-Serif" font-size="10.00" fill="#000000"> int &gt;</text>
</g>
<!-- Node11&#45;&gt;Node16 -->
<g id="edge20" class="edge">
<title>Node11&#45;&gt;Node16</title>
<path fill="none" stroke="#ffa500" stroke-dasharray="5,2" d="M44.8252,-241.6626C48.277,-276.2752 60.6691,-346.5436 105,-380.5 151.5746,-416.175 433.8055,-398.023 596,-398.5 668.4441,-398.7131 690.0696,-420.7889 759,-398.5 768.3896,-395.4638 768.2363,-390.0365 777,-385.5 779.6229,-384.1423 782.3638,-382.8483 785.1622,-381.6212"/>
<polygon fill="#ffa500" stroke="#ffa500" points="48.2876,-241.0678 43.964,-231.3953 41.3121,-241.6529 48.2876,-241.0678"/>
<text text-anchor="middle" x="320" y="-406.5" font-family="Helvetica,sans-Serif" font-size="10.00" fill="#000000"> &lt; unsigned int &gt;</text>
</g>
<!-- Node19 -->
<g id="node19" class="node">
<title>Node19</title>
<polygon fill="#ffffff" stroke="#bfbfbf" points="270.5,-75 270.5,-94 369.5,-94 369.5,-75 270.5,-75"/>
<text text-anchor="middle" x="320" y="-82" font-family="Helvetica,sans-Serif" font-size="10.00" fill="#000000">std::vector&lt; bool &gt;</text>
</g>
<!-- Node11&#45;&gt;Node19 -->
<g id="edge24" class="edge">
<title>Node11&#45;&gt;Node19</title>
<path fill="none" stroke="#ffa500" stroke-dasharray="5,2" d="M52.1695,-202.9667C62.1721,-183.6496 80.449,-153.9474 105,-137.5 154.9845,-104.0139 224.2054,-91.6625 270.4629,-87.1199"/>
<polygon fill="#ffa500" stroke="#ffa500" points="48.9996,-201.4812 47.7036,-211.9965 55.2741,-204.5844 48.9996,-201.4812"/>
<text text-anchor="middle" x="171.5" y="-140.5" font-family="Helvetica,sans-Serif" font-size="10.00" fill="#000000"> &lt; bool &gt;</text>
</g>
<!-- Node12 -->
<g id="node12" class="node">
<title>Node12</title>
<g id="a_node12"><a xlink:href="structschwz_1_1Metadata_1_1post__process__data.html" target="_top" xlink:title="The struct used for storing data for post&#45;processing. ">
<polygon fill="#ffffff" stroke="#000000" points="596,-167.5 596,-197.5 759,-197.5 759,-167.5 596,-167.5"/>
<text text-anchor="start" x="604" y="-185.5" font-family="Helvetica,sans-Serif" font-size="10.00" fill="#000000">schwz::Metadata&lt; ValueType,</text>
<text text-anchor="middle" x="677.5" y="-174.5" font-family="Helvetica,sans-Serif" font-size="10.00" fill="#000000"> IndexType &gt;::post_process_data</text>
</a>
</g>
</g>
<!-- Node12&#45;&gt;Node9 -->
<g id="edge12" class="edge">
<title>Node12&#45;&gt;Node9</title>
<path fill="none" stroke="#9a32cd" stroke-dasharray="5,2" d="M769.2227,-193.9791C807.2236,-200.9978 850.9786,-212.1054 888,-229.5 918.6781,-243.9142 948.6744,-269.9089 965.9738,-286.4049"/>
<polygon fill="#9a32cd" stroke="#9a32cd" points="769.6402,-190.4985 759.1819,-192.1939 768.4148,-197.3904 769.6402,-190.4985"/>
<text text-anchor="middle" x="832.5" y="-232.5" font-family="Helvetica,sans-Serif" font-size="10.00" fill="#000000"> post_process_data</text>
</g>
<!-- Node13&#45;&gt;Node1 -->
<g id="edge27" class="edge">
<title>Node13&#45;&gt;Node1</title>
<path fill="none" stroke="#9a32cd" stroke-dasharray="5,2" d="M372.9759,-173.933C376.8516,-172.0518 380.5773,-169.9182 384,-167.5 394.8896,-159.8062 390.1164,-149.5462 402,-143.5 491.4563,-97.9857 1192.0591,-118.5981 1408.8135,-126.1506"/>
<polygon fill="#9a32cd" stroke="#9a32cd" points="371.5545,-170.7341 363.7319,-177.8796 374.3031,-177.1719 371.5545,-170.7341"/>
<text text-anchor="middle" x="981" y="-120.5" font-family="Helvetica,sans-Serif" font-size="10.00" fill="#000000"> local_residual_vector_out</text>
</g>
<!-- Node13&#45;&gt;Node12 -->
<g id="edge13" class="edge">
<title>Node13&#45;&gt;Node12</title>
<path fill="none" stroke="#9a32cd" stroke-dasharray="5,2" d="M394.3866,-178.977C396.9539,-178.7972 399.4975,-178.6369 402,-178.5 467.0777,-174.9394 540.9228,-176.3019 595.7685,-178.3558"/>
<polygon fill="#9a32cd" stroke="#9a32cd" points="394.0992,-175.4886 384.4031,-179.7589 394.6459,-182.4673 394.0992,-175.4886"/>
<text text-anchor="middle" x="490" y="-236.5" font-family="Helvetica,sans-Serif" font-size="10.00" fill="#000000"> local_timestamp</text>
<text text-anchor="middle" x="490" y="-225.5" font-family="Helvetica,sans-Serif" font-size="10.00" fill="#000000">local_converged_resnorm</text>
<text text-anchor="start" x="434" y="-214.5" font-family="Helvetica,sans-Serif" font-size="10.00" fill="#000000">local_residual_vector</text>
<text text-anchor="middle" x="490" y="-203.5" font-family="Helvetica,sans-Serif" font-size="10.00" fill="#000000">_out</text>
<text text-anchor="start" x="434" y="-192.5" font-family="Helvetica,sans-Serif" font-size="10.00" fill="#000000">local_converged_iter</text>
<text text-anchor="middle" x="490" y="-181.5" font-family="Helvetica,sans-Serif" font-size="10.00" fill="#000000">_count</text>
</g>
<!-- Node14&#45;&gt;Node1 -->
<g id="edge28" class="edge">
<title>Node14&#45;&gt;Node1</title>
<path fill="none" stroke="#9a32cd" stroke-dasharray="5,2" d="M352.0277,-123.3035C366.6978,-115.0678 384.6525,-106.3555 402,-101.5 520.2231,-68.4099 554.7333,-81.5 677.5,-81.5 677.5,-81.5 677.5,-81.5 1295.5,-81.5 1339.5348,-81.5 1387.7301,-95.2568 1422.6952,-107.8851"/>
<polygon fill="#9a32cd" stroke="#9a32cd" points="350.2498,-120.2886 343.3528,-128.3311 353.7598,-126.345 350.2498,-120.2886"/>
<text text-anchor="middle" x="981" y="-84.5" font-family="Helvetica,sans-Serif" font-size="10.00" fill="#000000"> global_residual_vector_out</text>
</g>
<!-- Node14&#45;&gt;Node12 -->
<g id="edge15" class="edge">
<title>Node14&#45;&gt;Node12</title>
<path fill="none" stroke="#9a32cd" stroke-dasharray="5,2" d="M389.8058,-145.7559C441.8697,-148.0715 514.6323,-152.6458 578,-161.5 589.2778,-163.0758 601.189,-165.1907 612.6984,-167.4729"/>
<polygon fill="#9a32cd" stroke="#9a32cd" points="389.8185,-142.2533 379.6779,-145.3223 389.519,-149.2469 389.8185,-142.2533"/>
<text text-anchor="middle" x="490" y="-164.5" font-family="Helvetica,sans-Serif" font-size="10.00" fill="#000000"> global_residual_vector_out</text>
</g>
<!-- Node15&#45;&gt;Node9 -->
<g id="edge17" class="edge">
<title>Node15&#45;&gt;Node9</title>
<path fill="none" stroke="#9a32cd" stroke-dasharray="5,2" d="M561.229,-328.0029C653.0496,-322.2056 812.014,-312.1692 905.7478,-306.2512"/>
<polygon fill="#9a32cd" stroke="#9a32cd" points="560.9523,-324.5133 551.1927,-328.6365 561.3934,-331.4994 560.9523,-324.5133"/>
<text text-anchor="middle" x="677.5" y="-329.5" font-family="Helvetica,sans-Serif" font-size="10.00" fill="#000000"> comm_data_struct</text>
</g>
<!-- Node16&#45;&gt;Node2 -->
<g id="edge19" class="edge">
<title>Node16&#45;&gt;Node2</title>
<path fill="none" stroke="#9a32cd" stroke-dasharray="5,2" d="M898.5646,-362.0767C987.3328,-356.1332 1144.0558,-345.6399 1231.6677,-339.7739"/>
<polygon fill="#9a32cd" stroke="#9a32cd" points="898.0924,-358.6004 888.3486,-362.7607 898.5601,-365.5847 898.0924,-358.6004"/>
<text text-anchor="middle" x="981" y="-375.5" font-family="Helvetica,sans-Serif" font-size="10.00" fill="#000000"> cell_weights</text>
<text text-anchor="middle" x="981" y="-364.5" font-family="Helvetica,sans-Serif" font-size="10.00" fill="#000000">partition_indices</text>
</g>
<!-- Node17 -->
<g id="node17" class="node">
<title>Node17</title>
<g id="a_node17"><a xlink:href="classschwz_1_1Communicate.html" target="_top" xlink:title="The communication class that provides the methods for the communication between the subdomains...">
<polygon fill="#ffffff" stroke="#000000" points="1074,-15 1074,-56 1201,-56 1201,-15 1074,-15"/>
<text text-anchor="start" x="1082" y="-44" font-family="Helvetica,sans-Serif" font-size="10.00" fill="#000000">schwz::Communicate</text>
<text text-anchor="start" x="1082" y="-33" font-family="Helvetica,sans-Serif" font-size="10.00" fill="#000000">&lt; ValueType, IndexType,</text>
<text text-anchor="middle" x="1137.5" y="-22" font-family="Helvetica,sans-Serif" font-size="10.00" fill="#000000"> MixedValueType &gt;</text>
</a>
</g>
</g>
<!-- Node17&#45;&gt;Node1 -->
<g id="edge21" class="edge">
<title>Node17&#45;&gt;Node1</title>
<path fill="none" stroke="#191970" d="M1211.3592,-34.9369C1263.3178,-36.8757 1333.5488,-44.2834 1391,-67.5 1413.9407,-76.7706 1436.1644,-94.1448 1451.5944,-107.9868"/>
<polygon fill="#191970" stroke="#191970" points="1211.3251,-31.4342 1201.2203,-34.619 1211.1057,-38.4308 1211.3251,-31.4342"/>
</g>
<!-- Node18 -->
<g id="node18" class="node">
<title>Node18</title>
<g id="a_node18"><a xlink:href="structschwz_1_1Communicate_1_1comm__struct.html" target="_top" xlink:title="The communication struct used to store the communication data. ">
<polygon fill="#ffffff" stroke="#000000" points="610.5,-.5 610.5,-52.5 744.5,-52.5 744.5,-.5 610.5,-.5"/>
<text text-anchor="start" x="618.5" y="-40.5" font-family="Helvetica,sans-Serif" font-size="10.00" fill="#000000">schwz::Communicate</text>
<text text-anchor="start" x="618.5" y="-29.5" font-family="Helvetica,sans-Serif" font-size="10.00" fill="#000000">&lt; ValueType, IndexType,</text>
<text text-anchor="start" x="618.5" y="-18.5" font-family="Helvetica,sans-Serif" font-size="10.00" fill="#000000"> MixedValueType &gt;::comm</text>
<text text-anchor="middle" x="677.5" y="-7.5" font-family="Helvetica,sans-Serif" font-size="10.00" fill="#000000">_struct</text>
</a>
</g>
</g>
<!-- Node18&#45;&gt;Node17 -->
<g id="edge22" class="edge">
<title>Node18&#45;&gt;Node17</title>
<path fill="none" stroke="#9a32cd" stroke-dasharray="5,2" d="M754.9793,-28.0159C844.5486,-29.7683 990.3041,-32.6201 1073.6466,-34.2507"/>
<polygon fill="#9a32cd" stroke="#9a32cd" points="754.9472,-24.5147 744.8806,-27.8183 754.8102,-31.5134 754.9472,-24.5147"/>
<text text-anchor="middle" x="832.5" y="-34.5" font-family="Helvetica,sans-Serif" font-size="10.00" fill="#000000"> comm_struct</text>
</g>
<!-- Node19&#45;&gt;Node18 -->
<g id="edge23" class="edge">
<title>Node19&#45;&gt;Node18</title>
<path fill="none" stroke="#9a32cd" stroke-dasharray="5,2" d="M353.3081,-71.2601C368.0199,-65.9015 385.6541,-60.1339 402,-56.5 472.0967,-40.9164 554.1015,-33.3066 610.3036,-29.6698"/>
<polygon fill="#9a32cd" stroke="#9a32cd" points="351.7831,-68.0936 343.6416,-74.8734 354.2341,-74.6505 351.7831,-68.0936"/>
<text text-anchor="middle" x="490" y="-59.5" font-family="Helvetica,sans-Serif" font-size="10.00" fill="#000000"> is_local_neighbor</text>
</g>
<!-- Node20&#45;&gt;Node1 -->
<g id="edge25" class="edge">
<title>Node20&#45;&gt;Node1</title>
<path fill="none" stroke="#191970" d="M1340.2758,-384.4501C1351.6974,-377.7565 1363.2145,-369.4221 1372,-359.5 1429.2616,-294.8306 1457.9867,-192.4556 1468.1249,-149.044"/>
<polygon fill="#191970" stroke="#191970" points="1338.2536,-381.5685 1331.1904,-389.4655 1341.6366,-387.6968 1338.2536,-381.5685"/>
</g>
</g>
</svg>
        <g id="navigator" transform="translate(0 0)" fill="#404254">
                <rect fill="#f2f5e9" fill-opacity="0.5" stroke="#606060" stroke-width=".5" x="0" y="0" width="60" height="60"/>
                <use id="zoomplus" xlink:href="#zoomPlus" x="17" y="9" onmousedown="handleZoom(evt,'in')"/>
                <use id="zoomminus" xlink:href="#zoomMin" x="42" y="9" onmousedown="handleZoom(evt,'out')"/>
                <use id="reset" xlink:href="#resetDef" x="30" y="36" onmousedown="handleReset()"/>
                <g id="arrowUp" xlink:href="#dirArrow" transform="translate(30 24)" onmousedown="handlePan(0,-1)">
                  <use xlink:href="#rim" fill="#404040">
                        <set attributeName="fill" to="#808080" begin="arrowUp.mouseover" end="arrowUp.mouseout"/>
                  </use>
                  <path fill="none" stroke="white" stroke-width="1.5" d="M0,-3.0v7 M-2.5,-0.5L0,-3.0L2.5,-0.5"/>
                </g>
                <g id="arrowRight" xlink:href="#dirArrow" transform="rotate(90) translate(36 -43)" onmousedown="handlePan(1,0)">
                  <use xlink:href="#rim" fill="#404040">
                        <set attributeName="fill" to="#808080" begin="arrowRight.mouseover" end="arrowRight.mouseout"/>
                  </use>
                  <path fill="none" stroke="white" stroke-width="1.5" d="M0,-3.0v7 M-2.5,-0.5L0,-3.0L2.5,-0.5"/>
                </g>
                <g id="arrowDown" xlink:href="#dirArrow" transform="rotate(180) translate(-30 -48)" onmousedown="handlePan(0,1)">
                  <use xlink:href="#rim" fill="#404040">
                        <set attributeName="fill" to="#808080" begin="arrowDown.mouseover" end="arrowDown.mouseout"/>
                  </use>
                  <path fill="none" stroke="white" stroke-width="1.5" d="M0,-3.0v7 M-2.5,-0.5L0,-3.0L2.5,-0.5"/>
                </g>
                <g id="arrowLeft" xlink:href="#dirArrow" transform="rotate(270) translate(-36 17)" onmousedown="handlePan(-1,0)">
                  <use xlink:href="#rim" fill="#404040">
                        <set attributeName="fill" to="#808080" begin="arrowLeft.mouseover" end="arrowLeft.mouseout"/>
                  </use>
                  <path fill="none" stroke="white" stroke-width="1.5" d="M0,-3.0v7 M-2.5,-0.5L0,-3.0L2.5,-0.5"/>
                </g>
        </g>
        <svg viewBox="0 0 15 15" width="100%" height="30px" preserveAspectRatio="xMaxYMin meet">
         <g id="arrow_out" transform="scale(0.3 0.3)">
          <a xlink:href="classschwz_1_1SolverRAS__coll__graph_org.svg" target="_base">
           <rect id="button" ry="5" rx="5" y="6" x="6" height="38" width="38"
                fill="#f2f5e9" fill-opacity="0.5" stroke="#606060" stroke-width="1.0"/>
           <path id="arrow"
             d="M 11.500037,31.436501 C 11.940474,20.09759 22.043105,11.32322 32.158766,21.979434 L 37.068811,17.246167 C 37.068811,17.246167 37.088388,32 37.088388,32 L 22.160133,31.978069 C 22.160133,31.978069 26.997745,27.140456 26.997745,27.140456 C 18.528582,18.264221 13.291696,25.230495 11.500037,31.436501 z"
             style="fill:#404040;"/>
          </a>
         </g>
        </svg>
</svg>
