<?xml version="1.0" encoding="UTF-8" standalone="no"?>
<!DOCTYPE svg PUBLIC "-//W3C//DTD SVG 1.1//EN"
 "http://www.w3.org/Graphics/SVG/1.1/DTD/svg11.dtd">
<!-- Generated by graphviz version 2.40.1 (20161225.0304)
 -->
<!-- Title: schwz::SchwarzBase&lt; ValueType, IndexType, MixedValueType &gt; Pages: 1 -->
<svg width="1552pt" height="593pt"
 viewBox="0.00 0.00 1552.00 593.00" xmlns="http://www.w3.org/2000/svg" xmlns:xlink="http://www.w3.org/1999/xlink">
<g id="graph0" class="graph" transform="scale(1 1) rotate(0) translate(4 589)">
<title>schwz::SchwarzBase&lt; ValueType, IndexType, MixedValueType &gt;</title>
<polygon fill="#ffffff" stroke="transparent" points="-4,4 -4,-589 1548,-589 1548,4 -4,4"/>
<!-- Node0 -->
<g id="node1" class="node">
<title>Node0</title>
<polygon fill="#bfbfbf" stroke="#000000" points="1417,-189 1417,-230 1544,-230 1544,-189 1417,-189"/>
<text text-anchor="start" x="1425" y="-218" font-family="Helvetica,sans-Serif" font-size="10.00" fill="#000000">schwz::SchwarzBase</text>
<text text-anchor="start" x="1425" y="-207" font-family="Helvetica,sans-Serif" font-size="10.00" fill="#000000">&lt; ValueType, IndexType,</text>
<text text-anchor="middle" x="1480.5" y="-196" font-family="Helvetica,sans-Serif" font-size="10.00" fill="#000000"> MixedValueType &gt;</text>
</g>
<!-- Node1 -->
<g id="node2" class="node">
<title>Node1</title>
<g id="a_node2"><a xlink:href="classschwz_1_1Initialize.html" target="_top" xlink:title="The initialization class that provides methods for initialization of the solver. ">
<polygon fill="#ffffff" stroke="#000000" points="1240,-302.5 1240,-332.5 1367,-332.5 1367,-302.5 1240,-302.5"/>
<text text-anchor="start" x="1248" y="-320.5" font-family="Helvetica,sans-Serif" font-size="10.00" fill="#000000">schwz::Initialize&lt;</text>
<text text-anchor="middle" x="1303.5" y="-309.5" font-family="Helvetica,sans-Serif" font-size="10.00" fill="#000000"> ValueType, IndexType &gt;</text>
</a>
</g>
</g>
<!-- Node1&#45;&gt;Node0 -->
<g id="edge1" class="edge">
<title>Node1&#45;&gt;Node0</title>
<path fill="none" stroke="#191970" d="M1336.9403,-297.0957C1368.372,-277.9171 1415.1771,-249.358 1446.7192,-230.112"/>
<polygon fill="#191970" stroke="#191970" points="1334.8245,-294.2866 1328.1111,-302.4831 1338.4705,-300.2621 1334.8245,-294.2866"/>
</g>
<!-- Node2 -->
<g id="node3" class="node">
<title>Node2</title>
<g id="a_node3"><a xlink:href="structschwz_1_1Settings.html" target="_top" xlink:title="The struct that contains the solver settings and the parameters to be set by the user. ">
<polygon fill="#ffffff" stroke="#000000" points="945.5,-400 945.5,-419 1032.5,-419 1032.5,-400 945.5,-400"/>
<text text-anchor="middle" x="989" y="-407" font-family="Helvetica,sans-Serif" font-size="10.00" fill="#000000">schwz::Settings</text>
</a>
</g>
</g>
<!-- Node2&#45;&gt;Node1 -->
<g id="edge2" class="edge">
<title>Node2&#45;&gt;Node1</title>
<path fill="none" stroke="#191970" d="M1037.9431,-397.4796C1082.723,-386.2205 1150.6799,-368.4761 1209,-350.5 1226.6032,-345.0741 1245.8306,-338.4838 1262.3191,-332.6235"/>
<polygon fill="#191970" stroke="#191970" points="1037.0453,-394.0963 1028.1948,-399.9202 1038.7455,-400.8867 1037.0453,-394.0963"/>
</g>
<!-- Node20 -->
<g id="node21" class="node">
<title>Node20</title>
<g id="a_node21"><a xlink:href="classschwz_1_1Solve.html" target="_top" xlink:title="The Solver class the provides the solver and the convergence checking methods. ">
<polygon fill="#ffffff" stroke="#000000" points="1227,-379.5 1227,-409.5 1380,-409.5 1380,-379.5 1227,-379.5"/>
<text text-anchor="start" x="1235" y="-397.5" font-family="Helvetica,sans-Serif" font-size="10.00" fill="#000000">schwz::Solve&lt; ValueType,</text>
<text text-anchor="middle" x="1303.5" y="-386.5" font-family="Helvetica,sans-Serif" font-size="10.00" fill="#000000"> IndexType, MixedValueType &gt;</text>
</a>
</g>
</g>
<!-- Node2&#45;&gt;Node20 -->
<g id="edge28" class="edge">
<title>Node2&#45;&gt;Node20</title>
<path fill="none" stroke="#191970" d="M1042.8186,-406.9331C1093.4759,-404.517 1169.8688,-400.8735 1226.8789,-398.1544"/>
<polygon fill="#191970" stroke="#191970" points="1042.5517,-403.4418 1032.7299,-407.4143 1042.8853,-410.4338 1042.5517,-403.4418"/>
</g>
<!-- Node3 -->
<g id="node4" class="node">
<title>Node3</title>
<g id="a_node4"><a xlink:href="structschwz_1_1Settings_1_1comm__settings.html" target="_top" xlink:title="The settings for the various available communication paradigms. ">
<polygon fill="#ffffff" stroke="#000000" points="625.5,-505.5 625.5,-535.5 745.5,-535.5 745.5,-505.5 625.5,-505.5"/>
<text text-anchor="start" x="633.5" y="-523.5" font-family="Helvetica,sans-Serif" font-size="10.00" fill="#000000">schwz::Settings::comm</text>
<text text-anchor="middle" x="685.5" y="-512.5" font-family="Helvetica,sans-Serif" font-size="10.00" fill="#000000">_settings</text>
</a>
</g>
</g>
<!-- Node3&#45;&gt;Node2 -->
<g id="edge3" class="edge">
<title>Node3&#45;&gt;Node2</title>
<path fill="none" stroke="#9a32cd" stroke-dasharray="5,2" d="M756.0809,-524.3549C798.456,-523.9954 852.416,-518.6883 896,-498.5 935.5425,-480.1838 968.8045,-438.132 982.4108,-419.1317"/>
<polygon fill="#9a32cd" stroke="#9a32cd" points="755.8499,-520.8549 745.8477,-524.3485 755.8455,-527.8549 755.8499,-520.8549"/>
<text text-anchor="middle" x="840.5" y="-525.5" font-family="Helvetica,sans-Serif" font-size="10.00" fill="#000000"> comm_settings</text>
</g>
<!-- Node4 -->
<g id="node5" class="node">
<title>Node4</title>
<g id="a_node5"><a xlink:title="STL class. ">
<polygon fill="#ffffff" stroke="#bfbfbf" points="655.5,-400 655.5,-419 715.5,-419 715.5,-400 655.5,-400"/>
<text text-anchor="middle" x="685.5" y="-407" font-family="Helvetica,sans-Serif" font-size="10.00" fill="#000000">std::string</text>
</a>
</g>
</g>
<!-- Node4&#45;&gt;Node2 -->
<g id="edge4" class="edge">
<title>Node4&#45;&gt;Node2</title>
<path fill="none" stroke="#9a32cd" stroke-dasharray="5,2" d="M725.7861,-409.5C782.7763,-409.5 886.5281,-409.5 945.3139,-409.5"/>
<polygon fill="#9a32cd" stroke="#9a32cd" points="725.7104,-406.0001 715.7103,-409.5 725.7103,-413.0001 725.7104,-406.0001"/>
<text text-anchor="middle" x="840.5" y="-489.5" font-family="Helvetica,sans-Serif" font-size="10.00" fill="#000000"> factorization</text>
<text text-anchor="middle" x="840.5" y="-478.5" font-family="Helvetica,sans-Serif" font-size="10.00" fill="#000000">metis_objtype</text>
<text text-anchor="middle" x="840.5" y="-467.5" font-family="Helvetica,sans-Serif" font-size="10.00" fill="#000000">thres_type</text>
<text text-anchor="middle" x="840.5" y="-456.5" font-family="Helvetica,sans-Serif" font-size="10.00" fill="#000000">matrix_filename</text>
<text text-anchor="middle" x="840.5" y="-445.5" font-family="Helvetica,sans-Serif" font-size="10.00" fill="#000000">norm_type</text>
<text text-anchor="middle" x="840.5" y="-434.5" font-family="Helvetica,sans-Serif" font-size="10.00" fill="#000000">reorder</text>
<text text-anchor="middle" x="840.5" y="-423.5" font-family="Helvetica,sans-Serif" font-size="10.00" fill="#000000">executor_string</text>
<text text-anchor="middle" x="840.5" y="-412.5" font-family="Helvetica,sans-Serif" font-size="10.00" fill="#000000">rhs_type</text>
</g>
<!-- Node8 -->
<g id="node9" class="node">
<title>Node8</title>
<g id="a_node9"><a xlink:href="structschwz_1_1Metadata.html" target="_top" xlink:title="The solver metadata struct. ">
<polygon fill="#ffffff" stroke="#000000" points="914,-269.5 914,-299.5 1064,-299.5 1064,-269.5 914,-269.5"/>
<text text-anchor="start" x="922" y="-287.5" font-family="Helvetica,sans-Serif" font-size="10.00" fill="#000000">schwz::Metadata&lt; ValueType,</text>
<text text-anchor="middle" x="989" y="-276.5" font-family="Helvetica,sans-Serif" font-size="10.00" fill="#000000"> IndexType &gt;</text>
</a>
</g>
</g>
<!-- Node4&#45;&gt;Node8 -->
<g id="edge11" class="edge">
<title>Node4&#45;&gt;Node8</title>
<path fill="none" stroke="#9a32cd" stroke-dasharray="5,2" d="M725.7776,-402.9762C779.3706,-393.6037 870.3584,-375.0626 896,-353.5 910.611,-341.2133 900.1553,-327.6442 914,-314.5 920.4073,-308.4169 928.2032,-303.511 936.3162,-299.5712"/>
<polygon fill="#9a32cd" stroke="#9a32cd" points="724.8511,-399.584 715.5881,-404.7267 726.0363,-406.483 724.8511,-399.584"/>
<text text-anchor="middle" x="840.5" y="-394.5" font-family="Helvetica,sans-Serif" font-size="10.00" fill="#000000"> local_precond</text>
</g>
<!-- Node5 -->
<g id="node6" class="node">
<title>Node5</title>
<polygon fill="#ffffff" stroke="#bfbfbf" points="280.5,-400.5 280.5,-430.5 375.5,-430.5 375.5,-400.5 280.5,-400.5"/>
<text text-anchor="start" x="288.5" y="-418.5" font-family="Helvetica,sans-Serif" font-size="10.00" fill="#000000">std::basic_string&lt;</text>
<text text-anchor="middle" x="328" y="-407.5" font-family="Helvetica,sans-Serif" font-size="10.00" fill="#000000"> char &gt;</text>
</g>
<!-- Node5&#45;&gt;Node4 -->
<g id="edge5" class="edge">
<title>Node5&#45;&gt;Node4</title>
<path fill="none" stroke="#191970" d="M385.8449,-414.5292C462.7087,-413.2392 595.715,-411.0069 655.2107,-410.0084"/>
<polygon fill="#191970" stroke="#191970" points="385.7829,-411.0296 375.8431,-414.697 385.9004,-418.0286 385.7829,-411.0296"/>
</g>
<!-- Node6 -->
<g id="node7" class="node">
<title>Node6</title>
<g id="a_node7"><a xlink:title="STL class. ">
<polygon fill="#ffffff" stroke="#bfbfbf" points="0,-400.5 0,-430.5 95,-430.5 95,-400.5 0,-400.5"/>
<text text-anchor="start" x="8" y="-418.5" font-family="Helvetica,sans-Serif" font-size="10.00" fill="#000000">std::basic_string&lt;</text>
<text text-anchor="middle" x="47.5" y="-407.5" font-family="Helvetica,sans-Serif" font-size="10.00" fill="#000000"> Char &gt;</text>
</a>
</g>
</g>
<!-- Node6&#45;&gt;Node5 -->
<g id="edge6" class="edge">
<title>Node6&#45;&gt;Node5</title>
<path fill="none" stroke="#ffa500" stroke-dasharray="5,2" d="M105.0943,-415.5C156.7767,-415.5 231.7415,-415.5 280.1836,-415.5"/>
<polygon fill="#ffa500" stroke="#ffa500" points="105.083,-412.0001 95.083,-415.5 105.083,-419.0001 105.083,-412.0001"/>
<text text-anchor="middle" x="179.5" y="-418.5" font-family="Helvetica,sans-Serif" font-size="10.00" fill="#000000"> &lt; char &gt;</text>
</g>
<!-- Node7 -->
<g id="node8" class="node">
<title>Node7</title>
<g id="a_node8"><a xlink:href="structschwz_1_1Settings_1_1convergence__settings.html" target="_top" xlink:title="The various convergence settings available. ">
<polygon fill="#ffffff" stroke="#000000" points="611,-554.5 611,-584.5 760,-584.5 760,-554.5 611,-554.5"/>
<text text-anchor="start" x="619" y="-572.5" font-family="Helvetica,sans-Serif" font-size="10.00" fill="#000000">schwz::Settings::convergence</text>
<text text-anchor="middle" x="685.5" y="-561.5" font-family="Helvetica,sans-Serif" font-size="10.00" fill="#000000">_settings</text>
</a>
</g>
</g>
<!-- Node7&#45;&gt;Node2 -->
<g id="edge7" class="edge">
<title>Node7&#45;&gt;Node2</title>
<path fill="none" stroke="#9a32cd" stroke-dasharray="5,2" d="M770.5753,-571.3959C811.1035,-568.7451 858.7381,-560.1748 896,-537.5 944.1038,-508.2276 974.8027,-443.7567 985.1251,-419.2308"/>
<polygon fill="#9a32cd" stroke="#9a32cd" points="770.2304,-567.9094 760.4353,-571.9473 770.6106,-574.8991 770.2304,-567.9094"/>
<text text-anchor="middle" x="840.5" y="-572.5" font-family="Helvetica,sans-Serif" font-size="10.00" fill="#000000"> convergence_settings</text>
</g>
<!-- Node8&#45;&gt;Node1 -->
<g id="edge8" class="edge">
<title>Node8&#45;&gt;Node1</title>
<path fill="none" stroke="#191970" d="M1074.5793,-293.4797C1126.7627,-298.9552 1192.3418,-305.8363 1239.9198,-310.8286"/>
<polygon fill="#191970" stroke="#191970" points="1074.6413,-289.9671 1064.3306,-292.4043 1073.9107,-296.9289 1074.6413,-289.9671"/>
</g>
<!-- Node9 -->
<g id="node10" class="node">
<title>Node9</title>
<polygon fill="#ffffff" stroke="#bfbfbf" points="410,-314 410,-355 586,-355 586,-314 410,-314"/>
<text text-anchor="start" x="418" y="-343" font-family="Helvetica,sans-Serif" font-size="10.00" fill="#000000">std::vector&lt; std::tuple</text>
<text text-anchor="start" x="418" y="-332" font-family="Helvetica,sans-Serif" font-size="10.00" fill="#000000">&lt; int, int, int, std::</text>
<text text-anchor="middle" x="498" y="-321" font-family="Helvetica,sans-Serif" font-size="10.00" fill="#000000">string, std::vector&lt; ValueType &gt; &gt; &gt;</text>
</g>
<!-- Node9&#45;&gt;Node8 -->
<g id="edge9" class="edge">
<title>Node9&#45;&gt;Node8</title>
<path fill="none" stroke="#9a32cd" stroke-dasharray="5,2" d="M596.107,-324.5095C689.675,-314.9812 828.5989,-300.8341 913.7308,-292.1649"/>
<polygon fill="#9a32cd" stroke="#9a32cd" points="595.6583,-321.037 586.0643,-325.5321 596.3675,-328.001 595.6583,-321.037"/>
<text text-anchor="middle" x="685.5" y="-327.5" font-family="Helvetica,sans-Serif" font-size="10.00" fill="#000000"> time_struct</text>
</g>
<!-- Node10 -->
<g id="node11" class="node">
<title>Node10</title>
<g id="a_node11"><a xlink:title="STL class. ">
<polygon fill="#ffffff" stroke="#bfbfbf" points="4,-134 4,-153 91,-153 91,-134 4,-134"/>
<text text-anchor="middle" x="47.5" y="-141" font-family="Helvetica,sans-Serif" font-size="10.00" fill="#000000">std::vector&lt; T &gt;</text>
</a>
</g>
</g>
<!-- Node10&#45;&gt;Node9 -->
<g id="edge10" class="edge">
<title>Node10&#45;&gt;Node9</title>
<path fill="none" stroke="#ffa500" stroke-dasharray="5,2" d="M55.3125,-162.4083C65.3715,-184.3574 84.9591,-220.0272 113,-239.5 201.7792,-301.1522 326.469,-322.915 409.6317,-330.5269"/>
<polygon fill="#ffa500" stroke="#ffa500" points="58.4689,-160.8904 51.2547,-153.1311 52.0555,-163.6957 58.4689,-160.8904"/>
<text text-anchor="start" x="113" y="-325.5" font-family="Helvetica,sans-Serif" font-size="10.00" fill="#000000"> &lt; std::tuple&lt; int,</text>
<text text-anchor="start" x="113" y="-314.5" font-family="Helvetica,sans-Serif" font-size="10.00" fill="#000000"> int, int, std::string,</text>
<text text-anchor="middle" x="179.5" y="-303.5" font-family="Helvetica,sans-Serif" font-size="10.00" fill="#000000"> std::vector&lt; ValueType &gt; &gt; &gt;</text>
</g>
<!-- Node12 -->
<g id="node13" class="node">
<title>Node12</title>
<polygon fill="#ffffff" stroke="#bfbfbf" points="264,-212 264,-231 392,-231 392,-212 264,-212"/>
<text text-anchor="middle" x="328" y="-219" font-family="Helvetica,sans-Serif" font-size="10.00" fill="#000000">std::vector&lt; ValueType &gt;</text>
</g>
<!-- Node10&#45;&gt;Node12 -->
<g id="edge14" class="edge">
<title>Node10&#45;&gt;Node12</title>
<path fill="none" stroke="#ffa500" stroke-dasharray="5,2" d="M61.9157,-160.4939C74.0845,-173.5667 92.7277,-190.8172 113,-199.5 160.7698,-219.9602 219.7812,-224.7211 263.8884,-224.7813"/>
<polygon fill="#ffa500" stroke="#ffa500" points="64.4948,-158.1275 55.2189,-153.0081 59.2778,-162.7947 64.4948,-158.1275"/>
<text text-anchor="middle" x="179.5" y="-227.5" font-family="Helvetica,sans-Serif" font-size="10.00" fill="#000000"> &lt; ValueType &gt;</text>
</g>
<!-- Node13 -->
<g id="node14" class="node">
<title>Node13</title>
<polygon fill="#ffffff" stroke="#bfbfbf" points="268.5,-84.5 268.5,-114.5 387.5,-114.5 387.5,-84.5 268.5,-84.5"/>
<text text-anchor="start" x="276.5" y="-102.5" font-family="Helvetica,sans-Serif" font-size="10.00" fill="#000000">std::vector&lt; std::vector</text>
<text text-anchor="middle" x="328" y="-91.5" font-family="Helvetica,sans-Serif" font-size="10.00" fill="#000000">&lt; ValueType &gt; &gt;</text>
</g>
<!-- Node10&#45;&gt;Node13 -->
<g id="edge16" class="edge">
<title>Node10&#45;&gt;Node13</title>
<path fill="none" stroke="#ffa500" stroke-dasharray="5,2" d="M71.0685,-128.6212C83.1315,-121.8013 98.3342,-114.3843 113,-110.5 164.1233,-96.9599 224.4171,-95.0273 268.1249,-96.0072"/>
<polygon fill="#ffa500" stroke="#ffa500" points="68.9763,-125.7916 62.1376,-133.8838 72.53,-131.8225 68.9763,-125.7916"/>
<text text-anchor="middle" x="179.5" y="-113.5" font-family="Helvetica,sans-Serif" font-size="10.00" fill="#000000"> &lt; std::vector&lt; ValueType &gt; &gt;</text>
</g>
<!-- Node14 -->
<g id="node15" class="node">
<title>Node14</title>
<polygon fill="#ffffff" stroke="#bfbfbf" points="437,-97 437,-160 559,-160 559,-97 437,-97"/>
<text text-anchor="start" x="445" y="-148" font-family="Helvetica,sans-Serif" font-size="10.00" fill="#000000">std::vector&lt; std::tuple</text>
<text text-anchor="start" x="445" y="-137" font-family="Helvetica,sans-Serif" font-size="10.00" fill="#000000">&lt; int, std::vector&lt; std</text>
<text text-anchor="start" x="445" y="-126" font-family="Helvetica,sans-Serif" font-size="10.00" fill="#000000">::tuple&lt; int, int &gt; &gt;, std</text>
<text text-anchor="start" x="445" y="-115" font-family="Helvetica,sans-Serif" font-size="10.00" fill="#000000">::vector&lt; std::tuple&lt; int,</text>
<text text-anchor="middle" x="498" y="-104" font-family="Helvetica,sans-Serif" font-size="10.00" fill="#000000"> int &gt; &gt;, int, int &gt; &gt;</text>
</g>
<!-- Node10&#45;&gt;Node14 -->
<g id="edge18" class="edge">
<title>Node10&#45;&gt;Node14</title>
<path fill="none" stroke="#ffa500" stroke-dasharray="5,2" d="M101.4925,-140.9646C105.3865,-140.8009 109.2533,-140.6442 113,-140.5 227.4349,-136.0962 361.0512,-132.2143 436.9781,-130.1268"/>
<polygon fill="#ffa500" stroke="#ffa500" points="101.0244,-137.4815 91.1849,-141.4102 101.3268,-144.475 101.0244,-137.4815"/>
<text text-anchor="start" x="126" y="-187.5" font-family="Helvetica,sans-Serif" font-size="10.00" fill="#000000"> &lt; std::tuple&lt; int,</text>
<text text-anchor="start" x="126" y="-176.5" font-family="Helvetica,sans-Serif" font-size="10.00" fill="#000000"> std::vector&lt; std::tuple</text>
<text text-anchor="start" x="126" y="-165.5" font-family="Helvetica,sans-Serif" font-size="10.00" fill="#000000">&lt; int, int &gt; &gt;, std::vector</text>
<text text-anchor="start" x="126" y="-154.5" font-family="Helvetica,sans-Serif" font-size="10.00" fill="#000000">&lt; std::tuple&lt; int, int &gt; &gt;</text>
<text text-anchor="middle" x="179.5" y="-143.5" font-family="Helvetica,sans-Serif" font-size="10.00" fill="#000000">, int, int &gt; &gt;</text>
</g>
<!-- Node15 -->
<g id="node16" class="node">
<title>Node15</title>
<polygon fill="#ffffff" stroke="#bfbfbf" points="785,-321.5 785,-351.5 896,-351.5 896,-321.5 785,-321.5"/>
<text text-anchor="start" x="793" y="-339.5" font-family="Helvetica,sans-Serif" font-size="10.00" fill="#000000">std::vector&lt; unsigned</text>
<text text-anchor="middle" x="840.5" y="-328.5" font-family="Helvetica,sans-Serif" font-size="10.00" fill="#000000"> int &gt;</text>
</g>
<!-- Node10&#45;&gt;Node15 -->
<g id="edge20" class="edge">
<title>Node10&#45;&gt;Node15</title>
<path fill="none" stroke="#ffa500" stroke-dasharray="5,2" d="M51.2262,-162.9092C60.2282,-207.6076 84.5317,-315.6539 113,-337.5 196.4551,-401.5423 480.885,-360.6239 586,-356.5 654.6436,-353.807 733.4618,-347.0432 784.9697,-342.1253"/>
<polygon fill="#ffa500" stroke="#ffa500" points="54.6412,-162.1358 49.274,-153.0011 47.7732,-163.4891 54.6412,-162.1358"/>
<text text-anchor="middle" x="328" y="-376.5" font-family="Helvetica,sans-Serif" font-size="10.00" fill="#000000"> &lt; unsigned int &gt;</text>
</g>
<!-- Node18 -->
<g id="node19" class="node">
<title>Node18</title>
<polygon fill="#ffffff" stroke="#bfbfbf" points="264.5,-4 264.5,-23 391.5,-23 391.5,-4 264.5,-4"/>
<text text-anchor="middle" x="328" y="-11" font-family="Helvetica,sans-Serif" font-size="10.00" fill="#000000">std::vector&lt; IndexType &gt;</text>
</g>
<!-- Node10&#45;&gt;Node18 -->
<g id="edge24" class="edge">
<title>Node10&#45;&gt;Node18</title>
<path fill="none" stroke="#ffa500" stroke-dasharray="5,2" d="M53.8019,-124.1664C62.7886,-99.9649 81.7504,-59.2904 113,-39.5 157.9464,-11.0354 218.8918,-6.0941 264.4179,-7.3682"/>
<polygon fill="#ffa500" stroke="#ffa500" points="50.4627,-123.1124 50.4602,-133.7073 57.0692,-125.4264 50.4627,-123.1124"/>
<text text-anchor="middle" x="179.5" y="-42.5" font-family="Helvetica,sans-Serif" font-size="10.00" fill="#000000"> &lt; IndexType &gt;</text>
</g>
<!-- Node19 -->
<g id="node20" class="node">
<title>Node19</title>
<polygon fill="#ffffff" stroke="#bfbfbf" points="278.5,-46 278.5,-65 377.5,-65 377.5,-46 278.5,-46"/>
<text text-anchor="middle" x="328" y="-53" font-family="Helvetica,sans-Serif" font-size="10.00" fill="#000000">std::vector&lt; bool &gt;</text>
</g>
<!-- Node10&#45;&gt;Node19 -->
<g id="edge26" class="edge">
<title>Node10&#45;&gt;Node19</title>
<path fill="none" stroke="#ffa500" stroke-dasharray="5,2" d="M60.7843,-125.7577C72.7273,-111.2434 91.6397,-91.5338 113,-81.5 165.5775,-56.8021 233.002,-52.4453 278.2024,-52.8731"/>
<polygon fill="#ffa500" stroke="#ffa500" points="57.7352,-123.9718 54.2892,-133.9906 63.2309,-128.3075 57.7352,-123.9718"/>
<text text-anchor="middle" x="179.5" y="-84.5" font-family="Helvetica,sans-Serif" font-size="10.00" fill="#000000"> &lt; bool &gt;</text>
</g>
<!-- Node11 -->
<g id="node12" class="node">
<title>Node11</title>
<g id="a_node12"><a xlink:href="structschwz_1_1Metadata_1_1post__process__data.html" target="_top" xlink:title="The struct used for storing data for post&#45;processing. ">
<polygon fill="#ffffff" stroke="#000000" points="604,-238.5 604,-268.5 767,-268.5 767,-238.5 604,-238.5"/>
<text text-anchor="start" x="612" y="-256.5" font-family="Helvetica,sans-Serif" font-size="10.00" fill="#000000">schwz::Metadata&lt; ValueType,</text>
<text text-anchor="middle" x="685.5" y="-245.5" font-family="Helvetica,sans-Serif" font-size="10.00" fill="#000000"> IndexType &gt;::post_process_data</text>
</a>
</g>
</g>
<!-- Node11&#45;&gt;Node8 -->
<g id="edge12" class="edge">
<title>Node11&#45;&gt;Node8</title>
<path fill="none" stroke="#9a32cd" stroke-dasharray="5,2" d="M777.2891,-262.8755C820.9801,-267.3382 872.5733,-272.608 913.8892,-276.8281"/>
<polygon fill="#9a32cd" stroke="#9a32cd" points="777.5356,-259.3825 767.2317,-261.8482 776.8242,-266.3463 777.5356,-259.3825"/>
<text text-anchor="middle" x="840.5" y="-277.5" font-family="Helvetica,sans-Serif" font-size="10.00" fill="#000000"> post_process_data</text>
</g>
<!-- Node12&#45;&gt;Node0 -->
<g id="edge29" class="edge">
<title>Node12&#45;&gt;Node0</title>
<path fill="none" stroke="#9a32cd" stroke-dasharray="5,2" d="M402.604,-217.5378C474.9088,-214.0424 587.6886,-209.5 685.5,-209.5 685.5,-209.5 685.5,-209.5 1303.5,-209.5 1340.9896,-209.5 1382.9457,-209.5 1416.5969,-209.5"/>
<polygon fill="#9a32cd" stroke="#9a32cd" points="402.0533,-214.0604 392.2364,-218.0452 402.3956,-221.0521 402.0533,-214.0604"/>
<text text-anchor="middle" x="989" y="-212.5" font-family="Helvetica,sans-Serif" font-size="10.00" fill="#000000"> local_residual_vector_out</text>
</g>
<!-- Node12&#45;&gt;Node11 -->
<g id="edge13" class="edge">
<title>Node12&#45;&gt;Node11</title>
<path fill="none" stroke="#9a32cd" stroke-dasharray="5,2" d="M402.0807,-224.7315C453.7278,-227.3878 524.1823,-231.8156 586,-238.5 591.8184,-239.1291 597.8178,-239.8505 603.8513,-240.6291"/>
<polygon fill="#9a32cd" stroke="#9a32cd" points="402.1738,-221.2319 392.0102,-224.2237 401.8212,-228.223 402.1738,-221.2319"/>
<text text-anchor="middle" x="498" y="-296.5" font-family="Helvetica,sans-Serif" font-size="10.00" fill="#000000"> local_timestamp</text>
<text text-anchor="middle" x="498" y="-285.5" font-family="Helvetica,sans-Serif" font-size="10.00" fill="#000000">local_converged_resnorm</text>
<text text-anchor="start" x="442" y="-274.5" font-family="Helvetica,sans-Serif" font-size="10.00" fill="#000000">local_residual_vector</text>
<text text-anchor="middle" x="498" y="-263.5" font-family="Helvetica,sans-Serif" font-size="10.00" fill="#000000">_out</text>
<text text-anchor="start" x="442" y="-252.5" font-family="Helvetica,sans-Serif" font-size="10.00" fill="#000000">local_converged_iter</text>
<text text-anchor="middle" x="498" y="-241.5" font-family="Helvetica,sans-Serif" font-size="10.00" fill="#000000">_count</text>
</g>
<!-- Node13&#45;&gt;Node0 -->
<g id="edge30" class="edge">
<title>Node13&#45;&gt;Node0</title>
<path fill="none" stroke="#9a32cd" stroke-dasharray="5,2" d="M398.0356,-93.8876C470.0725,-88.6053 585.5467,-81.5 685.5,-81.5 685.5,-81.5 685.5,-81.5 1303.5,-81.5 1375.9318,-81.5 1438.8099,-152.752 1466.0706,-188.9346"/>
<polygon fill="#9a32cd" stroke="#9a32cd" points="397.4429,-90.4219 387.7294,-94.6527 397.9611,-97.4027 397.4429,-90.4219"/>
<text text-anchor="middle" x="989" y="-84.5" font-family="Helvetica,sans-Serif" font-size="10.00" fill="#000000"> global_residual_vector_out</text>
</g>
<!-- Node13&#45;&gt;Node11 -->
<g id="edge15" class="edge">
<title>Node13&#45;&gt;Node11</title>
<path fill="none" stroke="#9a32cd" stroke-dasharray="5,2" d="M351.6212,-121.1867C367.2002,-134.4792 388.6135,-150.9184 410,-161.5 482.7763,-197.5082 509.4435,-183.4427 586,-210.5 609.0657,-218.6521 634.3637,-229.6133 653.6788,-238.4284"/>
<polygon fill="#9a32cd" stroke="#9a32cd" points="353.8734,-118.5069 344.0371,-114.5701 349.2715,-123.7816 353.8734,-118.5069"/>
<text text-anchor="middle" x="498" y="-213.5" font-family="Helvetica,sans-Serif" font-size="10.00" fill="#000000"> global_residual_vector_out</text>
</g>
<!-- Node14&#45;&gt;Node8 -->
<g id="edge17" class="edge">
<title>Node14&#45;&gt;Node8</title>
<path fill="none" stroke="#9a32cd" stroke-dasharray="5,2" d="M568.7668,-150.984C670.4396,-183.2873 855.1186,-241.9634 941.7503,-269.4879"/>
<polygon fill="#9a32cd" stroke="#9a32cd" points="569.7831,-147.6345 559.1927,-147.9421 567.6634,-154.3059 569.7831,-147.6345"/>
<text text-anchor="middle" x="685.5" y="-216.5" font-family="Helvetica,sans-Serif" font-size="10.00" fill="#000000"> comm_data_struct</text>
</g>
<!-- Node15&#45;&gt;Node1 -->
<g id="edge19" class="edge">
<title>Node15&#45;&gt;Node1</title>
<path fill="none" stroke="#9a32cd" stroke-dasharray="5,2" d="M906.5646,-333.7889C995.3328,-330.1462 1152.0558,-323.7148 1239.6677,-320.1195"/>
<polygon fill="#9a32cd" stroke="#9a32cd" points="906.1967,-330.301 896.3486,-334.2082 906.4837,-337.2951 906.1967,-330.301"/>
<text text-anchor="middle" x="989" y="-347.5" font-family="Helvetica,sans-Serif" font-size="10.00" fill="#000000"> cell_weights</text>
<text text-anchor="middle" x="989" y="-336.5" font-family="Helvetica,sans-Serif" font-size="10.00" fill="#000000">partition_indices</text>
</g>
<!-- Node16 -->
<g id="node17" class="node">
<title>Node16</title>
<g id="a_node17"><a xlink:href="classschwz_1_1Communicate.html" target="_top" xlink:title="The communication class that provides the methods for the communication between the subdomains...">
<polygon fill="#ffffff" stroke="#000000" points="1082,-15 1082,-56 1209,-56 1209,-15 1082,-15"/>
<text text-anchor="start" x="1090" y="-44" font-family="Helvetica,sans-Serif" font-size="10.00" fill="#000000">schwz::Communicate</text>
<text text-anchor="start" x="1090" y="-33" font-family="Helvetica,sans-Serif" font-size="10.00" fill="#000000">&lt; ValueType, IndexType,</text>
<text text-anchor="middle" x="1145.5" y="-22" font-family="Helvetica,sans-Serif" font-size="10.00" fill="#000000"> MixedValueType &gt;</text>
</a>
</g>
</g>
<!-- Node16&#45;&gt;Node0 -->
<g id="edge21" class="edge">
<title>Node16&#45;&gt;Node0</title>
<path fill="none" stroke="#191970" d="M1219.4441,-28.1363C1273.5024,-26.4841 1346.2825,-32.3809 1399,-67.5 1442.409,-96.418 1465.4616,-156.8386 1475.0372,-188.7419"/>
<polygon fill="#191970" stroke="#191970" points="1219.0881,-24.6476 1209.2358,-28.544 1219.3675,-31.6421 1219.0881,-24.6476"/>
</g>
<!-- Node17 -->
<g id="node18" class="node">
<title>Node17</title>
<g id="a_node18"><a xlink:href="structschwz_1_1Communicate_1_1comm__struct.html" target="_top" xlink:title="The communication struct used to store the communication data. ">
<polygon fill="#ffffff" stroke="#000000" points="618.5,-.5 618.5,-52.5 752.5,-52.5 752.5,-.5 618.5,-.5"/>
<text text-anchor="start" x="626.5" y="-40.5" font-family="Helvetica,sans-Serif" font-size="10.00" fill="#000000">schwz::Communicate</text>
<text text-anchor="start" x="626.5" y="-29.5" font-family="Helvetica,sans-Serif" font-size="10.00" fill="#000000">&lt; ValueType, IndexType,</text>
<text text-anchor="start" x="626.5" y="-18.5" font-family="Helvetica,sans-Serif" font-size="10.00" fill="#000000"> MixedValueType &gt;::comm</text>
<text text-anchor="middle" x="685.5" y="-7.5" font-family="Helvetica,sans-Serif" font-size="10.00" fill="#000000">_struct</text>
</a>
</g>
</g>
<!-- Node17&#45;&gt;Node16 -->
<g id="edge22" class="edge">
<title>Node17&#45;&gt;Node16</title>
<path fill="none" stroke="#9a32cd" stroke-dasharray="5,2" d="M762.9793,-28.0159C852.5486,-29.7683 998.3041,-32.6201 1081.6466,-34.2507"/>
<polygon fill="#9a32cd" stroke="#9a32cd" points="762.9472,-24.5147 752.8806,-27.8183 762.8102,-31.5134 762.9472,-24.5147"/>
<text text-anchor="middle" x="840.5" y="-34.5" font-family="Helvetica,sans-Serif" font-size="10.00" fill="#000000"> comm_struct</text>
</g>
<!-- Node18&#45;&gt;Node17 -->
<g id="edge23" class="edge">
<title>Node18&#45;&gt;Node17</title>
<path fill="none" stroke="#9a32cd" stroke-dasharray="5,2" d="M401.7419,-11.6165C404.5299,-11.5722 407.2901,-11.533 410,-11.5 488.2164,-10.5463 507.9966,-5.6534 586,-11.5 596.5395,-12.29 607.6546,-13.5443 618.4846,-14.9994"/>
<polygon fill="#9a32cd" stroke="#9a32cd" points="401.5018,-8.1201 391.5654,-11.7967 401.6258,-15.119 401.5018,-8.1201"/>
<text text-anchor="middle" x="498" y="-25.5" font-family="Helvetica,sans-Serif" font-size="10.00" fill="#000000"> recv</text>
<text text-anchor="middle" x="498" y="-14.5" font-family="Helvetica,sans-Serif" font-size="10.00" fill="#000000">send</text>
</g>
<!-- Node19&#45;&gt;Node17 -->
<g id="edge25" class="edge">
<title>Node19&#45;&gt;Node17</title>
<path fill="none" stroke="#9a32cd" stroke-dasharray="5,2" d="M387.9844,-50.6341C451.6265,-45.4716 551.9544,-37.3331 618.2373,-31.9563"/>
<polygon fill="#9a32cd" stroke="#9a32cd" points="387.3931,-47.1705 377.7088,-51.4677 387.9591,-54.1476 387.3931,-47.1705"/>
<text text-anchor="middle" x="498" y="-51.5" font-family="Helvetica,sans-Serif" font-size="10.00" fill="#000000"> is_local_neighbor</text>
</g>
<!-- Node20&#45;&gt;Node0 -->
<g id="edge27" class="edge">
<title>Node20&#45;&gt;Node0</title>
<path fill="none" stroke="#191970" d="M1338.2024,-373.7954C1351.957,-364.7632 1367.4505,-353.4989 1380,-341.5 1416.4319,-306.6665 1450.0183,-257.7732 1467.6248,-230.3203"/>
<polygon fill="#191970" stroke="#191970" points="1335.9957,-371.0524 1329.4632,-379.3937 1339.7716,-376.9467 1335.9957,-371.0524"/>
</g>
</g>
</svg>
