<?xml version="1.0" encoding="UTF-8" standalone="no"?>
<!DOCTYPE svg PUBLIC "-//W3C//DTD SVG 1.1//EN"
 "http://www.w3.org/Graphics/SVG/1.1/DTD/svg11.dtd">
<!-- Generated by graphviz version 2.40.1 (20161225.0304)
 -->
<!-- Title: Initialization Pages: 1 -->
<svg width="265pt" height="85pt"
 viewBox="0.00 0.00 265.00 84.82" xmlns="http://www.w3.org/2000/svg" xmlns:xlink="http://www.w3.org/1999/xlink">
<g id="graph0" class="graph" transform="scale(1 1) rotate(0) translate(4 80.8242)">
<title>Initialization</title>
<polygon fill="#ffffff" stroke="transparent" points="-4,4 -4,-80.8242 261,-80.8242 261,4 -4,4"/>
<!-- Node2 -->
<g id="node1" class="node">
<title>Node2</title>
<g id="a_node1"><a xlink:href="group__solve.html" target="_top" xlink:title="A module dedicated to the solvers including local solution and convergence detection in schwarz&#45;lib...">
<polygon fill="#ffffff" stroke="#000000" points="198,-57.3242 198,-76.3242 239,-76.3242 239,-57.3242 198,-57.3242"/>
<text text-anchor="middle" x="218.5" y="-64.3242" font-family="Helvetica,sans-Serif" font-size="10.00" fill="#000000">Solve</text>
</a>
</g>
</g>
<!-- Node1 -->
<g id="node2" class="node">
<title>Node1</title>
<g id="a_node2"><a xlink:href="group__comm.html" target="_top" xlink:title="A module dedicated to the Communication interface in schwarz&#45;lib. ">
<polygon fill="#ffffff" stroke="#000000" points="180,-4.3242 180,-23.3242 257,-23.3242 257,-4.3242 180,-4.3242"/>
<text text-anchor="middle" x="218.5" y="-11.3242" font-family="Helvetica,sans-Serif" font-size="10.00" fill="#000000">Communicate</text>
</a>
</g>
</g>
<!-- Node0 -->
<g id="node3" class="node">
<title>Node0</title>
<polygon fill="#bfbfbf" stroke="#000000" points="0,-23.3242 0,-42.3242 68,-42.3242 68,-23.3242 0,-23.3242"/>
<text text-anchor="middle" x="34" y="-30.3242" font-family="Helvetica,sans-Serif" font-size="10.00" fill="#000000">Initialization</text>
</g>
<!-- Node0&#45;&gt;Node2 -->
<g id="edge2" class="edge">
<title>Node0&#45;&gt;Node2</title>
<path fill="none" stroke="#ffa500" stroke-dasharray="5,2" d="M68.2706,-39.1397C106.3076,-46.1492 166.4607,-57.2343 197.8663,-63.0218"/>
<text text-anchor="middle" x="124" y="-58.8242" font-family="Helvetica,sans-Serif" font-size="10.00" fill="#000000">schwz::Metadata</text>
</g>
<!-- Node0&#45;&gt;Node1 -->
<g id="edge1" class="edge">
<title>Node0&#45;&gt;Node1</title>
<path fill="none" stroke="#ffa500" stroke-dasharray="5,2" d="M68.2706,-29.295C99.9508,-26.0326 146.9725,-21.1902 179.9491,-17.7942"/>
<text text-anchor="middle" x="124" y="-29.8242" font-family="Helvetica,sans-Serif" font-size="10.00" fill="#000000">schwz::Metadata</text>
</g>
<!-- Node0&#45;&gt;Node1 -->
<g id="edge3" class="edge">
<title>Node0&#45;&gt;Node1</title>
<path fill="none" stroke="#8a2be2" stroke-dasharray="5,2" d="M47.3525,-23.2295C57.4269,-16.6093 71.882,-8.3836 86,-4.8242 116.9643,2.9824 153.2067,-.2923 179.953,-4.9429"/>
<text text-anchor="middle" x="124" y="-7.8242" font-family="Helvetica,sans-Serif" font-size="10.00" fill="#000000">ProcessTopology</text>
</g>
</g>
</svg>
