<?xml version="1.0" encoding="UTF-8" standalone="no"?>
<!DOCTYPE svg PUBLIC "-//W3C//DTD SVG 1.1//EN"
 "http://www.w3.org/Graphics/SVG/1.1/DTD/svg11.dtd">
<!-- Generated by graphviz version 2.40.1 (20161225.0304)
 -->
<!-- Title: schwz::Settings Pages: 1 -->
<svg width="384pt" height="296pt"
 viewBox="0.00 0.00 384.00 296.00" xmlns="http://www.w3.org/2000/svg" xmlns:xlink="http://www.w3.org/1999/xlink">
<g id="graph0" class="graph" transform="scale(1 1) rotate(0) translate(4 292)">
<title>schwz::Settings</title>
<polygon fill="#ffffff" stroke="transparent" points="-4,4 -4,-292 380,-292 380,4 -4,4"/>
<!-- Node0 -->
<g id="node1" class="node">
<title>Node0</title>
<polygon fill="#bfbfbf" stroke="#000000" points="124.5,-.5 124.5,-19.5 211.5,-19.5 211.5,-.5 124.5,-.5"/>
<text text-anchor="middle" x="168" y="-7.5" font-family="Helvetica,sans-Serif" font-size="10.00" fill="#000000">schwz::Settings</text>
</g>
<!-- Node1 -->
<g id="node2" class="node">
<title>Node1</title>
<g id="a_node2"><a xlink:href="structschwz_1_1Settings_1_1comm__settings.html" target="_top" xlink:title="The settings for the various available communication paradigms. ">
<polygon fill="#ffffff" stroke="#000000" points="0,-111.5 0,-141.5 120,-141.5 120,-111.5 0,-111.5"/>
<text text-anchor="start" x="8" y="-129.5" font-family="Helvetica,sans-Serif" font-size="10.00" fill="#000000">schwz::Settings::comm</text>
<text text-anchor="middle" x="60" y="-118.5" font-family="Helvetica,sans-Serif" font-size="10.00" fill="#000000">_settings</text>
</a>
</g>
</g>
<!-- Node1&#45;&gt;Node0 -->
<g id="edge1" class="edge">
<title>Node1&#45;&gt;Node0</title>
<path fill="none" stroke="#9a32cd" stroke-dasharray="5,2" d="M63.9306,-101.2364C68.2054,-81.6451 76.8699,-55.0436 94,-38 102.3742,-29.6681 113.4732,-23.7743 124.5212,-19.6207"/>
<polygon fill="#9a32cd" stroke="#9a32cd" points="60.448,-100.8108 61.9814,-111.2941 67.3201,-102.1427 60.448,-100.8108"/>
<text text-anchor="middle" x="129" y="-63" font-family="Helvetica,sans-Serif" font-size="10.00" fill="#000000"> comm_settings</text>
</g>
<!-- Node2 -->
<g id="node3" class="node">
<title>Node2</title>
<g id="a_node3"><a xlink:title="STL class. ">
<polygon fill="#ffffff" stroke="#bfbfbf" points="138,-117 138,-136 198,-136 198,-117 138,-117"/>
<text text-anchor="middle" x="168" y="-124" font-family="Helvetica,sans-Serif" font-size="10.00" fill="#000000">std::string</text>
</a>
</g>
</g>
<!-- Node2&#45;&gt;Node0 -->
<g id="edge2" class="edge">
<title>Node2&#45;&gt;Node0</title>
<path fill="none" stroke="#9a32cd" stroke-dasharray="5,2" d="M168,-106.7359C168,-81.4699 168,-38.7196 168,-19.6654"/>
<polygon fill="#9a32cd" stroke="#9a32cd" points="164.5001,-106.9663 168,-116.9663 171.5001,-106.9664 164.5001,-106.9663"/>
<text text-anchor="middle" x="203" y="-85" font-family="Helvetica,sans-Serif" font-size="10.00" fill="#000000"> factorization</text>
<text text-anchor="middle" x="203" y="-74" font-family="Helvetica,sans-Serif" font-size="10.00" fill="#000000">metis_objtype</text>
<text text-anchor="middle" x="203" y="-63" font-family="Helvetica,sans-Serif" font-size="10.00" fill="#000000">matrix_filename</text>
<text text-anchor="middle" x="203" y="-52" font-family="Helvetica,sans-Serif" font-size="10.00" fill="#000000">reorder</text>
<text text-anchor="middle" x="203" y="-41" font-family="Helvetica,sans-Serif" font-size="10.00" fill="#000000">executor_string</text>
</g>
<!-- Node3 -->
<g id="node4" class="node">
<title>Node3</title>
<polygon fill="#ffffff" stroke="#bfbfbf" points="120.5,-179.5 120.5,-209.5 215.5,-209.5 215.5,-179.5 120.5,-179.5"/>
<text text-anchor="start" x="128.5" y="-197.5" font-family="Helvetica,sans-Serif" font-size="10.00" fill="#000000">std::basic_string&lt;</text>
<text text-anchor="middle" x="168" y="-186.5" font-family="Helvetica,sans-Serif" font-size="10.00" fill="#000000"> char &gt;</text>
</g>
<!-- Node3&#45;&gt;Node2 -->
<g id="edge3" class="edge">
<title>Node3&#45;&gt;Node2</title>
<path fill="none" stroke="#191970" d="M168,-169.0669C168,-157.6483 168,-144.8507 168,-136.297"/>
<polygon fill="#191970" stroke="#191970" points="164.5001,-169.4086 168,-179.4086 171.5001,-169.4086 164.5001,-169.4086"/>
</g>
<!-- Node4 -->
<g id="node5" class="node">
<title>Node4</title>
<g id="a_node5"><a xlink:title="STL class. ">
<polygon fill="#ffffff" stroke="#bfbfbf" points="120.5,-257.5 120.5,-287.5 215.5,-287.5 215.5,-257.5 120.5,-257.5"/>
<text text-anchor="start" x="128.5" y="-275.5" font-family="Helvetica,sans-Serif" font-size="10.00" fill="#000000">std::basic_string&lt;</text>
<text text-anchor="middle" x="168" y="-264.5" font-family="Helvetica,sans-Serif" font-size="10.00" fill="#000000"> Char &gt;</text>
</a>
</g>
</g>
<!-- Node4&#45;&gt;Node3 -->
<g id="edge4" class="edge">
<title>Node4&#45;&gt;Node3</title>
<path fill="none" stroke="#ffa500" stroke-dasharray="5,2" d="M168,-247.2875C168,-234.9187 168,-220.4264 168,-209.7592"/>
<polygon fill="#ffa500" stroke="#ffa500" points="164.5001,-247.4608 168,-257.4608 171.5001,-247.4608 164.5001,-247.4608"/>
<text text-anchor="middle" x="188" y="-231" font-family="Helvetica,sans-Serif" font-size="10.00" fill="#000000"> &lt; char &gt;</text>
</g>
<!-- Node5 -->
<g id="node6" class="node">
<title>Node5</title>
<g id="a_node6"><a xlink:href="structschwz_1_1Settings_1_1convergence__settings.html" target="_top" xlink:title="The various convergence settings available. ">
<polygon fill="#ffffff" stroke="#000000" points="215.5,-111.5 215.5,-141.5 364.5,-141.5 364.5,-111.5 215.5,-111.5"/>
<text text-anchor="start" x="223.5" y="-129.5" font-family="Helvetica,sans-Serif" font-size="10.00" fill="#000000">schwz::Settings::convergence</text>
<text text-anchor="middle" x="290" y="-118.5" font-family="Helvetica,sans-Serif" font-size="10.00" fill="#000000">_settings</text>
</a>
</g>
</g>
<!-- Node5&#45;&gt;Node0 -->
<g id="edge5" class="edge">
<title>Node5&#45;&gt;Node0</title>
<path fill="none" stroke="#9a32cd" stroke-dasharray="5,2" d="M282.0097,-101.6898C274.5147,-81.9976 261.5089,-55.0341 242,-38 232.4808,-29.6883 220.2463,-23.7344 208.4777,-19.5172"/>
<polygon fill="#9a32cd" stroke="#9a32cd" points="278.762,-103.002 285.4321,-111.2336 285.3511,-100.6391 278.762,-103.002"/>
<text text-anchor="middle" x="326.5" y="-63" font-family="Helvetica,sans-Serif" font-size="10.00" fill="#000000"> convergence_settings</text>
</g>
</g>
</svg>
