<?xml version="1.0" encoding="UTF-8" standalone="no"?>
<!DOCTYPE svg PUBLIC "-//W3C//DTD SVG 1.1//EN"
 "http://www.w3.org/Graphics/SVG/1.1/DTD/svg11.dtd">
<!-- Generated by graphviz version 2.40.1 (20161225.0304)
 -->
<!-- Title: schwz::Communicate&lt; ValueType, IndexType, MixedValueType &gt; Pages: 1 -->
<svg width="154pt" height="284pt"
 viewBox="0.00 0.00 154.00 284.00" xmlns="http://www.w3.org/2000/svg" xmlns:xlink="http://www.w3.org/1999/xlink">
<g id="graph0" class="graph" transform="scale(1 1) rotate(0) translate(4 280)">
<title>schwz::Communicate&lt; ValueType, IndexType, MixedValueType &gt;</title>
<polygon fill="#ffffff" stroke="transparent" points="-4,4 -4,-280 150,-280 150,4 -4,4"/>
<!-- Node0 -->
<g id="node1" class="node">
<title>Node0</title>
<polygon fill="#bfbfbf" stroke="#000000" points="3.5,-.5 3.5,-41.5 130.5,-41.5 130.5,-.5 3.5,-.5"/>
<text text-anchor="start" x="11.5" y="-29.5" font-family="Helvetica,sans-Serif" font-size="10.00" fill="#000000">schwz::Communicate</text>
<text text-anchor="start" x="11.5" y="-18.5" font-family="Helvetica,sans-Serif" font-size="10.00" fill="#000000">&lt; ValueType, IndexType,</text>
<text text-anchor="middle" x="67" y="-7.5" font-family="Helvetica,sans-Serif" font-size="10.00" fill="#000000"> MixedValueType &gt;</text>
</g>
<!-- Node1 -->
<g id="node2" class="node">
<title>Node1</title>
<g id="a_node2"><a xlink:href="structschwz_1_1Communicate_1_1comm__struct.html" target="_top" xlink:title="The communication struct used to store the communication data. ">
<polygon fill="#ffffff" stroke="#000000" points="0,-89.5 0,-141.5 134,-141.5 134,-89.5 0,-89.5"/>
<text text-anchor="start" x="8" y="-129.5" font-family="Helvetica,sans-Serif" font-size="10.00" fill="#000000">schwz::Communicate</text>
<text text-anchor="start" x="8" y="-118.5" font-family="Helvetica,sans-Serif" font-size="10.00" fill="#000000">&lt; ValueType, IndexType,</text>
<text text-anchor="start" x="8" y="-107.5" font-family="Helvetica,sans-Serif" font-size="10.00" fill="#000000"> MixedValueType &gt;::comm</text>
<text text-anchor="middle" x="67" y="-96.5" font-family="Helvetica,sans-Serif" font-size="10.00" fill="#000000">_struct</text>
</a>
</g>
</g>
<!-- Node1&#45;&gt;Node0 -->
<g id="edge1" class="edge">
<title>Node1&#45;&gt;Node0</title>
<path fill="none" stroke="#9a32cd" stroke-dasharray="5,2" d="M67,-79.0981C67,-66.3882 67,-52.5713 67,-41.6016"/>
<polygon fill="#9a32cd" stroke="#9a32cd" points="63.5001,-79.4273 67,-89.4273 70.5001,-79.4273 63.5001,-79.4273"/>
<text text-anchor="middle" x="97.5" y="-63" font-family="Helvetica,sans-Serif" font-size="10.00" fill="#000000"> comm_struct</text>
</g>
<!-- Node2 -->
<g id="node3" class="node">
<title>Node2</title>
<polygon fill="#ffffff" stroke="#bfbfbf" points="17.5,-189.5 17.5,-208.5 116.5,-208.5 116.5,-189.5 17.5,-189.5"/>
<text text-anchor="middle" x="67" y="-196.5" font-family="Helvetica,sans-Serif" font-size="10.00" fill="#000000">std::vector&lt; bool &gt;</text>
</g>
<!-- Node2&#45;&gt;Node1 -->
<g id="edge2" class="edge">
<title>Node2&#45;&gt;Node1</title>
<path fill="none" stroke="#9a32cd" stroke-dasharray="5,2" d="M67,-179.3677C67,-168.1228 67,-153.8683 67,-141.6801"/>
<polygon fill="#9a32cd" stroke="#9a32cd" points="63.5001,-179.4215 67,-189.4215 70.5001,-179.4215 63.5001,-179.4215"/>
<text text-anchor="middle" x="106.5" y="-163" font-family="Helvetica,sans-Serif" font-size="10.00" fill="#000000"> is_local_neighbor</text>
</g>
<!-- Node3 -->
<g id="node4" class="node">
<title>Node3</title>
<g id="a_node4"><a xlink:title="STL class. ">
<polygon fill="#ffffff" stroke="#bfbfbf" points="23.5,-256.5 23.5,-275.5 110.5,-275.5 110.5,-256.5 23.5,-256.5"/>
<text text-anchor="middle" x="67" y="-263.5" font-family="Helvetica,sans-Serif" font-size="10.00" fill="#000000">std::vector&lt; T &gt;</text>
</a>
</g>
</g>
<!-- Node3&#45;&gt;Node2 -->
<g id="edge3" class="edge">
<title>Node3&#45;&gt;Node2</title>
<path fill="none" stroke="#ffa500" stroke-dasharray="5,2" d="M67,-246.1079C67,-233.714 67,-218.3263 67,-208.5817"/>
<polygon fill="#ffa500" stroke="#ffa500" points="63.5001,-246.4005 67,-256.4005 70.5001,-246.4006 63.5001,-246.4005"/>
<text text-anchor="middle" x="87" y="-230" font-family="Helvetica,sans-Serif" font-size="10.00" fill="#000000"> &lt; bool &gt;</text>
</g>
</g>
</svg>
