<?xml version="1.0" encoding="UTF-8" standalone="no"?>
<!DOCTYPE svg PUBLIC "-//W3C//DTD SVG 1.1//EN"
 "http://www.w3.org/Graphics/SVG/1.1/DTD/svg11.dtd">
<!-- Generated by graphviz version 2.40.1 (20161225.0304)
 -->
<!-- Title: schwz::SolverRAS&lt; ValueType, IndexType, MixedValueType &gt; Pages: 1 -->
<!--zoomable 544 -->
<svg id="main" version="1.1" xmlns="http://www.w3.org/2000/svg" xmlns:xlink="http://www.w3.org/1999/xlink" xml:space="preserve" onload="init(evt)">
<style type="text/css"><![CDATA[
.edge:hover path { stroke: red; }
.edge:hover polygon { stroke: red; fill: red; }
]]></style>
<script type="text/javascript"><![CDATA[
var edges = document.getElementsByTagName('g');
if (edges && edges.length) {
  for (var i=0;i<edges.length;i++) {
    if (edges[i].id.substr(0,4)=='edge') {
      edges[i].setAttribute('class','edge');
    }
  }
}
]]></script>
        <defs>
                <circle id="rim" cx="0" cy="0" r="7"/>
                <circle id="rim2" cx="0" cy="0" r="3.5"/>
                <g id="zoomPlus">
                        <use xlink:href="#rim" fill="#404040">
                                <set attributeName="fill" to="#808080" begin="zoomplus.mouseover" end="zoomplus.mouseout"/>
                        </use>
                        <path d="M-4,0h8M0,-4v8" fill="none" stroke="white" stroke-width="1.5" pointer-events="none"/>
                </g>
                <g id="zoomMin">
                        <use xlink:href="#rim" fill="#404040">
                                <set attributeName="fill" to="#808080" begin="zoomminus.mouseover" end="zoomminus.mouseout"/>
                        </use>
                        <path d="M-4,0h8" fill="none" stroke="white" stroke-width="1.5" pointer-events="none"/>
                </g>
                <g id="dirArrow">
                        <path fill="none" stroke="white" stroke-width="1.5" d="M0,-3.0v7 M-2.5,-0.5L0,-3.0L2.5,-0.5"/>
                </g>
               <g id="resetDef">
                       <use xlink:href="#rim2" fill="#404040">
                               <set attributeName="fill" to="#808080" begin="reset.mouseover" end="reset.mouseout"/>
                       </use>
               </g>
        </defs>

<script type="text/javascript">
var viewWidth = 1739;
var viewHeight = 544;
var sectionId = 'dynsection-0';
</script>
<script xlink:href="svgpan.js"/>
<svg id="graph" class="graph">
<g id="viewport">
<title>schwz::SolverRAS&lt; ValueType, IndexType, MixedValueType &gt;</title>
<polygon fill="#ffffff" stroke="transparent" points="-4,4 -4,-540 1735,-540 1735,4 -4,4"/>
<!-- Node0 -->
<g id="node1" class="node">
<title>Node0</title>
<polygon fill="#bfbfbf" stroke="#000000" points="1573,-113.5 1573,-143.5 1731,-143.5 1731,-113.5 1573,-113.5"/>
<text text-anchor="start" x="1581" y="-131.5" font-family="Helvetica,sans-Serif" font-size="10.00" fill="#000000">schwz::SolverRAS&lt; ValueType,</text>
<text text-anchor="middle" x="1652" y="-120.5" font-family="Helvetica,sans-Serif" font-size="10.00" fill="#000000"> IndexType, MixedValueType &gt;</text>
</g>
<!-- Node1 -->
<g id="node2" class="node">
<title>Node1</title>
<g id="a_node2"><a xlink:href="classschwz_1_1SchwarzBase.html" target="_top" xlink:title="The Base solver class is meant to be the class implementing the common implementations for all the sc...">
<polygon fill="#ffffff" stroke="#000000" points="1409,-108 1409,-149 1536,-149 1536,-108 1409,-108"/>
<text text-anchor="start" x="1417" y="-137" font-family="Helvetica,sans-Serif" font-size="10.00" fill="#000000">schwz::SchwarzBase</text>
<text text-anchor="start" x="1417" y="-126" font-family="Helvetica,sans-Serif" font-size="10.00" fill="#000000">&lt; ValueType, IndexType,</text>
<text text-anchor="middle" x="1472.5" y="-115" font-family="Helvetica,sans-Serif" font-size="10.00" fill="#000000"> MixedValueType &gt;</text>
</a>
</g>
</g>
<!-- Node1&#45;&gt;Node0 -->
<g id="edge1" class="edge">
<title>Node1&#45;&gt;Node0</title>
<path fill="none" stroke="#191970" d="M1546.2177,-128.5C1554.9902,-128.5 1563.9738,-128.5 1572.8187,-128.5"/>
<polygon fill="#191970" stroke="#191970" points="1546.0376,-125.0001 1536.0376,-128.5 1546.0376,-132.0001 1546.0376,-125.0001"/>
</g>
<!-- Node2 -->
<g id="node3" class="node">
<title>Node2</title>
<g id="a_node3"><a xlink:href="classschwz_1_1Initialize.html" target="_top" xlink:title="The initialization class that provides methods for initialization of the solver. ">
<polygon fill="#ffffff" stroke="#000000" points="1232,-307.5 1232,-337.5 1359,-337.5 1359,-307.5 1232,-307.5"/>
<text text-anchor="start" x="1240" y="-325.5" font-family="Helvetica,sans-Serif" font-size="10.00" fill="#000000">schwz::Initialize&lt;</text>
<text text-anchor="middle" x="1295.5" y="-314.5" font-family="Helvetica,sans-Serif" font-size="10.00" fill="#000000"> ValueType, IndexType &gt;</text>
</a>
</g>
</g>
<!-- Node2&#45;&gt;Node1 -->
<g id="edge2" class="edge">
<title>Node2&#45;&gt;Node1</title>
<path fill="none" stroke="#191970" d="M1316.2487,-299.7585C1350.979,-261.6925 1420.3515,-185.6571 1453.7202,-149.0835"/>
<polygon fill="#191970" stroke="#191970" points="1313.5433,-297.5308 1309.3889,-307.2771 1318.7145,-302.2488 1313.5433,-297.5308"/>
</g>
<!-- Node3 -->
<g id="node4" class="node">
<title>Node3</title>
<g id="a_node4"><a xlink:href="structschwz_1_1Settings.html" target="_top" xlink:title="The struct that contains the solver settings and the parameters to be set by the user. ">
<polygon fill="#ffffff" stroke="#000000" points="937.5,-384 937.5,-403 1024.5,-403 1024.5,-384 937.5,-384"/>
<text text-anchor="middle" x="981" y="-391" font-family="Helvetica,sans-Serif" font-size="10.00" fill="#000000">schwz::Settings</text>
</a>
</g>
</g>
<!-- Node3&#45;&gt;Node2 -->
<g id="edge3" class="edge">
<title>Node3&#45;&gt;Node2</title>
<path fill="none" stroke="#191970" d="M1034.8772,-385.8176C1079.6906,-378.9241 1144.97,-367.7124 1201,-353.5 1218.4059,-349.0849 1237.2657,-343.1408 1253.5254,-337.6388"/>
<polygon fill="#191970" stroke="#191970" points="1034.1527,-382.3874 1024.7916,-387.3492 1035.2037,-389.308 1034.1527,-382.3874"/>
</g>
<!-- Node20 -->
<g id="node20" class="node">
<title>Node20</title>
<g id="a_node20"><a xlink:href="classschwz_1_1Solve.html" target="_top" xlink:title="The Solver class the provides the solver and the convergence checking methods. ">
<polygon fill="#ffffff" stroke="#000000" points="1219,-370.5 1219,-400.5 1372,-400.5 1372,-370.5 1219,-370.5"/>
<text text-anchor="start" x="1227" y="-388.5" font-family="Helvetica,sans-Serif" font-size="10.00" fill="#000000">schwz::Solve&lt; ValueType,</text>
<text text-anchor="middle" x="1295.5" y="-377.5" font-family="Helvetica,sans-Serif" font-size="10.00" fill="#000000"> IndexType, MixedValueType &gt;</text>
</a>
</g>
</g>
<!-- Node3&#45;&gt;Node20 -->
<g id="edge26" class="edge">
<title>Node3&#45;&gt;Node20</title>
<path fill="none" stroke="#191970" d="M1034.8186,-392.131C1085.4759,-390.8424 1161.8688,-388.8992 1218.8789,-387.449"/>
<polygon fill="#191970" stroke="#191970" points="1034.6376,-388.6344 1024.7299,-392.3876 1034.8157,-395.6321 1034.6376,-388.6344"/>
</g>
<!-- Node4 -->
<g id="node5" class="node">
<title>Node4</title>
<g id="a_node5"><a xlink:href="structschwz_1_1Settings_1_1comm__settings.html" target="_top" xlink:title="The settings for the various available communication paradigms. ">
<polygon fill="#ffffff" stroke="#000000" points="617.5,-456.5 617.5,-486.5 737.5,-486.5 737.5,-456.5 617.5,-456.5"/>
<text text-anchor="start" x="625.5" y="-474.5" font-family="Helvetica,sans-Serif" font-size="10.00" fill="#000000">schwz::Settings::comm</text>
<text text-anchor="middle" x="677.5" y="-463.5" font-family="Helvetica,sans-Serif" font-size="10.00" fill="#000000">_settings</text>
</a>
</g>
</g>
<!-- Node4&#45;&gt;Node3 -->
<g id="edge4" class="edge">
<title>Node4&#45;&gt;Node3</title>
<path fill="none" stroke="#9a32cd" stroke-dasharray="5,2" d="M748.0055,-471.7529C789.6762,-470.0455 842.9351,-464.5876 888,-449.5 919.6334,-438.9092 951.9817,-416.1931 968.9342,-403.1816"/>
<polygon fill="#9a32cd" stroke="#9a32cd" points="747.8179,-468.2572 737.9454,-472.1021 748.0608,-475.253 747.8179,-468.2572"/>
<text text-anchor="middle" x="832.5" y="-472.5" font-family="Helvetica,sans-Serif" font-size="10.00" fill="#000000"> comm_settings</text>
</g>
<!-- Node5 -->
<g id="node6" class="node">
<title>Node5</title>
<g id="a_node6"><a xlink:title="STL class. ">
<polygon fill="#ffffff" stroke="#bfbfbf" points="647.5,-372 647.5,-391 707.5,-391 707.5,-372 647.5,-372"/>
<text text-anchor="middle" x="677.5" y="-379" font-family="Helvetica,sans-Serif" font-size="10.00" fill="#000000">std::string</text>
</a>
</g>
</g>
<!-- Node5&#45;&gt;Node3 -->
<g id="edge5" class="edge">
<title>Node5&#45;&gt;Node3</title>
<path fill="none" stroke="#9a32cd" stroke-dasharray="5,2" d="M717.7861,-383.0929C774.7763,-385.3462 878.5281,-389.4484 937.3139,-391.7727"/>
<polygon fill="#9a32cd" stroke="#9a32cd" points="717.8408,-379.5924 707.7103,-382.6945 717.5642,-386.5869 717.8408,-379.5924"/>
<text text-anchor="middle" x="832.5" y="-437.5" font-family="Helvetica,sans-Serif" font-size="10.00" fill="#000000"> factorization</text>
<text text-anchor="middle" x="832.5" y="-426.5" font-family="Helvetica,sans-Serif" font-size="10.00" fill="#000000">metis_objtype</text>
<text text-anchor="middle" x="832.5" y="-415.5" font-family="Helvetica,sans-Serif" font-size="10.00" fill="#000000">matrix_filename</text>
<text text-anchor="middle" x="832.5" y="-404.5" font-family="Helvetica,sans-Serif" font-size="10.00" fill="#000000">reorder</text>
<text text-anchor="middle" x="832.5" y="-393.5" font-family="Helvetica,sans-Serif" font-size="10.00" fill="#000000">executor_string</text>
</g>
<!-- Node9 -->
<g id="node9" class="node">
<title>Node9</title>
<g id="a_node9"><a xlink:href="structschwz_1_1Metadata.html" target="_top" xlink:title="The solver metadata struct. ">
<polygon fill="#ffffff" stroke="#000000" points="906,-274.5 906,-304.5 1056,-304.5 1056,-274.5 906,-274.5"/>
<text text-anchor="start" x="914" y="-292.5" font-family="Helvetica,sans-Serif" font-size="10.00" fill="#000000">schwz::Metadata&lt; ValueType,</text>
<text text-anchor="middle" x="981" y="-281.5" font-family="Helvetica,sans-Serif" font-size="10.00" fill="#000000"> IndexType &gt;</text>
</a>
</g>
</g>
<!-- Node5&#45;&gt;Node9 -->
<g id="edge11" class="edge">
<title>Node5&#45;&gt;Node9</title>
<path fill="none" stroke="#9a32cd" stroke-dasharray="5,2" d="M697.938,-365.9067C717.2525,-351.9925 747.5766,-332.2108 777,-321.5 800.2441,-313.0386 857.7082,-304.4008 905.7444,-298.2356"/>
<polygon fill="#9a32cd" stroke="#9a32cd" points="695.8627,-363.0882 689.8812,-371.8331 700.0105,-368.727 695.8627,-363.0882"/>
<text text-anchor="middle" x="832.5" y="-324.5" font-family="Helvetica,sans-Serif" font-size="10.00" fill="#000000"> local_precond</text>
</g>
<!-- Node6 -->
<g id="node7" class="node">
<title>Node6</title>
<polygon fill="#ffffff" stroke="#bfbfbf" points="272.5,-359.5 272.5,-389.5 367.5,-389.5 367.5,-359.5 272.5,-359.5"/>
<text text-anchor="start" x="280.5" y="-377.5" font-family="Helvetica,sans-Serif" font-size="10.00" fill="#000000">std::basic_string&lt;</text>
<text text-anchor="middle" x="320" y="-366.5" font-family="Helvetica,sans-Serif" font-size="10.00" fill="#000000"> char &gt;</text>
</g>
<!-- Node6&#45;&gt;Node5 -->
<g id="edge6" class="edge">
<title>Node6&#45;&gt;Node5</title>
<path fill="none" stroke="#191970" d="M377.8449,-375.6326C454.7087,-377.1377 587.715,-379.742 647.2107,-380.9069"/>
<polygon fill="#191970" stroke="#191970" points="377.9097,-372.1333 367.8431,-375.4368 377.7726,-379.132 377.9097,-372.1333"/>
</g>
<!-- Node8 -->
<g id="node8" class="node">
<title>Node8</title>
<g id="a_node8"><a xlink:href="structschwz_1_1Settings_1_1convergence__settings.html" target="_top" xlink:title="The various convergence settings available. ">
<polygon fill="#ffffff" stroke="#000000" points="603,-505.5 603,-535.5 752,-535.5 752,-505.5 603,-505.5"/>
<text text-anchor="start" x="611" y="-523.5" font-family="Helvetica,sans-Serif" font-size="10.00" fill="#000000">schwz::Settings::convergence</text>
<text text-anchor="middle" x="677.5" y="-512.5" font-family="Helvetica,sans-Serif" font-size="10.00" fill="#000000">_settings</text>
</a>
</g>
</g>
<!-- Node8&#45;&gt;Node3 -->
<g id="edge7" class="edge">
<title>Node8&#45;&gt;Node3</title>
<path fill="none" stroke="#9a32cd" stroke-dasharray="5,2" d="M762.0321,-517.6361C802.0113,-513.4479 849.3377,-504.2343 888,-484.5 927.234,-464.4738 960.6575,-422.1567 974.3582,-403.1269"/>
<polygon fill="#9a32cd" stroke="#9a32cd" points="761.6556,-514.1561 752.0359,-518.596 762.3247,-521.124 761.6556,-514.1561"/>
<text text-anchor="middle" x="832.5" y="-518.5" font-family="Helvetica,sans-Serif" font-size="10.00" fill="#000000"> convergence_settings</text>
</g>
<!-- Node9&#45;&gt;Node2 -->
<g id="edge8" class="edge">
<title>Node9&#45;&gt;Node2</title>
<path fill="none" stroke="#191970" d="M1066.5793,-298.4797C1118.7627,-303.9552 1184.3418,-310.8363 1231.9198,-315.8286"/>
<polygon fill="#191970" stroke="#191970" points="1066.6413,-294.9671 1056.3306,-297.4043 1065.9107,-301.9289 1066.6413,-294.9671"/>
</g>
<!-- Node10 -->
<g id="node10" class="node">
<title>Node10</title>
<polygon fill="#ffffff" stroke="#bfbfbf" points="402,-256 402,-297 578,-297 578,-256 402,-256"/>
<text text-anchor="start" x="410" y="-285" font-family="Helvetica,sans-Serif" font-size="10.00" fill="#000000">std::vector&lt; std::tuple</text>
<text text-anchor="start" x="410" y="-274" font-family="Helvetica,sans-Serif" font-size="10.00" fill="#000000">&lt; int, int, int, std::</text>
<text text-anchor="middle" x="490" y="-263" font-family="Helvetica,sans-Serif" font-size="10.00" fill="#000000">string, std::vector&lt; ValueType &gt; &gt; &gt;</text>
</g>
<!-- Node10&#45;&gt;Node9 -->
<g id="edge9" class="edge">
<title>Node10&#45;&gt;Node9</title>
<path fill="none" stroke="#9a32cd" stroke-dasharray="5,2" d="M588.2102,-257.313C590.8301,-257.0127 593.4303,-256.7403 596,-256.5 725.4873,-244.391 759.3662,-256.3449 888,-275.5 893.8139,-276.3658 899.8317,-277.2649 905.8812,-278.1708"/>
<polygon fill="#9a32cd" stroke="#9a32cd" points="587.5108,-253.8735 578.0292,-258.6011 588.3895,-260.8182 587.5108,-253.8735"/>
<text text-anchor="middle" x="677.5" y="-259.5" font-family="Helvetica,sans-Serif" font-size="10.00" fill="#000000"> time_struct</text>
</g>
<!-- Node11 -->
<g id="node11" class="node">
<title>Node11</title>
<g id="a_node11"><a xlink:title="STL class. ">
<polygon fill="#ffffff" stroke="#bfbfbf" points="0,-217 0,-236 87,-236 87,-217 0,-217"/>
<text text-anchor="middle" x="43.5" y="-224" font-family="Helvetica,sans-Serif" font-size="10.00" fill="#000000">std::vector&lt; T &gt;</text>
</a>
</g>
</g>
<!-- Node11&#45;&gt;Node10 -->
<g id="edge10" class="edge">
<title>Node11&#45;&gt;Node10</title>
<path fill="none" stroke="#ffa500" stroke-dasharray="5,2" d="M97.353,-232.5306C172.8691,-240.987 311.1217,-256.4688 401.7839,-266.6214"/>
<polygon fill="#ffa500" stroke="#ffa500" points="97.4527,-229.0199 87.1253,-231.3852 96.6736,-235.9765 97.4527,-229.0199"/>
<text text-anchor="start" x="105" y="-272.5" font-family="Helvetica,sans-Serif" font-size="10.00" fill="#000000"> &lt; std::tuple&lt; int,</text>
<text text-anchor="start" x="105" y="-261.5" font-family="Helvetica,sans-Serif" font-size="10.00" fill="#000000"> int, int, std::string,</text>
<text text-anchor="middle" x="171.5" y="-250.5" font-family="Helvetica,sans-Serif" font-size="10.00" fill="#000000"> std::vector&lt; ValueType &gt; &gt; &gt;</text>
</g>
<!-- Node13 -->
<g id="node13" class="node">
<title>Node13</title>
<polygon fill="#ffffff" stroke="#bfbfbf" points="256,-180 256,-199 384,-199 384,-180 256,-180"/>
<text text-anchor="middle" x="320" y="-187" font-family="Helvetica,sans-Serif" font-size="10.00" fill="#000000">std::vector&lt; ValueType &gt;</text>
</g>
<!-- Node11&#45;&gt;Node13 -->
<g id="edge14" class="edge">
<title>Node11&#45;&gt;Node13</title>
<path fill="none" stroke="#ffa500" stroke-dasharray="5,2" d="M92.1356,-214.877C96.4731,-214.0077 100.8078,-213.1989 105,-212.5 155.3585,-204.1043 212.8898,-198.1378 255.7603,-194.389"/>
<polygon fill="#ffa500" stroke="#ffa500" points="91.141,-211.5095 82.0749,-216.9919 92.5811,-218.3598 91.141,-211.5095"/>
<text text-anchor="middle" x="171.5" y="-215.5" font-family="Helvetica,sans-Serif" font-size="10.00" fill="#000000"> &lt; ValueType &gt;</text>
</g>
<!-- Node14 -->
<g id="node14" class="node">
<title>Node14</title>
<polygon fill="#ffffff" stroke="#bfbfbf" points="260.5,-130.5 260.5,-160.5 379.5,-160.5 379.5,-130.5 260.5,-130.5"/>
<text text-anchor="start" x="268.5" y="-148.5" font-family="Helvetica,sans-Serif" font-size="10.00" fill="#000000">std::vector&lt; std::vector</text>
<text text-anchor="middle" x="320" y="-137.5" font-family="Helvetica,sans-Serif" font-size="10.00" fill="#000000">&lt; ValueType &gt; &gt;</text>
</g>
<!-- Node11&#45;&gt;Node14 -->
<g id="edge16" class="edge">
<title>Node11&#45;&gt;Node14</title>
<path fill="none" stroke="#ffa500" stroke-dasharray="5,2" d="M61.0683,-210.1779C72.6797,-200.3152 88.7143,-188.3624 105,-181.5 154.873,-160.4847 216.1143,-151.7145 260.4617,-148.0666"/>
<polygon fill="#ffa500" stroke="#ffa500" points="58.6432,-207.6498 53.4547,-216.8873 63.2713,-212.9016 58.6432,-207.6498"/>
<text text-anchor="middle" x="171.5" y="-184.5" font-family="Helvetica,sans-Serif" font-size="10.00" fill="#000000"> &lt; std::vector&lt; ValueType &gt; &gt;</text>
</g>
<!-- Node15 -->
<g id="node15" class="node">
<title>Node15</title>
<polygon fill="#ffffff" stroke="#bfbfbf" points="429,-303 429,-366 551,-366 551,-303 429,-303"/>
<text text-anchor="start" x="437" y="-354" font-family="Helvetica,sans-Serif" font-size="10.00" fill="#000000">std::vector&lt; std::tuple</text>
<text text-anchor="start" x="437" y="-343" font-family="Helvetica,sans-Serif" font-size="10.00" fill="#000000">&lt; int, std::vector&lt; std</text>
<text text-anchor="start" x="437" y="-332" font-family="Helvetica,sans-Serif" font-size="10.00" fill="#000000">::tuple&lt; int, int &gt; &gt;, std</text>
<text text-anchor="start" x="437" y="-321" font-family="Helvetica,sans-Serif" font-size="10.00" fill="#000000">::vector&lt; std::tuple&lt; int,</text>
<text text-anchor="middle" x="490" y="-310" font-family="Helvetica,sans-Serif" font-size="10.00" fill="#000000"> int &gt; &gt;, int, int &gt; &gt;</text>
</g>
<!-- Node11&#45;&gt;Node15 -->
<g id="edge18" class="edge">
<title>Node11&#45;&gt;Node15</title>
<path fill="none" stroke="#ffa500" stroke-dasharray="5,2" d="M57.0781,-244.3353C68.3535,-257.7442 85.6355,-275.3212 105,-284.5 210.6718,-334.5885 349.9484,-339.7498 428.7421,-337.8745"/>
<polygon fill="#ffa500" stroke="#ffa500" points="59.5714,-241.851 50.5744,-236.2558 54.1185,-246.2403 59.5714,-241.851"/>
<text text-anchor="start" x="118" y="-371.5" font-family="Helvetica,sans-Serif" font-size="10.00" fill="#000000"> &lt; std::tuple&lt; int,</text>
<text text-anchor="start" x="118" y="-360.5" font-family="Helvetica,sans-Serif" font-size="10.00" fill="#000000"> std::vector&lt; std::tuple</text>
<text text-anchor="start" x="118" y="-349.5" font-family="Helvetica,sans-Serif" font-size="10.00" fill="#000000">&lt; int, int &gt; &gt;, std::vector</text>
<text text-anchor="start" x="118" y="-338.5" font-family="Helvetica,sans-Serif" font-size="10.00" fill="#000000">&lt; std::tuple&lt; int, int &gt; &gt;</text>
<text text-anchor="middle" x="171.5" y="-327.5" font-family="Helvetica,sans-Serif" font-size="10.00" fill="#000000">, int, int &gt; &gt;</text>
</g>
<!-- Node16 -->
<g id="node16" class="node">
<title>Node16</title>
<polygon fill="#ffffff" stroke="#bfbfbf" points="777,-339.5 777,-369.5 888,-369.5 888,-339.5 777,-339.5"/>
<text text-anchor="start" x="785" y="-357.5" font-family="Helvetica,sans-Serif" font-size="10.00" fill="#000000">std::vector&lt; unsigned</text>
<text text-anchor="middle" x="832.5" y="-346.5" font-family="Helvetica,sans-Serif" font-size="10.00" fill="#000000"> int &gt;</text>
</g>
<!-- Node11&#45;&gt;Node16 -->
<g id="edge20" class="edge">
<title>Node11&#45;&gt;Node16</title>
<path fill="none" stroke="#ffa500" stroke-dasharray="5,2" d="M44.8881,-246.4468C48.4366,-280.6819 60.9724,-350.1528 105,-383.5 220.8921,-471.2786 624.6842,-456.1354 759,-400.5 769.4525,-396.1704 767.8338,-389.1317 777,-382.5 783.5578,-377.7555 791.0367,-373.3877 798.3342,-369.5831"/>
<polygon fill="#ffa500" stroke="#ffa500" points="48.3577,-245.9462 43.9967,-236.2905 41.3845,-246.5582 48.3577,-245.9462"/>
<text text-anchor="middle" x="320" y="-447.5" font-family="Helvetica,sans-Serif" font-size="10.00" fill="#000000"> &lt; unsigned int &gt;</text>
</g>
<!-- Node19 -->
<g id="node19" class="node">
<title>Node19</title>
<polygon fill="#ffffff" stroke="#bfbfbf" points="270.5,-72 270.5,-91 369.5,-91 369.5,-72 270.5,-72"/>
<text text-anchor="middle" x="320" y="-79" font-family="Helvetica,sans-Serif" font-size="10.00" fill="#000000">std::vector&lt; bool &gt;</text>
</g>
<!-- Node11&#45;&gt;Node19 -->
<g id="edge24" class="edge">
<title>Node11&#45;&gt;Node19</title>
<path fill="none" stroke="#ffa500" stroke-dasharray="5,2" d="M51.4242,-207.6172C61.0561,-186.9971 79.273,-154.5153 105,-136.5 154.3914,-101.9137 223.7443,-89.0599 270.194,-84.2928"/>
<polygon fill="#ffa500" stroke="#ffa500" points="48.1499,-206.3665 47.2827,-216.9258 54.5455,-209.2121 48.1499,-206.3665"/>
<text text-anchor="middle" x="171.5" y="-139.5" font-family="Helvetica,sans-Serif" font-size="10.00" fill="#000000"> &lt; bool &gt;</text>
</g>
<!-- Node12 -->
<g id="node12" class="node">
<title>Node12</title>
<g id="a_node12"><a xlink:href="structschwz_1_1Metadata_1_1post__process__data.html" target="_top" xlink:title="The struct used for storing data for post&#45;processing. ">
<polygon fill="#ffffff" stroke="#000000" points="596,-169.5 596,-199.5 759,-199.5 759,-169.5 596,-169.5"/>
<text text-anchor="start" x="604" y="-187.5" font-family="Helvetica,sans-Serif" font-size="10.00" fill="#000000">schwz::Metadata&lt; ValueType,</text>
<text text-anchor="middle" x="677.5" y="-176.5" font-family="Helvetica,sans-Serif" font-size="10.00" fill="#000000"> IndexType &gt;::post_process_data</text>
</a>
</g>
</g>
<!-- Node12&#45;&gt;Node9 -->
<g id="edge12" class="edge">
<title>Node12&#45;&gt;Node9</title>
<path fill="none" stroke="#9a32cd" stroke-dasharray="5,2" d="M769.1398,-188.8243C807.1272,-193.1439 850.8945,-201.4981 888,-217.5 919.3122,-231.0035 949.3481,-257.5289 966.448,-274.3403"/>
<polygon fill="#9a32cd" stroke="#9a32cd" points="769.4165,-185.3341 759.1033,-187.7604 768.6785,-192.2951 769.4165,-185.3341"/>
<text text-anchor="middle" x="832.5" y="-220.5" font-family="Helvetica,sans-Serif" font-size="10.00" fill="#000000"> post_process_data</text>
</g>
<!-- Node13&#45;&gt;Node1 -->
<g id="edge27" class="edge">
<title>Node13&#45;&gt;Node1</title>
<path fill="none" stroke="#9a32cd" stroke-dasharray="5,2" d="M372.9759,-175.933C376.8516,-174.0518 380.5773,-171.9182 384,-169.5 394.8896,-161.8062 390.122,-151.5573 402,-145.5 491.4163,-99.9009 1192.0466,-119.1477 1408.8105,-126.2756"/>
<polygon fill="#9a32cd" stroke="#9a32cd" points="371.5545,-172.7341 363.7319,-179.8796 374.3031,-179.1719 371.5545,-172.7341"/>
<text text-anchor="middle" x="981" y="-121.5" font-family="Helvetica,sans-Serif" font-size="10.00" fill="#000000"> local_residual_vector_out</text>
</g>
<!-- Node13&#45;&gt;Node12 -->
<g id="edge13" class="edge">
<title>Node13&#45;&gt;Node12</title>
<path fill="none" stroke="#9a32cd" stroke-dasharray="5,2" d="M394.3866,-180.977C396.9539,-180.7972 399.4975,-180.6369 402,-180.5 467.0777,-176.9394 540.9228,-178.3019 595.7685,-180.3558"/>
<polygon fill="#9a32cd" stroke="#9a32cd" points="394.0992,-177.4886 384.4031,-181.7589 394.6459,-184.4673 394.0992,-177.4886"/>
<text text-anchor="middle" x="490" y="-238.5" font-family="Helvetica,sans-Serif" font-size="10.00" fill="#000000"> local_timestamp</text>
<text text-anchor="middle" x="490" y="-227.5" font-family="Helvetica,sans-Serif" font-size="10.00" fill="#000000">local_converged_resnorm</text>
<text text-anchor="start" x="434" y="-216.5" font-family="Helvetica,sans-Serif" font-size="10.00" fill="#000000">local_residual_vector</text>
<text text-anchor="middle" x="490" y="-205.5" font-family="Helvetica,sans-Serif" font-size="10.00" fill="#000000">_out</text>
<text text-anchor="start" x="434" y="-194.5" font-family="Helvetica,sans-Serif" font-size="10.00" fill="#000000">local_converged_iter</text>
<text text-anchor="middle" x="490" y="-183.5" font-family="Helvetica,sans-Serif" font-size="10.00" fill="#000000">_count</text>
</g>
<!-- Node14&#45;&gt;Node1 -->
<g id="edge28" class="edge">
<title>Node14&#45;&gt;Node1</title>
<path fill="none" stroke="#9a32cd" stroke-dasharray="5,2" d="M352.0443,-125.3624C366.7176,-117.1378 384.6701,-108.4181 402,-103.5 520.1679,-69.965 554.6658,-81.5 677.5,-81.5 677.5,-81.5 677.5,-81.5 1295.5,-81.5 1339.5348,-81.5 1387.7301,-95.2568 1422.6952,-107.8851"/>
<polygon fill="#9a32cd" stroke="#9a32cd" points="350.2711,-122.3447 343.3668,-130.3809 353.7757,-128.4042 350.2711,-122.3447"/>
<text text-anchor="middle" x="981" y="-84.5" font-family="Helvetica,sans-Serif" font-size="10.00" fill="#000000"> global_residual_vector_out</text>
</g>
<!-- Node14&#45;&gt;Node12 -->
<g id="edge15" class="edge">
<title>Node14&#45;&gt;Node12</title>
<path fill="none" stroke="#9a32cd" stroke-dasharray="5,2" d="M389.8058,-147.7559C441.8697,-150.0715 514.6323,-154.6458 578,-163.5 589.2778,-165.0758 601.189,-167.1907 612.6984,-169.4729"/>
<polygon fill="#9a32cd" stroke="#9a32cd" points="389.8185,-144.2533 379.6779,-147.3223 389.519,-151.2469 389.8185,-144.2533"/>
<text text-anchor="middle" x="490" y="-166.5" font-family="Helvetica,sans-Serif" font-size="10.00" fill="#000000"> global_residual_vector_out</text>
</g>
<!-- Node15&#45;&gt;Node9 -->
<g id="edge17" class="edge">
<title>Node15&#45;&gt;Node9</title>
<path fill="none" stroke="#9a32cd" stroke-dasharray="5,2" d="M561.3986,-326.0042C619.4204,-319.2892 703.415,-309.9966 777,-303.5 819.6117,-299.738 867.307,-296.4157 905.8591,-293.9527"/>
<polygon fill="#9a32cd" stroke="#9a32cd" points="560.7656,-322.5541 551.2363,-327.1847 561.5734,-329.5074 560.7656,-322.5541"/>
<text text-anchor="middle" x="677.5" y="-325.5" font-family="Helvetica,sans-Serif" font-size="10.00" fill="#000000"> comm_data_struct</text>
</g>
<!-- Node16&#45;&gt;Node2 -->
<g id="edge19" class="edge">
<title>Node16&#45;&gt;Node2</title>
<path fill="none" stroke="#9a32cd" stroke-dasharray="5,2" d="M898.5646,-349.934C987.3328,-343.7988 1144.0558,-332.967 1231.6677,-326.9117"/>
<polygon fill="#9a32cd" stroke="#9a32cd" points="898.0835,-346.4588 888.3486,-350.6401 898.5662,-353.4421 898.0835,-346.4588"/>
<text text-anchor="middle" x="981" y="-363.5" font-family="Helvetica,sans-Serif" font-size="10.00" fill="#000000"> cell_weights</text>
<text text-anchor="middle" x="981" y="-352.5" font-family="Helvetica,sans-Serif" font-size="10.00" fill="#000000">partition_indices</text>
</g>
<!-- Node17 -->
<g id="node17" class="node">
<title>Node17</title>
<g id="a_node17"><a xlink:href="classschwz_1_1Communicate.html" target="_top" xlink:title="The communication class that provides the methods for the communication between the subdomains...">
<polygon fill="#ffffff" stroke="#000000" points="1074,-15 1074,-56 1201,-56 1201,-15 1074,-15"/>
<text text-anchor="start" x="1082" y="-44" font-family="Helvetica,sans-Serif" font-size="10.00" fill="#000000">schwz::Communicate</text>
<text text-anchor="start" x="1082" y="-33" font-family="Helvetica,sans-Serif" font-size="10.00" fill="#000000">&lt; ValueType, IndexType,</text>
<text text-anchor="middle" x="1137.5" y="-22" font-family="Helvetica,sans-Serif" font-size="10.00" fill="#000000"> MixedValueType &gt;</text>
</a>
</g>
</g>
<!-- Node17&#45;&gt;Node1 -->
<g id="edge21" class="edge">
<title>Node17&#45;&gt;Node1</title>
<path fill="none" stroke="#191970" d="M1211.3592,-34.9369C1263.3178,-36.8757 1333.5488,-44.2834 1391,-67.5 1413.9407,-76.7706 1436.1644,-94.1448 1451.5944,-107.9868"/>
<polygon fill="#191970" stroke="#191970" points="1211.3251,-31.4342 1201.2203,-34.619 1211.1057,-38.4308 1211.3251,-31.4342"/>
</g>
<!-- Node18 -->
<g id="node18" class="node">
<title>Node18</title>
<g id="a_node18"><a xlink:href="structschwz_1_1Communicate_1_1comm__struct.html" target="_top" xlink:title="The communication struct used to store the communication data. ">
<polygon fill="#ffffff" stroke="#000000" points="610.5,-.5 610.5,-52.5 744.5,-52.5 744.5,-.5 610.5,-.5"/>
<text text-anchor="start" x="618.5" y="-40.5" font-family="Helvetica,sans-Serif" font-size="10.00" fill="#000000">schwz::Communicate</text>
<text text-anchor="start" x="618.5" y="-29.5" font-family="Helvetica,sans-Serif" font-size="10.00" fill="#000000">&lt; ValueType, IndexType,</text>
<text text-anchor="start" x="618.5" y="-18.5" font-family="Helvetica,sans-Serif" font-size="10.00" fill="#000000"> MixedValueType &gt;::comm</text>
<text text-anchor="middle" x="677.5" y="-7.5" font-family="Helvetica,sans-Serif" font-size="10.00" fill="#000000">_struct</text>
</a>
</g>
</g>
<!-- Node18&#45;&gt;Node17 -->
<g id="edge22" class="edge">
<title>Node18&#45;&gt;Node17</title>
<path fill="none" stroke="#9a32cd" stroke-dasharray="5,2" d="M754.9793,-28.0159C844.5486,-29.7683 990.3041,-32.6201 1073.6466,-34.2507"/>
<polygon fill="#9a32cd" stroke="#9a32cd" points="754.9472,-24.5147 744.8806,-27.8183 754.8102,-31.5134 754.9472,-24.5147"/>
<text text-anchor="middle" x="832.5" y="-34.5" font-family="Helvetica,sans-Serif" font-size="10.00" fill="#000000"> comm_struct</text>
</g>
<!-- Node19&#45;&gt;Node18 -->
<g id="edge23" class="edge">
<title>Node19&#45;&gt;Node18</title>
<path fill="none" stroke="#9a32cd" stroke-dasharray="5,2" d="M356.4389,-68.7877C370.5222,-64.2995 386.8654,-59.6025 402,-56.5 472.3452,-42.0794 554.3087,-34.2765 610.4332,-30.2765"/>
<polygon fill="#9a32cd" stroke="#9a32cd" points="355.0506,-65.5592 346.6331,-71.9932 357.2257,-72.2127 355.0506,-65.5592"/>
<text text-anchor="middle" x="490" y="-59.5" font-family="Helvetica,sans-Serif" font-size="10.00" fill="#000000"> is_local_neighbor</text>
</g>
<!-- Node20&#45;&gt;Node1 -->
<g id="edge25" class="edge">
<title>Node20&#45;&gt;Node1</title>
<path fill="none" stroke="#191970" d="M1346.3269,-365.6739C1355.649,-360.434 1364.719,-354.0743 1372,-346.5 1428.6076,-287.6117 1457.4461,-191.1085 1467.8546,-149.1075"/>
<polygon fill="#191970" stroke="#191970" points="1344.6046,-362.6247 1337.362,-370.3575 1347.846,-368.829 1344.6046,-362.6247"/>
</g>
</g>
</svg>
        <g id="navigator" transform="translate(0 0)" fill="#404254">
                <rect fill="#f2f5e9" fill-opacity="0.5" stroke="#606060" stroke-width=".5" x="0" y="0" width="60" height="60"/>
                <use id="zoomplus" xlink:href="#zoomPlus" x="17" y="9" onmousedown="handleZoom(evt,'in')"/>
                <use id="zoomminus" xlink:href="#zoomMin" x="42" y="9" onmousedown="handleZoom(evt,'out')"/>
                <use id="reset" xlink:href="#resetDef" x="30" y="36" onmousedown="handleReset()"/>
                <g id="arrowUp" xlink:href="#dirArrow" transform="translate(30 24)" onmousedown="handlePan(0,-1)">
                  <use xlink:href="#rim" fill="#404040">
                        <set attributeName="fill" to="#808080" begin="arrowUp.mouseover" end="arrowUp.mouseout"/>
                  </use>
                  <path fill="none" stroke="white" stroke-width="1.5" d="M0,-3.0v7 M-2.5,-0.5L0,-3.0L2.5,-0.5"/>
                </g>
                <g id="arrowRight" xlink:href="#dirArrow" transform="rotate(90) translate(36 -43)" onmousedown="handlePan(1,0)">
                  <use xlink:href="#rim" fill="#404040">
                        <set attributeName="fill" to="#808080" begin="arrowRight.mouseover" end="arrowRight.mouseout"/>
                  </use>
                  <path fill="none" stroke="white" stroke-width="1.5" d="M0,-3.0v7 M-2.5,-0.5L0,-3.0L2.5,-0.5"/>
                </g>
                <g id="arrowDown" xlink:href="#dirArrow" transform="rotate(180) translate(-30 -48)" onmousedown="handlePan(0,1)">
                  <use xlink:href="#rim" fill="#404040">
                        <set attributeName="fill" to="#808080" begin="arrowDown.mouseover" end="arrowDown.mouseout"/>
                  </use>
                  <path fill="none" stroke="white" stroke-width="1.5" d="M0,-3.0v7 M-2.5,-0.5L0,-3.0L2.5,-0.5"/>
                </g>
                <g id="arrowLeft" xlink:href="#dirArrow" transform="rotate(270) translate(-36 17)" onmousedown="handlePan(-1,0)">
                  <use xlink:href="#rim" fill="#404040">
                        <set attributeName="fill" to="#808080" begin="arrowLeft.mouseover" end="arrowLeft.mouseout"/>
                  </use>
                  <path fill="none" stroke="white" stroke-width="1.5" d="M0,-3.0v7 M-2.5,-0.5L0,-3.0L2.5,-0.5"/>
                </g>
        </g>
        <svg viewBox="0 0 15 15" width="100%" height="30px" preserveAspectRatio="xMaxYMin meet">
         <g id="arrow_out" transform="scale(0.3 0.3)">
          <a xlink:href="classschwz_1_1SolverRAS__coll__graph_org.svg" target="_base">
           <rect id="button" ry="5" rx="5" y="6" x="6" height="38" width="38"
                fill="#f2f5e9" fill-opacity="0.5" stroke="#606060" stroke-width="1.0"/>
           <path id="arrow"
             d="M 11.500037,31.436501 C 11.940474,20.09759 22.043105,11.32322 32.158766,21.979434 L 37.068811,17.246167 C 37.068811,17.246167 37.088388,32 37.088388,32 L 22.160133,31.978069 C 22.160133,31.978069 26.997745,27.140456 26.997745,27.140456 C 18.528582,18.264221 13.291696,25.230495 11.500037,31.436501 z"
             style="fill:#404040;"/>
          </a>
         </g>
        </svg>
</svg>
