<?xml version="1.0" encoding="UTF-8" standalone="no"?>
<!DOCTYPE svg PUBLIC "-//W3C//DTD SVG 1.1//EN"
 "http://www.w3.org/Graphics/SVG/1.1/DTD/svg11.dtd">
<!-- Generated by graphviz version 2.40.1 (20161225.0304)
 -->
<!-- Title: SchwarzWrappers::Settings Pages: 1 -->
<svg width="724pt" height="134pt"
 viewBox="0.00 0.00 724.00 134.00" xmlns="http://www.w3.org/2000/svg" xmlns:xlink="http://www.w3.org/1999/xlink">
<g id="graph0" class="graph" transform="scale(1 1) rotate(0) translate(4 130)">
<title>SchwarzWrappers::Settings</title>
<polygon fill="#ffffff" stroke="transparent" points="-4,4 -4,-130 720,-130 720,4 -4,4"/>
<!-- Node0 -->
<g id="node1" class="node">
<title>Node0</title>
<polygon fill="#bfbfbf" stroke="#000000" points="577,-45 577,-64 716,-64 716,-45 577,-45"/>
<text text-anchor="middle" x="646.5" y="-52" font-family="Helvetica,sans-Serif" font-size="10.00" fill="#000000">SchwarzWrappers::Settings</text>
</g>
<!-- Node1 -->
<g id="node2" class="node">
<title>Node1</title>
<g id="a_node2"><a xlink:href="structSchwarzWrappers_1_1Settings_1_1convergence__settings.html" target="_top" xlink:title="The various convergence settings available. ">
<polygon fill="#ffffff" stroke="#000000" points="303,-95.5 303,-125.5 442,-125.5 442,-95.5 303,-95.5"/>
<text text-anchor="start" x="311" y="-113.5" font-family="Helvetica,sans-Serif" font-size="10.00" fill="#000000">SchwarzWrappers::Settings</text>
<text text-anchor="middle" x="372.5" y="-102.5" font-family="Helvetica,sans-Serif" font-size="10.00" fill="#000000">::convergence_settings</text>
</a>
</g>
</g>
<!-- Node1&#45;&gt;Node0 -->
<g id="edge1" class="edge">
<title>Node1&#45;&gt;Node0</title>
<path fill="none" stroke="#9a32cd" stroke-dasharray="5,2" d="M452.4783,-105.5397C485.7648,-102.3246 524.5946,-97.0662 559,-88.5 582.722,-82.5937 608.6855,-71.9359 626.1195,-64.1225"/>
<polygon fill="#9a32cd" stroke="#9a32cd" points="451.974,-102.0712 442.337,-106.4732 452.6158,-109.0417 451.974,-102.0712"/>
<text text-anchor="middle" x="509.5" y="-106.5" font-family="Helvetica,sans-Serif" font-size="10.00" fill="#000000"> convergence_settings</text>
</g>
<!-- Node2 -->
<g id="node3" class="node">
<title>Node2</title>
<g id="a_node3"><a xlink:title="STL class. ">
<polygon fill="#ffffff" stroke="#bfbfbf" points="342.5,-50 342.5,-69 402.5,-69 402.5,-50 342.5,-50"/>
<text text-anchor="middle" x="372.5" y="-57" font-family="Helvetica,sans-Serif" font-size="10.00" fill="#000000">std::string</text>
</a>
</g>
</g>
<!-- Node2&#45;&gt;Node0 -->
<g id="edge2" class="edge">
<title>Node2&#45;&gt;Node0</title>
<path fill="none" stroke="#9a32cd" stroke-dasharray="5,2" d="M413.1835,-57.2989C427.9258,-56.5915 444.709,-55.8903 460,-55.5 498.6802,-54.5126 541.8871,-54.2291 576.9661,-54.2075"/>
<polygon fill="#9a32cd" stroke="#9a32cd" points="412.6745,-53.8197 402.8602,-57.8108 413.0213,-60.8112 412.6745,-53.8197"/>
<text text-anchor="middle" x="509.5" y="-80.5" font-family="Helvetica,sans-Serif" font-size="10.00" fill="#000000"> metis_objtype</text>
<text text-anchor="middle" x="509.5" y="-69.5" font-family="Helvetica,sans-Serif" font-size="10.00" fill="#000000">reorder</text>
<text text-anchor="middle" x="509.5" y="-58.5" font-family="Helvetica,sans-Serif" font-size="10.00" fill="#000000">executor_string</text>
</g>
<!-- Node3 -->
<g id="node4" class="node">
<title>Node3</title>
<polygon fill="#ffffff" stroke="#bfbfbf" points="171,-44.5 171,-74.5 266,-74.5 266,-44.5 171,-44.5"/>
<text text-anchor="start" x="179" y="-62.5" font-family="Helvetica,sans-Serif" font-size="10.00" fill="#000000">std::basic_string&lt;</text>
<text text-anchor="middle" x="218.5" y="-51.5" font-family="Helvetica,sans-Serif" font-size="10.00" fill="#000000"> char &gt;</text>
</g>
<!-- Node3&#45;&gt;Node2 -->
<g id="edge3" class="edge">
<title>Node3&#45;&gt;Node2</title>
<path fill="none" stroke="#191970" d="M276.452,-59.5C298.7813,-59.5 323.3908,-59.5 342.109,-59.5"/>
<polygon fill="#191970" stroke="#191970" points="276.3824,-56.0001 266.3824,-59.5 276.3824,-63.0001 276.3824,-56.0001"/>
</g>
<!-- Node4 -->
<g id="node5" class="node">
<title>Node4</title>
<g id="a_node5"><a xlink:title="STL class. ">
<polygon fill="#ffffff" stroke="#bfbfbf" points="0,-44.5 0,-74.5 95,-74.5 95,-44.5 0,-44.5"/>
<text text-anchor="start" x="8" y="-62.5" font-family="Helvetica,sans-Serif" font-size="10.00" fill="#000000">std::basic_string&lt;</text>
<text text-anchor="middle" x="47.5" y="-51.5" font-family="Helvetica,sans-Serif" font-size="10.00" fill="#000000"> Char &gt;</text>
</a>
</g>
</g>
<!-- Node4&#45;&gt;Node3 -->
<g id="edge4" class="edge">
<title>Node4&#45;&gt;Node3</title>
<path fill="none" stroke="#ffa500" stroke-dasharray="5,2" d="M105.357,-59.5C126.6579,-59.5 150.524,-59.5 170.8261,-59.5"/>
<polygon fill="#ffa500" stroke="#ffa500" points="105.1331,-56.0001 95.133,-59.5 105.133,-63.0001 105.1331,-56.0001"/>
<text text-anchor="middle" x="133" y="-62.5" font-family="Helvetica,sans-Serif" font-size="10.00" fill="#000000"> &lt; char &gt;</text>
</g>
<!-- Node5 -->
<g id="node6" class="node">
<title>Node5</title>
<g id="a_node6"><a xlink:href="structSchwarzWrappers_1_1Settings_1_1comm__settings.html" target="_top" xlink:title="The settings for the various available communication paradigms. ">
<polygon fill="#ffffff" stroke="#000000" points="303,-.5 303,-30.5 442,-30.5 442,-.5 303,-.5"/>
<text text-anchor="start" x="311" y="-18.5" font-family="Helvetica,sans-Serif" font-size="10.00" fill="#000000">SchwarzWrappers::Settings</text>
<text text-anchor="middle" x="372.5" y="-7.5" font-family="Helvetica,sans-Serif" font-size="10.00" fill="#000000">::comm_settings</text>
</a>
</g>
</g>
<!-- Node5&#45;&gt;Node0 -->
<g id="edge5" class="edge">
<title>Node5&#45;&gt;Node0</title>
<path fill="none" stroke="#9a32cd" stroke-dasharray="5,2" d="M452.1947,-25.0118C485.2795,-29.1537 524.0371,-34.2559 559,-39.5 569.9743,-41.146 581.6969,-43.0527 592.8789,-44.9432"/>
<polygon fill="#9a32cd" stroke="#9a32cd" points="452.4753,-21.5198 442.1196,-23.7581 451.6108,-28.4662 452.4753,-21.5198"/>
<text text-anchor="middle" x="509.5" y="-42.5" font-family="Helvetica,sans-Serif" font-size="10.00" fill="#000000"> comm_settings</text>
</g>
</g>
</svg>
