<?xml version="1.0" encoding="UTF-8" standalone="no"?>
<!DOCTYPE svg PUBLIC "-//W3C//DTD SVG 1.1//EN"
 "http://www.w3.org/Graphics/SVG/1.1/DTD/svg11.dtd">
<!-- Generated by graphviz version 2.40.1 (20161225.0304)
 -->
<!-- Title: SchwarzWrappers::Initialize&lt; ValueType, IndexType &gt; Pages: 1 -->
<!--zoomable 318 -->
<svg id="main" version="1.1" xmlns="http://www.w3.org/2000/svg" xmlns:xlink="http://www.w3.org/1999/xlink" xml:space="preserve" onload="init(evt)">
<style type="text/css"><![CDATA[
.edge:hover path { stroke: red; }
.edge:hover polygon { stroke: red; fill: red; }
]]></style>
<script type="text/javascript"><![CDATA[
var edges = document.getElementsByTagName('g');
if (edges && edges.length) {
  for (var i=0;i<edges.length;i++) {
    if (edges[i].id.substr(0,4)=='edge') {
      edges[i].setAttribute('class','edge');
    }
  }
}
]]></script>
        <defs>
                <circle id="rim" cx="0" cy="0" r="7"/>
                <circle id="rim2" cx="0" cy="0" r="3.5"/>
                <g id="zoomPlus">
                        <use xlink:href="#rim" fill="#404040">
                                <set attributeName="fill" to="#808080" begin="zoomplus.mouseover" end="zoomplus.mouseout"/>
                        </use>
                        <path d="M-4,0h8M0,-4v8" fill="none" stroke="white" stroke-width="1.5" pointer-events="none"/>
                </g>
                <g id="zoomMin">
                        <use xlink:href="#rim" fill="#404040">
                                <set attributeName="fill" to="#808080" begin="zoomminus.mouseover" end="zoomminus.mouseout"/>
                        </use>
                        <path d="M-4,0h8" fill="none" stroke="white" stroke-width="1.5" pointer-events="none"/>
                </g>
                <g id="dirArrow">
                        <path fill="none" stroke="white" stroke-width="1.5" d="M0,-3.0v7 M-2.5,-0.5L0,-3.0L2.5,-0.5"/>
                </g>
               <g id="resetDef">
                       <use xlink:href="#rim2" fill="#404040">
                               <set attributeName="fill" to="#808080" begin="reset.mouseover" end="reset.mouseout"/>
                       </use>
               </g>
        </defs>

<script type="text/javascript">
var viewWidth = 1085;
var viewHeight = 318;
var sectionId = 'dynsection-0';
</script>
<script xlink:href="svgpan.js"/>
<svg id="graph" class="graph">
<g id="viewport">
<title>SchwarzWrappers::Initialize&lt; ValueType, IndexType &gt;</title>
<polygon fill="#ffffff" stroke="transparent" points="-4,4 -4,-314 1081,-314 1081,4 -4,4"/>
<!-- Node0 -->
<g id="node1" class="node">
<title>Node0</title>
<polygon fill="#bfbfbf" stroke="#000000" points="938,-108.5 938,-138.5 1077,-138.5 1077,-108.5 938,-108.5"/>
<text text-anchor="start" x="946" y="-126.5" font-family="Helvetica,sans-Serif" font-size="10.00" fill="#000000">SchwarzWrappers::Initialize</text>
<text text-anchor="middle" x="1007.5" y="-115.5" font-family="Helvetica,sans-Serif" font-size="10.00" fill="#000000">&lt; ValueType, IndexType &gt;</text>
</g>
<!-- Node1 -->
<g id="node2" class="node">
<title>Node1</title>
<g id="a_node2"><a xlink:href="structSchwarzWrappers_1_1Settings.html" target="_top" xlink:title="The struct that contains the solver settings and the parameters to be set by the user. ">
<polygon fill="#ffffff" stroke="#000000" points="760,-201 760,-220 899,-220 899,-201 760,-201"/>
<text text-anchor="middle" x="829.5" y="-208" font-family="Helvetica,sans-Serif" font-size="10.00" fill="#000000">SchwarzWrappers::Settings</text>
</a>
</g>
</g>
<!-- Node1&#45;&gt;Node0 -->
<g id="edge1" class="edge">
<title>Node1&#45;&gt;Node0</title>
<path fill="none" stroke="#191970" d="M858.215,-196.4651C890.6804,-180.5972 943.3409,-154.8586 976.6583,-138.5743"/>
<polygon fill="#191970" stroke="#191970" points="856.6766,-193.3213 849.2292,-200.8571 859.7505,-199.6103 856.6766,-193.3213"/>
</g>
<!-- Node2 -->
<g id="node3" class="node">
<title>Node2</title>
<g id="a_node3"><a xlink:href="structSchwarzWrappers_1_1Settings_1_1convergence__settings.html" target="_top" xlink:title="The various convergence settings available. ">
<polygon fill="#ffffff" stroke="#000000" points="453.5,-279.5 453.5,-309.5 592.5,-309.5 592.5,-279.5 453.5,-279.5"/>
<text text-anchor="start" x="461.5" y="-297.5" font-family="Helvetica,sans-Serif" font-size="10.00" fill="#000000">SchwarzWrappers::Settings</text>
<text text-anchor="middle" x="523" y="-286.5" font-family="Helvetica,sans-Serif" font-size="10.00" fill="#000000">::convergence_settings</text>
</a>
</g>
</g>
<!-- Node2&#45;&gt;Node1 -->
<g id="edge2" class="edge">
<title>Node2&#45;&gt;Node1</title>
<path fill="none" stroke="#9a32cd" stroke-dasharray="5,2" d="M603.0793,-295.8865C645.0005,-294.2743 696.5134,-288.5434 740,-272.5 772.2757,-260.5926 803.8956,-234.2792 819.4789,-220.0618"/>
<polygon fill="#9a32cd" stroke="#9a32cd" points="602.8008,-292.3934 592.9153,-296.2048 603.0199,-299.39 602.8008,-292.3934"/>
<text text-anchor="middle" x="684.5" y="-296.5" font-family="Helvetica,sans-Serif" font-size="10.00" fill="#000000"> convergence_settings</text>
</g>
<!-- Node3 -->
<g id="node4" class="node">
<title>Node3</title>
<g id="a_node4"><a xlink:title="STL class. ">
<polygon fill="#ffffff" stroke="#bfbfbf" points="493,-228 493,-247 553,-247 553,-228 493,-228"/>
<text text-anchor="middle" x="523" y="-235" font-family="Helvetica,sans-Serif" font-size="10.00" fill="#000000">std::string</text>
</a>
</g>
</g>
<!-- Node3&#45;&gt;Node1 -->
<g id="edge3" class="edge">
<title>Node3&#45;&gt;Node1</title>
<path fill="none" stroke="#9a32cd" stroke-dasharray="5,2" d="M563.3087,-233.9492C613.2107,-229.5532 699.0232,-221.9939 759.7104,-216.6479"/>
<polygon fill="#9a32cd" stroke="#9a32cd" points="562.8815,-230.4731 553.2272,-234.8372 563.4958,-237.4461 562.8815,-230.4731"/>
<text text-anchor="middle" x="684.5" y="-263.5" font-family="Helvetica,sans-Serif" font-size="10.00" fill="#000000"> factorization</text>
<text text-anchor="middle" x="684.5" y="-252.5" font-family="Helvetica,sans-Serif" font-size="10.00" fill="#000000">metis_objtype</text>
<text text-anchor="middle" x="684.5" y="-241.5" font-family="Helvetica,sans-Serif" font-size="10.00" fill="#000000">reorder</text>
<text text-anchor="middle" x="684.5" y="-230.5" font-family="Helvetica,sans-Serif" font-size="10.00" fill="#000000">executor_string</text>
</g>
<!-- Node4 -->
<g id="node5" class="node">
<title>Node4</title>
<polygon fill="#ffffff" stroke="#bfbfbf" points="171,-222.5 171,-252.5 266,-252.5 266,-222.5 171,-222.5"/>
<text text-anchor="start" x="179" y="-240.5" font-family="Helvetica,sans-Serif" font-size="10.00" fill="#000000">std::basic_string&lt;</text>
<text text-anchor="middle" x="218.5" y="-229.5" font-family="Helvetica,sans-Serif" font-size="10.00" fill="#000000"> char &gt;</text>
</g>
<!-- Node4&#45;&gt;Node3 -->
<g id="edge4" class="edge">
<title>Node4&#45;&gt;Node3</title>
<path fill="none" stroke="#191970" d="M276.0852,-237.5C340.529,-237.5 442.4862,-237.5 492.8302,-237.5"/>
<polygon fill="#191970" stroke="#191970" points="276.0782,-234.0001 266.0781,-237.5 276.0781,-241.0001 276.0782,-234.0001"/>
</g>
<!-- Node5 -->
<g id="node6" class="node">
<title>Node5</title>
<g id="a_node6"><a xlink:title="STL class. ">
<polygon fill="#ffffff" stroke="#bfbfbf" points="0,-222.5 0,-252.5 95,-252.5 95,-222.5 0,-222.5"/>
<text text-anchor="start" x="8" y="-240.5" font-family="Helvetica,sans-Serif" font-size="10.00" fill="#000000">std::basic_string&lt;</text>
<text text-anchor="middle" x="47.5" y="-229.5" font-family="Helvetica,sans-Serif" font-size="10.00" fill="#000000"> Char &gt;</text>
</a>
</g>
</g>
<!-- Node5&#45;&gt;Node4 -->
<g id="edge5" class="edge">
<title>Node5&#45;&gt;Node4</title>
<path fill="none" stroke="#ffa500" stroke-dasharray="5,2" d="M105.357,-237.5C126.6579,-237.5 150.524,-237.5 170.8261,-237.5"/>
<polygon fill="#ffa500" stroke="#ffa500" points="105.1331,-234.0001 95.133,-237.5 105.133,-241.0001 105.1331,-234.0001"/>
<text text-anchor="middle" x="133" y="-240.5" font-family="Helvetica,sans-Serif" font-size="10.00" fill="#000000"> &lt; char &gt;</text>
</g>
<!-- Node6 -->
<g id="node7" class="node">
<title>Node6</title>
<g id="a_node7"><a xlink:href="structSchwarzWrappers_1_1Settings_1_1comm__settings.html" target="_top" xlink:title="The settings for the various available communication paradigms. ">
<polygon fill="#ffffff" stroke="#000000" points="453.5,-178.5 453.5,-208.5 592.5,-208.5 592.5,-178.5 453.5,-178.5"/>
<text text-anchor="start" x="461.5" y="-196.5" font-family="Helvetica,sans-Serif" font-size="10.00" fill="#000000">SchwarzWrappers::Settings</text>
<text text-anchor="middle" x="523" y="-185.5" font-family="Helvetica,sans-Serif" font-size="10.00" fill="#000000">::comm_settings</text>
</a>
</g>
</g>
<!-- Node6&#45;&gt;Node1 -->
<g id="edge6" class="edge">
<title>Node6&#45;&gt;Node1</title>
<path fill="none" stroke="#9a32cd" stroke-dasharray="5,2" d="M602.7563,-190.5903C643.8381,-189.921 694.69,-190.3766 740,-194.5 754.6192,-195.8304 770.4283,-198.3058 784.6333,-200.9186"/>
<polygon fill="#9a32cd" stroke="#9a32cd" points="602.4637,-187.0951 592.5315,-190.7832 602.5958,-194.0939 602.4637,-187.0951"/>
<text text-anchor="middle" x="684.5" y="-197.5" font-family="Helvetica,sans-Serif" font-size="10.00" fill="#000000"> comm_settings</text>
</g>
<!-- Node7 -->
<g id="node8" class="node">
<title>Node7</title>
<g id="a_node8"><a xlink:href="structSchwarzWrappers_1_1Metadata.html" target="_top" xlink:title="The solver metadata struct. ">
<polygon fill="#ffffff" stroke="#000000" points="758,-108.5 758,-138.5 901,-138.5 901,-108.5 758,-108.5"/>
<text text-anchor="start" x="766" y="-126.5" font-family="Helvetica,sans-Serif" font-size="10.00" fill="#000000">SchwarzWrappers::Metadata</text>
<text text-anchor="middle" x="829.5" y="-115.5" font-family="Helvetica,sans-Serif" font-size="10.00" fill="#000000">&lt; ValueType, IndexType &gt;</text>
</a>
</g>
</g>
<!-- Node7&#45;&gt;Node0 -->
<g id="edge7" class="edge">
<title>Node7&#45;&gt;Node0</title>
<path fill="none" stroke="#191970" d="M911.4032,-123.5C920.2088,-123.5 929.1075,-123.5 937.7518,-123.5"/>
<polygon fill="#191970" stroke="#191970" points="911.13,-120.0001 901.13,-123.5 911.13,-127.0001 911.13,-120.0001"/>
</g>
<!-- Node8 -->
<g id="node9" class="node">
<title>Node8</title>
<polygon fill="#ffffff" stroke="#bfbfbf" points="435,-118 435,-159 611,-159 611,-118 435,-118"/>
<text text-anchor="start" x="443" y="-147" font-family="Helvetica,sans-Serif" font-size="10.00" fill="#000000">std::vector&lt; std::tuple</text>
<text text-anchor="start" x="443" y="-136" font-family="Helvetica,sans-Serif" font-size="10.00" fill="#000000">&lt; int, int, int, std::</text>
<text text-anchor="middle" x="523" y="-125" font-family="Helvetica,sans-Serif" font-size="10.00" fill="#000000">string, std::vector&lt; ValueType &gt; &gt; &gt;</text>
</g>
<!-- Node8&#45;&gt;Node7 -->
<g id="edge8" class="edge">
<title>Node8&#45;&gt;Node7</title>
<path fill="none" stroke="#9a32cd" stroke-dasharray="5,2" d="M621.4699,-133.6809C665.8265,-131.5101 717.2336,-128.9943 757.8472,-127.0067"/>
<polygon fill="#9a32cd" stroke="#9a32cd" points="621.0582,-130.1968 611.2413,-134.1815 621.4005,-137.1884 621.0582,-130.1968"/>
<text text-anchor="middle" x="684.5" y="-135.5" font-family="Helvetica,sans-Serif" font-size="10.00" fill="#000000"> time_struct</text>
</g>
<!-- Node9 -->
<g id="node10" class="node">
<title>Node9</title>
<g id="a_node10"><a xlink:title="STL class. ">
<polygon fill="#ffffff" stroke="#bfbfbf" points="175,-51 175,-70 262,-70 262,-51 175,-51"/>
<text text-anchor="middle" x="218.5" y="-58" font-family="Helvetica,sans-Serif" font-size="10.00" fill="#000000">std::vector&lt; T &gt;</text>
</a>
</g>
</g>
<!-- Node9&#45;&gt;Node8 -->
<g id="edge9" class="edge">
<title>Node9&#45;&gt;Node8</title>
<path fill="none" stroke="#ffa500" stroke-dasharray="5,2" d="M232.892,-77.5497C245.0472,-90.6543 263.6837,-107.9205 284,-116.5 331.2148,-136.4387 388.2323,-142.2963 434.7332,-143.0009"/>
<polygon fill="#ffa500" stroke="#ffa500" points="235.4695,-75.1813 226.2041,-70.0429 230.2429,-79.8377 235.4695,-75.1813"/>
<text text-anchor="start" x="284" y="-166.5" font-family="Helvetica,sans-Serif" font-size="10.00" fill="#000000"> &lt; std::tuple&lt; int,</text>
<text text-anchor="start" x="284" y="-155.5" font-family="Helvetica,sans-Serif" font-size="10.00" fill="#000000"> int, int, std::string,</text>
<text text-anchor="middle" x="350.5" y="-144.5" font-family="Helvetica,sans-Serif" font-size="10.00" fill="#000000"> std::vector&lt; ValueType &gt; &gt; &gt;</text>
</g>
<!-- Node10 -->
<g id="node11" class="node">
<title>Node10</title>
<polygon fill="#ffffff" stroke="#bfbfbf" points="462,-36 462,-99 584,-99 584,-36 462,-36"/>
<text text-anchor="start" x="470" y="-87" font-family="Helvetica,sans-Serif" font-size="10.00" fill="#000000">std::vector&lt; std::tuple</text>
<text text-anchor="start" x="470" y="-76" font-family="Helvetica,sans-Serif" font-size="10.00" fill="#000000">&lt; int, std::vector&lt; std</text>
<text text-anchor="start" x="470" y="-65" font-family="Helvetica,sans-Serif" font-size="10.00" fill="#000000">::tuple&lt; int, int &gt; &gt;, std</text>
<text text-anchor="start" x="470" y="-54" font-family="Helvetica,sans-Serif" font-size="10.00" fill="#000000">::vector&lt; std::tuple&lt; int,</text>
<text text-anchor="middle" x="523" y="-43" font-family="Helvetica,sans-Serif" font-size="10.00" fill="#000000"> int &gt; &gt;, int, int &gt; &gt;</text>
</g>
<!-- Node9&#45;&gt;Node10 -->
<g id="edge11" class="edge">
<title>Node9&#45;&gt;Node10</title>
<path fill="none" stroke="#ffa500" stroke-dasharray="5,2" d="M272.3249,-60.0225C312.2622,-59.8503 368.0427,-59.9921 417,-61.5 431.5546,-61.9483 447.2206,-62.6913 461.9261,-63.5044"/>
<polygon fill="#ffa500" stroke="#ffa500" points="272.2525,-56.5227 262.2706,-60.0739 272.2884,-63.5226 272.2525,-56.5227"/>
<text text-anchor="start" x="297" y="-108.5" font-family="Helvetica,sans-Serif" font-size="10.00" fill="#000000"> &lt; std::tuple&lt; int,</text>
<text text-anchor="start" x="297" y="-97.5" font-family="Helvetica,sans-Serif" font-size="10.00" fill="#000000"> std::vector&lt; std::tuple</text>
<text text-anchor="start" x="297" y="-86.5" font-family="Helvetica,sans-Serif" font-size="10.00" fill="#000000">&lt; int, int &gt; &gt;, std::vector</text>
<text text-anchor="start" x="297" y="-75.5" font-family="Helvetica,sans-Serif" font-size="10.00" fill="#000000">&lt; std::tuple&lt; int, int &gt; &gt;</text>
<text text-anchor="middle" x="350.5" y="-64.5" font-family="Helvetica,sans-Serif" font-size="10.00" fill="#000000">, int, int &gt; &gt;</text>
</g>
<!-- Node11 -->
<g id="node12" class="node">
<title>Node11</title>
<polygon fill="#ffffff" stroke="#bfbfbf" points="629,-.5 629,-30.5 740,-30.5 740,-.5 629,-.5"/>
<text text-anchor="start" x="637" y="-18.5" font-family="Helvetica,sans-Serif" font-size="10.00" fill="#000000">std::vector&lt; unsigned</text>
<text text-anchor="middle" x="684.5" y="-7.5" font-family="Helvetica,sans-Serif" font-size="10.00" fill="#000000"> int &gt;</text>
</g>
<!-- Node9&#45;&gt;Node11 -->
<g id="edge13" class="edge">
<title>Node9&#45;&gt;Node11</title>
<path fill="none" stroke="#ffa500" stroke-dasharray="5,2" d="M267.2133,-48.7791C272.8568,-47.5893 278.5435,-46.4656 284,-45.5 405.8702,-23.9337 551.28,-17.8514 628.9978,-16.149"/>
<polygon fill="#ffa500" stroke="#ffa500" points="266.1846,-45.4212 257.1605,-50.9725 267.6768,-52.2603 266.1846,-45.4212"/>
<text text-anchor="middle" x="350.5" y="-48.5" font-family="Helvetica,sans-Serif" font-size="10.00" fill="#000000"> &lt; unsigned int &gt;</text>
</g>
<!-- Node10&#45;&gt;Node7 -->
<g id="edge10" class="edge">
<title>Node10&#45;&gt;Node7</title>
<path fill="none" stroke="#9a32cd" stroke-dasharray="5,2" d="M594.2143,-80.5114C643.3921,-89.4966 708.5509,-101.4016 757.8276,-110.4049"/>
<polygon fill="#9a32cd" stroke="#9a32cd" points="594.7544,-77.0522 584.2882,-78.6978 593.4963,-83.9383 594.7544,-77.0522"/>
<text text-anchor="middle" x="684.5" y="-109.5" font-family="Helvetica,sans-Serif" font-size="10.00" fill="#000000"> comm_data_struct</text>
</g>
<!-- Node11&#45;&gt;Node0 -->
<g id="edge12" class="edge">
<title>Node11&#45;&gt;Node0</title>
<path fill="none" stroke="#9a32cd" stroke-dasharray="5,2" d="M750.1371,-31.9382C793.4269,-43.3547 851.1329,-59.6739 901,-77.5 926.4134,-86.5846 954.4018,-98.7621 975.3065,-108.3056"/>
<polygon fill="#9a32cd" stroke="#9a32cd" points="750.8543,-28.5081 740.2939,-29.3612 749.0814,-35.2798 750.8543,-28.5081"/>
<text text-anchor="middle" x="829.5" y="-91.5" font-family="Helvetica,sans-Serif" font-size="10.00" fill="#000000"> cell_weights</text>
<text text-anchor="middle" x="829.5" y="-80.5" font-family="Helvetica,sans-Serif" font-size="10.00" fill="#000000">partition_indices</text>
</g>
</g>
</svg>
        <g id="navigator" transform="translate(0 0)" fill="#404254">
                <rect fill="#f2f5e9" fill-opacity="0.5" stroke="#606060" stroke-width=".5" x="0" y="0" width="60" height="60"/>
                <use id="zoomplus" xlink:href="#zoomPlus" x="17" y="9" onmousedown="handleZoom(evt,'in')"/>
                <use id="zoomminus" xlink:href="#zoomMin" x="42" y="9" onmousedown="handleZoom(evt,'out')"/>
                <use id="reset" xlink:href="#resetDef" x="30" y="36" onmousedown="handleReset()"/>
                <g id="arrowUp" xlink:href="#dirArrow" transform="translate(30 24)" onmousedown="handlePan(0,-1)">
                  <use xlink:href="#rim" fill="#404040">
                        <set attributeName="fill" to="#808080" begin="arrowUp.mouseover" end="arrowUp.mouseout"/>
                  </use>
                  <path fill="none" stroke="white" stroke-width="1.5" d="M0,-3.0v7 M-2.5,-0.5L0,-3.0L2.5,-0.5"/>
                </g>
                <g id="arrowRight" xlink:href="#dirArrow" transform="rotate(90) translate(36 -43)" onmousedown="handlePan(1,0)">
                  <use xlink:href="#rim" fill="#404040">
                        <set attributeName="fill" to="#808080" begin="arrowRight.mouseover" end="arrowRight.mouseout"/>
                  </use>
                  <path fill="none" stroke="white" stroke-width="1.5" d="M0,-3.0v7 M-2.5,-0.5L0,-3.0L2.5,-0.5"/>
                </g>
                <g id="arrowDown" xlink:href="#dirArrow" transform="rotate(180) translate(-30 -48)" onmousedown="handlePan(0,1)">
                  <use xlink:href="#rim" fill="#404040">
                        <set attributeName="fill" to="#808080" begin="arrowDown.mouseover" end="arrowDown.mouseout"/>
                  </use>
                  <path fill="none" stroke="white" stroke-width="1.5" d="M0,-3.0v7 M-2.5,-0.5L0,-3.0L2.5,-0.5"/>
                </g>
                <g id="arrowLeft" xlink:href="#dirArrow" transform="rotate(270) translate(-36 17)" onmousedown="handlePan(-1,0)">
                  <use xlink:href="#rim" fill="#404040">
                        <set attributeName="fill" to="#808080" begin="arrowLeft.mouseover" end="arrowLeft.mouseout"/>
                  </use>
                  <path fill="none" stroke="white" stroke-width="1.5" d="M0,-3.0v7 M-2.5,-0.5L0,-3.0L2.5,-0.5"/>
                </g>
        </g>
        <svg viewBox="0 0 15 15" width="100%" height="30px" preserveAspectRatio="xMaxYMin meet">
         <g id="arrow_out" transform="scale(0.3 0.3)">
          <a xlink:href="classSchwarzWrappers_1_1Initialize__coll__graph_org.svg" target="_base">
           <rect id="button" ry="5" rx="5" y="6" x="6" height="38" width="38"
                fill="#f2f5e9" fill-opacity="0.5" stroke="#606060" stroke-width="1.0"/>
           <path id="arrow"
             d="M 11.500037,31.436501 C 11.940474,20.09759 22.043105,11.32322 32.158766,21.979434 L 37.068811,17.246167 C 37.068811,17.246167 37.088388,32 37.088388,32 L 22.160133,31.978069 C 22.160133,31.978069 26.997745,27.140456 26.997745,27.140456 C 18.528582,18.264221 13.291696,25.230495 11.500037,31.436501 z"
             style="fill:#404040;"/>
          </a>
         </g>
        </svg>
</svg>
