<?xml version="1.0" encoding="UTF-8" standalone="no"?>
<!DOCTYPE svg PUBLIC "-//W3C//DTD SVG 1.1//EN"
 "http://www.w3.org/Graphics/SVG/1.1/DTD/svg11.dtd">
<!-- Generated by graphviz version 2.40.1 (20161225.0304)
 -->
<!-- Title: Solve Pages: 1 -->
<svg width="289pt" height="66pt"
 viewBox="0.00 0.00 289.00 66.00" xmlns="http://www.w3.org/2000/svg" xmlns:xlink="http://www.w3.org/1999/xlink">
<g id="graph0" class="graph" transform="scale(1 1) rotate(0) translate(4 62)">
<title>Solve</title>
<polygon fill="#ffffff" stroke="transparent" points="-4,4 -4,-62 285,-62 285,4 -4,4"/>
<!-- Node0 -->
<g id="node1" class="node">
<title>Node0</title>
<polygon fill="#bfbfbf" stroke="#000000" points="0,-19.5 0,-38.5 41,-38.5 41,-19.5 0,-19.5"/>
<text text-anchor="middle" x="20.5" y="-26.5" font-family="Helvetica,sans-Serif" font-size="10.00" fill="#000000">Solve</text>
</g>
<!-- Node2 -->
<g id="node2" class="node">
<title>Node2</title>
<g id="a_node2"><a xlink:href="group__comm.html" target="_top" xlink:title="A module dedicated to the Communication interface in schwarz&#45;lib. ">
<polygon fill="#ffffff" stroke="#000000" points="204,-38.5 204,-57.5 281,-57.5 281,-38.5 204,-38.5"/>
<text text-anchor="middle" x="242.5" y="-45.5" font-family="Helvetica,sans-Serif" font-size="10.00" fill="#000000">Communicate</text>
</a>
</g>
</g>
<!-- Node0&#45;&gt;Node2 -->
<g id="edge2" class="edge">
<title>Node0&#45;&gt;Node2</title>
<path fill="none" stroke="#ffa500" stroke-dasharray="5,2" d="M41.3852,-30.7875C78.5156,-33.9653 156.5385,-40.6429 203.7433,-44.683"/>
<text text-anchor="middle" x="122.5" y="-45" font-family="Helvetica,sans-Serif" font-size="10.00" fill="#000000">SchwarzWrappers::Metadata</text>
</g>
<!-- Node1 -->
<g id="node3" class="node">
<title>Node1</title>
<g id="a_node3"><a xlink:href="group__init.html" target="_top" xlink:title="A module dedicated to the initialization and setup and usage of the solvers in schwarz&#45;lib. ">
<polygon fill="#ffffff" stroke="#000000" points="208.5,-.5 208.5,-19.5 276.5,-19.5 276.5,-.5 208.5,-.5"/>
<text text-anchor="middle" x="242.5" y="-7.5" font-family="Helvetica,sans-Serif" font-size="10.00" fill="#000000">Initialization</text>
</a>
</g>
</g>
<!-- Node0&#45;&gt;Node1 -->
<g id="edge1" class="edge">
<title>Node0&#45;&gt;Node1</title>
<path fill="none" stroke="#ffa500" stroke-dasharray="5,2" d="M41.3367,-20.0449C46.9684,-18.0077 53.131,-16.1166 59,-15 110.3449,-5.2315 171.2126,-5.9269 208.3301,-7.6883"/>
<text text-anchor="middle" x="122.5" y="-18" font-family="Helvetica,sans-Serif" font-size="10.00" fill="#000000">SchwarzWrappers::Metadata</text>
</g>
</g>
</svg>
