<?xml version="1.0" encoding="UTF-8" standalone="no"?>
<!DOCTYPE svg PUBLIC "-//W3C//DTD SVG 1.1//EN"
 "http://www.w3.org/Graphics/SVG/1.1/DTD/svg11.dtd">
<!-- Generated by graphviz version 2.40.1 (20161225.0304)
 -->
<!-- Title: Initialization Pages: 1 -->
<svg width="316pt" height="89pt"
 viewBox="0.00 0.00 316.00 89.41" xmlns="http://www.w3.org/2000/svg" xmlns:xlink="http://www.w3.org/1999/xlink">
<g id="graph0" class="graph" transform="scale(1 1) rotate(0) translate(4 85.4137)">
<title>Initialization</title>
<polygon fill="#ffffff" stroke="transparent" points="-4,4 -4,-85.4137 312,-85.4137 312,4 -4,4"/>
<!-- Node2 -->
<g id="node1" class="node">
<title>Node2</title>
<g id="a_node1"><a xlink:href="group__solve.html" target="_top" xlink:title="A module dedicated to the solvers including local solution and convergence detection in schwarz&#45;lib...">
<polygon fill="#ffffff" stroke="#000000" points="249,-61.9137 249,-80.9137 290,-80.9137 290,-61.9137 249,-61.9137"/>
<text text-anchor="middle" x="269.5" y="-68.9137" font-family="Helvetica,sans-Serif" font-size="10.00" fill="#000000">Solve</text>
</a>
</g>
</g>
<!-- Node1 -->
<g id="node2" class="node">
<title>Node1</title>
<g id="a_node2"><a xlink:href="group__comm.html" target="_top" xlink:title="A module dedicated to the Communication interface in schwarz&#45;lib. ">
<polygon fill="#ffffff" stroke="#000000" points="231,-8.9137 231,-27.9137 308,-27.9137 308,-8.9137 231,-8.9137"/>
<text text-anchor="middle" x="269.5" y="-15.9137" font-family="Helvetica,sans-Serif" font-size="10.00" fill="#000000">Communicate</text>
</a>
</g>
</g>
<!-- Node0 -->
<g id="node3" class="node">
<title>Node0</title>
<polygon fill="#bfbfbf" stroke="#000000" points="0,-27.9137 0,-46.9137 68,-46.9137 68,-27.9137 0,-27.9137"/>
<text text-anchor="middle" x="34" y="-34.9137" font-family="Helvetica,sans-Serif" font-size="10.00" fill="#000000">Initialization</text>
</g>
<!-- Node0&#45;&gt;Node2 -->
<g id="edge2" class="edge">
<title>Node0&#45;&gt;Node2</title>
<path fill="none" stroke="#ffa500" stroke-dasharray="5,2" d="M68.0732,-44.2692C74.0373,-45.3825 80.1915,-46.4762 86,-47.4137 144.8378,-56.9101 214.755,-65.2456 248.8019,-69.1164"/>
<text text-anchor="middle" x="149.5" y="-67.4137" font-family="Helvetica,sans-Serif" font-size="10.00" fill="#000000">SchwarzWrappers::Metadata</text>
</g>
<!-- Node0&#45;&gt;Node1 -->
<g id="edge1" class="edge">
<title>Node0&#45;&gt;Node1</title>
<path fill="none" stroke="#ffa500" stroke-dasharray="5,2" d="M68.2437,-34.651C111.4896,-31.1619 185.697,-25.1749 230.9076,-21.5273"/>
<text text-anchor="middle" x="149.5" y="-35.4137" font-family="Helvetica,sans-Serif" font-size="10.00" fill="#000000">SchwarzWrappers::Metadata</text>
</g>
<!-- Node0&#45;&gt;Node1 -->
<g id="edge3" class="edge">
<title>Node0&#45;&gt;Node1</title>
<path fill="none" stroke="#8a2be2" stroke-dasharray="5,2" d="M46.4101,-27.7371C56.4548,-20.5539 71.3011,-11.3498 86,-7.4137 134.7093,5.6295 193.192,-1.6176 230.8296,-9.0776"/>
<text text-anchor="middle" x="149.5" y="-10.4137" font-family="Helvetica,sans-Serif" font-size="10.00" fill="#000000">ProcessTopology</text>
</g>
</g>
</svg>
