<?xml version="1.0" encoding="UTF-8" standalone="no"?>
<!DOCTYPE svg PUBLIC "-//W3C//DTD SVG 1.1//EN"
 "http://www.w3.org/Graphics/SVG/1.1/DTD/svg11.dtd">
<!-- Generated by graphviz version 2.40.1 (20161225.0304)
 -->
<!-- Title: Graphical Class Hierarchy Pages: 1 -->
<svg width="691pt" height="137pt"
 viewBox="0.00 0.00 691.00 137.00" xmlns="http://www.w3.org/2000/svg" xmlns:xlink="http://www.w3.org/1999/xlink">
<g id="graph0" class="graph" transform="scale(1 1) rotate(0) translate(4 133)">
<title>Graphical Class Hierarchy</title>
<polygon fill="#ffffff" stroke="transparent" points="-4,4 -4,-133 687,-133 687,4 -4,4"/>
<!-- Node21 -->
<g id="node1" class="node">
<title>Node21</title>
<g id="a_node1"><a xlink:href="classschwz_1_1Communicate.html" target="_top" xlink:title="The communication class that provides the methods for the communication between the subdomains...">
<polygon fill="#ffffff" stroke="#000000" points="186.5,-98.5 186.5,-128.5 319.5,-128.5 319.5,-98.5 186.5,-98.5"/>
<text text-anchor="start" x="194.5" y="-116.5" font-family="Helvetica,sans-Serif" font-size="10.00" fill="#000000">schwz::Communicate</text>
<text text-anchor="middle" x="253" y="-105.5" font-family="Helvetica,sans-Serif" font-size="10.00" fill="#000000">&lt; ValueType, IndexType &gt;</text>
</a>
</g>
</g>
<!-- Node5 -->
<g id="node2" class="node">
<title>Node5</title>
<g id="a_node2"><a xlink:href="classschwz_1_1SchwarzBase.html" target="_top" xlink:title="The Base solver class is meant to be the class implementing the common implementations for all the sc...">
<polygon fill="#ffffff" stroke="#000000" points="356,-49.5 356,-79.5 489,-79.5 489,-49.5 356,-49.5"/>
<text text-anchor="start" x="364" y="-67.5" font-family="Helvetica,sans-Serif" font-size="10.00" fill="#000000">schwz::SchwarzBase</text>
<text text-anchor="middle" x="422.5" y="-56.5" font-family="Helvetica,sans-Serif" font-size="10.00" fill="#000000">&lt; ValueType, IndexType &gt;</text>
</a>
</g>
</g>
<!-- Node21&#45;&gt;Node5 -->
<g id="edge1" class="edge">
<title>Node21&#45;&gt;Node5</title>
<path fill="none" stroke="#191970" d="M314.8989,-95.6059C333.13,-90.3356 352.8858,-84.6245 370.4338,-79.5516"/>
<polygon fill="#191970" stroke="#191970" points="313.8733,-92.259 305.2387,-98.3986 315.8173,-98.9837 313.8733,-92.259"/>
</g>
<!-- Node6 -->
<g id="node3" class="node">
<title>Node6</title>
<g id="a_node3"><a xlink:href="classschwz_1_1SolverRAS.html" target="_top" xlink:title="An implementation of the solver interface using the RAS solver. ">
<polygon fill="#ffffff" stroke="#000000" points="525,-49.5 525,-79.5 683,-79.5 683,-49.5 525,-49.5"/>
<text text-anchor="start" x="533" y="-67.5" font-family="Helvetica,sans-Serif" font-size="10.00" fill="#000000">schwz::SolverRAS&lt; ValueType,</text>
<text text-anchor="middle" x="604" y="-56.5" font-family="Helvetica,sans-Serif" font-size="10.00" fill="#000000"> IndexType &gt;</text>
</a>
</g>
</g>
<!-- Node5&#45;&gt;Node6 -->
<g id="edge2" class="edge">
<title>Node5&#45;&gt;Node6</title>
<path fill="none" stroke="#191970" d="M499.2659,-64.5C507.7226,-64.5 516.3454,-64.5 524.8308,-64.5"/>
<polygon fill="#191970" stroke="#191970" points="499.0533,-61.0001 489.0533,-64.5 499.0533,-68.0001 499.0533,-61.0001"/>
</g>
<!-- Node9 -->
<g id="node4" class="node">
<title>Node9</title>
<g id="a_node4"><a xlink:href="structschwz_1_1Metadata.html" target="_top" xlink:title="The solver metadata struct. ">
<polygon fill="#ffffff" stroke="#000000" points="0,-49.5 0,-79.5 150,-79.5 150,-49.5 0,-49.5"/>
<text text-anchor="start" x="8" y="-67.5" font-family="Helvetica,sans-Serif" font-size="10.00" fill="#000000">schwz::Metadata&lt; ValueType,</text>
<text text-anchor="middle" x="75" y="-56.5" font-family="Helvetica,sans-Serif" font-size="10.00" fill="#000000"> IndexType &gt;</text>
</a>
</g>
</g>
<!-- Node1 -->
<g id="node5" class="node">
<title>Node1</title>
<g id="a_node5"><a xlink:href="classschwz_1_1Initialize.html" target="_top" xlink:title="The initialization class that provides methods for initialization of the solver. ">
<polygon fill="#ffffff" stroke="#000000" points="189.5,-49.5 189.5,-79.5 316.5,-79.5 316.5,-49.5 189.5,-49.5"/>
<text text-anchor="start" x="197.5" y="-67.5" font-family="Helvetica,sans-Serif" font-size="10.00" fill="#000000">schwz::Initialize&lt;</text>
<text text-anchor="middle" x="253" y="-56.5" font-family="Helvetica,sans-Serif" font-size="10.00" fill="#000000"> ValueType, IndexType &gt;</text>
</a>
</g>
</g>
<!-- Node9&#45;&gt;Node1 -->
<g id="edge3" class="edge">
<title>Node9&#45;&gt;Node1</title>
<path fill="none" stroke="#191970" d="M160.3444,-64.5C170.0893,-64.5 179.8927,-64.5 189.2863,-64.5"/>
<polygon fill="#191970" stroke="#191970" points="160.2301,-61.0001 150.23,-64.5 160.23,-68.0001 160.2301,-61.0001"/>
</g>
<!-- Node1&#45;&gt;Node5 -->
<g id="edge4" class="edge">
<title>Node1&#45;&gt;Node5</title>
<path fill="none" stroke="#191970" d="M326.668,-64.5C336.4218,-64.5 346.3749,-64.5 355.9984,-64.5"/>
<polygon fill="#191970" stroke="#191970" points="326.5978,-61.0001 316.5978,-64.5 326.5978,-68.0001 326.5978,-61.0001"/>
</g>
<!-- Node0 -->
<g id="node6" class="node">
<title>Node0</title>
<g id="a_node6"><a xlink:href="structschwz_1_1Settings.html" target="_top" xlink:title="The struct that contains the solver settings and the parameters to be set by the user. ">
<polygon fill="#ffffff" stroke="#000000" points="31.5,-9 31.5,-28 118.5,-28 118.5,-9 31.5,-9"/>
<text text-anchor="middle" x="75" y="-16" font-family="Helvetica,sans-Serif" font-size="10.00" fill="#000000">schwz::Settings</text>
</a>
</g>
</g>
<!-- Node0&#45;&gt;Node1 -->
<g id="edge5" class="edge">
<title>Node0&#45;&gt;Node1</title>
<path fill="none" stroke="#191970" d="M121.7986,-30.594C144.1524,-36.3708 171.128,-43.3421 194.7912,-49.4573"/>
<polygon fill="#191970" stroke="#191970" points="122.4394,-27.1447 111.8817,-28.0312 120.6879,-33.922 122.4394,-27.1447"/>
</g>
<!-- Node4 -->
<g id="node7" class="node">
<title>Node4</title>
<g id="a_node7"><a xlink:href="classschwz_1_1Solve.html" target="_top" xlink:title="The Solver class the provides the solver and the convergence checking methods. ">
<polygon fill="#ffffff" stroke="#000000" points="186,-.5 186,-30.5 320,-30.5 320,-.5 186,-.5"/>
<text text-anchor="start" x="194" y="-18.5" font-family="Helvetica,sans-Serif" font-size="10.00" fill="#000000">schwz::Solve&lt; ValueType,</text>
<text text-anchor="middle" x="253" y="-7.5" font-family="Helvetica,sans-Serif" font-size="10.00" fill="#000000"> IndexType &gt;</text>
</a>
</g>
</g>
<!-- Node0&#45;&gt;Node4 -->
<g id="edge6" class="edge">
<title>Node0&#45;&gt;Node4</title>
<path fill="none" stroke="#191970" d="M128.5908,-17.5968C146.6408,-17.2926 167.0125,-16.9492 185.9664,-16.6298"/>
<polygon fill="#191970" stroke="#191970" points="128.4833,-14.098 118.5437,-17.7661 128.6013,-21.097 128.4833,-14.098"/>
</g>
<!-- Node4&#45;&gt;Node5 -->
<g id="edge7" class="edge">
<title>Node4&#45;&gt;Node5</title>
<path fill="none" stroke="#191970" d="M314.8989,-33.3941C333.13,-38.6644 352.8858,-44.3755 370.4338,-49.4484"/>
<polygon fill="#191970" stroke="#191970" points="315.8173,-30.0163 305.2387,-30.6014 313.8733,-36.741 315.8173,-30.0163"/>
</g>
</g>
</svg>
