<?xml version="1.0" encoding="UTF-8" standalone="no"?>
<!DOCTYPE svg PUBLIC "-//W3C//DTD SVG 1.1//EN"
 "http://www.w3.org/Graphics/SVG/1.1/DTD/svg11.dtd">
<!-- Generated by graphviz version 2.40.1 (20161225.0304)
 -->
<!-- Title: schwz::Solve&lt; ValueType, IndexType &gt; Pages: 1 -->
<svg width="384pt" height="364pt"
 viewBox="0.00 0.00 384.00 364.00" xmlns="http://www.w3.org/2000/svg" xmlns:xlink="http://www.w3.org/1999/xlink">
<g id="graph0" class="graph" transform="scale(1 1) rotate(0) translate(4 360)">
<title>schwz::Solve&lt; ValueType, IndexType &gt;</title>
<polygon fill="#ffffff" stroke="transparent" points="-4,4 -4,-360 380,-360 380,4 -4,4"/>
<!-- Node0 -->
<g id="node1" class="node">
<title>Node0</title>
<polygon fill="#bfbfbf" stroke="#000000" points="101,-.5 101,-30.5 235,-30.5 235,-.5 101,-.5"/>
<text text-anchor="start" x="109" y="-18.5" font-family="Helvetica,sans-Serif" font-size="10.00" fill="#000000">schwz::Solve&lt; ValueType,</text>
<text text-anchor="middle" x="168" y="-7.5" font-family="Helvetica,sans-Serif" font-size="10.00" fill="#000000"> IndexType &gt;</text>
</g>
<!-- Node1 -->
<g id="node2" class="node">
<title>Node1</title>
<g id="a_node2"><a xlink:href="structschwz_1_1Settings.html" target="_top" xlink:title="The struct that contains the solver settings and the parameters to be set by the user. ">
<polygon fill="#ffffff" stroke="#000000" points="124.5,-68.5 124.5,-87.5 211.5,-87.5 211.5,-68.5 124.5,-68.5"/>
<text text-anchor="middle" x="168" y="-75.5" font-family="Helvetica,sans-Serif" font-size="10.00" fill="#000000">schwz::Settings</text>
</a>
</g>
</g>
<!-- Node1&#45;&gt;Node0 -->
<g id="edge1" class="edge">
<title>Node1&#45;&gt;Node0</title>
<path fill="none" stroke="#191970" d="M168,-58.0501C168,-49.2205 168,-39.0001 168,-30.7892"/>
<polygon fill="#191970" stroke="#191970" points="164.5001,-58.2343 168,-68.2344 171.5001,-58.2344 164.5001,-58.2343"/>
</g>
<!-- Node2 -->
<g id="node3" class="node">
<title>Node2</title>
<g id="a_node3"><a xlink:href="structschwz_1_1Settings_1_1comm__settings.html" target="_top" xlink:title="The settings for the various available communication paradigms. ">
<polygon fill="#ffffff" stroke="#000000" points="0,-179.5 0,-209.5 120,-209.5 120,-179.5 0,-179.5"/>
<text text-anchor="start" x="8" y="-197.5" font-family="Helvetica,sans-Serif" font-size="10.00" fill="#000000">schwz::Settings::comm</text>
<text text-anchor="middle" x="60" y="-186.5" font-family="Helvetica,sans-Serif" font-size="10.00" fill="#000000">_settings</text>
</a>
</g>
</g>
<!-- Node2&#45;&gt;Node1 -->
<g id="edge2" class="edge">
<title>Node2&#45;&gt;Node1</title>
<path fill="none" stroke="#9a32cd" stroke-dasharray="5,2" d="M63.9306,-169.2364C68.2054,-149.6451 76.8699,-123.0436 94,-106 102.3742,-97.6681 113.4732,-91.7743 124.5212,-87.6207"/>
<polygon fill="#9a32cd" stroke="#9a32cd" points="60.448,-168.8108 61.9814,-179.2941 67.3201,-170.1427 60.448,-168.8108"/>
<text text-anchor="middle" x="129" y="-131" font-family="Helvetica,sans-Serif" font-size="10.00" fill="#000000"> comm_settings</text>
</g>
<!-- Node3 -->
<g id="node4" class="node">
<title>Node3</title>
<g id="a_node4"><a xlink:title="STL class. ">
<polygon fill="#ffffff" stroke="#bfbfbf" points="138,-185 138,-204 198,-204 198,-185 138,-185"/>
<text text-anchor="middle" x="168" y="-192" font-family="Helvetica,sans-Serif" font-size="10.00" fill="#000000">std::string</text>
</a>
</g>
</g>
<!-- Node3&#45;&gt;Node1 -->
<g id="edge3" class="edge">
<title>Node3&#45;&gt;Node1</title>
<path fill="none" stroke="#9a32cd" stroke-dasharray="5,2" d="M168,-174.7359C168,-149.4699 168,-106.7196 168,-87.6654"/>
<polygon fill="#9a32cd" stroke="#9a32cd" points="164.5001,-174.9663 168,-184.9663 171.5001,-174.9664 164.5001,-174.9663"/>
<text text-anchor="middle" x="203" y="-153" font-family="Helvetica,sans-Serif" font-size="10.00" fill="#000000"> factorization</text>
<text text-anchor="middle" x="203" y="-142" font-family="Helvetica,sans-Serif" font-size="10.00" fill="#000000">metis_objtype</text>
<text text-anchor="middle" x="203" y="-131" font-family="Helvetica,sans-Serif" font-size="10.00" fill="#000000">matrix_filename</text>
<text text-anchor="middle" x="203" y="-120" font-family="Helvetica,sans-Serif" font-size="10.00" fill="#000000">reorder</text>
<text text-anchor="middle" x="203" y="-109" font-family="Helvetica,sans-Serif" font-size="10.00" fill="#000000">executor_string</text>
</g>
<!-- Node4 -->
<g id="node5" class="node">
<title>Node4</title>
<polygon fill="#ffffff" stroke="#bfbfbf" points="120.5,-247.5 120.5,-277.5 215.5,-277.5 215.5,-247.5 120.5,-247.5"/>
<text text-anchor="start" x="128.5" y="-265.5" font-family="Helvetica,sans-Serif" font-size="10.00" fill="#000000">std::basic_string&lt;</text>
<text text-anchor="middle" x="168" y="-254.5" font-family="Helvetica,sans-Serif" font-size="10.00" fill="#000000"> char &gt;</text>
</g>
<!-- Node4&#45;&gt;Node3 -->
<g id="edge4" class="edge">
<title>Node4&#45;&gt;Node3</title>
<path fill="none" stroke="#191970" d="M168,-237.0669C168,-225.6483 168,-212.8507 168,-204.297"/>
<polygon fill="#191970" stroke="#191970" points="164.5001,-237.4086 168,-247.4086 171.5001,-237.4086 164.5001,-237.4086"/>
</g>
<!-- Node5 -->
<g id="node6" class="node">
<title>Node5</title>
<g id="a_node6"><a xlink:title="STL class. ">
<polygon fill="#ffffff" stroke="#bfbfbf" points="120.5,-325.5 120.5,-355.5 215.5,-355.5 215.5,-325.5 120.5,-325.5"/>
<text text-anchor="start" x="128.5" y="-343.5" font-family="Helvetica,sans-Serif" font-size="10.00" fill="#000000">std::basic_string&lt;</text>
<text text-anchor="middle" x="168" y="-332.5" font-family="Helvetica,sans-Serif" font-size="10.00" fill="#000000"> Char &gt;</text>
</a>
</g>
</g>
<!-- Node5&#45;&gt;Node4 -->
<g id="edge5" class="edge">
<title>Node5&#45;&gt;Node4</title>
<path fill="none" stroke="#ffa500" stroke-dasharray="5,2" d="M168,-315.2875C168,-302.9187 168,-288.4264 168,-277.7592"/>
<polygon fill="#ffa500" stroke="#ffa500" points="164.5001,-315.4608 168,-325.4608 171.5001,-315.4608 164.5001,-315.4608"/>
<text text-anchor="middle" x="188" y="-299" font-family="Helvetica,sans-Serif" font-size="10.00" fill="#000000"> &lt; char &gt;</text>
</g>
<!-- Node6 -->
<g id="node7" class="node">
<title>Node6</title>
<g id="a_node7"><a xlink:href="structschwz_1_1Settings_1_1convergence__settings.html" target="_top" xlink:title="The various convergence settings available. ">
<polygon fill="#ffffff" stroke="#000000" points="215.5,-179.5 215.5,-209.5 364.5,-209.5 364.5,-179.5 215.5,-179.5"/>
<text text-anchor="start" x="223.5" y="-197.5" font-family="Helvetica,sans-Serif" font-size="10.00" fill="#000000">schwz::Settings::convergence</text>
<text text-anchor="middle" x="290" y="-186.5" font-family="Helvetica,sans-Serif" font-size="10.00" fill="#000000">_settings</text>
</a>
</g>
</g>
<!-- Node6&#45;&gt;Node1 -->
<g id="edge6" class="edge">
<title>Node6&#45;&gt;Node1</title>
<path fill="none" stroke="#9a32cd" stroke-dasharray="5,2" d="M282.0097,-169.6898C274.5147,-149.9976 261.5089,-123.0341 242,-106 232.4808,-97.6883 220.2463,-91.7344 208.4777,-87.5172"/>
<polygon fill="#9a32cd" stroke="#9a32cd" points="278.762,-171.002 285.4321,-179.2336 285.3511,-168.6391 278.762,-171.002"/>
<text text-anchor="middle" x="326.5" y="-131" font-family="Helvetica,sans-Serif" font-size="10.00" fill="#000000"> convergence_settings</text>
</g>
</g>
</svg>
