<?xml version="1.0" encoding="UTF-8" standalone="no"?>
<!DOCTYPE svg PUBLIC "-//W3C//DTD SVG 1.1//EN"
 "http://www.w3.org/Graphics/SVG/1.1/DTD/svg11.dtd">
<!-- Generated by graphviz version 2.40.1 (20161225.0304)
 -->
<!-- Title: Graphical Class Hierarchy Pages: 1 -->
<svg width="316pt" height="256pt"
 viewBox="0.00 0.00 316.00 256.00" xmlns="http://www.w3.org/2000/svg" xmlns:xlink="http://www.w3.org/1999/xlink">
<g id="graph0" class="graph" transform="scale(1 1) rotate(0) translate(4 252)">
<title>Graphical Class Hierarchy</title>
<polygon fill="#ffffff" stroke="transparent" points="-4,4 -4,-252 312,-252 312,4 -4,4"/>
<!-- Node10 -->
<g id="node1" class="node">
<title>Node10</title>
<g id="a_node1"><a xlink:title="STL class. ">
<polygon fill="#ffffff" stroke="#bfbfbf" points="0,-114.5 0,-133.5 78,-133.5 78,-114.5 0,-114.5"/>
<text text-anchor="middle" x="39" y="-121.5" font-family="Helvetica,sans-Serif" font-size="10.00" fill="#000000">std::exception</text>
</a>
</g>
</g>
<!-- Node0 -->
<g id="node2" class="node">
<title>Node0</title>
<g id="a_node2"><a xlink:href="classError.html" target="_top" xlink:title="Error">
<polygon fill="#ffffff" stroke="#000000" points="114,-114.5 114,-133.5 152,-133.5 152,-114.5 114,-114.5"/>
<text text-anchor="middle" x="133" y="-121.5" font-family="Helvetica,sans-Serif" font-size="10.00" fill="#000000">Error</text>
</a>
</g>
</g>
<!-- Node10&#45;&gt;Node0 -->
<g id="edge1" class="edge">
<title>Node10&#45;&gt;Node0</title>
<path fill="none" stroke="#191970" d="M88.3242,-124C97.4472,-124 106.4532,-124 113.9627,-124"/>
<polygon fill="#191970" stroke="#191970" points="88.0479,-120.5001 78.0478,-124 88.0478,-127.5001 88.0479,-120.5001"/>
</g>
<!-- Node1 -->
<g id="node3" class="node">
<title>Node1</title>
<g id="a_node3"><a xlink:href="classBadDimension.html" target="_top" xlink:title="BadDimension is thrown if an operation is being applied to a LinOp with bad dimensions. ">
<polygon fill="#ffffff" stroke="#000000" points="208,-228.5 208,-247.5 288,-247.5 288,-228.5 208,-228.5"/>
<text text-anchor="middle" x="248" y="-235.5" font-family="Helvetica,sans-Serif" font-size="10.00" fill="#000000">BadDimension</text>
</a>
</g>
</g>
<!-- Node0&#45;&gt;Node1 -->
<g id="edge2" class="edge">
<title>Node0&#45;&gt;Node1</title>
<path fill="none" stroke="#191970" d="M139.3473,-143.3103C147.3715,-164.7964 163.2068,-199.1004 188,-219 193.7944,-223.6507 200.744,-227.1714 207.8261,-229.8341"/>
<polygon fill="#191970" stroke="#191970" points="142.5676,-141.9177 135.9435,-133.6489 135.9653,-144.2438 142.5676,-141.9177"/>
</g>
<!-- Node2 -->
<g id="node4" class="node">
<title>Node2</title>
<g id="a_node4"><a xlink:href="classCudaError.html" target="_top" xlink:title="CudaError is thrown when a CUDA routine throws a non&#45;zero error code. ">
<polygon fill="#ffffff" stroke="#000000" points="217.5,-190.5 217.5,-209.5 278.5,-209.5 278.5,-190.5 217.5,-190.5"/>
<text text-anchor="middle" x="248" y="-197.5" font-family="Helvetica,sans-Serif" font-size="10.00" fill="#000000">CudaError</text>
</a>
</g>
</g>
<!-- Node0&#45;&gt;Node2 -->
<g id="edge3" class="edge">
<title>Node0&#45;&gt;Node2</title>
<path fill="none" stroke="#191970" d="M146.2674,-141.8881C156.4295,-154.443 171.4766,-170.7562 188,-181 196.9152,-186.527 207.5814,-190.5806 217.4318,-193.4887"/>
<polygon fill="#191970" stroke="#191970" points="148.9627,-139.6527 140.0544,-133.9174 143.4418,-143.9562 148.9627,-139.6527"/>
</g>
<!-- Node3 -->
<g id="node5" class="node">
<title>Node3</title>
<g id="a_node5"><a xlink:href="classCusparseError.html" target="_top" xlink:title="CusparseError is thrown when a cuSPARSE routine throws a non&#45;zero error code. ">
<polygon fill="#ffffff" stroke="#000000" points="208,-152.5 208,-171.5 288,-171.5 288,-152.5 208,-152.5"/>
<text text-anchor="middle" x="248" y="-159.5" font-family="Helvetica,sans-Serif" font-size="10.00" fill="#000000">CusparseError</text>
</a>
</g>
</g>
<!-- Node0&#45;&gt;Node3 -->
<g id="edge4" class="edge">
<title>Node0&#45;&gt;Node3</title>
<path fill="none" stroke="#191970" d="M161.5427,-134.0176C170.0407,-136.9576 179.3834,-140.1479 188,-143 197.5432,-146.1588 207.9762,-149.501 217.427,-152.487"/>
<polygon fill="#191970" stroke="#191970" points="162.6439,-130.695 152.049,-130.7167 160.3449,-137.3068 162.6439,-130.695"/>
</g>
<!-- Node4 -->
<g id="node6" class="node">
<title>Node4</title>
<g id="a_node6"><a xlink:href="classMetisError.html" target="_top" xlink:title="MetisError is thrown when a METIS routine throws a non&#45;zero error code. ">
<polygon fill="#ffffff" stroke="#000000" points="217,-114.5 217,-133.5 279,-133.5 279,-114.5 217,-114.5"/>
<text text-anchor="middle" x="248" y="-121.5" font-family="Helvetica,sans-Serif" font-size="10.00" fill="#000000">MetisError</text>
</a>
</g>
</g>
<!-- Node0&#45;&gt;Node4 -->
<g id="edge5" class="edge">
<title>Node0&#45;&gt;Node4</title>
<path fill="none" stroke="#191970" d="M162.529,-124C179.2122,-124 200.0486,-124 216.9717,-124"/>
<polygon fill="#191970" stroke="#191970" points="162.2484,-120.5001 152.2484,-124 162.2484,-127.5001 162.2484,-120.5001"/>
</g>
<!-- Node5 -->
<g id="node7" class="node">
<title>Node5</title>
<g id="a_node7"><a xlink:href="classModuleNotImplemented.html" target="_top" xlink:title="ModuleNotImplemented">
<polygon fill="#ffffff" stroke="#000000" points="188,-76.5 188,-95.5 308,-95.5 308,-76.5 188,-76.5"/>
<text text-anchor="middle" x="248" y="-83.5" font-family="Helvetica,sans-Serif" font-size="10.00" fill="#000000">ModuleNotImplemented</text>
</a>
</g>
</g>
<!-- Node0&#45;&gt;Node5 -->
<g id="edge6" class="edge">
<title>Node0&#45;&gt;Node5</title>
<path fill="none" stroke="#191970" d="M161.5427,-113.9824C170.0407,-111.0424 179.3834,-107.8521 188,-105 197.5432,-101.8412 207.9762,-98.499 217.427,-95.513"/>
<polygon fill="#191970" stroke="#191970" points="160.3449,-110.6932 152.049,-117.2833 162.6439,-117.305 160.3449,-110.6932"/>
</g>
<!-- Node6 -->
<g id="node8" class="node">
<title>Node6</title>
<g id="a_node8"><a xlink:href="classNotImplemented.html" target="_top" xlink:title="NotImplemented">
<polygon fill="#ffffff" stroke="#000000" points="203.5,-38.5 203.5,-57.5 292.5,-57.5 292.5,-38.5 203.5,-38.5"/>
<text text-anchor="middle" x="248" y="-45.5" font-family="Helvetica,sans-Serif" font-size="10.00" fill="#000000">NotImplemented</text>
</a>
</g>
</g>
<!-- Node0&#45;&gt;Node6 -->
<g id="edge7" class="edge">
<title>Node0&#45;&gt;Node6</title>
<path fill="none" stroke="#191970" d="M146.2674,-106.1119C156.4295,-93.557 171.4766,-77.2438 188,-67 194.1292,-63.2002 201.086,-60.0968 208.0364,-57.5832"/>
<polygon fill="#191970" stroke="#191970" points="143.4418,-104.0438 140.0544,-114.0826 148.9627,-108.3473 143.4418,-104.0438"/>
</g>
<!-- Node7 -->
<g id="node9" class="node">
<title>Node7</title>
<g id="a_node9"><a xlink:href="classUmfpackError.html" target="_top" xlink:title="UmfpackError is thrown when a METIS routine throws a non&#45;zero error code. ">
<polygon fill="#ffffff" stroke="#000000" points="209.5,-.5 209.5,-19.5 286.5,-19.5 286.5,-.5 209.5,-.5"/>
<text text-anchor="middle" x="248" y="-7.5" font-family="Helvetica,sans-Serif" font-size="10.00" fill="#000000">UmfpackError</text>
</a>
</g>
</g>
<!-- Node0&#45;&gt;Node7 -->
<g id="edge8" class="edge">
<title>Node0&#45;&gt;Node7</title>
<path fill="none" stroke="#191970" d="M139.3473,-104.6897C147.3715,-83.2036 163.2068,-48.8996 188,-29 194.2205,-24.0073 201.7722,-20.317 209.3901,-17.5924"/>
<polygon fill="#191970" stroke="#191970" points="135.9653,-103.7562 135.9435,-114.3511 142.5676,-106.0823 135.9653,-103.7562"/>
</g>
</g>
</svg>
