<?xml version="1.0" encoding="UTF-8" standalone="no"?>
<!DOCTYPE svg PUBLIC "-//W3C//DTD SVG 1.1//EN"
 "http://www.w3.org/Graphics/SVG/1.1/DTD/svg11.dtd">
<!-- Generated by graphviz version 2.40.1 (20161225.0304)
 -->
<!-- Title: schwz::Communicate&lt; ValueType, IndexType, MixedValueType &gt; Pages: 1 -->
<svg width="260pt" height="295pt"
 viewBox="0.00 0.00 259.50 295.00" xmlns="http://www.w3.org/2000/svg" xmlns:xlink="http://www.w3.org/1999/xlink">
<g id="graph0" class="graph" transform="scale(1 1) rotate(0) translate(4 291)">
<title>schwz::Communicate&lt; ValueType, IndexType, MixedValueType &gt;</title>
<polygon fill="#ffffff" stroke="transparent" points="-4,4 -4,-291 255.5,-291 255.5,4 -4,4"/>
<!-- Node0 -->
<g id="node1" class="node">
<title>Node0</title>
<polygon fill="#bfbfbf" stroke="#000000" points="65,-.5 65,-41.5 192,-41.5 192,-.5 65,-.5"/>
<text text-anchor="start" x="73" y="-29.5" font-family="Helvetica,sans-Serif" font-size="10.00" fill="#000000">schwz::Communicate</text>
<text text-anchor="start" x="73" y="-18.5" font-family="Helvetica,sans-Serif" font-size="10.00" fill="#000000">&lt; ValueType, IndexType,</text>
<text text-anchor="middle" x="128.5" y="-7.5" font-family="Helvetica,sans-Serif" font-size="10.00" fill="#000000"> MixedValueType &gt;</text>
</g>
<!-- Node1 -->
<g id="node2" class="node">
<title>Node1</title>
<g id="a_node2"><a xlink:href="structschwz_1_1Communicate_1_1comm__struct.html" target="_top" xlink:title="The communication struct used to store the communication data. ">
<polygon fill="#ffffff" stroke="#000000" points="61.5,-89.5 61.5,-141.5 195.5,-141.5 195.5,-89.5 61.5,-89.5"/>
<text text-anchor="start" x="69.5" y="-129.5" font-family="Helvetica,sans-Serif" font-size="10.00" fill="#000000">schwz::Communicate</text>
<text text-anchor="start" x="69.5" y="-118.5" font-family="Helvetica,sans-Serif" font-size="10.00" fill="#000000">&lt; ValueType, IndexType,</text>
<text text-anchor="start" x="69.5" y="-107.5" font-family="Helvetica,sans-Serif" font-size="10.00" fill="#000000"> MixedValueType &gt;::comm</text>
<text text-anchor="middle" x="128.5" y="-96.5" font-family="Helvetica,sans-Serif" font-size="10.00" fill="#000000">_struct</text>
</a>
</g>
</g>
<!-- Node1&#45;&gt;Node0 -->
<g id="edge1" class="edge">
<title>Node1&#45;&gt;Node0</title>
<path fill="none" stroke="#9a32cd" stroke-dasharray="5,2" d="M128.5,-79.0981C128.5,-66.3882 128.5,-52.5713 128.5,-41.6016"/>
<polygon fill="#9a32cd" stroke="#9a32cd" points="125.0001,-79.4273 128.5,-89.4273 132.0001,-79.4273 125.0001,-79.4273"/>
<text text-anchor="middle" x="159" y="-63" font-family="Helvetica,sans-Serif" font-size="10.00" fill="#000000"> comm_struct</text>
</g>
<!-- Node2 -->
<g id="node3" class="node">
<title>Node2</title>
<polygon fill="#ffffff" stroke="#bfbfbf" points="0,-200.5 0,-219.5 127,-219.5 127,-200.5 0,-200.5"/>
<text text-anchor="middle" x="63.5" y="-207.5" font-family="Helvetica,sans-Serif" font-size="10.00" fill="#000000">std::vector&lt; IndexType &gt;</text>
</g>
<!-- Node2&#45;&gt;Node1 -->
<g id="edge2" class="edge">
<title>Node2&#45;&gt;Node1</title>
<path fill="none" stroke="#9a32cd" stroke-dasharray="5,2" d="M75.9908,-191.8403C85.7572,-177.6414 99.4699,-157.7053 110.433,-141.7666"/>
<polygon fill="#9a32cd" stroke="#9a32cd" points="72.9948,-190.0201 70.2113,-200.2428 78.7622,-193.9871 72.9948,-190.0201"/>
<text text-anchor="middle" x="107.5" y="-174" font-family="Helvetica,sans-Serif" font-size="10.00" fill="#000000"> recv</text>
<text text-anchor="middle" x="107.5" y="-163" font-family="Helvetica,sans-Serif" font-size="10.00" fill="#000000">send</text>
</g>
<!-- Node3 -->
<g id="node4" class="node">
<title>Node3</title>
<g id="a_node4"><a xlink:title="STL class. ">
<polygon fill="#ffffff" stroke="#bfbfbf" points="85,-267.5 85,-286.5 172,-286.5 172,-267.5 85,-267.5"/>
<text text-anchor="middle" x="128.5" y="-274.5" font-family="Helvetica,sans-Serif" font-size="10.00" fill="#000000">std::vector&lt; T &gt;</text>
</a>
</g>
</g>
<!-- Node3&#45;&gt;Node2 -->
<g id="edge3" class="edge">
<title>Node3&#45;&gt;Node2</title>
<path fill="none" stroke="#ffa500" stroke-dasharray="5,2" d="M107.797,-261.1229C103.2558,-257.3237 98.587,-253.1584 94.5,-249 85.4059,-239.747 76.3259,-227.9478 70.3657,-219.7629"/>
<polygon fill="#ffa500" stroke="#ffa500" points="105.7006,-263.9285 115.6806,-267.4853 110.0968,-258.4812 105.7006,-263.9285"/>
<text text-anchor="middle" x="128" y="-241" font-family="Helvetica,sans-Serif" font-size="10.00" fill="#000000"> &lt; IndexType &gt;</text>
</g>
<!-- Node4 -->
<g id="node5" class="node">
<title>Node4</title>
<polygon fill="#ffffff" stroke="#bfbfbf" points="145,-200.5 145,-219.5 244,-219.5 244,-200.5 145,-200.5"/>
<text text-anchor="middle" x="194.5" y="-207.5" font-family="Helvetica,sans-Serif" font-size="10.00" fill="#000000">std::vector&lt; bool &gt;</text>
</g>
<!-- Node3&#45;&gt;Node4 -->
<g id="edge5" class="edge">
<title>Node3&#45;&gt;Node4</title>
<path fill="none" stroke="#ffa500" stroke-dasharray="5,2" d="M148.8048,-260.6832C153.1152,-256.9707 157.5529,-252.9525 161.5,-249 170.9011,-239.5861 180.6149,-227.8145 187.0474,-219.6802"/>
<polygon fill="#ffa500" stroke="#ffa500" points="146.2612,-258.2477 140.8352,-267.3477 150.7517,-263.6176 146.2612,-258.2477"/>
<text text-anchor="middle" x="190.5" y="-241" font-family="Helvetica,sans-Serif" font-size="10.00" fill="#000000"> &lt; bool &gt;</text>
</g>
<!-- Node4&#45;&gt;Node1 -->
<g id="edge4" class="edge">
<title>Node4&#45;&gt;Node1</title>
<path fill="none" stroke="#9a32cd" stroke-dasharray="5,2" d="M181.817,-191.8403C171.9003,-177.6414 157.9767,-157.7053 146.845,-141.7666"/>
<polygon fill="#9a32cd" stroke="#9a32cd" points="179.09,-194.0484 187.6854,-200.2428 184.829,-190.0403 179.09,-194.0484"/>
<text text-anchor="middle" x="212" y="-168.5" font-family="Helvetica,sans-Serif" font-size="10.00" fill="#000000"> is_local_neighbor</text>
</g>
</g>
</svg>
