<?xml version="1.0" encoding="UTF-8" standalone="no"?>
<!DOCTYPE svg PUBLIC "-//W3C//DTD SVG 1.1//EN"
 "http://www.w3.org/Graphics/SVG/1.1/DTD/svg11.dtd">
<!-- Generated by graphviz version 2.40.1 (20161225.0304)
 -->
<!-- Title: schwz::SchwarzBase&lt; ValueType, IndexType, MixedValueType &gt; Pages: 1 -->
<!--zoomable 560 -->
<svg id="main" version="1.1" xmlns="http://www.w3.org/2000/svg" xmlns:xlink="http://www.w3.org/1999/xlink" xml:space="preserve" onload="init(evt)">
<style type="text/css"><![CDATA[
.edge:hover path { stroke: red; }
.edge:hover polygon { stroke: red; fill: red; }
]]></style>
<script type="text/javascript"><![CDATA[
var edges = document.getElementsByTagName('g');
if (edges && edges.length) {
  for (var i=0;i<edges.length;i++) {
    if (edges[i].id.substr(0,4)=='edge') {
      edges[i].setAttribute('class','edge');
    }
  }
}
]]></script>
        <defs>
                <circle id="rim" cx="0" cy="0" r="7"/>
                <circle id="rim2" cx="0" cy="0" r="3.5"/>
                <g id="zoomPlus">
                        <use xlink:href="#rim" fill="#404040">
                                <set attributeName="fill" to="#808080" begin="zoomplus.mouseover" end="zoomplus.mouseout"/>
                        </use>
                        <path d="M-4,0h8M0,-4v8" fill="none" stroke="white" stroke-width="1.5" pointer-events="none"/>
                </g>
                <g id="zoomMin">
                        <use xlink:href="#rim" fill="#404040">
                                <set attributeName="fill" to="#808080" begin="zoomminus.mouseover" end="zoomminus.mouseout"/>
                        </use>
                        <path d="M-4,0h8" fill="none" stroke="white" stroke-width="1.5" pointer-events="none"/>
                </g>
                <g id="dirArrow">
                        <path fill="none" stroke="white" stroke-width="1.5" d="M0,-3.0v7 M-2.5,-0.5L0,-3.0L2.5,-0.5"/>
                </g>
               <g id="resetDef">
                       <use xlink:href="#rim2" fill="#404040">
                               <set attributeName="fill" to="#808080" begin="reset.mouseover" end="reset.mouseout"/>
                       </use>
               </g>
        </defs>

<script type="text/javascript">
var viewWidth = 1552;
var viewHeight = 560;
var sectionId = 'dynsection-0';
</script>
<script xlink:href="svgpan.js"/>
<svg id="graph" class="graph">
<g id="viewport">
<title>schwz::SchwarzBase&lt; ValueType, IndexType, MixedValueType &gt;</title>
<polygon fill="#ffffff" stroke="transparent" points="-4,4 -4,-556 1548,-556 1548,4 -4,4"/>
<!-- Node0 -->
<g id="node1" class="node">
<title>Node0</title>
<polygon fill="#bfbfbf" stroke="#000000" points="1417,-189 1417,-230 1544,-230 1544,-189 1417,-189"/>
<text text-anchor="start" x="1425" y="-218" font-family="Helvetica,sans-Serif" font-size="10.00" fill="#000000">schwz::SchwarzBase</text>
<text text-anchor="start" x="1425" y="-207" font-family="Helvetica,sans-Serif" font-size="10.00" fill="#000000">&lt; ValueType, IndexType,</text>
<text text-anchor="middle" x="1480.5" y="-196" font-family="Helvetica,sans-Serif" font-size="10.00" fill="#000000"> MixedValueType &gt;</text>
</g>
<!-- Node1 -->
<g id="node2" class="node">
<title>Node1</title>
<g id="a_node2"><a xlink:href="classschwz_1_1Initialize.html" target="_top" xlink:title="The initialization class that provides methods for initialization of the solver. ">
<polygon fill="#ffffff" stroke="#000000" points="1240,-295.5 1240,-325.5 1367,-325.5 1367,-295.5 1240,-295.5"/>
<text text-anchor="start" x="1248" y="-313.5" font-family="Helvetica,sans-Serif" font-size="10.00" fill="#000000">schwz::Initialize&lt;</text>
<text text-anchor="middle" x="1303.5" y="-302.5" font-family="Helvetica,sans-Serif" font-size="10.00" fill="#000000"> ValueType, IndexType &gt;</text>
</a>
</g>
</g>
<!-- Node1&#45;&gt;Node0 -->
<g id="edge1" class="edge">
<title>Node1&#45;&gt;Node0</title>
<path fill="none" stroke="#191970" d="M1339.0298,-290.226C1369.6049,-272.7791 1413.5257,-247.717 1444.2952,-230.1592"/>
<polygon fill="#191970" stroke="#191970" points="1336.9495,-287.3832 1329.9987,-295.3793 1340.4188,-293.463 1336.9495,-287.3832"/>
</g>
<!-- Node2 -->
<g id="node3" class="node">
<title>Node2</title>
<g id="a_node3"><a xlink:href="structschwz_1_1Settings.html" target="_top" xlink:title="The struct that contains the solver settings and the parameters to be set by the user. ">
<polygon fill="#ffffff" stroke="#000000" points="945.5,-400 945.5,-419 1032.5,-419 1032.5,-400 945.5,-400"/>
<text text-anchor="middle" x="989" y="-407" font-family="Helvetica,sans-Serif" font-size="10.00" fill="#000000">schwz::Settings</text>
</a>
</g>
</g>
<!-- Node2&#45;&gt;Node1 -->
<g id="edge2" class="edge">
<title>Node2&#45;&gt;Node1</title>
<path fill="none" stroke="#191970" d="M1037.0247,-397.4497C1091.6633,-383.5936 1177.4047,-361.3651 1209,-350.5 1230.0589,-343.2582 1253.0831,-333.5517 1271.1324,-325.5141"/>
<polygon fill="#191970" stroke="#191970" points="1036.0402,-394.0884 1027.2045,-399.9349 1037.7576,-400.8745 1036.0402,-394.0884"/>
</g>
<!-- Node20 -->
<g id="node21" class="node">
<title>Node20</title>
<g id="a_node21"><a xlink:href="classschwz_1_1Solve.html" target="_top" xlink:title="The Solver class the provides the solver and the convergence checking methods. ">
<polygon fill="#ffffff" stroke="#000000" points="1227,-366.5 1227,-396.5 1380,-396.5 1380,-366.5 1227,-366.5"/>
<text text-anchor="start" x="1235" y="-384.5" font-family="Helvetica,sans-Serif" font-size="10.00" fill="#000000">schwz::Solve&lt; ValueType,</text>
<text text-anchor="middle" x="1303.5" y="-373.5" font-family="Helvetica,sans-Serif" font-size="10.00" fill="#000000"> IndexType, MixedValueType &gt;</text>
</a>
</g>
</g>
<!-- Node2&#45;&gt;Node20 -->
<g id="edge28" class="edge">
<title>Node2&#45;&gt;Node20</title>
<path fill="none" stroke="#191970" d="M1042.8186,-404.7085C1093.4759,-400.1985 1169.8688,-393.3972 1226.8789,-388.3216"/>
<polygon fill="#191970" stroke="#191970" points="1042.3801,-401.2336 1032.7299,-405.6067 1043.0009,-408.206 1042.3801,-401.2336"/>
</g>
<!-- Node3 -->
<g id="node4" class="node">
<title>Node3</title>
<g id="a_node4"><a xlink:href="structschwz_1_1Settings_1_1comm__settings.html" target="_top" xlink:title="The settings for the various available communication paradigms. ">
<polygon fill="#ffffff" stroke="#000000" points="625.5,-472.5 625.5,-502.5 745.5,-502.5 745.5,-472.5 625.5,-472.5"/>
<text text-anchor="start" x="633.5" y="-490.5" font-family="Helvetica,sans-Serif" font-size="10.00" fill="#000000">schwz::Settings::comm</text>
<text text-anchor="middle" x="685.5" y="-479.5" font-family="Helvetica,sans-Serif" font-size="10.00" fill="#000000">_settings</text>
</a>
</g>
</g>
<!-- Node3&#45;&gt;Node2 -->
<g id="edge3" class="edge">
<title>Node3&#45;&gt;Node2</title>
<path fill="none" stroke="#9a32cd" stroke-dasharray="5,2" d="M756.0055,-487.7529C797.6762,-486.0455 850.9351,-480.5876 896,-465.5 927.6334,-454.9092 959.9817,-432.1931 976.9342,-419.1816"/>
<polygon fill="#9a32cd" stroke="#9a32cd" points="755.8179,-484.2572 745.9454,-488.1021 756.0608,-491.253 755.8179,-484.2572"/>
<text text-anchor="middle" x="840.5" y="-488.5" font-family="Helvetica,sans-Serif" font-size="10.00" fill="#000000"> comm_settings</text>
</g>
<!-- Node4 -->
<g id="node5" class="node">
<title>Node4</title>
<g id="a_node5"><a xlink:title="STL class. ">
<polygon fill="#ffffff" stroke="#bfbfbf" points="655.5,-400 655.5,-419 715.5,-419 715.5,-400 655.5,-400"/>
<text text-anchor="middle" x="685.5" y="-407" font-family="Helvetica,sans-Serif" font-size="10.00" fill="#000000">std::string</text>
</a>
</g>
</g>
<!-- Node4&#45;&gt;Node2 -->
<g id="edge4" class="edge">
<title>Node4&#45;&gt;Node2</title>
<path fill="none" stroke="#9a32cd" stroke-dasharray="5,2" d="M725.7861,-409.5C782.7763,-409.5 886.5281,-409.5 945.3139,-409.5"/>
<polygon fill="#9a32cd" stroke="#9a32cd" points="725.7104,-406.0001 715.7103,-409.5 725.7103,-413.0001 725.7104,-406.0001"/>
<text text-anchor="middle" x="840.5" y="-456.5" font-family="Helvetica,sans-Serif" font-size="10.00" fill="#000000"> factorization</text>
<text text-anchor="middle" x="840.5" y="-445.5" font-family="Helvetica,sans-Serif" font-size="10.00" fill="#000000">metis_objtype</text>
<text text-anchor="middle" x="840.5" y="-434.5" font-family="Helvetica,sans-Serif" font-size="10.00" fill="#000000">matrix_filename</text>
<text text-anchor="middle" x="840.5" y="-423.5" font-family="Helvetica,sans-Serif" font-size="10.00" fill="#000000">reorder</text>
<text text-anchor="middle" x="840.5" y="-412.5" font-family="Helvetica,sans-Serif" font-size="10.00" fill="#000000">executor_string</text>
</g>
<!-- Node8 -->
<g id="node9" class="node">
<title>Node8</title>
<g id="a_node9"><a xlink:href="structschwz_1_1Metadata.html" target="_top" xlink:title="The solver metadata struct. ">
<polygon fill="#ffffff" stroke="#000000" points="914,-269.5 914,-299.5 1064,-299.5 1064,-269.5 914,-269.5"/>
<text text-anchor="start" x="922" y="-287.5" font-family="Helvetica,sans-Serif" font-size="10.00" fill="#000000">schwz::Metadata&lt; ValueType,</text>
<text text-anchor="middle" x="989" y="-276.5" font-family="Helvetica,sans-Serif" font-size="10.00" fill="#000000"> IndexType &gt;</text>
</a>
</g>
</g>
<!-- Node4&#45;&gt;Node8 -->
<g id="edge11" class="edge">
<title>Node4&#45;&gt;Node8</title>
<path fill="none" stroke="#9a32cd" stroke-dasharray="5,2" d="M725.7776,-402.9762C779.3706,-393.6037 870.3584,-375.0626 896,-353.5 910.611,-341.2133 900.1553,-327.6442 914,-314.5 920.4073,-308.4169 928.2032,-303.511 936.3162,-299.5712"/>
<polygon fill="#9a32cd" stroke="#9a32cd" points="724.8511,-399.584 715.5881,-404.7267 726.0363,-406.483 724.8511,-399.584"/>
<text text-anchor="middle" x="840.5" y="-394.5" font-family="Helvetica,sans-Serif" font-size="10.00" fill="#000000"> local_precond</text>
</g>
<!-- Node5 -->
<g id="node6" class="node">
<title>Node5</title>
<polygon fill="#ffffff" stroke="#bfbfbf" points="280.5,-400.5 280.5,-430.5 375.5,-430.5 375.5,-400.5 280.5,-400.5"/>
<text text-anchor="start" x="288.5" y="-418.5" font-family="Helvetica,sans-Serif" font-size="10.00" fill="#000000">std::basic_string&lt;</text>
<text text-anchor="middle" x="328" y="-407.5" font-family="Helvetica,sans-Serif" font-size="10.00" fill="#000000"> char &gt;</text>
</g>
<!-- Node5&#45;&gt;Node4 -->
<g id="edge5" class="edge">
<title>Node5&#45;&gt;Node4</title>
<path fill="none" stroke="#191970" d="M385.8449,-414.5292C462.7087,-413.2392 595.715,-411.0069 655.2107,-410.0084"/>
<polygon fill="#191970" stroke="#191970" points="385.7829,-411.0296 375.8431,-414.697 385.9004,-418.0286 385.7829,-411.0296"/>
</g>
<!-- Node6 -->
<g id="node7" class="node">
<title>Node6</title>
<g id="a_node7"><a xlink:title="STL class. ">
<polygon fill="#ffffff" stroke="#bfbfbf" points="0,-400.5 0,-430.5 95,-430.5 95,-400.5 0,-400.5"/>
<text text-anchor="start" x="8" y="-418.5" font-family="Helvetica,sans-Serif" font-size="10.00" fill="#000000">std::basic_string&lt;</text>
<text text-anchor="middle" x="47.5" y="-407.5" font-family="Helvetica,sans-Serif" font-size="10.00" fill="#000000"> Char &gt;</text>
</a>
</g>
</g>
<!-- Node6&#45;&gt;Node5 -->
<g id="edge6" class="edge">
<title>Node6&#45;&gt;Node5</title>
<path fill="none" stroke="#ffa500" stroke-dasharray="5,2" d="M105.0943,-415.5C156.7767,-415.5 231.7415,-415.5 280.1836,-415.5"/>
<polygon fill="#ffa500" stroke="#ffa500" points="105.083,-412.0001 95.083,-415.5 105.083,-419.0001 105.083,-412.0001"/>
<text text-anchor="middle" x="179.5" y="-418.5" font-family="Helvetica,sans-Serif" font-size="10.00" fill="#000000"> &lt; char &gt;</text>
</g>
<!-- Node7 -->
<g id="node8" class="node">
<title>Node7</title>
<g id="a_node8"><a xlink:href="structschwz_1_1Settings_1_1convergence__settings.html" target="_top" xlink:title="The various convergence settings available. ">
<polygon fill="#ffffff" stroke="#000000" points="611,-521.5 611,-551.5 760,-551.5 760,-521.5 611,-521.5"/>
<text text-anchor="start" x="619" y="-539.5" font-family="Helvetica,sans-Serif" font-size="10.00" fill="#000000">schwz::Settings::convergence</text>
<text text-anchor="middle" x="685.5" y="-528.5" font-family="Helvetica,sans-Serif" font-size="10.00" fill="#000000">_settings</text>
</a>
</g>
</g>
<!-- Node7&#45;&gt;Node2 -->
<g id="edge7" class="edge">
<title>Node7&#45;&gt;Node2</title>
<path fill="none" stroke="#9a32cd" stroke-dasharray="5,2" d="M770.0321,-533.6361C810.0113,-529.4479 857.3377,-520.2343 896,-500.5 935.234,-480.4738 968.6575,-438.1567 982.3582,-419.1269"/>
<polygon fill="#9a32cd" stroke="#9a32cd" points="769.6556,-530.1561 760.0359,-534.596 770.3247,-537.124 769.6556,-530.1561"/>
<text text-anchor="middle" x="840.5" y="-534.5" font-family="Helvetica,sans-Serif" font-size="10.00" fill="#000000"> convergence_settings</text>
</g>
<!-- Node8&#45;&gt;Node1 -->
<g id="edge8" class="edge">
<title>Node8&#45;&gt;Node1</title>
<path fill="none" stroke="#191970" d="M1074.5793,-291.5749C1126.7627,-295.889 1192.3418,-301.3105 1239.9198,-305.2438"/>
<polygon fill="#191970" stroke="#191970" points="1074.585,-288.0635 1064.3306,-290.7276 1074.0082,-295.0397 1074.585,-288.0635"/>
</g>
<!-- Node9 -->
<g id="node10" class="node">
<title>Node9</title>
<polygon fill="#ffffff" stroke="#bfbfbf" points="410,-314 410,-355 586,-355 586,-314 410,-314"/>
<text text-anchor="start" x="418" y="-343" font-family="Helvetica,sans-Serif" font-size="10.00" fill="#000000">std::vector&lt; std::tuple</text>
<text text-anchor="start" x="418" y="-332" font-family="Helvetica,sans-Serif" font-size="10.00" fill="#000000">&lt; int, int, int, std::</text>
<text text-anchor="middle" x="498" y="-321" font-family="Helvetica,sans-Serif" font-size="10.00" fill="#000000">string, std::vector&lt; ValueType &gt; &gt; &gt;</text>
</g>
<!-- Node9&#45;&gt;Node8 -->
<g id="edge9" class="edge">
<title>Node9&#45;&gt;Node8</title>
<path fill="none" stroke="#9a32cd" stroke-dasharray="5,2" d="M596.107,-324.5095C689.675,-314.9812 828.5989,-300.8341 913.7308,-292.1649"/>
<polygon fill="#9a32cd" stroke="#9a32cd" points="595.6583,-321.037 586.0643,-325.5321 596.3675,-328.001 595.6583,-321.037"/>
<text text-anchor="middle" x="685.5" y="-327.5" font-family="Helvetica,sans-Serif" font-size="10.00" fill="#000000"> time_struct</text>
</g>
<!-- Node10 -->
<g id="node11" class="node">
<title>Node10</title>
<g id="a_node11"><a xlink:title="STL class. ">
<polygon fill="#ffffff" stroke="#bfbfbf" points="4,-134 4,-153 91,-153 91,-134 4,-134"/>
<text text-anchor="middle" x="47.5" y="-141" font-family="Helvetica,sans-Serif" font-size="10.00" fill="#000000">std::vector&lt; T &gt;</text>
</a>
</g>
</g>
<!-- Node10&#45;&gt;Node9 -->
<g id="edge10" class="edge">
<title>Node10&#45;&gt;Node9</title>
<path fill="none" stroke="#ffa500" stroke-dasharray="5,2" d="M55.3125,-162.4083C65.3715,-184.3574 84.9591,-220.0272 113,-239.5 201.7792,-301.1522 326.469,-322.915 409.6317,-330.5269"/>
<polygon fill="#ffa500" stroke="#ffa500" points="58.4689,-160.8904 51.2547,-153.1311 52.0555,-163.6957 58.4689,-160.8904"/>
<text text-anchor="start" x="113" y="-325.5" font-family="Helvetica,sans-Serif" font-size="10.00" fill="#000000"> &lt; std::tuple&lt; int,</text>
<text text-anchor="start" x="113" y="-314.5" font-family="Helvetica,sans-Serif" font-size="10.00" fill="#000000"> int, int, std::string,</text>
<text text-anchor="middle" x="179.5" y="-303.5" font-family="Helvetica,sans-Serif" font-size="10.00" fill="#000000"> std::vector&lt; ValueType &gt; &gt; &gt;</text>
</g>
<!-- Node12 -->
<g id="node13" class="node">
<title>Node12</title>
<polygon fill="#ffffff" stroke="#bfbfbf" points="264,-212 264,-231 392,-231 392,-212 264,-212"/>
<text text-anchor="middle" x="328" y="-219" font-family="Helvetica,sans-Serif" font-size="10.00" fill="#000000">std::vector&lt; ValueType &gt;</text>
</g>
<!-- Node10&#45;&gt;Node12 -->
<g id="edge14" class="edge">
<title>Node10&#45;&gt;Node12</title>
<path fill="none" stroke="#ffa500" stroke-dasharray="5,2" d="M61.9157,-160.4939C74.0845,-173.5667 92.7277,-190.8172 113,-199.5 160.7698,-219.9602 219.7812,-224.7211 263.8884,-224.7813"/>
<polygon fill="#ffa500" stroke="#ffa500" points="64.4948,-158.1275 55.2189,-153.0081 59.2778,-162.7947 64.4948,-158.1275"/>
<text text-anchor="middle" x="179.5" y="-227.5" font-family="Helvetica,sans-Serif" font-size="10.00" fill="#000000"> &lt; ValueType &gt;</text>
</g>
<!-- Node13 -->
<g id="node14" class="node">
<title>Node13</title>
<polygon fill="#ffffff" stroke="#bfbfbf" points="268.5,-84.5 268.5,-114.5 387.5,-114.5 387.5,-84.5 268.5,-84.5"/>
<text text-anchor="start" x="276.5" y="-102.5" font-family="Helvetica,sans-Serif" font-size="10.00" fill="#000000">std::vector&lt; std::vector</text>
<text text-anchor="middle" x="328" y="-91.5" font-family="Helvetica,sans-Serif" font-size="10.00" fill="#000000">&lt; ValueType &gt; &gt;</text>
</g>
<!-- Node10&#45;&gt;Node13 -->
<g id="edge16" class="edge">
<title>Node10&#45;&gt;Node13</title>
<path fill="none" stroke="#ffa500" stroke-dasharray="5,2" d="M71.0685,-128.6212C83.1315,-121.8013 98.3342,-114.3843 113,-110.5 164.1233,-96.9599 224.4171,-95.0273 268.1249,-96.0072"/>
<polygon fill="#ffa500" stroke="#ffa500" points="68.9763,-125.7916 62.1376,-133.8838 72.53,-131.8225 68.9763,-125.7916"/>
<text text-anchor="middle" x="179.5" y="-113.5" font-family="Helvetica,sans-Serif" font-size="10.00" fill="#000000"> &lt; std::vector&lt; ValueType &gt; &gt;</text>
</g>
<!-- Node14 -->
<g id="node15" class="node">
<title>Node14</title>
<polygon fill="#ffffff" stroke="#bfbfbf" points="437,-97 437,-160 559,-160 559,-97 437,-97"/>
<text text-anchor="start" x="445" y="-148" font-family="Helvetica,sans-Serif" font-size="10.00" fill="#000000">std::vector&lt; std::tuple</text>
<text text-anchor="start" x="445" y="-137" font-family="Helvetica,sans-Serif" font-size="10.00" fill="#000000">&lt; int, std::vector&lt; std</text>
<text text-anchor="start" x="445" y="-126" font-family="Helvetica,sans-Serif" font-size="10.00" fill="#000000">::tuple&lt; int, int &gt; &gt;, std</text>
<text text-anchor="start" x="445" y="-115" font-family="Helvetica,sans-Serif" font-size="10.00" fill="#000000">::vector&lt; std::tuple&lt; int,</text>
<text text-anchor="middle" x="498" y="-104" font-family="Helvetica,sans-Serif" font-size="10.00" fill="#000000"> int &gt; &gt;, int, int &gt; &gt;</text>
</g>
<!-- Node10&#45;&gt;Node14 -->
<g id="edge18" class="edge">
<title>Node10&#45;&gt;Node14</title>
<path fill="none" stroke="#ffa500" stroke-dasharray="5,2" d="M101.4925,-140.9646C105.3865,-140.8009 109.2533,-140.6442 113,-140.5 227.4349,-136.0962 361.0512,-132.2143 436.9781,-130.1268"/>
<polygon fill="#ffa500" stroke="#ffa500" points="101.0244,-137.4815 91.1849,-141.4102 101.3268,-144.475 101.0244,-137.4815"/>
<text text-anchor="start" x="126" y="-187.5" font-family="Helvetica,sans-Serif" font-size="10.00" fill="#000000"> &lt; std::tuple&lt; int,</text>
<text text-anchor="start" x="126" y="-176.5" font-family="Helvetica,sans-Serif" font-size="10.00" fill="#000000"> std::vector&lt; std::tuple</text>
<text text-anchor="start" x="126" y="-165.5" font-family="Helvetica,sans-Serif" font-size="10.00" fill="#000000">&lt; int, int &gt; &gt;, std::vector</text>
<text text-anchor="start" x="126" y="-154.5" font-family="Helvetica,sans-Serif" font-size="10.00" fill="#000000">&lt; std::tuple&lt; int, int &gt; &gt;</text>
<text text-anchor="middle" x="179.5" y="-143.5" font-family="Helvetica,sans-Serif" font-size="10.00" fill="#000000">, int, int &gt; &gt;</text>
</g>
<!-- Node15 -->
<g id="node16" class="node">
<title>Node15</title>
<polygon fill="#ffffff" stroke="#bfbfbf" points="785,-321.5 785,-351.5 896,-351.5 896,-321.5 785,-321.5"/>
<text text-anchor="start" x="793" y="-339.5" font-family="Helvetica,sans-Serif" font-size="10.00" fill="#000000">std::vector&lt; unsigned</text>
<text text-anchor="middle" x="840.5" y="-328.5" font-family="Helvetica,sans-Serif" font-size="10.00" fill="#000000"> int &gt;</text>
</g>
<!-- Node10&#45;&gt;Node15 -->
<g id="edge20" class="edge">
<title>Node10&#45;&gt;Node15</title>
<path fill="none" stroke="#ffa500" stroke-dasharray="5,2" d="M51.2262,-162.9092C60.2282,-207.6076 84.5317,-315.6539 113,-337.5 196.4551,-401.5423 480.885,-360.6239 586,-356.5 654.6436,-353.807 733.4618,-347.0432 784.9697,-342.1253"/>
<polygon fill="#ffa500" stroke="#ffa500" points="54.6412,-162.1358 49.274,-153.0011 47.7732,-163.4891 54.6412,-162.1358"/>
<text text-anchor="middle" x="328" y="-376.5" font-family="Helvetica,sans-Serif" font-size="10.00" fill="#000000"> &lt; unsigned int &gt;</text>
</g>
<!-- Node18 -->
<g id="node19" class="node">
<title>Node18</title>
<polygon fill="#ffffff" stroke="#bfbfbf" points="264.5,-5 264.5,-24 391.5,-24 391.5,-5 264.5,-5"/>
<text text-anchor="middle" x="328" y="-12" font-family="Helvetica,sans-Serif" font-size="10.00" fill="#000000">std::vector&lt; IndexType &gt;</text>
</g>
<!-- Node10&#45;&gt;Node18 -->
<g id="edge24" class="edge">
<title>Node10&#45;&gt;Node18</title>
<path fill="none" stroke="#ffa500" stroke-dasharray="5,2" d="M53.7878,-124.144C62.7593,-99.9186 81.7051,-59.2187 113,-39.5 157.9871,-11.154 218.9281,-6.5057 264.4423,-8.0182"/>
<polygon fill="#ffa500" stroke="#ffa500" points="50.445,-123.1002 50.4524,-133.695 57.0537,-125.408 50.445,-123.1002"/>
<text text-anchor="middle" x="179.5" y="-42.5" font-family="Helvetica,sans-Serif" font-size="10.00" fill="#000000"> &lt; IndexType &gt;</text>
</g>
<!-- Node19 -->
<g id="node20" class="node">
<title>Node19</title>
<polygon fill="#ffffff" stroke="#bfbfbf" points="278.5,-46 278.5,-65 377.5,-65 377.5,-46 278.5,-46"/>
<text text-anchor="middle" x="328" y="-53" font-family="Helvetica,sans-Serif" font-size="10.00" fill="#000000">std::vector&lt; bool &gt;</text>
</g>
<!-- Node10&#45;&gt;Node19 -->
<g id="edge26" class="edge">
<title>Node10&#45;&gt;Node19</title>
<path fill="none" stroke="#ffa500" stroke-dasharray="5,2" d="M60.7843,-125.7577C72.7273,-111.2434 91.6397,-91.5338 113,-81.5 165.5775,-56.8021 233.002,-52.4453 278.2024,-52.8731"/>
<polygon fill="#ffa500" stroke="#ffa500" points="57.7352,-123.9718 54.2892,-133.9906 63.2309,-128.3075 57.7352,-123.9718"/>
<text text-anchor="middle" x="179.5" y="-84.5" font-family="Helvetica,sans-Serif" font-size="10.00" fill="#000000"> &lt; bool &gt;</text>
</g>
<!-- Node11 -->
<g id="node12" class="node">
<title>Node11</title>
<g id="a_node12"><a xlink:href="structschwz_1_1Metadata_1_1post__process__data.html" target="_top" xlink:title="The struct used for storing data for post&#45;processing. ">
<polygon fill="#ffffff" stroke="#000000" points="604,-238.5 604,-268.5 767,-268.5 767,-238.5 604,-238.5"/>
<text text-anchor="start" x="612" y="-256.5" font-family="Helvetica,sans-Serif" font-size="10.00" fill="#000000">schwz::Metadata&lt; ValueType,</text>
<text text-anchor="middle" x="685.5" y="-245.5" font-family="Helvetica,sans-Serif" font-size="10.00" fill="#000000"> IndexType &gt;::post_process_data</text>
</a>
</g>
</g>
<!-- Node11&#45;&gt;Node8 -->
<g id="edge12" class="edge">
<title>Node11&#45;&gt;Node8</title>
<path fill="none" stroke="#9a32cd" stroke-dasharray="5,2" d="M777.2891,-262.8755C820.9801,-267.3382 872.5733,-272.608 913.8892,-276.8281"/>
<polygon fill="#9a32cd" stroke="#9a32cd" points="777.5356,-259.3825 767.2317,-261.8482 776.8242,-266.3463 777.5356,-259.3825"/>
<text text-anchor="middle" x="840.5" y="-277.5" font-family="Helvetica,sans-Serif" font-size="10.00" fill="#000000"> post_process_data</text>
</g>
<!-- Node12&#45;&gt;Node0 -->
<g id="edge29" class="edge">
<title>Node12&#45;&gt;Node0</title>
<path fill="none" stroke="#9a32cd" stroke-dasharray="5,2" d="M402.604,-217.5378C474.9088,-214.0424 587.6886,-209.5 685.5,-209.5 685.5,-209.5 685.5,-209.5 1303.5,-209.5 1340.9896,-209.5 1382.9457,-209.5 1416.5969,-209.5"/>
<polygon fill="#9a32cd" stroke="#9a32cd" points="402.0533,-214.0604 392.2364,-218.0452 402.3956,-221.0521 402.0533,-214.0604"/>
<text text-anchor="middle" x="989" y="-212.5" font-family="Helvetica,sans-Serif" font-size="10.00" fill="#000000"> local_residual_vector_out</text>
</g>
<!-- Node12&#45;&gt;Node11 -->
<g id="edge13" class="edge">
<title>Node12&#45;&gt;Node11</title>
<path fill="none" stroke="#9a32cd" stroke-dasharray="5,2" d="M402.0807,-224.7315C453.7278,-227.3878 524.1823,-231.8156 586,-238.5 591.8184,-239.1291 597.8178,-239.8505 603.8513,-240.6291"/>
<polygon fill="#9a32cd" stroke="#9a32cd" points="402.1738,-221.2319 392.0102,-224.2237 401.8212,-228.223 402.1738,-221.2319"/>
<text text-anchor="middle" x="498" y="-296.5" font-family="Helvetica,sans-Serif" font-size="10.00" fill="#000000"> local_timestamp</text>
<text text-anchor="middle" x="498" y="-285.5" font-family="Helvetica,sans-Serif" font-size="10.00" fill="#000000">local_converged_resnorm</text>
<text text-anchor="start" x="442" y="-274.5" font-family="Helvetica,sans-Serif" font-size="10.00" fill="#000000">local_residual_vector</text>
<text text-anchor="middle" x="498" y="-263.5" font-family="Helvetica,sans-Serif" font-size="10.00" fill="#000000">_out</text>
<text text-anchor="start" x="442" y="-252.5" font-family="Helvetica,sans-Serif" font-size="10.00" fill="#000000">local_converged_iter</text>
<text text-anchor="middle" x="498" y="-241.5" font-family="Helvetica,sans-Serif" font-size="10.00" fill="#000000">_count</text>
</g>
<!-- Node13&#45;&gt;Node0 -->
<g id="edge30" class="edge">
<title>Node13&#45;&gt;Node0</title>
<path fill="none" stroke="#9a32cd" stroke-dasharray="5,2" d="M398.0356,-93.8876C470.0725,-88.6053 585.5467,-81.5 685.5,-81.5 685.5,-81.5 685.5,-81.5 1303.5,-81.5 1375.9318,-81.5 1438.8099,-152.752 1466.0706,-188.9346"/>
<polygon fill="#9a32cd" stroke="#9a32cd" points="397.4429,-90.4219 387.7294,-94.6527 397.9611,-97.4027 397.4429,-90.4219"/>
<text text-anchor="middle" x="989" y="-84.5" font-family="Helvetica,sans-Serif" font-size="10.00" fill="#000000"> global_residual_vector_out</text>
</g>
<!-- Node13&#45;&gt;Node11 -->
<g id="edge15" class="edge">
<title>Node13&#45;&gt;Node11</title>
<path fill="none" stroke="#9a32cd" stroke-dasharray="5,2" d="M351.6212,-121.1867C367.2002,-134.4792 388.6135,-150.9184 410,-161.5 482.7763,-197.5082 509.4435,-183.4427 586,-210.5 609.0657,-218.6521 634.3637,-229.6133 653.6788,-238.4284"/>
<polygon fill="#9a32cd" stroke="#9a32cd" points="353.8734,-118.5069 344.0371,-114.5701 349.2715,-123.7816 353.8734,-118.5069"/>
<text text-anchor="middle" x="498" y="-213.5" font-family="Helvetica,sans-Serif" font-size="10.00" fill="#000000"> global_residual_vector_out</text>
</g>
<!-- Node14&#45;&gt;Node8 -->
<g id="edge17" class="edge">
<title>Node14&#45;&gt;Node8</title>
<path fill="none" stroke="#9a32cd" stroke-dasharray="5,2" d="M568.7668,-150.984C670.4396,-183.2873 855.1186,-241.9634 941.7503,-269.4879"/>
<polygon fill="#9a32cd" stroke="#9a32cd" points="569.7831,-147.6345 559.1927,-147.9421 567.6634,-154.3059 569.7831,-147.6345"/>
<text text-anchor="middle" x="685.5" y="-216.5" font-family="Helvetica,sans-Serif" font-size="10.00" fill="#000000"> comm_data_struct</text>
</g>
<!-- Node15&#45;&gt;Node1 -->
<g id="edge19" class="edge">
<title>Node15&#45;&gt;Node1</title>
<path fill="none" stroke="#9a32cd" stroke-dasharray="5,2" d="M906.5646,-332.7901C995.3328,-327.8053 1152.0558,-319.0044 1239.6677,-314.0845"/>
<polygon fill="#9a32cd" stroke="#9a32cd" points="906.1366,-329.3085 896.3486,-333.3638 906.5292,-336.2975 906.1366,-329.3085"/>
<text text-anchor="middle" x="989" y="-346.5" font-family="Helvetica,sans-Serif" font-size="10.00" fill="#000000"> cell_weights</text>
<text text-anchor="middle" x="989" y="-335.5" font-family="Helvetica,sans-Serif" font-size="10.00" fill="#000000">partition_indices</text>
</g>
<!-- Node16 -->
<g id="node17" class="node">
<title>Node16</title>
<g id="a_node17"><a xlink:href="classschwz_1_1Communicate.html" target="_top" xlink:title="The communication class that provides the methods for the communication between the subdomains...">
<polygon fill="#ffffff" stroke="#000000" points="1082,-17 1082,-58 1209,-58 1209,-17 1082,-17"/>
<text text-anchor="start" x="1090" y="-46" font-family="Helvetica,sans-Serif" font-size="10.00" fill="#000000">schwz::Communicate</text>
<text text-anchor="start" x="1090" y="-35" font-family="Helvetica,sans-Serif" font-size="10.00" fill="#000000">&lt; ValueType, IndexType,</text>
<text text-anchor="middle" x="1145.5" y="-24" font-family="Helvetica,sans-Serif" font-size="10.00" fill="#000000"> MixedValueType &gt;</text>
</a>
</g>
</g>
<!-- Node16&#45;&gt;Node0 -->
<g id="edge21" class="edge">
<title>Node16&#45;&gt;Node0</title>
<path fill="none" stroke="#191970" d="M1219.3937,-29.4487C1273.4264,-27.3172 1346.1966,-32.6192 1399,-67.5 1442.6396,-96.3274 1465.6503,-157.0728 1475.1419,-188.9618"/>
<polygon fill="#191970" stroke="#191970" points="1219.0076,-25.9633 1209.1905,-29.9476 1219.3495,-32.955 1219.0076,-25.9633"/>
</g>
<!-- Node17 -->
<g id="node18" class="node">
<title>Node17</title>
<g id="a_node18"><a xlink:href="structschwz_1_1Communicate_1_1comm__struct.html" target="_top" xlink:title="The communication struct used to store the communication data. ">
<polygon fill="#ffffff" stroke="#000000" points="618.5,-.5 618.5,-52.5 752.5,-52.5 752.5,-.5 618.5,-.5"/>
<text text-anchor="start" x="626.5" y="-40.5" font-family="Helvetica,sans-Serif" font-size="10.00" fill="#000000">schwz::Communicate</text>
<text text-anchor="start" x="626.5" y="-29.5" font-family="Helvetica,sans-Serif" font-size="10.00" fill="#000000">&lt; ValueType, IndexType,</text>
<text text-anchor="start" x="626.5" y="-18.5" font-family="Helvetica,sans-Serif" font-size="10.00" fill="#000000"> MixedValueType &gt;::comm</text>
<text text-anchor="middle" x="685.5" y="-7.5" font-family="Helvetica,sans-Serif" font-size="10.00" fill="#000000">_struct</text>
</a>
</g>
</g>
<!-- Node17&#45;&gt;Node16 -->
<g id="edge22" class="edge">
<title>Node17&#45;&gt;Node16</title>
<path fill="none" stroke="#9a32cd" stroke-dasharray="5,2" d="M762.9793,-28.3528C852.5486,-30.4946 998.3041,-33.9801 1081.6466,-35.9731"/>
<polygon fill="#9a32cd" stroke="#9a32cd" points="762.9614,-24.8514 752.8806,-28.1113 762.794,-31.8494 762.9614,-24.8514"/>
<text text-anchor="middle" x="840.5" y="-35.5" font-family="Helvetica,sans-Serif" font-size="10.00" fill="#000000"> comm_struct</text>
</g>
<!-- Node18&#45;&gt;Node17 -->
<g id="edge23" class="edge">
<title>Node18&#45;&gt;Node17</title>
<path fill="none" stroke="#9a32cd" stroke-dasharray="5,2" d="M401.74,-11.6747C404.5285,-11.6083 407.2893,-11.5496 410,-11.5 488.2091,-10.0698 507.9966,-5.6534 586,-11.5 596.5395,-12.29 607.6546,-13.5443 618.4846,-14.9994"/>
<polygon fill="#9a32cd" stroke="#9a32cd" points="401.4654,-8.1807 391.5619,-11.9451 401.6514,-15.1782 401.4654,-8.1807"/>
<text text-anchor="middle" x="498" y="-25.5" font-family="Helvetica,sans-Serif" font-size="10.00" fill="#000000"> recv</text>
<text text-anchor="middle" x="498" y="-14.5" font-family="Helvetica,sans-Serif" font-size="10.00" fill="#000000">send</text>
</g>
<!-- Node19&#45;&gt;Node17 -->
<g id="edge25" class="edge">
<title>Node19&#45;&gt;Node17</title>
<path fill="none" stroke="#9a32cd" stroke-dasharray="5,2" d="M387.9844,-50.6341C451.6265,-45.4716 551.9544,-37.3331 618.2373,-31.9563"/>
<polygon fill="#9a32cd" stroke="#9a32cd" points="387.3931,-47.1705 377.7088,-51.4677 387.9591,-54.1476 387.3931,-47.1705"/>
<text text-anchor="middle" x="498" y="-51.5" font-family="Helvetica,sans-Serif" font-size="10.00" fill="#000000"> is_local_neighbor</text>
</g>
<!-- Node20&#45;&gt;Node0 -->
<g id="edge27" class="edge">
<title>Node20&#45;&gt;Node0</title>
<path fill="none" stroke="#191970" d="M1342.1011,-361.283C1354.8208,-353.7337 1368.6125,-344.5335 1380,-334.5 1416.1444,-302.6532 1449.3338,-256.7643 1467.0556,-230.3559"/>
<polygon fill="#191970" stroke="#191970" points="1339.9991,-358.4545 1333.0784,-366.4766 1343.4912,-364.5212 1339.9991,-358.4545"/>
</g>
</g>
</svg>
        <g id="navigator" transform="translate(0 0)" fill="#404254">
                <rect fill="#f2f5e9" fill-opacity="0.5" stroke="#606060" stroke-width=".5" x="0" y="0" width="60" height="60"/>
                <use id="zoomplus" xlink:href="#zoomPlus" x="17" y="9" onmousedown="handleZoom(evt,'in')"/>
                <use id="zoomminus" xlink:href="#zoomMin" x="42" y="9" onmousedown="handleZoom(evt,'out')"/>
                <use id="reset" xlink:href="#resetDef" x="30" y="36" onmousedown="handleReset()"/>
                <g id="arrowUp" xlink:href="#dirArrow" transform="translate(30 24)" onmousedown="handlePan(0,-1)">
                  <use xlink:href="#rim" fill="#404040">
                        <set attributeName="fill" to="#808080" begin="arrowUp.mouseover" end="arrowUp.mouseout"/>
                  </use>
                  <path fill="none" stroke="white" stroke-width="1.5" d="M0,-3.0v7 M-2.5,-0.5L0,-3.0L2.5,-0.5"/>
                </g>
                <g id="arrowRight" xlink:href="#dirArrow" transform="rotate(90) translate(36 -43)" onmousedown="handlePan(1,0)">
                  <use xlink:href="#rim" fill="#404040">
                        <set attributeName="fill" to="#808080" begin="arrowRight.mouseover" end="arrowRight.mouseout"/>
                  </use>
                  <path fill="none" stroke="white" stroke-width="1.5" d="M0,-3.0v7 M-2.5,-0.5L0,-3.0L2.5,-0.5"/>
                </g>
                <g id="arrowDown" xlink:href="#dirArrow" transform="rotate(180) translate(-30 -48)" onmousedown="handlePan(0,1)">
                  <use xlink:href="#rim" fill="#404040">
                        <set attributeName="fill" to="#808080" begin="arrowDown.mouseover" end="arrowDown.mouseout"/>
                  </use>
                  <path fill="none" stroke="white" stroke-width="1.5" d="M0,-3.0v7 M-2.5,-0.5L0,-3.0L2.5,-0.5"/>
                </g>
                <g id="arrowLeft" xlink:href="#dirArrow" transform="rotate(270) translate(-36 17)" onmousedown="handlePan(-1,0)">
                  <use xlink:href="#rim" fill="#404040">
                        <set attributeName="fill" to="#808080" begin="arrowLeft.mouseover" end="arrowLeft.mouseout"/>
                  </use>
                  <path fill="none" stroke="white" stroke-width="1.5" d="M0,-3.0v7 M-2.5,-0.5L0,-3.0L2.5,-0.5"/>
                </g>
        </g>
        <svg viewBox="0 0 15 15" width="100%" height="30px" preserveAspectRatio="xMaxYMin meet">
         <g id="arrow_out" transform="scale(0.3 0.3)">
          <a xlink:href="classschwz_1_1SchwarzBase__coll__graph_org.svg" target="_base">
           <rect id="button" ry="5" rx="5" y="6" x="6" height="38" width="38"
                fill="#f2f5e9" fill-opacity="0.5" stroke="#606060" stroke-width="1.0"/>
           <path id="arrow"
             d="M 11.500037,31.436501 C 11.940474,20.09759 22.043105,11.32322 32.158766,21.979434 L 37.068811,17.246167 C 37.068811,17.246167 37.088388,32 37.088388,32 L 22.160133,31.978069 C 22.160133,31.978069 26.997745,27.140456 26.997745,27.140456 C 18.528582,18.264221 13.291696,25.230495 11.500037,31.436501 z"
             style="fill:#404040;"/>
          </a>
         </g>
        </svg>
</svg>
