<?xml version="1.0" encoding="UTF-8" standalone="no"?>
<!DOCTYPE svg PUBLIC "-//W3C//DTD SVG 1.1//EN"
 "http://www.w3.org/Graphics/SVG/1.1/DTD/svg11.dtd">
<!-- Generated by graphviz version 2.40.1 (20161225.0304)
 -->
<!-- Title: schwz::SolverRAS&lt; ValueType, IndexType, MixedValueType &gt; Pages: 1 -->
<!--zoomable 533 -->
<svg id="main" version="1.1" xmlns="http://www.w3.org/2000/svg" xmlns:xlink="http://www.w3.org/1999/xlink" xml:space="preserve" onload="init(evt)">
<style type="text/css"><![CDATA[
.edge:hover path { stroke: red; }
.edge:hover polygon { stroke: red; fill: red; }
]]></style>
<script type="text/javascript"><![CDATA[
var edges = document.getElementsByTagName('g');
if (edges && edges.length) {
  for (var i=0;i<edges.length;i++) {
    if (edges[i].id.substr(0,4)=='edge') {
      edges[i].setAttribute('class','edge');
    }
  }
}
]]></script>
        <defs>
                <circle id="rim" cx="0" cy="0" r="7"/>
                <circle id="rim2" cx="0" cy="0" r="3.5"/>
                <g id="zoomPlus">
                        <use xlink:href="#rim" fill="#404040">
                                <set attributeName="fill" to="#808080" begin="zoomplus.mouseover" end="zoomplus.mouseout"/>
                        </use>
                        <path d="M-4,0h8M0,-4v8" fill="none" stroke="white" stroke-width="1.5" pointer-events="none"/>
                </g>
                <g id="zoomMin">
                        <use xlink:href="#rim" fill="#404040">
                                <set attributeName="fill" to="#808080" begin="zoomminus.mouseover" end="zoomminus.mouseout"/>
                        </use>
                        <path d="M-4,0h8" fill="none" stroke="white" stroke-width="1.5" pointer-events="none"/>
                </g>
                <g id="dirArrow">
                        <path fill="none" stroke="white" stroke-width="1.5" d="M0,-3.0v7 M-2.5,-0.5L0,-3.0L2.5,-0.5"/>
                </g>
               <g id="resetDef">
                       <use xlink:href="#rim2" fill="#404040">
                               <set attributeName="fill" to="#808080" begin="reset.mouseover" end="reset.mouseout"/>
                       </use>
               </g>
        </defs>

<script type="text/javascript">
var viewWidth = 1739;
var viewHeight = 533;
var sectionId = 'dynsection-0';
</script>
<script xlink:href="svgpan.js"/>
<svg id="graph" class="graph">
<g id="viewport">
<title>schwz::SolverRAS&lt; ValueType, IndexType, MixedValueType &gt;</title>
<polygon fill="#ffffff" stroke="transparent" points="-4,4 -4,-529 1735,-529 1735,4 -4,4"/>
<!-- Node0 -->
<g id="node1" class="node">
<title>Node0</title>
<polygon fill="#bfbfbf" stroke="#000000" points="1573,-113.5 1573,-143.5 1731,-143.5 1731,-113.5 1573,-113.5"/>
<text text-anchor="start" x="1581" y="-131.5" font-family="Helvetica,sans-Serif" font-size="10.00" fill="#000000">schwz::SolverRAS&lt; ValueType,</text>
<text text-anchor="middle" x="1652" y="-120.5" font-family="Helvetica,sans-Serif" font-size="10.00" fill="#000000"> IndexType, MixedValueType &gt;</text>
</g>
<!-- Node1 -->
<g id="node2" class="node">
<title>Node1</title>
<g id="a_node2"><a xlink:href="classschwz_1_1SchwarzBase.html" target="_top" xlink:title="The Base solver class is meant to be the class implementing the common implementations for all the sc...">
<polygon fill="#ffffff" stroke="#000000" points="1409,-108 1409,-149 1536,-149 1536,-108 1409,-108"/>
<text text-anchor="start" x="1417" y="-137" font-family="Helvetica,sans-Serif" font-size="10.00" fill="#000000">schwz::SchwarzBase</text>
<text text-anchor="start" x="1417" y="-126" font-family="Helvetica,sans-Serif" font-size="10.00" fill="#000000">&lt; ValueType, IndexType,</text>
<text text-anchor="middle" x="1472.5" y="-115" font-family="Helvetica,sans-Serif" font-size="10.00" fill="#000000"> MixedValueType &gt;</text>
</a>
</g>
</g>
<!-- Node1&#45;&gt;Node0 -->
<g id="edge1" class="edge">
<title>Node1&#45;&gt;Node0</title>
<path fill="none" stroke="#191970" d="M1546.2177,-128.5C1554.9902,-128.5 1563.9738,-128.5 1572.8187,-128.5"/>
<polygon fill="#191970" stroke="#191970" points="1546.0376,-125.0001 1536.0376,-128.5 1546.0376,-132.0001 1546.0376,-125.0001"/>
</g>
<!-- Node2 -->
<g id="node3" class="node">
<title>Node2</title>
<g id="a_node3"><a xlink:href="classschwz_1_1Initialize.html" target="_top" xlink:title="The initialization class that provides methods for initialization of the solver. ">
<polygon fill="#ffffff" stroke="#000000" points="1232,-283.5 1232,-313.5 1359,-313.5 1359,-283.5 1232,-283.5"/>
<text text-anchor="start" x="1240" y="-301.5" font-family="Helvetica,sans-Serif" font-size="10.00" fill="#000000">schwz::Initialize&lt;</text>
<text text-anchor="middle" x="1295.5" y="-290.5" font-family="Helvetica,sans-Serif" font-size="10.00" fill="#000000"> ValueType, IndexType &gt;</text>
</a>
</g>
</g>
<!-- Node2&#45;&gt;Node1 -->
<g id="edge2" class="edge">
<title>Node2&#45;&gt;Node1</title>
<path fill="none" stroke="#191970" d="M1318.4886,-276.4206C1352.9769,-243.2962 1417.6282,-181.2017 1451.1387,-149.0165"/>
<polygon fill="#191970" stroke="#191970" points="1315.9954,-273.9623 1311.2076,-283.4136 1320.8443,-279.0109 1315.9954,-273.9623"/>
</g>
<!-- Node3 -->
<g id="node4" class="node">
<title>Node3</title>
<g id="a_node4"><a xlink:href="structschwz_1_1Settings.html" target="_top" xlink:title="The struct that contains the solver settings and the parameters to be set by the user. ">
<polygon fill="#ffffff" stroke="#000000" points="937.5,-373 937.5,-392 1024.5,-392 1024.5,-373 937.5,-373"/>
<text text-anchor="middle" x="981" y="-380" font-family="Helvetica,sans-Serif" font-size="10.00" fill="#000000">schwz::Settings</text>
</a>
</g>
</g>
<!-- Node3&#45;&gt;Node2 -->
<g id="edge3" class="edge">
<title>Node3&#45;&gt;Node2</title>
<path fill="none" stroke="#191970" d="M1034.951,-376.6052C1080.0713,-370.7521 1145.7407,-360.0675 1201,-342.5 1224.4558,-335.0432 1249.6602,-323.0913 1268.1355,-313.5248"/>
<polygon fill="#191970" stroke="#191970" points="1034.2792,-373.1621 1024.7958,-377.886 1035.1552,-380.1071 1034.2792,-373.1621"/>
</g>
<!-- Node21 -->
<g id="node21" class="node">
<title>Node21</title>
<g id="a_node21"><a xlink:href="classschwz_1_1Solve.html" target="_top" xlink:title="The Solver class the provides the solver and the convergence checking methods. ">
<polygon fill="#ffffff" stroke="#000000" points="1219,-358.5 1219,-388.5 1372,-388.5 1372,-358.5 1219,-358.5"/>
<text text-anchor="start" x="1227" y="-376.5" font-family="Helvetica,sans-Serif" font-size="10.00" fill="#000000">schwz::Solve&lt; ValueType,</text>
<text text-anchor="middle" x="1295.5" y="-365.5" font-family="Helvetica,sans-Serif" font-size="10.00" fill="#000000"> IndexType, MixedValueType &gt;</text>
</a>
</g>
</g>
<!-- Node3&#45;&gt;Node21 -->
<g id="edge28" class="edge">
<title>Node3&#45;&gt;Node21</title>
<path fill="none" stroke="#191970" d="M1034.8186,-380.9599C1085.4759,-379.5102 1161.8688,-377.3241 1218.8789,-375.6927"/>
<polygon fill="#191970" stroke="#191970" points="1034.6256,-377.4639 1024.7299,-381.2486 1034.8259,-384.461 1034.6256,-377.4639"/>
</g>
<!-- Node4 -->
<g id="node5" class="node">
<title>Node4</title>
<g id="a_node5"><a xlink:href="structschwz_1_1Settings_1_1comm__settings.html" target="_top" xlink:title="The settings for the various available communication paradigms. ">
<polygon fill="#ffffff" stroke="#000000" points="617.5,-445.5 617.5,-475.5 737.5,-475.5 737.5,-445.5 617.5,-445.5"/>
<text text-anchor="start" x="625.5" y="-463.5" font-family="Helvetica,sans-Serif" font-size="10.00" fill="#000000">schwz::Settings::comm</text>
<text text-anchor="middle" x="677.5" y="-452.5" font-family="Helvetica,sans-Serif" font-size="10.00" fill="#000000">_settings</text>
</a>
</g>
</g>
<!-- Node4&#45;&gt;Node3 -->
<g id="edge4" class="edge">
<title>Node4&#45;&gt;Node3</title>
<path fill="none" stroke="#9a32cd" stroke-dasharray="5,2" d="M748.0055,-460.7529C789.6762,-459.0455 842.9351,-453.5876 888,-438.5 919.6334,-427.9092 951.9817,-405.1931 968.9342,-392.1816"/>
<polygon fill="#9a32cd" stroke="#9a32cd" points="747.8179,-457.2572 737.9454,-461.1021 748.0608,-464.253 747.8179,-457.2572"/>
<text text-anchor="middle" x="832.5" y="-461.5" font-family="Helvetica,sans-Serif" font-size="10.00" fill="#000000"> comm_settings</text>
</g>
<!-- Node5 -->
<g id="node6" class="node">
<title>Node5</title>
<g id="a_node6"><a xlink:title="STL class. ">
<polygon fill="#ffffff" stroke="#bfbfbf" points="647.5,-361 647.5,-380 707.5,-380 707.5,-361 647.5,-361"/>
<text text-anchor="middle" x="677.5" y="-368" font-family="Helvetica,sans-Serif" font-size="10.00" fill="#000000">std::string</text>
</a>
</g>
</g>
<!-- Node5&#45;&gt;Node3 -->
<g id="edge5" class="edge">
<title>Node5&#45;&gt;Node3</title>
<path fill="none" stroke="#9a32cd" stroke-dasharray="5,2" d="M717.7861,-372.0929C774.7763,-374.3462 878.5281,-378.4484 937.3139,-380.7727"/>
<polygon fill="#9a32cd" stroke="#9a32cd" points="717.8408,-368.5924 707.7103,-371.6945 717.5642,-375.5869 717.8408,-368.5924"/>
<text text-anchor="middle" x="832.5" y="-426.5" font-family="Helvetica,sans-Serif" font-size="10.00" fill="#000000"> factorization</text>
<text text-anchor="middle" x="832.5" y="-415.5" font-family="Helvetica,sans-Serif" font-size="10.00" fill="#000000">metis_objtype</text>
<text text-anchor="middle" x="832.5" y="-404.5" font-family="Helvetica,sans-Serif" font-size="10.00" fill="#000000">matrix_filename</text>
<text text-anchor="middle" x="832.5" y="-393.5" font-family="Helvetica,sans-Serif" font-size="10.00" fill="#000000">reorder</text>
<text text-anchor="middle" x="832.5" y="-382.5" font-family="Helvetica,sans-Serif" font-size="10.00" fill="#000000">executor_string</text>
</g>
<!-- Node9 -->
<g id="node9" class="node">
<title>Node9</title>
<g id="a_node9"><a xlink:href="structschwz_1_1Metadata.html" target="_top" xlink:title="The solver metadata struct. ">
<polygon fill="#ffffff" stroke="#000000" points="906,-263.5 906,-293.5 1056,-293.5 1056,-263.5 906,-263.5"/>
<text text-anchor="start" x="914" y="-281.5" font-family="Helvetica,sans-Serif" font-size="10.00" fill="#000000">schwz::Metadata&lt; ValueType,</text>
<text text-anchor="middle" x="981" y="-270.5" font-family="Helvetica,sans-Serif" font-size="10.00" fill="#000000"> IndexType &gt;</text>
</a>
</g>
</g>
<!-- Node5&#45;&gt;Node9 -->
<g id="edge11" class="edge">
<title>Node5&#45;&gt;Node9</title>
<path fill="none" stroke="#9a32cd" stroke-dasharray="5,2" d="M697.938,-354.9067C717.2525,-340.9925 747.5766,-321.2108 777,-310.5 800.2441,-302.0386 857.7082,-293.4008 905.7444,-287.2356"/>
<polygon fill="#9a32cd" stroke="#9a32cd" points="695.8627,-352.0882 689.8812,-360.8331 700.0105,-357.727 695.8627,-352.0882"/>
<text text-anchor="middle" x="832.5" y="-313.5" font-family="Helvetica,sans-Serif" font-size="10.00" fill="#000000"> local_precond</text>
</g>
<!-- Node6 -->
<g id="node7" class="node">
<title>Node6</title>
<polygon fill="#ffffff" stroke="#bfbfbf" points="272.5,-345.5 272.5,-375.5 367.5,-375.5 367.5,-345.5 272.5,-345.5"/>
<text text-anchor="start" x="280.5" y="-363.5" font-family="Helvetica,sans-Serif" font-size="10.00" fill="#000000">std::basic_string&lt;</text>
<text text-anchor="middle" x="320" y="-352.5" font-family="Helvetica,sans-Serif" font-size="10.00" fill="#000000"> char &gt;</text>
</g>
<!-- Node6&#45;&gt;Node5 -->
<g id="edge6" class="edge">
<title>Node6&#45;&gt;Node5</title>
<path fill="none" stroke="#191970" d="M377.8449,-362.118C454.7087,-364.2681 587.715,-367.9885 647.2107,-369.6527"/>
<polygon fill="#191970" stroke="#191970" points="377.9371,-358.6193 367.8431,-361.8383 377.7413,-365.6166 377.9371,-358.6193"/>
</g>
<!-- Node8 -->
<g id="node8" class="node">
<title>Node8</title>
<g id="a_node8"><a xlink:href="structschwz_1_1Settings_1_1convergence__settings.html" target="_top" xlink:title="The various convergence settings available. ">
<polygon fill="#ffffff" stroke="#000000" points="603,-494.5 603,-524.5 752,-524.5 752,-494.5 603,-494.5"/>
<text text-anchor="start" x="611" y="-512.5" font-family="Helvetica,sans-Serif" font-size="10.00" fill="#000000">schwz::Settings::convergence</text>
<text text-anchor="middle" x="677.5" y="-501.5" font-family="Helvetica,sans-Serif" font-size="10.00" fill="#000000">_settings</text>
</a>
</g>
</g>
<!-- Node8&#45;&gt;Node3 -->
<g id="edge7" class="edge">
<title>Node8&#45;&gt;Node3</title>
<path fill="none" stroke="#9a32cd" stroke-dasharray="5,2" d="M762.0321,-506.6361C802.0113,-502.4479 849.3377,-493.2343 888,-473.5 927.234,-453.4738 960.6575,-411.1567 974.3582,-392.1269"/>
<polygon fill="#9a32cd" stroke="#9a32cd" points="761.6556,-503.1561 752.0359,-507.596 762.3247,-510.124 761.6556,-503.1561"/>
<text text-anchor="middle" x="832.5" y="-507.5" font-family="Helvetica,sans-Serif" font-size="10.00" fill="#000000"> convergence_settings</text>
</g>
<!-- Node9&#45;&gt;Node2 -->
<g id="edge8" class="edge">
<title>Node9&#45;&gt;Node2</title>
<path fill="none" stroke="#191970" d="M1066.5793,-283.9422C1118.7627,-287.2607 1184.3418,-291.4311 1231.9198,-294.4567"/>
<polygon fill="#191970" stroke="#191970" points="1066.5326,-280.4323 1056.3306,-283.2905 1066.0883,-287.4182 1066.5326,-280.4323"/>
</g>
<!-- Node10 -->
<g id="node10" class="node">
<title>Node10</title>
<polygon fill="#ffffff" stroke="#bfbfbf" points="402,-314 402,-355 578,-355 578,-314 402,-314"/>
<text text-anchor="start" x="410" y="-343" font-family="Helvetica,sans-Serif" font-size="10.00" fill="#000000">std::vector&lt; std::tuple</text>
<text text-anchor="start" x="410" y="-332" font-family="Helvetica,sans-Serif" font-size="10.00" fill="#000000">&lt; int, int, int, std::</text>
<text text-anchor="middle" x="490" y="-321" font-family="Helvetica,sans-Serif" font-size="10.00" fill="#000000">string, std::vector&lt; ValueType &gt; &gt; &gt;</text>
</g>
<!-- Node10&#45;&gt;Node9 -->
<g id="edge9" class="edge">
<title>Node10&#45;&gt;Node9</title>
<path fill="none" stroke="#9a32cd" stroke-dasharray="5,2" d="M588.1717,-318.2279C643.4986,-309.5369 713.9559,-299.2662 777,-292.5 819.5332,-287.9352 867.2239,-284.5658 905.7931,-282.2779"/>
<polygon fill="#9a32cd" stroke="#9a32cd" points="587.3536,-314.8137 578.0222,-319.8311 588.4458,-321.7279 587.3536,-314.8137"/>
<text text-anchor="middle" x="677.5" y="-319.5" font-family="Helvetica,sans-Serif" font-size="10.00" fill="#000000"> time_struct</text>
</g>
<!-- Node11 -->
<g id="node11" class="node">
<title>Node11</title>
<g id="a_node11"><a xlink:title="STL class. ">
<polygon fill="#ffffff" stroke="#bfbfbf" points="0,-164 0,-183 87,-183 87,-164 0,-164"/>
<text text-anchor="middle" x="43.5" y="-171" font-family="Helvetica,sans-Serif" font-size="10.00" fill="#000000">std::vector&lt; T &gt;</text>
</a>
</g>
</g>
<!-- Node11&#45;&gt;Node10 -->
<g id="edge10" class="edge">
<title>Node11&#45;&gt;Node10</title>
<path fill="none" stroke="#ffa500" stroke-dasharray="5,2" d="M49.2662,-193.0027C57.4728,-217.0773 74.9588,-257.3041 105,-277.5 152.1732,-309.2133 303.639,-323.8619 401.9333,-330.1781"/>
<polygon fill="#ffa500" stroke="#ffa500" points="52.5142,-191.6684 46.1368,-183.208 45.8463,-193.7988 52.5142,-191.6684"/>
<text text-anchor="start" x="105" y="-338.5" font-family="Helvetica,sans-Serif" font-size="10.00" fill="#000000"> &lt; std::tuple&lt; int,</text>
<text text-anchor="start" x="105" y="-327.5" font-family="Helvetica,sans-Serif" font-size="10.00" fill="#000000"> int, int, std::string,</text>
<text text-anchor="middle" x="171.5" y="-316.5" font-family="Helvetica,sans-Serif" font-size="10.00" fill="#000000"> std::vector&lt; ValueType &gt; &gt; &gt;</text>
</g>
<!-- Node13 -->
<g id="node13" class="node">
<title>Node13</title>
<polygon fill="#ffffff" stroke="#bfbfbf" points="256,-164 256,-183 384,-183 384,-164 256,-164"/>
<text text-anchor="middle" x="320" y="-171" font-family="Helvetica,sans-Serif" font-size="10.00" fill="#000000">std::vector&lt; ValueType &gt;</text>
</g>
<!-- Node11&#45;&gt;Node13 -->
<g id="edge14" class="edge">
<title>Node11&#45;&gt;Node13</title>
<path fill="none" stroke="#ffa500" stroke-dasharray="5,2" d="M97.2432,-173.5C142.6573,-173.5 207.8094,-173.5 255.9285,-173.5"/>
<polygon fill="#ffa500" stroke="#ffa500" points="97.0073,-170.0001 87.0073,-173.5 97.0073,-177.0001 97.0073,-170.0001"/>
<text text-anchor="middle" x="171.5" y="-176.5" font-family="Helvetica,sans-Serif" font-size="10.00" fill="#000000"> &lt; ValueType &gt;</text>
</g>
<!-- Node14 -->
<g id="node14" class="node">
<title>Node14</title>
<polygon fill="#ffffff" stroke="#bfbfbf" points="260.5,-114.5 260.5,-144.5 379.5,-144.5 379.5,-114.5 260.5,-114.5"/>
<text text-anchor="start" x="268.5" y="-132.5" font-family="Helvetica,sans-Serif" font-size="10.00" fill="#000000">std::vector&lt; std::vector</text>
<text text-anchor="middle" x="320" y="-121.5" font-family="Helvetica,sans-Serif" font-size="10.00" fill="#000000">&lt; ValueType &gt; &gt;</text>
</g>
<!-- Node11&#45;&gt;Node14 -->
<g id="edge16" class="edge">
<title>Node11&#45;&gt;Node14</title>
<path fill="none" stroke="#ffa500" stroke-dasharray="5,2" d="M89.6235,-161.6962C94.7941,-160.5382 99.9986,-159.4445 105,-158.5 157.1844,-148.6449 217.1068,-140.8484 260.4127,-135.8324"/>
<polygon fill="#ffa500" stroke="#ffa500" points="88.7343,-158.3095 79.7846,-163.98 90.317,-165.1282 88.7343,-158.3095"/>
<text text-anchor="middle" x="171.5" y="-161.5" font-family="Helvetica,sans-Serif" font-size="10.00" fill="#000000"> &lt; std::vector&lt; ValueType &gt; &gt;</text>
</g>
<!-- Node15 -->
<g id="node15" class="node">
<title>Node15</title>
<polygon fill="#ffffff" stroke="#bfbfbf" points="429,-245 429,-308 551,-308 551,-245 429,-245"/>
<text text-anchor="start" x="437" y="-296" font-family="Helvetica,sans-Serif" font-size="10.00" fill="#000000">std::vector&lt; std::tuple</text>
<text text-anchor="start" x="437" y="-285" font-family="Helvetica,sans-Serif" font-size="10.00" fill="#000000">&lt; int, std::vector&lt; std</text>
<text text-anchor="start" x="437" y="-274" font-family="Helvetica,sans-Serif" font-size="10.00" fill="#000000">::tuple&lt; int, int &gt; &gt;, std</text>
<text text-anchor="start" x="437" y="-263" font-family="Helvetica,sans-Serif" font-size="10.00" fill="#000000">::vector&lt; std::tuple&lt; int,</text>
<text text-anchor="middle" x="490" y="-252" font-family="Helvetica,sans-Serif" font-size="10.00" fill="#000000"> int &gt; &gt;, int, int &gt; &gt;</text>
</g>
<!-- Node11&#45;&gt;Node15 -->
<g id="edge18" class="edge">
<title>Node11&#45;&gt;Node15</title>
<path fill="none" stroke="#ffa500" stroke-dasharray="5,2" d="M92.2239,-185.4527C96.5426,-186.4913 100.8487,-187.5194 105,-188.5 219.271,-215.4935 352.9427,-245.7516 428.9242,-262.8273"/>
<polygon fill="#ffa500" stroke="#ffa500" points="92.7338,-181.9752 82.1914,-183.0276 91.0891,-188.7793 92.7338,-181.9752"/>
<text text-anchor="start" x="118" y="-265.5" font-family="Helvetica,sans-Serif" font-size="10.00" fill="#000000"> &lt; std::tuple&lt; int,</text>
<text text-anchor="start" x="118" y="-254.5" font-family="Helvetica,sans-Serif" font-size="10.00" fill="#000000"> std::vector&lt; std::tuple</text>
<text text-anchor="start" x="118" y="-243.5" font-family="Helvetica,sans-Serif" font-size="10.00" fill="#000000">&lt; int, int &gt; &gt;, std::vector</text>
<text text-anchor="start" x="118" y="-232.5" font-family="Helvetica,sans-Serif" font-size="10.00" fill="#000000">&lt; std::tuple&lt; int, int &gt; &gt;</text>
<text text-anchor="middle" x="171.5" y="-221.5" font-family="Helvetica,sans-Serif" font-size="10.00" fill="#000000">, int, int &gt; &gt;</text>
</g>
<!-- Node16 -->
<g id="node16" class="node">
<title>Node16</title>
<polygon fill="#ffffff" stroke="#bfbfbf" points="777,-328.5 777,-358.5 888,-358.5 888,-328.5 777,-328.5"/>
<text text-anchor="start" x="785" y="-346.5" font-family="Helvetica,sans-Serif" font-size="10.00" fill="#000000">std::vector&lt; unsigned</text>
<text text-anchor="middle" x="832.5" y="-335.5" font-family="Helvetica,sans-Serif" font-size="10.00" fill="#000000"> int &gt;</text>
</g>
<!-- Node11&#45;&gt;Node16 -->
<g id="edge20" class="edge">
<title>Node11&#45;&gt;Node16</title>
<path fill="none" stroke="#ffa500" stroke-dasharray="5,2" d="M47.8005,-193.1595C57.2582,-234.6298 80.9439,-329.0181 105,-350.5 156.3106,-396.32 187.6878,-376.3954 256,-384.5 478.0096,-410.8393 552.4514,-475.0552 759,-389.5 769.4525,-385.1704 767.8338,-378.1317 777,-371.5 783.5578,-366.7555 791.0367,-362.3877 798.3342,-358.5831"/>
<polygon fill="#ffa500" stroke="#ffa500" points="51.2157,-192.3934 45.6158,-183.3995 44.3848,-193.9225 51.2157,-192.3934"/>
<text text-anchor="middle" x="320" y="-407.5" font-family="Helvetica,sans-Serif" font-size="10.00" fill="#000000"> &lt; unsigned int &gt;</text>
</g>
<!-- Node19 -->
<g id="node19" class="node">
<title>Node19</title>
<polygon fill="#ffffff" stroke="#bfbfbf" points="256.5,-62 256.5,-81 383.5,-81 383.5,-62 256.5,-62"/>
<text text-anchor="middle" x="320" y="-69" font-family="Helvetica,sans-Serif" font-size="10.00" fill="#000000">std::vector&lt; IndexType &gt;</text>
</g>
<!-- Node11&#45;&gt;Node19 -->
<g id="edge24" class="edge">
<title>Node11&#45;&gt;Node19</title>
<path fill="none" stroke="#ffa500" stroke-dasharray="5,2" d="M60.5986,-156.5049C72.22,-145.8541 88.4403,-132.6473 105,-124.5 152.9479,-100.9098 212.2126,-87.3119 256.369,-79.81"/>
<polygon fill="#ffa500" stroke="#ffa500" points="57.8588,-154.2795 53.0101,-163.6997 62.675,-159.3593 57.8588,-154.2795"/>
<text text-anchor="middle" x="171.5" y="-127.5" font-family="Helvetica,sans-Serif" font-size="10.00" fill="#000000"> &lt; IndexType &gt;</text>
</g>
<!-- Node20 -->
<g id="node20" class="node">
<title>Node20</title>
<polygon fill="#ffffff" stroke="#bfbfbf" points="270.5,-9 270.5,-28 369.5,-28 369.5,-9 270.5,-9"/>
<text text-anchor="middle" x="320" y="-16" font-family="Helvetica,sans-Serif" font-size="10.00" fill="#000000">std::vector&lt; bool &gt;</text>
</g>
<!-- Node11&#45;&gt;Node20 -->
<g id="edge26" class="edge">
<title>Node11&#45;&gt;Node20</title>
<path fill="none" stroke="#ffa500" stroke-dasharray="5,2" d="M49.6803,-154.0447C58.2353,-130.3521 76.0003,-90.8596 105,-69.5 153.4943,-33.7818 223.3718,-22.6924 270.1653,-19.4571"/>
<polygon fill="#ffa500" stroke="#ffa500" points="46.3038,-153.1023 46.3904,-163.6968 52.9295,-155.3607 46.3038,-153.1023"/>
<text text-anchor="middle" x="171.5" y="-72.5" font-family="Helvetica,sans-Serif" font-size="10.00" fill="#000000"> &lt; bool &gt;</text>
</g>
<!-- Node12 -->
<g id="node12" class="node">
<title>Node12</title>
<g id="a_node12"><a xlink:href="structschwz_1_1Metadata_1_1post__process__data.html" target="_top" xlink:title="The struct used for storing data for post&#45;processing. ">
<polygon fill="#ffffff" stroke="#000000" points="596,-158.5 596,-188.5 759,-188.5 759,-158.5 596,-158.5"/>
<text text-anchor="start" x="604" y="-176.5" font-family="Helvetica,sans-Serif" font-size="10.00" fill="#000000">schwz::Metadata&lt; ValueType,</text>
<text text-anchor="middle" x="677.5" y="-165.5" font-family="Helvetica,sans-Serif" font-size="10.00" fill="#000000"> IndexType &gt;::post_process_data</text>
</a>
</g>
</g>
<!-- Node12&#45;&gt;Node9 -->
<g id="edge12" class="edge">
<title>Node12&#45;&gt;Node9</title>
<path fill="none" stroke="#9a32cd" stroke-dasharray="5,2" d="M769.1398,-177.8243C807.1272,-182.1439 850.8945,-190.4981 888,-206.5 919.3122,-220.0035 949.3481,-246.5289 966.448,-263.3403"/>
<polygon fill="#9a32cd" stroke="#9a32cd" points="769.4165,-174.3341 759.1033,-176.7604 768.6785,-181.2951 769.4165,-174.3341"/>
<text text-anchor="middle" x="832.5" y="-209.5" font-family="Helvetica,sans-Serif" font-size="10.00" fill="#000000"> post_process_data</text>
</g>
<!-- Node13&#45;&gt;Node1 -->
<g id="edge29" class="edge">
<title>Node13&#45;&gt;Node1</title>
<path fill="none" stroke="#9a32cd" stroke-dasharray="5,2" d="M372.1621,-160.1007C376.3135,-158.175 380.319,-155.9859 384,-153.5 394.4696,-146.4295 390.5911,-136.926 402,-131.5 492.6318,-88.3959 1192.4264,-115.8942 1408.8996,-125.5398"/>
<polygon fill="#9a32cd" stroke="#9a32cd" points="370.8254,-156.8659 362.9099,-163.9083 373.4894,-163.3392 370.8254,-156.8659"/>
<text text-anchor="middle" x="981" y="-116.5" font-family="Helvetica,sans-Serif" font-size="10.00" fill="#000000"> local_residual_vector_out</text>
</g>
<!-- Node13&#45;&gt;Node12 -->
<g id="edge13" class="edge">
<title>Node13&#45;&gt;Node12</title>
<path fill="none" stroke="#9a32cd" stroke-dasharray="5,2" d="M394.2179,-169.7178C396.8438,-169.6355 399.4441,-169.5623 402,-169.5 480.199,-167.5938 499.7936,-167.9286 578,-169.5 583.7904,-169.6163 589.7692,-169.7707 595.7879,-169.9512"/>
<polygon fill="#9a32cd" stroke="#9a32cd" points="393.8731,-166.2276 384.002,-170.0763 394.1187,-173.2233 393.8731,-166.2276"/>
<text text-anchor="middle" x="490" y="-227.5" font-family="Helvetica,sans-Serif" font-size="10.00" fill="#000000"> local_timestamp</text>
<text text-anchor="middle" x="490" y="-216.5" font-family="Helvetica,sans-Serif" font-size="10.00" fill="#000000">local_converged_resnorm</text>
<text text-anchor="start" x="434" y="-205.5" font-family="Helvetica,sans-Serif" font-size="10.00" fill="#000000">local_residual_vector</text>
<text text-anchor="middle" x="490" y="-194.5" font-family="Helvetica,sans-Serif" font-size="10.00" fill="#000000">_out</text>
<text text-anchor="start" x="434" y="-183.5" font-family="Helvetica,sans-Serif" font-size="10.00" fill="#000000">local_converged_iter</text>
<text text-anchor="middle" x="490" y="-172.5" font-family="Helvetica,sans-Serif" font-size="10.00" fill="#000000">_count</text>
</g>
<!-- Node14&#45;&gt;Node1 -->
<g id="edge30" class="edge">
<title>Node14&#45;&gt;Node1</title>
<path fill="none" stroke="#9a32cd" stroke-dasharray="5,2" d="M358.9087,-110.1744C372.2512,-104.4173 387.4833,-98.7754 402,-95.5 521.5959,-68.5154 554.8976,-81.5 677.5,-81.5 677.5,-81.5 677.5,-81.5 1295.5,-81.5 1339.5348,-81.5 1387.7301,-95.2568 1422.6952,-107.8851"/>
<polygon fill="#9a32cd" stroke="#9a32cd" points="357.2635,-107.0761 349.5646,-114.3547 360.122,-113.4659 357.2635,-107.0761"/>
<text text-anchor="middle" x="981" y="-84.5" font-family="Helvetica,sans-Serif" font-size="10.00" fill="#000000"> global_residual_vector_out</text>
</g>
<!-- Node14&#45;&gt;Node12 -->
<g id="edge15" class="edge">
<title>Node14&#45;&gt;Node12</title>
<path fill="none" stroke="#9a32cd" stroke-dasharray="5,2" d="M389.7715,-133.9866C441.8182,-137.819 514.5742,-144.202 578,-153.5 587.5884,-154.9056 597.6495,-156.6304 607.5376,-158.4724"/>
<polygon fill="#9a32cd" stroke="#9a32cd" points="389.8737,-130.485 379.6472,-133.2541 389.3685,-137.4667 389.8737,-130.485"/>
<text text-anchor="middle" x="490" y="-156.5" font-family="Helvetica,sans-Serif" font-size="10.00" fill="#000000"> global_residual_vector_out</text>
</g>
<!-- Node15&#45;&gt;Node9 -->
<g id="edge17" class="edge">
<title>Node15&#45;&gt;Node9</title>
<path fill="none" stroke="#9a32cd" stroke-dasharray="5,2" d="M560.6959,-252.8186C572.3683,-249.781 584.4341,-247.1565 596,-245.5 706.7348,-229.6398 836.5591,-248.4425 913.6218,-263.4806"/>
<polygon fill="#9a32cd" stroke="#9a32cd" points="559.7339,-249.453 551.0033,-255.4553 561.5714,-256.2076 559.7339,-249.453"/>
<text text-anchor="middle" x="677.5" y="-248.5" font-family="Helvetica,sans-Serif" font-size="10.00" fill="#000000"> comm_data_struct</text>
</g>
<!-- Node16&#45;&gt;Node2 -->
<g id="edge19" class="edge">
<title>Node16&#45;&gt;Node2</title>
<path fill="none" stroke="#9a32cd" stroke-dasharray="5,2" d="M898.5646,-337.079C987.3328,-328.4515 1144.0558,-313.2192 1231.6677,-304.704"/>
<polygon fill="#9a32cd" stroke="#9a32cd" points="897.9631,-333.6209 888.3486,-338.0719 898.6403,-340.5881 897.9631,-333.6209"/>
<text text-anchor="middle" x="981" y="-350.5" font-family="Helvetica,sans-Serif" font-size="10.00" fill="#000000"> cell_weights</text>
<text text-anchor="middle" x="981" y="-339.5" font-family="Helvetica,sans-Serif" font-size="10.00" fill="#000000">partition_indices</text>
</g>
<!-- Node17 -->
<g id="node17" class="node">
<title>Node17</title>
<g id="a_node17"><a xlink:href="classschwz_1_1Communicate.html" target="_top" xlink:title="The communication class that provides the methods for the communication between the subdomains...">
<polygon fill="#ffffff" stroke="#000000" points="1074,-17 1074,-58 1201,-58 1201,-17 1074,-17"/>
<text text-anchor="start" x="1082" y="-46" font-family="Helvetica,sans-Serif" font-size="10.00" fill="#000000">schwz::Communicate</text>
<text text-anchor="start" x="1082" y="-35" font-family="Helvetica,sans-Serif" font-size="10.00" fill="#000000">&lt; ValueType, IndexType,</text>
<text text-anchor="middle" x="1137.5" y="-24" font-family="Helvetica,sans-Serif" font-size="10.00" fill="#000000"> MixedValueType &gt;</text>
</a>
</g>
</g>
<!-- Node17&#45;&gt;Node1 -->
<g id="edge21" class="edge">
<title>Node17&#45;&gt;Node1</title>
<path fill="none" stroke="#191970" d="M1211.3375,-36.2254C1263.2859,-37.6941 1333.5136,-44.5287 1391,-67.5 1413.9766,-76.6813 1436.1969,-94.064 1451.6165,-107.9319"/>
<polygon fill="#191970" stroke="#191970" points="1211.2761,-32.7233 1201.2007,-36 1211.1204,-39.7215 1211.2761,-32.7233"/>
</g>
<!-- Node18 -->
<g id="node18" class="node">
<title>Node18</title>
<g id="a_node18"><a xlink:href="structschwz_1_1Communicate_1_1comm__struct.html" target="_top" xlink:title="The communication struct used to store the communication data. ">
<polygon fill="#ffffff" stroke="#000000" points="610.5,-.5 610.5,-52.5 744.5,-52.5 744.5,-.5 610.5,-.5"/>
<text text-anchor="start" x="618.5" y="-40.5" font-family="Helvetica,sans-Serif" font-size="10.00" fill="#000000">schwz::Communicate</text>
<text text-anchor="start" x="618.5" y="-29.5" font-family="Helvetica,sans-Serif" font-size="10.00" fill="#000000">&lt; ValueType, IndexType,</text>
<text text-anchor="start" x="618.5" y="-18.5" font-family="Helvetica,sans-Serif" font-size="10.00" fill="#000000"> MixedValueType &gt;::comm</text>
<text text-anchor="middle" x="677.5" y="-7.5" font-family="Helvetica,sans-Serif" font-size="10.00" fill="#000000">_struct</text>
</a>
</g>
</g>
<!-- Node18&#45;&gt;Node17 -->
<g id="edge22" class="edge">
<title>Node18&#45;&gt;Node17</title>
<path fill="none" stroke="#9a32cd" stroke-dasharray="5,2" d="M754.9793,-28.3528C844.5486,-30.4946 990.3041,-33.9801 1073.6466,-35.9731"/>
<polygon fill="#9a32cd" stroke="#9a32cd" points="754.9614,-24.8514 744.8806,-28.1113 754.794,-31.8494 754.9614,-24.8514"/>
<text text-anchor="middle" x="832.5" y="-35.5" font-family="Helvetica,sans-Serif" font-size="10.00" fill="#000000"> comm_struct</text>
</g>
<!-- Node19&#45;&gt;Node18 -->
<g id="edge23" class="edge">
<title>Node19&#45;&gt;Node18</title>
<path fill="none" stroke="#9a32cd" stroke-dasharray="5,2" d="M354.2928,-58.6185C368.8079,-53.6948 386.0263,-48.5381 402,-45.5 472.2955,-32.1301 554.2673,-27.8916 610.4073,-26.6816"/>
<polygon fill="#9a32cd" stroke="#9a32cd" points="353.0106,-55.3589 344.7243,-61.9611 355.3191,-61.9673 353.0106,-55.3589"/>
<text text-anchor="middle" x="490" y="-59.5" font-family="Helvetica,sans-Serif" font-size="10.00" fill="#000000"> recv</text>
<text text-anchor="middle" x="490" y="-48.5" font-family="Helvetica,sans-Serif" font-size="10.00" fill="#000000">send</text>
</g>
<!-- Node20&#45;&gt;Node18 -->
<g id="edge25" class="edge">
<title>Node20&#45;&gt;Node18</title>
<path fill="none" stroke="#9a32cd" stroke-dasharray="5,2" d="M379.8893,-12.7935C387.329,-12.2598 394.8358,-11.8052 402,-11.5 480.1513,-8.1703 499.9966,-5.6534 578,-11.5 588.5395,-12.29 599.6546,-13.5443 610.4846,-14.9994"/>
<polygon fill="#9a32cd" stroke="#9a32cd" points="379.5282,-9.3108 369.8244,-13.5636 380.0624,-16.2904 379.5282,-9.3108"/>
<text text-anchor="middle" x="490" y="-14.5" font-family="Helvetica,sans-Serif" font-size="10.00" fill="#000000"> is_local_neighbor</text>
</g>
<!-- Node21&#45;&gt;Node1 -->
<g id="edge27" class="edge">
<title>Node21&#45;&gt;Node1</title>
<path fill="none" stroke="#191970" d="M1334.2618,-352.9969C1347.3658,-344.7605 1361.3575,-334.383 1372,-322.5 1420.3351,-268.5311 1452.4891,-187.1027 1465.7012,-149.2316"/>
<polygon fill="#191970" stroke="#191970" points="1332.1407,-350.1888 1325.3837,-358.3492 1335.7549,-356.1836 1332.1407,-350.1888"/>
</g>
</g>
</svg>
        <g id="navigator" transform="translate(0 0)" fill="#404254">
                <rect fill="#f2f5e9" fill-opacity="0.5" stroke="#606060" stroke-width=".5" x="0" y="0" width="60" height="60"/>
                <use id="zoomplus" xlink:href="#zoomPlus" x="17" y="9" onmousedown="handleZoom(evt,'in')"/>
                <use id="zoomminus" xlink:href="#zoomMin" x="42" y="9" onmousedown="handleZoom(evt,'out')"/>
                <use id="reset" xlink:href="#resetDef" x="30" y="36" onmousedown="handleReset()"/>
                <g id="arrowUp" xlink:href="#dirArrow" transform="translate(30 24)" onmousedown="handlePan(0,-1)">
                  <use xlink:href="#rim" fill="#404040">
                        <set attributeName="fill" to="#808080" begin="arrowUp.mouseover" end="arrowUp.mouseout"/>
                  </use>
                  <path fill="none" stroke="white" stroke-width="1.5" d="M0,-3.0v7 M-2.5,-0.5L0,-3.0L2.5,-0.5"/>
                </g>
                <g id="arrowRight" xlink:href="#dirArrow" transform="rotate(90) translate(36 -43)" onmousedown="handlePan(1,0)">
                  <use xlink:href="#rim" fill="#404040">
                        <set attributeName="fill" to="#808080" begin="arrowRight.mouseover" end="arrowRight.mouseout"/>
                  </use>
                  <path fill="none" stroke="white" stroke-width="1.5" d="M0,-3.0v7 M-2.5,-0.5L0,-3.0L2.5,-0.5"/>
                </g>
                <g id="arrowDown" xlink:href="#dirArrow" transform="rotate(180) translate(-30 -48)" onmousedown="handlePan(0,1)">
                  <use xlink:href="#rim" fill="#404040">
                        <set attributeName="fill" to="#808080" begin="arrowDown.mouseover" end="arrowDown.mouseout"/>
                  </use>
                  <path fill="none" stroke="white" stroke-width="1.5" d="M0,-3.0v7 M-2.5,-0.5L0,-3.0L2.5,-0.5"/>
                </g>
                <g id="arrowLeft" xlink:href="#dirArrow" transform="rotate(270) translate(-36 17)" onmousedown="handlePan(-1,0)">
                  <use xlink:href="#rim" fill="#404040">
                        <set attributeName="fill" to="#808080" begin="arrowLeft.mouseover" end="arrowLeft.mouseout"/>
                  </use>
                  <path fill="none" stroke="white" stroke-width="1.5" d="M0,-3.0v7 M-2.5,-0.5L0,-3.0L2.5,-0.5"/>
                </g>
        </g>
        <svg viewBox="0 0 15 15" width="100%" height="30px" preserveAspectRatio="xMaxYMin meet">
         <g id="arrow_out" transform="scale(0.3 0.3)">
          <a xlink:href="classschwz_1_1SolverRAS__coll__graph_org.svg" target="_base">
           <rect id="button" ry="5" rx="5" y="6" x="6" height="38" width="38"
                fill="#f2f5e9" fill-opacity="0.5" stroke="#606060" stroke-width="1.0"/>
           <path id="arrow"
             d="M 11.500037,31.436501 C 11.940474,20.09759 22.043105,11.32322 32.158766,21.979434 L 37.068811,17.246167 C 37.068811,17.246167 37.088388,32 37.088388,32 L 22.160133,31.978069 C 22.160133,31.978069 26.997745,27.140456 26.997745,27.140456 C 18.528582,18.264221 13.291696,25.230495 11.500037,31.436501 z"
             style="fill:#404040;"/>
          </a>
         </g>
        </svg>
</svg>
