<?xml version="1.0" encoding="UTF-8" standalone="no"?>
<!DOCTYPE svg PUBLIC "-//W3C//DTD SVG 1.1//EN"
 "http://www.w3.org/Graphics/SVG/1.1/DTD/svg11.dtd">
<!-- Generated by graphviz version 2.40.1 (20161225.0304)
 -->
<!-- Title: schwz::Communicate&lt; ValueType, IndexType, MixedValueType &gt;::comm_struct Pages: 1 -->
<svg width="260pt" height="206pt"
 viewBox="0.00 0.00 259.50 206.00" xmlns="http://www.w3.org/2000/svg" xmlns:xlink="http://www.w3.org/1999/xlink">
<g id="graph0" class="graph" transform="scale(1 1) rotate(0) translate(4 202)">
<title>schwz::Communicate&lt; ValueType, IndexType, MixedValueType &gt;::comm_struct</title>
<polygon fill="#ffffff" stroke="transparent" points="-4,4 -4,-202 255.5,-202 255.5,4 -4,4"/>
<!-- Node0 -->
<g id="node1" class="node">
<title>Node0</title>
<polygon fill="#bfbfbf" stroke="#000000" points="61.5,-.5 61.5,-52.5 195.5,-52.5 195.5,-.5 61.5,-.5"/>
<text text-anchor="start" x="69.5" y="-40.5" font-family="Helvetica,sans-Serif" font-size="10.00" fill="#000000">schwz::Communicate</text>
<text text-anchor="start" x="69.5" y="-29.5" font-family="Helvetica,sans-Serif" font-size="10.00" fill="#000000">&lt; ValueType, IndexType,</text>
<text text-anchor="start" x="69.5" y="-18.5" font-family="Helvetica,sans-Serif" font-size="10.00" fill="#000000"> MixedValueType &gt;::comm</text>
<text text-anchor="middle" x="128.5" y="-7.5" font-family="Helvetica,sans-Serif" font-size="10.00" fill="#000000">_struct</text>
</g>
<!-- Node1 -->
<g id="node2" class="node">
<title>Node1</title>
<polygon fill="#ffffff" stroke="#bfbfbf" points="0,-111.5 0,-130.5 127,-130.5 127,-111.5 0,-111.5"/>
<text text-anchor="middle" x="63.5" y="-118.5" font-family="Helvetica,sans-Serif" font-size="10.00" fill="#000000">std::vector&lt; IndexType &gt;</text>
</g>
<!-- Node1&#45;&gt;Node0 -->
<g id="edge1" class="edge">
<title>Node1&#45;&gt;Node0</title>
<path fill="none" stroke="#9a32cd" stroke-dasharray="5,2" d="M75.9908,-102.8403C85.7572,-88.6414 99.4699,-68.7053 110.433,-52.7666"/>
<polygon fill="#9a32cd" stroke="#9a32cd" points="72.9948,-101.0201 70.2113,-111.2428 78.7622,-104.9871 72.9948,-101.0201"/>
<text text-anchor="middle" x="107.5" y="-85" font-family="Helvetica,sans-Serif" font-size="10.00" fill="#000000"> recv</text>
<text text-anchor="middle" x="107.5" y="-74" font-family="Helvetica,sans-Serif" font-size="10.00" fill="#000000">send</text>
</g>
<!-- Node2 -->
<g id="node3" class="node">
<title>Node2</title>
<g id="a_node3"><a xlink:title="STL class. ">
<polygon fill="#ffffff" stroke="#bfbfbf" points="85,-178.5 85,-197.5 172,-197.5 172,-178.5 85,-178.5"/>
<text text-anchor="middle" x="128.5" y="-185.5" font-family="Helvetica,sans-Serif" font-size="10.00" fill="#000000">std::vector&lt; T &gt;</text>
</a>
</g>
</g>
<!-- Node2&#45;&gt;Node1 -->
<g id="edge2" class="edge">
<title>Node2&#45;&gt;Node1</title>
<path fill="none" stroke="#ffa500" stroke-dasharray="5,2" d="M107.797,-172.1229C103.2558,-168.3237 98.587,-164.1584 94.5,-160 85.4059,-150.747 76.3259,-138.9478 70.3657,-130.7629"/>
<polygon fill="#ffa500" stroke="#ffa500" points="105.7006,-174.9285 115.6806,-178.4853 110.0968,-169.4812 105.7006,-174.9285"/>
<text text-anchor="middle" x="128" y="-152" font-family="Helvetica,sans-Serif" font-size="10.00" fill="#000000"> &lt; IndexType &gt;</text>
</g>
<!-- Node3 -->
<g id="node4" class="node">
<title>Node3</title>
<polygon fill="#ffffff" stroke="#bfbfbf" points="145,-111.5 145,-130.5 244,-130.5 244,-111.5 145,-111.5"/>
<text text-anchor="middle" x="194.5" y="-118.5" font-family="Helvetica,sans-Serif" font-size="10.00" fill="#000000">std::vector&lt; bool &gt;</text>
</g>
<!-- Node2&#45;&gt;Node3 -->
<g id="edge4" class="edge">
<title>Node2&#45;&gt;Node3</title>
<path fill="none" stroke="#ffa500" stroke-dasharray="5,2" d="M148.8048,-171.6832C153.1152,-167.9707 157.5529,-163.9525 161.5,-160 170.9011,-150.5861 180.6149,-138.8145 187.0474,-130.6802"/>
<polygon fill="#ffa500" stroke="#ffa500" points="146.2612,-169.2477 140.8352,-178.3477 150.7517,-174.6176 146.2612,-169.2477"/>
<text text-anchor="middle" x="190.5" y="-152" font-family="Helvetica,sans-Serif" font-size="10.00" fill="#000000"> &lt; bool &gt;</text>
</g>
<!-- Node3&#45;&gt;Node0 -->
<g id="edge3" class="edge">
<title>Node3&#45;&gt;Node0</title>
<path fill="none" stroke="#9a32cd" stroke-dasharray="5,2" d="M181.817,-102.8403C171.9003,-88.6414 157.9767,-68.7053 146.845,-52.7666"/>
<polygon fill="#9a32cd" stroke="#9a32cd" points="179.09,-105.0484 187.6854,-111.2428 184.829,-101.0403 179.09,-105.0484"/>
<text text-anchor="middle" x="212" y="-79.5" font-family="Helvetica,sans-Serif" font-size="10.00" fill="#000000"> is_local_neighbor</text>
</g>
</g>
</svg>
