<?xml version="1.0" encoding="UTF-8" standalone="no"?>
<!DOCTYPE svg PUBLIC "-//W3C//DTD SVG 1.1//EN"
 "http://www.w3.org/Graphics/SVG/1.1/DTD/svg11.dtd">
<!-- Generated by graphviz version 2.40.1 (20161225.0304)
 -->
<!-- Title: schwz::Initialize&lt; ValueType, IndexType &gt; Pages: 1 -->
<svg width="1236pt" height="451pt"
 viewBox="0.00 0.00 1236.00 450.50" xmlns="http://www.w3.org/2000/svg" xmlns:xlink="http://www.w3.org/1999/xlink">
<g id="graph0" class="graph" transform="scale(1 1) rotate(0) translate(4 446.5)">
<title>schwz::Initialize&lt; ValueType, IndexType &gt;</title>
<polygon fill="#ffffff" stroke="transparent" points="-4,4 -4,-446.5 1232,-446.5 1232,4 -4,4"/>
<!-- Node0 -->
<g id="node1" class="node">
<title>Node0</title>
<polygon fill="#bfbfbf" stroke="#000000" points="1101,-239.5 1101,-269.5 1228,-269.5 1228,-239.5 1101,-239.5"/>
<text text-anchor="start" x="1109" y="-257.5" font-family="Helvetica,sans-Serif" font-size="10.00" fill="#000000">schwz::Initialize&lt;</text>
<text text-anchor="middle" x="1164.5" y="-246.5" font-family="Helvetica,sans-Serif" font-size="10.00" fill="#000000"> ValueType, IndexType &gt;</text>
</g>
<!-- Node1 -->
<g id="node2" class="node">
<title>Node1</title>
<g id="a_node2"><a xlink:href="structschwz_1_1Settings.html" target="_top" xlink:title="The struct that contains the solver settings and the parameters to be set by the user. ">
<polygon fill="#ffffff" stroke="#000000" points="945.5,-72 945.5,-91 1032.5,-91 1032.5,-72 945.5,-72"/>
<text text-anchor="middle" x="989" y="-79" font-family="Helvetica,sans-Serif" font-size="10.00" fill="#000000">schwz::Settings</text>
</a>
</g>
</g>
<!-- Node1&#45;&gt;Node0 -->
<g id="edge1" class="edge">
<title>Node1&#45;&gt;Node0</title>
<path fill="none" stroke="#191970" d="M1006.0337,-98.2911C1040.1456,-131.917 1116.3681,-207.0537 1149.0919,-239.3114"/>
<polygon fill="#191970" stroke="#191970" points="1008.2643,-95.5753 998.6856,-91.0477 1003.3502,-100.5604 1008.2643,-95.5753"/>
</g>
<!-- Node2 -->
<g id="node3" class="node">
<title>Node2</title>
<g id="a_node3"><a xlink:href="structschwz_1_1Settings_1_1comm__settings.html" target="_top" xlink:title="The settings for the various available communication paradigms. ">
<polygon fill="#ffffff" stroke="#000000" points="625.5,-49.5 625.5,-79.5 745.5,-79.5 745.5,-49.5 625.5,-49.5"/>
<text text-anchor="start" x="633.5" y="-67.5" font-family="Helvetica,sans-Serif" font-size="10.00" fill="#000000">schwz::Settings::comm</text>
<text text-anchor="middle" x="685.5" y="-56.5" font-family="Helvetica,sans-Serif" font-size="10.00" fill="#000000">_settings</text>
</a>
</g>
</g>
<!-- Node2&#45;&gt;Node1 -->
<g id="edge2" class="edge">
<title>Node2&#45;&gt;Node1</title>
<path fill="none" stroke="#9a32cd" stroke-dasharray="5,2" d="M755.6657,-61.9344C796.6603,-61.1586 849.3497,-61.4047 896,-65.5 912.1571,-66.9184 929.7259,-69.6326 945.1983,-72.4282"/>
<polygon fill="#9a32cd" stroke="#9a32cd" points="755.4288,-58.4386 745.5061,-62.152 755.5788,-65.437 755.4288,-58.4386"/>
<text text-anchor="middle" x="840.5" y="-68.5" font-family="Helvetica,sans-Serif" font-size="10.00" fill="#000000"> comm_settings</text>
</g>
<!-- Node3 -->
<g id="node4" class="node">
<title>Node3</title>
<g id="a_node4"><a xlink:title="STL class. ">
<polygon fill="#ffffff" stroke="#bfbfbf" points="655.5,-117 655.5,-136 715.5,-136 715.5,-117 655.5,-117"/>
<text text-anchor="middle" x="685.5" y="-124" font-family="Helvetica,sans-Serif" font-size="10.00" fill="#000000">std::string</text>
</a>
</g>
</g>
<!-- Node3&#45;&gt;Node1 -->
<g id="edge3" class="edge">
<title>Node3&#45;&gt;Node1</title>
<path fill="none" stroke="#9a32cd" stroke-dasharray="5,2" d="M724.8825,-114.0879C743.0199,-108.8192 764.9286,-103.0797 785,-99.5 839.7781,-89.7305 903.8207,-85.1787 945.3287,-83.1163"/>
<polygon fill="#9a32cd" stroke="#9a32cd" points="723.8224,-110.7515 715.2298,-116.9497 725.8122,-117.4627 723.8224,-110.7515"/>
<text text-anchor="middle" x="840.5" y="-179.5" font-family="Helvetica,sans-Serif" font-size="10.00" fill="#000000"> factorization</text>
<text text-anchor="middle" x="840.5" y="-168.5" font-family="Helvetica,sans-Serif" font-size="10.00" fill="#000000">metis_objtype</text>
<text text-anchor="middle" x="840.5" y="-157.5" font-family="Helvetica,sans-Serif" font-size="10.00" fill="#000000">thres_type</text>
<text text-anchor="middle" x="840.5" y="-146.5" font-family="Helvetica,sans-Serif" font-size="10.00" fill="#000000">matrix_filename</text>
<text text-anchor="middle" x="840.5" y="-135.5" font-family="Helvetica,sans-Serif" font-size="10.00" fill="#000000">norm_type</text>
<text text-anchor="middle" x="840.5" y="-124.5" font-family="Helvetica,sans-Serif" font-size="10.00" fill="#000000">reorder</text>
<text text-anchor="middle" x="840.5" y="-113.5" font-family="Helvetica,sans-Serif" font-size="10.00" fill="#000000">executor_string</text>
<text text-anchor="middle" x="840.5" y="-102.5" font-family="Helvetica,sans-Serif" font-size="10.00" fill="#000000">rhs_type</text>
</g>
<!-- Node7 -->
<g id="node8" class="node">
<title>Node7</title>
<g id="a_node8"><a xlink:href="structschwz_1_1Metadata.html" target="_top" xlink:title="The solver metadata struct. ">
<polygon fill="#ffffff" stroke="#000000" points="914,-239.5 914,-269.5 1064,-269.5 1064,-239.5 914,-239.5"/>
<text text-anchor="start" x="922" y="-257.5" font-family="Helvetica,sans-Serif" font-size="10.00" fill="#000000">schwz::Metadata&lt; ValueType,</text>
<text text-anchor="middle" x="989" y="-246.5" font-family="Helvetica,sans-Serif" font-size="10.00" fill="#000000"> IndexType &gt;</text>
</a>
</g>
</g>
<!-- Node3&#45;&gt;Node7 -->
<g id="edge10" class="edge">
<title>Node3&#45;&gt;Node7</title>
<path fill="none" stroke="#9a32cd" stroke-dasharray="5,2" d="M706.0224,-142.0309C725.3955,-155.9534 755.7582,-175.9172 785,-187.5 831.8405,-206.0537 848.2259,-194.5029 896,-210.5 918.8655,-218.1565 943.4775,-229.9738 961.6354,-239.4343"/>
<polygon fill="#9a32cd" stroke="#9a32cd" points="708.0741,-139.1952 697.9381,-136.111 703.9384,-144.8429 708.0741,-139.1952"/>
<text text-anchor="middle" x="840.5" y="-213.5" font-family="Helvetica,sans-Serif" font-size="10.00" fill="#000000"> local_precond</text>
</g>
<!-- Node4 -->
<g id="node5" class="node">
<title>Node4</title>
<polygon fill="#ffffff" stroke="#bfbfbf" points="280.5,-111.5 280.5,-141.5 375.5,-141.5 375.5,-111.5 280.5,-111.5"/>
<text text-anchor="start" x="288.5" y="-129.5" font-family="Helvetica,sans-Serif" font-size="10.00" fill="#000000">std::basic_string&lt;</text>
<text text-anchor="middle" x="328" y="-118.5" font-family="Helvetica,sans-Serif" font-size="10.00" fill="#000000"> char &gt;</text>
</g>
<!-- Node4&#45;&gt;Node3 -->
<g id="edge4" class="edge">
<title>Node4&#45;&gt;Node3</title>
<path fill="none" stroke="#191970" d="M385.8449,-126.5C462.7087,-126.5 595.715,-126.5 655.2107,-126.5"/>
<polygon fill="#191970" stroke="#191970" points="385.8431,-123.0001 375.8431,-126.5 385.8431,-130.0001 385.8431,-123.0001"/>
</g>
<!-- Node5 -->
<g id="node6" class="node">
<title>Node5</title>
<g id="a_node6"><a xlink:title="STL class. ">
<polygon fill="#ffffff" stroke="#bfbfbf" points="0,-111.5 0,-141.5 95,-141.5 95,-111.5 0,-111.5"/>
<text text-anchor="start" x="8" y="-129.5" font-family="Helvetica,sans-Serif" font-size="10.00" fill="#000000">std::basic_string&lt;</text>
<text text-anchor="middle" x="47.5" y="-118.5" font-family="Helvetica,sans-Serif" font-size="10.00" fill="#000000"> Char &gt;</text>
</a>
</g>
</g>
<!-- Node5&#45;&gt;Node4 -->
<g id="edge5" class="edge">
<title>Node5&#45;&gt;Node4</title>
<path fill="none" stroke="#ffa500" stroke-dasharray="5,2" d="M105.0943,-126.5C156.7767,-126.5 231.7415,-126.5 280.1836,-126.5"/>
<polygon fill="#ffa500" stroke="#ffa500" points="105.083,-123.0001 95.083,-126.5 105.083,-130.0001 105.083,-123.0001"/>
<text text-anchor="middle" x="179.5" y="-129.5" font-family="Helvetica,sans-Serif" font-size="10.00" fill="#000000"> &lt; char &gt;</text>
</g>
<!-- Node6 -->
<g id="node7" class="node">
<title>Node6</title>
<g id="a_node7"><a xlink:href="structschwz_1_1Settings_1_1convergence__settings.html" target="_top" xlink:title="The various convergence settings available. ">
<polygon fill="#ffffff" stroke="#000000" points="611,-.5 611,-30.5 760,-30.5 760,-.5 611,-.5"/>
<text text-anchor="start" x="619" y="-18.5" font-family="Helvetica,sans-Serif" font-size="10.00" fill="#000000">schwz::Settings::convergence</text>
<text text-anchor="middle" x="685.5" y="-7.5" font-family="Helvetica,sans-Serif" font-size="10.00" fill="#000000">_settings</text>
</a>
</g>
</g>
<!-- Node6&#45;&gt;Node1 -->
<g id="edge6" class="edge">
<title>Node6&#45;&gt;Node1</title>
<path fill="none" stroke="#9a32cd" stroke-dasharray="5,2" d="M770.4923,-23.8222C809.1679,-28.6772 855.2921,-35.9718 896,-46.5 921.2198,-53.0226 949.0443,-64.0276 967.6263,-71.9579"/>
<polygon fill="#9a32cd" stroke="#9a32cd" points="770.6622,-20.317 760.3116,-22.5785 769.8134,-27.2654 770.6622,-20.317"/>
<text text-anchor="middle" x="840.5" y="-49.5" font-family="Helvetica,sans-Serif" font-size="10.00" fill="#000000"> convergence_settings</text>
</g>
<!-- Node7&#45;&gt;Node0 -->
<g id="edge7" class="edge">
<title>Node7&#45;&gt;Node0</title>
<path fill="none" stroke="#191970" d="M1074.2434,-254.5C1083.177,-254.5 1092.1452,-254.5 1100.7774,-254.5"/>
<polygon fill="#191970" stroke="#191970" points="1074.1916,-251.0001 1064.1915,-254.5 1074.1915,-258.0001 1074.1916,-251.0001"/>
</g>
<!-- Node8 -->
<g id="node9" class="node">
<title>Node8</title>
<polygon fill="#ffffff" stroke="#bfbfbf" points="410,-341 410,-382 586,-382 586,-341 410,-341"/>
<text text-anchor="start" x="418" y="-370" font-family="Helvetica,sans-Serif" font-size="10.00" fill="#000000">std::vector&lt; std::tuple</text>
<text text-anchor="start" x="418" y="-359" font-family="Helvetica,sans-Serif" font-size="10.00" fill="#000000">&lt; int, int, int, std::</text>
<text text-anchor="middle" x="498" y="-348" font-family="Helvetica,sans-Serif" font-size="10.00" fill="#000000">string, std::vector&lt; ValueType &gt; &gt; &gt;</text>
</g>
<!-- Node8&#45;&gt;Node7 -->
<g id="edge8" class="edge">
<title>Node8&#45;&gt;Node7</title>
<path fill="none" stroke="#9a32cd" stroke-dasharray="5,2" d="M596.2898,-346.4758C677.3397,-333.194 794.9865,-311.8551 896,-285.5 913.1266,-281.0315 931.6865,-275.0775 947.6886,-269.5824"/>
<polygon fill="#9a32cd" stroke="#9a32cd" points="595.4029,-343.074 586.0953,-348.1356 596.5278,-349.9831 595.4029,-343.074"/>
<text text-anchor="middle" x="685.5" y="-347.5" font-family="Helvetica,sans-Serif" font-size="10.00" fill="#000000"> time_struct</text>
</g>
<!-- Node9 -->
<g id="node10" class="node">
<title>Node9</title>
<g id="a_node10"><a xlink:title="STL class. ">
<polygon fill="#ffffff" stroke="#bfbfbf" points="4,-294 4,-313 91,-313 91,-294 4,-294"/>
<text text-anchor="middle" x="47.5" y="-301" font-family="Helvetica,sans-Serif" font-size="10.00" fill="#000000">std::vector&lt; T &gt;</text>
</a>
</g>
</g>
<!-- Node9&#45;&gt;Node8 -->
<g id="edge9" class="edge">
<title>Node9&#45;&gt;Node8</title>
<path fill="none" stroke="#ffa500" stroke-dasharray="5,2" d="M101.0896,-314.496C105.1135,-315.2113 109.117,-315.8887 113,-316.5 214.3769,-332.459 331.5947,-345.3732 409.8056,-353.2069"/>
<polygon fill="#ffa500" stroke="#ffa500" points="101.571,-311.0259 91.1024,-312.6561 100.3027,-317.91 101.571,-311.0259"/>
<text text-anchor="start" x="113" y="-358.5" font-family="Helvetica,sans-Serif" font-size="10.00" fill="#000000"> &lt; std::tuple&lt; int,</text>
<text text-anchor="start" x="113" y="-347.5" font-family="Helvetica,sans-Serif" font-size="10.00" fill="#000000"> int, int, std::string,</text>
<text text-anchor="middle" x="179.5" y="-336.5" font-family="Helvetica,sans-Serif" font-size="10.00" fill="#000000"> std::vector&lt; ValueType &gt; &gt; &gt;</text>
</g>
<!-- Node11 -->
<g id="node12" class="node">
<title>Node11</title>
<polygon fill="#ffffff" stroke="#bfbfbf" points="264,-288 264,-307 392,-307 392,-288 264,-288"/>
<text text-anchor="middle" x="328" y="-295" font-family="Helvetica,sans-Serif" font-size="10.00" fill="#000000">std::vector&lt; ValueType &gt;</text>
</g>
<!-- Node9&#45;&gt;Node11 -->
<g id="edge13" class="edge">
<title>Node9&#45;&gt;Node11</title>
<path fill="none" stroke="#ffa500" stroke-dasharray="5,2" d="M101.1634,-302.3521C147.5086,-301.3608 214.5759,-299.9262 263.7662,-298.874"/>
<polygon fill="#ffa500" stroke="#ffa500" points="100.9432,-298.8559 91.0204,-302.5691 101.093,-305.8543 100.9432,-298.8559"/>
<text text-anchor="middle" x="179.5" y="-304.5" font-family="Helvetica,sans-Serif" font-size="10.00" fill="#000000"> &lt; ValueType &gt;</text>
</g>
<!-- Node12 -->
<g id="node13" class="node">
<title>Node12</title>
<polygon fill="#ffffff" stroke="#bfbfbf" points="268.5,-234.5 268.5,-264.5 387.5,-264.5 387.5,-234.5 268.5,-234.5"/>
<text text-anchor="start" x="276.5" y="-252.5" font-family="Helvetica,sans-Serif" font-size="10.00" fill="#000000">std::vector&lt; std::vector</text>
<text text-anchor="middle" x="328" y="-241.5" font-family="Helvetica,sans-Serif" font-size="10.00" fill="#000000">&lt; ValueType &gt; &gt;</text>
</g>
<!-- Node9&#45;&gt;Node12 -->
<g id="edge15" class="edge">
<title>Node9&#45;&gt;Node12</title>
<path fill="none" stroke="#ffa500" stroke-dasharray="5,2" d="M85.4456,-290.9337C94.4158,-288.2365 103.9929,-285.5766 113,-283.5 164.9221,-271.5291 224.8712,-262.4306 268.2539,-256.6719"/>
<polygon fill="#ffa500" stroke="#ffa500" points="84.1585,-287.6681 75.6385,-293.9659 86.2262,-294.3558 84.1585,-287.6681"/>
<text text-anchor="middle" x="179.5" y="-286.5" font-family="Helvetica,sans-Serif" font-size="10.00" fill="#000000"> &lt; std::vector&lt; ValueType &gt; &gt;</text>
</g>
<!-- Node13 -->
<g id="node14" class="node">
<title>Node13</title>
<polygon fill="#ffffff" stroke="#bfbfbf" points="437,-160 437,-223 559,-223 559,-160 437,-160"/>
<text text-anchor="start" x="445" y="-211" font-family="Helvetica,sans-Serif" font-size="10.00" fill="#000000">std::vector&lt; std::tuple</text>
<text text-anchor="start" x="445" y="-200" font-family="Helvetica,sans-Serif" font-size="10.00" fill="#000000">&lt; int, std::vector&lt; std</text>
<text text-anchor="start" x="445" y="-189" font-family="Helvetica,sans-Serif" font-size="10.00" fill="#000000">::tuple&lt; int, int &gt; &gt;, std</text>
<text text-anchor="start" x="445" y="-178" font-family="Helvetica,sans-Serif" font-size="10.00" fill="#000000">::vector&lt; std::tuple&lt; int,</text>
<text text-anchor="middle" x="498" y="-167" font-family="Helvetica,sans-Serif" font-size="10.00" fill="#000000"> int &gt; &gt;, int, int &gt; &gt;</text>
</g>
<!-- Node9&#45;&gt;Node13 -->
<g id="edge17" class="edge">
<title>Node9&#45;&gt;Node13</title>
<path fill="none" stroke="#ffa500" stroke-dasharray="5,2" d="M53.4393,-284.2377C62.1227,-259.7982 80.8489,-218.648 113,-200.5 214.5999,-143.1509 356.5746,-159.8031 436.6752,-176.2183"/>
<polygon fill="#ffa500" stroke="#ffa500" points="50.0735,-283.2673 50.2331,-293.8609 56.7146,-285.4799 50.0735,-283.2673"/>
<text text-anchor="start" x="126" y="-247.5" font-family="Helvetica,sans-Serif" font-size="10.00" fill="#000000"> &lt; std::tuple&lt; int,</text>
<text text-anchor="start" x="126" y="-236.5" font-family="Helvetica,sans-Serif" font-size="10.00" fill="#000000"> std::vector&lt; std::tuple</text>
<text text-anchor="start" x="126" y="-225.5" font-family="Helvetica,sans-Serif" font-size="10.00" fill="#000000">&lt; int, int &gt; &gt;, std::vector</text>
<text text-anchor="start" x="126" y="-214.5" font-family="Helvetica,sans-Serif" font-size="10.00" fill="#000000">&lt; std::tuple&lt; int, int &gt; &gt;</text>
<text text-anchor="middle" x="179.5" y="-203.5" font-family="Helvetica,sans-Serif" font-size="10.00" fill="#000000">, int, int &gt; &gt;</text>
</g>
<!-- Node14 -->
<g id="node15" class="node">
<title>Node14</title>
<polygon fill="#ffffff" stroke="#bfbfbf" points="785,-372.5 785,-402.5 896,-402.5 896,-372.5 785,-372.5"/>
<text text-anchor="start" x="793" y="-390.5" font-family="Helvetica,sans-Serif" font-size="10.00" fill="#000000">std::vector&lt; unsigned</text>
<text text-anchor="middle" x="840.5" y="-379.5" font-family="Helvetica,sans-Serif" font-size="10.00" fill="#000000"> int &gt;</text>
</g>
<!-- Node9&#45;&gt;Node14 -->
<g id="edge19" class="edge">
<title>Node9&#45;&gt;Node14</title>
<path fill="none" stroke="#ffa500" stroke-dasharray="5,2" d="M59.1839,-321.6037C70.7043,-337.6816 89.908,-360.1814 113,-370.5 343.9776,-473.7122 658.7431,-425.8557 784.8841,-400.1171"/>
<polygon fill="#ffa500" stroke="#ffa500" points="61.8497,-319.3012 53.3175,-313.0201 56.0705,-323.251 61.8497,-319.3012"/>
<text text-anchor="middle" x="328" y="-434.5" font-family="Helvetica,sans-Serif" font-size="10.00" fill="#000000"> &lt; unsigned int &gt;</text>
</g>
<!-- Node10 -->
<g id="node11" class="node">
<title>Node10</title>
<g id="a_node11"><a xlink:href="structschwz_1_1Metadata_1_1post__process__data.html" target="_top" xlink:title="The struct used for storing data for post&#45;processing. ">
<polygon fill="#ffffff" stroke="#000000" points="604,-265.5 604,-295.5 767,-295.5 767,-265.5 604,-265.5"/>
<text text-anchor="start" x="612" y="-283.5" font-family="Helvetica,sans-Serif" font-size="10.00" fill="#000000">schwz::Metadata&lt; ValueType,</text>
<text text-anchor="middle" x="685.5" y="-272.5" font-family="Helvetica,sans-Serif" font-size="10.00" fill="#000000"> IndexType &gt;::post_process_data</text>
</a>
</g>
</g>
<!-- Node10&#45;&gt;Node7 -->
<g id="edge11" class="edge">
<title>Node10&#45;&gt;Node7</title>
<path fill="none" stroke="#9a32cd" stroke-dasharray="5,2" d="M777.2891,-272.6367C820.9801,-268.8938 872.5733,-264.474 913.8892,-260.9345"/>
<polygon fill="#9a32cd" stroke="#9a32cd" points="776.8964,-269.1574 767.2317,-273.4983 777.494,-276.1319 776.8964,-269.1574"/>
<text text-anchor="middle" x="840.5" y="-273.5" font-family="Helvetica,sans-Serif" font-size="10.00" fill="#000000"> post_process_data</text>
</g>
<!-- Node11&#45;&gt;Node10 -->
<g id="edge12" class="edge">
<title>Node11&#45;&gt;Node10</title>
<path fill="none" stroke="#9a32cd" stroke-dasharray="5,2" d="M367.4764,-285.2584C380.8403,-281.6878 395.9415,-278.2716 410,-276.5 474.7823,-268.3364 548.8065,-270.0158 603.7991,-273.3624"/>
<polygon fill="#9a32cd" stroke="#9a32cd" points="366.3377,-281.9422 357.6416,-287.9943 368.2138,-288.6861 366.3377,-281.9422"/>
<text text-anchor="middle" x="498" y="-323.5" font-family="Helvetica,sans-Serif" font-size="10.00" fill="#000000"> local_converged_resnorm</text>
<text text-anchor="start" x="440.5" y="-312.5" font-family="Helvetica,sans-Serif" font-size="10.00" fill="#000000">local_residual_vector</text>
<text text-anchor="middle" x="498" y="-301.5" font-family="Helvetica,sans-Serif" font-size="10.00" fill="#000000">_out</text>
<text text-anchor="start" x="440.5" y="-290.5" font-family="Helvetica,sans-Serif" font-size="10.00" fill="#000000">local_converged_iter</text>
<text text-anchor="middle" x="498" y="-279.5" font-family="Helvetica,sans-Serif" font-size="10.00" fill="#000000">_count</text>
</g>
<!-- Node12&#45;&gt;Node10 -->
<g id="edge14" class="edge">
<title>Node12&#45;&gt;Node10</title>
<path fill="none" stroke="#9a32cd" stroke-dasharray="5,2" d="M397.8651,-246.9361C449.959,-246.0378 522.733,-246.9256 586,-255.5 602.0614,-257.6767 619.2767,-261.4649 634.7962,-265.4438"/>
<polygon fill="#9a32cd" stroke="#9a32cd" points="397.6594,-243.4394 387.731,-247.1378 397.7987,-250.438 397.6594,-243.4394"/>
<text text-anchor="middle" x="498" y="-258.5" font-family="Helvetica,sans-Serif" font-size="10.00" fill="#000000"> global_residual_vector_out</text>
</g>
<!-- Node13&#45;&gt;Node7 -->
<g id="edge16" class="edge">
<title>Node13&#45;&gt;Node7</title>
<path fill="none" stroke="#9a32cd" stroke-dasharray="5,2" d="M569.229,-200.6394C661.0496,-212.4208 820.014,-232.8175 913.7478,-244.8444"/>
<polygon fill="#9a32cd" stroke="#9a32cd" points="569.5569,-197.1528 559.1927,-199.3516 568.6659,-204.0959 569.5569,-197.1528"/>
<text text-anchor="middle" x="685.5" y="-228.5" font-family="Helvetica,sans-Serif" font-size="10.00" fill="#000000"> comm_data_struct</text>
</g>
<!-- Node14&#45;&gt;Node0 -->
<g id="edge18" class="edge">
<title>Node14&#45;&gt;Node0</title>
<path fill="none" stroke="#9a32cd" stroke-dasharray="5,2" d="M886.9245,-368.443C951.8322,-341.7988 1068.387,-293.9538 1127.683,-269.6132"/>
<polygon fill="#9a32cd" stroke="#9a32cd" points="885.2733,-365.3374 877.3515,-372.3727 887.9315,-371.813 885.2733,-365.3374"/>
<text text-anchor="middle" x="989" y="-369.5" font-family="Helvetica,sans-Serif" font-size="10.00" fill="#000000"> cell_weights</text>
<text text-anchor="middle" x="989" y="-358.5" font-family="Helvetica,sans-Serif" font-size="10.00" fill="#000000">partition_indices</text>
</g>
</g>
</svg>
