<?xml version="1.0" encoding="UTF-8" standalone="no"?>
<!DOCTYPE svg PUBLIC "-//W3C//DTD SVG 1.1//EN"
 "http://www.w3.org/Graphics/SVG/1.1/DTD/svg11.dtd">
<!-- Generated by graphviz version 2.40.1 (20161225.0304)
 -->
<!-- Title: schwz::SolverRAS&lt; ValueType, IndexType &gt; Pages: 1 -->
<!--zoomable 574 -->
<svg id="main" version="1.1" xmlns="http://www.w3.org/2000/svg" xmlns:xlink="http://www.w3.org/1999/xlink" xml:space="preserve" onload="init(evt)">
<style type="text/css"><![CDATA[
.edge:hover path { stroke: red; }
.edge:hover polygon { stroke: red; fill: red; }
]]></style>
<script type="text/javascript"><![CDATA[
var edges = document.getElementsByTagName('g');
if (edges && edges.length) {
  for (var i=0;i<edges.length;i++) {
    if (edges[i].id.substr(0,4)=='edge') {
      edges[i].setAttribute('class','edge');
    }
  }
}
]]></script>
        <defs>
                <circle id="rim" cx="0" cy="0" r="7"/>
                <circle id="rim2" cx="0" cy="0" r="3.5"/>
                <g id="zoomPlus">
                        <use xlink:href="#rim" fill="#404040">
                                <set attributeName="fill" to="#808080" begin="zoomplus.mouseover" end="zoomplus.mouseout"/>
                        </use>
                        <path d="M-4,0h8M0,-4v8" fill="none" stroke="white" stroke-width="1.5" pointer-events="none"/>
                </g>
                <g id="zoomMin">
                        <use xlink:href="#rim" fill="#404040">
                                <set attributeName="fill" to="#808080" begin="zoomminus.mouseover" end="zoomminus.mouseout"/>
                        </use>
                        <path d="M-4,0h8" fill="none" stroke="white" stroke-width="1.5" pointer-events="none"/>
                </g>
                <g id="dirArrow">
                        <path fill="none" stroke="white" stroke-width="1.5" d="M0,-3.0v7 M-2.5,-0.5L0,-3.0L2.5,-0.5"/>
                </g>
               <g id="resetDef">
                       <use xlink:href="#rim2" fill="#404040">
                               <set attributeName="fill" to="#808080" begin="reset.mouseover" end="reset.mouseout"/>
                       </use>
               </g>
        </defs>

<script type="text/javascript">
var viewWidth = 1732;
var viewHeight = 574;
var sectionId = 'dynsection-0';
</script>
<script xlink:href="svgpan.js"/>
<svg id="graph" class="graph">
<g id="viewport">
<title>schwz::SolverRAS&lt; ValueType, IndexType &gt;</title>
<polygon fill="#ffffff" stroke="transparent" points="-4,4 -4,-569.5 1728,-569.5 1728,4 -4,4"/>
<!-- Node0 -->
<g id="node1" class="node">
<title>Node0</title>
<polygon fill="#bfbfbf" stroke="#000000" points="1566,-102 1566,-132 1724,-132 1724,-102 1566,-102"/>
<text text-anchor="start" x="1574" y="-120" font-family="Helvetica,sans-Serif" font-size="10.00" fill="#000000">schwz::SolverRAS&lt; ValueType,</text>
<text text-anchor="middle" x="1645" y="-109" font-family="Helvetica,sans-Serif" font-size="10.00" fill="#000000"> IndexType &gt;</text>
</g>
<!-- Node1 -->
<g id="node2" class="node">
<title>Node1</title>
<g id="a_node2"><a xlink:href="classschwz_1_1SchwarzBase.html" target="_top" xlink:title="The Base solver class is meant to be the class implementing the common implementations for all the sc...">
<polygon fill="#ffffff" stroke="#000000" points="1396,-102 1396,-132 1529,-132 1529,-102 1396,-102"/>
<text text-anchor="start" x="1404" y="-120" font-family="Helvetica,sans-Serif" font-size="10.00" fill="#000000">schwz::SchwarzBase</text>
<text text-anchor="middle" x="1462.5" y="-109" font-family="Helvetica,sans-Serif" font-size="10.00" fill="#000000">&lt; ValueType, IndexType &gt;</text>
</a>
</g>
</g>
<!-- Node1&#45;&gt;Node0 -->
<g id="edge1" class="edge">
<title>Node1&#45;&gt;Node0</title>
<path fill="none" stroke="#191970" d="M1539.3367,-117C1548.0926,-117 1557.0302,-117 1565.8159,-117"/>
<polygon fill="#191970" stroke="#191970" points="1539.1614,-113.5001 1529.1614,-117 1539.1613,-120.5001 1539.1614,-113.5001"/>
</g>
<!-- Node2 -->
<g id="node3" class="node">
<title>Node2</title>
<g id="a_node3"><a xlink:href="classschwz_1_1Initialize.html" target="_top" xlink:title="The initialization class that provides methods for initialization of the solver. ">
<polygon fill="#ffffff" stroke="#000000" points="1228.5,-305 1228.5,-335 1355.5,-335 1355.5,-305 1228.5,-305"/>
<text text-anchor="start" x="1236.5" y="-323" font-family="Helvetica,sans-Serif" font-size="10.00" fill="#000000">schwz::Initialize&lt;</text>
<text text-anchor="middle" x="1292" y="-312" font-family="Helvetica,sans-Serif" font-size="10.00" fill="#000000"> ValueType, IndexType &gt;</text>
</a>
</g>
</g>
<!-- Node2&#45;&gt;Node1 -->
<g id="edge2" class="edge">
<title>Node2&#45;&gt;Node1</title>
<path fill="none" stroke="#191970" d="M1311.316,-297.0021C1346.5059,-255.1044 1420.1564,-167.415 1449.7687,-132.1581"/>
<polygon fill="#191970" stroke="#191970" points="1308.5666,-294.8335 1304.8152,-304.742 1313.9268,-299.3356 1308.5666,-294.8335"/>
</g>
<!-- Node3 -->
<g id="node4" class="node">
<title>Node3</title>
<g id="a_node4"><a xlink:href="structschwz_1_1Settings.html" target="_top" xlink:title="The struct that contains the solver settings and the parameters to be set by the user. ">
<polygon fill="#ffffff" stroke="#000000" points="937.5,-380.5 937.5,-399.5 1024.5,-399.5 1024.5,-380.5 937.5,-380.5"/>
<text text-anchor="middle" x="981" y="-387.5" font-family="Helvetica,sans-Serif" font-size="10.00" fill="#000000">schwz::Settings</text>
</a>
</g>
</g>
<!-- Node3&#45;&gt;Node2 -->
<g id="edge3" class="edge">
<title>Node3&#45;&gt;Node2</title>
<path fill="none" stroke="#191970" d="M1034.8628,-383.0066C1080.9916,-376.4154 1148.9629,-365.2674 1207,-350 1222.4369,-345.9391 1239.0665,-340.3517 1253.4876,-335.0988"/>
<polygon fill="#191970" stroke="#191970" points="1034.2004,-379.5653 1024.7852,-384.4237 1035.1752,-386.4971 1034.2004,-379.5653"/>
</g>
<!-- Node20 -->
<g id="node20" class="node">
<title>Node20</title>
<g id="a_node20"><a xlink:href="classschwz_1_1Solve.html" target="_top" xlink:title="The Solver class the provides the solver and the convergence checking methods. ">
<polygon fill="#ffffff" stroke="#000000" points="1225,-374 1225,-404 1359,-404 1359,-374 1225,-374"/>
<text text-anchor="start" x="1233" y="-392" font-family="Helvetica,sans-Serif" font-size="10.00" fill="#000000">schwz::Solve&lt; ValueType,</text>
<text text-anchor="middle" x="1292" y="-381" font-family="Helvetica,sans-Serif" font-size="10.00" fill="#000000"> IndexType &gt;</text>
</a>
</g>
</g>
<!-- Node3&#45;&gt;Node20 -->
<g id="edge26" class="edge">
<title>Node3&#45;&gt;Node20</title>
<path fill="none" stroke="#191970" d="M1034.7198,-389.8273C1087.3938,-389.6579 1167.8553,-389.3992 1224.7518,-389.2162"/>
<polygon fill="#191970" stroke="#191970" points="1034.5593,-386.3277 1024.5707,-389.8599 1034.5819,-393.3276 1034.5593,-386.3277"/>
</g>
<!-- Node4 -->
<g id="node5" class="node">
<title>Node4</title>
<g id="a_node5"><a xlink:href="structschwz_1_1Settings_1_1comm__settings.html" target="_top" xlink:title="The settings for the various available communication paradigms. ">
<polygon fill="#ffffff" stroke="#000000" points="617.5,-486 617.5,-516 737.5,-516 737.5,-486 617.5,-486"/>
<text text-anchor="start" x="625.5" y="-504" font-family="Helvetica,sans-Serif" font-size="10.00" fill="#000000">schwz::Settings::comm</text>
<text text-anchor="middle" x="677.5" y="-493" font-family="Helvetica,sans-Serif" font-size="10.00" fill="#000000">_settings</text>
</a>
</g>
</g>
<!-- Node4&#45;&gt;Node3 -->
<g id="edge4" class="edge">
<title>Node4&#45;&gt;Node3</title>
<path fill="none" stroke="#9a32cd" stroke-dasharray="5,2" d="M747.8982,-501.3979C790.207,-499.2271 844.1616,-492.0927 888,-472 925.571,-454.7799 959.098,-417.2649 973.5133,-399.5837"/>
<polygon fill="#9a32cd" stroke="#9a32cd" points="747.5225,-497.9107 737.6825,-501.8381 747.8239,-504.9043 747.5225,-497.9107"/>
<text text-anchor="middle" x="832.5" y="-501" font-family="Helvetica,sans-Serif" font-size="10.00" fill="#000000"> comm_settings</text>
</g>
<!-- Node5 -->
<g id="node6" class="node">
<title>Node5</title>
<g id="a_node6"><a xlink:title="STL class. ">
<polygon fill="#ffffff" stroke="#bfbfbf" points="647.5,-349.5 647.5,-368.5 707.5,-368.5 707.5,-349.5 647.5,-349.5"/>
<text text-anchor="middle" x="677.5" y="-356.5" font-family="Helvetica,sans-Serif" font-size="10.00" fill="#000000">std::string</text>
</a>
</g>
</g>
<!-- Node5&#45;&gt;Node3 -->
<g id="edge5" class="edge">
<title>Node5&#45;&gt;Node3</title>
<path fill="none" stroke="#9a32cd" stroke-dasharray="5,2" d="M717.7861,-363.1149C774.7763,-368.936 878.5281,-379.5333 937.3139,-385.5378"/>
<polygon fill="#9a32cd" stroke="#9a32cd" points="718.0142,-359.6201 707.7103,-362.0857 717.3029,-366.5838 718.0142,-359.6201"/>
<text text-anchor="middle" x="832.5" y="-460" font-family="Helvetica,sans-Serif" font-size="10.00" fill="#000000"> factorization</text>
<text text-anchor="middle" x="832.5" y="-449" font-family="Helvetica,sans-Serif" font-size="10.00" fill="#000000">metis_objtype</text>
<text text-anchor="middle" x="832.5" y="-438" font-family="Helvetica,sans-Serif" font-size="10.00" fill="#000000">thres_type</text>
<text text-anchor="middle" x="832.5" y="-427" font-family="Helvetica,sans-Serif" font-size="10.00" fill="#000000">matrix_filename</text>
<text text-anchor="middle" x="832.5" y="-416" font-family="Helvetica,sans-Serif" font-size="10.00" fill="#000000">norm_type</text>
<text text-anchor="middle" x="832.5" y="-405" font-family="Helvetica,sans-Serif" font-size="10.00" fill="#000000">reorder</text>
<text text-anchor="middle" x="832.5" y="-394" font-family="Helvetica,sans-Serif" font-size="10.00" fill="#000000">executor_string</text>
<text text-anchor="middle" x="832.5" y="-383" font-family="Helvetica,sans-Serif" font-size="10.00" fill="#000000">rhs_type</text>
</g>
<!-- Node9 -->
<g id="node9" class="node">
<title>Node9</title>
<g id="a_node9"><a xlink:href="structschwz_1_1Metadata.html" target="_top" xlink:title="The solver metadata struct. ">
<polygon fill="#ffffff" stroke="#000000" points="906,-271 906,-301 1056,-301 1056,-271 906,-271"/>
<text text-anchor="start" x="914" y="-289" font-family="Helvetica,sans-Serif" font-size="10.00" fill="#000000">schwz::Metadata&lt; ValueType,</text>
<text text-anchor="middle" x="981" y="-278" font-family="Helvetica,sans-Serif" font-size="10.00" fill="#000000"> IndexType &gt;</text>
</a>
</g>
</g>
<!-- Node5&#45;&gt;Node9 -->
<g id="edge11" class="edge">
<title>Node5&#45;&gt;Node9</title>
<path fill="none" stroke="#9a32cd" stroke-dasharray="5,2" d="M706.0881,-345.1113C725.6391,-336.1428 752.3758,-324.9006 777,-318 800.7756,-311.3372 858.03,-302.5796 905.8504,-295.9106"/>
<polygon fill="#9a32cd" stroke="#9a32cd" points="704.4189,-342.0279 696.839,-349.4304 707.3807,-348.3705 704.4189,-342.0279"/>
<text text-anchor="middle" x="832.5" y="-321" font-family="Helvetica,sans-Serif" font-size="10.00" fill="#000000"> local_precond</text>
</g>
<!-- Node6 -->
<g id="node7" class="node">
<title>Node6</title>
<polygon fill="#ffffff" stroke="#bfbfbf" points="272.5,-337 272.5,-367 367.5,-367 367.5,-337 272.5,-337"/>
<text text-anchor="start" x="280.5" y="-355" font-family="Helvetica,sans-Serif" font-size="10.00" fill="#000000">std::basic_string&lt;</text>
<text text-anchor="middle" x="320" y="-344" font-family="Helvetica,sans-Serif" font-size="10.00" fill="#000000"> char &gt;</text>
</g>
<!-- Node6&#45;&gt;Node5 -->
<g id="edge6" class="edge">
<title>Node6&#45;&gt;Node5</title>
<path fill="none" stroke="#191970" d="M377.8449,-353.1326C454.7087,-354.6377 587.715,-357.242 647.2107,-358.4069"/>
<polygon fill="#191970" stroke="#191970" points="377.9097,-349.6333 367.8431,-352.9368 377.7726,-356.632 377.9097,-349.6333"/>
</g>
<!-- Node8 -->
<g id="node8" class="node">
<title>Node8</title>
<g id="a_node8"><a xlink:href="structschwz_1_1Settings_1_1convergence__settings.html" target="_top" xlink:title="The various convergence settings available. ">
<polygon fill="#ffffff" stroke="#000000" points="603,-535 603,-565 752,-565 752,-535 603,-535"/>
<text text-anchor="start" x="611" y="-553" font-family="Helvetica,sans-Serif" font-size="10.00" fill="#000000">schwz::Settings::convergence</text>
<text text-anchor="middle" x="677.5" y="-542" font-family="Helvetica,sans-Serif" font-size="10.00" fill="#000000">_settings</text>
</a>
</g>
</g>
<!-- Node8&#45;&gt;Node3 -->
<g id="edge7" class="edge">
<title>Node8&#45;&gt;Node3</title>
<path fill="none" stroke="#9a32cd" stroke-dasharray="5,2" d="M762.4924,-549.2449C803.001,-545.4822 850.643,-535.837 888,-513 934.5959,-484.5151 965.9855,-423.3218 976.815,-399.6373"/>
<polygon fill="#9a32cd" stroke="#9a32cd" points="762.037,-545.7705 752.3579,-550.0792 762.6114,-552.7469 762.037,-545.7705"/>
<text text-anchor="middle" x="832.5" y="-550" font-family="Helvetica,sans-Serif" font-size="10.00" fill="#000000"> convergence_settings</text>
</g>
<!-- Node9&#45;&gt;Node2 -->
<g id="edge8" class="edge">
<title>Node9&#45;&gt;Node2</title>
<path fill="none" stroke="#191970" d="M1066.3497,-295.3308C1117.5772,-300.9313 1181.6557,-307.9366 1228.4256,-313.0497"/>
<polygon fill="#191970" stroke="#191970" points="1066.6056,-291.838 1056.2844,-294.2305 1065.8448,-298.7966 1066.6056,-291.838"/>
</g>
<!-- Node10 -->
<g id="node10" class="node">
<title>Node10</title>
<polygon fill="#ffffff" stroke="#bfbfbf" points="402,-233.5 402,-274.5 578,-274.5 578,-233.5 402,-233.5"/>
<text text-anchor="start" x="410" y="-262.5" font-family="Helvetica,sans-Serif" font-size="10.00" fill="#000000">std::vector&lt; std::tuple</text>
<text text-anchor="start" x="410" y="-251.5" font-family="Helvetica,sans-Serif" font-size="10.00" fill="#000000">&lt; int, int, int, std::</text>
<text text-anchor="middle" x="490" y="-240.5" font-family="Helvetica,sans-Serif" font-size="10.00" fill="#000000">string, std::vector&lt; ValueType &gt; &gt; &gt;</text>
</g>
<!-- Node10&#45;&gt;Node9 -->
<g id="edge9" class="edge">
<title>Node10&#45;&gt;Node9</title>
<path fill="none" stroke="#9a32cd" stroke-dasharray="5,2" d="M588.107,-260.3939C681.675,-266.4921 820.5989,-275.5462 905.7308,-281.0945"/>
<polygon fill="#9a32cd" stroke="#9a32cd" points="588.2708,-256.8973 578.0643,-259.7394 587.8155,-263.8825 588.2708,-256.8973"/>
<text text-anchor="middle" x="677.5" y="-275" font-family="Helvetica,sans-Serif" font-size="10.00" fill="#000000"> time_struct</text>
</g>
<!-- Node11 -->
<g id="node11" class="node">
<title>Node11</title>
<g id="a_node11"><a xlink:title="STL class. ">
<polygon fill="#ffffff" stroke="#bfbfbf" points="0,-199.5 0,-218.5 87,-218.5 87,-199.5 0,-199.5"/>
<text text-anchor="middle" x="43.5" y="-206.5" font-family="Helvetica,sans-Serif" font-size="10.00" fill="#000000">std::vector&lt; T &gt;</text>
</a>
</g>
</g>
<!-- Node11&#45;&gt;Node10 -->
<g id="edge10" class="edge">
<title>Node11&#45;&gt;Node10</title>
<path fill="none" stroke="#ffa500" stroke-dasharray="5,2" d="M97.353,-214.4275C172.8691,-222.0383 311.1217,-235.972 401.7839,-245.1092"/>
<polygon fill="#ffa500" stroke="#ffa500" points="97.4259,-210.9172 87.1253,-213.3967 96.7239,-217.8819 97.4259,-210.9172"/>
<text text-anchor="start" x="105" y="-253" font-family="Helvetica,sans-Serif" font-size="10.00" fill="#000000"> &lt; std::tuple&lt; int,</text>
<text text-anchor="start" x="105" y="-242" font-family="Helvetica,sans-Serif" font-size="10.00" fill="#000000"> int, int, std::string,</text>
<text text-anchor="middle" x="171.5" y="-231" font-family="Helvetica,sans-Serif" font-size="10.00" fill="#000000"> std::vector&lt; ValueType &gt; &gt; &gt;</text>
</g>
<!-- Node13 -->
<g id="node13" class="node">
<title>Node13</title>
<polygon fill="#ffffff" stroke="#bfbfbf" points="256,-168.5 256,-187.5 384,-187.5 384,-168.5 256,-168.5"/>
<text text-anchor="middle" x="320" y="-175.5" font-family="Helvetica,sans-Serif" font-size="10.00" fill="#000000">std::vector&lt; ValueType &gt;</text>
</g>
<!-- Node11&#45;&gt;Node13 -->
<g id="edge14" class="edge">
<title>Node11&#45;&gt;Node13</title>
<path fill="none" stroke="#ffa500" stroke-dasharray="5,2" d="M91.3657,-197.3979C95.9571,-196.4981 100.5567,-195.6778 105,-195 155.3401,-187.3215 212.8725,-183.0035 255.7482,-180.6426"/>
<polygon fill="#ffa500" stroke="#ffa500" points="90.4701,-194.0091 81.3911,-199.47 91.8939,-200.8628 90.4701,-194.0091"/>
<text text-anchor="middle" x="171.5" y="-198" font-family="Helvetica,sans-Serif" font-size="10.00" fill="#000000"> &lt; ValueType &gt;</text>
</g>
<!-- Node14 -->
<g id="node14" class="node">
<title>Node14</title>
<polygon fill="#ffffff" stroke="#bfbfbf" points="260.5,-119 260.5,-149 379.5,-149 379.5,-119 260.5,-119"/>
<text text-anchor="start" x="268.5" y="-137" font-family="Helvetica,sans-Serif" font-size="10.00" fill="#000000">std::vector&lt; std::vector</text>
<text text-anchor="middle" x="320" y="-126" font-family="Helvetica,sans-Serif" font-size="10.00" fill="#000000">&lt; ValueType &gt; &gt;</text>
</g>
<!-- Node11&#45;&gt;Node14 -->
<g id="edge16" class="edge">
<title>Node11&#45;&gt;Node14</title>
<path fill="none" stroke="#ffa500" stroke-dasharray="5,2" d="M62.4091,-192.7847C73.9672,-183.7528 89.4734,-173.1249 105,-167 155.0589,-147.2528 216.0056,-139.2648 260.2083,-136.0633"/>
<polygon fill="#ffa500" stroke="#ffa500" points="59.9651,-190.2605 54.4052,-199.2793 64.3757,-195.6962 59.9651,-190.2605"/>
<text text-anchor="middle" x="171.5" y="-170" font-family="Helvetica,sans-Serif" font-size="10.00" fill="#000000"> &lt; std::vector&lt; ValueType &gt; &gt;</text>
</g>
<!-- Node15 -->
<g id="node15" class="node">
<title>Node15</title>
<polygon fill="#ffffff" stroke="#bfbfbf" points="429,-280.5 429,-343.5 551,-343.5 551,-280.5 429,-280.5"/>
<text text-anchor="start" x="437" y="-331.5" font-family="Helvetica,sans-Serif" font-size="10.00" fill="#000000">std::vector&lt; std::tuple</text>
<text text-anchor="start" x="437" y="-320.5" font-family="Helvetica,sans-Serif" font-size="10.00" fill="#000000">&lt; int, std::vector&lt; std</text>
<text text-anchor="start" x="437" y="-309.5" font-family="Helvetica,sans-Serif" font-size="10.00" fill="#000000">::tuple&lt; int, int &gt; &gt;, std</text>
<text text-anchor="start" x="437" y="-298.5" font-family="Helvetica,sans-Serif" font-size="10.00" fill="#000000">::vector&lt; std::tuple&lt; int,</text>
<text text-anchor="middle" x="490" y="-287.5" font-family="Helvetica,sans-Serif" font-size="10.00" fill="#000000"> int &gt; &gt;, int, int &gt; &gt;</text>
</g>
<!-- Node11&#45;&gt;Node15 -->
<g id="edge18" class="edge">
<title>Node11&#45;&gt;Node15</title>
<path fill="none" stroke="#ffa500" stroke-dasharray="5,2" d="M57.5728,-226.6986C68.914,-239.6089 86.0502,-256.3081 105,-265 211.1909,-313.7079 350.2831,-317.982 428.9038,-315.6782"/>
<polygon fill="#ffa500" stroke="#ffa500" points="60.1131,-224.2814 50.9961,-218.884 54.7574,-228.7888 60.1131,-224.2814"/>
<text text-anchor="start" x="118" y="-351" font-family="Helvetica,sans-Serif" font-size="10.00" fill="#000000"> &lt; std::tuple&lt; int,</text>
<text text-anchor="start" x="118" y="-340" font-family="Helvetica,sans-Serif" font-size="10.00" fill="#000000"> std::vector&lt; std::tuple</text>
<text text-anchor="start" x="118" y="-329" font-family="Helvetica,sans-Serif" font-size="10.00" fill="#000000">&lt; int, int &gt; &gt;, std::vector</text>
<text text-anchor="start" x="118" y="-318" font-family="Helvetica,sans-Serif" font-size="10.00" fill="#000000">&lt; std::tuple&lt; int, int &gt; &gt;</text>
<text text-anchor="middle" x="171.5" y="-307" font-family="Helvetica,sans-Serif" font-size="10.00" fill="#000000">, int, int &gt; &gt;</text>
</g>
<!-- Node16 -->
<g id="node16" class="node">
<title>Node16</title>
<polygon fill="#ffffff" stroke="#bfbfbf" points="777,-336 777,-366 888,-366 888,-336 777,-336"/>
<text text-anchor="start" x="785" y="-354" font-family="Helvetica,sans-Serif" font-size="10.00" fill="#000000">std::vector&lt; unsigned</text>
<text text-anchor="middle" x="832.5" y="-343" font-family="Helvetica,sans-Serif" font-size="10.00" fill="#000000"> int &gt;</text>
</g>
<!-- Node11&#45;&gt;Node16 -->
<g id="edge20" class="edge">
<title>Node11&#45;&gt;Node16</title>
<path fill="none" stroke="#ffa500" stroke-dasharray="5,2" d="M44.9726,-228.6369C48.6507,-262.3272 61.3795,-330.6333 105,-363 143.6672,-391.6913 414.0084,-377.4647 596,-378 668.4441,-378.2131 688.1337,-393.0388 759,-378 767.5638,-376.1826 768.8507,-373.1986 777,-370 780.4129,-368.6604 783.9635,-367.3219 787.5455,-366.0105"/>
<polygon fill="#ffa500" stroke="#ffa500" points="48.4539,-228.2723 44.0406,-218.6404 41.4841,-228.9222 48.4539,-228.2723"/>
<text text-anchor="middle" x="320" y="-385" font-family="Helvetica,sans-Serif" font-size="10.00" fill="#000000"> &lt; unsigned int &gt;</text>
</g>
<!-- Node19 -->
<g id="node19" class="node">
<title>Node19</title>
<polygon fill="#ffffff" stroke="#bfbfbf" points="270.5,-60.5 270.5,-79.5 369.5,-79.5 369.5,-60.5 270.5,-60.5"/>
<text text-anchor="middle" x="320" y="-67.5" font-family="Helvetica,sans-Serif" font-size="10.00" fill="#000000">std::vector&lt; bool &gt;</text>
</g>
<!-- Node11&#45;&gt;Node19 -->
<g id="edge24" class="edge">
<title>Node11&#45;&gt;Node19</title>
<path fill="none" stroke="#ffa500" stroke-dasharray="5,2" d="M52.1274,-190.2678C62.0945,-170.7392 80.3416,-140.6988 105,-124 154.8706,-90.2274 224.1169,-77.5661 270.4113,-72.8258"/>
<polygon fill="#ffa500" stroke="#ffa500" points="48.9138,-188.8728 47.68,-199.3956 55.2066,-191.939 48.9138,-188.8728"/>
<text text-anchor="middle" x="171.5" y="-127" font-family="Helvetica,sans-Serif" font-size="10.00" fill="#000000"> &lt; bool &gt;</text>
</g>
<!-- Node12 -->
<g id="node12" class="node">
<title>Node12</title>
<g id="a_node12"><a xlink:href="structschwz_1_1Metadata_1_1post__process__data.html" target="_top" xlink:title="The struct used for storing data for post&#45;processing. ">
<polygon fill="#ffffff" stroke="#000000" points="596,-158 596,-188 759,-188 759,-158 596,-158"/>
<text text-anchor="start" x="604" y="-176" font-family="Helvetica,sans-Serif" font-size="10.00" fill="#000000">schwz::Metadata&lt; ValueType,</text>
<text text-anchor="middle" x="677.5" y="-165" font-family="Helvetica,sans-Serif" font-size="10.00" fill="#000000"> IndexType &gt;::post_process_data</text>
</a>
</g>
</g>
<!-- Node12&#45;&gt;Node9 -->
<g id="edge12" class="edge">
<title>Node12&#45;&gt;Node9</title>
<path fill="none" stroke="#9a32cd" stroke-dasharray="5,2" d="M769.2009,-181.419C807.1984,-187.282 850.9565,-197.2086 888,-214 918.872,-227.994 948.8107,-254.1134 966.0457,-270.7491"/>
<polygon fill="#9a32cd" stroke="#9a32cd" points="769.5642,-177.9348 759.1613,-179.9426 768.5456,-184.8604 769.5642,-177.9348"/>
<text text-anchor="middle" x="832.5" y="-217" font-family="Helvetica,sans-Serif" font-size="10.00" fill="#000000"> post_process_data</text>
</g>
<!-- Node13&#45;&gt;Node1 -->
<g id="edge27" class="edge">
<title>Node13&#45;&gt;Node1</title>
<path fill="none" stroke="#9a32cd" stroke-dasharray="5,2" d="M372.9759,-164.433C376.8516,-162.5518 380.5773,-160.4182 384,-158 394.8896,-150.3062 390.1225,-140.0582 402,-134 490.0652,-89.0816 1176.6523,-107.5615 1395.6292,-114.6832"/>
<polygon fill="#9a32cd" stroke="#9a32cd" points="371.5545,-161.2341 363.7319,-168.3796 374.3031,-167.6719 371.5545,-161.2341"/>
<text text-anchor="middle" x="981" y="-110" font-family="Helvetica,sans-Serif" font-size="10.00" fill="#000000"> local_residual_vector_out</text>
</g>
<!-- Node13&#45;&gt;Node12 -->
<g id="edge13" class="edge">
<title>Node13&#45;&gt;Node12</title>
<path fill="none" stroke="#9a32cd" stroke-dasharray="5,2" d="M394.3866,-169.477C396.9539,-169.2972 399.4975,-169.1369 402,-169 467.0777,-165.4394 540.9228,-166.8019 595.7685,-168.8558"/>
<polygon fill="#9a32cd" stroke="#9a32cd" points="394.0992,-165.9886 384.4031,-170.2589 394.6459,-172.9673 394.0992,-165.9886"/>
<text text-anchor="middle" x="490" y="-216" font-family="Helvetica,sans-Serif" font-size="10.00" fill="#000000"> local_converged_resnorm</text>
<text text-anchor="start" x="432.5" y="-205" font-family="Helvetica,sans-Serif" font-size="10.00" fill="#000000">local_residual_vector</text>
<text text-anchor="middle" x="490" y="-194" font-family="Helvetica,sans-Serif" font-size="10.00" fill="#000000">_out</text>
<text text-anchor="start" x="432.5" y="-183" font-family="Helvetica,sans-Serif" font-size="10.00" fill="#000000">local_converged_iter</text>
<text text-anchor="middle" x="490" y="-172" font-family="Helvetica,sans-Serif" font-size="10.00" fill="#000000">_count</text>
</g>
<!-- Node14&#45;&gt;Node1 -->
<g id="edge28" class="edge">
<title>Node14&#45;&gt;Node1</title>
<path fill="none" stroke="#9a32cd" stroke-dasharray="5,2" d="M352.0443,-113.8624C366.7176,-105.6378 384.6701,-96.9181 402,-92 520.1679,-58.465 554.6658,-70 677.5,-70 677.5,-70 677.5,-70 1292,-70 1340.9741,-70 1395.1078,-88.2448 1428.9607,-101.9997"/>
<polygon fill="#9a32cd" stroke="#9a32cd" points="350.2711,-110.8447 343.3668,-118.8809 353.7757,-116.9042 350.2711,-110.8447"/>
<text text-anchor="middle" x="981" y="-73" font-family="Helvetica,sans-Serif" font-size="10.00" fill="#000000"> global_residual_vector_out</text>
</g>
<!-- Node14&#45;&gt;Node12 -->
<g id="edge15" class="edge">
<title>Node14&#45;&gt;Node12</title>
<path fill="none" stroke="#9a32cd" stroke-dasharray="5,2" d="M389.8058,-136.2559C441.8697,-138.5715 514.6323,-143.1458 578,-152 589.2778,-153.5758 601.189,-155.6907 612.6984,-157.9729"/>
<polygon fill="#9a32cd" stroke="#9a32cd" points="389.8185,-132.7533 379.6779,-135.8223 389.519,-139.7469 389.8185,-132.7533"/>
<text text-anchor="middle" x="490" y="-155" font-family="Helvetica,sans-Serif" font-size="10.00" fill="#000000"> global_residual_vector_out</text>
</g>
<!-- Node15&#45;&gt;Node9 -->
<g id="edge17" class="edge">
<title>Node15&#45;&gt;Node9</title>
<path fill="none" stroke="#9a32cd" stroke-dasharray="5,2" d="M561.229,-308.2282C653.0496,-303.366 812.014,-294.9483 905.7478,-289.9848"/>
<polygon fill="#9a32cd" stroke="#9a32cd" points="560.9936,-304.7357 551.1927,-308.7597 561.3638,-311.7259 560.9936,-304.7357"/>
<text text-anchor="middle" x="677.5" y="-310" font-family="Helvetica,sans-Serif" font-size="10.00" fill="#000000"> comm_data_struct</text>
</g>
<!-- Node16&#45;&gt;Node2 -->
<g id="edge19" class="edge">
<title>Node16&#45;&gt;Node2</title>
<path fill="none" stroke="#9a32cd" stroke-dasharray="5,2" d="M898.5261,-346.5456C986.625,-340.602 1141.5742,-330.1484 1228.4168,-324.2896"/>
<polygon fill="#9a32cd" stroke="#9a32cd" points="898.126,-343.0645 888.3843,-347.2298 898.5973,-350.0486 898.126,-343.0645"/>
<text text-anchor="middle" x="981" y="-360" font-family="Helvetica,sans-Serif" font-size="10.00" fill="#000000"> cell_weights</text>
<text text-anchor="middle" x="981" y="-349" font-family="Helvetica,sans-Serif" font-size="10.00" fill="#000000">partition_indices</text>
</g>
<!-- Node17 -->
<g id="node17" class="node">
<title>Node17</title>
<g id="a_node17"><a xlink:href="classschwz_1_1Communicate.html" target="_top" xlink:title="The communication class that provides the methods for the communication between the subdomains...">
<polygon fill="#ffffff" stroke="#000000" points="1074,-12 1074,-42 1207,-42 1207,-12 1074,-12"/>
<text text-anchor="start" x="1082" y="-30" font-family="Helvetica,sans-Serif" font-size="10.00" fill="#000000">schwz::Communicate</text>
<text text-anchor="middle" x="1140.5" y="-19" font-family="Helvetica,sans-Serif" font-size="10.00" fill="#000000">&lt; ValueType, IndexType &gt;</text>
</a>
</g>
</g>
<!-- Node17&#45;&gt;Node1 -->
<g id="edge21" class="edge">
<title>Node17&#45;&gt;Node1</title>
<path fill="none" stroke="#191970" d="M1217.4341,-26.7284C1265.1249,-28.8826 1326.8334,-35.9548 1378,-56 1404.7861,-66.4938 1430.8954,-87.4836 1446.8356,-101.8832"/>
<polygon fill="#191970" stroke="#191970" points="1217.3004,-23.2207 1207.1722,-26.3305 1217.0291,-30.2154 1217.3004,-23.2207"/>
</g>
<!-- Node18 -->
<g id="node18" class="node">
<title>Node18</title>
<g id="a_node18"><a xlink:href="structschwz_1_1Communicate_1_1comm__struct.html" target="_top" xlink:title="The communication struct used to store the communication data. ">
<polygon fill="#ffffff" stroke="#000000" points="615.5,-.5 615.5,-41.5 739.5,-41.5 739.5,-.5 615.5,-.5"/>
<text text-anchor="start" x="623.5" y="-29.5" font-family="Helvetica,sans-Serif" font-size="10.00" fill="#000000">schwz::Communicate</text>
<text text-anchor="start" x="623.5" y="-18.5" font-family="Helvetica,sans-Serif" font-size="10.00" fill="#000000">&lt; ValueType, IndexType</text>
<text text-anchor="middle" x="677.5" y="-7.5" font-family="Helvetica,sans-Serif" font-size="10.00" fill="#000000"> &gt;::comm_struct</text>
</a>
</g>
</g>
<!-- Node18&#45;&gt;Node17 -->
<g id="edge22" class="edge">
<title>Node18&#45;&gt;Node17</title>
<path fill="none" stroke="#9a32cd" stroke-dasharray="5,2" d="M750.1959,-21.9421C838.9646,-23.0924 987.8661,-25.022 1073.813,-26.1358"/>
<polygon fill="#9a32cd" stroke="#9a32cd" points="749.9868,-18.4392 739.9422,-21.8092 749.896,-25.4386 749.9868,-18.4392"/>
<text text-anchor="middle" x="832.5" y="-27" font-family="Helvetica,sans-Serif" font-size="10.00" fill="#000000"> comm_struct</text>
</g>
<!-- Node19&#45;&gt;Node18 -->
<g id="edge23" class="edge">
<title>Node19&#45;&gt;Node18</title>
<path fill="none" stroke="#9a32cd" stroke-dasharray="5,2" d="M356.0773,-57.2193C370.2299,-52.6776 386.7153,-47.9619 402,-45 474.4688,-30.9568 559.2639,-25.125 615.4396,-22.7067"/>
<polygon fill="#9a32cd" stroke="#9a32cd" points="354.6339,-54.0099 346.2349,-60.468 356.828,-60.6572 354.6339,-54.0099"/>
<text text-anchor="middle" x="490" y="-48" font-family="Helvetica,sans-Serif" font-size="10.00" fill="#000000"> is_local_neighbor</text>
</g>
<!-- Node20&#45;&gt;Node1 -->
<g id="edge25" class="edge">
<title>Node20&#45;&gt;Node1</title>
<path fill="none" stroke="#191970" d="M1330.2874,-368.5094C1340.5463,-361.7109 1350.9973,-353.4326 1359,-344 1416.5833,-276.1283 1448.412,-170.9477 1458.7286,-132.0918"/>
<polygon fill="#191970" stroke="#191970" points="1328.3742,-365.578 1321.773,-373.865 1332.1013,-371.5033 1328.3742,-365.578"/>
</g>
</g>
</svg>
        <g id="navigator" transform="translate(0 0)" fill="#404254">
                <rect fill="#f2f5e9" fill-opacity="0.5" stroke="#606060" stroke-width=".5" x="0" y="0" width="60" height="60"/>
                <use id="zoomplus" xlink:href="#zoomPlus" x="17" y="9" onmousedown="handleZoom(evt,'in')"/>
                <use id="zoomminus" xlink:href="#zoomMin" x="42" y="9" onmousedown="handleZoom(evt,'out')"/>
                <use id="reset" xlink:href="#resetDef" x="30" y="36" onmousedown="handleReset()"/>
                <g id="arrowUp" xlink:href="#dirArrow" transform="translate(30 24)" onmousedown="handlePan(0,-1)">
                  <use xlink:href="#rim" fill="#404040">
                        <set attributeName="fill" to="#808080" begin="arrowUp.mouseover" end="arrowUp.mouseout"/>
                  </use>
                  <path fill="none" stroke="white" stroke-width="1.5" d="M0,-3.0v7 M-2.5,-0.5L0,-3.0L2.5,-0.5"/>
                </g>
                <g id="arrowRight" xlink:href="#dirArrow" transform="rotate(90) translate(36 -43)" onmousedown="handlePan(1,0)">
                  <use xlink:href="#rim" fill="#404040">
                        <set attributeName="fill" to="#808080" begin="arrowRight.mouseover" end="arrowRight.mouseout"/>
                  </use>
                  <path fill="none" stroke="white" stroke-width="1.5" d="M0,-3.0v7 M-2.5,-0.5L0,-3.0L2.5,-0.5"/>
                </g>
                <g id="arrowDown" xlink:href="#dirArrow" transform="rotate(180) translate(-30 -48)" onmousedown="handlePan(0,1)">
                  <use xlink:href="#rim" fill="#404040">
                        <set attributeName="fill" to="#808080" begin="arrowDown.mouseover" end="arrowDown.mouseout"/>
                  </use>
                  <path fill="none" stroke="white" stroke-width="1.5" d="M0,-3.0v7 M-2.5,-0.5L0,-3.0L2.5,-0.5"/>
                </g>
                <g id="arrowLeft" xlink:href="#dirArrow" transform="rotate(270) translate(-36 17)" onmousedown="handlePan(-1,0)">
                  <use xlink:href="#rim" fill="#404040">
                        <set attributeName="fill" to="#808080" begin="arrowLeft.mouseover" end="arrowLeft.mouseout"/>
                  </use>
                  <path fill="none" stroke="white" stroke-width="1.5" d="M0,-3.0v7 M-2.5,-0.5L0,-3.0L2.5,-0.5"/>
                </g>
        </g>
        <svg viewBox="0 0 15 15" width="100%" height="30px" preserveAspectRatio="xMaxYMin meet">
         <g id="arrow_out" transform="scale(0.3 0.3)">
          <a xlink:href="classschwz_1_1SolverRAS__coll__graph_org.svg" target="_base">
           <rect id="button" ry="5" rx="5" y="6" x="6" height="38" width="38"
                fill="#f2f5e9" fill-opacity="0.5" stroke="#606060" stroke-width="1.0"/>
           <path id="arrow"
             d="M 11.500037,31.436501 C 11.940474,20.09759 22.043105,11.32322 32.158766,21.979434 L 37.068811,17.246167 C 37.068811,17.246167 37.088388,32 37.088388,32 L 22.160133,31.978069 C 22.160133,31.978069 26.997745,27.140456 26.997745,27.140456 C 18.528582,18.264221 13.291696,25.230495 11.500037,31.436501 z"
             style="fill:#404040;"/>
          </a>
         </g>
        </svg>
</svg>
