<?xml version="1.0" encoding="UTF-8" standalone="no"?>
<!DOCTYPE svg PUBLIC "-//W3C//DTD SVG 1.1//EN"
 "http://www.w3.org/Graphics/SVG/1.1/DTD/svg11.dtd">
<!-- Generated by graphviz version 2.40.1 (20161225.0304)
 -->
<!-- Title: schwz::Solve&lt; ValueType, IndexType &gt; Pages: 1 -->
<svg width="389pt" height="386pt"
 viewBox="0.00 0.00 389.00 386.00" xmlns="http://www.w3.org/2000/svg" xmlns:xlink="http://www.w3.org/1999/xlink">
<g id="graph0" class="graph" transform="scale(1 1) rotate(0) translate(4 382)">
<title>schwz::Solve&lt; ValueType, IndexType &gt;</title>
<polygon fill="#ffffff" stroke="transparent" points="-4,4 -4,-382 385,-382 385,4 -4,4"/>
<!-- Node0 -->
<g id="node1" class="node">
<title>Node0</title>
<polygon fill="#bfbfbf" stroke="#000000" points="101,-.5 101,-30.5 235,-30.5 235,-.5 101,-.5"/>
<text text-anchor="start" x="109" y="-18.5" font-family="Helvetica,sans-Serif" font-size="10.00" fill="#000000">schwz::Solve&lt; ValueType,</text>
<text text-anchor="middle" x="168" y="-7.5" font-family="Helvetica,sans-Serif" font-size="10.00" fill="#000000"> IndexType &gt;</text>
</g>
<!-- Node1 -->
<g id="node2" class="node">
<title>Node1</title>
<g id="a_node2"><a xlink:href="structschwz_1_1Settings.html" target="_top" xlink:title="The struct that contains the solver settings and the parameters to be set by the user. ">
<polygon fill="#ffffff" stroke="#000000" points="124.5,-68.5 124.5,-87.5 211.5,-87.5 211.5,-68.5 124.5,-68.5"/>
<text text-anchor="middle" x="168" y="-75.5" font-family="Helvetica,sans-Serif" font-size="10.00" fill="#000000">schwz::Settings</text>
</a>
</g>
</g>
<!-- Node1&#45;&gt;Node0 -->
<g id="edge1" class="edge">
<title>Node1&#45;&gt;Node0</title>
<path fill="none" stroke="#191970" d="M168,-58.0501C168,-49.2205 168,-39.0001 168,-30.7892"/>
<polygon fill="#191970" stroke="#191970" points="164.5001,-58.2343 168,-68.2344 171.5001,-58.2344 164.5001,-58.2343"/>
</g>
<!-- Node2 -->
<g id="node3" class="node">
<title>Node2</title>
<g id="a_node3"><a xlink:href="structschwz_1_1Settings_1_1comm__settings.html" target="_top" xlink:title="The settings for the various available communication paradigms. ">
<polygon fill="#ffffff" stroke="#000000" points="0,-201.5 0,-231.5 120,-231.5 120,-201.5 0,-201.5"/>
<text text-anchor="start" x="8" y="-219.5" font-family="Helvetica,sans-Serif" font-size="10.00" fill="#000000">schwz::Settings::comm</text>
<text text-anchor="middle" x="60" y="-208.5" font-family="Helvetica,sans-Serif" font-size="10.00" fill="#000000">_settings</text>
</a>
</g>
</g>
<!-- Node2&#45;&gt;Node1 -->
<g id="edge2" class="edge">
<title>Node2&#45;&gt;Node1</title>
<path fill="none" stroke="#9a32cd" stroke-dasharray="5,2" d="M61.5159,-191.1417C64.2919,-166.4503 72.1017,-129.3286 94,-106 102.0849,-97.387 113.0889,-91.401 124.1384,-87.2489"/>
<polygon fill="#9a32cd" stroke="#9a32cd" points="58.0214,-190.9217 60.5849,-201.2017 64.9916,-191.5668 58.0214,-190.9217"/>
<text text-anchor="middle" x="129" y="-142" font-family="Helvetica,sans-Serif" font-size="10.00" fill="#000000"> comm_settings</text>
</g>
<!-- Node3 -->
<g id="node4" class="node">
<title>Node3</title>
<g id="a_node4"><a xlink:title="STL class. ">
<polygon fill="#ffffff" stroke="#bfbfbf" points="138,-207 138,-226 198,-226 198,-207 138,-207"/>
<text text-anchor="middle" x="168" y="-214" font-family="Helvetica,sans-Serif" font-size="10.00" fill="#000000">std::string</text>
</a>
</g>
</g>
<!-- Node3&#45;&gt;Node1 -->
<g id="edge3" class="edge">
<title>Node3&#45;&gt;Node1</title>
<path fill="none" stroke="#9a32cd" stroke-dasharray="5,2" d="M168,-196.8365C168,-166.6666 168,-110.0893 168,-87.5863"/>
<polygon fill="#9a32cd" stroke="#9a32cd" points="164.5001,-196.9803 168,-206.9803 171.5001,-196.9804 164.5001,-196.9803"/>
<text text-anchor="middle" x="203" y="-175" font-family="Helvetica,sans-Serif" font-size="10.00" fill="#000000"> factorization</text>
<text text-anchor="middle" x="203" y="-164" font-family="Helvetica,sans-Serif" font-size="10.00" fill="#000000">metis_objtype</text>
<text text-anchor="middle" x="203" y="-153" font-family="Helvetica,sans-Serif" font-size="10.00" fill="#000000">thres_type</text>
<text text-anchor="middle" x="203" y="-142" font-family="Helvetica,sans-Serif" font-size="10.00" fill="#000000">matrix_filename</text>
<text text-anchor="middle" x="203" y="-131" font-family="Helvetica,sans-Serif" font-size="10.00" fill="#000000">reorder</text>
<text text-anchor="middle" x="203" y="-120" font-family="Helvetica,sans-Serif" font-size="10.00" fill="#000000">executor_string</text>
<text text-anchor="middle" x="203" y="-109" font-family="Helvetica,sans-Serif" font-size="10.00" fill="#000000">rhs_type</text>
</g>
<!-- Node4 -->
<g id="node5" class="node">
<title>Node4</title>
<polygon fill="#ffffff" stroke="#bfbfbf" points="120.5,-269.5 120.5,-299.5 215.5,-299.5 215.5,-269.5 120.5,-269.5"/>
<text text-anchor="start" x="128.5" y="-287.5" font-family="Helvetica,sans-Serif" font-size="10.00" fill="#000000">std::basic_string&lt;</text>
<text text-anchor="middle" x="168" y="-276.5" font-family="Helvetica,sans-Serif" font-size="10.00" fill="#000000"> char &gt;</text>
</g>
<!-- Node4&#45;&gt;Node3 -->
<g id="edge4" class="edge">
<title>Node4&#45;&gt;Node3</title>
<path fill="none" stroke="#191970" d="M168,-259.0669C168,-247.6483 168,-234.8507 168,-226.297"/>
<polygon fill="#191970" stroke="#191970" points="164.5001,-259.4086 168,-269.4086 171.5001,-259.4086 164.5001,-259.4086"/>
</g>
<!-- Node5 -->
<g id="node6" class="node">
<title>Node5</title>
<g id="a_node6"><a xlink:title="STL class. ">
<polygon fill="#ffffff" stroke="#bfbfbf" points="120.5,-347.5 120.5,-377.5 215.5,-377.5 215.5,-347.5 120.5,-347.5"/>
<text text-anchor="start" x="128.5" y="-365.5" font-family="Helvetica,sans-Serif" font-size="10.00" fill="#000000">std::basic_string&lt;</text>
<text text-anchor="middle" x="168" y="-354.5" font-family="Helvetica,sans-Serif" font-size="10.00" fill="#000000"> Char &gt;</text>
</a>
</g>
</g>
<!-- Node5&#45;&gt;Node4 -->
<g id="edge5" class="edge">
<title>Node5&#45;&gt;Node4</title>
<path fill="none" stroke="#ffa500" stroke-dasharray="5,2" d="M168,-337.2875C168,-324.9187 168,-310.4264 168,-299.7592"/>
<polygon fill="#ffa500" stroke="#ffa500" points="164.5001,-337.4608 168,-347.4608 171.5001,-337.4608 164.5001,-337.4608"/>
<text text-anchor="middle" x="188" y="-321" font-family="Helvetica,sans-Serif" font-size="10.00" fill="#000000"> &lt; char &gt;</text>
</g>
<!-- Node6 -->
<g id="node7" class="node">
<title>Node6</title>
<g id="a_node7"><a xlink:href="structschwz_1_1Settings_1_1convergence__settings.html" target="_top" xlink:title="The various convergence settings available. ">
<polygon fill="#ffffff" stroke="#000000" points="215.5,-201.5 215.5,-231.5 364.5,-231.5 364.5,-201.5 215.5,-201.5"/>
<text text-anchor="start" x="223.5" y="-219.5" font-family="Helvetica,sans-Serif" font-size="10.00" fill="#000000">schwz::Settings::convergence</text>
<text text-anchor="middle" x="290" y="-208.5" font-family="Helvetica,sans-Serif" font-size="10.00" fill="#000000">_settings</text>
</a>
</g>
</g>
<!-- Node6&#45;&gt;Node1 -->
<g id="edge6" class="edge">
<title>Node6&#45;&gt;Node1</title>
<path fill="none" stroke="#9a32cd" stroke-dasharray="5,2" d="M285.1464,-191.7408C279.0773,-166.9481 266.3768,-129.2323 242,-106 233.2497,-97.6605 221.7711,-91.7458 210.4739,-87.5743"/>
<polygon fill="#9a32cd" stroke="#9a32cd" points="281.7332,-192.5157 287.3562,-201.4952 288.5602,-190.969 281.7332,-192.5157"/>
<text text-anchor="middle" x="331.5" y="-142" font-family="Helvetica,sans-Serif" font-size="10.00" fill="#000000"> convergence_settings</text>
</g>
</g>
</svg>
