<?xml version="1.0" encoding="UTF-8" standalone="no"?>
<!DOCTYPE svg PUBLIC "-//W3C//DTD SVG 1.1//EN"
 "http://www.w3.org/Graphics/SVG/1.1/DTD/svg11.dtd">
<!-- Generated by graphviz version 2.40.1 (20161225.0304)
 -->
<!-- Title: schwz::Solve&lt; ValueType, IndexType &gt; Pages: 1 -->
<svg width="387pt" height="375pt"
 viewBox="0.00 0.00 387.00 375.00" xmlns="http://www.w3.org/2000/svg" xmlns:xlink="http://www.w3.org/1999/xlink">
<g id="graph0" class="graph" transform="scale(1 1) rotate(0) translate(4 371)">
<title>schwz::Solve&lt; ValueType, IndexType &gt;</title>
<polygon fill="#ffffff" stroke="transparent" points="-4,4 -4,-371 383,-371 383,4 -4,4"/>
<!-- Node0 -->
<g id="node1" class="node">
<title>Node0</title>
<polygon fill="#bfbfbf" stroke="#000000" points="101,-.5 101,-30.5 235,-30.5 235,-.5 101,-.5"/>
<text text-anchor="start" x="109" y="-18.5" font-family="Helvetica,sans-Serif" font-size="10.00" fill="#000000">schwz::Solve&lt; ValueType,</text>
<text text-anchor="middle" x="168" y="-7.5" font-family="Helvetica,sans-Serif" font-size="10.00" fill="#000000"> IndexType &gt;</text>
</g>
<!-- Node1 -->
<g id="node2" class="node">
<title>Node1</title>
<g id="a_node2"><a xlink:href="structschwz_1_1Settings.html" target="_top" xlink:title="The struct that contains the solver settings and the parameters to be set by the user. ">
<polygon fill="#ffffff" stroke="#000000" points="124.5,-68.5 124.5,-87.5 211.5,-87.5 211.5,-68.5 124.5,-68.5"/>
<text text-anchor="middle" x="168" y="-75.5" font-family="Helvetica,sans-Serif" font-size="10.00" fill="#000000">schwz::Settings</text>
</a>
</g>
</g>
<!-- Node1&#45;&gt;Node0 -->
<g id="edge1" class="edge">
<title>Node1&#45;&gt;Node0</title>
<path fill="none" stroke="#191970" d="M168,-58.0501C168,-49.2205 168,-39.0001 168,-30.7892"/>
<polygon fill="#191970" stroke="#191970" points="164.5001,-58.2343 168,-68.2344 171.5001,-58.2344 164.5001,-58.2343"/>
</g>
<!-- Node2 -->
<g id="node3" class="node">
<title>Node2</title>
<g id="a_node3"><a xlink:href="structschwz_1_1Settings_1_1comm__settings.html" target="_top" xlink:title="The settings for the various available communication paradigms. ">
<polygon fill="#ffffff" stroke="#000000" points="0,-190.5 0,-220.5 120,-220.5 120,-190.5 0,-190.5"/>
<text text-anchor="start" x="8" y="-208.5" font-family="Helvetica,sans-Serif" font-size="10.00" fill="#000000">schwz::Settings::comm</text>
<text text-anchor="middle" x="60" y="-197.5" font-family="Helvetica,sans-Serif" font-size="10.00" fill="#000000">_settings</text>
</a>
</g>
</g>
<!-- Node2&#45;&gt;Node1 -->
<g id="edge2" class="edge">
<title>Node2&#45;&gt;Node1</title>
<path fill="none" stroke="#9a32cd" stroke-dasharray="5,2" d="M62.5909,-180.2451C66.1331,-158.0314 74.4684,-126.1761 94,-106 102.2164,-97.5124 113.2637,-91.5675 124.3125,-87.4148"/>
<polygon fill="#9a32cd" stroke="#9a32cd" points="59.1058,-179.898 61.209,-190.282 66.0404,-180.8529 59.1058,-179.898"/>
<text text-anchor="middle" x="129" y="-136.5" font-family="Helvetica,sans-Serif" font-size="10.00" fill="#000000"> comm_settings</text>
</g>
<!-- Node3 -->
<g id="node4" class="node">
<title>Node3</title>
<g id="a_node4"><a xlink:title="STL class. ">
<polygon fill="#ffffff" stroke="#bfbfbf" points="138,-196 138,-215 198,-215 198,-196 138,-196"/>
<text text-anchor="middle" x="168" y="-203" font-family="Helvetica,sans-Serif" font-size="10.00" fill="#000000">std::string</text>
</a>
</g>
</g>
<!-- Node3&#45;&gt;Node1 -->
<g id="edge3" class="edge">
<title>Node3&#45;&gt;Node1</title>
<path fill="none" stroke="#9a32cd" stroke-dasharray="5,2" d="M168,-185.8276C168,-158.0954 168,-108.564 168,-87.6944"/>
<polygon fill="#9a32cd" stroke="#9a32cd" points="164.5001,-185.9167 168,-195.9168 171.5001,-185.9168 164.5001,-185.9167"/>
<text text-anchor="middle" x="203" y="-164" font-family="Helvetica,sans-Serif" font-size="10.00" fill="#000000"> factorization</text>
<text text-anchor="middle" x="203" y="-153" font-family="Helvetica,sans-Serif" font-size="10.00" fill="#000000">metis_objtype</text>
<text text-anchor="middle" x="203" y="-142" font-family="Helvetica,sans-Serif" font-size="10.00" fill="#000000">matrix_filename</text>
<text text-anchor="middle" x="203" y="-131" font-family="Helvetica,sans-Serif" font-size="10.00" fill="#000000">reorder</text>
<text text-anchor="middle" x="203" y="-120" font-family="Helvetica,sans-Serif" font-size="10.00" fill="#000000">executor_string</text>
<text text-anchor="middle" x="203" y="-109" font-family="Helvetica,sans-Serif" font-size="10.00" fill="#000000">rhs_type</text>
</g>
<!-- Node4 -->
<g id="node5" class="node">
<title>Node4</title>
<polygon fill="#ffffff" stroke="#bfbfbf" points="120.5,-258.5 120.5,-288.5 215.5,-288.5 215.5,-258.5 120.5,-258.5"/>
<text text-anchor="start" x="128.5" y="-276.5" font-family="Helvetica,sans-Serif" font-size="10.00" fill="#000000">std::basic_string&lt;</text>
<text text-anchor="middle" x="168" y="-265.5" font-family="Helvetica,sans-Serif" font-size="10.00" fill="#000000"> char &gt;</text>
</g>
<!-- Node4&#45;&gt;Node3 -->
<g id="edge4" class="edge">
<title>Node4&#45;&gt;Node3</title>
<path fill="none" stroke="#191970" d="M168,-248.0669C168,-236.6483 168,-223.8507 168,-215.297"/>
<polygon fill="#191970" stroke="#191970" points="164.5001,-248.4086 168,-258.4086 171.5001,-248.4086 164.5001,-248.4086"/>
</g>
<!-- Node5 -->
<g id="node6" class="node">
<title>Node5</title>
<g id="a_node6"><a xlink:title="STL class. ">
<polygon fill="#ffffff" stroke="#bfbfbf" points="120.5,-336.5 120.5,-366.5 215.5,-366.5 215.5,-336.5 120.5,-336.5"/>
<text text-anchor="start" x="128.5" y="-354.5" font-family="Helvetica,sans-Serif" font-size="10.00" fill="#000000">std::basic_string&lt;</text>
<text text-anchor="middle" x="168" y="-343.5" font-family="Helvetica,sans-Serif" font-size="10.00" fill="#000000"> Char &gt;</text>
</a>
</g>
</g>
<!-- Node5&#45;&gt;Node4 -->
<g id="edge5" class="edge">
<title>Node5&#45;&gt;Node4</title>
<path fill="none" stroke="#ffa500" stroke-dasharray="5,2" d="M168,-326.2875C168,-313.9187 168,-299.4264 168,-288.7592"/>
<polygon fill="#ffa500" stroke="#ffa500" points="164.5001,-326.4608 168,-336.4608 171.5001,-326.4608 164.5001,-326.4608"/>
<text text-anchor="middle" x="188" y="-310" font-family="Helvetica,sans-Serif" font-size="10.00" fill="#000000"> &lt; char &gt;</text>
</g>
<!-- Node6 -->
<g id="node7" class="node">
<title>Node6</title>
<g id="a_node7"><a xlink:href="structschwz_1_1Settings_1_1convergence__settings.html" target="_top" xlink:title="The various convergence settings available. ">
<polygon fill="#ffffff" stroke="#000000" points="215.5,-190.5 215.5,-220.5 364.5,-220.5 364.5,-190.5 215.5,-190.5"/>
<text text-anchor="start" x="223.5" y="-208.5" font-family="Helvetica,sans-Serif" font-size="10.00" fill="#000000">schwz::Settings::convergence</text>
<text text-anchor="middle" x="290" y="-197.5" font-family="Helvetica,sans-Serif" font-size="10.00" fill="#000000">_settings</text>
</a>
</g>
</g>
<!-- Node6&#45;&gt;Node1 -->
<g id="edge6" class="edge">
<title>Node6&#45;&gt;Node1</title>
<path fill="none" stroke="#9a32cd" stroke-dasharray="5,2" d="M283.6556,-180.4293C276.8155,-158.1227 263.8557,-126.0174 242,-106 232.8834,-97.6502 221.0308,-91.7107 209.4927,-87.5187"/>
<polygon fill="#9a32cd" stroke="#9a32cd" points="280.337,-181.5541 286.456,-190.2033 287.0662,-179.626 280.337,-181.5541"/>
<text text-anchor="middle" x="329.5" y="-136.5" font-family="Helvetica,sans-Serif" font-size="10.00" fill="#000000"> convergence_settings</text>
</g>
</g>
</svg>
