<?xml version="1.0" encoding="UTF-8" standalone="no"?>
<!DOCTYPE svg PUBLIC "-//W3C//DTD SVG 1.1//EN"
 "http://www.w3.org/Graphics/SVG/1.1/DTD/svg11.dtd">
<!-- Generated by graphviz version 2.40.1 (20161225.0304)
 -->
<!-- Title: schwz::SchwarzBase&lt; ValueType, IndexType &gt; Pages: 1 -->
<!--zoomable 568 -->
<svg id="main" version="1.1" xmlns="http://www.w3.org/2000/svg" xmlns:xlink="http://www.w3.org/1999/xlink" xml:space="preserve" onload="init(evt)">
<style type="text/css"><![CDATA[
.edge:hover path { stroke: red; }
.edge:hover polygon { stroke: red; fill: red; }
]]></style>
<script type="text/javascript"><![CDATA[
var edges = document.getElementsByTagName('g');
if (edges && edges.length) {
  for (var i=0;i<edges.length;i++) {
    if (edges[i].id.substr(0,4)=='edge') {
      edges[i].setAttribute('class','edge');
    }
  }
}
]]></script>
        <defs>
                <circle id="rim" cx="0" cy="0" r="7"/>
                <circle id="rim2" cx="0" cy="0" r="3.5"/>
                <g id="zoomPlus">
                        <use xlink:href="#rim" fill="#404040">
                                <set attributeName="fill" to="#808080" begin="zoomplus.mouseover" end="zoomplus.mouseout"/>
                        </use>
                        <path d="M-4,0h8M0,-4v8" fill="none" stroke="white" stroke-width="1.5" pointer-events="none"/>
                </g>
                <g id="zoomMin">
                        <use xlink:href="#rim" fill="#404040">
                                <set attributeName="fill" to="#808080" begin="zoomminus.mouseover" end="zoomminus.mouseout"/>
                        </use>
                        <path d="M-4,0h8" fill="none" stroke="white" stroke-width="1.5" pointer-events="none"/>
                </g>
                <g id="dirArrow">
                        <path fill="none" stroke="white" stroke-width="1.5" d="M0,-3.0v7 M-2.5,-0.5L0,-3.0L2.5,-0.5"/>
                </g>
               <g id="resetDef">
                       <use xlink:href="#rim2" fill="#404040">
                               <set attributeName="fill" to="#808080" begin="reset.mouseover" end="reset.mouseout"/>
                       </use>
               </g>
        </defs>

<script type="text/javascript">
var viewWidth = 1545;
var viewHeight = 568;
var sectionId = 'dynsection-0';
</script>
<script xlink:href="svgpan.js"/>
<svg id="graph" class="graph">
<g id="viewport">
<title>schwz::SchwarzBase&lt; ValueType, IndexType &gt;</title>
<polygon fill="#ffffff" stroke="transparent" points="-4,4 -4,-563.5 1541,-563.5 1541,4 -4,4"/>
<!-- Node0 -->
<g id="node1" class="node">
<title>Node0</title>
<polygon fill="#bfbfbf" stroke="#000000" points="1404,-371.5 1404,-401.5 1537,-401.5 1537,-371.5 1404,-371.5"/>
<text text-anchor="start" x="1412" y="-389.5" font-family="Helvetica,sans-Serif" font-size="10.00" fill="#000000">schwz::SchwarzBase</text>
<text text-anchor="middle" x="1470.5" y="-378.5" font-family="Helvetica,sans-Serif" font-size="10.00" fill="#000000">&lt; ValueType, IndexType &gt;</text>
</g>
<!-- Node1 -->
<g id="node2" class="node">
<title>Node1</title>
<g id="a_node2"><a xlink:href="classschwz_1_1Initialize.html" target="_top" xlink:title="The initialization class that provides methods for initialization of the solver. ">
<polygon fill="#ffffff" stroke="#000000" points="1236.5,-218.5 1236.5,-248.5 1363.5,-248.5 1363.5,-218.5 1236.5,-218.5"/>
<text text-anchor="start" x="1244.5" y="-236.5" font-family="Helvetica,sans-Serif" font-size="10.00" fill="#000000">schwz::Initialize&lt;</text>
<text text-anchor="middle" x="1300" y="-225.5" font-family="Helvetica,sans-Serif" font-size="10.00" fill="#000000"> ValueType, IndexType &gt;</text>
</a>
</g>
</g>
<!-- Node1&#45;&gt;Node0 -->
<g id="edge1" class="edge">
<title>Node1&#45;&gt;Node0</title>
<path fill="none" stroke="#191970" d="M1324.8551,-255.804C1360.0259,-287.3649 1423.3914,-344.2266 1453.5971,-371.332"/>
<polygon fill="#191970" stroke="#191970" points="1326.7518,-252.8034 1316.9715,-248.7296 1322.0767,-258.0134 1326.7518,-252.8034"/>
</g>
<!-- Node2 -->
<g id="node3" class="node">
<title>Node2</title>
<g id="a_node3"><a xlink:href="structschwz_1_1Settings.html" target="_top" xlink:title="The struct that contains the solver settings and the parameters to be set by the user. ">
<polygon fill="#ffffff" stroke="#000000" points="945.5,-89 945.5,-108 1032.5,-108 1032.5,-89 945.5,-89"/>
<text text-anchor="middle" x="989" y="-96" font-family="Helvetica,sans-Serif" font-size="10.00" fill="#000000">schwz::Settings</text>
</a>
</g>
</g>
<!-- Node2&#45;&gt;Node1 -->
<g id="edge2" class="edge">
<title>Node2&#45;&gt;Node1</title>
<path fill="none" stroke="#191970" d="M1018.4601,-112.4302C1036.693,-120.9746 1060.624,-132.0509 1082,-141.5 1145.3094,-169.4854 1219.7223,-200.4879 1263.1944,-218.4117"/>
<polygon fill="#191970" stroke="#191970" points="1019.7687,-109.1779 1009.2295,-108.0928 1016.7916,-115.5134 1019.7687,-109.1779"/>
</g>
<!-- Node19 -->
<g id="node20" class="node">
<title>Node19</title>
<g id="a_node20"><a xlink:href="classschwz_1_1Solve.html" target="_top" xlink:title="The Solver class the provides the solver and the convergence checking methods. ">
<polygon fill="#ffffff" stroke="#000000" points="1233,-141.5 1233,-171.5 1367,-171.5 1367,-141.5 1233,-141.5"/>
<text text-anchor="start" x="1241" y="-159.5" font-family="Helvetica,sans-Serif" font-size="10.00" fill="#000000">schwz::Solve&lt; ValueType,</text>
<text text-anchor="middle" x="1300" y="-148.5" font-family="Helvetica,sans-Serif" font-size="10.00" fill="#000000"> IndexType &gt;</text>
</a>
</g>
</g>
<!-- Node2&#45;&gt;Node19 -->
<g id="edge26" class="edge">
<title>Node2&#45;&gt;Node19</title>
<path fill="none" stroke="#191970" d="M1042.7198,-108.5185C1095.3938,-118.3419 1175.8553,-133.3476 1232.7518,-143.9585"/>
<polygon fill="#191970" stroke="#191970" points="1043.0429,-105.0185 1032.5707,-106.6257 1041.7595,-111.8998 1043.0429,-105.0185"/>
</g>
<!-- Node3 -->
<g id="node4" class="node">
<title>Node3</title>
<g id="a_node4"><a xlink:href="structschwz_1_1Settings_1_1comm__settings.html" target="_top" xlink:title="The settings for the various available communication paradigms. ">
<polygon fill="#ffffff" stroke="#000000" points="625.5,-49.5 625.5,-79.5 745.5,-79.5 745.5,-49.5 625.5,-49.5"/>
<text text-anchor="start" x="633.5" y="-67.5" font-family="Helvetica,sans-Serif" font-size="10.00" fill="#000000">schwz::Settings::comm</text>
<text text-anchor="middle" x="685.5" y="-56.5" font-family="Helvetica,sans-Serif" font-size="10.00" fill="#000000">_settings</text>
</a>
</g>
</g>
<!-- Node3&#45;&gt;Node2 -->
<g id="edge3" class="edge">
<title>Node3&#45;&gt;Node2</title>
<path fill="none" stroke="#9a32cd" stroke-dasharray="5,2" d="M755.8178,-66.0243C796.8634,-67.6156 849.5531,-70.8655 896,-77.5 915.0078,-80.2151 935.8847,-84.7814 953.0342,-88.9638"/>
<polygon fill="#9a32cd" stroke="#9a32cd" points="755.7649,-62.5202 745.6443,-65.6545 755.5105,-69.5156 755.7649,-62.5202"/>
<text text-anchor="middle" x="840.5" y="-80.5" font-family="Helvetica,sans-Serif" font-size="10.00" fill="#000000"> comm_settings</text>
</g>
<!-- Node4 -->
<g id="node5" class="node">
<title>Node4</title>
<g id="a_node5"><a xlink:title="STL class. ">
<polygon fill="#ffffff" stroke="#bfbfbf" points="655.5,-121 655.5,-140 715.5,-140 715.5,-121 655.5,-121"/>
<text text-anchor="middle" x="685.5" y="-128" font-family="Helvetica,sans-Serif" font-size="10.00" fill="#000000">std::string</text>
</a>
</g>
</g>
<!-- Node4&#45;&gt;Node2 -->
<g id="edge4" class="edge">
<title>Node4&#45;&gt;Node2</title>
<path fill="none" stroke="#9a32cd" stroke-dasharray="5,2" d="M718.5874,-117.4752C737.6718,-110.6552 762.3125,-103.0093 785,-99.5 839.7763,-91.0272 903.8193,-92.54 945.3279,-94.9959"/>
<polygon fill="#9a32cd" stroke="#9a32cd" points="717.3339,-114.2069 709.1537,-120.94 719.7473,-120.7777 717.3339,-114.2069"/>
<text text-anchor="middle" x="840.5" y="-157.5" font-family="Helvetica,sans-Serif" font-size="10.00" fill="#000000"> factorization</text>
<text text-anchor="middle" x="840.5" y="-146.5" font-family="Helvetica,sans-Serif" font-size="10.00" fill="#000000">metis_objtype</text>
<text text-anchor="middle" x="840.5" y="-135.5" font-family="Helvetica,sans-Serif" font-size="10.00" fill="#000000">matrix_filename</text>
<text text-anchor="middle" x="840.5" y="-124.5" font-family="Helvetica,sans-Serif" font-size="10.00" fill="#000000">reorder</text>
<text text-anchor="middle" x="840.5" y="-113.5" font-family="Helvetica,sans-Serif" font-size="10.00" fill="#000000">executor_string</text>
<text text-anchor="middle" x="840.5" y="-102.5" font-family="Helvetica,sans-Serif" font-size="10.00" fill="#000000">rhs_type</text>
</g>
<!-- Node8 -->
<g id="node9" class="node">
<title>Node8</title>
<g id="a_node9"><a xlink:href="structschwz_1_1Metadata.html" target="_top" xlink:title="The solver metadata struct. ">
<polygon fill="#ffffff" stroke="#000000" points="914,-260.5 914,-290.5 1064,-290.5 1064,-260.5 914,-260.5"/>
<text text-anchor="start" x="922" y="-278.5" font-family="Helvetica,sans-Serif" font-size="10.00" fill="#000000">schwz::Metadata&lt; ValueType,</text>
<text text-anchor="middle" x="989" y="-267.5" font-family="Helvetica,sans-Serif" font-size="10.00" fill="#000000"> IndexType &gt;</text>
</a>
</g>
</g>
<!-- Node4&#45;&gt;Node8 -->
<g id="edge11" class="edge">
<title>Node4&#45;&gt;Node8</title>
<path fill="none" stroke="#9a32cd" stroke-dasharray="5,2" d="M718.7778,-143.626C737.9235,-150.8177 762.562,-159.4683 785,-165.5 833.4871,-178.5342 858.6138,-152.9865 896,-186.5 916.4141,-204.7995 895.4494,-225.3139 914,-245.5 919.5987,-251.5923 926.6004,-256.4698 934.061,-260.369"/>
<polygon fill="#9a32cd" stroke="#9a32cd" points="719.8982,-140.3075 709.3072,-140.0198 717.4071,-146.8493 719.8982,-140.3075"/>
<text text-anchor="middle" x="840.5" y="-189.5" font-family="Helvetica,sans-Serif" font-size="10.00" fill="#000000"> local_precond</text>
</g>
<!-- Node5 -->
<g id="node6" class="node">
<title>Node5</title>
<polygon fill="#ffffff" stroke="#bfbfbf" points="280.5,-115.5 280.5,-145.5 375.5,-145.5 375.5,-115.5 280.5,-115.5"/>
<text text-anchor="start" x="288.5" y="-133.5" font-family="Helvetica,sans-Serif" font-size="10.00" fill="#000000">std::basic_string&lt;</text>
<text text-anchor="middle" x="328" y="-122.5" font-family="Helvetica,sans-Serif" font-size="10.00" fill="#000000"> char &gt;</text>
</g>
<!-- Node5&#45;&gt;Node4 -->
<g id="edge5" class="edge">
<title>Node5&#45;&gt;Node4</title>
<path fill="none" stroke="#191970" d="M385.8449,-130.5C462.7087,-130.5 595.715,-130.5 655.2107,-130.5"/>
<polygon fill="#191970" stroke="#191970" points="385.8431,-127.0001 375.8431,-130.5 385.8431,-134.0001 385.8431,-127.0001"/>
</g>
<!-- Node6 -->
<g id="node7" class="node">
<title>Node6</title>
<g id="a_node7"><a xlink:title="STL class. ">
<polygon fill="#ffffff" stroke="#bfbfbf" points="0,-115.5 0,-145.5 95,-145.5 95,-115.5 0,-115.5"/>
<text text-anchor="start" x="8" y="-133.5" font-family="Helvetica,sans-Serif" font-size="10.00" fill="#000000">std::basic_string&lt;</text>
<text text-anchor="middle" x="47.5" y="-122.5" font-family="Helvetica,sans-Serif" font-size="10.00" fill="#000000"> Char &gt;</text>
</a>
</g>
</g>
<!-- Node6&#45;&gt;Node5 -->
<g id="edge6" class="edge">
<title>Node6&#45;&gt;Node5</title>
<path fill="none" stroke="#ffa500" stroke-dasharray="5,2" d="M105.0943,-130.5C156.7767,-130.5 231.7415,-130.5 280.1836,-130.5"/>
<polygon fill="#ffa500" stroke="#ffa500" points="105.083,-127.0001 95.083,-130.5 105.083,-134.0001 105.083,-127.0001"/>
<text text-anchor="middle" x="179.5" y="-133.5" font-family="Helvetica,sans-Serif" font-size="10.00" fill="#000000"> &lt; char &gt;</text>
</g>
<!-- Node7 -->
<g id="node8" class="node">
<title>Node7</title>
<g id="a_node8"><a xlink:href="structschwz_1_1Settings_1_1convergence__settings.html" target="_top" xlink:title="The various convergence settings available. ">
<polygon fill="#ffffff" stroke="#000000" points="611,-.5 611,-30.5 760,-30.5 760,-.5 611,-.5"/>
<text text-anchor="start" x="619" y="-18.5" font-family="Helvetica,sans-Serif" font-size="10.00" fill="#000000">schwz::Settings::convergence</text>
<text text-anchor="middle" x="685.5" y="-7.5" font-family="Helvetica,sans-Serif" font-size="10.00" fill="#000000">_settings</text>
</a>
</g>
</g>
<!-- Node7&#45;&gt;Node2 -->
<g id="edge7" class="edge">
<title>Node7&#45;&gt;Node2</title>
<path fill="none" stroke="#9a32cd" stroke-dasharray="5,2" d="M770.6063,-24.1775C809.4962,-29.6277 855.7604,-38.2248 896,-51.5 924.6903,-60.965 955.5251,-78.0821 973.4973,-88.8399"/>
<polygon fill="#9a32cd" stroke="#9a32cd" points="770.746,-20.6646 760.3667,-22.7907 769.8065,-27.6013 770.746,-20.6646"/>
<text text-anchor="middle" x="840.5" y="-54.5" font-family="Helvetica,sans-Serif" font-size="10.00" fill="#000000"> convergence_settings</text>
</g>
<!-- Node8&#45;&gt;Node1 -->
<g id="edge8" class="edge">
<title>Node8&#45;&gt;Node1</title>
<path fill="none" stroke="#191970" d="M1074.3497,-263.9737C1125.5772,-257.0555 1189.6557,-248.4018 1236.4256,-242.0856"/>
<polygon fill="#191970" stroke="#191970" points="1073.726,-260.526 1064.2844,-265.333 1074.6629,-267.4631 1073.726,-260.526"/>
</g>
<!-- Node9 -->
<g id="node10" class="node">
<title>Node9</title>
<polygon fill="#ffffff" stroke="#bfbfbf" points="410,-227 410,-268 586,-268 586,-227 410,-227"/>
<text text-anchor="start" x="418" y="-256" font-family="Helvetica,sans-Serif" font-size="10.00" fill="#000000">std::vector&lt; std::tuple</text>
<text text-anchor="start" x="418" y="-245" font-family="Helvetica,sans-Serif" font-size="10.00" fill="#000000">&lt; int, int, int, std::</text>
<text text-anchor="middle" x="498" y="-234" font-family="Helvetica,sans-Serif" font-size="10.00" fill="#000000">string, std::vector&lt; ValueType &gt; &gt; &gt;</text>
</g>
<!-- Node9&#45;&gt;Node8 -->
<g id="edge9" class="edge">
<title>Node9&#45;&gt;Node8</title>
<path fill="none" stroke="#9a32cd" stroke-dasharray="5,2" d="M596.1855,-251.7925C647.1562,-254.1355 710.4399,-257.2228 767,-260.5 815.881,-263.3323 870.7796,-267.037 913.7543,-270.056"/>
<polygon fill="#9a32cd" stroke="#9a32cd" points="596.3107,-248.2946 586.1612,-251.334 595.9908,-255.2873 596.3107,-248.2946"/>
<text text-anchor="middle" x="685.5" y="-263.5" font-family="Helvetica,sans-Serif" font-size="10.00" fill="#000000"> time_struct</text>
</g>
<!-- Node10 -->
<g id="node11" class="node">
<title>Node10</title>
<g id="a_node11"><a xlink:title="STL class. ">
<polygon fill="#ffffff" stroke="#bfbfbf" points="4,-312 4,-331 91,-331 91,-312 4,-312"/>
<text text-anchor="middle" x="47.5" y="-319" font-family="Helvetica,sans-Serif" font-size="10.00" fill="#000000">std::vector&lt; T &gt;</text>
</a>
</g>
</g>
<!-- Node10&#45;&gt;Node9 -->
<g id="edge10" class="edge">
<title>Node10&#45;&gt;Node9</title>
<path fill="none" stroke="#ffa500" stroke-dasharray="5,2" d="M60.165,-303.3914C71.9054,-288.2866 90.8648,-267.7871 113,-258.5 208.4194,-218.4658 329.1614,-222.8128 409.7441,-232.5137"/>
<polygon fill="#ffa500" stroke="#ffa500" points="57.269,-301.4207 54.1172,-311.5359 62.889,-305.5939 57.269,-301.4207"/>
<text text-anchor="start" x="113" y="-283.5" font-family="Helvetica,sans-Serif" font-size="10.00" fill="#000000"> &lt; std::tuple&lt; int,</text>
<text text-anchor="start" x="113" y="-272.5" font-family="Helvetica,sans-Serif" font-size="10.00" fill="#000000"> int, int, std::string,</text>
<text text-anchor="middle" x="179.5" y="-261.5" font-family="Helvetica,sans-Serif" font-size="10.00" fill="#000000"> std::vector&lt; ValueType &gt; &gt; &gt;</text>
</g>
<!-- Node12 -->
<g id="node13" class="node">
<title>Node12</title>
<polygon fill="#ffffff" stroke="#bfbfbf" points="264,-410 264,-429 392,-429 392,-410 264,-410"/>
<text text-anchor="middle" x="328" y="-417" font-family="Helvetica,sans-Serif" font-size="10.00" fill="#000000">std::vector&lt; ValueType &gt;</text>
</g>
<!-- Node10&#45;&gt;Node12 -->
<g id="edge14" class="edge">
<title>Node10&#45;&gt;Node12</title>
<path fill="none" stroke="#ffa500" stroke-dasharray="5,2" d="M57.9841,-340.0221C69.1402,-357.8015 88.544,-383.776 113,-396.5 159.4559,-420.6702 219.1242,-425.3282 263.8108,-424.5623"/>
<polygon fill="#ffa500" stroke="#ffa500" points="60.7958,-337.9047 52.6551,-331.1239 54.7904,-341.5013 60.7958,-337.9047"/>
<text text-anchor="middle" x="179.5" y="-426.5" font-family="Helvetica,sans-Serif" font-size="10.00" fill="#000000"> &lt; ValueType &gt;</text>
</g>
<!-- Node13 -->
<g id="node14" class="node">
<title>Node13</title>
<polygon fill="#ffffff" stroke="#bfbfbf" points="268.5,-280.5 268.5,-310.5 387.5,-310.5 387.5,-280.5 268.5,-280.5"/>
<text text-anchor="start" x="276.5" y="-298.5" font-family="Helvetica,sans-Serif" font-size="10.00" fill="#000000">std::vector&lt; std::vector</text>
<text text-anchor="middle" x="328" y="-287.5" font-family="Helvetica,sans-Serif" font-size="10.00" fill="#000000">&lt; ValueType &gt; &gt;</text>
</g>
<!-- Node10&#45;&gt;Node13 -->
<g id="edge16" class="edge">
<title>Node10&#45;&gt;Node13</title>
<path fill="none" stroke="#ffa500" stroke-dasharray="5,2" d="M93.8984,-309.8272C100.284,-308.5281 106.7821,-307.3643 113,-306.5 165.1972,-299.2442 225.1183,-296.6442 268.4204,-295.7724"/>
<polygon fill="#ffa500" stroke="#ffa500" points="93.0515,-306.4292 84.0127,-311.9565 94.5255,-313.2723 93.0515,-306.4292"/>
<text text-anchor="middle" x="179.5" y="-309.5" font-family="Helvetica,sans-Serif" font-size="10.00" fill="#000000"> &lt; std::vector&lt; ValueType &gt; &gt;</text>
</g>
<!-- Node14 -->
<g id="node15" class="node">
<title>Node14</title>
<polygon fill="#ffffff" stroke="#bfbfbf" points="437,-308 437,-371 559,-371 559,-308 437,-308"/>
<text text-anchor="start" x="445" y="-359" font-family="Helvetica,sans-Serif" font-size="10.00" fill="#000000">std::vector&lt; std::tuple</text>
<text text-anchor="start" x="445" y="-348" font-family="Helvetica,sans-Serif" font-size="10.00" fill="#000000">&lt; int, std::vector&lt; std</text>
<text text-anchor="start" x="445" y="-337" font-family="Helvetica,sans-Serif" font-size="10.00" fill="#000000">::tuple&lt; int, int &gt; &gt;, std</text>
<text text-anchor="start" x="445" y="-326" font-family="Helvetica,sans-Serif" font-size="10.00" fill="#000000">::vector&lt; std::tuple&lt; int,</text>
<text text-anchor="middle" x="498" y="-315" font-family="Helvetica,sans-Serif" font-size="10.00" fill="#000000"> int &gt; &gt;, int, int &gt; &gt;</text>
</g>
<!-- Node10&#45;&gt;Node14 -->
<g id="edge18" class="edge">
<title>Node10&#45;&gt;Node14</title>
<path fill="none" stroke="#ffa500" stroke-dasharray="5,2" d="M101.2316,-323.6469C185.5249,-327.0149 348.3437,-333.5204 436.9475,-337.0606"/>
<polygon fill="#ffa500" stroke="#ffa500" points="101.237,-320.1444 91.1052,-323.2423 100.9574,-327.1388 101.237,-320.1444"/>
<text text-anchor="start" x="126" y="-375.5" font-family="Helvetica,sans-Serif" font-size="10.00" fill="#000000"> &lt; std::tuple&lt; int,</text>
<text text-anchor="start" x="126" y="-364.5" font-family="Helvetica,sans-Serif" font-size="10.00" fill="#000000"> std::vector&lt; std::tuple</text>
<text text-anchor="start" x="126" y="-353.5" font-family="Helvetica,sans-Serif" font-size="10.00" fill="#000000">&lt; int, int &gt; &gt;, std::vector</text>
<text text-anchor="start" x="126" y="-342.5" font-family="Helvetica,sans-Serif" font-size="10.00" fill="#000000">&lt; std::tuple&lt; int, int &gt; &gt;</text>
<text text-anchor="middle" x="179.5" y="-331.5" font-family="Helvetica,sans-Serif" font-size="10.00" fill="#000000">, int, int &gt; &gt;</text>
</g>
<!-- Node15 -->
<g id="node16" class="node">
<title>Node15</title>
<polygon fill="#ffffff" stroke="#bfbfbf" points="785,-204.5 785,-234.5 896,-234.5 896,-204.5 785,-204.5"/>
<text text-anchor="start" x="793" y="-222.5" font-family="Helvetica,sans-Serif" font-size="10.00" fill="#000000">std::vector&lt; unsigned</text>
<text text-anchor="middle" x="840.5" y="-211.5" font-family="Helvetica,sans-Serif" font-size="10.00" fill="#000000"> int &gt;</text>
</g>
<!-- Node10&#45;&gt;Node15 -->
<g id="edge20" class="edge">
<title>Node10&#45;&gt;Node15</title>
<path fill="none" stroke="#ffa500" stroke-dasharray="5,2" d="M54.289,-302.4351C63.6123,-279.3593 82.7498,-241.3768 113,-223.5 225.9493,-156.751 634.6865,-195.7045 784.7489,-212.7593"/>
<polygon fill="#ffa500" stroke="#ffa500" points="50.9867,-301.272 50.6913,-311.8627 57.5267,-303.7678 50.9867,-301.272"/>
<text text-anchor="middle" x="328" y="-191.5" font-family="Helvetica,sans-Serif" font-size="10.00" fill="#000000"> &lt; unsigned int &gt;</text>
</g>
<!-- Node18 -->
<g id="node19" class="node">
<title>Node18</title>
<polygon fill="#ffffff" stroke="#bfbfbf" points="278.5,-488 278.5,-507 377.5,-507 377.5,-488 278.5,-488"/>
<text text-anchor="middle" x="328" y="-495" font-family="Helvetica,sans-Serif" font-size="10.00" fill="#000000">std::vector&lt; bool &gt;</text>
</g>
<!-- Node10&#45;&gt;Node18 -->
<g id="edge24" class="edge">
<title>Node10&#45;&gt;Node18</title>
<path fill="none" stroke="#ffa500" stroke-dasharray="5,2" d="M53.1298,-340.9042C61.7164,-367.0248 80.5999,-413.1389 113,-438.5 161.005,-476.0758 231.3217,-489.748 278.3258,-494.7064"/>
<polygon fill="#ffa500" stroke="#ffa500" points="56.3789,-339.5648 50.0709,-331.0525 49.6937,-341.6406 56.3789,-339.5648"/>
<text text-anchor="middle" x="179.5" y="-492.5" font-family="Helvetica,sans-Serif" font-size="10.00" fill="#000000"> &lt; bool &gt;</text>
</g>
<!-- Node11 -->
<g id="node12" class="node">
<title>Node11</title>
<g id="a_node12"><a xlink:href="structschwz_1_1Metadata_1_1post__process__data.html" target="_top" xlink:title="The struct used for storing data for post&#45;processing. ">
<polygon fill="#ffffff" stroke="#000000" points="604,-280.5 604,-310.5 767,-310.5 767,-280.5 604,-280.5"/>
<text text-anchor="start" x="612" y="-298.5" font-family="Helvetica,sans-Serif" font-size="10.00" fill="#000000">schwz::Metadata&lt; ValueType,</text>
<text text-anchor="middle" x="685.5" y="-287.5" font-family="Helvetica,sans-Serif" font-size="10.00" fill="#000000"> IndexType &gt;::post_process_data</text>
</a>
</g>
</g>
<!-- Node11&#45;&gt;Node8 -->
<g id="edge12" class="edge">
<title>Node11&#45;&gt;Node8</title>
<path fill="none" stroke="#9a32cd" stroke-dasharray="5,2" d="M777.2891,-289.4513C820.9801,-286.5722 872.5733,-283.1723 913.8892,-280.4496"/>
<polygon fill="#9a32cd" stroke="#9a32cd" points="776.9799,-285.964 767.2317,-290.1141 777.4402,-292.9488 776.9799,-285.964"/>
<text text-anchor="middle" x="840.5" y="-290.5" font-family="Helvetica,sans-Serif" font-size="10.00" fill="#000000"> post_process_data</text>
</g>
<!-- Node12&#45;&gt;Node0 -->
<g id="edge27" class="edge">
<title>Node12&#45;&gt;Node0</title>
<path fill="none" stroke="#9a32cd" stroke-dasharray="5,2" d="M345.9321,-435.7381C361.5927,-448.8228 385.5832,-466.3379 410,-474.5 526.3,-513.3767 562.8742,-489.5 685.5,-489.5 685.5,-489.5 685.5,-489.5 1300,-489.5 1367.0905,-489.5 1430.4117,-430.3492 1457.1477,-401.698"/>
<polygon fill="#9a32cd" stroke="#9a32cd" points="347.9962,-432.8962 338.139,-429.0122 343.4226,-438.1955 347.9962,-432.8962"/>
<text text-anchor="middle" x="989" y="-492.5" font-family="Helvetica,sans-Serif" font-size="10.00" fill="#000000"> local_residual_vector_out</text>
</g>
<!-- Node12&#45;&gt;Node11 -->
<g id="edge13" class="edge">
<title>Node12&#45;&gt;Node11</title>
<path fill="none" stroke="#9a32cd" stroke-dasharray="5,2" d="M402.1038,-416.7975C468.3072,-412.8992 558.9045,-403.4275 586,-380.5 605.6343,-363.886 586.1472,-344.0151 604,-325.5 609.8607,-319.4219 617.0572,-314.5674 624.7247,-310.6921"/>
<polygon fill="#9a32cd" stroke="#9a32cd" points="401.9024,-413.3032 392.113,-417.3549 402.2924,-420.2923 401.9024,-413.3032"/>
<text text-anchor="middle" x="498" y="-462.5" font-family="Helvetica,sans-Serif" font-size="10.00" fill="#000000"> local_converged_resnorm</text>
<text text-anchor="start" x="440.5" y="-451.5" font-family="Helvetica,sans-Serif" font-size="10.00" fill="#000000">local_residual_vector</text>
<text text-anchor="middle" x="498" y="-440.5" font-family="Helvetica,sans-Serif" font-size="10.00" fill="#000000">_out</text>
<text text-anchor="start" x="440.5" y="-429.5" font-family="Helvetica,sans-Serif" font-size="10.00" fill="#000000">local_converged_iter</text>
<text text-anchor="middle" x="498" y="-418.5" font-family="Helvetica,sans-Serif" font-size="10.00" fill="#000000">_count</text>
</g>
<!-- Node13&#45;&gt;Node0 -->
<g id="edge28" class="edge">
<title>Node13&#45;&gt;Node0</title>
<path fill="none" stroke="#9a32cd" stroke-dasharray="5,2" d="M344.9219,-318.5811C359.7912,-336.8394 383.198,-361.0934 410,-372.5 522.811,-420.5109 562.8976,-386.5 685.5,-386.5 685.5,-386.5 685.5,-386.5 1300,-386.5 1334.1888,-386.5 1372.2339,-386.5 1403.6962,-386.5"/>
<polygon fill="#9a32cd" stroke="#9a32cd" points="347.6423,-316.3784 338.7092,-310.6818 342.1401,-320.7058 347.6423,-316.3784"/>
<text text-anchor="middle" x="989" y="-389.5" font-family="Helvetica,sans-Serif" font-size="10.00" fill="#000000"> global_residual_vector_out</text>
</g>
<!-- Node13&#45;&gt;Node11 -->
<g id="edge15" class="edge">
<title>Node13&#45;&gt;Node11</title>
<path fill="none" stroke="#9a32cd" stroke-dasharray="5,2" d="M397.8215,-290.9536C401.9409,-290.7752 406.0239,-290.6211 410,-290.5 488.186,-288.1185 507.8024,-288.5365 586,-290.5 591.7924,-290.6454 597.7726,-290.8384 603.7924,-291.0641"/>
<polygon fill="#9a32cd" stroke="#9a32cd" points="397.3691,-287.471 387.5467,-291.4423 397.7017,-294.4631 397.3691,-287.471"/>
<text text-anchor="middle" x="498" y="-293.5" font-family="Helvetica,sans-Serif" font-size="10.00" fill="#000000"> global_residual_vector_out</text>
</g>
<!-- Node14&#45;&gt;Node8 -->
<g id="edge17" class="edge">
<title>Node14&#45;&gt;Node8</title>
<path fill="none" stroke="#9a32cd" stroke-dasharray="5,2" d="M569.4986,-337.9149C649.7583,-334.9697 783.481,-326.5528 896,-302.5 911.1258,-299.2666 927.3909,-294.8702 942.0229,-290.5642"/>
<polygon fill="#9a32cd" stroke="#9a32cd" points="568.8904,-334.4338 559.0181,-338.2794 569.1338,-341.4296 568.8904,-334.4338"/>
<text text-anchor="middle" x="685.5" y="-338.5" font-family="Helvetica,sans-Serif" font-size="10.00" fill="#000000"> comm_data_struct</text>
</g>
<!-- Node15&#45;&gt;Node1 -->
<g id="edge19" class="edge">
<title>Node15&#45;&gt;Node1</title>
<path fill="none" stroke="#9a32cd" stroke-dasharray="5,2" d="M906.5261,-221.5117C994.625,-224.1959 1149.5742,-228.9168 1236.4168,-231.5628"/>
<polygon fill="#9a32cd" stroke="#9a32cd" points="906.4863,-218.0089 896.3843,-221.2027 906.2731,-225.0057 906.4863,-218.0089"/>
<text text-anchor="middle" x="989" y="-239.5" font-family="Helvetica,sans-Serif" font-size="10.00" fill="#000000"> cell_weights</text>
<text text-anchor="middle" x="989" y="-228.5" font-family="Helvetica,sans-Serif" font-size="10.00" fill="#000000">partition_indices</text>
</g>
<!-- Node16 -->
<g id="node17" class="node">
<title>Node16</title>
<g id="a_node17"><a xlink:href="classschwz_1_1Communicate.html" target="_top" xlink:title="The communication class that provides the methods for the communication between the subdomains...">
<polygon fill="#ffffff" stroke="#000000" points="1082,-515.5 1082,-545.5 1215,-545.5 1215,-515.5 1082,-515.5"/>
<text text-anchor="start" x="1090" y="-533.5" font-family="Helvetica,sans-Serif" font-size="10.00" fill="#000000">schwz::Communicate</text>
<text text-anchor="middle" x="1148.5" y="-522.5" font-family="Helvetica,sans-Serif" font-size="10.00" fill="#000000">&lt; ValueType, IndexType &gt;</text>
</a>
</g>
</g>
<!-- Node16&#45;&gt;Node0 -->
<g id="edge21" class="edge">
<title>Node16&#45;&gt;Node0</title>
<path fill="none" stroke="#191970" d="M1225.4681,-537.0683C1274.5491,-537.7177 1337.7601,-531.7163 1386,-503.5 1426.6607,-479.7169 1453.1724,-427.7663 1464.3879,-401.8457"/>
<polygon fill="#191970" stroke="#191970" points="1225.297,-533.5636 1215.2197,-536.8344 1225.1372,-540.5618 1225.297,-533.5636"/>
</g>
<!-- Node17 -->
<g id="node18" class="node">
<title>Node17</title>
<g id="a_node18"><a xlink:href="structschwz_1_1Communicate_1_1comm__struct.html" target="_top" xlink:title="The communication struct used to store the communication data. ">
<polygon fill="#ffffff" stroke="#000000" points="623.5,-518 623.5,-559 747.5,-559 747.5,-518 623.5,-518"/>
<text text-anchor="start" x="631.5" y="-547" font-family="Helvetica,sans-Serif" font-size="10.00" fill="#000000">schwz::Communicate</text>
<text text-anchor="start" x="631.5" y="-536" font-family="Helvetica,sans-Serif" font-size="10.00" fill="#000000">&lt; ValueType, IndexType</text>
<text text-anchor="middle" x="685.5" y="-525" font-family="Helvetica,sans-Serif" font-size="10.00" fill="#000000"> &gt;::comm_struct</text>
</a>
</g>
</g>
<!-- Node17&#45;&gt;Node16 -->
<g id="edge22" class="edge">
<title>Node17&#45;&gt;Node16</title>
<path fill="none" stroke="#9a32cd" stroke-dasharray="5,2" d="M758.1959,-537.2439C846.9646,-535.7101 995.8661,-533.1373 1081.813,-531.6523"/>
<polygon fill="#9a32cd" stroke="#9a32cd" points="757.8802,-533.7488 747.9422,-537.4211 758.0012,-540.7477 757.8802,-533.7488"/>
<text text-anchor="middle" x="840.5" y="-539.5" font-family="Helvetica,sans-Serif" font-size="10.00" fill="#000000"> comm_struct</text>
</g>
<!-- Node18&#45;&gt;Node17 -->
<g id="edge23" class="edge">
<title>Node18&#45;&gt;Node17</title>
<path fill="none" stroke="#9a32cd" stroke-dasharray="5,2" d="M387.8416,-504.363C453.1211,-511.8495 557.1209,-523.7768 623.3112,-531.3679"/>
<polygon fill="#9a32cd" stroke="#9a32cd" points="388.0425,-500.8631 377.7088,-503.2009 387.2449,-507.8176 388.0425,-500.8631"/>
<text text-anchor="middle" x="498" y="-528.5" font-family="Helvetica,sans-Serif" font-size="10.00" fill="#000000"> is_local_neighbor</text>
</g>
<!-- Node19&#45;&gt;Node0 -->
<g id="edge25" class="edge">
<title>Node19&#45;&gt;Node0</title>
<path fill="none" stroke="#191970" d="M1331.6307,-177.6904C1343.5762,-186.629 1356.746,-197.6981 1367,-209.5 1412.9938,-262.4366 1449.4907,-338.716 1463.8705,-371.0643"/>
<polygon fill="#191970" stroke="#191970" points="1333.3572,-174.6189 1323.2081,-171.5783 1329.2459,-180.2843 1333.3572,-174.6189"/>
</g>
</g>
</svg>
        <g id="navigator" transform="translate(0 0)" fill="#404254">
                <rect fill="#f2f5e9" fill-opacity="0.5" stroke="#606060" stroke-width=".5" x="0" y="0" width="60" height="60"/>
                <use id="zoomplus" xlink:href="#zoomPlus" x="17" y="9" onmousedown="handleZoom(evt,'in')"/>
                <use id="zoomminus" xlink:href="#zoomMin" x="42" y="9" onmousedown="handleZoom(evt,'out')"/>
                <use id="reset" xlink:href="#resetDef" x="30" y="36" onmousedown="handleReset()"/>
                <g id="arrowUp" xlink:href="#dirArrow" transform="translate(30 24)" onmousedown="handlePan(0,-1)">
                  <use xlink:href="#rim" fill="#404040">
                        <set attributeName="fill" to="#808080" begin="arrowUp.mouseover" end="arrowUp.mouseout"/>
                  </use>
                  <path fill="none" stroke="white" stroke-width="1.5" d="M0,-3.0v7 M-2.5,-0.5L0,-3.0L2.5,-0.5"/>
                </g>
                <g id="arrowRight" xlink:href="#dirArrow" transform="rotate(90) translate(36 -43)" onmousedown="handlePan(1,0)">
                  <use xlink:href="#rim" fill="#404040">
                        <set attributeName="fill" to="#808080" begin="arrowRight.mouseover" end="arrowRight.mouseout"/>
                  </use>
                  <path fill="none" stroke="white" stroke-width="1.5" d="M0,-3.0v7 M-2.5,-0.5L0,-3.0L2.5,-0.5"/>
                </g>
                <g id="arrowDown" xlink:href="#dirArrow" transform="rotate(180) translate(-30 -48)" onmousedown="handlePan(0,1)">
                  <use xlink:href="#rim" fill="#404040">
                        <set attributeName="fill" to="#808080" begin="arrowDown.mouseover" end="arrowDown.mouseout"/>
                  </use>
                  <path fill="none" stroke="white" stroke-width="1.5" d="M0,-3.0v7 M-2.5,-0.5L0,-3.0L2.5,-0.5"/>
                </g>
                <g id="arrowLeft" xlink:href="#dirArrow" transform="rotate(270) translate(-36 17)" onmousedown="handlePan(-1,0)">
                  <use xlink:href="#rim" fill="#404040">
                        <set attributeName="fill" to="#808080" begin="arrowLeft.mouseover" end="arrowLeft.mouseout"/>
                  </use>
                  <path fill="none" stroke="white" stroke-width="1.5" d="M0,-3.0v7 M-2.5,-0.5L0,-3.0L2.5,-0.5"/>
                </g>
        </g>
        <svg viewBox="0 0 15 15" width="100%" height="30px" preserveAspectRatio="xMaxYMin meet">
         <g id="arrow_out" transform="scale(0.3 0.3)">
          <a xlink:href="classschwz_1_1SchwarzBase__coll__graph_org.svg" target="_base">
           <rect id="button" ry="5" rx="5" y="6" x="6" height="38" width="38"
                fill="#f2f5e9" fill-opacity="0.5" stroke="#606060" stroke-width="1.0"/>
           <path id="arrow"
             d="M 11.500037,31.436501 C 11.940474,20.09759 22.043105,11.32322 32.158766,21.979434 L 37.068811,17.246167 C 37.068811,17.246167 37.088388,32 37.088388,32 L 22.160133,31.978069 C 22.160133,31.978069 26.997745,27.140456 26.997745,27.140456 C 18.528582,18.264221 13.291696,25.230495 11.500037,31.436501 z"
             style="fill:#404040;"/>
          </a>
         </g>
        </svg>
</svg>
