<?xml version="1.0" encoding="UTF-8" standalone="no"?>
<!DOCTYPE svg PUBLIC "-//W3C//DTD SVG 1.1//EN"
 "http://www.w3.org/Graphics/SVG/1.1/DTD/svg11.dtd">
<!-- Generated by graphviz version 2.40.1 (20161225.0304)
 -->
<!-- Title: schwz::Initialize&lt; ValueType, IndexType &gt; Pages: 1 -->
<svg width="1236pt" height="440pt"
 viewBox="0.00 0.00 1236.00 439.50" xmlns="http://www.w3.org/2000/svg" xmlns:xlink="http://www.w3.org/1999/xlink">
<g id="graph0" class="graph" transform="scale(1 1) rotate(0) translate(4 435.5)">
<title>schwz::Initialize&lt; ValueType, IndexType &gt;</title>
<polygon fill="#ffffff" stroke="transparent" points="-4,4 -4,-435.5 1232,-435.5 1232,4 -4,4"/>
<!-- Node0 -->
<g id="node1" class="node">
<title>Node0</title>
<polygon fill="#bfbfbf" stroke="#000000" points="1101,-228.5 1101,-258.5 1228,-258.5 1228,-228.5 1101,-228.5"/>
<text text-anchor="start" x="1109" y="-246.5" font-family="Helvetica,sans-Serif" font-size="10.00" fill="#000000">schwz::Initialize&lt;</text>
<text text-anchor="middle" x="1164.5" y="-235.5" font-family="Helvetica,sans-Serif" font-size="10.00" fill="#000000"> ValueType, IndexType &gt;</text>
</g>
<!-- Node1 -->
<g id="node2" class="node">
<title>Node1</title>
<g id="a_node2"><a xlink:href="structschwz_1_1Settings.html" target="_top" xlink:title="The struct that contains the solver settings and the parameters to be set by the user. ">
<polygon fill="#ffffff" stroke="#000000" points="945.5,-72 945.5,-91 1032.5,-91 1032.5,-72 945.5,-72"/>
<text text-anchor="middle" x="989" y="-79" font-family="Helvetica,sans-Serif" font-size="10.00" fill="#000000">schwz::Settings</text>
</a>
</g>
</g>
<!-- Node1&#45;&gt;Node0 -->
<g id="edge1" class="edge">
<title>Node1&#45;&gt;Node0</title>
<path fill="none" stroke="#191970" d="M1006.8646,-97.9904C1041.0675,-129.5623 1115.3215,-198.1044 1148.2329,-228.4842"/>
<polygon fill="#191970" stroke="#191970" points="1009.1748,-95.3597 999.4527,-91.1487 1004.4268,-100.5033 1009.1748,-95.3597"/>
</g>
<!-- Node2 -->
<g id="node3" class="node">
<title>Node2</title>
<g id="a_node3"><a xlink:href="structschwz_1_1Settings_1_1comm__settings.html" target="_top" xlink:title="The settings for the various available communication paradigms. ">
<polygon fill="#ffffff" stroke="#000000" points="625.5,-49.5 625.5,-79.5 745.5,-79.5 745.5,-49.5 625.5,-49.5"/>
<text text-anchor="start" x="633.5" y="-67.5" font-family="Helvetica,sans-Serif" font-size="10.00" fill="#000000">schwz::Settings::comm</text>
<text text-anchor="middle" x="685.5" y="-56.5" font-family="Helvetica,sans-Serif" font-size="10.00" fill="#000000">_settings</text>
</a>
</g>
</g>
<!-- Node2&#45;&gt;Node1 -->
<g id="edge2" class="edge">
<title>Node2&#45;&gt;Node1</title>
<path fill="none" stroke="#9a32cd" stroke-dasharray="5,2" d="M755.6657,-61.9344C796.6603,-61.1586 849.3497,-61.4047 896,-65.5 912.1571,-66.9184 929.7259,-69.6326 945.1983,-72.4282"/>
<polygon fill="#9a32cd" stroke="#9a32cd" points="755.4288,-58.4386 745.5061,-62.152 755.5788,-65.437 755.4288,-58.4386"/>
<text text-anchor="middle" x="840.5" y="-68.5" font-family="Helvetica,sans-Serif" font-size="10.00" fill="#000000"> comm_settings</text>
</g>
<!-- Node3 -->
<g id="node4" class="node">
<title>Node3</title>
<g id="a_node4"><a xlink:title="STL class. ">
<polygon fill="#ffffff" stroke="#bfbfbf" points="655.5,-112 655.5,-131 715.5,-131 715.5,-112 655.5,-112"/>
<text text-anchor="middle" x="685.5" y="-119" font-family="Helvetica,sans-Serif" font-size="10.00" fill="#000000">std::string</text>
</a>
</g>
</g>
<!-- Node3&#45;&gt;Node1 -->
<g id="edge3" class="edge">
<title>Node3&#45;&gt;Node1</title>
<path fill="none" stroke="#9a32cd" stroke-dasharray="5,2" d="M725.681,-111.3718C743.7166,-107.1481 765.3221,-102.5305 785,-99.5 839.9941,-91.0306 903.9886,-86.1893 945.4266,-83.7055"/>
<polygon fill="#9a32cd" stroke="#9a32cd" points="724.7053,-108.0063 715.7906,-113.7314 726.3298,-114.8152 724.7053,-108.0063"/>
<text text-anchor="middle" x="840.5" y="-168.5" font-family="Helvetica,sans-Serif" font-size="10.00" fill="#000000"> factorization</text>
<text text-anchor="middle" x="840.5" y="-157.5" font-family="Helvetica,sans-Serif" font-size="10.00" fill="#000000">metis_objtype</text>
<text text-anchor="middle" x="840.5" y="-146.5" font-family="Helvetica,sans-Serif" font-size="10.00" fill="#000000">thres_type</text>
<text text-anchor="middle" x="840.5" y="-135.5" font-family="Helvetica,sans-Serif" font-size="10.00" fill="#000000">matrix_filename</text>
<text text-anchor="middle" x="840.5" y="-124.5" font-family="Helvetica,sans-Serif" font-size="10.00" fill="#000000">reorder</text>
<text text-anchor="middle" x="840.5" y="-113.5" font-family="Helvetica,sans-Serif" font-size="10.00" fill="#000000">executor_string</text>
<text text-anchor="middle" x="840.5" y="-102.5" font-family="Helvetica,sans-Serif" font-size="10.00" fill="#000000">rhs_type</text>
</g>
<!-- Node7 -->
<g id="node8" class="node">
<title>Node7</title>
<g id="a_node8"><a xlink:href="structschwz_1_1Metadata.html" target="_top" xlink:title="The solver metadata struct. ">
<polygon fill="#ffffff" stroke="#000000" points="914,-228.5 914,-258.5 1064,-258.5 1064,-228.5 914,-228.5"/>
<text text-anchor="start" x="922" y="-246.5" font-family="Helvetica,sans-Serif" font-size="10.00" fill="#000000">schwz::Metadata&lt; ValueType,</text>
<text text-anchor="middle" x="989" y="-235.5" font-family="Helvetica,sans-Serif" font-size="10.00" fill="#000000"> IndexType &gt;</text>
</a>
</g>
</g>
<!-- Node3&#45;&gt;Node7 -->
<g id="edge10" class="edge">
<title>Node3&#45;&gt;Node7</title>
<path fill="none" stroke="#9a32cd" stroke-dasharray="5,2" d="M708.1873,-136.6397C727.7645,-149.0552 757.1967,-166.2046 785,-176.5 832.2461,-193.995 848.2259,-183.5029 896,-199.5 918.8655,-207.1565 943.4775,-218.9738 961.6354,-228.4343"/>
<polygon fill="#9a32cd" stroke="#9a32cd" points="709.9727,-133.6264 699.673,-131.1432 706.1761,-139.5074 709.9727,-133.6264"/>
<text text-anchor="middle" x="840.5" y="-202.5" font-family="Helvetica,sans-Serif" font-size="10.00" fill="#000000"> local_precond</text>
</g>
<!-- Node4 -->
<g id="node5" class="node">
<title>Node4</title>
<polygon fill="#ffffff" stroke="#bfbfbf" points="280.5,-106.5 280.5,-136.5 375.5,-136.5 375.5,-106.5 280.5,-106.5"/>
<text text-anchor="start" x="288.5" y="-124.5" font-family="Helvetica,sans-Serif" font-size="10.00" fill="#000000">std::basic_string&lt;</text>
<text text-anchor="middle" x="328" y="-113.5" font-family="Helvetica,sans-Serif" font-size="10.00" fill="#000000"> char &gt;</text>
</g>
<!-- Node4&#45;&gt;Node3 -->
<g id="edge4" class="edge">
<title>Node4&#45;&gt;Node3</title>
<path fill="none" stroke="#191970" d="M385.8449,-121.5C462.7087,-121.5 595.715,-121.5 655.2107,-121.5"/>
<polygon fill="#191970" stroke="#191970" points="385.8431,-118.0001 375.8431,-121.5 385.8431,-125.0001 385.8431,-118.0001"/>
</g>
<!-- Node5 -->
<g id="node6" class="node">
<title>Node5</title>
<g id="a_node6"><a xlink:title="STL class. ">
<polygon fill="#ffffff" stroke="#bfbfbf" points="0,-106.5 0,-136.5 95,-136.5 95,-106.5 0,-106.5"/>
<text text-anchor="start" x="8" y="-124.5" font-family="Helvetica,sans-Serif" font-size="10.00" fill="#000000">std::basic_string&lt;</text>
<text text-anchor="middle" x="47.5" y="-113.5" font-family="Helvetica,sans-Serif" font-size="10.00" fill="#000000"> Char &gt;</text>
</a>
</g>
</g>
<!-- Node5&#45;&gt;Node4 -->
<g id="edge5" class="edge">
<title>Node5&#45;&gt;Node4</title>
<path fill="none" stroke="#ffa500" stroke-dasharray="5,2" d="M105.0943,-121.5C156.7767,-121.5 231.7415,-121.5 280.1836,-121.5"/>
<polygon fill="#ffa500" stroke="#ffa500" points="105.083,-118.0001 95.083,-121.5 105.083,-125.0001 105.083,-118.0001"/>
<text text-anchor="middle" x="179.5" y="-124.5" font-family="Helvetica,sans-Serif" font-size="10.00" fill="#000000"> &lt; char &gt;</text>
</g>
<!-- Node6 -->
<g id="node7" class="node">
<title>Node6</title>
<g id="a_node7"><a xlink:href="structschwz_1_1Settings_1_1convergence__settings.html" target="_top" xlink:title="The various convergence settings available. ">
<polygon fill="#ffffff" stroke="#000000" points="611,-.5 611,-30.5 760,-30.5 760,-.5 611,-.5"/>
<text text-anchor="start" x="619" y="-18.5" font-family="Helvetica,sans-Serif" font-size="10.00" fill="#000000">schwz::Settings::convergence</text>
<text text-anchor="middle" x="685.5" y="-7.5" font-family="Helvetica,sans-Serif" font-size="10.00" fill="#000000">_settings</text>
</a>
</g>
</g>
<!-- Node6&#45;&gt;Node1 -->
<g id="edge6" class="edge">
<title>Node6&#45;&gt;Node1</title>
<path fill="none" stroke="#9a32cd" stroke-dasharray="5,2" d="M770.4923,-23.8222C809.1679,-28.6772 855.2921,-35.9718 896,-46.5 921.2198,-53.0226 949.0443,-64.0276 967.6263,-71.9579"/>
<polygon fill="#9a32cd" stroke="#9a32cd" points="770.6622,-20.317 760.3116,-22.5785 769.8134,-27.2654 770.6622,-20.317"/>
<text text-anchor="middle" x="840.5" y="-49.5" font-family="Helvetica,sans-Serif" font-size="10.00" fill="#000000"> convergence_settings</text>
</g>
<!-- Node7&#45;&gt;Node0 -->
<g id="edge7" class="edge">
<title>Node7&#45;&gt;Node0</title>
<path fill="none" stroke="#191970" d="M1074.2434,-243.5C1083.177,-243.5 1092.1452,-243.5 1100.7774,-243.5"/>
<polygon fill="#191970" stroke="#191970" points="1074.1916,-240.0001 1064.1915,-243.5 1074.1915,-247.0001 1074.1916,-240.0001"/>
</g>
<!-- Node8 -->
<g id="node9" class="node">
<title>Node8</title>
<polygon fill="#ffffff" stroke="#bfbfbf" points="410,-330 410,-371 586,-371 586,-330 410,-330"/>
<text text-anchor="start" x="418" y="-359" font-family="Helvetica,sans-Serif" font-size="10.00" fill="#000000">std::vector&lt; std::tuple</text>
<text text-anchor="start" x="418" y="-348" font-family="Helvetica,sans-Serif" font-size="10.00" fill="#000000">&lt; int, int, int, std::</text>
<text text-anchor="middle" x="498" y="-337" font-family="Helvetica,sans-Serif" font-size="10.00" fill="#000000">string, std::vector&lt; ValueType &gt; &gt; &gt;</text>
</g>
<!-- Node8&#45;&gt;Node7 -->
<g id="edge8" class="edge">
<title>Node8&#45;&gt;Node7</title>
<path fill="none" stroke="#9a32cd" stroke-dasharray="5,2" d="M596.2898,-335.4758C677.3397,-322.194 794.9865,-300.8551 896,-274.5 913.1266,-270.0315 931.6865,-264.0775 947.6886,-258.5824"/>
<polygon fill="#9a32cd" stroke="#9a32cd" points="595.4029,-332.074 586.0953,-337.1356 596.5278,-338.9831 595.4029,-332.074"/>
<text text-anchor="middle" x="685.5" y="-336.5" font-family="Helvetica,sans-Serif" font-size="10.00" fill="#000000"> time_struct</text>
</g>
<!-- Node9 -->
<g id="node10" class="node">
<title>Node9</title>
<g id="a_node10"><a xlink:title="STL class. ">
<polygon fill="#ffffff" stroke="#bfbfbf" points="4,-283 4,-302 91,-302 91,-283 4,-283"/>
<text text-anchor="middle" x="47.5" y="-290" font-family="Helvetica,sans-Serif" font-size="10.00" fill="#000000">std::vector&lt; T &gt;</text>
</a>
</g>
</g>
<!-- Node9&#45;&gt;Node8 -->
<g id="edge9" class="edge">
<title>Node9&#45;&gt;Node8</title>
<path fill="none" stroke="#ffa500" stroke-dasharray="5,2" d="M101.0896,-303.496C105.1135,-304.2113 109.117,-304.8887 113,-305.5 214.3769,-321.459 331.5947,-334.3732 409.8056,-342.2069"/>
<polygon fill="#ffa500" stroke="#ffa500" points="101.571,-300.0259 91.1024,-301.6561 100.3027,-306.91 101.571,-300.0259"/>
<text text-anchor="start" x="113" y="-347.5" font-family="Helvetica,sans-Serif" font-size="10.00" fill="#000000"> &lt; std::tuple&lt; int,</text>
<text text-anchor="start" x="113" y="-336.5" font-family="Helvetica,sans-Serif" font-size="10.00" fill="#000000"> int, int, std::string,</text>
<text text-anchor="middle" x="179.5" y="-325.5" font-family="Helvetica,sans-Serif" font-size="10.00" fill="#000000"> std::vector&lt; ValueType &gt; &gt; &gt;</text>
</g>
<!-- Node11 -->
<g id="node12" class="node">
<title>Node11</title>
<polygon fill="#ffffff" stroke="#bfbfbf" points="264,-277 264,-296 392,-296 392,-277 264,-277"/>
<text text-anchor="middle" x="328" y="-284" font-family="Helvetica,sans-Serif" font-size="10.00" fill="#000000">std::vector&lt; ValueType &gt;</text>
</g>
<!-- Node9&#45;&gt;Node11 -->
<g id="edge13" class="edge">
<title>Node9&#45;&gt;Node11</title>
<path fill="none" stroke="#ffa500" stroke-dasharray="5,2" d="M101.1634,-291.3521C147.5086,-290.3608 214.5759,-288.9262 263.7662,-287.874"/>
<polygon fill="#ffa500" stroke="#ffa500" points="100.9432,-287.8559 91.0204,-291.5691 101.093,-294.8543 100.9432,-287.8559"/>
<text text-anchor="middle" x="179.5" y="-293.5" font-family="Helvetica,sans-Serif" font-size="10.00" fill="#000000"> &lt; ValueType &gt;</text>
</g>
<!-- Node12 -->
<g id="node13" class="node">
<title>Node12</title>
<polygon fill="#ffffff" stroke="#bfbfbf" points="268.5,-223.5 268.5,-253.5 387.5,-253.5 387.5,-223.5 268.5,-223.5"/>
<text text-anchor="start" x="276.5" y="-241.5" font-family="Helvetica,sans-Serif" font-size="10.00" fill="#000000">std::vector&lt; std::vector</text>
<text text-anchor="middle" x="328" y="-230.5" font-family="Helvetica,sans-Serif" font-size="10.00" fill="#000000">&lt; ValueType &gt; &gt;</text>
</g>
<!-- Node9&#45;&gt;Node12 -->
<g id="edge15" class="edge">
<title>Node9&#45;&gt;Node12</title>
<path fill="none" stroke="#ffa500" stroke-dasharray="5,2" d="M85.4456,-279.9337C94.4158,-277.2365 103.9929,-274.5766 113,-272.5 164.9221,-260.5291 224.8712,-251.4306 268.2539,-245.6719"/>
<polygon fill="#ffa500" stroke="#ffa500" points="84.1585,-276.6681 75.6385,-282.9659 86.2262,-283.3558 84.1585,-276.6681"/>
<text text-anchor="middle" x="179.5" y="-275.5" font-family="Helvetica,sans-Serif" font-size="10.00" fill="#000000"> &lt; std::vector&lt; ValueType &gt; &gt;</text>
</g>
<!-- Node13 -->
<g id="node14" class="node">
<title>Node13</title>
<polygon fill="#ffffff" stroke="#bfbfbf" points="437,-149 437,-212 559,-212 559,-149 437,-149"/>
<text text-anchor="start" x="445" y="-200" font-family="Helvetica,sans-Serif" font-size="10.00" fill="#000000">std::vector&lt; std::tuple</text>
<text text-anchor="start" x="445" y="-189" font-family="Helvetica,sans-Serif" font-size="10.00" fill="#000000">&lt; int, std::vector&lt; std</text>
<text text-anchor="start" x="445" y="-178" font-family="Helvetica,sans-Serif" font-size="10.00" fill="#000000">::tuple&lt; int, int &gt; &gt;, std</text>
<text text-anchor="start" x="445" y="-167" font-family="Helvetica,sans-Serif" font-size="10.00" fill="#000000">::vector&lt; std::tuple&lt; int,</text>
<text text-anchor="middle" x="498" y="-156" font-family="Helvetica,sans-Serif" font-size="10.00" fill="#000000"> int &gt; &gt;, int, int &gt; &gt;</text>
</g>
<!-- Node9&#45;&gt;Node13 -->
<g id="edge17" class="edge">
<title>Node9&#45;&gt;Node13</title>
<path fill="none" stroke="#ffa500" stroke-dasharray="5,2" d="M53.4393,-273.2377C62.1227,-248.7982 80.8489,-207.648 113,-189.5 214.5999,-132.1509 356.5746,-148.8031 436.6752,-165.2183"/>
<polygon fill="#ffa500" stroke="#ffa500" points="50.0735,-272.2673 50.2331,-282.8609 56.7146,-274.4799 50.0735,-272.2673"/>
<text text-anchor="start" x="126" y="-236.5" font-family="Helvetica,sans-Serif" font-size="10.00" fill="#000000"> &lt; std::tuple&lt; int,</text>
<text text-anchor="start" x="126" y="-225.5" font-family="Helvetica,sans-Serif" font-size="10.00" fill="#000000"> std::vector&lt; std::tuple</text>
<text text-anchor="start" x="126" y="-214.5" font-family="Helvetica,sans-Serif" font-size="10.00" fill="#000000">&lt; int, int &gt; &gt;, std::vector</text>
<text text-anchor="start" x="126" y="-203.5" font-family="Helvetica,sans-Serif" font-size="10.00" fill="#000000">&lt; std::tuple&lt; int, int &gt; &gt;</text>
<text text-anchor="middle" x="179.5" y="-192.5" font-family="Helvetica,sans-Serif" font-size="10.00" fill="#000000">, int, int &gt; &gt;</text>
</g>
<!-- Node14 -->
<g id="node15" class="node">
<title>Node14</title>
<polygon fill="#ffffff" stroke="#bfbfbf" points="785,-361.5 785,-391.5 896,-391.5 896,-361.5 785,-361.5"/>
<text text-anchor="start" x="793" y="-379.5" font-family="Helvetica,sans-Serif" font-size="10.00" fill="#000000">std::vector&lt; unsigned</text>
<text text-anchor="middle" x="840.5" y="-368.5" font-family="Helvetica,sans-Serif" font-size="10.00" fill="#000000"> int &gt;</text>
</g>
<!-- Node9&#45;&gt;Node14 -->
<g id="edge19" class="edge">
<title>Node9&#45;&gt;Node14</title>
<path fill="none" stroke="#ffa500" stroke-dasharray="5,2" d="M59.1839,-310.6037C70.7043,-326.6816 89.908,-349.1814 113,-359.5 343.9776,-462.7122 658.7431,-414.8557 784.8841,-389.1171"/>
<polygon fill="#ffa500" stroke="#ffa500" points="61.8497,-308.3012 53.3175,-302.0201 56.0705,-312.251 61.8497,-308.3012"/>
<text text-anchor="middle" x="328" y="-423.5" font-family="Helvetica,sans-Serif" font-size="10.00" fill="#000000"> &lt; unsigned int &gt;</text>
</g>
<!-- Node10 -->
<g id="node11" class="node">
<title>Node10</title>
<g id="a_node11"><a xlink:href="structschwz_1_1Metadata_1_1post__process__data.html" target="_top" xlink:title="The struct used for storing data for post&#45;processing. ">
<polygon fill="#ffffff" stroke="#000000" points="604,-254.5 604,-284.5 767,-284.5 767,-254.5 604,-254.5"/>
<text text-anchor="start" x="612" y="-272.5" font-family="Helvetica,sans-Serif" font-size="10.00" fill="#000000">schwz::Metadata&lt; ValueType,</text>
<text text-anchor="middle" x="685.5" y="-261.5" font-family="Helvetica,sans-Serif" font-size="10.00" fill="#000000"> IndexType &gt;::post_process_data</text>
</a>
</g>
</g>
<!-- Node10&#45;&gt;Node7 -->
<g id="edge11" class="edge">
<title>Node10&#45;&gt;Node7</title>
<path fill="none" stroke="#9a32cd" stroke-dasharray="5,2" d="M777.2891,-261.6367C820.9801,-257.8938 872.5733,-253.474 913.8892,-249.9345"/>
<polygon fill="#9a32cd" stroke="#9a32cd" points="776.8964,-258.1574 767.2317,-262.4983 777.494,-265.1319 776.8964,-258.1574"/>
<text text-anchor="middle" x="840.5" y="-262.5" font-family="Helvetica,sans-Serif" font-size="10.00" fill="#000000"> post_process_data</text>
</g>
<!-- Node11&#45;&gt;Node10 -->
<g id="edge12" class="edge">
<title>Node11&#45;&gt;Node10</title>
<path fill="none" stroke="#9a32cd" stroke-dasharray="5,2" d="M367.4764,-274.2584C380.8403,-270.6878 395.9415,-267.2716 410,-265.5 474.7823,-257.3364 548.8065,-259.0158 603.7991,-262.3624"/>
<polygon fill="#9a32cd" stroke="#9a32cd" points="366.3377,-270.9422 357.6416,-276.9943 368.2138,-277.6861 366.3377,-270.9422"/>
<text text-anchor="middle" x="498" y="-312.5" font-family="Helvetica,sans-Serif" font-size="10.00" fill="#000000"> local_converged_resnorm</text>
<text text-anchor="start" x="440.5" y="-301.5" font-family="Helvetica,sans-Serif" font-size="10.00" fill="#000000">local_residual_vector</text>
<text text-anchor="middle" x="498" y="-290.5" font-family="Helvetica,sans-Serif" font-size="10.00" fill="#000000">_out</text>
<text text-anchor="start" x="440.5" y="-279.5" font-family="Helvetica,sans-Serif" font-size="10.00" fill="#000000">local_converged_iter</text>
<text text-anchor="middle" x="498" y="-268.5" font-family="Helvetica,sans-Serif" font-size="10.00" fill="#000000">_count</text>
</g>
<!-- Node12&#45;&gt;Node10 -->
<g id="edge14" class="edge">
<title>Node12&#45;&gt;Node10</title>
<path fill="none" stroke="#9a32cd" stroke-dasharray="5,2" d="M397.8651,-235.9361C449.959,-235.0378 522.733,-235.9256 586,-244.5 602.0614,-246.6767 619.2767,-250.4649 634.7962,-254.4438"/>
<polygon fill="#9a32cd" stroke="#9a32cd" points="397.6594,-232.4394 387.731,-236.1378 397.7987,-239.438 397.6594,-232.4394"/>
<text text-anchor="middle" x="498" y="-247.5" font-family="Helvetica,sans-Serif" font-size="10.00" fill="#000000"> global_residual_vector_out</text>
</g>
<!-- Node13&#45;&gt;Node7 -->
<g id="edge16" class="edge">
<title>Node13&#45;&gt;Node7</title>
<path fill="none" stroke="#9a32cd" stroke-dasharray="5,2" d="M569.229,-189.6394C661.0496,-201.4208 820.014,-221.8175 913.7478,-233.8444"/>
<polygon fill="#9a32cd" stroke="#9a32cd" points="569.5569,-186.1528 559.1927,-188.3516 568.6659,-193.0959 569.5569,-186.1528"/>
<text text-anchor="middle" x="685.5" y="-217.5" font-family="Helvetica,sans-Serif" font-size="10.00" fill="#000000"> comm_data_struct</text>
</g>
<!-- Node14&#45;&gt;Node0 -->
<g id="edge18" class="edge">
<title>Node14&#45;&gt;Node0</title>
<path fill="none" stroke="#9a32cd" stroke-dasharray="5,2" d="M886.9245,-357.443C951.8322,-330.7988 1068.387,-282.9538 1127.683,-258.6132"/>
<polygon fill="#9a32cd" stroke="#9a32cd" points="885.2733,-354.3374 877.3515,-361.3727 887.9315,-360.813 885.2733,-354.3374"/>
<text text-anchor="middle" x="989" y="-358.5" font-family="Helvetica,sans-Serif" font-size="10.00" fill="#000000"> cell_weights</text>
<text text-anchor="middle" x="989" y="-347.5" font-family="Helvetica,sans-Serif" font-size="10.00" fill="#000000">partition_indices</text>
</g>
</g>
</svg>
