<?xml version="1.0" encoding="UTF-8" standalone="no"?>
<!DOCTYPE svg PUBLIC "-//W3C//DTD SVG 1.1//EN"
 "http://www.w3.org/Graphics/SVG/1.1/DTD/svg11.dtd">
<!-- Generated by graphviz version 2.40.1 (20161225.0304)
 -->
<!-- Title: schwz::SolverRAS&lt; ValueType, IndexType &gt; Pages: 1 -->
<!--zoomable 561 -->
<svg id="main" version="1.1" xmlns="http://www.w3.org/2000/svg" xmlns:xlink="http://www.w3.org/1999/xlink" xml:space="preserve" onload="init(evt)">
<style type="text/css"><![CDATA[
.edge:hover path { stroke: red; }
.edge:hover polygon { stroke: red; fill: red; }
]]></style>
<script type="text/javascript"><![CDATA[
var edges = document.getElementsByTagName('g');
if (edges && edges.length) {
  for (var i=0;i<edges.length;i++) {
    if (edges[i].id.substr(0,4)=='edge') {
      edges[i].setAttribute('class','edge');
    }
  }
}
]]></script>
        <defs>
                <circle id="rim" cx="0" cy="0" r="7"/>
                <circle id="rim2" cx="0" cy="0" r="3.5"/>
                <g id="zoomPlus">
                        <use xlink:href="#rim" fill="#404040">
                                <set attributeName="fill" to="#808080" begin="zoomplus.mouseover" end="zoomplus.mouseout"/>
                        </use>
                        <path d="M-4,0h8M0,-4v8" fill="none" stroke="white" stroke-width="1.5" pointer-events="none"/>
                </g>
                <g id="zoomMin">
                        <use xlink:href="#rim" fill="#404040">
                                <set attributeName="fill" to="#808080" begin="zoomminus.mouseover" end="zoomminus.mouseout"/>
                        </use>
                        <path d="M-4,0h8" fill="none" stroke="white" stroke-width="1.5" pointer-events="none"/>
                </g>
                <g id="dirArrow">
                        <path fill="none" stroke="white" stroke-width="1.5" d="M0,-3.0v7 M-2.5,-0.5L0,-3.0L2.5,-0.5"/>
                </g>
               <g id="resetDef">
                       <use xlink:href="#rim2" fill="#404040">
                               <set attributeName="fill" to="#808080" begin="reset.mouseover" end="reset.mouseout"/>
                       </use>
               </g>
        </defs>

<script type="text/javascript">
var viewWidth = 1732;
var viewHeight = 561;
var sectionId = 'dynsection-0';
</script>
<script xlink:href="svgpan.js"/>
<svg id="graph" class="graph">
<g id="viewport">
<title>schwz::SolverRAS&lt; ValueType, IndexType &gt;</title>
<polygon fill="#ffffff" stroke="transparent" points="-4,4 -4,-556.5 1728,-556.5 1728,4 -4,4"/>
<!-- Node0 -->
<g id="node1" class="node">
<title>Node0</title>
<polygon fill="#bfbfbf" stroke="#000000" points="1566,-102 1566,-132 1724,-132 1724,-102 1566,-102"/>
<text text-anchor="start" x="1574" y="-120" font-family="Helvetica,sans-Serif" font-size="10.00" fill="#000000">schwz::SolverRAS&lt; ValueType,</text>
<text text-anchor="middle" x="1645" y="-109" font-family="Helvetica,sans-Serif" font-size="10.00" fill="#000000"> IndexType &gt;</text>
</g>
<!-- Node1 -->
<g id="node2" class="node">
<title>Node1</title>
<g id="a_node2"><a xlink:href="classschwz_1_1SchwarzBase.html" target="_top" xlink:title="The Base solver class is meant to be the class implementing the common implementations for all the sc...">
<polygon fill="#ffffff" stroke="#000000" points="1396,-102 1396,-132 1529,-132 1529,-102 1396,-102"/>
<text text-anchor="start" x="1404" y="-120" font-family="Helvetica,sans-Serif" font-size="10.00" fill="#000000">schwz::SchwarzBase</text>
<text text-anchor="middle" x="1462.5" y="-109" font-family="Helvetica,sans-Serif" font-size="10.00" fill="#000000">&lt; ValueType, IndexType &gt;</text>
</a>
</g>
</g>
<!-- Node1&#45;&gt;Node0 -->
<g id="edge1" class="edge">
<title>Node1&#45;&gt;Node0</title>
<path fill="none" stroke="#191970" d="M1539.3367,-117C1548.0926,-117 1557.0302,-117 1565.8159,-117"/>
<polygon fill="#191970" stroke="#191970" points="1539.1614,-113.5001 1529.1614,-117 1539.1613,-120.5001 1539.1614,-113.5001"/>
</g>
<!-- Node2 -->
<g id="node3" class="node">
<title>Node2</title>
<g id="a_node3"><a xlink:href="classschwz_1_1Initialize.html" target="_top" xlink:title="The initialization class that provides methods for initialization of the solver. ">
<polygon fill="#ffffff" stroke="#000000" points="1228.5,-303 1228.5,-333 1355.5,-333 1355.5,-303 1228.5,-303"/>
<text text-anchor="start" x="1236.5" y="-321" font-family="Helvetica,sans-Serif" font-size="10.00" fill="#000000">schwz::Initialize&lt;</text>
<text text-anchor="middle" x="1292" y="-310" font-family="Helvetica,sans-Serif" font-size="10.00" fill="#000000"> ValueType, IndexType &gt;</text>
</a>
</g>
</g>
<!-- Node2&#45;&gt;Node1 -->
<g id="edge2" class="edge">
<title>Node2&#45;&gt;Node1</title>
<path fill="none" stroke="#191970" d="M1311.316,-295.2287C1346.5059,-253.7438 1420.1564,-166.9183 1449.7687,-132.0088"/>
<polygon fill="#191970" stroke="#191970" points="1308.6149,-293.0023 1304.8152,-302.8923 1313.9531,-297.5304 1308.6149,-293.0023"/>
</g>
<!-- Node3 -->
<g id="node4" class="node">
<title>Node3</title>
<g id="a_node4"><a xlink:href="structschwz_1_1Settings.html" target="_top" xlink:title="The struct that contains the solver settings and the parameters to be set by the user. ">
<polygon fill="#ffffff" stroke="#000000" points="937.5,-378.5 937.5,-397.5 1024.5,-397.5 1024.5,-378.5 937.5,-378.5"/>
<text text-anchor="middle" x="981" y="-385.5" font-family="Helvetica,sans-Serif" font-size="10.00" fill="#000000">schwz::Settings</text>
</a>
</g>
</g>
<!-- Node3&#45;&gt;Node2 -->
<g id="edge3" class="edge">
<title>Node3&#45;&gt;Node2</title>
<path fill="none" stroke="#191970" d="M1034.8628,-381.0066C1080.9916,-374.4154 1148.9629,-363.2674 1207,-348 1222.4369,-343.9391 1239.0665,-338.3517 1253.4876,-333.0988"/>
<polygon fill="#191970" stroke="#191970" points="1034.2004,-377.5653 1024.7852,-382.4237 1035.1752,-384.4971 1034.2004,-377.5653"/>
</g>
<!-- Node20 -->
<g id="node20" class="node">
<title>Node20</title>
<g id="a_node20"><a xlink:href="classschwz_1_1Solve.html" target="_top" xlink:title="The Solver class the provides the solver and the convergence checking methods. ">
<polygon fill="#ffffff" stroke="#000000" points="1225,-372 1225,-402 1359,-402 1359,-372 1225,-372"/>
<text text-anchor="start" x="1233" y="-390" font-family="Helvetica,sans-Serif" font-size="10.00" fill="#000000">schwz::Solve&lt; ValueType,</text>
<text text-anchor="middle" x="1292" y="-379" font-family="Helvetica,sans-Serif" font-size="10.00" fill="#000000"> IndexType &gt;</text>
</a>
</g>
</g>
<!-- Node3&#45;&gt;Node20 -->
<g id="edge26" class="edge">
<title>Node3&#45;&gt;Node20</title>
<path fill="none" stroke="#191970" d="M1034.7198,-387.8273C1087.3938,-387.6579 1167.8553,-387.3992 1224.7518,-387.2162"/>
<polygon fill="#191970" stroke="#191970" points="1034.5593,-384.3277 1024.5707,-387.8599 1034.5819,-391.3276 1034.5593,-384.3277"/>
</g>
<!-- Node4 -->
<g id="node5" class="node">
<title>Node4</title>
<g id="a_node5"><a xlink:href="structschwz_1_1Settings_1_1comm__settings.html" target="_top" xlink:title="The settings for the various available communication paradigms. ">
<polygon fill="#ffffff" stroke="#000000" points="617.5,-473 617.5,-503 737.5,-503 737.5,-473 617.5,-473"/>
<text text-anchor="start" x="625.5" y="-491" font-family="Helvetica,sans-Serif" font-size="10.00" fill="#000000">schwz::Settings::comm</text>
<text text-anchor="middle" x="677.5" y="-480" font-family="Helvetica,sans-Serif" font-size="10.00" fill="#000000">_settings</text>
</a>
</g>
</g>
<!-- Node4&#45;&gt;Node3 -->
<g id="edge4" class="edge">
<title>Node4&#45;&gt;Node3</title>
<path fill="none" stroke="#9a32cd" stroke-dasharray="5,2" d="M747.8555,-487.2502C789.921,-484.6503 843.6374,-477.4681 888,-459 923.0684,-444.4011 956.5274,-413.2458 972.0163,-397.5117"/>
<polygon fill="#9a32cd" stroke="#9a32cd" points="747.4944,-483.7646 737.6997,-487.8037 747.8754,-490.7543 747.4944,-483.7646"/>
<text text-anchor="middle" x="832.5" y="-487" font-family="Helvetica,sans-Serif" font-size="10.00" fill="#000000"> comm_settings</text>
</g>
<!-- Node5 -->
<g id="node6" class="node">
<title>Node5</title>
<g id="a_node6"><a xlink:title="STL class. ">
<polygon fill="#ffffff" stroke="#bfbfbf" points="647.5,-347.5 647.5,-366.5 707.5,-366.5 707.5,-347.5 647.5,-347.5"/>
<text text-anchor="middle" x="677.5" y="-354.5" font-family="Helvetica,sans-Serif" font-size="10.00" fill="#000000">std::string</text>
</a>
</g>
</g>
<!-- Node5&#45;&gt;Node3 -->
<g id="edge5" class="edge">
<title>Node5&#45;&gt;Node3</title>
<path fill="none" stroke="#9a32cd" stroke-dasharray="5,2" d="M717.7861,-361.1149C774.7763,-366.936 878.5281,-377.5333 937.3139,-383.5378"/>
<polygon fill="#9a32cd" stroke="#9a32cd" points="718.0142,-357.6201 707.7103,-360.0857 717.3029,-364.5838 718.0142,-357.6201"/>
<text text-anchor="middle" x="832.5" y="-447" font-family="Helvetica,sans-Serif" font-size="10.00" fill="#000000"> factorization</text>
<text text-anchor="middle" x="832.5" y="-436" font-family="Helvetica,sans-Serif" font-size="10.00" fill="#000000">metis_objtype</text>
<text text-anchor="middle" x="832.5" y="-425" font-family="Helvetica,sans-Serif" font-size="10.00" fill="#000000">thres_type</text>
<text text-anchor="middle" x="832.5" y="-414" font-family="Helvetica,sans-Serif" font-size="10.00" fill="#000000">matrix_filename</text>
<text text-anchor="middle" x="832.5" y="-403" font-family="Helvetica,sans-Serif" font-size="10.00" fill="#000000">reorder</text>
<text text-anchor="middle" x="832.5" y="-392" font-family="Helvetica,sans-Serif" font-size="10.00" fill="#000000">executor_string</text>
<text text-anchor="middle" x="832.5" y="-381" font-family="Helvetica,sans-Serif" font-size="10.00" fill="#000000">rhs_type</text>
</g>
<!-- Node9 -->
<g id="node9" class="node">
<title>Node9</title>
<g id="a_node9"><a xlink:href="structschwz_1_1Metadata.html" target="_top" xlink:title="The solver metadata struct. ">
<polygon fill="#ffffff" stroke="#000000" points="906,-269 906,-299 1056,-299 1056,-269 906,-269"/>
<text text-anchor="start" x="914" y="-287" font-family="Helvetica,sans-Serif" font-size="10.00" fill="#000000">schwz::Metadata&lt; ValueType,</text>
<text text-anchor="middle" x="981" y="-276" font-family="Helvetica,sans-Serif" font-size="10.00" fill="#000000"> IndexType &gt;</text>
</a>
</g>
</g>
<!-- Node5&#45;&gt;Node9 -->
<g id="edge11" class="edge">
<title>Node5&#45;&gt;Node9</title>
<path fill="none" stroke="#9a32cd" stroke-dasharray="5,2" d="M706.0881,-343.1113C725.6391,-334.1428 752.3758,-322.9006 777,-316 800.7756,-309.3372 858.03,-300.5796 905.8504,-293.9106"/>
<polygon fill="#9a32cd" stroke="#9a32cd" points="704.4189,-340.0279 696.839,-347.4304 707.3807,-346.3705 704.4189,-340.0279"/>
<text text-anchor="middle" x="832.5" y="-319" font-family="Helvetica,sans-Serif" font-size="10.00" fill="#000000"> local_precond</text>
</g>
<!-- Node6 -->
<g id="node7" class="node">
<title>Node6</title>
<polygon fill="#ffffff" stroke="#bfbfbf" points="272.5,-335 272.5,-365 367.5,-365 367.5,-335 272.5,-335"/>
<text text-anchor="start" x="280.5" y="-353" font-family="Helvetica,sans-Serif" font-size="10.00" fill="#000000">std::basic_string&lt;</text>
<text text-anchor="middle" x="320" y="-342" font-family="Helvetica,sans-Serif" font-size="10.00" fill="#000000"> char &gt;</text>
</g>
<!-- Node6&#45;&gt;Node5 -->
<g id="edge6" class="edge">
<title>Node6&#45;&gt;Node5</title>
<path fill="none" stroke="#191970" d="M377.8449,-351.1326C454.7087,-352.6377 587.715,-355.242 647.2107,-356.4069"/>
<polygon fill="#191970" stroke="#191970" points="377.9097,-347.6333 367.8431,-350.9368 377.7726,-354.632 377.9097,-347.6333"/>
</g>
<!-- Node8 -->
<g id="node8" class="node">
<title>Node8</title>
<g id="a_node8"><a xlink:href="structschwz_1_1Settings_1_1convergence__settings.html" target="_top" xlink:title="The various convergence settings available. ">
<polygon fill="#ffffff" stroke="#000000" points="603,-522 603,-552 752,-552 752,-522 603,-522"/>
<text text-anchor="start" x="611" y="-540" font-family="Helvetica,sans-Serif" font-size="10.00" fill="#000000">schwz::Settings::convergence</text>
<text text-anchor="middle" x="677.5" y="-529" font-family="Helvetica,sans-Serif" font-size="10.00" fill="#000000">_settings</text>
</a>
</g>
</g>
<!-- Node8&#45;&gt;Node3 -->
<g id="edge7" class="edge">
<title>Node8&#45;&gt;Node3</title>
<path fill="none" stroke="#9a32cd" stroke-dasharray="5,2" d="M762.4956,-534.9089C802.7914,-530.7171 850.2513,-520.9154 888,-499 931.7018,-473.6285 964.1098,-419.67 976.018,-397.6558"/>
<polygon fill="#9a32cd" stroke="#9a32cd" points="762.0435,-531.4359 752.4155,-535.8577 762.6995,-538.4051 762.0435,-531.4359"/>
<text text-anchor="middle" x="832.5" y="-535" font-family="Helvetica,sans-Serif" font-size="10.00" fill="#000000"> convergence_settings</text>
</g>
<!-- Node9&#45;&gt;Node2 -->
<g id="edge8" class="edge">
<title>Node9&#45;&gt;Node2</title>
<path fill="none" stroke="#191970" d="M1066.3497,-293.3308C1117.5772,-298.9313 1181.6557,-305.9366 1228.4256,-311.0497"/>
<polygon fill="#191970" stroke="#191970" points="1066.6056,-289.838 1056.2844,-292.2305 1065.8448,-296.7966 1066.6056,-289.838"/>
</g>
<!-- Node10 -->
<g id="node10" class="node">
<title>Node10</title>
<polygon fill="#ffffff" stroke="#bfbfbf" points="402,-231.5 402,-272.5 578,-272.5 578,-231.5 402,-231.5"/>
<text text-anchor="start" x="410" y="-260.5" font-family="Helvetica,sans-Serif" font-size="10.00" fill="#000000">std::vector&lt; std::tuple</text>
<text text-anchor="start" x="410" y="-249.5" font-family="Helvetica,sans-Serif" font-size="10.00" fill="#000000">&lt; int, int, int, std::</text>
<text text-anchor="middle" x="490" y="-238.5" font-family="Helvetica,sans-Serif" font-size="10.00" fill="#000000">string, std::vector&lt; ValueType &gt; &gt; &gt;</text>
</g>
<!-- Node10&#45;&gt;Node9 -->
<g id="edge9" class="edge">
<title>Node10&#45;&gt;Node9</title>
<path fill="none" stroke="#9a32cd" stroke-dasharray="5,2" d="M588.107,-258.3939C681.675,-264.4921 820.5989,-273.5462 905.7308,-279.0945"/>
<polygon fill="#9a32cd" stroke="#9a32cd" points="588.2708,-254.8973 578.0643,-257.7394 587.8155,-261.8825 588.2708,-254.8973"/>
<text text-anchor="middle" x="677.5" y="-273" font-family="Helvetica,sans-Serif" font-size="10.00" fill="#000000"> time_struct</text>
</g>
<!-- Node11 -->
<g id="node11" class="node">
<title>Node11</title>
<g id="a_node11"><a xlink:title="STL class. ">
<polygon fill="#ffffff" stroke="#bfbfbf" points="0,-197.5 0,-216.5 87,-216.5 87,-197.5 0,-197.5"/>
<text text-anchor="middle" x="43.5" y="-204.5" font-family="Helvetica,sans-Serif" font-size="10.00" fill="#000000">std::vector&lt; T &gt;</text>
</a>
</g>
</g>
<!-- Node11&#45;&gt;Node10 -->
<g id="edge10" class="edge">
<title>Node11&#45;&gt;Node10</title>
<path fill="none" stroke="#ffa500" stroke-dasharray="5,2" d="M97.353,-212.4275C172.8691,-220.0383 311.1217,-233.972 401.7839,-243.1092"/>
<polygon fill="#ffa500" stroke="#ffa500" points="97.4259,-208.9172 87.1253,-211.3967 96.7239,-215.8819 97.4259,-208.9172"/>
<text text-anchor="start" x="105" y="-251" font-family="Helvetica,sans-Serif" font-size="10.00" fill="#000000"> &lt; std::tuple&lt; int,</text>
<text text-anchor="start" x="105" y="-240" font-family="Helvetica,sans-Serif" font-size="10.00" fill="#000000"> int, int, std::string,</text>
<text text-anchor="middle" x="171.5" y="-229" font-family="Helvetica,sans-Serif" font-size="10.00" fill="#000000"> std::vector&lt; ValueType &gt; &gt; &gt;</text>
</g>
<!-- Node13 -->
<g id="node13" class="node">
<title>Node13</title>
<polygon fill="#ffffff" stroke="#bfbfbf" points="256,-166.5 256,-185.5 384,-185.5 384,-166.5 256,-166.5"/>
<text text-anchor="middle" x="320" y="-173.5" font-family="Helvetica,sans-Serif" font-size="10.00" fill="#000000">std::vector&lt; ValueType &gt;</text>
</g>
<!-- Node11&#45;&gt;Node13 -->
<g id="edge14" class="edge">
<title>Node11&#45;&gt;Node13</title>
<path fill="none" stroke="#ffa500" stroke-dasharray="5,2" d="M96.9566,-201.0067C142.3829,-195.9137 207.7081,-188.5897 255.9285,-183.1834"/>
<polygon fill="#ffa500" stroke="#ffa500" points="96.555,-197.5297 87.0073,-202.1221 97.335,-204.4861 96.555,-197.5297"/>
<text text-anchor="middle" x="171.5" y="-203" font-family="Helvetica,sans-Serif" font-size="10.00" fill="#000000"> &lt; ValueType &gt;</text>
</g>
<!-- Node14 -->
<g id="node14" class="node">
<title>Node14</title>
<polygon fill="#ffffff" stroke="#bfbfbf" points="260.5,-117 260.5,-147 379.5,-147 379.5,-117 260.5,-117"/>
<text text-anchor="start" x="268.5" y="-135" font-family="Helvetica,sans-Serif" font-size="10.00" fill="#000000">std::vector&lt; std::vector</text>
<text text-anchor="middle" x="320" y="-124" font-family="Helvetica,sans-Serif" font-size="10.00" fill="#000000">&lt; ValueType &gt; &gt;</text>
</g>
<!-- Node11&#45;&gt;Node14 -->
<g id="edge16" class="edge">
<title>Node11&#45;&gt;Node14</title>
<path fill="none" stroke="#ffa500" stroke-dasharray="5,2" d="M66.2112,-191.6502C77.4503,-184.6975 91.4796,-176.9456 105,-172 155.632,-153.4795 216.245,-143.1981 260.1879,-137.7138"/>
<polygon fill="#ffa500" stroke="#ffa500" points="64.0369,-188.8862 57.499,-197.2233 67.809,-194.7829 64.0369,-188.8862"/>
<text text-anchor="middle" x="171.5" y="-175" font-family="Helvetica,sans-Serif" font-size="10.00" fill="#000000"> &lt; std::vector&lt; ValueType &gt; &gt;</text>
</g>
<!-- Node15 -->
<g id="node15" class="node">
<title>Node15</title>
<polygon fill="#ffffff" stroke="#bfbfbf" points="429,-278.5 429,-341.5 551,-341.5 551,-278.5 429,-278.5"/>
<text text-anchor="start" x="437" y="-329.5" font-family="Helvetica,sans-Serif" font-size="10.00" fill="#000000">std::vector&lt; std::tuple</text>
<text text-anchor="start" x="437" y="-318.5" font-family="Helvetica,sans-Serif" font-size="10.00" fill="#000000">&lt; int, std::vector&lt; std</text>
<text text-anchor="start" x="437" y="-307.5" font-family="Helvetica,sans-Serif" font-size="10.00" fill="#000000">::tuple&lt; int, int &gt; &gt;, std</text>
<text text-anchor="start" x="437" y="-296.5" font-family="Helvetica,sans-Serif" font-size="10.00" fill="#000000">::vector&lt; std::tuple&lt; int,</text>
<text text-anchor="middle" x="490" y="-285.5" font-family="Helvetica,sans-Serif" font-size="10.00" fill="#000000"> int &gt; &gt;, int, int &gt; &gt;</text>
</g>
<!-- Node11&#45;&gt;Node15 -->
<g id="edge18" class="edge">
<title>Node11&#45;&gt;Node15</title>
<path fill="none" stroke="#ffa500" stroke-dasharray="5,2" d="M57.5728,-224.6986C68.914,-237.6089 86.0502,-254.3081 105,-263 211.1909,-311.7079 350.2831,-315.982 428.9038,-313.6782"/>
<polygon fill="#ffa500" stroke="#ffa500" points="60.1131,-222.2814 50.9961,-216.884 54.7574,-226.7888 60.1131,-222.2814"/>
<text text-anchor="start" x="118" y="-349" font-family="Helvetica,sans-Serif" font-size="10.00" fill="#000000"> &lt; std::tuple&lt; int,</text>
<text text-anchor="start" x="118" y="-338" font-family="Helvetica,sans-Serif" font-size="10.00" fill="#000000"> std::vector&lt; std::tuple</text>
<text text-anchor="start" x="118" y="-327" font-family="Helvetica,sans-Serif" font-size="10.00" fill="#000000">&lt; int, int &gt; &gt;, std::vector</text>
<text text-anchor="start" x="118" y="-316" font-family="Helvetica,sans-Serif" font-size="10.00" fill="#000000">&lt; std::tuple&lt; int, int &gt; &gt;</text>
<text text-anchor="middle" x="171.5" y="-305" font-family="Helvetica,sans-Serif" font-size="10.00" fill="#000000">, int, int &gt; &gt;</text>
</g>
<!-- Node16 -->
<g id="node16" class="node">
<title>Node16</title>
<polygon fill="#ffffff" stroke="#bfbfbf" points="777,-334 777,-364 888,-364 888,-334 777,-334"/>
<text text-anchor="start" x="785" y="-352" font-family="Helvetica,sans-Serif" font-size="10.00" fill="#000000">std::vector&lt; unsigned</text>
<text text-anchor="middle" x="832.5" y="-341" font-family="Helvetica,sans-Serif" font-size="10.00" fill="#000000"> int &gt;</text>
</g>
<!-- Node11&#45;&gt;Node16 -->
<g id="edge20" class="edge">
<title>Node11&#45;&gt;Node16</title>
<path fill="none" stroke="#ffa500" stroke-dasharray="5,2" d="M44.9726,-226.6369C48.6507,-260.3272 61.3795,-328.6333 105,-361 143.6672,-389.6913 414.0084,-375.4647 596,-376 668.4441,-376.2131 688.1337,-391.0388 759,-376 767.5638,-374.1826 768.8507,-371.1986 777,-368 780.4129,-366.6604 783.9635,-365.3219 787.5455,-364.0105"/>
<polygon fill="#ffa500" stroke="#ffa500" points="48.4539,-226.2723 44.0406,-216.6404 41.4841,-226.9222 48.4539,-226.2723"/>
<text text-anchor="middle" x="320" y="-383" font-family="Helvetica,sans-Serif" font-size="10.00" fill="#000000"> &lt; unsigned int &gt;</text>
</g>
<!-- Node19 -->
<g id="node19" class="node">
<title>Node19</title>
<polygon fill="#ffffff" stroke="#bfbfbf" points="270.5,-63.5 270.5,-82.5 369.5,-82.5 369.5,-63.5 270.5,-63.5"/>
<text text-anchor="middle" x="320" y="-70.5" font-family="Helvetica,sans-Serif" font-size="10.00" fill="#000000">std::vector&lt; bool &gt;</text>
</g>
<!-- Node11&#45;&gt;Node19 -->
<g id="edge24" class="edge">
<title>Node11&#45;&gt;Node19</title>
<path fill="none" stroke="#ffa500" stroke-dasharray="5,2" d="M52.7979,-188.2853C63.033,-169.646 81.2378,-141.6207 105,-126 155.1138,-93.0563 223.989,-80.5818 270.1511,-75.863"/>
<polygon fill="#ffa500" stroke="#ffa500" points="49.6151,-186.8182 48.0657,-197.2991 55.8129,-190.072 49.6151,-186.8182"/>
<text text-anchor="middle" x="171.5" y="-129" font-family="Helvetica,sans-Serif" font-size="10.00" fill="#000000"> &lt; bool &gt;</text>
</g>
<!-- Node12 -->
<g id="node12" class="node">
<title>Node12</title>
<g id="a_node12"><a xlink:href="structschwz_1_1Metadata_1_1post__process__data.html" target="_top" xlink:title="The struct used for storing data for post&#45;processing. ">
<polygon fill="#ffffff" stroke="#000000" points="596,-156 596,-186 759,-186 759,-156 596,-156"/>
<text text-anchor="start" x="604" y="-174" font-family="Helvetica,sans-Serif" font-size="10.00" fill="#000000">schwz::Metadata&lt; ValueType,</text>
<text text-anchor="middle" x="677.5" y="-163" font-family="Helvetica,sans-Serif" font-size="10.00" fill="#000000"> IndexType &gt;::post_process_data</text>
</a>
</g>
</g>
<!-- Node12&#45;&gt;Node9 -->
<g id="edge12" class="edge">
<title>Node12&#45;&gt;Node9</title>
<path fill="none" stroke="#9a32cd" stroke-dasharray="5,2" d="M769.2009,-179.419C807.1984,-185.282 850.9565,-195.2086 888,-212 918.872,-225.994 948.8107,-252.1134 966.0457,-268.7491"/>
<polygon fill="#9a32cd" stroke="#9a32cd" points="769.5642,-175.9348 759.1613,-177.9426 768.5456,-182.8604 769.5642,-175.9348"/>
<text text-anchor="middle" x="832.5" y="-215" font-family="Helvetica,sans-Serif" font-size="10.00" fill="#000000"> post_process_data</text>
</g>
<!-- Node13&#45;&gt;Node1 -->
<g id="edge27" class="edge">
<title>Node13&#45;&gt;Node1</title>
<path fill="none" stroke="#9a32cd" stroke-dasharray="5,2" d="M372.9759,-162.433C376.8516,-160.5518 380.5773,-158.4182 384,-156 394.8896,-148.3062 390.1168,-138.047 402,-132 490.105,-87.1659 1176.6651,-106.996 1395.6323,-114.5507"/>
<polygon fill="#9a32cd" stroke="#9a32cd" points="371.5545,-159.2341 363.7319,-166.3796 374.3031,-165.6719 371.5545,-159.2341"/>
<text text-anchor="middle" x="981" y="-109" font-family="Helvetica,sans-Serif" font-size="10.00" fill="#000000"> local_residual_vector_out</text>
</g>
<!-- Node13&#45;&gt;Node12 -->
<g id="edge13" class="edge">
<title>Node13&#45;&gt;Node12</title>
<path fill="none" stroke="#9a32cd" stroke-dasharray="5,2" d="M394.3866,-167.477C396.9539,-167.2972 399.4975,-167.1369 402,-167 467.0777,-163.4394 540.9228,-164.8019 595.7685,-166.8558"/>
<polygon fill="#9a32cd" stroke="#9a32cd" points="394.0992,-163.9886 384.4031,-168.2589 394.6459,-170.9673 394.0992,-163.9886"/>
<text text-anchor="middle" x="490" y="-214" font-family="Helvetica,sans-Serif" font-size="10.00" fill="#000000"> local_converged_resnorm</text>
<text text-anchor="start" x="432.5" y="-203" font-family="Helvetica,sans-Serif" font-size="10.00" fill="#000000">local_residual_vector</text>
<text text-anchor="middle" x="490" y="-192" font-family="Helvetica,sans-Serif" font-size="10.00" fill="#000000">_out</text>
<text text-anchor="start" x="432.5" y="-181" font-family="Helvetica,sans-Serif" font-size="10.00" fill="#000000">local_converged_iter</text>
<text text-anchor="middle" x="490" y="-170" font-family="Helvetica,sans-Serif" font-size="10.00" fill="#000000">_count</text>
</g>
<!-- Node14&#45;&gt;Node1 -->
<g id="edge28" class="edge">
<title>Node14&#45;&gt;Node1</title>
<path fill="none" stroke="#9a32cd" stroke-dasharray="5,2" d="M352.0277,-111.8035C366.6978,-103.5678 384.6525,-94.8555 402,-90 520.2231,-56.9099 554.7333,-70 677.5,-70 677.5,-70 677.5,-70 1292,-70 1340.9741,-70 1395.1078,-88.2448 1428.9607,-101.9997"/>
<polygon fill="#9a32cd" stroke="#9a32cd" points="350.2498,-108.7886 343.3528,-116.8311 353.7598,-114.845 350.2498,-108.7886"/>
<text text-anchor="middle" x="981" y="-73" font-family="Helvetica,sans-Serif" font-size="10.00" fill="#000000"> global_residual_vector_out</text>
</g>
<!-- Node14&#45;&gt;Node12 -->
<g id="edge15" class="edge">
<title>Node14&#45;&gt;Node12</title>
<path fill="none" stroke="#9a32cd" stroke-dasharray="5,2" d="M389.8058,-134.2559C441.8697,-136.5715 514.6323,-141.1458 578,-150 589.2778,-151.5758 601.189,-153.6907 612.6984,-155.9729"/>
<polygon fill="#9a32cd" stroke="#9a32cd" points="389.8185,-130.7533 379.6779,-133.8223 389.519,-137.7469 389.8185,-130.7533"/>
<text text-anchor="middle" x="490" y="-153" font-family="Helvetica,sans-Serif" font-size="10.00" fill="#000000"> global_residual_vector_out</text>
</g>
<!-- Node15&#45;&gt;Node9 -->
<g id="edge17" class="edge">
<title>Node15&#45;&gt;Node9</title>
<path fill="none" stroke="#9a32cd" stroke-dasharray="5,2" d="M561.229,-306.2282C653.0496,-301.366 812.014,-292.9483 905.7478,-287.9848"/>
<polygon fill="#9a32cd" stroke="#9a32cd" points="560.9936,-302.7357 551.1927,-306.7597 561.3638,-309.7259 560.9936,-302.7357"/>
<text text-anchor="middle" x="677.5" y="-308" font-family="Helvetica,sans-Serif" font-size="10.00" fill="#000000"> comm_data_struct</text>
</g>
<!-- Node16&#45;&gt;Node2 -->
<g id="edge19" class="edge">
<title>Node16&#45;&gt;Node2</title>
<path fill="none" stroke="#9a32cd" stroke-dasharray="5,2" d="M898.5261,-344.5456C986.625,-338.602 1141.5742,-328.1484 1228.4168,-322.2896"/>
<polygon fill="#9a32cd" stroke="#9a32cd" points="898.126,-341.0645 888.3843,-345.2298 898.5973,-348.0486 898.126,-341.0645"/>
<text text-anchor="middle" x="981" y="-358" font-family="Helvetica,sans-Serif" font-size="10.00" fill="#000000"> cell_weights</text>
<text text-anchor="middle" x="981" y="-347" font-family="Helvetica,sans-Serif" font-size="10.00" fill="#000000">partition_indices</text>
</g>
<!-- Node17 -->
<g id="node17" class="node">
<title>Node17</title>
<g id="a_node17"><a xlink:href="classschwz_1_1Communicate.html" target="_top" xlink:title="The communication class that provides the methods for the communication between the subdomains...">
<polygon fill="#ffffff" stroke="#000000" points="1074,-12 1074,-42 1207,-42 1207,-12 1074,-12"/>
<text text-anchor="start" x="1082" y="-30" font-family="Helvetica,sans-Serif" font-size="10.00" fill="#000000">schwz::Communicate</text>
<text text-anchor="middle" x="1140.5" y="-19" font-family="Helvetica,sans-Serif" font-size="10.00" fill="#000000">&lt; ValueType, IndexType &gt;</text>
</a>
</g>
</g>
<!-- Node17&#45;&gt;Node1 -->
<g id="edge21" class="edge">
<title>Node17&#45;&gt;Node1</title>
<path fill="none" stroke="#191970" d="M1217.4341,-26.7284C1265.1249,-28.8826 1326.8334,-35.9548 1378,-56 1404.7861,-66.4938 1430.8954,-87.4836 1446.8356,-101.8832"/>
<polygon fill="#191970" stroke="#191970" points="1217.3004,-23.2207 1207.1722,-26.3305 1217.0291,-30.2154 1217.3004,-23.2207"/>
</g>
<!-- Node18 -->
<g id="node18" class="node">
<title>Node18</title>
<g id="a_node18"><a xlink:href="structschwz_1_1Communicate_1_1comm__struct.html" target="_top" xlink:title="The communication struct used to store the communication data. ">
<polygon fill="#ffffff" stroke="#000000" points="615.5,-.5 615.5,-41.5 739.5,-41.5 739.5,-.5 615.5,-.5"/>
<text text-anchor="start" x="623.5" y="-29.5" font-family="Helvetica,sans-Serif" font-size="10.00" fill="#000000">schwz::Communicate</text>
<text text-anchor="start" x="623.5" y="-18.5" font-family="Helvetica,sans-Serif" font-size="10.00" fill="#000000">&lt; ValueType, IndexType</text>
<text text-anchor="middle" x="677.5" y="-7.5" font-family="Helvetica,sans-Serif" font-size="10.00" fill="#000000"> &gt;::comm_struct</text>
</a>
</g>
</g>
<!-- Node18&#45;&gt;Node17 -->
<g id="edge22" class="edge">
<title>Node18&#45;&gt;Node17</title>
<path fill="none" stroke="#9a32cd" stroke-dasharray="5,2" d="M750.1959,-21.9421C838.9646,-23.0924 987.8661,-25.022 1073.813,-26.1358"/>
<polygon fill="#9a32cd" stroke="#9a32cd" points="749.9868,-18.4392 739.9422,-21.8092 749.896,-25.4386 749.9868,-18.4392"/>
<text text-anchor="middle" x="832.5" y="-27" font-family="Helvetica,sans-Serif" font-size="10.00" fill="#000000"> comm_struct</text>
</g>
<!-- Node19&#45;&gt;Node18 -->
<g id="edge23" class="edge">
<title>Node19&#45;&gt;Node18</title>
<path fill="none" stroke="#9a32cd" stroke-dasharray="5,2" d="M352.9499,-59.7089C367.7191,-54.2859 385.4963,-48.4827 402,-45 474.2263,-29.7586 559.0702,-24.1678 615.3235,-22.1333"/>
<polygon fill="#9a32cd" stroke="#9a32cd" points="351.3766,-56.5618 343.2583,-63.3694 353.8499,-63.1103 351.3766,-56.5618"/>
<text text-anchor="middle" x="490" y="-48" font-family="Helvetica,sans-Serif" font-size="10.00" fill="#000000"> is_local_neighbor</text>
</g>
<!-- Node20&#45;&gt;Node1 -->
<g id="edge25" class="edge">
<title>Node20&#45;&gt;Node1</title>
<path fill="none" stroke="#191970" d="M1330.267,-366.4922C1340.5256,-359.6934 1350.9815,-351.4192 1359,-342 1416.137,-274.8826 1448.135,-170.9765 1458.6165,-132.2402"/>
<polygon fill="#191970" stroke="#191970" points="1328.3538,-363.5607 1321.7541,-371.8489 1332.0819,-369.4854 1328.3538,-363.5607"/>
</g>
</g>
</svg>
        <g id="navigator" transform="translate(0 0)" fill="#404254">
                <rect fill="#f2f5e9" fill-opacity="0.5" stroke="#606060" stroke-width=".5" x="0" y="0" width="60" height="60"/>
                <use id="zoomplus" xlink:href="#zoomPlus" x="17" y="9" onmousedown="handleZoom(evt,'in')"/>
                <use id="zoomminus" xlink:href="#zoomMin" x="42" y="9" onmousedown="handleZoom(evt,'out')"/>
                <use id="reset" xlink:href="#resetDef" x="30" y="36" onmousedown="handleReset()"/>
                <g id="arrowUp" xlink:href="#dirArrow" transform="translate(30 24)" onmousedown="handlePan(0,-1)">
                  <use xlink:href="#rim" fill="#404040">
                        <set attributeName="fill" to="#808080" begin="arrowUp.mouseover" end="arrowUp.mouseout"/>
                  </use>
                  <path fill="none" stroke="white" stroke-width="1.5" d="M0,-3.0v7 M-2.5,-0.5L0,-3.0L2.5,-0.5"/>
                </g>
                <g id="arrowRight" xlink:href="#dirArrow" transform="rotate(90) translate(36 -43)" onmousedown="handlePan(1,0)">
                  <use xlink:href="#rim" fill="#404040">
                        <set attributeName="fill" to="#808080" begin="arrowRight.mouseover" end="arrowRight.mouseout"/>
                  </use>
                  <path fill="none" stroke="white" stroke-width="1.5" d="M0,-3.0v7 M-2.5,-0.5L0,-3.0L2.5,-0.5"/>
                </g>
                <g id="arrowDown" xlink:href="#dirArrow" transform="rotate(180) translate(-30 -48)" onmousedown="handlePan(0,1)">
                  <use xlink:href="#rim" fill="#404040">
                        <set attributeName="fill" to="#808080" begin="arrowDown.mouseover" end="arrowDown.mouseout"/>
                  </use>
                  <path fill="none" stroke="white" stroke-width="1.5" d="M0,-3.0v7 M-2.5,-0.5L0,-3.0L2.5,-0.5"/>
                </g>
                <g id="arrowLeft" xlink:href="#dirArrow" transform="rotate(270) translate(-36 17)" onmousedown="handlePan(-1,0)">
                  <use xlink:href="#rim" fill="#404040">
                        <set attributeName="fill" to="#808080" begin="arrowLeft.mouseover" end="arrowLeft.mouseout"/>
                  </use>
                  <path fill="none" stroke="white" stroke-width="1.5" d="M0,-3.0v7 M-2.5,-0.5L0,-3.0L2.5,-0.5"/>
                </g>
        </g>
        <svg viewBox="0 0 15 15" width="100%" height="30px" preserveAspectRatio="xMaxYMin meet">
         <g id="arrow_out" transform="scale(0.3 0.3)">
          <a xlink:href="classschwz_1_1SolverRAS__coll__graph_org.svg" target="_base">
           <rect id="button" ry="5" rx="5" y="6" x="6" height="38" width="38"
                fill="#f2f5e9" fill-opacity="0.5" stroke="#606060" stroke-width="1.0"/>
           <path id="arrow"
             d="M 11.500037,31.436501 C 11.940474,20.09759 22.043105,11.32322 32.158766,21.979434 L 37.068811,17.246167 C 37.068811,17.246167 37.088388,32 37.088388,32 L 22.160133,31.978069 C 22.160133,31.978069 26.997745,27.140456 26.997745,27.140456 C 18.528582,18.264221 13.291696,25.230495 11.500037,31.436501 z"
             style="fill:#404040;"/>
          </a>
         </g>
        </svg>
</svg>
