<?xml version="1.0" encoding="UTF-8" standalone="no"?>
<!DOCTYPE svg PUBLIC "-//W3C//DTD SVG 1.1//EN"
 "http://www.w3.org/Graphics/SVG/1.1/DTD/svg11.dtd">
<!-- Generated by graphviz version 2.40.1 (20161225.0304)
 -->
<!-- Title: schwz::SchwarzBase&lt; ValueType, IndexType &gt; Pages: 1 -->
<svg width="1545pt" height="579pt"
 viewBox="0.00 0.00 1545.00 578.50" xmlns="http://www.w3.org/2000/svg" xmlns:xlink="http://www.w3.org/1999/xlink">
<g id="graph0" class="graph" transform="scale(1 1) rotate(0) translate(4 574.5)">
<title>schwz::SchwarzBase&lt; ValueType, IndexType &gt;</title>
<polygon fill="#ffffff" stroke="transparent" points="-4,4 -4,-574.5 1541,-574.5 1541,4 -4,4"/>
<!-- Node0 -->
<g id="node1" class="node">
<title>Node0</title>
<polygon fill="#bfbfbf" stroke="#000000" points="1404,-382.5 1404,-412.5 1537,-412.5 1537,-382.5 1404,-382.5"/>
<text text-anchor="start" x="1412" y="-400.5" font-family="Helvetica,sans-Serif" font-size="10.00" fill="#000000">schwz::SchwarzBase</text>
<text text-anchor="middle" x="1470.5" y="-389.5" font-family="Helvetica,sans-Serif" font-size="10.00" fill="#000000">&lt; ValueType, IndexType &gt;</text>
</g>
<!-- Node1 -->
<g id="node2" class="node">
<title>Node1</title>
<g id="a_node2"><a xlink:href="classschwz_1_1Initialize.html" target="_top" xlink:title="The initialization class that provides methods for initialization of the solver. ">
<polygon fill="#ffffff" stroke="#000000" points="1236.5,-239.5 1236.5,-269.5 1363.5,-269.5 1363.5,-239.5 1236.5,-239.5"/>
<text text-anchor="start" x="1244.5" y="-257.5" font-family="Helvetica,sans-Serif" font-size="10.00" fill="#000000">schwz::Initialize&lt;</text>
<text text-anchor="middle" x="1300" y="-246.5" font-family="Helvetica,sans-Serif" font-size="10.00" fill="#000000"> ValueType, IndexType &gt;</text>
</a>
</g>
</g>
<!-- Node1&#45;&gt;Node0 -->
<g id="edge1" class="edge">
<title>Node1&#45;&gt;Node0</title>
<path fill="none" stroke="#191970" d="M1325.7869,-276.1277C1360.7316,-305.4362 1422.2338,-357.0187 1452.5601,-382.4536"/>
<polygon fill="#191970" stroke="#191970" points="1327.8353,-273.2777 1317.9242,-269.5332 1323.337,-278.6411 1327.8353,-273.2777"/>
</g>
<!-- Node2 -->
<g id="node3" class="node">
<title>Node2</title>
<g id="a_node3"><a xlink:href="structschwz_1_1Settings.html" target="_top" xlink:title="The struct that contains the solver settings and the parameters to be set by the user. ">
<polygon fill="#ffffff" stroke="#000000" points="945.5,-89 945.5,-108 1032.5,-108 1032.5,-89 945.5,-89"/>
<text text-anchor="middle" x="989" y="-96" font-family="Helvetica,sans-Serif" font-size="10.00" fill="#000000">schwz::Settings</text>
</a>
</g>
</g>
<!-- Node2&#45;&gt;Node1 -->
<g id="edge2" class="edge">
<title>Node2&#45;&gt;Node1</title>
<path fill="none" stroke="#191970" d="M1010.7379,-113.9577C1029.2074,-126.7377 1056.6776,-144.9251 1082,-158.5 1138.8356,-188.9686 1156.0078,-190.4512 1215,-216.5 1232.0051,-224.0088 1250.885,-232.4398 1266.5237,-239.4491"/>
<polygon fill="#191970" stroke="#191970" points="1012.645,-111.0206 1002.443,-108.1622 1008.6358,-116.7587 1012.645,-111.0206"/>
</g>
<!-- Node19 -->
<g id="node20" class="node">
<title>Node19</title>
<g id="a_node20"><a xlink:href="classschwz_1_1Solve.html" target="_top" xlink:title="The Solver class the provides the solver and the convergence checking methods. ">
<polygon fill="#ffffff" stroke="#000000" points="1233,-173.5 1233,-203.5 1367,-203.5 1367,-173.5 1233,-173.5"/>
<text text-anchor="start" x="1241" y="-191.5" font-family="Helvetica,sans-Serif" font-size="10.00" fill="#000000">schwz::Solve&lt; ValueType,</text>
<text text-anchor="middle" x="1300" y="-180.5" font-family="Helvetica,sans-Serif" font-size="10.00" fill="#000000"> IndexType &gt;</text>
</a>
</g>
</g>
<!-- Node2&#45;&gt;Node19 -->
<g id="edge26" class="edge">
<title>Node2&#45;&gt;Node19</title>
<path fill="none" stroke="#191970" d="M1031.6649,-110.8468C1088.0619,-127.1674 1187.3567,-155.9023 1248.0561,-173.468"/>
<polygon fill="#191970" stroke="#191970" points="1032.5668,-107.4642 1021.988,-108.0464 1030.6209,-114.1883 1032.5668,-107.4642"/>
</g>
<!-- Node3 -->
<g id="node4" class="node">
<title>Node3</title>
<g id="a_node4"><a xlink:href="structschwz_1_1Settings_1_1comm__settings.html" target="_top" xlink:title="The settings for the various available communication paradigms. ">
<polygon fill="#ffffff" stroke="#000000" points="625.5,-49.5 625.5,-79.5 745.5,-79.5 745.5,-49.5 625.5,-49.5"/>
<text text-anchor="start" x="633.5" y="-67.5" font-family="Helvetica,sans-Serif" font-size="10.00" fill="#000000">schwz::Settings::comm</text>
<text text-anchor="middle" x="685.5" y="-56.5" font-family="Helvetica,sans-Serif" font-size="10.00" fill="#000000">_settings</text>
</a>
</g>
</g>
<!-- Node3&#45;&gt;Node2 -->
<g id="edge3" class="edge">
<title>Node3&#45;&gt;Node2</title>
<path fill="none" stroke="#9a32cd" stroke-dasharray="5,2" d="M756.0537,-58.9712C797.1782,-57.2034 849.8682,-57.4451 896,-65.5 921.8216,-70.0086 949.9972,-80.9154 968.4898,-88.9621"/>
<polygon fill="#9a32cd" stroke="#9a32cd" points="755.6793,-55.4851 745.8586,-59.4605 756.0148,-62.477 755.6793,-55.4851"/>
<text text-anchor="middle" x="840.5" y="-68.5" font-family="Helvetica,sans-Serif" font-size="10.00" fill="#000000"> comm_settings</text>
</g>
<!-- Node4 -->
<g id="node5" class="node">
<title>Node4</title>
<g id="a_node5"><a xlink:title="STL class. ">
<polygon fill="#ffffff" stroke="#bfbfbf" points="655.5,-127 655.5,-146 715.5,-146 715.5,-127 655.5,-127"/>
<text text-anchor="middle" x="685.5" y="-134" font-family="Helvetica,sans-Serif" font-size="10.00" fill="#000000">std::string</text>
</a>
</g>
</g>
<!-- Node4&#45;&gt;Node2 -->
<g id="edge4" class="edge">
<title>Node4&#45;&gt;Node2</title>
<path fill="none" stroke="#9a32cd" stroke-dasharray="5,2" d="M714.3297,-122.7012C733.7942,-114.1628 760.3387,-103.9993 785,-99.5 839.5277,-89.5518 903.6261,-91.3931 945.2153,-94.3273"/>
<polygon fill="#9a32cd" stroke="#9a32cd" points="712.7926,-119.5549 705.1137,-126.8546 715.6687,-125.9367 712.7926,-119.5549"/>
<text text-anchor="middle" x="840.5" y="-168.5" font-family="Helvetica,sans-Serif" font-size="10.00" fill="#000000"> factorization</text>
<text text-anchor="middle" x="840.5" y="-157.5" font-family="Helvetica,sans-Serif" font-size="10.00" fill="#000000">metis_objtype</text>
<text text-anchor="middle" x="840.5" y="-146.5" font-family="Helvetica,sans-Serif" font-size="10.00" fill="#000000">thres_type</text>
<text text-anchor="middle" x="840.5" y="-135.5" font-family="Helvetica,sans-Serif" font-size="10.00" fill="#000000">matrix_filename</text>
<text text-anchor="middle" x="840.5" y="-124.5" font-family="Helvetica,sans-Serif" font-size="10.00" fill="#000000">reorder</text>
<text text-anchor="middle" x="840.5" y="-113.5" font-family="Helvetica,sans-Serif" font-size="10.00" fill="#000000">executor_string</text>
<text text-anchor="middle" x="840.5" y="-102.5" font-family="Helvetica,sans-Serif" font-size="10.00" fill="#000000">rhs_type</text>
</g>
<!-- Node8 -->
<g id="node9" class="node">
<title>Node8</title>
<g id="a_node9"><a xlink:href="structschwz_1_1Metadata.html" target="_top" xlink:title="The solver metadata struct. ">
<polygon fill="#ffffff" stroke="#000000" points="914,-271.5 914,-301.5 1064,-301.5 1064,-271.5 914,-271.5"/>
<text text-anchor="start" x="922" y="-289.5" font-family="Helvetica,sans-Serif" font-size="10.00" fill="#000000">schwz::Metadata&lt; ValueType,</text>
<text text-anchor="middle" x="989" y="-278.5" font-family="Helvetica,sans-Serif" font-size="10.00" fill="#000000"> IndexType &gt;</text>
</a>
</g>
</g>
<!-- Node4&#45;&gt;Node8 -->
<g id="edge11" class="edge">
<title>Node4&#45;&gt;Node8</title>
<path fill="none" stroke="#9a32cd" stroke-dasharray="5,2" d="M715.3059,-150.2631C734.7959,-158.815 761.0005,-169.4789 785,-176.5 833.1886,-190.5976 858.6138,-163.9865 896,-197.5 916.4141,-215.7995 895.4494,-236.3139 914,-256.5 919.5987,-262.5923 926.6004,-267.4698 934.061,-271.369"/>
<polygon fill="#9a32cd" stroke="#9a32cd" points="716.6042,-147.0099 706.0454,-146.1372 713.7554,-153.404 716.6042,-147.0099"/>
<text text-anchor="middle" x="840.5" y="-200.5" font-family="Helvetica,sans-Serif" font-size="10.00" fill="#000000"> local_precond</text>
</g>
<!-- Node5 -->
<g id="node6" class="node">
<title>Node5</title>
<polygon fill="#ffffff" stroke="#bfbfbf" points="280.5,-121.5 280.5,-151.5 375.5,-151.5 375.5,-121.5 280.5,-121.5"/>
<text text-anchor="start" x="288.5" y="-139.5" font-family="Helvetica,sans-Serif" font-size="10.00" fill="#000000">std::basic_string&lt;</text>
<text text-anchor="middle" x="328" y="-128.5" font-family="Helvetica,sans-Serif" font-size="10.00" fill="#000000"> char &gt;</text>
</g>
<!-- Node5&#45;&gt;Node4 -->
<g id="edge5" class="edge">
<title>Node5&#45;&gt;Node4</title>
<path fill="none" stroke="#191970" d="M385.8449,-136.5C462.7087,-136.5 595.715,-136.5 655.2107,-136.5"/>
<polygon fill="#191970" stroke="#191970" points="385.8431,-133.0001 375.8431,-136.5 385.8431,-140.0001 385.8431,-133.0001"/>
</g>
<!-- Node6 -->
<g id="node7" class="node">
<title>Node6</title>
<g id="a_node7"><a xlink:title="STL class. ">
<polygon fill="#ffffff" stroke="#bfbfbf" points="0,-121.5 0,-151.5 95,-151.5 95,-121.5 0,-121.5"/>
<text text-anchor="start" x="8" y="-139.5" font-family="Helvetica,sans-Serif" font-size="10.00" fill="#000000">std::basic_string&lt;</text>
<text text-anchor="middle" x="47.5" y="-128.5" font-family="Helvetica,sans-Serif" font-size="10.00" fill="#000000"> Char &gt;</text>
</a>
</g>
</g>
<!-- Node6&#45;&gt;Node5 -->
<g id="edge6" class="edge">
<title>Node6&#45;&gt;Node5</title>
<path fill="none" stroke="#ffa500" stroke-dasharray="5,2" d="M105.0943,-136.5C156.7767,-136.5 231.7415,-136.5 280.1836,-136.5"/>
<polygon fill="#ffa500" stroke="#ffa500" points="105.083,-133.0001 95.083,-136.5 105.083,-140.0001 105.083,-133.0001"/>
<text text-anchor="middle" x="179.5" y="-139.5" font-family="Helvetica,sans-Serif" font-size="10.00" fill="#000000"> &lt; char &gt;</text>
</g>
<!-- Node7 -->
<g id="node8" class="node">
<title>Node7</title>
<g id="a_node8"><a xlink:href="structschwz_1_1Settings_1_1convergence__settings.html" target="_top" xlink:title="The various convergence settings available. ">
<polygon fill="#ffffff" stroke="#000000" points="611,-.5 611,-30.5 760,-30.5 760,-.5 611,-.5"/>
<text text-anchor="start" x="619" y="-18.5" font-family="Helvetica,sans-Serif" font-size="10.00" fill="#000000">schwz::Settings::convergence</text>
<text text-anchor="middle" x="685.5" y="-7.5" font-family="Helvetica,sans-Serif" font-size="10.00" fill="#000000">_settings</text>
</a>
</g>
</g>
<!-- Node7&#45;&gt;Node2 -->
<g id="edge7" class="edge">
<title>Node7&#45;&gt;Node2</title>
<path fill="none" stroke="#9a32cd" stroke-dasharray="5,2" d="M770.568,-18.4018C809.6439,-21.7462 856.0695,-28.609 896,-42.5 927.5071,-53.4607 959.9038,-76.0352 976.8981,-88.9241"/>
<polygon fill="#9a32cd" stroke="#9a32cd" points="770.5234,-14.8874 760.2783,-17.5871 769.9708,-21.8656 770.5234,-14.8874"/>
<text text-anchor="middle" x="840.5" y="-45.5" font-family="Helvetica,sans-Serif" font-size="10.00" fill="#000000"> convergence_settings</text>
</g>
<!-- Node8&#45;&gt;Node1 -->
<g id="edge8" class="edge">
<title>Node8&#45;&gt;Node1</title>
<path fill="none" stroke="#191970" d="M1074.3497,-277.718C1125.5772,-272.447 1189.6557,-265.8537 1236.4256,-261.0414"/>
<polygon fill="#191970" stroke="#191970" points="1073.8736,-274.2485 1064.2844,-278.7537 1074.5902,-281.2117 1073.8736,-274.2485"/>
</g>
<!-- Node9 -->
<g id="node10" class="node">
<title>Node9</title>
<polygon fill="#ffffff" stroke="#bfbfbf" points="410,-238 410,-279 586,-279 586,-238 410,-238"/>
<text text-anchor="start" x="418" y="-267" font-family="Helvetica,sans-Serif" font-size="10.00" fill="#000000">std::vector&lt; std::tuple</text>
<text text-anchor="start" x="418" y="-256" font-family="Helvetica,sans-Serif" font-size="10.00" fill="#000000">&lt; int, int, int, std::</text>
<text text-anchor="middle" x="498" y="-245" font-family="Helvetica,sans-Serif" font-size="10.00" fill="#000000">string, std::vector&lt; ValueType &gt; &gt; &gt;</text>
</g>
<!-- Node9&#45;&gt;Node8 -->
<g id="edge9" class="edge">
<title>Node9&#45;&gt;Node8</title>
<path fill="none" stroke="#9a32cd" stroke-dasharray="5,2" d="M596.1855,-262.7925C647.1562,-265.1355 710.4399,-268.2228 767,-271.5 815.881,-274.3323 870.7796,-278.037 913.7543,-281.056"/>
<polygon fill="#9a32cd" stroke="#9a32cd" points="596.3107,-259.2946 586.1612,-262.334 595.9908,-266.2873 596.3107,-259.2946"/>
<text text-anchor="middle" x="685.5" y="-274.5" font-family="Helvetica,sans-Serif" font-size="10.00" fill="#000000"> time_struct</text>
</g>
<!-- Node10 -->
<g id="node11" class="node">
<title>Node10</title>
<g id="a_node11"><a xlink:title="STL class. ">
<polygon fill="#ffffff" stroke="#bfbfbf" points="4,-323 4,-342 91,-342 91,-323 4,-323"/>
<text text-anchor="middle" x="47.5" y="-330" font-family="Helvetica,sans-Serif" font-size="10.00" fill="#000000">std::vector&lt; T &gt;</text>
</a>
</g>
</g>
<!-- Node10&#45;&gt;Node9 -->
<g id="edge10" class="edge">
<title>Node10&#45;&gt;Node9</title>
<path fill="none" stroke="#ffa500" stroke-dasharray="5,2" d="M60.165,-314.3914C71.9054,-299.2866 90.8648,-278.7871 113,-269.5 208.4194,-229.4658 329.1614,-233.8128 409.7441,-243.5137"/>
<polygon fill="#ffa500" stroke="#ffa500" points="57.269,-312.4207 54.1172,-322.5359 62.889,-316.5939 57.269,-312.4207"/>
<text text-anchor="start" x="113" y="-294.5" font-family="Helvetica,sans-Serif" font-size="10.00" fill="#000000"> &lt; std::tuple&lt; int,</text>
<text text-anchor="start" x="113" y="-283.5" font-family="Helvetica,sans-Serif" font-size="10.00" fill="#000000"> int, int, std::string,</text>
<text text-anchor="middle" x="179.5" y="-272.5" font-family="Helvetica,sans-Serif" font-size="10.00" fill="#000000"> std::vector&lt; ValueType &gt; &gt; &gt;</text>
</g>
<!-- Node12 -->
<g id="node13" class="node">
<title>Node12</title>
<polygon fill="#ffffff" stroke="#bfbfbf" points="264,-421 264,-440 392,-440 392,-421 264,-421"/>
<text text-anchor="middle" x="328" y="-428" font-family="Helvetica,sans-Serif" font-size="10.00" fill="#000000">std::vector&lt; ValueType &gt;</text>
</g>
<!-- Node10&#45;&gt;Node12 -->
<g id="edge14" class="edge">
<title>Node10&#45;&gt;Node12</title>
<path fill="none" stroke="#ffa500" stroke-dasharray="5,2" d="M57.9841,-351.0221C69.1402,-368.8015 88.544,-394.776 113,-407.5 159.4559,-431.6702 219.1242,-436.3282 263.8108,-435.5623"/>
<polygon fill="#ffa500" stroke="#ffa500" points="60.7958,-348.9047 52.6551,-342.1239 54.7904,-352.5013 60.7958,-348.9047"/>
<text text-anchor="middle" x="179.5" y="-437.5" font-family="Helvetica,sans-Serif" font-size="10.00" fill="#000000"> &lt; ValueType &gt;</text>
</g>
<!-- Node13 -->
<g id="node14" class="node">
<title>Node13</title>
<polygon fill="#ffffff" stroke="#bfbfbf" points="268.5,-291.5 268.5,-321.5 387.5,-321.5 387.5,-291.5 268.5,-291.5"/>
<text text-anchor="start" x="276.5" y="-309.5" font-family="Helvetica,sans-Serif" font-size="10.00" fill="#000000">std::vector&lt; std::vector</text>
<text text-anchor="middle" x="328" y="-298.5" font-family="Helvetica,sans-Serif" font-size="10.00" fill="#000000">&lt; ValueType &gt; &gt;</text>
</g>
<!-- Node10&#45;&gt;Node13 -->
<g id="edge16" class="edge">
<title>Node10&#45;&gt;Node13</title>
<path fill="none" stroke="#ffa500" stroke-dasharray="5,2" d="M93.8984,-320.8272C100.284,-319.5281 106.7821,-318.3643 113,-317.5 165.1972,-310.2442 225.1183,-307.6442 268.4204,-306.7724"/>
<polygon fill="#ffa500" stroke="#ffa500" points="93.0515,-317.4292 84.0127,-322.9565 94.5255,-324.2723 93.0515,-317.4292"/>
<text text-anchor="middle" x="179.5" y="-320.5" font-family="Helvetica,sans-Serif" font-size="10.00" fill="#000000"> &lt; std::vector&lt; ValueType &gt; &gt;</text>
</g>
<!-- Node14 -->
<g id="node15" class="node">
<title>Node14</title>
<polygon fill="#ffffff" stroke="#bfbfbf" points="437,-319 437,-382 559,-382 559,-319 437,-319"/>
<text text-anchor="start" x="445" y="-370" font-family="Helvetica,sans-Serif" font-size="10.00" fill="#000000">std::vector&lt; std::tuple</text>
<text text-anchor="start" x="445" y="-359" font-family="Helvetica,sans-Serif" font-size="10.00" fill="#000000">&lt; int, std::vector&lt; std</text>
<text text-anchor="start" x="445" y="-348" font-family="Helvetica,sans-Serif" font-size="10.00" fill="#000000">::tuple&lt; int, int &gt; &gt;, std</text>
<text text-anchor="start" x="445" y="-337" font-family="Helvetica,sans-Serif" font-size="10.00" fill="#000000">::vector&lt; std::tuple&lt; int,</text>
<text text-anchor="middle" x="498" y="-326" font-family="Helvetica,sans-Serif" font-size="10.00" fill="#000000"> int &gt; &gt;, int, int &gt; &gt;</text>
</g>
<!-- Node10&#45;&gt;Node14 -->
<g id="edge18" class="edge">
<title>Node10&#45;&gt;Node14</title>
<path fill="none" stroke="#ffa500" stroke-dasharray="5,2" d="M101.2316,-334.6469C185.5249,-338.0149 348.3437,-344.5204 436.9475,-348.0606"/>
<polygon fill="#ffa500" stroke="#ffa500" points="101.237,-331.1444 91.1052,-334.2423 100.9574,-338.1388 101.237,-331.1444"/>
<text text-anchor="start" x="126" y="-386.5" font-family="Helvetica,sans-Serif" font-size="10.00" fill="#000000"> &lt; std::tuple&lt; int,</text>
<text text-anchor="start" x="126" y="-375.5" font-family="Helvetica,sans-Serif" font-size="10.00" fill="#000000"> std::vector&lt; std::tuple</text>
<text text-anchor="start" x="126" y="-364.5" font-family="Helvetica,sans-Serif" font-size="10.00" fill="#000000">&lt; int, int &gt; &gt;, std::vector</text>
<text text-anchor="start" x="126" y="-353.5" font-family="Helvetica,sans-Serif" font-size="10.00" fill="#000000">&lt; std::tuple&lt; int, int &gt; &gt;</text>
<text text-anchor="middle" x="179.5" y="-342.5" font-family="Helvetica,sans-Serif" font-size="10.00" fill="#000000">, int, int &gt; &gt;</text>
</g>
<!-- Node15 -->
<g id="node16" class="node">
<title>Node15</title>
<polygon fill="#ffffff" stroke="#bfbfbf" points="785,-215.5 785,-245.5 896,-245.5 896,-215.5 785,-215.5"/>
<text text-anchor="start" x="793" y="-233.5" font-family="Helvetica,sans-Serif" font-size="10.00" fill="#000000">std::vector&lt; unsigned</text>
<text text-anchor="middle" x="840.5" y="-222.5" font-family="Helvetica,sans-Serif" font-size="10.00" fill="#000000"> int &gt;</text>
</g>
<!-- Node10&#45;&gt;Node15 -->
<g id="edge20" class="edge">
<title>Node10&#45;&gt;Node15</title>
<path fill="none" stroke="#ffa500" stroke-dasharray="5,2" d="M54.289,-313.4351C63.6123,-290.3593 82.7498,-252.3768 113,-234.5 225.9493,-167.751 634.6865,-206.7045 784.7489,-223.7593"/>
<polygon fill="#ffa500" stroke="#ffa500" points="50.9867,-312.272 50.6913,-322.8627 57.5267,-314.7678 50.9867,-312.272"/>
<text text-anchor="middle" x="328" y="-202.5" font-family="Helvetica,sans-Serif" font-size="10.00" fill="#000000"> &lt; unsigned int &gt;</text>
</g>
<!-- Node18 -->
<g id="node19" class="node">
<title>Node18</title>
<polygon fill="#ffffff" stroke="#bfbfbf" points="278.5,-499 278.5,-518 377.5,-518 377.5,-499 278.5,-499"/>
<text text-anchor="middle" x="328" y="-506" font-family="Helvetica,sans-Serif" font-size="10.00" fill="#000000">std::vector&lt; bool &gt;</text>
</g>
<!-- Node10&#45;&gt;Node18 -->
<g id="edge24" class="edge">
<title>Node10&#45;&gt;Node18</title>
<path fill="none" stroke="#ffa500" stroke-dasharray="5,2" d="M53.1298,-351.9042C61.7164,-378.0248 80.5999,-424.1389 113,-449.5 161.005,-487.0758 231.3217,-500.748 278.3258,-505.7064"/>
<polygon fill="#ffa500" stroke="#ffa500" points="56.3789,-350.5648 50.0709,-342.0525 49.6937,-352.6406 56.3789,-350.5648"/>
<text text-anchor="middle" x="179.5" y="-503.5" font-family="Helvetica,sans-Serif" font-size="10.00" fill="#000000"> &lt; bool &gt;</text>
</g>
<!-- Node11 -->
<g id="node12" class="node">
<title>Node11</title>
<g id="a_node12"><a xlink:href="structschwz_1_1Metadata_1_1post__process__data.html" target="_top" xlink:title="The struct used for storing data for post&#45;processing. ">
<polygon fill="#ffffff" stroke="#000000" points="604,-291.5 604,-321.5 767,-321.5 767,-291.5 604,-291.5"/>
<text text-anchor="start" x="612" y="-309.5" font-family="Helvetica,sans-Serif" font-size="10.00" fill="#000000">schwz::Metadata&lt; ValueType,</text>
<text text-anchor="middle" x="685.5" y="-298.5" font-family="Helvetica,sans-Serif" font-size="10.00" fill="#000000"> IndexType &gt;::post_process_data</text>
</a>
</g>
</g>
<!-- Node11&#45;&gt;Node8 -->
<g id="edge12" class="edge">
<title>Node11&#45;&gt;Node8</title>
<path fill="none" stroke="#9a32cd" stroke-dasharray="5,2" d="M777.2891,-300.4513C820.9801,-297.5722 872.5733,-294.1723 913.8892,-291.4496"/>
<polygon fill="#9a32cd" stroke="#9a32cd" points="776.9799,-296.964 767.2317,-301.1141 777.4402,-303.9488 776.9799,-296.964"/>
<text text-anchor="middle" x="840.5" y="-301.5" font-family="Helvetica,sans-Serif" font-size="10.00" fill="#000000"> post_process_data</text>
</g>
<!-- Node12&#45;&gt;Node0 -->
<g id="edge27" class="edge">
<title>Node12&#45;&gt;Node0</title>
<path fill="none" stroke="#9a32cd" stroke-dasharray="5,2" d="M345.9321,-446.7381C361.5927,-459.8228 385.5832,-477.3379 410,-485.5 526.3,-524.3767 562.8742,-500.5 685.5,-500.5 685.5,-500.5 685.5,-500.5 1300,-500.5 1367.0905,-500.5 1430.4117,-441.3492 1457.1477,-412.698"/>
<polygon fill="#9a32cd" stroke="#9a32cd" points="347.9962,-443.8962 338.139,-440.0122 343.4226,-449.1955 347.9962,-443.8962"/>
<text text-anchor="middle" x="989" y="-503.5" font-family="Helvetica,sans-Serif" font-size="10.00" fill="#000000"> local_residual_vector_out</text>
</g>
<!-- Node12&#45;&gt;Node11 -->
<g id="edge13" class="edge">
<title>Node12&#45;&gt;Node11</title>
<path fill="none" stroke="#9a32cd" stroke-dasharray="5,2" d="M402.1038,-427.7975C468.3072,-423.8992 558.9045,-414.4275 586,-391.5 605.6343,-374.886 586.1472,-355.0151 604,-336.5 609.8607,-330.4219 617.0572,-325.5674 624.7247,-321.6921"/>
<polygon fill="#9a32cd" stroke="#9a32cd" points="401.9024,-424.3032 392.113,-428.3549 402.2924,-431.2923 401.9024,-424.3032"/>
<text text-anchor="middle" x="498" y="-473.5" font-family="Helvetica,sans-Serif" font-size="10.00" fill="#000000"> local_converged_resnorm</text>
<text text-anchor="start" x="440.5" y="-462.5" font-family="Helvetica,sans-Serif" font-size="10.00" fill="#000000">local_residual_vector</text>
<text text-anchor="middle" x="498" y="-451.5" font-family="Helvetica,sans-Serif" font-size="10.00" fill="#000000">_out</text>
<text text-anchor="start" x="440.5" y="-440.5" font-family="Helvetica,sans-Serif" font-size="10.00" fill="#000000">local_converged_iter</text>
<text text-anchor="middle" x="498" y="-429.5" font-family="Helvetica,sans-Serif" font-size="10.00" fill="#000000">_count</text>
</g>
<!-- Node13&#45;&gt;Node0 -->
<g id="edge28" class="edge">
<title>Node13&#45;&gt;Node0</title>
<path fill="none" stroke="#9a32cd" stroke-dasharray="5,2" d="M344.9219,-329.5811C359.7912,-347.8394 383.198,-372.0934 410,-383.5 522.811,-431.5109 562.8976,-397.5 685.5,-397.5 685.5,-397.5 685.5,-397.5 1300,-397.5 1334.1888,-397.5 1372.2339,-397.5 1403.6962,-397.5"/>
<polygon fill="#9a32cd" stroke="#9a32cd" points="347.6423,-327.3784 338.7092,-321.6818 342.1401,-331.7058 347.6423,-327.3784"/>
<text text-anchor="middle" x="989" y="-400.5" font-family="Helvetica,sans-Serif" font-size="10.00" fill="#000000"> global_residual_vector_out</text>
</g>
<!-- Node13&#45;&gt;Node11 -->
<g id="edge15" class="edge">
<title>Node13&#45;&gt;Node11</title>
<path fill="none" stroke="#9a32cd" stroke-dasharray="5,2" d="M397.8215,-301.9536C401.9409,-301.7752 406.0239,-301.6211 410,-301.5 488.186,-299.1185 507.8024,-299.5365 586,-301.5 591.7924,-301.6454 597.7726,-301.8384 603.7924,-302.0641"/>
<polygon fill="#9a32cd" stroke="#9a32cd" points="397.3691,-298.471 387.5467,-302.4423 397.7017,-305.4631 397.3691,-298.471"/>
<text text-anchor="middle" x="498" y="-304.5" font-family="Helvetica,sans-Serif" font-size="10.00" fill="#000000"> global_residual_vector_out</text>
</g>
<!-- Node14&#45;&gt;Node8 -->
<g id="edge17" class="edge">
<title>Node14&#45;&gt;Node8</title>
<path fill="none" stroke="#9a32cd" stroke-dasharray="5,2" d="M569.4986,-348.9149C649.7583,-345.9697 783.481,-337.5528 896,-313.5 911.1258,-310.2666 927.3909,-305.8702 942.0229,-301.5642"/>
<polygon fill="#9a32cd" stroke="#9a32cd" points="568.8904,-345.4338 559.0181,-349.2794 569.1338,-352.4296 568.8904,-345.4338"/>
<text text-anchor="middle" x="685.5" y="-349.5" font-family="Helvetica,sans-Serif" font-size="10.00" fill="#000000"> comm_data_struct</text>
</g>
<!-- Node15&#45;&gt;Node1 -->
<g id="edge19" class="edge">
<title>Node15&#45;&gt;Node1</title>
<path fill="none" stroke="#9a32cd" stroke-dasharray="5,2" d="M906.1911,-233.1878C950.7277,-235.0718 1010.9216,-237.7384 1064,-240.5 1122.4091,-243.539 1188.9167,-247.5326 1236.409,-250.4765"/>
<polygon fill="#9a32cd" stroke="#9a32cd" points="906.2178,-229.6859 896.0794,-232.7621 905.9233,-236.6797 906.2178,-229.6859"/>
<text text-anchor="middle" x="989" y="-254.5" font-family="Helvetica,sans-Serif" font-size="10.00" fill="#000000"> cell_weights</text>
<text text-anchor="middle" x="989" y="-243.5" font-family="Helvetica,sans-Serif" font-size="10.00" fill="#000000">partition_indices</text>
</g>
<!-- Node16 -->
<g id="node17" class="node">
<title>Node16</title>
<g id="a_node17"><a xlink:href="classschwz_1_1Communicate.html" target="_top" xlink:title="The communication class that provides the methods for the communication between the subdomains...">
<polygon fill="#ffffff" stroke="#000000" points="1082,-526.5 1082,-556.5 1215,-556.5 1215,-526.5 1082,-526.5"/>
<text text-anchor="start" x="1090" y="-544.5" font-family="Helvetica,sans-Serif" font-size="10.00" fill="#000000">schwz::Communicate</text>
<text text-anchor="middle" x="1148.5" y="-533.5" font-family="Helvetica,sans-Serif" font-size="10.00" fill="#000000">&lt; ValueType, IndexType &gt;</text>
</a>
</g>
</g>
<!-- Node16&#45;&gt;Node0 -->
<g id="edge21" class="edge">
<title>Node16&#45;&gt;Node0</title>
<path fill="none" stroke="#191970" d="M1225.4681,-548.0683C1274.5491,-548.7177 1337.7601,-542.7163 1386,-514.5 1426.6607,-490.7169 1453.1724,-438.7663 1464.3879,-412.8457"/>
<polygon fill="#191970" stroke="#191970" points="1225.297,-544.5636 1215.2197,-547.8344 1225.1372,-551.5618 1225.297,-544.5636"/>
</g>
<!-- Node17 -->
<g id="node18" class="node">
<title>Node17</title>
<g id="a_node18"><a xlink:href="structschwz_1_1Communicate_1_1comm__struct.html" target="_top" xlink:title="The communication struct used to store the communication data. ">
<polygon fill="#ffffff" stroke="#000000" points="623.5,-529 623.5,-570 747.5,-570 747.5,-529 623.5,-529"/>
<text text-anchor="start" x="631.5" y="-558" font-family="Helvetica,sans-Serif" font-size="10.00" fill="#000000">schwz::Communicate</text>
<text text-anchor="start" x="631.5" y="-547" font-family="Helvetica,sans-Serif" font-size="10.00" fill="#000000">&lt; ValueType, IndexType</text>
<text text-anchor="middle" x="685.5" y="-536" font-family="Helvetica,sans-Serif" font-size="10.00" fill="#000000"> &gt;::comm_struct</text>
</a>
</g>
</g>
<!-- Node17&#45;&gt;Node16 -->
<g id="edge22" class="edge">
<title>Node17&#45;&gt;Node16</title>
<path fill="none" stroke="#9a32cd" stroke-dasharray="5,2" d="M758.1959,-548.2439C846.9646,-546.7101 995.8661,-544.1373 1081.813,-542.6523"/>
<polygon fill="#9a32cd" stroke="#9a32cd" points="757.8802,-544.7488 747.9422,-548.4211 758.0012,-551.7477 757.8802,-544.7488"/>
<text text-anchor="middle" x="840.5" y="-550.5" font-family="Helvetica,sans-Serif" font-size="10.00" fill="#000000"> comm_struct</text>
</g>
<!-- Node18&#45;&gt;Node17 -->
<g id="edge23" class="edge">
<title>Node18&#45;&gt;Node17</title>
<path fill="none" stroke="#9a32cd" stroke-dasharray="5,2" d="M387.8416,-515.363C453.1211,-522.8495 557.1209,-534.7768 623.3112,-542.3679"/>
<polygon fill="#9a32cd" stroke="#9a32cd" points="388.0425,-511.8631 377.7088,-514.2009 387.2449,-518.8176 388.0425,-511.8631"/>
<text text-anchor="middle" x="498" y="-539.5" font-family="Helvetica,sans-Serif" font-size="10.00" fill="#000000"> is_local_neighbor</text>
</g>
<!-- Node19&#45;&gt;Node0 -->
<g id="edge25" class="edge">
<title>Node19&#45;&gt;Node0</title>
<path fill="none" stroke="#191970" d="M1339.2695,-208.951C1348.9874,-215.0882 1358.9196,-222.3781 1367,-230.5 1414.1526,-277.8945 1449.7726,-350.6085 1463.8793,-382.0897"/>
<polygon fill="#191970" stroke="#191970" points="1340.8364,-205.809 1330.4643,-203.648 1337.225,-211.8055 1340.8364,-205.809"/>
</g>
</g>
</svg>
