<?xml version="1.0" encoding="UTF-8" standalone="no"?>
<!DOCTYPE svg PUBLIC "-//W3C//DTD SVG 1.1//EN"
 "http://www.w3.org/Graphics/SVG/1.1/DTD/svg11.dtd">
<!-- Generated by graphviz version 2.40.1 (20161225.0304)
 -->
<!-- Title: schwz::SchwarzBase&lt; ValueType, IndexType &gt; Pages: 1 -->
<svg width="1545pt" height="590pt"
 viewBox="0.00 0.00 1545.00 589.50" xmlns="http://www.w3.org/2000/svg" xmlns:xlink="http://www.w3.org/1999/xlink">
<g id="graph0" class="graph" transform="scale(1 1) rotate(0) translate(4 585.5)">
<title>schwz::SchwarzBase&lt; ValueType, IndexType &gt;</title>
<polygon fill="#ffffff" stroke="transparent" points="-4,4 -4,-585.5 1541,-585.5 1541,4 -4,4"/>
<!-- Node0 -->
<g id="node1" class="node">
<title>Node0</title>
<polygon fill="#bfbfbf" stroke="#000000" points="1404,-393.5 1404,-423.5 1537,-423.5 1537,-393.5 1404,-393.5"/>
<text text-anchor="start" x="1412" y="-411.5" font-family="Helvetica,sans-Serif" font-size="10.00" fill="#000000">schwz::SchwarzBase</text>
<text text-anchor="middle" x="1470.5" y="-400.5" font-family="Helvetica,sans-Serif" font-size="10.00" fill="#000000">&lt; ValueType, IndexType &gt;</text>
</g>
<!-- Node1 -->
<g id="node2" class="node">
<title>Node1</title>
<g id="a_node2"><a xlink:href="classschwz_1_1Initialize.html" target="_top" xlink:title="The initialization class that provides methods for initialization of the solver. ">
<polygon fill="#ffffff" stroke="#000000" points="1236.5,-240.5 1236.5,-270.5 1363.5,-270.5 1363.5,-240.5 1236.5,-240.5"/>
<text text-anchor="start" x="1244.5" y="-258.5" font-family="Helvetica,sans-Serif" font-size="10.00" fill="#000000">schwz::Initialize&lt;</text>
<text text-anchor="middle" x="1300" y="-247.5" font-family="Helvetica,sans-Serif" font-size="10.00" fill="#000000"> ValueType, IndexType &gt;</text>
</a>
</g>
</g>
<!-- Node1&#45;&gt;Node0 -->
<g id="edge1" class="edge">
<title>Node1&#45;&gt;Node0</title>
<path fill="none" stroke="#191970" d="M1324.8551,-277.804C1360.0259,-309.3649 1423.3914,-366.2266 1453.5971,-393.332"/>
<polygon fill="#191970" stroke="#191970" points="1326.7518,-274.8034 1316.9715,-270.7296 1322.0767,-280.0134 1326.7518,-274.8034"/>
</g>
<!-- Node2 -->
<g id="node3" class="node">
<title>Node2</title>
<g id="a_node3"><a xlink:href="structschwz_1_1Settings.html" target="_top" xlink:title="The struct that contains the solver settings and the parameters to be set by the user. ">
<polygon fill="#ffffff" stroke="#000000" points="945.5,-89 945.5,-108 1032.5,-108 1032.5,-89 945.5,-89"/>
<text text-anchor="middle" x="989" y="-96" font-family="Helvetica,sans-Serif" font-size="10.00" fill="#000000">schwz::Settings</text>
</a>
</g>
</g>
<!-- Node2&#45;&gt;Node1 -->
<g id="edge2" class="edge">
<title>Node2&#45;&gt;Node1</title>
<path fill="none" stroke="#191970" d="M1017.0059,-112.638C1075.3927,-142.113 1209.6851,-209.9069 1269.8665,-240.2879"/>
<polygon fill="#191970" stroke="#191970" points="1018.4906,-109.4669 1007.9863,-108.0847 1015.336,-115.7158 1018.4906,-109.4669"/>
</g>
<!-- Node19 -->
<g id="node20" class="node">
<title>Node19</title>
<g id="a_node20"><a xlink:href="classschwz_1_1Solve.html" target="_top" xlink:title="The Solver class the provides the solver and the convergence checking methods. ">
<polygon fill="#ffffff" stroke="#000000" points="1233,-135.5 1233,-165.5 1367,-165.5 1367,-135.5 1233,-135.5"/>
<text text-anchor="start" x="1241" y="-153.5" font-family="Helvetica,sans-Serif" font-size="10.00" fill="#000000">schwz::Solve&lt; ValueType,</text>
<text text-anchor="middle" x="1300" y="-142.5" font-family="Helvetica,sans-Serif" font-size="10.00" fill="#000000"> IndexType &gt;</text>
</a>
</g>
</g>
<!-- Node2&#45;&gt;Node19 -->
<g id="edge26" class="edge">
<title>Node2&#45;&gt;Node19</title>
<path fill="none" stroke="#191970" d="M1042.7198,-107.4821C1095.3938,-116.2893 1175.8553,-129.7427 1232.7518,-139.2559"/>
<polygon fill="#191970" stroke="#191970" points="1043.011,-103.9823 1032.5707,-105.7851 1041.8565,-110.8864 1043.011,-103.9823"/>
</g>
<!-- Node3 -->
<g id="node4" class="node">
<title>Node3</title>
<g id="a_node4"><a xlink:href="structschwz_1_1Settings_1_1comm__settings.html" target="_top" xlink:title="The settings for the various available communication paradigms. ">
<polygon fill="#ffffff" stroke="#000000" points="625.5,-49.5 625.5,-79.5 745.5,-79.5 745.5,-49.5 625.5,-49.5"/>
<text text-anchor="start" x="633.5" y="-67.5" font-family="Helvetica,sans-Serif" font-size="10.00" fill="#000000">schwz::Settings::comm</text>
<text text-anchor="middle" x="685.5" y="-56.5" font-family="Helvetica,sans-Serif" font-size="10.00" fill="#000000">_settings</text>
</a>
</g>
</g>
<!-- Node3&#45;&gt;Node2 -->
<g id="edge3" class="edge">
<title>Node3&#45;&gt;Node2</title>
<path fill="none" stroke="#9a32cd" stroke-dasharray="5,2" d="M756.0537,-58.9712C797.1782,-57.2034 849.8682,-57.4451 896,-65.5 921.8216,-70.0086 949.9972,-80.9154 968.4898,-88.9621"/>
<polygon fill="#9a32cd" stroke="#9a32cd" points="755.6793,-55.4851 745.8586,-59.4605 756.0148,-62.477 755.6793,-55.4851"/>
<text text-anchor="middle" x="840.5" y="-68.5" font-family="Helvetica,sans-Serif" font-size="10.00" fill="#000000"> comm_settings</text>
</g>
<!-- Node4 -->
<g id="node5" class="node">
<title>Node4</title>
<g id="a_node5"><a xlink:title="STL class. ">
<polygon fill="#ffffff" stroke="#bfbfbf" points="655.5,-132 655.5,-151 715.5,-151 715.5,-132 655.5,-132"/>
<text text-anchor="middle" x="685.5" y="-139" font-family="Helvetica,sans-Serif" font-size="10.00" fill="#000000">std::string</text>
</a>
</g>
</g>
<!-- Node4&#45;&gt;Node2 -->
<g id="edge4" class="edge">
<title>Node4&#45;&gt;Node2</title>
<path fill="none" stroke="#9a32cd" stroke-dasharray="5,2" d="M711.3328,-127.2495C730.8992,-117.298 758.7964,-104.8707 785,-99.5 839.299,-88.3708 903.4483,-90.4751 945.1116,-93.7921"/>
<polygon fill="#9a32cd" stroke="#9a32cd" points="709.6839,-124.162 702.4407,-131.8941 712.9248,-130.3666 709.6839,-124.162"/>
<text text-anchor="middle" x="840.5" y="-179.5" font-family="Helvetica,sans-Serif" font-size="10.00" fill="#000000"> factorization</text>
<text text-anchor="middle" x="840.5" y="-168.5" font-family="Helvetica,sans-Serif" font-size="10.00" fill="#000000">metis_objtype</text>
<text text-anchor="middle" x="840.5" y="-157.5" font-family="Helvetica,sans-Serif" font-size="10.00" fill="#000000">thres_type</text>
<text text-anchor="middle" x="840.5" y="-146.5" font-family="Helvetica,sans-Serif" font-size="10.00" fill="#000000">matrix_filename</text>
<text text-anchor="middle" x="840.5" y="-135.5" font-family="Helvetica,sans-Serif" font-size="10.00" fill="#000000">norm_type</text>
<text text-anchor="middle" x="840.5" y="-124.5" font-family="Helvetica,sans-Serif" font-size="10.00" fill="#000000">reorder</text>
<text text-anchor="middle" x="840.5" y="-113.5" font-family="Helvetica,sans-Serif" font-size="10.00" fill="#000000">executor_string</text>
<text text-anchor="middle" x="840.5" y="-102.5" font-family="Helvetica,sans-Serif" font-size="10.00" fill="#000000">rhs_type</text>
</g>
<!-- Node8 -->
<g id="node9" class="node">
<title>Node8</title>
<g id="a_node9"><a xlink:href="structschwz_1_1Metadata.html" target="_top" xlink:title="The solver metadata struct. ">
<polygon fill="#ffffff" stroke="#000000" points="914,-282.5 914,-312.5 1064,-312.5 1064,-282.5 914,-282.5"/>
<text text-anchor="start" x="922" y="-300.5" font-family="Helvetica,sans-Serif" font-size="10.00" fill="#000000">schwz::Metadata&lt; ValueType,</text>
<text text-anchor="middle" x="989" y="-289.5" font-family="Helvetica,sans-Serif" font-size="10.00" fill="#000000"> IndexType &gt;</text>
</a>
</g>
</g>
<!-- Node4&#45;&gt;Node8 -->
<g id="edge11" class="edge">
<title>Node4&#45;&gt;Node8</title>
<path fill="none" stroke="#9a32cd" stroke-dasharray="5,2" d="M711.8944,-155.8807C731.5446,-166.0422 759.301,-179.2676 785,-187.5 832.815,-202.8171 858.6138,-174.9865 896,-208.5 916.4141,-226.7995 895.4494,-247.3139 914,-267.5 919.5987,-273.5923 926.6004,-278.4698 934.061,-282.369"/>
<polygon fill="#9a32cd" stroke="#9a32cd" points="713.4235,-152.7304 702.9436,-151.1737 710.1654,-158.926 713.4235,-152.7304"/>
<text text-anchor="middle" x="840.5" y="-211.5" font-family="Helvetica,sans-Serif" font-size="10.00" fill="#000000"> local_precond</text>
</g>
<!-- Node5 -->
<g id="node6" class="node">
<title>Node5</title>
<polygon fill="#ffffff" stroke="#bfbfbf" points="280.5,-126.5 280.5,-156.5 375.5,-156.5 375.5,-126.5 280.5,-126.5"/>
<text text-anchor="start" x="288.5" y="-144.5" font-family="Helvetica,sans-Serif" font-size="10.00" fill="#000000">std::basic_string&lt;</text>
<text text-anchor="middle" x="328" y="-133.5" font-family="Helvetica,sans-Serif" font-size="10.00" fill="#000000"> char &gt;</text>
</g>
<!-- Node5&#45;&gt;Node4 -->
<g id="edge5" class="edge">
<title>Node5&#45;&gt;Node4</title>
<path fill="none" stroke="#191970" d="M385.8449,-141.5C462.7087,-141.5 595.715,-141.5 655.2107,-141.5"/>
<polygon fill="#191970" stroke="#191970" points="385.8431,-138.0001 375.8431,-141.5 385.8431,-145.0001 385.8431,-138.0001"/>
</g>
<!-- Node6 -->
<g id="node7" class="node">
<title>Node6</title>
<g id="a_node7"><a xlink:title="STL class. ">
<polygon fill="#ffffff" stroke="#bfbfbf" points="0,-126.5 0,-156.5 95,-156.5 95,-126.5 0,-126.5"/>
<text text-anchor="start" x="8" y="-144.5" font-family="Helvetica,sans-Serif" font-size="10.00" fill="#000000">std::basic_string&lt;</text>
<text text-anchor="middle" x="47.5" y="-133.5" font-family="Helvetica,sans-Serif" font-size="10.00" fill="#000000"> Char &gt;</text>
</a>
</g>
</g>
<!-- Node6&#45;&gt;Node5 -->
<g id="edge6" class="edge">
<title>Node6&#45;&gt;Node5</title>
<path fill="none" stroke="#ffa500" stroke-dasharray="5,2" d="M105.0943,-141.5C156.7767,-141.5 231.7415,-141.5 280.1836,-141.5"/>
<polygon fill="#ffa500" stroke="#ffa500" points="105.083,-138.0001 95.083,-141.5 105.083,-145.0001 105.083,-138.0001"/>
<text text-anchor="middle" x="179.5" y="-144.5" font-family="Helvetica,sans-Serif" font-size="10.00" fill="#000000"> &lt; char &gt;</text>
</g>
<!-- Node7 -->
<g id="node8" class="node">
<title>Node7</title>
<g id="a_node8"><a xlink:href="structschwz_1_1Settings_1_1convergence__settings.html" target="_top" xlink:title="The various convergence settings available. ">
<polygon fill="#ffffff" stroke="#000000" points="611,-.5 611,-30.5 760,-30.5 760,-.5 611,-.5"/>
<text text-anchor="start" x="619" y="-18.5" font-family="Helvetica,sans-Serif" font-size="10.00" fill="#000000">schwz::Settings::convergence</text>
<text text-anchor="middle" x="685.5" y="-7.5" font-family="Helvetica,sans-Serif" font-size="10.00" fill="#000000">_settings</text>
</a>
</g>
</g>
<!-- Node7&#45;&gt;Node2 -->
<g id="edge7" class="edge">
<title>Node7&#45;&gt;Node2</title>
<path fill="none" stroke="#9a32cd" stroke-dasharray="5,2" d="M770.568,-18.4018C809.6439,-21.7462 856.0695,-28.609 896,-42.5 927.5071,-53.4607 959.9038,-76.0352 976.8981,-88.9241"/>
<polygon fill="#9a32cd" stroke="#9a32cd" points="770.5234,-14.8874 760.2783,-17.5871 769.9708,-21.8656 770.5234,-14.8874"/>
<text text-anchor="middle" x="840.5" y="-45.5" font-family="Helvetica,sans-Serif" font-size="10.00" fill="#000000"> convergence_settings</text>
</g>
<!-- Node8&#45;&gt;Node1 -->
<g id="edge8" class="edge">
<title>Node8&#45;&gt;Node1</title>
<path fill="none" stroke="#191970" d="M1074.3497,-285.9737C1125.5772,-279.0555 1189.6557,-270.4018 1236.4256,-264.0856"/>
<polygon fill="#191970" stroke="#191970" points="1073.726,-282.526 1064.2844,-287.333 1074.6629,-289.4631 1073.726,-282.526"/>
</g>
<!-- Node9 -->
<g id="node10" class="node">
<title>Node9</title>
<polygon fill="#ffffff" stroke="#bfbfbf" points="410,-249 410,-290 586,-290 586,-249 410,-249"/>
<text text-anchor="start" x="418" y="-278" font-family="Helvetica,sans-Serif" font-size="10.00" fill="#000000">std::vector&lt; std::tuple</text>
<text text-anchor="start" x="418" y="-267" font-family="Helvetica,sans-Serif" font-size="10.00" fill="#000000">&lt; int, int, int, std::</text>
<text text-anchor="middle" x="498" y="-256" font-family="Helvetica,sans-Serif" font-size="10.00" fill="#000000">string, std::vector&lt; ValueType &gt; &gt; &gt;</text>
</g>
<!-- Node9&#45;&gt;Node8 -->
<g id="edge9" class="edge">
<title>Node9&#45;&gt;Node8</title>
<path fill="none" stroke="#9a32cd" stroke-dasharray="5,2" d="M596.1855,-273.7925C647.1562,-276.1355 710.4399,-279.2228 767,-282.5 815.881,-285.3323 870.7796,-289.037 913.7543,-292.056"/>
<polygon fill="#9a32cd" stroke="#9a32cd" points="596.3107,-270.2946 586.1612,-273.334 595.9908,-277.2873 596.3107,-270.2946"/>
<text text-anchor="middle" x="685.5" y="-285.5" font-family="Helvetica,sans-Serif" font-size="10.00" fill="#000000"> time_struct</text>
</g>
<!-- Node10 -->
<g id="node11" class="node">
<title>Node10</title>
<g id="a_node11"><a xlink:title="STL class. ">
<polygon fill="#ffffff" stroke="#bfbfbf" points="4,-334 4,-353 91,-353 91,-334 4,-334"/>
<text text-anchor="middle" x="47.5" y="-341" font-family="Helvetica,sans-Serif" font-size="10.00" fill="#000000">std::vector&lt; T &gt;</text>
</a>
</g>
</g>
<!-- Node10&#45;&gt;Node9 -->
<g id="edge10" class="edge">
<title>Node10&#45;&gt;Node9</title>
<path fill="none" stroke="#ffa500" stroke-dasharray="5,2" d="M60.165,-325.3914C71.9054,-310.2866 90.8648,-289.7871 113,-280.5 208.4194,-240.4658 329.1614,-244.8128 409.7441,-254.5137"/>
<polygon fill="#ffa500" stroke="#ffa500" points="57.269,-323.4207 54.1172,-333.5359 62.889,-327.5939 57.269,-323.4207"/>
<text text-anchor="start" x="113" y="-305.5" font-family="Helvetica,sans-Serif" font-size="10.00" fill="#000000"> &lt; std::tuple&lt; int,</text>
<text text-anchor="start" x="113" y="-294.5" font-family="Helvetica,sans-Serif" font-size="10.00" fill="#000000"> int, int, std::string,</text>
<text text-anchor="middle" x="179.5" y="-283.5" font-family="Helvetica,sans-Serif" font-size="10.00" fill="#000000"> std::vector&lt; ValueType &gt; &gt; &gt;</text>
</g>
<!-- Node12 -->
<g id="node13" class="node">
<title>Node12</title>
<polygon fill="#ffffff" stroke="#bfbfbf" points="264,-432 264,-451 392,-451 392,-432 264,-432"/>
<text text-anchor="middle" x="328" y="-439" font-family="Helvetica,sans-Serif" font-size="10.00" fill="#000000">std::vector&lt; ValueType &gt;</text>
</g>
<!-- Node10&#45;&gt;Node12 -->
<g id="edge14" class="edge">
<title>Node10&#45;&gt;Node12</title>
<path fill="none" stroke="#ffa500" stroke-dasharray="5,2" d="M57.9841,-362.0221C69.1402,-379.8015 88.544,-405.776 113,-418.5 159.4559,-442.6702 219.1242,-447.3282 263.8108,-446.5623"/>
<polygon fill="#ffa500" stroke="#ffa500" points="60.7958,-359.9047 52.6551,-353.1239 54.7904,-363.5013 60.7958,-359.9047"/>
<text text-anchor="middle" x="179.5" y="-448.5" font-family="Helvetica,sans-Serif" font-size="10.00" fill="#000000"> &lt; ValueType &gt;</text>
</g>
<!-- Node13 -->
<g id="node14" class="node">
<title>Node13</title>
<polygon fill="#ffffff" stroke="#bfbfbf" points="268.5,-302.5 268.5,-332.5 387.5,-332.5 387.5,-302.5 268.5,-302.5"/>
<text text-anchor="start" x="276.5" y="-320.5" font-family="Helvetica,sans-Serif" font-size="10.00" fill="#000000">std::vector&lt; std::vector</text>
<text text-anchor="middle" x="328" y="-309.5" font-family="Helvetica,sans-Serif" font-size="10.00" fill="#000000">&lt; ValueType &gt; &gt;</text>
</g>
<!-- Node10&#45;&gt;Node13 -->
<g id="edge16" class="edge">
<title>Node10&#45;&gt;Node13</title>
<path fill="none" stroke="#ffa500" stroke-dasharray="5,2" d="M93.8984,-331.8272C100.284,-330.5281 106.7821,-329.3643 113,-328.5 165.1972,-321.2442 225.1183,-318.6442 268.4204,-317.7724"/>
<polygon fill="#ffa500" stroke="#ffa500" points="93.0515,-328.4292 84.0127,-333.9565 94.5255,-335.2723 93.0515,-328.4292"/>
<text text-anchor="middle" x="179.5" y="-331.5" font-family="Helvetica,sans-Serif" font-size="10.00" fill="#000000"> &lt; std::vector&lt; ValueType &gt; &gt;</text>
</g>
<!-- Node14 -->
<g id="node15" class="node">
<title>Node14</title>
<polygon fill="#ffffff" stroke="#bfbfbf" points="437,-330 437,-393 559,-393 559,-330 437,-330"/>
<text text-anchor="start" x="445" y="-381" font-family="Helvetica,sans-Serif" font-size="10.00" fill="#000000">std::vector&lt; std::tuple</text>
<text text-anchor="start" x="445" y="-370" font-family="Helvetica,sans-Serif" font-size="10.00" fill="#000000">&lt; int, std::vector&lt; std</text>
<text text-anchor="start" x="445" y="-359" font-family="Helvetica,sans-Serif" font-size="10.00" fill="#000000">::tuple&lt; int, int &gt; &gt;, std</text>
<text text-anchor="start" x="445" y="-348" font-family="Helvetica,sans-Serif" font-size="10.00" fill="#000000">::vector&lt; std::tuple&lt; int,</text>
<text text-anchor="middle" x="498" y="-337" font-family="Helvetica,sans-Serif" font-size="10.00" fill="#000000"> int &gt; &gt;, int, int &gt; &gt;</text>
</g>
<!-- Node10&#45;&gt;Node14 -->
<g id="edge18" class="edge">
<title>Node10&#45;&gt;Node14</title>
<path fill="none" stroke="#ffa500" stroke-dasharray="5,2" d="M101.2316,-345.6469C185.5249,-349.0149 348.3437,-355.5204 436.9475,-359.0606"/>
<polygon fill="#ffa500" stroke="#ffa500" points="101.237,-342.1444 91.1052,-345.2423 100.9574,-349.1388 101.237,-342.1444"/>
<text text-anchor="start" x="126" y="-397.5" font-family="Helvetica,sans-Serif" font-size="10.00" fill="#000000"> &lt; std::tuple&lt; int,</text>
<text text-anchor="start" x="126" y="-386.5" font-family="Helvetica,sans-Serif" font-size="10.00" fill="#000000"> std::vector&lt; std::tuple</text>
<text text-anchor="start" x="126" y="-375.5" font-family="Helvetica,sans-Serif" font-size="10.00" fill="#000000">&lt; int, int &gt; &gt;, std::vector</text>
<text text-anchor="start" x="126" y="-364.5" font-family="Helvetica,sans-Serif" font-size="10.00" fill="#000000">&lt; std::tuple&lt; int, int &gt; &gt;</text>
<text text-anchor="middle" x="179.5" y="-353.5" font-family="Helvetica,sans-Serif" font-size="10.00" fill="#000000">, int, int &gt; &gt;</text>
</g>
<!-- Node15 -->
<g id="node16" class="node">
<title>Node15</title>
<polygon fill="#ffffff" stroke="#bfbfbf" points="785,-226.5 785,-256.5 896,-256.5 896,-226.5 785,-226.5"/>
<text text-anchor="start" x="793" y="-244.5" font-family="Helvetica,sans-Serif" font-size="10.00" fill="#000000">std::vector&lt; unsigned</text>
<text text-anchor="middle" x="840.5" y="-233.5" font-family="Helvetica,sans-Serif" font-size="10.00" fill="#000000"> int &gt;</text>
</g>
<!-- Node10&#45;&gt;Node15 -->
<g id="edge20" class="edge">
<title>Node10&#45;&gt;Node15</title>
<path fill="none" stroke="#ffa500" stroke-dasharray="5,2" d="M54.289,-324.4351C63.6123,-301.3593 82.7498,-263.3768 113,-245.5 336.4521,-113.4478 669.9471,-190.8237 792.8259,-226.4896"/>
<polygon fill="#ffa500" stroke="#ffa500" points="50.9867,-323.272 50.6913,-333.8627 57.5267,-325.7678 50.9867,-323.272"/>
<text text-anchor="middle" x="328" y="-189.5" font-family="Helvetica,sans-Serif" font-size="10.00" fill="#000000"> &lt; unsigned int &gt;</text>
</g>
<!-- Node18 -->
<g id="node19" class="node">
<title>Node18</title>
<polygon fill="#ffffff" stroke="#bfbfbf" points="278.5,-510 278.5,-529 377.5,-529 377.5,-510 278.5,-510"/>
<text text-anchor="middle" x="328" y="-517" font-family="Helvetica,sans-Serif" font-size="10.00" fill="#000000">std::vector&lt; bool &gt;</text>
</g>
<!-- Node10&#45;&gt;Node18 -->
<g id="edge24" class="edge">
<title>Node10&#45;&gt;Node18</title>
<path fill="none" stroke="#ffa500" stroke-dasharray="5,2" d="M53.1298,-362.9042C61.7164,-389.0248 80.5999,-435.1389 113,-460.5 161.005,-498.0758 231.3217,-511.748 278.3258,-516.7064"/>
<polygon fill="#ffa500" stroke="#ffa500" points="56.3789,-361.5648 50.0709,-353.0525 49.6937,-363.6406 56.3789,-361.5648"/>
<text text-anchor="middle" x="179.5" y="-514.5" font-family="Helvetica,sans-Serif" font-size="10.00" fill="#000000"> &lt; bool &gt;</text>
</g>
<!-- Node11 -->
<g id="node12" class="node">
<title>Node11</title>
<g id="a_node12"><a xlink:href="structschwz_1_1Metadata_1_1post__process__data.html" target="_top" xlink:title="The struct used for storing data for post&#45;processing. ">
<polygon fill="#ffffff" stroke="#000000" points="604,-302.5 604,-332.5 767,-332.5 767,-302.5 604,-302.5"/>
<text text-anchor="start" x="612" y="-320.5" font-family="Helvetica,sans-Serif" font-size="10.00" fill="#000000">schwz::Metadata&lt; ValueType,</text>
<text text-anchor="middle" x="685.5" y="-309.5" font-family="Helvetica,sans-Serif" font-size="10.00" fill="#000000"> IndexType &gt;::post_process_data</text>
</a>
</g>
</g>
<!-- Node11&#45;&gt;Node8 -->
<g id="edge12" class="edge">
<title>Node11&#45;&gt;Node8</title>
<path fill="none" stroke="#9a32cd" stroke-dasharray="5,2" d="M777.2891,-311.4513C820.9801,-308.5722 872.5733,-305.1723 913.8892,-302.4496"/>
<polygon fill="#9a32cd" stroke="#9a32cd" points="776.9799,-307.964 767.2317,-312.1141 777.4402,-314.9488 776.9799,-307.964"/>
<text text-anchor="middle" x="840.5" y="-312.5" font-family="Helvetica,sans-Serif" font-size="10.00" fill="#000000"> post_process_data</text>
</g>
<!-- Node12&#45;&gt;Node0 -->
<g id="edge27" class="edge">
<title>Node12&#45;&gt;Node0</title>
<path fill="none" stroke="#9a32cd" stroke-dasharray="5,2" d="M345.9321,-457.7381C361.5927,-470.8228 385.5832,-488.3379 410,-496.5 526.3,-535.3767 562.8742,-511.5 685.5,-511.5 685.5,-511.5 685.5,-511.5 1300,-511.5 1367.0905,-511.5 1430.4117,-452.3492 1457.1477,-423.698"/>
<polygon fill="#9a32cd" stroke="#9a32cd" points="347.9962,-454.8962 338.139,-451.0122 343.4226,-460.1955 347.9962,-454.8962"/>
<text text-anchor="middle" x="989" y="-514.5" font-family="Helvetica,sans-Serif" font-size="10.00" fill="#000000"> local_residual_vector_out</text>
</g>
<!-- Node12&#45;&gt;Node11 -->
<g id="edge13" class="edge">
<title>Node12&#45;&gt;Node11</title>
<path fill="none" stroke="#9a32cd" stroke-dasharray="5,2" d="M402.1038,-438.7975C468.3072,-434.8992 558.9045,-425.4275 586,-402.5 605.6343,-385.886 586.1472,-366.0151 604,-347.5 609.8607,-341.4219 617.0572,-336.5674 624.7247,-332.6921"/>
<polygon fill="#9a32cd" stroke="#9a32cd" points="401.9024,-435.3032 392.113,-439.3549 402.2924,-442.2923 401.9024,-435.3032"/>
<text text-anchor="middle" x="498" y="-484.5" font-family="Helvetica,sans-Serif" font-size="10.00" fill="#000000"> local_converged_resnorm</text>
<text text-anchor="start" x="440.5" y="-473.5" font-family="Helvetica,sans-Serif" font-size="10.00" fill="#000000">local_residual_vector</text>
<text text-anchor="middle" x="498" y="-462.5" font-family="Helvetica,sans-Serif" font-size="10.00" fill="#000000">_out</text>
<text text-anchor="start" x="440.5" y="-451.5" font-family="Helvetica,sans-Serif" font-size="10.00" fill="#000000">local_converged_iter</text>
<text text-anchor="middle" x="498" y="-440.5" font-family="Helvetica,sans-Serif" font-size="10.00" fill="#000000">_count</text>
</g>
<!-- Node13&#45;&gt;Node0 -->
<g id="edge28" class="edge">
<title>Node13&#45;&gt;Node0</title>
<path fill="none" stroke="#9a32cd" stroke-dasharray="5,2" d="M344.9219,-340.5811C359.7912,-358.8394 383.198,-383.0934 410,-394.5 522.811,-442.5109 562.8976,-408.5 685.5,-408.5 685.5,-408.5 685.5,-408.5 1300,-408.5 1334.1888,-408.5 1372.2339,-408.5 1403.6962,-408.5"/>
<polygon fill="#9a32cd" stroke="#9a32cd" points="347.6423,-338.3784 338.7092,-332.6818 342.1401,-342.7058 347.6423,-338.3784"/>
<text text-anchor="middle" x="989" y="-411.5" font-family="Helvetica,sans-Serif" font-size="10.00" fill="#000000"> global_residual_vector_out</text>
</g>
<!-- Node13&#45;&gt;Node11 -->
<g id="edge15" class="edge">
<title>Node13&#45;&gt;Node11</title>
<path fill="none" stroke="#9a32cd" stroke-dasharray="5,2" d="M397.8215,-312.9536C401.9409,-312.7752 406.0239,-312.6211 410,-312.5 488.186,-310.1185 507.8024,-310.5365 586,-312.5 591.7924,-312.6454 597.7726,-312.8384 603.7924,-313.0641"/>
<polygon fill="#9a32cd" stroke="#9a32cd" points="397.3691,-309.471 387.5467,-313.4423 397.7017,-316.4631 397.3691,-309.471"/>
<text text-anchor="middle" x="498" y="-315.5" font-family="Helvetica,sans-Serif" font-size="10.00" fill="#000000"> global_residual_vector_out</text>
</g>
<!-- Node14&#45;&gt;Node8 -->
<g id="edge17" class="edge">
<title>Node14&#45;&gt;Node8</title>
<path fill="none" stroke="#9a32cd" stroke-dasharray="5,2" d="M569.4986,-359.9149C649.7583,-356.9697 783.481,-348.5528 896,-324.5 911.1258,-321.2666 927.3909,-316.8702 942.0229,-312.5642"/>
<polygon fill="#9a32cd" stroke="#9a32cd" points="568.8904,-356.4338 559.0181,-360.2794 569.1338,-363.4296 568.8904,-356.4338"/>
<text text-anchor="middle" x="685.5" y="-360.5" font-family="Helvetica,sans-Serif" font-size="10.00" fill="#000000"> comm_data_struct</text>
</g>
<!-- Node15&#45;&gt;Node1 -->
<g id="edge19" class="edge">
<title>Node15&#45;&gt;Node1</title>
<path fill="none" stroke="#9a32cd" stroke-dasharray="5,2" d="M906.5261,-243.5117C994.625,-246.1959 1149.5742,-250.9168 1236.4168,-253.5628"/>
<polygon fill="#9a32cd" stroke="#9a32cd" points="906.4863,-240.0089 896.3843,-243.2027 906.2731,-247.0057 906.4863,-240.0089"/>
<text text-anchor="middle" x="989" y="-261.5" font-family="Helvetica,sans-Serif" font-size="10.00" fill="#000000"> cell_weights</text>
<text text-anchor="middle" x="989" y="-250.5" font-family="Helvetica,sans-Serif" font-size="10.00" fill="#000000">partition_indices</text>
</g>
<!-- Node16 -->
<g id="node17" class="node">
<title>Node16</title>
<g id="a_node17"><a xlink:href="classschwz_1_1Communicate.html" target="_top" xlink:title="The communication class that provides the methods for the communication between the subdomains...">
<polygon fill="#ffffff" stroke="#000000" points="1082,-537.5 1082,-567.5 1215,-567.5 1215,-537.5 1082,-537.5"/>
<text text-anchor="start" x="1090" y="-555.5" font-family="Helvetica,sans-Serif" font-size="10.00" fill="#000000">schwz::Communicate</text>
<text text-anchor="middle" x="1148.5" y="-544.5" font-family="Helvetica,sans-Serif" font-size="10.00" fill="#000000">&lt; ValueType, IndexType &gt;</text>
</a>
</g>
</g>
<!-- Node16&#45;&gt;Node0 -->
<g id="edge21" class="edge">
<title>Node16&#45;&gt;Node0</title>
<path fill="none" stroke="#191970" d="M1225.4681,-559.0683C1274.5491,-559.7177 1337.7601,-553.7163 1386,-525.5 1426.6607,-501.7169 1453.1724,-449.7663 1464.3879,-423.8457"/>
<polygon fill="#191970" stroke="#191970" points="1225.297,-555.5636 1215.2197,-558.8344 1225.1372,-562.5618 1225.297,-555.5636"/>
</g>
<!-- Node17 -->
<g id="node18" class="node">
<title>Node17</title>
<g id="a_node18"><a xlink:href="structschwz_1_1Communicate_1_1comm__struct.html" target="_top" xlink:title="The communication struct used to store the communication data. ">
<polygon fill="#ffffff" stroke="#000000" points="623.5,-540 623.5,-581 747.5,-581 747.5,-540 623.5,-540"/>
<text text-anchor="start" x="631.5" y="-569" font-family="Helvetica,sans-Serif" font-size="10.00" fill="#000000">schwz::Communicate</text>
<text text-anchor="start" x="631.5" y="-558" font-family="Helvetica,sans-Serif" font-size="10.00" fill="#000000">&lt; ValueType, IndexType</text>
<text text-anchor="middle" x="685.5" y="-547" font-family="Helvetica,sans-Serif" font-size="10.00" fill="#000000"> &gt;::comm_struct</text>
</a>
</g>
</g>
<!-- Node17&#45;&gt;Node16 -->
<g id="edge22" class="edge">
<title>Node17&#45;&gt;Node16</title>
<path fill="none" stroke="#9a32cd" stroke-dasharray="5,2" d="M758.1959,-559.2439C846.9646,-557.7101 995.8661,-555.1373 1081.813,-553.6523"/>
<polygon fill="#9a32cd" stroke="#9a32cd" points="757.8802,-555.7488 747.9422,-559.4211 758.0012,-562.7477 757.8802,-555.7488"/>
<text text-anchor="middle" x="840.5" y="-561.5" font-family="Helvetica,sans-Serif" font-size="10.00" fill="#000000"> comm_struct</text>
</g>
<!-- Node18&#45;&gt;Node17 -->
<g id="edge23" class="edge">
<title>Node18&#45;&gt;Node17</title>
<path fill="none" stroke="#9a32cd" stroke-dasharray="5,2" d="M387.8416,-526.363C453.1211,-533.8495 557.1209,-545.7768 623.3112,-553.3679"/>
<polygon fill="#9a32cd" stroke="#9a32cd" points="388.0425,-522.8631 377.7088,-525.2009 387.2449,-529.8176 388.0425,-522.8631"/>
<text text-anchor="middle" x="498" y="-550.5" font-family="Helvetica,sans-Serif" font-size="10.00" fill="#000000"> is_local_neighbor</text>
</g>
<!-- Node19&#45;&gt;Node0 -->
<g id="edge25" class="edge">
<title>Node19&#45;&gt;Node0</title>
<path fill="none" stroke="#191970" d="M1320.6558,-173.417C1334.4669,-189.2192 1352.6642,-210.9933 1367,-231.5 1406.9753,-288.683 1446.4082,-362.0587 1462.6965,-393.3124"/>
<polygon fill="#191970" stroke="#191970" points="1323.1183,-170.9178 1313.877,-165.7362 1317.8699,-175.5498 1323.1183,-170.9178"/>
</g>
</g>
</svg>
