<?xml version="1.0" encoding="UTF-8" standalone="no"?>
<!DOCTYPE svg PUBLIC "-//W3C//DTD SVG 1.1//EN"
 "http://www.w3.org/Graphics/SVG/1.1/DTD/svg11.dtd">
<!-- Generated by graphviz version 2.40.1 (20161225.0304)
 -->
<!-- Title: schwz::SolverRAS&lt; ValueType, IndexType &gt; Pages: 1 -->
<svg width="1732pt" height="550pt"
 viewBox="0.00 0.00 1732.00 549.50" xmlns="http://www.w3.org/2000/svg" xmlns:xlink="http://www.w3.org/1999/xlink">
<g id="graph0" class="graph" transform="scale(1 1) rotate(0) translate(4 545.5)">
<title>schwz::SolverRAS&lt; ValueType, IndexType &gt;</title>
<polygon fill="#ffffff" stroke="transparent" points="-4,4 -4,-545.5 1728,-545.5 1728,4 -4,4"/>
<!-- Node0 -->
<g id="node1" class="node">
<title>Node0</title>
<polygon fill="#bfbfbf" stroke="#000000" points="1566,-102 1566,-132 1724,-132 1724,-102 1566,-102"/>
<text text-anchor="start" x="1574" y="-120" font-family="Helvetica,sans-Serif" font-size="10.00" fill="#000000">schwz::SolverRAS&lt; ValueType,</text>
<text text-anchor="middle" x="1645" y="-109" font-family="Helvetica,sans-Serif" font-size="10.00" fill="#000000"> IndexType &gt;</text>
</g>
<!-- Node1 -->
<g id="node2" class="node">
<title>Node1</title>
<g id="a_node2"><a xlink:href="classschwz_1_1SchwarzBase.html" target="_top" xlink:title="The Base solver class is meant to be the class implementing the common implementations for all the sc...">
<polygon fill="#ffffff" stroke="#000000" points="1396,-102 1396,-132 1529,-132 1529,-102 1396,-102"/>
<text text-anchor="start" x="1404" y="-120" font-family="Helvetica,sans-Serif" font-size="10.00" fill="#000000">schwz::SchwarzBase</text>
<text text-anchor="middle" x="1462.5" y="-109" font-family="Helvetica,sans-Serif" font-size="10.00" fill="#000000">&lt; ValueType, IndexType &gt;</text>
</a>
</g>
</g>
<!-- Node1&#45;&gt;Node0 -->
<g id="edge1" class="edge">
<title>Node1&#45;&gt;Node0</title>
<path fill="none" stroke="#191970" d="M1539.3367,-117C1548.0926,-117 1557.0302,-117 1565.8159,-117"/>
<polygon fill="#191970" stroke="#191970" points="1539.1614,-113.5001 1529.1614,-117 1539.1613,-120.5001 1539.1614,-113.5001"/>
</g>
<!-- Node2 -->
<g id="node3" class="node">
<title>Node2</title>
<g id="a_node3"><a xlink:href="classschwz_1_1Initialize.html" target="_top" xlink:title="The initialization class that provides methods for initialization of the solver. ">
<polygon fill="#ffffff" stroke="#000000" points="1228.5,-303 1228.5,-333 1355.5,-333 1355.5,-303 1228.5,-303"/>
<text text-anchor="start" x="1236.5" y="-321" font-family="Helvetica,sans-Serif" font-size="10.00" fill="#000000">schwz::Initialize&lt;</text>
<text text-anchor="middle" x="1292" y="-310" font-family="Helvetica,sans-Serif" font-size="10.00" fill="#000000"> ValueType, IndexType &gt;</text>
</a>
</g>
</g>
<!-- Node2&#45;&gt;Node1 -->
<g id="edge2" class="edge">
<title>Node2&#45;&gt;Node1</title>
<path fill="none" stroke="#191970" d="M1311.316,-295.2287C1346.5059,-253.7438 1420.1564,-166.9183 1449.7687,-132.0088"/>
<polygon fill="#191970" stroke="#191970" points="1308.6149,-293.0023 1304.8152,-302.8923 1313.9531,-297.5304 1308.6149,-293.0023"/>
</g>
<!-- Node3 -->
<g id="node4" class="node">
<title>Node3</title>
<g id="a_node4"><a xlink:href="structschwz_1_1Settings.html" target="_top" xlink:title="The struct that contains the solver settings and the parameters to be set by the user. ">
<polygon fill="#ffffff" stroke="#000000" points="937.5,-378.5 937.5,-397.5 1024.5,-397.5 1024.5,-378.5 937.5,-378.5"/>
<text text-anchor="middle" x="981" y="-385.5" font-family="Helvetica,sans-Serif" font-size="10.00" fill="#000000">schwz::Settings</text>
</a>
</g>
</g>
<!-- Node3&#45;&gt;Node2 -->
<g id="edge3" class="edge">
<title>Node3&#45;&gt;Node2</title>
<path fill="none" stroke="#191970" d="M1034.8628,-381.0066C1080.9916,-374.4154 1148.9629,-363.2674 1207,-348 1222.4369,-343.9391 1239.0665,-338.3517 1253.4876,-333.0988"/>
<polygon fill="#191970" stroke="#191970" points="1034.2004,-377.5653 1024.7852,-382.4237 1035.1752,-384.4971 1034.2004,-377.5653"/>
</g>
<!-- Node20 -->
<g id="node20" class="node">
<title>Node20</title>
<g id="a_node20"><a xlink:href="classschwz_1_1Solve.html" target="_top" xlink:title="The Solver class the provides the solver and the convergence checking methods. ">
<polygon fill="#ffffff" stroke="#000000" points="1225,-372 1225,-402 1359,-402 1359,-372 1225,-372"/>
<text text-anchor="start" x="1233" y="-390" font-family="Helvetica,sans-Serif" font-size="10.00" fill="#000000">schwz::Solve&lt; ValueType,</text>
<text text-anchor="middle" x="1292" y="-379" font-family="Helvetica,sans-Serif" font-size="10.00" fill="#000000"> IndexType &gt;</text>
</a>
</g>
</g>
<!-- Node3&#45;&gt;Node20 -->
<g id="edge26" class="edge">
<title>Node3&#45;&gt;Node20</title>
<path fill="none" stroke="#191970" d="M1034.7198,-387.8273C1087.3938,-387.6579 1167.8553,-387.3992 1224.7518,-387.2162"/>
<polygon fill="#191970" stroke="#191970" points="1034.5593,-384.3277 1024.5707,-387.8599 1034.5819,-391.3276 1034.5593,-384.3277"/>
</g>
<!-- Node4 -->
<g id="node5" class="node">
<title>Node4</title>
<g id="a_node5"><a xlink:href="structschwz_1_1Settings_1_1comm__settings.html" target="_top" xlink:title="The settings for the various available communication paradigms. ">
<polygon fill="#ffffff" stroke="#000000" points="617.5,-462 617.5,-492 737.5,-492 737.5,-462 617.5,-462"/>
<text text-anchor="start" x="625.5" y="-480" font-family="Helvetica,sans-Serif" font-size="10.00" fill="#000000">schwz::Settings::comm</text>
<text text-anchor="middle" x="677.5" y="-469" font-family="Helvetica,sans-Serif" font-size="10.00" fill="#000000">_settings</text>
</a>
</g>
</g>
<!-- Node4&#45;&gt;Node3 -->
<g id="edge4" class="edge">
<title>Node4&#45;&gt;Node3</title>
<path fill="none" stroke="#9a32cd" stroke-dasharray="5,2" d="M747.7983,-474.9379C789.6187,-471.8621 843.1018,-464.6407 888,-448 920.4302,-435.9803 953.2332,-411.2002 969.8518,-397.5464"/>
<polygon fill="#9a32cd" stroke="#9a32cd" points="747.4454,-471.4536 737.7029,-475.6171 747.9154,-478.4378 747.4454,-471.4536"/>
<text text-anchor="middle" x="832.5" y="-474" font-family="Helvetica,sans-Serif" font-size="10.00" fill="#000000"> comm_settings</text>
</g>
<!-- Node5 -->
<g id="node6" class="node">
<title>Node5</title>
<g id="a_node6"><a xlink:title="STL class. ">
<polygon fill="#ffffff" stroke="#bfbfbf" points="647.5,-347.5 647.5,-366.5 707.5,-366.5 707.5,-347.5 647.5,-347.5"/>
<text text-anchor="middle" x="677.5" y="-354.5" font-family="Helvetica,sans-Serif" font-size="10.00" fill="#000000">std::string</text>
</a>
</g>
</g>
<!-- Node5&#45;&gt;Node3 -->
<g id="edge5" class="edge">
<title>Node5&#45;&gt;Node3</title>
<path fill="none" stroke="#9a32cd" stroke-dasharray="5,2" d="M717.7861,-361.1149C774.7763,-366.936 878.5281,-377.5333 937.3139,-383.5378"/>
<polygon fill="#9a32cd" stroke="#9a32cd" points="718.0142,-357.6201 707.7103,-360.0857 717.3029,-364.5838 718.0142,-357.6201"/>
<text text-anchor="middle" x="832.5" y="-436" font-family="Helvetica,sans-Serif" font-size="10.00" fill="#000000"> factorization</text>
<text text-anchor="middle" x="832.5" y="-425" font-family="Helvetica,sans-Serif" font-size="10.00" fill="#000000">metis_objtype</text>
<text text-anchor="middle" x="832.5" y="-414" font-family="Helvetica,sans-Serif" font-size="10.00" fill="#000000">matrix_filename</text>
<text text-anchor="middle" x="832.5" y="-403" font-family="Helvetica,sans-Serif" font-size="10.00" fill="#000000">reorder</text>
<text text-anchor="middle" x="832.5" y="-392" font-family="Helvetica,sans-Serif" font-size="10.00" fill="#000000">executor_string</text>
<text text-anchor="middle" x="832.5" y="-381" font-family="Helvetica,sans-Serif" font-size="10.00" fill="#000000">rhs_type</text>
</g>
<!-- Node9 -->
<g id="node9" class="node">
<title>Node9</title>
<g id="a_node9"><a xlink:href="structschwz_1_1Metadata.html" target="_top" xlink:title="The solver metadata struct. ">
<polygon fill="#ffffff" stroke="#000000" points="906,-269 906,-299 1056,-299 1056,-269 906,-269"/>
<text text-anchor="start" x="914" y="-287" font-family="Helvetica,sans-Serif" font-size="10.00" fill="#000000">schwz::Metadata&lt; ValueType,</text>
<text text-anchor="middle" x="981" y="-276" font-family="Helvetica,sans-Serif" font-size="10.00" fill="#000000"> IndexType &gt;</text>
</a>
</g>
</g>
<!-- Node5&#45;&gt;Node9 -->
<g id="edge11" class="edge">
<title>Node5&#45;&gt;Node9</title>
<path fill="none" stroke="#9a32cd" stroke-dasharray="5,2" d="M706.0881,-343.1113C725.6391,-334.1428 752.3758,-322.9006 777,-316 800.7756,-309.3372 858.03,-300.5796 905.8504,-293.9106"/>
<polygon fill="#9a32cd" stroke="#9a32cd" points="704.4189,-340.0279 696.839,-347.4304 707.3807,-346.3705 704.4189,-340.0279"/>
<text text-anchor="middle" x="832.5" y="-319" font-family="Helvetica,sans-Serif" font-size="10.00" fill="#000000"> local_precond</text>
</g>
<!-- Node6 -->
<g id="node7" class="node">
<title>Node6</title>
<polygon fill="#ffffff" stroke="#bfbfbf" points="272.5,-341 272.5,-371 367.5,-371 367.5,-341 272.5,-341"/>
<text text-anchor="start" x="280.5" y="-359" font-family="Helvetica,sans-Serif" font-size="10.00" fill="#000000">std::basic_string&lt;</text>
<text text-anchor="middle" x="320" y="-348" font-family="Helvetica,sans-Serif" font-size="10.00" fill="#000000"> char &gt;</text>
</g>
<!-- Node6&#45;&gt;Node5 -->
<g id="edge6" class="edge">
<title>Node6&#45;&gt;Node5</title>
<path fill="none" stroke="#191970" d="M377.8449,-356.1618C454.7087,-356.3768 587.715,-356.7489 647.2107,-356.9153"/>
<polygon fill="#191970" stroke="#191970" points="377.8529,-352.6619 367.8431,-356.1338 377.8332,-359.6619 377.8529,-352.6619"/>
</g>
<!-- Node8 -->
<g id="node8" class="node">
<title>Node8</title>
<g id="a_node8"><a xlink:href="structschwz_1_1Settings_1_1convergence__settings.html" target="_top" xlink:title="The various convergence settings available. ">
<polygon fill="#ffffff" stroke="#000000" points="603,-511 603,-541 752,-541 752,-511 603,-511"/>
<text text-anchor="start" x="611" y="-529" font-family="Helvetica,sans-Serif" font-size="10.00" fill="#000000">schwz::Settings::convergence</text>
<text text-anchor="middle" x="677.5" y="-518" font-family="Helvetica,sans-Serif" font-size="10.00" fill="#000000">_settings</text>
</a>
</g>
</g>
<!-- Node8&#45;&gt;Node3 -->
<g id="edge7" class="edge">
<title>Node8&#45;&gt;Node3</title>
<path fill="none" stroke="#9a32cd" stroke-dasharray="5,2" d="M762.4165,-521.8819C802.4835,-517.0145 849.7728,-506.8676 888,-486 928.5579,-463.8601 961.7672,-417.7614 974.9204,-397.6888"/>
<polygon fill="#9a32cd" stroke="#9a32cd" points="761.9416,-518.4132 752.3954,-523.009 762.724,-525.3693 761.9416,-518.4132"/>
<text text-anchor="middle" x="832.5" y="-522" font-family="Helvetica,sans-Serif" font-size="10.00" fill="#000000"> convergence_settings</text>
</g>
<!-- Node9&#45;&gt;Node2 -->
<g id="edge8" class="edge">
<title>Node9&#45;&gt;Node2</title>
<path fill="none" stroke="#191970" d="M1066.3497,-293.3308C1117.5772,-298.9313 1181.6557,-305.9366 1228.4256,-311.0497"/>
<polygon fill="#191970" stroke="#191970" points="1066.6056,-289.838 1056.2844,-292.2305 1065.8448,-296.7966 1066.6056,-289.838"/>
</g>
<!-- Node10 -->
<g id="node10" class="node">
<title>Node10</title>
<polygon fill="#ffffff" stroke="#bfbfbf" points="402,-231.5 402,-272.5 578,-272.5 578,-231.5 402,-231.5"/>
<text text-anchor="start" x="410" y="-260.5" font-family="Helvetica,sans-Serif" font-size="10.00" fill="#000000">std::vector&lt; std::tuple</text>
<text text-anchor="start" x="410" y="-249.5" font-family="Helvetica,sans-Serif" font-size="10.00" fill="#000000">&lt; int, int, int, std::</text>
<text text-anchor="middle" x="490" y="-238.5" font-family="Helvetica,sans-Serif" font-size="10.00" fill="#000000">string, std::vector&lt; ValueType &gt; &gt; &gt;</text>
</g>
<!-- Node10&#45;&gt;Node9 -->
<g id="edge9" class="edge">
<title>Node10&#45;&gt;Node9</title>
<path fill="none" stroke="#9a32cd" stroke-dasharray="5,2" d="M588.107,-258.3939C681.675,-264.4921 820.5989,-273.5462 905.7308,-279.0945"/>
<polygon fill="#9a32cd" stroke="#9a32cd" points="588.2708,-254.8973 578.0643,-257.7394 587.8155,-261.8825 588.2708,-254.8973"/>
<text text-anchor="middle" x="677.5" y="-273" font-family="Helvetica,sans-Serif" font-size="10.00" fill="#000000"> time_struct</text>
</g>
<!-- Node11 -->
<g id="node11" class="node">
<title>Node11</title>
<g id="a_node11"><a xlink:title="STL class. ">
<polygon fill="#ffffff" stroke="#bfbfbf" points="0,-201.5 0,-220.5 87,-220.5 87,-201.5 0,-201.5"/>
<text text-anchor="middle" x="43.5" y="-208.5" font-family="Helvetica,sans-Serif" font-size="10.00" fill="#000000">std::vector&lt; T &gt;</text>
</a>
</g>
</g>
<!-- Node11&#45;&gt;Node10 -->
<g id="edge10" class="edge">
<title>Node11&#45;&gt;Node10</title>
<path fill="none" stroke="#ffa500" stroke-dasharray="5,2" d="M97.353,-215.9451C172.8691,-222.8794 311.1217,-235.5744 401.7839,-243.8995"/>
<polygon fill="#ffa500" stroke="#ffa500" points="97.4034,-212.4351 87.1253,-215.0059 96.7633,-219.4057 97.4034,-212.4351"/>
<text text-anchor="start" x="105" y="-254" font-family="Helvetica,sans-Serif" font-size="10.00" fill="#000000"> &lt; std::tuple&lt; int,</text>
<text text-anchor="start" x="105" y="-243" font-family="Helvetica,sans-Serif" font-size="10.00" fill="#000000"> int, int, std::string,</text>
<text text-anchor="middle" x="171.5" y="-232" font-family="Helvetica,sans-Serif" font-size="10.00" fill="#000000"> std::vector&lt; ValueType &gt; &gt; &gt;</text>
</g>
<!-- Node13 -->
<g id="node13" class="node">
<title>Node13</title>
<polygon fill="#ffffff" stroke="#bfbfbf" points="256,-166.5 256,-185.5 384,-185.5 384,-166.5 256,-166.5"/>
<text text-anchor="middle" x="320" y="-173.5" font-family="Helvetica,sans-Serif" font-size="10.00" fill="#000000">std::vector&lt; ValueType &gt;</text>
</g>
<!-- Node11&#45;&gt;Node13 -->
<g id="edge14" class="edge">
<title>Node11&#45;&gt;Node13</title>
<path fill="none" stroke="#ffa500" stroke-dasharray="5,2" d="M92.1287,-199.3353C96.4678,-198.475 100.8046,-197.6796 105,-197 155.3491,-188.8439 212.881,-183.4269 255.7541,-180.1405"/>
<polygon fill="#ffa500" stroke="#ffa500" points="91.1391,-195.9664 82.0659,-201.437 92.5703,-202.8185 91.1391,-195.9664"/>
<text text-anchor="middle" x="171.5" y="-200" font-family="Helvetica,sans-Serif" font-size="10.00" fill="#000000"> &lt; ValueType &gt;</text>
</g>
<!-- Node14 -->
<g id="node14" class="node">
<title>Node14</title>
<polygon fill="#ffffff" stroke="#bfbfbf" points="260.5,-117 260.5,-147 379.5,-147 379.5,-117 260.5,-117"/>
<text text-anchor="start" x="268.5" y="-135" font-family="Helvetica,sans-Serif" font-size="10.00" fill="#000000">std::vector&lt; std::vector</text>
<text text-anchor="middle" x="320" y="-124" font-family="Helvetica,sans-Serif" font-size="10.00" fill="#000000">&lt; ValueType &gt; &gt;</text>
</g>
<!-- Node11&#45;&gt;Node14 -->
<g id="edge16" class="edge">
<title>Node11&#45;&gt;Node14</title>
<path fill="none" stroke="#ffa500" stroke-dasharray="5,2" d="M61.5414,-194.6749C73.137,-185.0939 88.9836,-173.606 105,-167 154.8191,-146.4519 215.793,-137.9349 260.0669,-134.4218"/>
<polygon fill="#ffa500" stroke="#ffa500" points="59.223,-192.0523 53.9076,-201.2173 63.7782,-197.3674 59.223,-192.0523"/>
<text text-anchor="middle" x="171.5" y="-170" font-family="Helvetica,sans-Serif" font-size="10.00" fill="#000000"> &lt; std::vector&lt; ValueType &gt; &gt;</text>
</g>
<!-- Node15 -->
<g id="node15" class="node">
<title>Node15</title>
<polygon fill="#ffffff" stroke="#bfbfbf" points="429,-278.5 429,-341.5 551,-341.5 551,-278.5 429,-278.5"/>
<text text-anchor="start" x="437" y="-329.5" font-family="Helvetica,sans-Serif" font-size="10.00" fill="#000000">std::vector&lt; std::tuple</text>
<text text-anchor="start" x="437" y="-318.5" font-family="Helvetica,sans-Serif" font-size="10.00" fill="#000000">&lt; int, std::vector&lt; std</text>
<text text-anchor="start" x="437" y="-307.5" font-family="Helvetica,sans-Serif" font-size="10.00" fill="#000000">::tuple&lt; int, int &gt; &gt;, std</text>
<text text-anchor="start" x="437" y="-296.5" font-family="Helvetica,sans-Serif" font-size="10.00" fill="#000000">::vector&lt; std::tuple&lt; int,</text>
<text text-anchor="middle" x="490" y="-285.5" font-family="Helvetica,sans-Serif" font-size="10.00" fill="#000000"> int &gt; &gt;, int, int &gt; &gt;</text>
</g>
<!-- Node11&#45;&gt;Node15 -->
<g id="edge18" class="edge">
<title>Node11&#45;&gt;Node15</title>
<path fill="none" stroke="#ffa500" stroke-dasharray="5,2" d="M57.6193,-228.4233C68.9851,-241.1247 86.1317,-257.5348 105,-266 211.4959,-313.7789 350.4796,-317.0053 428.9988,-314.1226"/>
<polygon fill="#ffa500" stroke="#ffa500" points="60.1916,-226.0462 51.0252,-220.7331 54.8776,-230.6027 60.1916,-226.0462"/>
<text text-anchor="start" x="118" y="-351" font-family="Helvetica,sans-Serif" font-size="10.00" fill="#000000"> &lt; std::tuple&lt; int,</text>
<text text-anchor="start" x="118" y="-340" font-family="Helvetica,sans-Serif" font-size="10.00" fill="#000000"> std::vector&lt; std::tuple</text>
<text text-anchor="start" x="118" y="-329" font-family="Helvetica,sans-Serif" font-size="10.00" fill="#000000">&lt; int, int &gt; &gt;, std::vector</text>
<text text-anchor="start" x="118" y="-318" font-family="Helvetica,sans-Serif" font-size="10.00" fill="#000000">&lt; std::tuple&lt; int, int &gt; &gt;</text>
<text text-anchor="middle" x="171.5" y="-307" font-family="Helvetica,sans-Serif" font-size="10.00" fill="#000000">, int, int &gt; &gt;</text>
</g>
<!-- Node16 -->
<g id="node16" class="node">
<title>Node16</title>
<polygon fill="#ffffff" stroke="#bfbfbf" points="777,-334 777,-364 888,-364 888,-334 777,-334"/>
<text text-anchor="start" x="785" y="-352" font-family="Helvetica,sans-Serif" font-size="10.00" fill="#000000">std::vector&lt; unsigned</text>
<text text-anchor="middle" x="832.5" y="-341" font-family="Helvetica,sans-Serif" font-size="10.00" fill="#000000"> int &gt;</text>
</g>
<!-- Node11&#45;&gt;Node16 -->
<g id="edge20" class="edge">
<title>Node11&#45;&gt;Node16</title>
<path fill="none" stroke="#ffa500" stroke-dasharray="5,2" d="M45.2563,-231.1836C49.3326,-264.5769 62.6063,-330.8244 105,-363 204.6926,-438.6639 735.0558,-381.2149 759,-376 767.554,-374.137 768.8507,-371.1986 777,-368 780.4129,-366.6604 783.9635,-365.3219 787.5455,-364.0105"/>
<polygon fill="#ffa500" stroke="#ffa500" points="48.6962,-230.429 44.1654,-220.8518 41.7349,-231.164 48.6962,-230.429"/>
<text text-anchor="middle" x="320" y="-405" font-family="Helvetica,sans-Serif" font-size="10.00" fill="#000000"> &lt; unsigned int &gt;</text>
</g>
<!-- Node19 -->
<g id="node19" class="node">
<title>Node19</title>
<polygon fill="#ffffff" stroke="#bfbfbf" points="270.5,-58.5 270.5,-77.5 369.5,-77.5 369.5,-58.5 270.5,-58.5"/>
<text text-anchor="middle" x="320" y="-65.5" font-family="Helvetica,sans-Serif" font-size="10.00" fill="#000000">std::vector&lt; bool &gt;</text>
</g>
<!-- Node11&#45;&gt;Node19 -->
<g id="edge24" class="edge">
<title>Node11&#45;&gt;Node19</title>
<path fill="none" stroke="#ffa500" stroke-dasharray="5,2" d="M51.6149,-191.9887C61.3212,-171.5639 79.5142,-139.665 105,-122 154.5017,-87.6889 223.8301,-75.1475 270.244,-70.5817"/>
<polygon fill="#ffa500" stroke="#ffa500" points="48.3649,-190.6812 47.4278,-201.2345 54.7415,-193.569 48.3649,-190.6812"/>
<text text-anchor="middle" x="171.5" y="-125" font-family="Helvetica,sans-Serif" font-size="10.00" fill="#000000"> &lt; bool &gt;</text>
</g>
<!-- Node12 -->
<g id="node12" class="node">
<title>Node12</title>
<g id="a_node12"><a xlink:href="structschwz_1_1Metadata_1_1post__process__data.html" target="_top" xlink:title="The struct used for storing data for post&#45;processing. ">
<polygon fill="#ffffff" stroke="#000000" points="596,-156 596,-186 759,-186 759,-156 596,-156"/>
<text text-anchor="start" x="604" y="-174" font-family="Helvetica,sans-Serif" font-size="10.00" fill="#000000">schwz::Metadata&lt; ValueType,</text>
<text text-anchor="middle" x="677.5" y="-163" font-family="Helvetica,sans-Serif" font-size="10.00" fill="#000000"> IndexType &gt;::post_process_data</text>
</a>
</g>
</g>
<!-- Node12&#45;&gt;Node9 -->
<g id="edge12" class="edge">
<title>Node12&#45;&gt;Node9</title>
<path fill="none" stroke="#9a32cd" stroke-dasharray="5,2" d="M769.2009,-179.419C807.1984,-185.282 850.9565,-195.2086 888,-212 918.872,-225.994 948.8107,-252.1134 966.0457,-268.7491"/>
<polygon fill="#9a32cd" stroke="#9a32cd" points="769.5642,-175.9348 759.1613,-177.9426 768.5456,-182.8604 769.5642,-175.9348"/>
<text text-anchor="middle" x="832.5" y="-215" font-family="Helvetica,sans-Serif" font-size="10.00" fill="#000000"> post_process_data</text>
</g>
<!-- Node13&#45;&gt;Node1 -->
<g id="edge27" class="edge">
<title>Node13&#45;&gt;Node1</title>
<path fill="none" stroke="#9a32cd" stroke-dasharray="5,2" d="M372.9759,-162.433C376.8516,-160.5518 380.5773,-158.4182 384,-156 394.8896,-148.3062 390.1168,-138.047 402,-132 490.105,-87.1659 1176.6651,-106.996 1395.6323,-114.5507"/>
<polygon fill="#9a32cd" stroke="#9a32cd" points="371.5545,-159.2341 363.7319,-166.3796 374.3031,-165.6719 371.5545,-159.2341"/>
<text text-anchor="middle" x="981" y="-109" font-family="Helvetica,sans-Serif" font-size="10.00" fill="#000000"> local_residual_vector_out</text>
</g>
<!-- Node13&#45;&gt;Node12 -->
<g id="edge13" class="edge">
<title>Node13&#45;&gt;Node12</title>
<path fill="none" stroke="#9a32cd" stroke-dasharray="5,2" d="M394.3866,-167.477C396.9539,-167.2972 399.4975,-167.1369 402,-167 467.0777,-163.4394 540.9228,-164.8019 595.7685,-166.8558"/>
<polygon fill="#9a32cd" stroke="#9a32cd" points="394.0992,-163.9886 384.4031,-168.2589 394.6459,-170.9673 394.0992,-163.9886"/>
<text text-anchor="middle" x="490" y="-214" font-family="Helvetica,sans-Serif" font-size="10.00" fill="#000000"> local_converged_resnorm</text>
<text text-anchor="start" x="432.5" y="-203" font-family="Helvetica,sans-Serif" font-size="10.00" fill="#000000">local_residual_vector</text>
<text text-anchor="middle" x="490" y="-192" font-family="Helvetica,sans-Serif" font-size="10.00" fill="#000000">_out</text>
<text text-anchor="start" x="432.5" y="-181" font-family="Helvetica,sans-Serif" font-size="10.00" fill="#000000">local_converged_iter</text>
<text text-anchor="middle" x="490" y="-170" font-family="Helvetica,sans-Serif" font-size="10.00" fill="#000000">_count</text>
</g>
<!-- Node14&#45;&gt;Node1 -->
<g id="edge28" class="edge">
<title>Node14&#45;&gt;Node1</title>
<path fill="none" stroke="#9a32cd" stroke-dasharray="5,2" d="M352.0277,-111.8035C366.6978,-103.5678 384.6525,-94.8555 402,-90 520.2231,-56.9099 554.7333,-70 677.5,-70 677.5,-70 677.5,-70 1292,-70 1340.9741,-70 1395.1078,-88.2448 1428.9607,-101.9997"/>
<polygon fill="#9a32cd" stroke="#9a32cd" points="350.2498,-108.7886 343.3528,-116.8311 353.7598,-114.845 350.2498,-108.7886"/>
<text text-anchor="middle" x="981" y="-73" font-family="Helvetica,sans-Serif" font-size="10.00" fill="#000000"> global_residual_vector_out</text>
</g>
<!-- Node14&#45;&gt;Node12 -->
<g id="edge15" class="edge">
<title>Node14&#45;&gt;Node12</title>
<path fill="none" stroke="#9a32cd" stroke-dasharray="5,2" d="M389.8058,-134.2559C441.8697,-136.5715 514.6323,-141.1458 578,-150 589.2778,-151.5758 601.189,-153.6907 612.6984,-155.9729"/>
<polygon fill="#9a32cd" stroke="#9a32cd" points="389.8185,-130.7533 379.6779,-133.8223 389.519,-137.7469 389.8185,-130.7533"/>
<text text-anchor="middle" x="490" y="-153" font-family="Helvetica,sans-Serif" font-size="10.00" fill="#000000"> global_residual_vector_out</text>
</g>
<!-- Node15&#45;&gt;Node9 -->
<g id="edge17" class="edge">
<title>Node15&#45;&gt;Node9</title>
<path fill="none" stroke="#9a32cd" stroke-dasharray="5,2" d="M561.229,-306.2282C653.0496,-301.366 812.014,-292.9483 905.7478,-287.9848"/>
<polygon fill="#9a32cd" stroke="#9a32cd" points="560.9936,-302.7357 551.1927,-306.7597 561.3638,-309.7259 560.9936,-302.7357"/>
<text text-anchor="middle" x="677.5" y="-308" font-family="Helvetica,sans-Serif" font-size="10.00" fill="#000000"> comm_data_struct</text>
</g>
<!-- Node16&#45;&gt;Node2 -->
<g id="edge19" class="edge">
<title>Node16&#45;&gt;Node2</title>
<path fill="none" stroke="#9a32cd" stroke-dasharray="5,2" d="M898.5261,-344.5456C986.625,-338.602 1141.5742,-328.1484 1228.4168,-322.2896"/>
<polygon fill="#9a32cd" stroke="#9a32cd" points="898.126,-341.0645 888.3843,-345.2298 898.5973,-348.0486 898.126,-341.0645"/>
<text text-anchor="middle" x="981" y="-358" font-family="Helvetica,sans-Serif" font-size="10.00" fill="#000000"> cell_weights</text>
<text text-anchor="middle" x="981" y="-347" font-family="Helvetica,sans-Serif" font-size="10.00" fill="#000000">partition_indices</text>
</g>
<!-- Node17 -->
<g id="node17" class="node">
<title>Node17</title>
<g id="a_node17"><a xlink:href="classschwz_1_1Communicate.html" target="_top" xlink:title="The communication class that provides the methods for the communication between the subdomains...">
<polygon fill="#ffffff" stroke="#000000" points="1074,-12 1074,-42 1207,-42 1207,-12 1074,-12"/>
<text text-anchor="start" x="1082" y="-30" font-family="Helvetica,sans-Serif" font-size="10.00" fill="#000000">schwz::Communicate</text>
<text text-anchor="middle" x="1140.5" y="-19" font-family="Helvetica,sans-Serif" font-size="10.00" fill="#000000">&lt; ValueType, IndexType &gt;</text>
</a>
</g>
</g>
<!-- Node17&#45;&gt;Node1 -->
<g id="edge21" class="edge">
<title>Node17&#45;&gt;Node1</title>
<path fill="none" stroke="#191970" d="M1217.4341,-26.7284C1265.1249,-28.8826 1326.8334,-35.9548 1378,-56 1404.7861,-66.4938 1430.8954,-87.4836 1446.8356,-101.8832"/>
<polygon fill="#191970" stroke="#191970" points="1217.3004,-23.2207 1207.1722,-26.3305 1217.0291,-30.2154 1217.3004,-23.2207"/>
</g>
<!-- Node18 -->
<g id="node18" class="node">
<title>Node18</title>
<g id="a_node18"><a xlink:href="structschwz_1_1Communicate_1_1comm__struct.html" target="_top" xlink:title="The communication struct used to store the communication data. ">
<polygon fill="#ffffff" stroke="#000000" points="615.5,-.5 615.5,-41.5 739.5,-41.5 739.5,-.5 615.5,-.5"/>
<text text-anchor="start" x="623.5" y="-29.5" font-family="Helvetica,sans-Serif" font-size="10.00" fill="#000000">schwz::Communicate</text>
<text text-anchor="start" x="623.5" y="-18.5" font-family="Helvetica,sans-Serif" font-size="10.00" fill="#000000">&lt; ValueType, IndexType</text>
<text text-anchor="middle" x="677.5" y="-7.5" font-family="Helvetica,sans-Serif" font-size="10.00" fill="#000000"> &gt;::comm_struct</text>
</a>
</g>
</g>
<!-- Node18&#45;&gt;Node17 -->
<g id="edge22" class="edge">
<title>Node18&#45;&gt;Node17</title>
<path fill="none" stroke="#9a32cd" stroke-dasharray="5,2" d="M750.1959,-21.9421C838.9646,-23.0924 987.8661,-25.022 1073.813,-26.1358"/>
<polygon fill="#9a32cd" stroke="#9a32cd" points="749.9868,-18.4392 739.9422,-21.8092 749.896,-25.4386 749.9868,-18.4392"/>
<text text-anchor="middle" x="832.5" y="-27" font-family="Helvetica,sans-Serif" font-size="10.00" fill="#000000"> comm_struct</text>
</g>
<!-- Node19&#45;&gt;Node18 -->
<g id="edge23" class="edge">
<title>Node19&#45;&gt;Node18</title>
<path fill="none" stroke="#9a32cd" stroke-dasharray="5,2" d="M358.8533,-55.5003C372.3821,-51.577 387.7425,-47.5971 402,-45 474.5039,-31.7932 559.1106,-25.7955 615.2389,-23.1098"/>
<polygon fill="#9a32cd" stroke="#9a32cd" points="357.4956,-52.2528 348.9135,-58.4655 359.4967,-58.9607 357.4956,-52.2528"/>
<text text-anchor="middle" x="490" y="-48" font-family="Helvetica,sans-Serif" font-size="10.00" fill="#000000"> is_local_neighbor</text>
</g>
<!-- Node20&#45;&gt;Node1 -->
<g id="edge25" class="edge">
<title>Node20&#45;&gt;Node1</title>
<path fill="none" stroke="#191970" d="M1330.267,-366.4922C1340.5256,-359.6934 1350.9815,-351.4192 1359,-342 1416.137,-274.8826 1448.135,-170.9765 1458.6165,-132.2402"/>
<polygon fill="#191970" stroke="#191970" points="1328.3538,-363.5607 1321.7541,-371.8489 1332.0819,-369.4854 1328.3538,-363.5607"/>
</g>
</g>
</svg>
