<?xml version="1.0" encoding="UTF-8" standalone="no"?>
<!DOCTYPE svg PUBLIC "-//W3C//DTD SVG 1.1//EN"
 "http://www.w3.org/Graphics/SVG/1.1/DTD/svg11.dtd">
<!-- Generated by graphviz version 2.40.1 (20161225.0304)
 -->
<!-- Title: schwz::Settings Pages: 1 -->
<svg width="389pt" height="318pt"
 viewBox="0.00 0.00 389.00 318.00" xmlns="http://www.w3.org/2000/svg" xmlns:xlink="http://www.w3.org/1999/xlink">
<g id="graph0" class="graph" transform="scale(1 1) rotate(0) translate(4 314)">
<title>schwz::Settings</title>
<polygon fill="#ffffff" stroke="transparent" points="-4,4 -4,-314 385,-314 385,4 -4,4"/>
<!-- Node0 -->
<g id="node1" class="node">
<title>Node0</title>
<polygon fill="#bfbfbf" stroke="#000000" points="124.5,-.5 124.5,-19.5 211.5,-19.5 211.5,-.5 124.5,-.5"/>
<text text-anchor="middle" x="168" y="-7.5" font-family="Helvetica,sans-Serif" font-size="10.00" fill="#000000">schwz::Settings</text>
</g>
<!-- Node1 -->
<g id="node2" class="node">
<title>Node1</title>
<g id="a_node2"><a xlink:href="structschwz_1_1Settings_1_1comm__settings.html" target="_top" xlink:title="The settings for the various available communication paradigms. ">
<polygon fill="#ffffff" stroke="#000000" points="0,-133.5 0,-163.5 120,-163.5 120,-133.5 0,-133.5"/>
<text text-anchor="start" x="8" y="-151.5" font-family="Helvetica,sans-Serif" font-size="10.00" fill="#000000">schwz::Settings::comm</text>
<text text-anchor="middle" x="60" y="-140.5" font-family="Helvetica,sans-Serif" font-size="10.00" fill="#000000">_settings</text>
</a>
</g>
</g>
<!-- Node1&#45;&gt;Node0 -->
<g id="edge1" class="edge">
<title>Node1&#45;&gt;Node0</title>
<path fill="none" stroke="#9a32cd" stroke-dasharray="5,2" d="M61.5159,-123.1417C64.2919,-98.4503 72.1017,-61.3286 94,-38 102.0849,-29.387 113.0889,-23.401 124.1384,-19.2489"/>
<polygon fill="#9a32cd" stroke="#9a32cd" points="58.0214,-122.9217 60.5849,-133.2017 64.9916,-123.5668 58.0214,-122.9217"/>
<text text-anchor="middle" x="129" y="-74" font-family="Helvetica,sans-Serif" font-size="10.00" fill="#000000"> comm_settings</text>
</g>
<!-- Node2 -->
<g id="node3" class="node">
<title>Node2</title>
<g id="a_node3"><a xlink:title="STL class. ">
<polygon fill="#ffffff" stroke="#bfbfbf" points="138,-139 138,-158 198,-158 198,-139 138,-139"/>
<text text-anchor="middle" x="168" y="-146" font-family="Helvetica,sans-Serif" font-size="10.00" fill="#000000">std::string</text>
</a>
</g>
</g>
<!-- Node2&#45;&gt;Node0 -->
<g id="edge2" class="edge">
<title>Node2&#45;&gt;Node0</title>
<path fill="none" stroke="#9a32cd" stroke-dasharray="5,2" d="M168,-128.8365C168,-98.6666 168,-42.0893 168,-19.5863"/>
<polygon fill="#9a32cd" stroke="#9a32cd" points="164.5001,-128.9803 168,-138.9803 171.5001,-128.9804 164.5001,-128.9803"/>
<text text-anchor="middle" x="203" y="-107" font-family="Helvetica,sans-Serif" font-size="10.00" fill="#000000"> factorization</text>
<text text-anchor="middle" x="203" y="-96" font-family="Helvetica,sans-Serif" font-size="10.00" fill="#000000">metis_objtype</text>
<text text-anchor="middle" x="203" y="-85" font-family="Helvetica,sans-Serif" font-size="10.00" fill="#000000">thres_type</text>
<text text-anchor="middle" x="203" y="-74" font-family="Helvetica,sans-Serif" font-size="10.00" fill="#000000">matrix_filename</text>
<text text-anchor="middle" x="203" y="-63" font-family="Helvetica,sans-Serif" font-size="10.00" fill="#000000">reorder</text>
<text text-anchor="middle" x="203" y="-52" font-family="Helvetica,sans-Serif" font-size="10.00" fill="#000000">executor_string</text>
<text text-anchor="middle" x="203" y="-41" font-family="Helvetica,sans-Serif" font-size="10.00" fill="#000000">rhs_type</text>
</g>
<!-- Node3 -->
<g id="node4" class="node">
<title>Node3</title>
<polygon fill="#ffffff" stroke="#bfbfbf" points="120.5,-201.5 120.5,-231.5 215.5,-231.5 215.5,-201.5 120.5,-201.5"/>
<text text-anchor="start" x="128.5" y="-219.5" font-family="Helvetica,sans-Serif" font-size="10.00" fill="#000000">std::basic_string&lt;</text>
<text text-anchor="middle" x="168" y="-208.5" font-family="Helvetica,sans-Serif" font-size="10.00" fill="#000000"> char &gt;</text>
</g>
<!-- Node3&#45;&gt;Node2 -->
<g id="edge3" class="edge">
<title>Node3&#45;&gt;Node2</title>
<path fill="none" stroke="#191970" d="M168,-191.0669C168,-179.6483 168,-166.8507 168,-158.297"/>
<polygon fill="#191970" stroke="#191970" points="164.5001,-191.4086 168,-201.4086 171.5001,-191.4086 164.5001,-191.4086"/>
</g>
<!-- Node4 -->
<g id="node5" class="node">
<title>Node4</title>
<g id="a_node5"><a xlink:title="STL class. ">
<polygon fill="#ffffff" stroke="#bfbfbf" points="120.5,-279.5 120.5,-309.5 215.5,-309.5 215.5,-279.5 120.5,-279.5"/>
<text text-anchor="start" x="128.5" y="-297.5" font-family="Helvetica,sans-Serif" font-size="10.00" fill="#000000">std::basic_string&lt;</text>
<text text-anchor="middle" x="168" y="-286.5" font-family="Helvetica,sans-Serif" font-size="10.00" fill="#000000"> Char &gt;</text>
</a>
</g>
</g>
<!-- Node4&#45;&gt;Node3 -->
<g id="edge4" class="edge">
<title>Node4&#45;&gt;Node3</title>
<path fill="none" stroke="#ffa500" stroke-dasharray="5,2" d="M168,-269.2875C168,-256.9187 168,-242.4264 168,-231.7592"/>
<polygon fill="#ffa500" stroke="#ffa500" points="164.5001,-269.4608 168,-279.4608 171.5001,-269.4608 164.5001,-269.4608"/>
<text text-anchor="middle" x="188" y="-253" font-family="Helvetica,sans-Serif" font-size="10.00" fill="#000000"> &lt; char &gt;</text>
</g>
<!-- Node5 -->
<g id="node6" class="node">
<title>Node5</title>
<g id="a_node6"><a xlink:href="structschwz_1_1Settings_1_1convergence__settings.html" target="_top" xlink:title="The various convergence settings available. ">
<polygon fill="#ffffff" stroke="#000000" points="215.5,-133.5 215.5,-163.5 364.5,-163.5 364.5,-133.5 215.5,-133.5"/>
<text text-anchor="start" x="223.5" y="-151.5" font-family="Helvetica,sans-Serif" font-size="10.00" fill="#000000">schwz::Settings::convergence</text>
<text text-anchor="middle" x="290" y="-140.5" font-family="Helvetica,sans-Serif" font-size="10.00" fill="#000000">_settings</text>
</a>
</g>
</g>
<!-- Node5&#45;&gt;Node0 -->
<g id="edge5" class="edge">
<title>Node5&#45;&gt;Node0</title>
<path fill="none" stroke="#9a32cd" stroke-dasharray="5,2" d="M285.1464,-123.7408C279.0773,-98.9481 266.3768,-61.2323 242,-38 233.2497,-29.6605 221.7711,-23.7458 210.4739,-19.5743"/>
<polygon fill="#9a32cd" stroke="#9a32cd" points="281.7332,-124.5157 287.3562,-133.4952 288.5602,-122.969 281.7332,-124.5157"/>
<text text-anchor="middle" x="331.5" y="-74" font-family="Helvetica,sans-Serif" font-size="10.00" fill="#000000"> convergence_settings</text>
</g>
</g>
</svg>
