<?xml version="1.0" encoding="UTF-8" standalone="no"?>
<!DOCTYPE svg PUBLIC "-//W3C//DTD SVG 1.1//EN"
 "http://www.w3.org/Graphics/SVG/1.1/DTD/svg11.dtd">
<!-- Generated by graphviz version 2.40.1 (20161225.0304)
 -->
<!-- Title: schwz::Settings Pages: 1 -->
<svg width="387pt" height="307pt"
 viewBox="0.00 0.00 387.00 307.00" xmlns="http://www.w3.org/2000/svg" xmlns:xlink="http://www.w3.org/1999/xlink">
<g id="graph0" class="graph" transform="scale(1 1) rotate(0) translate(4 303)">
<title>schwz::Settings</title>
<polygon fill="#ffffff" stroke="transparent" points="-4,4 -4,-303 383,-303 383,4 -4,4"/>
<!-- Node0 -->
<g id="node1" class="node">
<title>Node0</title>
<polygon fill="#bfbfbf" stroke="#000000" points="124.5,-.5 124.5,-19.5 211.5,-19.5 211.5,-.5 124.5,-.5"/>
<text text-anchor="middle" x="168" y="-7.5" font-family="Helvetica,sans-Serif" font-size="10.00" fill="#000000">schwz::Settings</text>
</g>
<!-- Node1 -->
<g id="node2" class="node">
<title>Node1</title>
<g id="a_node2"><a xlink:href="structschwz_1_1Settings_1_1comm__settings.html" target="_top" xlink:title="The settings for the various available communication paradigms. ">
<polygon fill="#ffffff" stroke="#000000" points="0,-122.5 0,-152.5 120,-152.5 120,-122.5 0,-122.5"/>
<text text-anchor="start" x="8" y="-140.5" font-family="Helvetica,sans-Serif" font-size="10.00" fill="#000000">schwz::Settings::comm</text>
<text text-anchor="middle" x="60" y="-129.5" font-family="Helvetica,sans-Serif" font-size="10.00" fill="#000000">_settings</text>
</a>
</g>
</g>
<!-- Node1&#45;&gt;Node0 -->
<g id="edge1" class="edge">
<title>Node1&#45;&gt;Node0</title>
<path fill="none" stroke="#9a32cd" stroke-dasharray="5,2" d="M62.5909,-112.2451C66.1331,-90.0314 74.4684,-58.1761 94,-38 102.2164,-29.5124 113.2637,-23.5675 124.3125,-19.4148"/>
<polygon fill="#9a32cd" stroke="#9a32cd" points="59.1058,-111.898 61.209,-122.282 66.0404,-112.8529 59.1058,-111.898"/>
<text text-anchor="middle" x="129" y="-68.5" font-family="Helvetica,sans-Serif" font-size="10.00" fill="#000000"> comm_settings</text>
</g>
<!-- Node2 -->
<g id="node3" class="node">
<title>Node2</title>
<g id="a_node3"><a xlink:title="STL class. ">
<polygon fill="#ffffff" stroke="#bfbfbf" points="138,-128 138,-147 198,-147 198,-128 138,-128"/>
<text text-anchor="middle" x="168" y="-135" font-family="Helvetica,sans-Serif" font-size="10.00" fill="#000000">std::string</text>
</a>
</g>
</g>
<!-- Node2&#45;&gt;Node0 -->
<g id="edge2" class="edge">
<title>Node2&#45;&gt;Node0</title>
<path fill="none" stroke="#9a32cd" stroke-dasharray="5,2" d="M168,-117.8276C168,-90.0954 168,-40.564 168,-19.6944"/>
<polygon fill="#9a32cd" stroke="#9a32cd" points="164.5001,-117.9167 168,-127.9168 171.5001,-117.9168 164.5001,-117.9167"/>
<text text-anchor="middle" x="203" y="-96" font-family="Helvetica,sans-Serif" font-size="10.00" fill="#000000"> factorization</text>
<text text-anchor="middle" x="203" y="-85" font-family="Helvetica,sans-Serif" font-size="10.00" fill="#000000">metis_objtype</text>
<text text-anchor="middle" x="203" y="-74" font-family="Helvetica,sans-Serif" font-size="10.00" fill="#000000">matrix_filename</text>
<text text-anchor="middle" x="203" y="-63" font-family="Helvetica,sans-Serif" font-size="10.00" fill="#000000">reorder</text>
<text text-anchor="middle" x="203" y="-52" font-family="Helvetica,sans-Serif" font-size="10.00" fill="#000000">executor_string</text>
<text text-anchor="middle" x="203" y="-41" font-family="Helvetica,sans-Serif" font-size="10.00" fill="#000000">rhs_type</text>
</g>
<!-- Node3 -->
<g id="node4" class="node">
<title>Node3</title>
<polygon fill="#ffffff" stroke="#bfbfbf" points="120.5,-190.5 120.5,-220.5 215.5,-220.5 215.5,-190.5 120.5,-190.5"/>
<text text-anchor="start" x="128.5" y="-208.5" font-family="Helvetica,sans-Serif" font-size="10.00" fill="#000000">std::basic_string&lt;</text>
<text text-anchor="middle" x="168" y="-197.5" font-family="Helvetica,sans-Serif" font-size="10.00" fill="#000000"> char &gt;</text>
</g>
<!-- Node3&#45;&gt;Node2 -->
<g id="edge3" class="edge">
<title>Node3&#45;&gt;Node2</title>
<path fill="none" stroke="#191970" d="M168,-180.0669C168,-168.6483 168,-155.8507 168,-147.297"/>
<polygon fill="#191970" stroke="#191970" points="164.5001,-180.4086 168,-190.4086 171.5001,-180.4086 164.5001,-180.4086"/>
</g>
<!-- Node4 -->
<g id="node5" class="node">
<title>Node4</title>
<g id="a_node5"><a xlink:title="STL class. ">
<polygon fill="#ffffff" stroke="#bfbfbf" points="120.5,-268.5 120.5,-298.5 215.5,-298.5 215.5,-268.5 120.5,-268.5"/>
<text text-anchor="start" x="128.5" y="-286.5" font-family="Helvetica,sans-Serif" font-size="10.00" fill="#000000">std::basic_string&lt;</text>
<text text-anchor="middle" x="168" y="-275.5" font-family="Helvetica,sans-Serif" font-size="10.00" fill="#000000"> Char &gt;</text>
</a>
</g>
</g>
<!-- Node4&#45;&gt;Node3 -->
<g id="edge4" class="edge">
<title>Node4&#45;&gt;Node3</title>
<path fill="none" stroke="#ffa500" stroke-dasharray="5,2" d="M168,-258.2875C168,-245.9187 168,-231.4264 168,-220.7592"/>
<polygon fill="#ffa500" stroke="#ffa500" points="164.5001,-258.4608 168,-268.4608 171.5001,-258.4608 164.5001,-258.4608"/>
<text text-anchor="middle" x="188" y="-242" font-family="Helvetica,sans-Serif" font-size="10.00" fill="#000000"> &lt; char &gt;</text>
</g>
<!-- Node5 -->
<g id="node6" class="node">
<title>Node5</title>
<g id="a_node6"><a xlink:href="structschwz_1_1Settings_1_1convergence__settings.html" target="_top" xlink:title="The various convergence settings available. ">
<polygon fill="#ffffff" stroke="#000000" points="215.5,-122.5 215.5,-152.5 364.5,-152.5 364.5,-122.5 215.5,-122.5"/>
<text text-anchor="start" x="223.5" y="-140.5" font-family="Helvetica,sans-Serif" font-size="10.00" fill="#000000">schwz::Settings::convergence</text>
<text text-anchor="middle" x="290" y="-129.5" font-family="Helvetica,sans-Serif" font-size="10.00" fill="#000000">_settings</text>
</a>
</g>
</g>
<!-- Node5&#45;&gt;Node0 -->
<g id="edge5" class="edge">
<title>Node5&#45;&gt;Node0</title>
<path fill="none" stroke="#9a32cd" stroke-dasharray="5,2" d="M283.6556,-112.4293C276.8155,-90.1227 263.8557,-58.0174 242,-38 232.8834,-29.6502 221.0308,-23.7107 209.4927,-19.5187"/>
<polygon fill="#9a32cd" stroke="#9a32cd" points="280.337,-113.5541 286.456,-122.2033 287.0662,-111.626 280.337,-113.5541"/>
<text text-anchor="middle" x="329.5" y="-68.5" font-family="Helvetica,sans-Serif" font-size="10.00" fill="#000000"> convergence_settings</text>
</g>
</g>
</svg>
