<?xml version="1.0" encoding="UTF-8" standalone="no"?>
<!DOCTYPE svg PUBLIC "-//W3C//DTD SVG 1.1//EN"
 "http://www.w3.org/Graphics/SVG/1.1/DTD/svg11.dtd">
<!-- Generated by graphviz version 2.40.1 (20161225.0304)
 -->
<!-- Title: schwz::SolverRAS&lt; ValueType, IndexType &gt; Pages: 1 -->
<!--zoomable 533 -->
<svg id="main" version="1.1" xmlns="http://www.w3.org/2000/svg" xmlns:xlink="http://www.w3.org/1999/xlink" xml:space="preserve" onload="init(evt)">
<style type="text/css"><![CDATA[
.edge:hover path { stroke: red; }
.edge:hover polygon { stroke: red; fill: red; }
]]></style>
<script type="text/javascript"><![CDATA[
var edges = document.getElementsByTagName('g');
if (edges && edges.length) {
  for (var i=0;i<edges.length;i++) {
    if (edges[i].id.substr(0,4)=='edge') {
      edges[i].setAttribute('class','edge');
    }
  }
}
]]></script>
        <defs>
                <circle id="rim" cx="0" cy="0" r="7"/>
                <circle id="rim2" cx="0" cy="0" r="3.5"/>
                <g id="zoomPlus">
                        <use xlink:href="#rim" fill="#404040">
                                <set attributeName="fill" to="#808080" begin="zoomplus.mouseover" end="zoomplus.mouseout"/>
                        </use>
                        <path d="M-4,0h8M0,-4v8" fill="none" stroke="white" stroke-width="1.5" pointer-events="none"/>
                </g>
                <g id="zoomMin">
                        <use xlink:href="#rim" fill="#404040">
                                <set attributeName="fill" to="#808080" begin="zoomminus.mouseover" end="zoomminus.mouseout"/>
                        </use>
                        <path d="M-4,0h8" fill="none" stroke="white" stroke-width="1.5" pointer-events="none"/>
                </g>
                <g id="dirArrow">
                        <path fill="none" stroke="white" stroke-width="1.5" d="M0,-3.0v7 M-2.5,-0.5L0,-3.0L2.5,-0.5"/>
                </g>
               <g id="resetDef">
                       <use xlink:href="#rim2" fill="#404040">
                               <set attributeName="fill" to="#808080" begin="reset.mouseover" end="reset.mouseout"/>
                       </use>
               </g>
        </defs>

<script type="text/javascript">
var viewWidth = 1732;
var viewHeight = 533;
var sectionId = 'dynsection-0';
</script>
<script xlink:href="svgpan.js"/>
<svg id="graph" class="graph">
<g id="viewport">
<title>schwz::SolverRAS&lt; ValueType, IndexType &gt;</title>
<polygon fill="#ffffff" stroke="transparent" points="-4,4 -4,-528.5 1728,-528.5 1728,4 -4,4"/>
<!-- Node0 -->
<g id="node1" class="node">
<title>Node0</title>
<polygon fill="#bfbfbf" stroke="#000000" points="1566,-102 1566,-132 1724,-132 1724,-102 1566,-102"/>
<text text-anchor="start" x="1574" y="-120" font-family="Helvetica,sans-Serif" font-size="10.00" fill="#000000">schwz::SolverRAS&lt; ValueType,</text>
<text text-anchor="middle" x="1645" y="-109" font-family="Helvetica,sans-Serif" font-size="10.00" fill="#000000"> IndexType &gt;</text>
</g>
<!-- Node1 -->
<g id="node2" class="node">
<title>Node1</title>
<g id="a_node2"><a xlink:href="classschwz_1_1SchwarzBase.html" target="_top" xlink:title="The Base solver class is meant to be the class implementing the common implementations for all the sc...">
<polygon fill="#ffffff" stroke="#000000" points="1396,-102 1396,-132 1529,-132 1529,-102 1396,-102"/>
<text text-anchor="start" x="1404" y="-120" font-family="Helvetica,sans-Serif" font-size="10.00" fill="#000000">schwz::SchwarzBase</text>
<text text-anchor="middle" x="1462.5" y="-109" font-family="Helvetica,sans-Serif" font-size="10.00" fill="#000000">&lt; ValueType, IndexType &gt;</text>
</a>
</g>
</g>
<!-- Node1&#45;&gt;Node0 -->
<g id="edge1" class="edge">
<title>Node1&#45;&gt;Node0</title>
<path fill="none" stroke="#191970" d="M1539.3367,-117C1548.0926,-117 1557.0302,-117 1565.8159,-117"/>
<polygon fill="#191970" stroke="#191970" points="1539.1614,-113.5001 1529.1614,-117 1539.1613,-120.5001 1539.1614,-113.5001"/>
</g>
<!-- Node2 -->
<g id="node3" class="node">
<title>Node2</title>
<g id="a_node3"><a xlink:href="classschwz_1_1Initialize.html" target="_top" xlink:title="The initialization class that provides methods for initialization of the solver. ">
<polygon fill="#ffffff" stroke="#000000" points="1228.5,-296 1228.5,-326 1355.5,-326 1355.5,-296 1228.5,-296"/>
<text text-anchor="start" x="1236.5" y="-314" font-family="Helvetica,sans-Serif" font-size="10.00" fill="#000000">schwz::Initialize&lt;</text>
<text text-anchor="middle" x="1292" y="-303" font-family="Helvetica,sans-Serif" font-size="10.00" fill="#000000"> ValueType, IndexType &gt;</text>
</a>
</g>
</g>
<!-- Node2&#45;&gt;Node1 -->
<g id="edge2" class="edge">
<title>Node2&#45;&gt;Node1</title>
<path fill="none" stroke="#191970" d="M1312.1171,-288.1101C1347.3788,-247.9883 1419.4239,-166.0132 1449.1833,-132.1521"/>
<polygon fill="#191970" stroke="#191970" points="1309.3514,-285.9552 1305.3788,-295.7771 1314.6093,-290.5763 1309.3514,-285.9552"/>
</g>
<!-- Node3 -->
<g id="node4" class="node">
<title>Node3</title>
<g id="a_node4"><a xlink:href="structschwz_1_1Settings.html" target="_top" xlink:title="The struct that contains the solver settings and the parameters to be set by the user. ">
<polygon fill="#ffffff" stroke="#000000" points="937.5,-372.5 937.5,-391.5 1024.5,-391.5 1024.5,-372.5 937.5,-372.5"/>
<text text-anchor="middle" x="981" y="-379.5" font-family="Helvetica,sans-Serif" font-size="10.00" fill="#000000">schwz::Settings</text>
</a>
</g>
</g>
<!-- Node3&#45;&gt;Node2 -->
<g id="edge3" class="edge">
<title>Node3&#45;&gt;Node2</title>
<path fill="none" stroke="#191970" d="M1034.9037,-375.1603C1081.0578,-368.6642 1149.0432,-357.5697 1207,-342 1223.0801,-337.6802 1240.4169,-331.6229 1255.2128,-326.0075"/>
<polygon fill="#191970" stroke="#191970" points="1034.2462,-371.7178 1024.8201,-376.5552 1035.2055,-378.6518 1034.2462,-371.7178"/>
</g>
<!-- Node20 -->
<g id="node20" class="node">
<title>Node20</title>
<g id="a_node20"><a xlink:href="classschwz_1_1Solve.html" target="_top" xlink:title="The Solver class the provides the solver and the convergence checking methods. ">
<polygon fill="#ffffff" stroke="#000000" points="1225,-359 1225,-389 1359,-389 1359,-359 1225,-359"/>
<text text-anchor="start" x="1233" y="-377" font-family="Helvetica,sans-Serif" font-size="10.00" fill="#000000">schwz::Solve&lt; ValueType,</text>
<text text-anchor="middle" x="1292" y="-366" font-family="Helvetica,sans-Serif" font-size="10.00" fill="#000000"> IndexType &gt;</text>
</a>
</g>
</g>
<!-- Node3&#45;&gt;Node20 -->
<g id="edge26" class="edge">
<title>Node3&#45;&gt;Node20</title>
<path fill="none" stroke="#191970" d="M1034.7198,-380.6181C1087.3938,-379.2632 1167.8553,-377.1934 1224.7518,-375.7299"/>
<polygon fill="#191970" stroke="#191970" points="1034.4773,-377.1231 1024.5707,-380.8792 1034.6574,-384.1208 1034.4773,-377.1231"/>
</g>
<!-- Node4 -->
<g id="node5" class="node">
<title>Node4</title>
<g id="a_node5"><a xlink:href="structschwz_1_1Settings_1_1comm__settings.html" target="_top" xlink:title="The settings for the various available communication paradigms. ">
<polygon fill="#ffffff" stroke="#000000" points="617.5,-445 617.5,-475 737.5,-475 737.5,-445 617.5,-445"/>
<text text-anchor="start" x="625.5" y="-463" font-family="Helvetica,sans-Serif" font-size="10.00" fill="#000000">schwz::Settings::comm</text>
<text text-anchor="middle" x="677.5" y="-452" font-family="Helvetica,sans-Serif" font-size="10.00" fill="#000000">_settings</text>
</a>
</g>
</g>
<!-- Node4&#45;&gt;Node3 -->
<g id="edge4" class="edge">
<title>Node4&#45;&gt;Node3</title>
<path fill="none" stroke="#9a32cd" stroke-dasharray="5,2" d="M748.0055,-460.2529C789.6762,-458.5455 842.9351,-453.0876 888,-438 919.6334,-427.4092 951.9817,-404.6931 968.9342,-391.6816"/>
<polygon fill="#9a32cd" stroke="#9a32cd" points="747.8179,-456.7572 737.9454,-460.6021 748.0608,-463.753 747.8179,-456.7572"/>
<text text-anchor="middle" x="832.5" y="-461" font-family="Helvetica,sans-Serif" font-size="10.00" fill="#000000"> comm_settings</text>
</g>
<!-- Node5 -->
<g id="node6" class="node">
<title>Node5</title>
<g id="a_node6"><a xlink:title="STL class. ">
<polygon fill="#ffffff" stroke="#bfbfbf" points="647.5,-360.5 647.5,-379.5 707.5,-379.5 707.5,-360.5 647.5,-360.5"/>
<text text-anchor="middle" x="677.5" y="-367.5" font-family="Helvetica,sans-Serif" font-size="10.00" fill="#000000">std::string</text>
</a>
</g>
</g>
<!-- Node5&#45;&gt;Node3 -->
<g id="edge5" class="edge">
<title>Node5&#45;&gt;Node3</title>
<path fill="none" stroke="#9a32cd" stroke-dasharray="5,2" d="M717.7861,-371.5929C774.7763,-373.8462 878.5281,-377.9484 937.3139,-380.2727"/>
<polygon fill="#9a32cd" stroke="#9a32cd" points="717.8408,-368.0924 707.7103,-371.1945 717.5642,-375.0869 717.8408,-368.0924"/>
<text text-anchor="middle" x="832.5" y="-426" font-family="Helvetica,sans-Serif" font-size="10.00" fill="#000000"> factorization</text>
<text text-anchor="middle" x="832.5" y="-415" font-family="Helvetica,sans-Serif" font-size="10.00" fill="#000000">metis_objtype</text>
<text text-anchor="middle" x="832.5" y="-404" font-family="Helvetica,sans-Serif" font-size="10.00" fill="#000000">matrix_filename</text>
<text text-anchor="middle" x="832.5" y="-393" font-family="Helvetica,sans-Serif" font-size="10.00" fill="#000000">reorder</text>
<text text-anchor="middle" x="832.5" y="-382" font-family="Helvetica,sans-Serif" font-size="10.00" fill="#000000">executor_string</text>
</g>
<!-- Node9 -->
<g id="node9" class="node">
<title>Node9</title>
<g id="a_node9"><a xlink:href="structschwz_1_1Metadata.html" target="_top" xlink:title="The solver metadata struct. ">
<polygon fill="#ffffff" stroke="#000000" points="906,-263 906,-293 1056,-293 1056,-263 906,-263"/>
<text text-anchor="start" x="914" y="-281" font-family="Helvetica,sans-Serif" font-size="10.00" fill="#000000">schwz::Metadata&lt; ValueType,</text>
<text text-anchor="middle" x="981" y="-270" font-family="Helvetica,sans-Serif" font-size="10.00" fill="#000000"> IndexType &gt;</text>
</a>
</g>
</g>
<!-- Node5&#45;&gt;Node9 -->
<g id="edge11" class="edge">
<title>Node5&#45;&gt;Node9</title>
<path fill="none" stroke="#9a32cd" stroke-dasharray="5,2" d="M697.938,-354.4067C717.2525,-340.4925 747.5766,-320.7108 777,-310 800.2441,-301.5386 857.7082,-292.9008 905.7444,-286.7356"/>
<polygon fill="#9a32cd" stroke="#9a32cd" points="695.8627,-351.5882 689.8812,-360.3331 700.0105,-357.227 695.8627,-351.5882"/>
<text text-anchor="middle" x="832.5" y="-313" font-family="Helvetica,sans-Serif" font-size="10.00" fill="#000000"> local_precond</text>
</g>
<!-- Node6 -->
<g id="node7" class="node">
<title>Node6</title>
<polygon fill="#ffffff" stroke="#bfbfbf" points="272.5,-348 272.5,-378 367.5,-378 367.5,-348 272.5,-348"/>
<text text-anchor="start" x="280.5" y="-366" font-family="Helvetica,sans-Serif" font-size="10.00" fill="#000000">std::basic_string&lt;</text>
<text text-anchor="middle" x="320" y="-355" font-family="Helvetica,sans-Serif" font-size="10.00" fill="#000000"> char &gt;</text>
</g>
<!-- Node6&#45;&gt;Node5 -->
<g id="edge6" class="edge">
<title>Node6&#45;&gt;Node5</title>
<path fill="none" stroke="#191970" d="M377.8449,-364.1326C454.7087,-365.6377 587.715,-368.242 647.2107,-369.4069"/>
<polygon fill="#191970" stroke="#191970" points="377.9097,-360.6333 367.8431,-363.9368 377.7726,-367.632 377.9097,-360.6333"/>
</g>
<!-- Node8 -->
<g id="node8" class="node">
<title>Node8</title>
<g id="a_node8"><a xlink:href="structschwz_1_1Settings_1_1convergence__settings.html" target="_top" xlink:title="The various convergence settings available. ">
<polygon fill="#ffffff" stroke="#000000" points="603,-494 603,-524 752,-524 752,-494 603,-494"/>
<text text-anchor="start" x="611" y="-512" font-family="Helvetica,sans-Serif" font-size="10.00" fill="#000000">schwz::Settings::convergence</text>
<text text-anchor="middle" x="677.5" y="-501" font-family="Helvetica,sans-Serif" font-size="10.00" fill="#000000">_settings</text>
</a>
</g>
</g>
<!-- Node8&#45;&gt;Node3 -->
<g id="edge7" class="edge">
<title>Node8&#45;&gt;Node3</title>
<path fill="none" stroke="#9a32cd" stroke-dasharray="5,2" d="M762.0321,-506.1361C802.0113,-501.9479 849.3377,-492.7343 888,-473 927.234,-452.9738 960.6575,-410.6567 974.3582,-391.6269"/>
<polygon fill="#9a32cd" stroke="#9a32cd" points="761.6556,-502.6561 752.0359,-507.096 762.3247,-509.624 761.6556,-502.6561"/>
<text text-anchor="middle" x="832.5" y="-507" font-family="Helvetica,sans-Serif" font-size="10.00" fill="#000000"> convergence_settings</text>
</g>
<!-- Node9&#45;&gt;Node2 -->
<g id="edge8" class="edge">
<title>Node9&#45;&gt;Node2</title>
<path fill="none" stroke="#191970" d="M1066.3497,-287.0564C1117.5772,-292.4921 1181.6557,-299.2914 1228.4256,-304.2542"/>
<polygon fill="#191970" stroke="#191970" points="1066.5979,-283.5632 1056.2844,-285.9884 1065.8593,-290.5241 1066.5979,-283.5632"/>
</g>
<!-- Node10 -->
<g id="node10" class="node">
<title>Node10</title>
<polygon fill="#ffffff" stroke="#bfbfbf" points="402,-244.5 402,-285.5 578,-285.5 578,-244.5 402,-244.5"/>
<text text-anchor="start" x="410" y="-273.5" font-family="Helvetica,sans-Serif" font-size="10.00" fill="#000000">std::vector&lt; std::tuple</text>
<text text-anchor="start" x="410" y="-262.5" font-family="Helvetica,sans-Serif" font-size="10.00" fill="#000000">&lt; int, int, int, std::</text>
<text text-anchor="middle" x="490" y="-251.5" font-family="Helvetica,sans-Serif" font-size="10.00" fill="#000000">string, std::vector&lt; ValueType &gt; &gt; &gt;</text>
</g>
<!-- Node10&#45;&gt;Node9 -->
<g id="edge9" class="edge">
<title>Node10&#45;&gt;Node9</title>
<path fill="none" stroke="#9a32cd" stroke-dasharray="5,2" d="M588.2102,-245.813C590.8301,-245.5127 593.4303,-245.2403 596,-245 725.4873,-232.891 759.3662,-244.8449 888,-264 893.8139,-264.8658 899.8317,-265.7649 905.8812,-266.6708"/>
<polygon fill="#9a32cd" stroke="#9a32cd" points="587.5108,-242.3735 578.0292,-247.1011 588.3895,-249.3182 587.5108,-242.3735"/>
<text text-anchor="middle" x="677.5" y="-248" font-family="Helvetica,sans-Serif" font-size="10.00" fill="#000000"> time_struct</text>
</g>
<!-- Node11 -->
<g id="node11" class="node">
<title>Node11</title>
<g id="a_node11"><a xlink:title="STL class. ">
<polygon fill="#ffffff" stroke="#bfbfbf" points="0,-205.5 0,-224.5 87,-224.5 87,-205.5 0,-205.5"/>
<text text-anchor="middle" x="43.5" y="-212.5" font-family="Helvetica,sans-Serif" font-size="10.00" fill="#000000">std::vector&lt; T &gt;</text>
</a>
</g>
</g>
<!-- Node11&#45;&gt;Node10 -->
<g id="edge10" class="edge">
<title>Node11&#45;&gt;Node10</title>
<path fill="none" stroke="#ffa500" stroke-dasharray="5,2" d="M97.353,-221.0306C172.8691,-229.487 311.1217,-244.9688 401.7839,-255.1214"/>
<polygon fill="#ffa500" stroke="#ffa500" points="97.4527,-217.5199 87.1253,-219.8852 96.6736,-224.4765 97.4527,-217.5199"/>
<text text-anchor="start" x="105" y="-261" font-family="Helvetica,sans-Serif" font-size="10.00" fill="#000000"> &lt; std::tuple&lt; int,</text>
<text text-anchor="start" x="105" y="-250" font-family="Helvetica,sans-Serif" font-size="10.00" fill="#000000"> int, int, std::string,</text>
<text text-anchor="middle" x="171.5" y="-239" font-family="Helvetica,sans-Serif" font-size="10.00" fill="#000000"> std::vector&lt; ValueType &gt; &gt; &gt;</text>
</g>
<!-- Node13 -->
<g id="node13" class="node">
<title>Node13</title>
<polygon fill="#ffffff" stroke="#bfbfbf" points="256,-168.5 256,-187.5 384,-187.5 384,-168.5 256,-168.5"/>
<text text-anchor="middle" x="320" y="-175.5" font-family="Helvetica,sans-Serif" font-size="10.00" fill="#000000">std::vector&lt; ValueType &gt;</text>
</g>
<!-- Node11&#45;&gt;Node13 -->
<g id="edge14" class="edge">
<title>Node11&#45;&gt;Node13</title>
<path fill="none" stroke="#ffa500" stroke-dasharray="5,2" d="M92.1356,-203.377C96.4731,-202.5077 100.8078,-201.6989 105,-201 155.3585,-192.6043 212.8898,-186.6378 255.7603,-182.889"/>
<polygon fill="#ffa500" stroke="#ffa500" points="91.141,-200.0095 82.0749,-205.4919 92.5811,-206.8598 91.141,-200.0095"/>
<text text-anchor="middle" x="171.5" y="-204" font-family="Helvetica,sans-Serif" font-size="10.00" fill="#000000"> &lt; ValueType &gt;</text>
</g>
<!-- Node14 -->
<g id="node14" class="node">
<title>Node14</title>
<polygon fill="#ffffff" stroke="#bfbfbf" points="260.5,-119 260.5,-149 379.5,-149 379.5,-119 260.5,-119"/>
<text text-anchor="start" x="268.5" y="-137" font-family="Helvetica,sans-Serif" font-size="10.00" fill="#000000">std::vector&lt; std::vector</text>
<text text-anchor="middle" x="320" y="-126" font-family="Helvetica,sans-Serif" font-size="10.00" fill="#000000">&lt; ValueType &gt; &gt;</text>
</g>
<!-- Node11&#45;&gt;Node14 -->
<g id="edge16" class="edge">
<title>Node11&#45;&gt;Node14</title>
<path fill="none" stroke="#ffa500" stroke-dasharray="5,2" d="M61.0683,-198.6779C72.6797,-188.8152 88.7143,-176.8624 105,-170 154.873,-148.9847 216.1143,-140.2145 260.4617,-136.5666"/>
<polygon fill="#ffa500" stroke="#ffa500" points="58.6432,-196.1498 53.4547,-205.3873 63.2713,-201.4016 58.6432,-196.1498"/>
<text text-anchor="middle" x="171.5" y="-173" font-family="Helvetica,sans-Serif" font-size="10.00" fill="#000000"> &lt; std::vector&lt; ValueType &gt; &gt;</text>
</g>
<!-- Node15 -->
<g id="node15" class="node">
<title>Node15</title>
<polygon fill="#ffffff" stroke="#bfbfbf" points="429,-291.5 429,-354.5 551,-354.5 551,-291.5 429,-291.5"/>
<text text-anchor="start" x="437" y="-342.5" font-family="Helvetica,sans-Serif" font-size="10.00" fill="#000000">std::vector&lt; std::tuple</text>
<text text-anchor="start" x="437" y="-331.5" font-family="Helvetica,sans-Serif" font-size="10.00" fill="#000000">&lt; int, std::vector&lt; std</text>
<text text-anchor="start" x="437" y="-320.5" font-family="Helvetica,sans-Serif" font-size="10.00" fill="#000000">::tuple&lt; int, int &gt; &gt;, std</text>
<text text-anchor="start" x="437" y="-309.5" font-family="Helvetica,sans-Serif" font-size="10.00" fill="#000000">::vector&lt; std::tuple&lt; int,</text>
<text text-anchor="middle" x="490" y="-298.5" font-family="Helvetica,sans-Serif" font-size="10.00" fill="#000000"> int &gt; &gt;, int, int &gt; &gt;</text>
</g>
<!-- Node11&#45;&gt;Node15 -->
<g id="edge18" class="edge">
<title>Node11&#45;&gt;Node15</title>
<path fill="none" stroke="#ffa500" stroke-dasharray="5,2" d="M57.0781,-232.8353C68.3535,-246.2442 85.6355,-263.8212 105,-273 210.6718,-323.0885 349.9484,-328.2498 428.7421,-326.3745"/>
<polygon fill="#ffa500" stroke="#ffa500" points="59.5714,-230.351 50.5744,-224.7558 54.1185,-234.7403 59.5714,-230.351"/>
<text text-anchor="start" x="118" y="-360" font-family="Helvetica,sans-Serif" font-size="10.00" fill="#000000"> &lt; std::tuple&lt; int,</text>
<text text-anchor="start" x="118" y="-349" font-family="Helvetica,sans-Serif" font-size="10.00" fill="#000000"> std::vector&lt; std::tuple</text>
<text text-anchor="start" x="118" y="-338" font-family="Helvetica,sans-Serif" font-size="10.00" fill="#000000">&lt; int, int &gt; &gt;, std::vector</text>
<text text-anchor="start" x="118" y="-327" font-family="Helvetica,sans-Serif" font-size="10.00" fill="#000000">&lt; std::tuple&lt; int, int &gt; &gt;</text>
<text text-anchor="middle" x="171.5" y="-316" font-family="Helvetica,sans-Serif" font-size="10.00" fill="#000000">, int, int &gt; &gt;</text>
</g>
<!-- Node16 -->
<g id="node16" class="node">
<title>Node16</title>
<polygon fill="#ffffff" stroke="#bfbfbf" points="777,-328 777,-358 888,-358 888,-328 777,-328"/>
<text text-anchor="start" x="785" y="-346" font-family="Helvetica,sans-Serif" font-size="10.00" fill="#000000">std::vector&lt; unsigned</text>
<text text-anchor="middle" x="832.5" y="-335" font-family="Helvetica,sans-Serif" font-size="10.00" fill="#000000"> int &gt;</text>
</g>
<!-- Node11&#45;&gt;Node16 -->
<g id="edge20" class="edge">
<title>Node11&#45;&gt;Node16</title>
<path fill="none" stroke="#ffa500" stroke-dasharray="5,2" d="M44.8881,-234.9468C48.4366,-269.1819 60.9724,-338.6528 105,-372 220.8921,-459.7786 624.6842,-444.6354 759,-389 769.4525,-384.6704 767.8338,-377.6317 777,-371 783.5578,-366.2555 791.0367,-361.8877 798.3342,-358.0831"/>
<polygon fill="#ffa500" stroke="#ffa500" points="48.3577,-234.4462 43.9967,-224.7905 41.3845,-235.0582 48.3577,-234.4462"/>
<text text-anchor="middle" x="320" y="-436" font-family="Helvetica,sans-Serif" font-size="10.00" fill="#000000"> &lt; unsigned int &gt;</text>
</g>
<!-- Node19 -->
<g id="node19" class="node">
<title>Node19</title>
<polygon fill="#ffffff" stroke="#bfbfbf" points="270.5,-60.5 270.5,-79.5 369.5,-79.5 369.5,-60.5 270.5,-60.5"/>
<text text-anchor="middle" x="320" y="-67.5" font-family="Helvetica,sans-Serif" font-size="10.00" fill="#000000">std::vector&lt; bool &gt;</text>
</g>
<!-- Node11&#45;&gt;Node19 -->
<g id="edge24" class="edge">
<title>Node11&#45;&gt;Node19</title>
<path fill="none" stroke="#ffa500" stroke-dasharray="5,2" d="M51.4242,-196.1172C61.0561,-175.4971 79.273,-143.0153 105,-125 154.3914,-90.4137 223.7443,-77.5599 270.194,-72.7928"/>
<polygon fill="#ffa500" stroke="#ffa500" points="48.1499,-194.8665 47.2827,-205.4258 54.5455,-197.7121 48.1499,-194.8665"/>
<text text-anchor="middle" x="171.5" y="-128" font-family="Helvetica,sans-Serif" font-size="10.00" fill="#000000"> &lt; bool &gt;</text>
</g>
<!-- Node12 -->
<g id="node12" class="node">
<title>Node12</title>
<g id="a_node12"><a xlink:href="structschwz_1_1Metadata_1_1post__process__data.html" target="_top" xlink:title="The struct used for storing data for post&#45;processing. ">
<polygon fill="#ffffff" stroke="#000000" points="596,-158 596,-188 759,-188 759,-158 596,-158"/>
<text text-anchor="start" x="604" y="-176" font-family="Helvetica,sans-Serif" font-size="10.00" fill="#000000">schwz::Metadata&lt; ValueType,</text>
<text text-anchor="middle" x="677.5" y="-165" font-family="Helvetica,sans-Serif" font-size="10.00" fill="#000000"> IndexType &gt;::post_process_data</text>
</a>
</g>
</g>
<!-- Node12&#45;&gt;Node9 -->
<g id="edge12" class="edge">
<title>Node12&#45;&gt;Node9</title>
<path fill="none" stroke="#9a32cd" stroke-dasharray="5,2" d="M769.1398,-177.3243C807.1272,-181.6439 850.8945,-189.9981 888,-206 919.3122,-219.5035 949.3481,-246.0289 966.448,-262.8403"/>
<polygon fill="#9a32cd" stroke="#9a32cd" points="769.4165,-173.8341 759.1033,-176.2604 768.6785,-180.7951 769.4165,-173.8341"/>
<text text-anchor="middle" x="832.5" y="-209" font-family="Helvetica,sans-Serif" font-size="10.00" fill="#000000"> post_process_data</text>
</g>
<!-- Node13&#45;&gt;Node1 -->
<g id="edge27" class="edge">
<title>Node13&#45;&gt;Node1</title>
<path fill="none" stroke="#9a32cd" stroke-dasharray="5,2" d="M372.9759,-164.433C376.8516,-162.5518 380.5773,-160.4182 384,-158 394.8896,-150.3062 390.1225,-140.0582 402,-134 490.0652,-89.0816 1176.6523,-107.5615 1395.6292,-114.6832"/>
<polygon fill="#9a32cd" stroke="#9a32cd" points="371.5545,-161.2341 363.7319,-168.3796 374.3031,-167.6719 371.5545,-161.2341"/>
<text text-anchor="middle" x="981" y="-110" font-family="Helvetica,sans-Serif" font-size="10.00" fill="#000000"> local_residual_vector_out</text>
</g>
<!-- Node13&#45;&gt;Node12 -->
<g id="edge13" class="edge">
<title>Node13&#45;&gt;Node12</title>
<path fill="none" stroke="#9a32cd" stroke-dasharray="5,2" d="M394.3866,-169.477C396.9539,-169.2972 399.4975,-169.1369 402,-169 467.0777,-165.4394 540.9228,-166.8019 595.7685,-168.8558"/>
<polygon fill="#9a32cd" stroke="#9a32cd" points="394.0992,-165.9886 384.4031,-170.2589 394.6459,-172.9673 394.0992,-165.9886"/>
<text text-anchor="middle" x="490" y="-227" font-family="Helvetica,sans-Serif" font-size="10.00" fill="#000000"> local_timestamp</text>
<text text-anchor="middle" x="490" y="-216" font-family="Helvetica,sans-Serif" font-size="10.00" fill="#000000">local_converged_resnorm</text>
<text text-anchor="start" x="434" y="-205" font-family="Helvetica,sans-Serif" font-size="10.00" fill="#000000">local_residual_vector</text>
<text text-anchor="middle" x="490" y="-194" font-family="Helvetica,sans-Serif" font-size="10.00" fill="#000000">_out</text>
<text text-anchor="start" x="434" y="-183" font-family="Helvetica,sans-Serif" font-size="10.00" fill="#000000">local_converged_iter</text>
<text text-anchor="middle" x="490" y="-172" font-family="Helvetica,sans-Serif" font-size="10.00" fill="#000000">_count</text>
</g>
<!-- Node14&#45;&gt;Node1 -->
<g id="edge28" class="edge">
<title>Node14&#45;&gt;Node1</title>
<path fill="none" stroke="#9a32cd" stroke-dasharray="5,2" d="M352.0443,-113.8624C366.7176,-105.6378 384.6701,-96.9181 402,-92 520.1679,-58.465 554.6658,-70 677.5,-70 677.5,-70 677.5,-70 1292,-70 1340.9741,-70 1395.1078,-88.2448 1428.9607,-101.9997"/>
<polygon fill="#9a32cd" stroke="#9a32cd" points="350.2711,-110.8447 343.3668,-118.8809 353.7757,-116.9042 350.2711,-110.8447"/>
<text text-anchor="middle" x="981" y="-73" font-family="Helvetica,sans-Serif" font-size="10.00" fill="#000000"> global_residual_vector_out</text>
</g>
<!-- Node14&#45;&gt;Node12 -->
<g id="edge15" class="edge">
<title>Node14&#45;&gt;Node12</title>
<path fill="none" stroke="#9a32cd" stroke-dasharray="5,2" d="M389.8058,-136.2559C441.8697,-138.5715 514.6323,-143.1458 578,-152 589.2778,-153.5758 601.189,-155.6907 612.6984,-157.9729"/>
<polygon fill="#9a32cd" stroke="#9a32cd" points="389.8185,-132.7533 379.6779,-135.8223 389.519,-139.7469 389.8185,-132.7533"/>
<text text-anchor="middle" x="490" y="-155" font-family="Helvetica,sans-Serif" font-size="10.00" fill="#000000"> global_residual_vector_out</text>
</g>
<!-- Node15&#45;&gt;Node9 -->
<g id="edge17" class="edge">
<title>Node15&#45;&gt;Node9</title>
<path fill="none" stroke="#9a32cd" stroke-dasharray="5,2" d="M561.3986,-314.5042C619.4204,-307.7892 703.415,-298.4966 777,-292 819.6117,-288.238 867.307,-284.9157 905.8591,-282.4527"/>
<polygon fill="#9a32cd" stroke="#9a32cd" points="560.7656,-311.0541 551.2363,-315.6847 561.5734,-318.0074 560.7656,-311.0541"/>
<text text-anchor="middle" x="677.5" y="-314" font-family="Helvetica,sans-Serif" font-size="10.00" fill="#000000"> comm_data_struct</text>
</g>
<!-- Node16&#45;&gt;Node2 -->
<g id="edge19" class="edge">
<title>Node16&#45;&gt;Node2</title>
<path fill="none" stroke="#9a32cd" stroke-dasharray="5,2" d="M898.5261,-338.4019C986.625,-332.2666 1141.5742,-321.4758 1228.4168,-315.428"/>
<polygon fill="#9a32cd" stroke="#9a32cd" points="898.117,-334.9218 888.3843,-339.1082 898.6034,-341.9049 898.117,-334.9218"/>
<text text-anchor="middle" x="981" y="-352" font-family="Helvetica,sans-Serif" font-size="10.00" fill="#000000"> cell_weights</text>
<text text-anchor="middle" x="981" y="-341" font-family="Helvetica,sans-Serif" font-size="10.00" fill="#000000">partition_indices</text>
</g>
<!-- Node17 -->
<g id="node17" class="node">
<title>Node17</title>
<g id="a_node17"><a xlink:href="classschwz_1_1Communicate.html" target="_top" xlink:title="The communication class that provides the methods for the communication between the subdomains...">
<polygon fill="#ffffff" stroke="#000000" points="1074,-12 1074,-42 1207,-42 1207,-12 1074,-12"/>
<text text-anchor="start" x="1082" y="-30" font-family="Helvetica,sans-Serif" font-size="10.00" fill="#000000">schwz::Communicate</text>
<text text-anchor="middle" x="1140.5" y="-19" font-family="Helvetica,sans-Serif" font-size="10.00" fill="#000000">&lt; ValueType, IndexType &gt;</text>
</a>
</g>
</g>
<!-- Node17&#45;&gt;Node1 -->
<g id="edge21" class="edge">
<title>Node17&#45;&gt;Node1</title>
<path fill="none" stroke="#191970" d="M1217.4341,-26.7284C1265.1249,-28.8826 1326.8334,-35.9548 1378,-56 1404.7861,-66.4938 1430.8954,-87.4836 1446.8356,-101.8832"/>
<polygon fill="#191970" stroke="#191970" points="1217.3004,-23.2207 1207.1722,-26.3305 1217.0291,-30.2154 1217.3004,-23.2207"/>
</g>
<!-- Node18 -->
<g id="node18" class="node">
<title>Node18</title>
<g id="a_node18"><a xlink:href="structschwz_1_1Communicate_1_1comm__struct.html" target="_top" xlink:title="The communication struct used to store the communication data. ">
<polygon fill="#ffffff" stroke="#000000" points="615.5,-.5 615.5,-41.5 739.5,-41.5 739.5,-.5 615.5,-.5"/>
<text text-anchor="start" x="623.5" y="-29.5" font-family="Helvetica,sans-Serif" font-size="10.00" fill="#000000">schwz::Communicate</text>
<text text-anchor="start" x="623.5" y="-18.5" font-family="Helvetica,sans-Serif" font-size="10.00" fill="#000000">&lt; ValueType, IndexType</text>
<text text-anchor="middle" x="677.5" y="-7.5" font-family="Helvetica,sans-Serif" font-size="10.00" fill="#000000"> &gt;::comm_struct</text>
</a>
</g>
</g>
<!-- Node18&#45;&gt;Node17 -->
<g id="edge22" class="edge">
<title>Node18&#45;&gt;Node17</title>
<path fill="none" stroke="#9a32cd" stroke-dasharray="5,2" d="M750.1959,-21.9421C838.9646,-23.0924 987.8661,-25.022 1073.813,-26.1358"/>
<polygon fill="#9a32cd" stroke="#9a32cd" points="749.9868,-18.4392 739.9422,-21.8092 749.896,-25.4386 749.9868,-18.4392"/>
<text text-anchor="middle" x="832.5" y="-27" font-family="Helvetica,sans-Serif" font-size="10.00" fill="#000000"> comm_struct</text>
</g>
<!-- Node19&#45;&gt;Node18 -->
<g id="edge23" class="edge">
<title>Node19&#45;&gt;Node18</title>
<path fill="none" stroke="#9a32cd" stroke-dasharray="5,2" d="M356.0773,-57.2193C370.2299,-52.6776 386.7153,-47.9619 402,-45 474.4688,-30.9568 559.2639,-25.125 615.4396,-22.7067"/>
<polygon fill="#9a32cd" stroke="#9a32cd" points="354.6339,-54.0099 346.2349,-60.468 356.828,-60.6572 354.6339,-54.0099"/>
<text text-anchor="middle" x="490" y="-48" font-family="Helvetica,sans-Serif" font-size="10.00" fill="#000000"> is_local_neighbor</text>
</g>
<!-- Node20&#45;&gt;Node1 -->
<g id="edge25" class="edge">
<title>Node20&#45;&gt;Node1</title>
<path fill="none" stroke="#191970" d="M1335.661,-353.7351C1344.105,-348.4659 1352.3742,-342.2063 1359,-335 1416.9897,-271.9298 1448.3779,-170.5125 1458.6599,-132.2604"/>
<polygon fill="#191970" stroke="#191970" points="1333.7364,-350.8057 1326.8598,-358.8657 1337.2618,-356.8532 1333.7364,-350.8057"/>
</g>
</g>
</svg>
        <g id="navigator" transform="translate(0 0)" fill="#404254">
                <rect fill="#f2f5e9" fill-opacity="0.5" stroke="#606060" stroke-width=".5" x="0" y="0" width="60" height="60"/>
                <use id="zoomplus" xlink:href="#zoomPlus" x="17" y="9" onmousedown="handleZoom(evt,'in')"/>
                <use id="zoomminus" xlink:href="#zoomMin" x="42" y="9" onmousedown="handleZoom(evt,'out')"/>
                <use id="reset" xlink:href="#resetDef" x="30" y="36" onmousedown="handleReset()"/>
                <g id="arrowUp" xlink:href="#dirArrow" transform="translate(30 24)" onmousedown="handlePan(0,-1)">
                  <use xlink:href="#rim" fill="#404040">
                        <set attributeName="fill" to="#808080" begin="arrowUp.mouseover" end="arrowUp.mouseout"/>
                  </use>
                  <path fill="none" stroke="white" stroke-width="1.5" d="M0,-3.0v7 M-2.5,-0.5L0,-3.0L2.5,-0.5"/>
                </g>
                <g id="arrowRight" xlink:href="#dirArrow" transform="rotate(90) translate(36 -43)" onmousedown="handlePan(1,0)">
                  <use xlink:href="#rim" fill="#404040">
                        <set attributeName="fill" to="#808080" begin="arrowRight.mouseover" end="arrowRight.mouseout"/>
                  </use>
                  <path fill="none" stroke="white" stroke-width="1.5" d="M0,-3.0v7 M-2.5,-0.5L0,-3.0L2.5,-0.5"/>
                </g>
                <g id="arrowDown" xlink:href="#dirArrow" transform="rotate(180) translate(-30 -48)" onmousedown="handlePan(0,1)">
                  <use xlink:href="#rim" fill="#404040">
                        <set attributeName="fill" to="#808080" begin="arrowDown.mouseover" end="arrowDown.mouseout"/>
                  </use>
                  <path fill="none" stroke="white" stroke-width="1.5" d="M0,-3.0v7 M-2.5,-0.5L0,-3.0L2.5,-0.5"/>
                </g>
                <g id="arrowLeft" xlink:href="#dirArrow" transform="rotate(270) translate(-36 17)" onmousedown="handlePan(-1,0)">
                  <use xlink:href="#rim" fill="#404040">
                        <set attributeName="fill" to="#808080" begin="arrowLeft.mouseover" end="arrowLeft.mouseout"/>
                  </use>
                  <path fill="none" stroke="white" stroke-width="1.5" d="M0,-3.0v7 M-2.5,-0.5L0,-3.0L2.5,-0.5"/>
                </g>
        </g>
        <svg viewBox="0 0 15 15" width="100%" height="30px" preserveAspectRatio="xMaxYMin meet">
         <g id="arrow_out" transform="scale(0.3 0.3)">
          <a xlink:href="classschwz_1_1SolverRAS__coll__graph_org.svg" target="_base">
           <rect id="button" ry="5" rx="5" y="6" x="6" height="38" width="38"
                fill="#f2f5e9" fill-opacity="0.5" stroke="#606060" stroke-width="1.0"/>
           <path id="arrow"
             d="M 11.500037,31.436501 C 11.940474,20.09759 22.043105,11.32322 32.158766,21.979434 L 37.068811,17.246167 C 37.068811,17.246167 37.088388,32 37.088388,32 L 22.160133,31.978069 C 22.160133,31.978069 26.997745,27.140456 26.997745,27.140456 C 18.528582,18.264221 13.291696,25.230495 11.500037,31.436501 z"
             style="fill:#404040;"/>
          </a>
         </g>
        </svg>
</svg>
