<?xml version="1.0" encoding="UTF-8" standalone="no"?>
<!DOCTYPE svg PUBLIC "-//W3C//DTD SVG 1.1//EN"
 "http://www.w3.org/Graphics/SVG/1.1/DTD/svg11.dtd">
<!-- Generated by graphviz version 2.40.1 (20161225.0304)
 -->
<!-- Title: schwz::SchwarzBase&lt; ValueType, IndexType &gt; Pages: 1 -->
<!--zoomable 568 -->
<svg id="main" version="1.1" xmlns="http://www.w3.org/2000/svg" xmlns:xlink="http://www.w3.org/1999/xlink" xml:space="preserve" onload="init(evt)">
<style type="text/css"><![CDATA[
.edge:hover path { stroke: red; }
.edge:hover polygon { stroke: red; fill: red; }
]]></style>
<script type="text/javascript"><![CDATA[
var edges = document.getElementsByTagName('g');
if (edges && edges.length) {
  for (var i=0;i<edges.length;i++) {
    if (edges[i].id.substr(0,4)=='edge') {
      edges[i].setAttribute('class','edge');
    }
  }
}
]]></script>
        <defs>
                <circle id="rim" cx="0" cy="0" r="7"/>
                <circle id="rim2" cx="0" cy="0" r="3.5"/>
                <g id="zoomPlus">
                        <use xlink:href="#rim" fill="#404040">
                                <set attributeName="fill" to="#808080" begin="zoomplus.mouseover" end="zoomplus.mouseout"/>
                        </use>
                        <path d="M-4,0h8M0,-4v8" fill="none" stroke="white" stroke-width="1.5" pointer-events="none"/>
                </g>
                <g id="zoomMin">
                        <use xlink:href="#rim" fill="#404040">
                                <set attributeName="fill" to="#808080" begin="zoomminus.mouseover" end="zoomminus.mouseout"/>
                        </use>
                        <path d="M-4,0h8" fill="none" stroke="white" stroke-width="1.5" pointer-events="none"/>
                </g>
                <g id="dirArrow">
                        <path fill="none" stroke="white" stroke-width="1.5" d="M0,-3.0v7 M-2.5,-0.5L0,-3.0L2.5,-0.5"/>
                </g>
               <g id="resetDef">
                       <use xlink:href="#rim2" fill="#404040">
                               <set attributeName="fill" to="#808080" begin="reset.mouseover" end="reset.mouseout"/>
                       </use>
               </g>
        </defs>

<script type="text/javascript">
var viewWidth = 1545;
var viewHeight = 568;
var sectionId = 'dynsection-0';
</script>
<script xlink:href="svgpan.js"/>
<svg id="graph" class="graph">
<g id="viewport">
<title>schwz::SchwarzBase&lt; ValueType, IndexType &gt;</title>
<polygon fill="#ffffff" stroke="transparent" points="-4,4 -4,-563.5 1541,-563.5 1541,4 -4,4"/>
<!-- Node0 -->
<g id="node1" class="node">
<title>Node0</title>
<polygon fill="#bfbfbf" stroke="#000000" points="1404,-360.5 1404,-390.5 1537,-390.5 1537,-360.5 1404,-360.5"/>
<text text-anchor="start" x="1412" y="-378.5" font-family="Helvetica,sans-Serif" font-size="10.00" fill="#000000">schwz::SchwarzBase</text>
<text text-anchor="middle" x="1470.5" y="-367.5" font-family="Helvetica,sans-Serif" font-size="10.00" fill="#000000">&lt; ValueType, IndexType &gt;</text>
</g>
<!-- Node1 -->
<g id="node2" class="node">
<title>Node1</title>
<g id="a_node2"><a xlink:href="classschwz_1_1Initialize.html" target="_top" xlink:title="The initialization class that provides methods for initialization of the solver. ">
<polygon fill="#ffffff" stroke="#000000" points="1236.5,-213.5 1236.5,-243.5 1363.5,-243.5 1363.5,-213.5 1236.5,-213.5"/>
<text text-anchor="start" x="1244.5" y="-231.5" font-family="Helvetica,sans-Serif" font-size="10.00" fill="#000000">schwz::Initialize&lt;</text>
<text text-anchor="middle" x="1300" y="-220.5" font-family="Helvetica,sans-Serif" font-size="10.00" fill="#000000"> ValueType, IndexType &gt;</text>
</a>
</g>
</g>
<!-- Node1&#45;&gt;Node0 -->
<g id="edge1" class="edge">
<title>Node1&#45;&gt;Node0</title>
<path fill="none" stroke="#191970" d="M1325.482,-250.4698C1360.5386,-280.6946 1422.733,-334.3167 1452.9915,-360.4047"/>
<polygon fill="#191970" stroke="#191970" points="1327.4635,-247.557 1317.6043,-243.6779 1322.8926,-252.8586 1327.4635,-247.557"/>
</g>
<!-- Node2 -->
<g id="node3" class="node">
<title>Node2</title>
<g id="a_node3"><a xlink:href="structschwz_1_1Settings.html" target="_top" xlink:title="The struct that contains the solver settings and the parameters to be set by the user. ">
<polygon fill="#ffffff" stroke="#000000" points="945.5,-89 945.5,-108 1032.5,-108 1032.5,-89 945.5,-89"/>
<text text-anchor="middle" x="989" y="-96" font-family="Helvetica,sans-Serif" font-size="10.00" fill="#000000">schwz::Settings</text>
</a>
</g>
</g>
<!-- Node2&#45;&gt;Node1 -->
<g id="edge2" class="edge">
<title>Node2&#45;&gt;Node1</title>
<path fill="none" stroke="#191970" d="M1015.4899,-112.912C1033.8895,-122.6674 1059.1165,-135.5415 1082,-145.5 1139.7625,-170.6373 1156.1941,-171.9111 1215,-194.5 1230.727,-200.5412 1248.0031,-207.4087 1262.8491,-213.3825"/>
<polygon fill="#191970" stroke="#191970" points="1017.0081,-109.7549 1006.5391,-108.1268 1013.7078,-115.9281 1017.0081,-109.7549"/>
</g>
<!-- Node19 -->
<g id="node20" class="node">
<title>Node19</title>
<g id="a_node20"><a xlink:href="classschwz_1_1Solve.html" target="_top" xlink:title="The Solver class the provides the solver and the convergence checking methods. ">
<polygon fill="#ffffff" stroke="#000000" points="1233,-149.5 1233,-179.5 1367,-179.5 1367,-149.5 1233,-149.5"/>
<text text-anchor="start" x="1241" y="-167.5" font-family="Helvetica,sans-Serif" font-size="10.00" fill="#000000">schwz::Solve&lt; ValueType,</text>
<text text-anchor="middle" x="1300" y="-156.5" font-family="Helvetica,sans-Serif" font-size="10.00" fill="#000000"> IndexType &gt;</text>
</a>
</g>
</g>
<!-- Node2&#45;&gt;Node19 -->
<g id="edge26" class="edge">
<title>Node2&#45;&gt;Node19</title>
<path fill="none" stroke="#191970" d="M1042.3909,-109.8306C1095.0585,-121.0076 1175.7368,-138.129 1232.7518,-150.2287"/>
<polygon fill="#191970" stroke="#191970" points="1043.0794,-106.3988 1032.5707,-107.7465 1041.6262,-113.2463 1043.0794,-106.3988"/>
</g>
<!-- Node3 -->
<g id="node4" class="node">
<title>Node3</title>
<g id="a_node4"><a xlink:href="structschwz_1_1Settings_1_1comm__settings.html" target="_top" xlink:title="The settings for the various available communication paradigms. ">
<polygon fill="#ffffff" stroke="#000000" points="625.5,-49.5 625.5,-79.5 745.5,-79.5 745.5,-49.5 625.5,-49.5"/>
<text text-anchor="start" x="633.5" y="-67.5" font-family="Helvetica,sans-Serif" font-size="10.00" fill="#000000">schwz::Settings::comm</text>
<text text-anchor="middle" x="685.5" y="-56.5" font-family="Helvetica,sans-Serif" font-size="10.00" fill="#000000">_settings</text>
</a>
</g>
</g>
<!-- Node3&#45;&gt;Node2 -->
<g id="edge3" class="edge">
<title>Node3&#45;&gt;Node2</title>
<path fill="none" stroke="#9a32cd" stroke-dasharray="5,2" d="M755.7937,-66.618C796.8312,-68.4913 849.5208,-71.9918 896,-78.5 914.1545,-81.0421 934.05,-85.1397 950.7636,-88.9661"/>
<polygon fill="#9a32cd" stroke="#9a32cd" points="755.7649,-63.1136 745.6224,-66.176 755.461,-70.107 755.7649,-63.1136"/>
<text text-anchor="middle" x="840.5" y="-81.5" font-family="Helvetica,sans-Serif" font-size="10.00" fill="#000000"> comm_settings</text>
</g>
<!-- Node4 -->
<g id="node5" class="node">
<title>Node4</title>
<g id="a_node5"><a xlink:title="STL class. ">
<polygon fill="#ffffff" stroke="#bfbfbf" points="655.5,-116 655.5,-135 715.5,-135 715.5,-116 655.5,-116"/>
<text text-anchor="middle" x="685.5" y="-123" font-family="Helvetica,sans-Serif" font-size="10.00" fill="#000000">std::string</text>
</a>
</g>
</g>
<!-- Node4&#45;&gt;Node2 -->
<g id="edge4" class="edge">
<title>Node4&#45;&gt;Node2</title>
<path fill="none" stroke="#9a32cd" stroke-dasharray="5,2" d="M723.9932,-113.0349C742.2662,-107.7414 764.5363,-102.1805 785,-99.5 839.9583,-92.3011 903.9608,-93.5303 945.4104,-95.5732"/>
<polygon fill="#9a32cd" stroke="#9a32cd" points="722.8726,-109.7167 714.2897,-115.9282 724.8729,-116.4248 722.8726,-109.7167"/>
<text text-anchor="middle" x="840.5" y="-146.5" font-family="Helvetica,sans-Serif" font-size="10.00" fill="#000000"> factorization</text>
<text text-anchor="middle" x="840.5" y="-135.5" font-family="Helvetica,sans-Serif" font-size="10.00" fill="#000000">metis_objtype</text>
<text text-anchor="middle" x="840.5" y="-124.5" font-family="Helvetica,sans-Serif" font-size="10.00" fill="#000000">matrix_filename</text>
<text text-anchor="middle" x="840.5" y="-113.5" font-family="Helvetica,sans-Serif" font-size="10.00" fill="#000000">reorder</text>
<text text-anchor="middle" x="840.5" y="-102.5" font-family="Helvetica,sans-Serif" font-size="10.00" fill="#000000">executor_string</text>
</g>
<!-- Node8 -->
<g id="node9" class="node">
<title>Node8</title>
<g id="a_node9"><a xlink:href="structschwz_1_1Metadata.html" target="_top" xlink:title="The solver metadata struct. ">
<polygon fill="#ffffff" stroke="#000000" points="914,-249.5 914,-279.5 1064,-279.5 1064,-249.5 914,-249.5"/>
<text text-anchor="start" x="922" y="-267.5" font-family="Helvetica,sans-Serif" font-size="10.00" fill="#000000">schwz::Metadata&lt; ValueType,</text>
<text text-anchor="middle" x="989" y="-256.5" font-family="Helvetica,sans-Serif" font-size="10.00" fill="#000000"> IndexType &gt;</text>
</a>
</g>
</g>
<!-- Node4&#45;&gt;Node8 -->
<g id="edge11" class="edge">
<title>Node4&#45;&gt;Node8</title>
<path fill="none" stroke="#9a32cd" stroke-dasharray="5,2" d="M725.0127,-137.9691C743.1763,-143.4546 765.0695,-149.722 785,-154.5 833.825,-166.2049 858.6138,-141.9865 896,-175.5 916.4141,-193.7995 895.4494,-214.3139 914,-234.5 919.5987,-240.5923 926.6004,-245.4698 934.061,-249.369"/>
<polygon fill="#9a32cd" stroke="#9a32cd" points="725.9279,-134.5891 715.3417,-135.0165 723.8839,-141.284 725.9279,-134.5891"/>
<text text-anchor="middle" x="840.5" y="-178.5" font-family="Helvetica,sans-Serif" font-size="10.00" fill="#000000"> local_precond</text>
</g>
<!-- Node5 -->
<g id="node6" class="node">
<title>Node5</title>
<polygon fill="#ffffff" stroke="#bfbfbf" points="280.5,-110.5 280.5,-140.5 375.5,-140.5 375.5,-110.5 280.5,-110.5"/>
<text text-anchor="start" x="288.5" y="-128.5" font-family="Helvetica,sans-Serif" font-size="10.00" fill="#000000">std::basic_string&lt;</text>
<text text-anchor="middle" x="328" y="-117.5" font-family="Helvetica,sans-Serif" font-size="10.00" fill="#000000"> char &gt;</text>
</g>
<!-- Node5&#45;&gt;Node4 -->
<g id="edge5" class="edge">
<title>Node5&#45;&gt;Node4</title>
<path fill="none" stroke="#191970" d="M385.8449,-125.5C462.7087,-125.5 595.715,-125.5 655.2107,-125.5"/>
<polygon fill="#191970" stroke="#191970" points="385.8431,-122.0001 375.8431,-125.5 385.8431,-129.0001 385.8431,-122.0001"/>
</g>
<!-- Node6 -->
<g id="node7" class="node">
<title>Node6</title>
<g id="a_node7"><a xlink:title="STL class. ">
<polygon fill="#ffffff" stroke="#bfbfbf" points="0,-110.5 0,-140.5 95,-140.5 95,-110.5 0,-110.5"/>
<text text-anchor="start" x="8" y="-128.5" font-family="Helvetica,sans-Serif" font-size="10.00" fill="#000000">std::basic_string&lt;</text>
<text text-anchor="middle" x="47.5" y="-117.5" font-family="Helvetica,sans-Serif" font-size="10.00" fill="#000000"> Char &gt;</text>
</a>
</g>
</g>
<!-- Node6&#45;&gt;Node5 -->
<g id="edge6" class="edge">
<title>Node6&#45;&gt;Node5</title>
<path fill="none" stroke="#ffa500" stroke-dasharray="5,2" d="M105.0943,-125.5C156.7767,-125.5 231.7415,-125.5 280.1836,-125.5"/>
<polygon fill="#ffa500" stroke="#ffa500" points="105.083,-122.0001 95.083,-125.5 105.083,-129.0001 105.083,-122.0001"/>
<text text-anchor="middle" x="179.5" y="-128.5" font-family="Helvetica,sans-Serif" font-size="10.00" fill="#000000"> &lt; char &gt;</text>
</g>
<!-- Node7 -->
<g id="node8" class="node">
<title>Node7</title>
<g id="a_node8"><a xlink:href="structschwz_1_1Settings_1_1convergence__settings.html" target="_top" xlink:title="The various convergence settings available. ">
<polygon fill="#ffffff" stroke="#000000" points="611,-.5 611,-30.5 760,-30.5 760,-.5 611,-.5"/>
<text text-anchor="start" x="619" y="-18.5" font-family="Helvetica,sans-Serif" font-size="10.00" fill="#000000">schwz::Settings::convergence</text>
<text text-anchor="middle" x="685.5" y="-7.5" font-family="Helvetica,sans-Serif" font-size="10.00" fill="#000000">_settings</text>
</a>
</g>
</g>
<!-- Node7&#45;&gt;Node2 -->
<g id="edge7" class="edge">
<title>Node7&#45;&gt;Node2</title>
<path fill="none" stroke="#9a32cd" stroke-dasharray="5,2" d="M770.5524,-24.8217C809.4313,-30.5056 855.7018,-39.2946 896,-52.5 924.4147,-61.8113 955.0829,-78.3887 973.1346,-88.8938"/>
<polygon fill="#9a32cd" stroke="#9a32cd" points="770.7083,-21.3089 760.3162,-23.3714 769.7263,-28.2397 770.7083,-21.3089"/>
<text text-anchor="middle" x="840.5" y="-55.5" font-family="Helvetica,sans-Serif" font-size="10.00" fill="#000000"> convergence_settings</text>
</g>
<!-- Node8&#45;&gt;Node1 -->
<g id="edge8" class="edge">
<title>Node8&#45;&gt;Node1</title>
<path fill="none" stroke="#191970" d="M1074.3497,-254.6203C1125.5772,-248.6904 1189.6557,-241.273 1236.4256,-235.8591"/>
<polygon fill="#191970" stroke="#191970" points="1073.8156,-251.1587 1064.2844,-255.7854 1074.6206,-258.1122 1073.8156,-251.1587"/>
</g>
<!-- Node9 -->
<g id="node10" class="node">
<title>Node9</title>
<polygon fill="#ffffff" stroke="#bfbfbf" points="410,-216 410,-257 586,-257 586,-216 410,-216"/>
<text text-anchor="start" x="418" y="-245" font-family="Helvetica,sans-Serif" font-size="10.00" fill="#000000">std::vector&lt; std::tuple</text>
<text text-anchor="start" x="418" y="-234" font-family="Helvetica,sans-Serif" font-size="10.00" fill="#000000">&lt; int, int, int, std::</text>
<text text-anchor="middle" x="498" y="-223" font-family="Helvetica,sans-Serif" font-size="10.00" fill="#000000">string, std::vector&lt; ValueType &gt; &gt; &gt;</text>
</g>
<!-- Node9&#45;&gt;Node8 -->
<g id="edge9" class="edge">
<title>Node9&#45;&gt;Node8</title>
<path fill="none" stroke="#9a32cd" stroke-dasharray="5,2" d="M596.1855,-240.7925C647.1562,-243.1355 710.4399,-246.2228 767,-249.5 815.881,-252.3323 870.7796,-256.037 913.7543,-259.056"/>
<polygon fill="#9a32cd" stroke="#9a32cd" points="596.3107,-237.2946 586.1612,-240.334 595.9908,-244.2873 596.3107,-237.2946"/>
<text text-anchor="middle" x="685.5" y="-252.5" font-family="Helvetica,sans-Serif" font-size="10.00" fill="#000000"> time_struct</text>
</g>
<!-- Node10 -->
<g id="node11" class="node">
<title>Node10</title>
<g id="a_node11"><a xlink:title="STL class. ">
<polygon fill="#ffffff" stroke="#bfbfbf" points="4,-301 4,-320 91,-320 91,-301 4,-301"/>
<text text-anchor="middle" x="47.5" y="-308" font-family="Helvetica,sans-Serif" font-size="10.00" fill="#000000">std::vector&lt; T &gt;</text>
</a>
</g>
</g>
<!-- Node10&#45;&gt;Node9 -->
<g id="edge10" class="edge">
<title>Node10&#45;&gt;Node9</title>
<path fill="none" stroke="#ffa500" stroke-dasharray="5,2" d="M60.165,-292.3914C71.9054,-277.2866 90.8648,-256.7871 113,-247.5 208.4194,-207.4658 329.1614,-211.8128 409.7441,-221.5137"/>
<polygon fill="#ffa500" stroke="#ffa500" points="57.269,-290.4207 54.1172,-300.5359 62.889,-294.5939 57.269,-290.4207"/>
<text text-anchor="start" x="113" y="-272.5" font-family="Helvetica,sans-Serif" font-size="10.00" fill="#000000"> &lt; std::tuple&lt; int,</text>
<text text-anchor="start" x="113" y="-261.5" font-family="Helvetica,sans-Serif" font-size="10.00" fill="#000000"> int, int, std::string,</text>
<text text-anchor="middle" x="179.5" y="-250.5" font-family="Helvetica,sans-Serif" font-size="10.00" fill="#000000"> std::vector&lt; ValueType &gt; &gt; &gt;</text>
</g>
<!-- Node12 -->
<g id="node13" class="node">
<title>Node12</title>
<polygon fill="#ffffff" stroke="#bfbfbf" points="264,-399 264,-418 392,-418 392,-399 264,-399"/>
<text text-anchor="middle" x="328" y="-406" font-family="Helvetica,sans-Serif" font-size="10.00" fill="#000000">std::vector&lt; ValueType &gt;</text>
</g>
<!-- Node10&#45;&gt;Node12 -->
<g id="edge14" class="edge">
<title>Node10&#45;&gt;Node12</title>
<path fill="none" stroke="#ffa500" stroke-dasharray="5,2" d="M57.9841,-329.0221C69.1402,-346.8015 88.544,-372.776 113,-385.5 159.4559,-409.6702 219.1242,-414.3282 263.8108,-413.5623"/>
<polygon fill="#ffa500" stroke="#ffa500" points="60.7958,-326.9047 52.6551,-320.1239 54.7904,-330.5013 60.7958,-326.9047"/>
<text text-anchor="middle" x="179.5" y="-415.5" font-family="Helvetica,sans-Serif" font-size="10.00" fill="#000000"> &lt; ValueType &gt;</text>
</g>
<!-- Node13 -->
<g id="node14" class="node">
<title>Node13</title>
<polygon fill="#ffffff" stroke="#bfbfbf" points="268.5,-269.5 268.5,-299.5 387.5,-299.5 387.5,-269.5 268.5,-269.5"/>
<text text-anchor="start" x="276.5" y="-287.5" font-family="Helvetica,sans-Serif" font-size="10.00" fill="#000000">std::vector&lt; std::vector</text>
<text text-anchor="middle" x="328" y="-276.5" font-family="Helvetica,sans-Serif" font-size="10.00" fill="#000000">&lt; ValueType &gt; &gt;</text>
</g>
<!-- Node10&#45;&gt;Node13 -->
<g id="edge16" class="edge">
<title>Node10&#45;&gt;Node13</title>
<path fill="none" stroke="#ffa500" stroke-dasharray="5,2" d="M93.8984,-298.8272C100.284,-297.5281 106.7821,-296.3643 113,-295.5 165.1972,-288.2442 225.1183,-285.6442 268.4204,-284.7724"/>
<polygon fill="#ffa500" stroke="#ffa500" points="93.0515,-295.4292 84.0127,-300.9565 94.5255,-302.2723 93.0515,-295.4292"/>
<text text-anchor="middle" x="179.5" y="-298.5" font-family="Helvetica,sans-Serif" font-size="10.00" fill="#000000"> &lt; std::vector&lt; ValueType &gt; &gt;</text>
</g>
<!-- Node14 -->
<g id="node15" class="node">
<title>Node14</title>
<polygon fill="#ffffff" stroke="#bfbfbf" points="437,-297 437,-360 559,-360 559,-297 437,-297"/>
<text text-anchor="start" x="445" y="-348" font-family="Helvetica,sans-Serif" font-size="10.00" fill="#000000">std::vector&lt; std::tuple</text>
<text text-anchor="start" x="445" y="-337" font-family="Helvetica,sans-Serif" font-size="10.00" fill="#000000">&lt; int, std::vector&lt; std</text>
<text text-anchor="start" x="445" y="-326" font-family="Helvetica,sans-Serif" font-size="10.00" fill="#000000">::tuple&lt; int, int &gt; &gt;, std</text>
<text text-anchor="start" x="445" y="-315" font-family="Helvetica,sans-Serif" font-size="10.00" fill="#000000">::vector&lt; std::tuple&lt; int,</text>
<text text-anchor="middle" x="498" y="-304" font-family="Helvetica,sans-Serif" font-size="10.00" fill="#000000"> int &gt; &gt;, int, int &gt; &gt;</text>
</g>
<!-- Node10&#45;&gt;Node14 -->
<g id="edge18" class="edge">
<title>Node10&#45;&gt;Node14</title>
<path fill="none" stroke="#ffa500" stroke-dasharray="5,2" d="M101.2316,-312.6469C185.5249,-316.0149 348.3437,-322.5204 436.9475,-326.0606"/>
<polygon fill="#ffa500" stroke="#ffa500" points="101.237,-309.1444 91.1052,-312.2423 100.9574,-316.1388 101.237,-309.1444"/>
<text text-anchor="start" x="126" y="-364.5" font-family="Helvetica,sans-Serif" font-size="10.00" fill="#000000"> &lt; std::tuple&lt; int,</text>
<text text-anchor="start" x="126" y="-353.5" font-family="Helvetica,sans-Serif" font-size="10.00" fill="#000000"> std::vector&lt; std::tuple</text>
<text text-anchor="start" x="126" y="-342.5" font-family="Helvetica,sans-Serif" font-size="10.00" fill="#000000">&lt; int, int &gt; &gt;, std::vector</text>
<text text-anchor="start" x="126" y="-331.5" font-family="Helvetica,sans-Serif" font-size="10.00" fill="#000000">&lt; std::tuple&lt; int, int &gt; &gt;</text>
<text text-anchor="middle" x="179.5" y="-320.5" font-family="Helvetica,sans-Serif" font-size="10.00" fill="#000000">, int, int &gt; &gt;</text>
</g>
<!-- Node15 -->
<g id="node16" class="node">
<title>Node15</title>
<polygon fill="#ffffff" stroke="#bfbfbf" points="785,-193.5 785,-223.5 896,-223.5 896,-193.5 785,-193.5"/>
<text text-anchor="start" x="793" y="-211.5" font-family="Helvetica,sans-Serif" font-size="10.00" fill="#000000">std::vector&lt; unsigned</text>
<text text-anchor="middle" x="840.5" y="-200.5" font-family="Helvetica,sans-Serif" font-size="10.00" fill="#000000"> int &gt;</text>
</g>
<!-- Node10&#45;&gt;Node15 -->
<g id="edge20" class="edge">
<title>Node10&#45;&gt;Node15</title>
<path fill="none" stroke="#ffa500" stroke-dasharray="5,2" d="M54.289,-291.4351C63.6123,-268.3593 82.7498,-230.3768 113,-212.5 225.9493,-145.751 634.6865,-184.7045 784.7489,-201.7593"/>
<polygon fill="#ffa500" stroke="#ffa500" points="50.9867,-290.272 50.6913,-300.8627 57.5267,-292.7678 50.9867,-290.272"/>
<text text-anchor="middle" x="328" y="-180.5" font-family="Helvetica,sans-Serif" font-size="10.00" fill="#000000"> &lt; unsigned int &gt;</text>
</g>
<!-- Node18 -->
<g id="node19" class="node">
<title>Node18</title>
<polygon fill="#ffffff" stroke="#bfbfbf" points="278.5,-483 278.5,-502 377.5,-502 377.5,-483 278.5,-483"/>
<text text-anchor="middle" x="328" y="-490" font-family="Helvetica,sans-Serif" font-size="10.00" fill="#000000">std::vector&lt; bool &gt;</text>
</g>
<!-- Node10&#45;&gt;Node18 -->
<g id="edge24" class="edge">
<title>Node10&#45;&gt;Node18</title>
<path fill="none" stroke="#ffa500" stroke-dasharray="5,2" d="M53.3544,-330.1721C62.1088,-356.2222 81.088,-401.8512 113,-427.5 160.8713,-465.9758 231.2188,-481.7117 278.2664,-488.1248"/>
<polygon fill="#ffa500" stroke="#ffa500" points="56.5877,-328.7901 50.2207,-320.3218 49.9171,-330.9123 56.5877,-328.7901"/>
<text text-anchor="middle" x="179.5" y="-484.5" font-family="Helvetica,sans-Serif" font-size="10.00" fill="#000000"> &lt; bool &gt;</text>
</g>
<!-- Node11 -->
<g id="node12" class="node">
<title>Node11</title>
<g id="a_node12"><a xlink:href="structschwz_1_1Metadata_1_1post__process__data.html" target="_top" xlink:title="The struct used for storing data for post&#45;processing. ">
<polygon fill="#ffffff" stroke="#000000" points="604,-269.5 604,-299.5 767,-299.5 767,-269.5 604,-269.5"/>
<text text-anchor="start" x="612" y="-287.5" font-family="Helvetica,sans-Serif" font-size="10.00" fill="#000000">schwz::Metadata&lt; ValueType,</text>
<text text-anchor="middle" x="685.5" y="-276.5" font-family="Helvetica,sans-Serif" font-size="10.00" fill="#000000"> IndexType &gt;::post_process_data</text>
</a>
</g>
</g>
<!-- Node11&#45;&gt;Node8 -->
<g id="edge12" class="edge">
<title>Node11&#45;&gt;Node8</title>
<path fill="none" stroke="#9a32cd" stroke-dasharray="5,2" d="M777.2891,-278.4513C820.9801,-275.5722 872.5733,-272.1723 913.8892,-269.4496"/>
<polygon fill="#9a32cd" stroke="#9a32cd" points="776.9799,-274.964 767.2317,-279.1141 777.4402,-281.9488 776.9799,-274.964"/>
<text text-anchor="middle" x="840.5" y="-279.5" font-family="Helvetica,sans-Serif" font-size="10.00" fill="#000000"> post_process_data</text>
</g>
<!-- Node12&#45;&gt;Node0 -->
<g id="edge27" class="edge">
<title>Node12&#45;&gt;Node0</title>
<path fill="none" stroke="#9a32cd" stroke-dasharray="5,2" d="M343.3758,-425.9644C358.5367,-441.8232 383.2631,-464.251 410,-474.5 524.5016,-518.3915 562.8742,-489.5 685.5,-489.5 685.5,-489.5 685.5,-489.5 1300,-489.5 1370.1472,-489.5 1433.2999,-421.9917 1458.6834,-390.8745"/>
<polygon fill="#9a32cd" stroke="#9a32cd" points="345.7162,-423.3399 336.3597,-418.3694 340.5744,-428.0898 345.7162,-423.3399"/>
<text text-anchor="middle" x="989" y="-492.5" font-family="Helvetica,sans-Serif" font-size="10.00" fill="#000000"> local_residual_vector_out</text>
</g>
<!-- Node12&#45;&gt;Node11 -->
<g id="edge13" class="edge">
<title>Node12&#45;&gt;Node11</title>
<path fill="none" stroke="#9a32cd" stroke-dasharray="5,2" d="M402.1038,-405.7975C468.3072,-401.8992 558.9045,-392.4275 586,-369.5 605.6343,-352.886 586.1472,-333.0151 604,-314.5 609.8607,-308.4219 617.0572,-303.5674 624.7247,-299.6921"/>
<polygon fill="#9a32cd" stroke="#9a32cd" points="401.9024,-402.3032 392.113,-406.3549 402.2924,-409.2923 401.9024,-402.3032"/>
<text text-anchor="middle" x="498" y="-462.5" font-family="Helvetica,sans-Serif" font-size="10.00" fill="#000000"> local_timestamp</text>
<text text-anchor="middle" x="498" y="-451.5" font-family="Helvetica,sans-Serif" font-size="10.00" fill="#000000">local_converged_resnorm</text>
<text text-anchor="start" x="442" y="-440.5" font-family="Helvetica,sans-Serif" font-size="10.00" fill="#000000">local_residual_vector</text>
<text text-anchor="middle" x="498" y="-429.5" font-family="Helvetica,sans-Serif" font-size="10.00" fill="#000000">_out</text>
<text text-anchor="start" x="442" y="-418.5" font-family="Helvetica,sans-Serif" font-size="10.00" fill="#000000">local_converged_iter</text>
<text text-anchor="middle" x="498" y="-407.5" font-family="Helvetica,sans-Serif" font-size="10.00" fill="#000000">_count</text>
</g>
<!-- Node13&#45;&gt;Node0 -->
<g id="edge28" class="edge">
<title>Node13&#45;&gt;Node0</title>
<path fill="none" stroke="#9a32cd" stroke-dasharray="5,2" d="M344.9219,-307.5811C359.7912,-325.8394 383.198,-350.0934 410,-361.5 522.811,-409.5109 562.8976,-375.5 685.5,-375.5 685.5,-375.5 685.5,-375.5 1300,-375.5 1334.1888,-375.5 1372.2339,-375.5 1403.6962,-375.5"/>
<polygon fill="#9a32cd" stroke="#9a32cd" points="347.6423,-305.3784 338.7092,-299.6818 342.1401,-309.7058 347.6423,-305.3784"/>
<text text-anchor="middle" x="989" y="-378.5" font-family="Helvetica,sans-Serif" font-size="10.00" fill="#000000"> global_residual_vector_out</text>
</g>
<!-- Node13&#45;&gt;Node11 -->
<g id="edge15" class="edge">
<title>Node13&#45;&gt;Node11</title>
<path fill="none" stroke="#9a32cd" stroke-dasharray="5,2" d="M397.8215,-279.9536C401.9409,-279.7752 406.0239,-279.6211 410,-279.5 488.186,-277.1185 507.8024,-277.5365 586,-279.5 591.7924,-279.6454 597.7726,-279.8384 603.7924,-280.0641"/>
<polygon fill="#9a32cd" stroke="#9a32cd" points="397.3691,-276.471 387.5467,-280.4423 397.7017,-283.4631 397.3691,-276.471"/>
<text text-anchor="middle" x="498" y="-282.5" font-family="Helvetica,sans-Serif" font-size="10.00" fill="#000000"> global_residual_vector_out</text>
</g>
<!-- Node14&#45;&gt;Node8 -->
<g id="edge17" class="edge">
<title>Node14&#45;&gt;Node8</title>
<path fill="none" stroke="#9a32cd" stroke-dasharray="5,2" d="M569.4986,-326.9149C649.7583,-323.9697 783.481,-315.5528 896,-291.5 911.1258,-288.2666 927.3909,-283.8702 942.0229,-279.5642"/>
<polygon fill="#9a32cd" stroke="#9a32cd" points="568.8904,-323.4338 559.0181,-327.2794 569.1338,-330.4296 568.8904,-323.4338"/>
<text text-anchor="middle" x="685.5" y="-327.5" font-family="Helvetica,sans-Serif" font-size="10.00" fill="#000000"> comm_data_struct</text>
</g>
<!-- Node15&#45;&gt;Node1 -->
<g id="edge19" class="edge">
<title>Node15&#45;&gt;Node1</title>
<path fill="none" stroke="#9a32cd" stroke-dasharray="5,2" d="M906.5261,-211.3738C994.625,-215.2084 1149.5742,-221.9526 1236.4168,-225.7325"/>
<polygon fill="#9a32cd" stroke="#9a32cd" points="906.5271,-207.8706 896.3843,-210.9324 906.2226,-214.864 906.5271,-207.8706"/>
<text text-anchor="middle" x="989" y="-231.5" font-family="Helvetica,sans-Serif" font-size="10.00" fill="#000000"> cell_weights</text>
<text text-anchor="middle" x="989" y="-220.5" font-family="Helvetica,sans-Serif" font-size="10.00" fill="#000000">partition_indices</text>
</g>
<!-- Node16 -->
<g id="node17" class="node">
<title>Node16</title>
<g id="a_node17"><a xlink:href="classschwz_1_1Communicate.html" target="_top" xlink:title="The communication class that provides the methods for the communication between the subdomains...">
<polygon fill="#ffffff" stroke="#000000" points="1082,-515.5 1082,-545.5 1215,-545.5 1215,-515.5 1082,-515.5"/>
<text text-anchor="start" x="1090" y="-533.5" font-family="Helvetica,sans-Serif" font-size="10.00" fill="#000000">schwz::Communicate</text>
<text text-anchor="middle" x="1148.5" y="-522.5" font-family="Helvetica,sans-Serif" font-size="10.00" fill="#000000">&lt; ValueType, IndexType &gt;</text>
</a>
</g>
</g>
<!-- Node16&#45;&gt;Node0 -->
<g id="edge21" class="edge">
<title>Node16&#45;&gt;Node0</title>
<path fill="none" stroke="#191970" d="M1225.363,-537.7369C1274.6822,-538.713 1338.1982,-532.8244 1386,-503.5 1429.3518,-476.9055 1455.052,-418.743 1465.3081,-390.9219"/>
<polygon fill="#191970" stroke="#191970" points="1225.1648,-534.2295 1215.065,-537.4304 1224.9564,-541.2265 1225.1648,-534.2295"/>
</g>
<!-- Node17 -->
<g id="node18" class="node">
<title>Node17</title>
<g id="a_node18"><a xlink:href="structschwz_1_1Communicate_1_1comm__struct.html" target="_top" xlink:title="The communication struct used to store the communication data. ">
<polygon fill="#ffffff" stroke="#000000" points="623.5,-518 623.5,-559 747.5,-559 747.5,-518 623.5,-518"/>
<text text-anchor="start" x="631.5" y="-547" font-family="Helvetica,sans-Serif" font-size="10.00" fill="#000000">schwz::Communicate</text>
<text text-anchor="start" x="631.5" y="-536" font-family="Helvetica,sans-Serif" font-size="10.00" fill="#000000">&lt; ValueType, IndexType</text>
<text text-anchor="middle" x="685.5" y="-525" font-family="Helvetica,sans-Serif" font-size="10.00" fill="#000000"> &gt;::comm_struct</text>
</a>
</g>
</g>
<!-- Node17&#45;&gt;Node16 -->
<g id="edge22" class="edge">
<title>Node17&#45;&gt;Node16</title>
<path fill="none" stroke="#9a32cd" stroke-dasharray="5,2" d="M758.1959,-537.2439C846.9646,-535.7101 995.8661,-533.1373 1081.813,-531.6523"/>
<polygon fill="#9a32cd" stroke="#9a32cd" points="757.8802,-533.7488 747.9422,-537.4211 758.0012,-540.7477 757.8802,-533.7488"/>
<text text-anchor="middle" x="840.5" y="-539.5" font-family="Helvetica,sans-Serif" font-size="10.00" fill="#000000"> comm_struct</text>
</g>
<!-- Node18&#45;&gt;Node17 -->
<g id="edge23" class="edge">
<title>Node18&#45;&gt;Node17</title>
<path fill="none" stroke="#9a32cd" stroke-dasharray="5,2" d="M387.9207,-500.5874C395.355,-501.5763 402.8519,-502.5665 410,-503.5 483.2663,-513.068 567.5419,-523.7232 623.3899,-530.7352"/>
<polygon fill="#9a32cd" stroke="#9a32cd" points="388.2356,-497.0985 377.8605,-499.2453 387.3098,-504.037 388.2356,-497.0985"/>
<text text-anchor="middle" x="498" y="-527.5" font-family="Helvetica,sans-Serif" font-size="10.00" fill="#000000"> is_local_neighbor</text>
</g>
<!-- Node19&#45;&gt;Node0 -->
<g id="edge25" class="edge">
<title>Node19&#45;&gt;Node0</title>
<path fill="none" stroke="#191970" d="M1340.9764,-184.6436C1350.1673,-190.2897 1359.4274,-196.9732 1367,-204.5 1415.486,-252.6931 1450.6395,-327.9765 1464.2677,-360.1176"/>
<polygon fill="#191970" stroke="#191970" points="1342.6454,-181.5652 1332.2431,-179.5545 1339.121,-187.6133 1342.6454,-181.5652"/>
</g>
</g>
</svg>
        <g id="navigator" transform="translate(0 0)" fill="#404254">
                <rect fill="#f2f5e9" fill-opacity="0.5" stroke="#606060" stroke-width=".5" x="0" y="0" width="60" height="60"/>
                <use id="zoomplus" xlink:href="#zoomPlus" x="17" y="9" onmousedown="handleZoom(evt,'in')"/>
                <use id="zoomminus" xlink:href="#zoomMin" x="42" y="9" onmousedown="handleZoom(evt,'out')"/>
                <use id="reset" xlink:href="#resetDef" x="30" y="36" onmousedown="handleReset()"/>
                <g id="arrowUp" xlink:href="#dirArrow" transform="translate(30 24)" onmousedown="handlePan(0,-1)">
                  <use xlink:href="#rim" fill="#404040">
                        <set attributeName="fill" to="#808080" begin="arrowUp.mouseover" end="arrowUp.mouseout"/>
                  </use>
                  <path fill="none" stroke="white" stroke-width="1.5" d="M0,-3.0v7 M-2.5,-0.5L0,-3.0L2.5,-0.5"/>
                </g>
                <g id="arrowRight" xlink:href="#dirArrow" transform="rotate(90) translate(36 -43)" onmousedown="handlePan(1,0)">
                  <use xlink:href="#rim" fill="#404040">
                        <set attributeName="fill" to="#808080" begin="arrowRight.mouseover" end="arrowRight.mouseout"/>
                  </use>
                  <path fill="none" stroke="white" stroke-width="1.5" d="M0,-3.0v7 M-2.5,-0.5L0,-3.0L2.5,-0.5"/>
                </g>
                <g id="arrowDown" xlink:href="#dirArrow" transform="rotate(180) translate(-30 -48)" onmousedown="handlePan(0,1)">
                  <use xlink:href="#rim" fill="#404040">
                        <set attributeName="fill" to="#808080" begin="arrowDown.mouseover" end="arrowDown.mouseout"/>
                  </use>
                  <path fill="none" stroke="white" stroke-width="1.5" d="M0,-3.0v7 M-2.5,-0.5L0,-3.0L2.5,-0.5"/>
                </g>
                <g id="arrowLeft" xlink:href="#dirArrow" transform="rotate(270) translate(-36 17)" onmousedown="handlePan(-1,0)">
                  <use xlink:href="#rim" fill="#404040">
                        <set attributeName="fill" to="#808080" begin="arrowLeft.mouseover" end="arrowLeft.mouseout"/>
                  </use>
                  <path fill="none" stroke="white" stroke-width="1.5" d="M0,-3.0v7 M-2.5,-0.5L0,-3.0L2.5,-0.5"/>
                </g>
        </g>
        <svg viewBox="0 0 15 15" width="100%" height="30px" preserveAspectRatio="xMaxYMin meet">
         <g id="arrow_out" transform="scale(0.3 0.3)">
          <a xlink:href="classschwz_1_1SchwarzBase__coll__graph_org.svg" target="_base">
           <rect id="button" ry="5" rx="5" y="6" x="6" height="38" width="38"
                fill="#f2f5e9" fill-opacity="0.5" stroke="#606060" stroke-width="1.0"/>
           <path id="arrow"
             d="M 11.500037,31.436501 C 11.940474,20.09759 22.043105,11.32322 32.158766,21.979434 L 37.068811,17.246167 C 37.068811,17.246167 37.088388,32 37.088388,32 L 22.160133,31.978069 C 22.160133,31.978069 26.997745,27.140456 26.997745,27.140456 C 18.528582,18.264221 13.291696,25.230495 11.500037,31.436501 z"
             style="fill:#404040;"/>
          </a>
         </g>
        </svg>
</svg>
