<?xml version="1.0" encoding="UTF-8" standalone="no"?>
<!DOCTYPE svg PUBLIC "-//W3C//DTD SVG 1.1//EN"
 "http://www.w3.org/Graphics/SVG/1.1/DTD/svg11.dtd">
<!-- Generated by graphviz version 2.40.1 (20161225.0304)
 -->
<!-- Title: SchwarzWrappers::Initialize&lt; ValueType, IndexType &gt; Pages: 1 -->
<svg width="1085pt" height="326pt"
 viewBox="0.00 0.00 1085.00 326.00" xmlns="http://www.w3.org/2000/svg" xmlns:xlink="http://www.w3.org/1999/xlink">
<g id="graph0" class="graph" transform="scale(1 1) rotate(0) translate(4 322)">
<title>SchwarzWrappers::Initialize&lt; ValueType, IndexType &gt;</title>
<polygon fill="#ffffff" stroke="transparent" points="-4,4 -4,-322 1081,-322 1081,4 -4,4"/>
<!-- Node0 -->
<g id="node1" class="node">
<title>Node0</title>
<polygon fill="#bfbfbf" stroke="#000000" points="938,-81.5 938,-111.5 1077,-111.5 1077,-81.5 938,-81.5"/>
<text text-anchor="start" x="946" y="-99.5" font-family="Helvetica,sans-Serif" font-size="10.00" fill="#000000">SchwarzWrappers::Initialize</text>
<text text-anchor="middle" x="1007.5" y="-88.5" font-family="Helvetica,sans-Serif" font-size="10.00" fill="#000000">&lt; ValueType, IndexType &gt;</text>
</g>
<!-- Node1 -->
<g id="node2" class="node">
<title>Node1</title>
<g id="a_node2"><a xlink:href="structSchwarzWrappers_1_1Settings.html" target="_top" xlink:title="The struct that contains the solver settings and the parameters to be set by the user. ">
<polygon fill="#ffffff" stroke="#000000" points="760,-198 760,-217 899,-217 899,-198 760,-198"/>
<text text-anchor="middle" x="829.5" y="-205" font-family="Helvetica,sans-Serif" font-size="10.00" fill="#000000">SchwarzWrappers::Settings</text>
</a>
</g>
</g>
<!-- Node1&#45;&gt;Node0 -->
<g id="edge1" class="edge">
<title>Node1&#45;&gt;Node0</title>
<path fill="none" stroke="#191970" d="M853.8064,-192.3427C887.8223,-171.1305 949.2624,-132.8167 983.2487,-111.623"/>
<polygon fill="#191970" stroke="#191970" points="851.6183,-189.5823 844.9849,-197.8437 855.3223,-195.5221 851.6183,-189.5823"/>
</g>
<!-- Node2 -->
<g id="node3" class="node">
<title>Node2</title>
<g id="a_node3"><a xlink:href="structSchwarzWrappers_1_1Settings_1_1convergence__settings.html" target="_top" xlink:title="The various convergence settings available. ">
<polygon fill="#ffffff" stroke="#000000" points="453.5,-287.5 453.5,-317.5 592.5,-317.5 592.5,-287.5 453.5,-287.5"/>
<text text-anchor="start" x="461.5" y="-305.5" font-family="Helvetica,sans-Serif" font-size="10.00" fill="#000000">SchwarzWrappers::Settings</text>
<text text-anchor="middle" x="523" y="-294.5" font-family="Helvetica,sans-Serif" font-size="10.00" fill="#000000">::convergence_settings</text>
</a>
</g>
</g>
<!-- Node2&#45;&gt;Node1 -->
<g id="edge2" class="edge">
<title>Node2&#45;&gt;Node1</title>
<path fill="none" stroke="#9a32cd" stroke-dasharray="5,2" d="M603.1442,-305.282C645.3027,-304.0831 697.0137,-298.3016 740,-280.5 774.8281,-266.0769 806.7704,-233.4683 821.2824,-217.1627"/>
<polygon fill="#9a32cd" stroke="#9a32cd" points="602.848,-301.7872 592.921,-305.4892 602.9899,-308.7857 602.848,-301.7872"/>
<text text-anchor="middle" x="684.5" y="-306.5" font-family="Helvetica,sans-Serif" font-size="10.00" fill="#000000"> convergence_settings</text>
</g>
<!-- Node3 -->
<g id="node4" class="node">
<title>Node3</title>
<g id="a_node4"><a xlink:title="STL class. ">
<polygon fill="#ffffff" stroke="#bfbfbf" points="493,-225 493,-244 553,-244 553,-225 493,-225"/>
<text text-anchor="middle" x="523" y="-232" font-family="Helvetica,sans-Serif" font-size="10.00" fill="#000000">std::string</text>
</a>
</g>
</g>
<!-- Node3&#45;&gt;Node1 -->
<g id="edge3" class="edge">
<title>Node3&#45;&gt;Node1</title>
<path fill="none" stroke="#9a32cd" stroke-dasharray="5,2" d="M563.3087,-230.9492C613.2107,-226.5532 699.0232,-218.9939 759.7104,-213.6479"/>
<polygon fill="#9a32cd" stroke="#9a32cd" points="562.8815,-227.4731 553.2272,-231.8372 563.4958,-234.4461 562.8815,-227.4731"/>
<text text-anchor="middle" x="684.5" y="-271.5" font-family="Helvetica,sans-Serif" font-size="10.00" fill="#000000"> factorization</text>
<text text-anchor="middle" x="684.5" y="-260.5" font-family="Helvetica,sans-Serif" font-size="10.00" fill="#000000">metis_objtype</text>
<text text-anchor="middle" x="684.5" y="-249.5" font-family="Helvetica,sans-Serif" font-size="10.00" fill="#000000">matrix_filename</text>
<text text-anchor="middle" x="684.5" y="-238.5" font-family="Helvetica,sans-Serif" font-size="10.00" fill="#000000">reorder</text>
<text text-anchor="middle" x="684.5" y="-227.5" font-family="Helvetica,sans-Serif" font-size="10.00" fill="#000000">executor_string</text>
</g>
<!-- Node4 -->
<g id="node5" class="node">
<title>Node4</title>
<polygon fill="#ffffff" stroke="#bfbfbf" points="171,-219.5 171,-249.5 266,-249.5 266,-219.5 171,-219.5"/>
<text text-anchor="start" x="179" y="-237.5" font-family="Helvetica,sans-Serif" font-size="10.00" fill="#000000">std::basic_string&lt;</text>
<text text-anchor="middle" x="218.5" y="-226.5" font-family="Helvetica,sans-Serif" font-size="10.00" fill="#000000"> char &gt;</text>
</g>
<!-- Node4&#45;&gt;Node3 -->
<g id="edge4" class="edge">
<title>Node4&#45;&gt;Node3</title>
<path fill="none" stroke="#191970" d="M276.0852,-234.5C340.529,-234.5 442.4862,-234.5 492.8302,-234.5"/>
<polygon fill="#191970" stroke="#191970" points="276.0782,-231.0001 266.0781,-234.5 276.0781,-238.0001 276.0782,-231.0001"/>
</g>
<!-- Node5 -->
<g id="node6" class="node">
<title>Node5</title>
<g id="a_node6"><a xlink:title="STL class. ">
<polygon fill="#ffffff" stroke="#bfbfbf" points="0,-219.5 0,-249.5 95,-249.5 95,-219.5 0,-219.5"/>
<text text-anchor="start" x="8" y="-237.5" font-family="Helvetica,sans-Serif" font-size="10.00" fill="#000000">std::basic_string&lt;</text>
<text text-anchor="middle" x="47.5" y="-226.5" font-family="Helvetica,sans-Serif" font-size="10.00" fill="#000000"> Char &gt;</text>
</a>
</g>
</g>
<!-- Node5&#45;&gt;Node4 -->
<g id="edge5" class="edge">
<title>Node5&#45;&gt;Node4</title>
<path fill="none" stroke="#ffa500" stroke-dasharray="5,2" d="M105.357,-234.5C126.6579,-234.5 150.524,-234.5 170.8261,-234.5"/>
<polygon fill="#ffa500" stroke="#ffa500" points="105.1331,-231.0001 95.133,-234.5 105.133,-238.0001 105.1331,-231.0001"/>
<text text-anchor="middle" x="133" y="-237.5" font-family="Helvetica,sans-Serif" font-size="10.00" fill="#000000"> &lt; char &gt;</text>
</g>
<!-- Node6 -->
<g id="node7" class="node">
<title>Node6</title>
<g id="a_node7"><a xlink:href="structSchwarzWrappers_1_1Settings_1_1comm__settings.html" target="_top" xlink:title="The settings for the various available communication paradigms. ">
<polygon fill="#ffffff" stroke="#000000" points="453.5,-175.5 453.5,-205.5 592.5,-205.5 592.5,-175.5 453.5,-175.5"/>
<text text-anchor="start" x="461.5" y="-193.5" font-family="Helvetica,sans-Serif" font-size="10.00" fill="#000000">SchwarzWrappers::Settings</text>
<text text-anchor="middle" x="523" y="-182.5" font-family="Helvetica,sans-Serif" font-size="10.00" fill="#000000">::comm_settings</text>
</a>
</g>
</g>
<!-- Node6&#45;&gt;Node1 -->
<g id="edge6" class="edge">
<title>Node6&#45;&gt;Node1</title>
<path fill="none" stroke="#9a32cd" stroke-dasharray="5,2" d="M602.7563,-187.5903C643.8381,-186.921 694.69,-187.3766 740,-191.5 754.6192,-192.8304 770.4283,-195.3058 784.6333,-197.9186"/>
<polygon fill="#9a32cd" stroke="#9a32cd" points="602.4637,-184.0951 592.5315,-187.7832 602.5958,-191.0939 602.4637,-184.0951"/>
<text text-anchor="middle" x="684.5" y="-194.5" font-family="Helvetica,sans-Serif" font-size="10.00" fill="#000000"> comm_settings</text>
</g>
<!-- Node7 -->
<g id="node8" class="node">
<title>Node7</title>
<g id="a_node8"><a xlink:href="structSchwarzWrappers_1_1Metadata.html" target="_top" xlink:title="The solver metadata struct. ">
<polygon fill="#ffffff" stroke="#000000" points="758,-81.5 758,-111.5 901,-111.5 901,-81.5 758,-81.5"/>
<text text-anchor="start" x="766" y="-99.5" font-family="Helvetica,sans-Serif" font-size="10.00" fill="#000000">SchwarzWrappers::Metadata</text>
<text text-anchor="middle" x="829.5" y="-88.5" font-family="Helvetica,sans-Serif" font-size="10.00" fill="#000000">&lt; ValueType, IndexType &gt;</text>
</a>
</g>
</g>
<!-- Node7&#45;&gt;Node0 -->
<g id="edge7" class="edge">
<title>Node7&#45;&gt;Node0</title>
<path fill="none" stroke="#191970" d="M911.4032,-96.5C920.2088,-96.5 929.1075,-96.5 937.7518,-96.5"/>
<polygon fill="#191970" stroke="#191970" points="911.13,-93.0001 901.13,-96.5 911.13,-100.0001 911.13,-93.0001"/>
</g>
<!-- Node8 -->
<g id="node9" class="node">
<title>Node8</title>
<polygon fill="#ffffff" stroke="#bfbfbf" points="435,-115 435,-156 611,-156 611,-115 435,-115"/>
<text text-anchor="start" x="443" y="-144" font-family="Helvetica,sans-Serif" font-size="10.00" fill="#000000">std::vector&lt; std::tuple</text>
<text text-anchor="start" x="443" y="-133" font-family="Helvetica,sans-Serif" font-size="10.00" fill="#000000">&lt; int, int, int, std::</text>
<text text-anchor="middle" x="523" y="-122" font-family="Helvetica,sans-Serif" font-size="10.00" fill="#000000">string, std::vector&lt; ValueType &gt; &gt; &gt;</text>
</g>
<!-- Node8&#45;&gt;Node7 -->
<g id="edge8" class="edge">
<title>Node8&#45;&gt;Node7</title>
<path fill="none" stroke="#9a32cd" stroke-dasharray="5,2" d="M621.1899,-123.006C665.61,-117.3539 717.1481,-110.796 757.8472,-105.6173"/>
<polygon fill="#9a32cd" stroke="#9a32cd" points="620.7195,-119.5376 611.2413,-124.2719 621.6031,-126.4816 620.7195,-119.5376"/>
<text text-anchor="middle" x="684.5" y="-124.5" font-family="Helvetica,sans-Serif" font-size="10.00" fill="#000000"> time_struct</text>
</g>
<!-- Node9 -->
<g id="node10" class="node">
<title>Node9</title>
<g id="a_node10"><a xlink:title="STL class. ">
<polygon fill="#ffffff" stroke="#bfbfbf" points="175,-48 175,-67 262,-67 262,-48 175,-48"/>
<text text-anchor="middle" x="218.5" y="-55" font-family="Helvetica,sans-Serif" font-size="10.00" fill="#000000">std::vector&lt; T &gt;</text>
</a>
</g>
</g>
<!-- Node9&#45;&gt;Node8 -->
<g id="edge9" class="edge">
<title>Node9&#45;&gt;Node8</title>
<path fill="none" stroke="#ffa500" stroke-dasharray="5,2" d="M232.892,-74.5497C245.0472,-87.6543 263.6837,-104.9205 284,-113.5 331.2148,-133.4387 388.2323,-139.2963 434.7332,-140.0009"/>
<polygon fill="#ffa500" stroke="#ffa500" points="235.4695,-72.1813 226.2041,-67.0429 230.2429,-76.8377 235.4695,-72.1813"/>
<text text-anchor="start" x="284" y="-163.5" font-family="Helvetica,sans-Serif" font-size="10.00" fill="#000000"> &lt; std::tuple&lt; int,</text>
<text text-anchor="start" x="284" y="-152.5" font-family="Helvetica,sans-Serif" font-size="10.00" fill="#000000"> int, int, std::string,</text>
<text text-anchor="middle" x="350.5" y="-141.5" font-family="Helvetica,sans-Serif" font-size="10.00" fill="#000000"> std::vector&lt; ValueType &gt; &gt; &gt;</text>
</g>
<!-- Node10 -->
<g id="node11" class="node">
<title>Node10</title>
<polygon fill="#ffffff" stroke="#bfbfbf" points="462,-33 462,-96 584,-96 584,-33 462,-33"/>
<text text-anchor="start" x="470" y="-84" font-family="Helvetica,sans-Serif" font-size="10.00" fill="#000000">std::vector&lt; std::tuple</text>
<text text-anchor="start" x="470" y="-73" font-family="Helvetica,sans-Serif" font-size="10.00" fill="#000000">&lt; int, std::vector&lt; std</text>
<text text-anchor="start" x="470" y="-62" font-family="Helvetica,sans-Serif" font-size="10.00" fill="#000000">::tuple&lt; int, int &gt; &gt;, std</text>
<text text-anchor="start" x="470" y="-51" font-family="Helvetica,sans-Serif" font-size="10.00" fill="#000000">::vector&lt; std::tuple&lt; int,</text>
<text text-anchor="middle" x="523" y="-40" font-family="Helvetica,sans-Serif" font-size="10.00" fill="#000000"> int &gt; &gt;, int, int &gt; &gt;</text>
</g>
<!-- Node9&#45;&gt;Node10 -->
<g id="edge11" class="edge">
<title>Node9&#45;&gt;Node10</title>
<path fill="none" stroke="#ffa500" stroke-dasharray="5,2" d="M272.3249,-57.0225C312.2622,-56.8503 368.0427,-56.9921 417,-58.5 431.5546,-58.9483 447.2206,-59.6913 461.9261,-60.5044"/>
<polygon fill="#ffa500" stroke="#ffa500" points="272.2525,-53.5227 262.2706,-57.0739 272.2884,-60.5226 272.2525,-53.5227"/>
<text text-anchor="start" x="297" y="-105.5" font-family="Helvetica,sans-Serif" font-size="10.00" fill="#000000"> &lt; std::tuple&lt; int,</text>
<text text-anchor="start" x="297" y="-94.5" font-family="Helvetica,sans-Serif" font-size="10.00" fill="#000000"> std::vector&lt; std::tuple</text>
<text text-anchor="start" x="297" y="-83.5" font-family="Helvetica,sans-Serif" font-size="10.00" fill="#000000">&lt; int, int &gt; &gt;, std::vector</text>
<text text-anchor="start" x="297" y="-72.5" font-family="Helvetica,sans-Serif" font-size="10.00" fill="#000000">&lt; std::tuple&lt; int, int &gt; &gt;</text>
<text text-anchor="middle" x="350.5" y="-61.5" font-family="Helvetica,sans-Serif" font-size="10.00" fill="#000000">, int, int &gt; &gt;</text>
</g>
<!-- Node11 -->
<g id="node12" class="node">
<title>Node11</title>
<polygon fill="#ffffff" stroke="#bfbfbf" points="629,-.5 629,-30.5 740,-30.5 740,-.5 629,-.5"/>
<text text-anchor="start" x="637" y="-18.5" font-family="Helvetica,sans-Serif" font-size="10.00" fill="#000000">std::vector&lt; unsigned</text>
<text text-anchor="middle" x="684.5" y="-7.5" font-family="Helvetica,sans-Serif" font-size="10.00" fill="#000000"> int &gt;</text>
</g>
<!-- Node9&#45;&gt;Node11 -->
<g id="edge13" class="edge">
<title>Node9&#45;&gt;Node11</title>
<path fill="none" stroke="#ffa500" stroke-dasharray="5,2" d="M267.2133,-45.7791C272.8568,-44.5893 278.5435,-43.4656 284,-42.5 350.6055,-30.7134 367.5686,-28.8118 435,-23.5 501.5348,-18.2588 578.3083,-16.4284 628.9247,-15.8019"/>
<polygon fill="#ffa500" stroke="#ffa500" points="266.1846,-42.4212 257.1605,-47.9725 267.6768,-49.2603 266.1846,-42.4212"/>
<text text-anchor="middle" x="350.5" y="-45.5" font-family="Helvetica,sans-Serif" font-size="10.00" fill="#000000"> &lt; unsigned int &gt;</text>
</g>
<!-- Node10&#45;&gt;Node7 -->
<g id="edge10" class="edge">
<title>Node10&#45;&gt;Node7</title>
<path fill="none" stroke="#9a32cd" stroke-dasharray="5,2" d="M594.5468,-70.3448C636.8889,-73.9907 691.5515,-79.0218 740,-84.5 745.7638,-85.1517 751.7312,-85.8658 757.7228,-86.6104"/>
<polygon fill="#9a32cd" stroke="#9a32cd" points="594.5967,-66.8364 584.3349,-69.4718 594.0004,-73.811 594.5967,-66.8364"/>
<text text-anchor="middle" x="684.5" y="-87.5" font-family="Helvetica,sans-Serif" font-size="10.00" fill="#000000"> comm_data_struct</text>
</g>
<!-- Node11&#45;&gt;Node0 -->
<g id="edge12" class="edge">
<title>Node11&#45;&gt;Node0</title>
<path fill="none" stroke="#9a32cd" stroke-dasharray="5,2" d="M750.2065,-21.8405C793.6153,-27.0691 851.4289,-36.0307 901,-50.5 927.874,-58.3442 956.9623,-71.2316 977.9375,-81.373"/>
<polygon fill="#9a32cd" stroke="#9a32cd" points="750.3945,-18.3387 740.0558,-20.654 749.5818,-25.2914 750.3945,-18.3387"/>
<text text-anchor="middle" x="829.5" y="-64.5" font-family="Helvetica,sans-Serif" font-size="10.00" fill="#000000"> cell_weights</text>
<text text-anchor="middle" x="829.5" y="-53.5" font-family="Helvetica,sans-Serif" font-size="10.00" fill="#000000">partition_indices</text>
</g>
</g>
</svg>
