<?xml version="1.0" encoding="UTF-8" standalone="no"?>
<!DOCTYPE svg PUBLIC "-//W3C//DTD SVG 1.1//EN"
 "http://www.w3.org/Graphics/SVG/1.1/DTD/svg11.dtd">
<!-- Generated by graphviz version 2.40.1 (20161225.0304)
 -->
<!-- Title: schwz::Initialize&lt; ValueType, IndexType &gt; Pages: 1 -->
<!--zoomable 425 -->
<svg id="main" version="1.1" xmlns="http://www.w3.org/2000/svg" xmlns:xlink="http://www.w3.org/1999/xlink" xml:space="preserve" onload="init(evt)">
<style type="text/css"><![CDATA[
.edge:hover path { stroke: red; }
.edge:hover polygon { stroke: red; fill: red; }
]]></style>
<script type="text/javascript"><![CDATA[
var edges = document.getElementsByTagName('g');
if (edges && edges.length) {
  for (var i=0;i<edges.length;i++) {
    if (edges[i].id.substr(0,4)=='edge') {
      edges[i].setAttribute('class','edge');
    }
  }
}
]]></script>
        <defs>
                <circle id="rim" cx="0" cy="0" r="7"/>
                <circle id="rim2" cx="0" cy="0" r="3.5"/>
                <g id="zoomPlus">
                        <use xlink:href="#rim" fill="#404040">
                                <set attributeName="fill" to="#808080" begin="zoomplus.mouseover" end="zoomplus.mouseout"/>
                        </use>
                        <path d="M-4,0h8M0,-4v8" fill="none" stroke="white" stroke-width="1.5" pointer-events="none"/>
                </g>
                <g id="zoomMin">
                        <use xlink:href="#rim" fill="#404040">
                                <set attributeName="fill" to="#808080" begin="zoomminus.mouseover" end="zoomminus.mouseout"/>
                        </use>
                        <path d="M-4,0h8" fill="none" stroke="white" stroke-width="1.5" pointer-events="none"/>
                </g>
                <g id="dirArrow">
                        <path fill="none" stroke="white" stroke-width="1.5" d="M0,-3.0v7 M-2.5,-0.5L0,-3.0L2.5,-0.5"/>
                </g>
               <g id="resetDef">
                       <use xlink:href="#rim2" fill="#404040">
                               <set attributeName="fill" to="#808080" begin="reset.mouseover" end="reset.mouseout"/>
                       </use>
               </g>
        </defs>

<script type="text/javascript">
var viewWidth = 1236;
var viewHeight = 425;
var sectionId = 'dynsection-0';
</script>
<script xlink:href="svgpan.js"/>
<svg id="graph" class="graph">
<g id="viewport">
<title>schwz::Initialize&lt; ValueType, IndexType &gt;</title>
<polygon fill="#ffffff" stroke="transparent" points="-4,4 -4,-420.5 1232,-420.5 1232,4 -4,4"/>
<!-- Node0 -->
<g id="node1" class="node">
<title>Node0</title>
<polygon fill="#bfbfbf" stroke="#000000" points="1101,-206.5 1101,-236.5 1228,-236.5 1228,-206.5 1101,-206.5"/>
<text text-anchor="start" x="1109" y="-224.5" font-family="Helvetica,sans-Serif" font-size="10.00" fill="#000000">schwz::Initialize&lt;</text>
<text text-anchor="middle" x="1164.5" y="-213.5" font-family="Helvetica,sans-Serif" font-size="10.00" fill="#000000"> ValueType, IndexType &gt;</text>
</g>
<!-- Node1 -->
<g id="node2" class="node">
<title>Node1</title>
<g id="a_node2"><a xlink:href="structschwz_1_1Settings.html" target="_top" xlink:title="The struct that contains the solver settings and the parameters to be set by the user. ">
<polygon fill="#ffffff" stroke="#000000" points="945.5,-72 945.5,-91 1032.5,-91 1032.5,-72 945.5,-72"/>
<text text-anchor="middle" x="989" y="-79" font-family="Helvetica,sans-Serif" font-size="10.00" fill="#000000">schwz::Settings</text>
</a>
</g>
</g>
<!-- Node1&#45;&gt;Node0 -->
<g id="edge1" class="edge">
<title>Node1&#45;&gt;Node0</title>
<path fill="none" stroke="#191970" d="M1008.9468,-97.412C1043.0976,-124.6548 1112.3036,-179.8618 1145.6716,-206.4802"/>
<polygon fill="#191970" stroke="#191970" points="1011.0629,-94.6228 1001.0628,-91.1228 1006.6976,-100.095 1011.0629,-94.6228"/>
</g>
<!-- Node2 -->
<g id="node3" class="node">
<title>Node2</title>
<g id="a_node3"><a xlink:href="structschwz_1_1Settings_1_1comm__settings.html" target="_top" xlink:title="The settings for the various available communication paradigms. ">
<polygon fill="#ffffff" stroke="#000000" points="625.5,-49.5 625.5,-79.5 745.5,-79.5 745.5,-49.5 625.5,-49.5"/>
<text text-anchor="start" x="633.5" y="-67.5" font-family="Helvetica,sans-Serif" font-size="10.00" fill="#000000">schwz::Settings::comm</text>
<text text-anchor="middle" x="685.5" y="-56.5" font-family="Helvetica,sans-Serif" font-size="10.00" fill="#000000">_settings</text>
</a>
</g>
</g>
<!-- Node2&#45;&gt;Node1 -->
<g id="edge2" class="edge">
<title>Node2&#45;&gt;Node1</title>
<path fill="none" stroke="#9a32cd" stroke-dasharray="5,2" d="M755.6657,-61.9344C796.6603,-61.1586 849.3497,-61.4047 896,-65.5 912.1571,-66.9184 929.7259,-69.6326 945.1983,-72.4282"/>
<polygon fill="#9a32cd" stroke="#9a32cd" points="755.4288,-58.4386 745.5061,-62.152 755.5788,-65.437 755.4288,-58.4386"/>
<text text-anchor="middle" x="840.5" y="-68.5" font-family="Helvetica,sans-Serif" font-size="10.00" fill="#000000"> comm_settings</text>
</g>
<!-- Node3 -->
<g id="node4" class="node">
<title>Node3</title>
<g id="a_node4"><a xlink:title="STL class. ">
<polygon fill="#ffffff" stroke="#bfbfbf" points="655.5,-101 655.5,-120 715.5,-120 715.5,-101 655.5,-101"/>
<text text-anchor="middle" x="685.5" y="-108" font-family="Helvetica,sans-Serif" font-size="10.00" fill="#000000">std::string</text>
</a>
</g>
</g>
<!-- Node3&#45;&gt;Node1 -->
<g id="edge3" class="edge">
<title>Node3&#45;&gt;Node1</title>
<path fill="none" stroke="#9a32cd" stroke-dasharray="5,2" d="M725.4795,-105.8762C743.6353,-103.8289 765.3919,-101.4487 785,-99.5 840.1928,-94.0148 903.8723,-88.5306 945.2001,-85.0831"/>
<polygon fill="#9a32cd" stroke="#9a32cd" points="725.0669,-102.4005 715.5253,-107.0058 725.8562,-109.3558 725.0669,-102.4005"/>
<text text-anchor="middle" x="840.5" y="-146.5" font-family="Helvetica,sans-Serif" font-size="10.00" fill="#000000"> factorization</text>
<text text-anchor="middle" x="840.5" y="-135.5" font-family="Helvetica,sans-Serif" font-size="10.00" fill="#000000">metis_objtype</text>
<text text-anchor="middle" x="840.5" y="-124.5" font-family="Helvetica,sans-Serif" font-size="10.00" fill="#000000">matrix_filename</text>
<text text-anchor="middle" x="840.5" y="-113.5" font-family="Helvetica,sans-Serif" font-size="10.00" fill="#000000">reorder</text>
<text text-anchor="middle" x="840.5" y="-102.5" font-family="Helvetica,sans-Serif" font-size="10.00" fill="#000000">executor_string</text>
</g>
<!-- Node7 -->
<g id="node8" class="node">
<title>Node7</title>
<g id="a_node8"><a xlink:href="structschwz_1_1Metadata.html" target="_top" xlink:title="The solver metadata struct. ">
<polygon fill="#ffffff" stroke="#000000" points="914,-206.5 914,-236.5 1064,-236.5 1064,-206.5 914,-206.5"/>
<text text-anchor="start" x="922" y="-224.5" font-family="Helvetica,sans-Serif" font-size="10.00" fill="#000000">schwz::Metadata&lt; ValueType,</text>
<text text-anchor="middle" x="989" y="-213.5" font-family="Helvetica,sans-Serif" font-size="10.00" fill="#000000"> IndexType &gt;</text>
</a>
</g>
</g>
<!-- Node3&#45;&gt;Node7 -->
<g id="edge10" class="edge">
<title>Node3&#45;&gt;Node7</title>
<path fill="none" stroke="#9a32cd" stroke-dasharray="5,2" d="M713.0942,-124.6019C732.7287,-134.161 759.9606,-146.4699 785,-154.5 832.9746,-169.8854 848.2259,-161.5029 896,-177.5 918.8655,-185.1565 943.4775,-196.9738 961.6354,-206.4343"/>
<polygon fill="#9a32cd" stroke="#9a32cd" points="714.6243,-121.4541 704.1087,-120.161 711.5228,-127.7295 714.6243,-121.4541"/>
<text text-anchor="middle" x="840.5" y="-180.5" font-family="Helvetica,sans-Serif" font-size="10.00" fill="#000000"> local_precond</text>
</g>
<!-- Node4 -->
<g id="node5" class="node">
<title>Node4</title>
<polygon fill="#ffffff" stroke="#bfbfbf" points="280.5,-95.5 280.5,-125.5 375.5,-125.5 375.5,-95.5 280.5,-95.5"/>
<text text-anchor="start" x="288.5" y="-113.5" font-family="Helvetica,sans-Serif" font-size="10.00" fill="#000000">std::basic_string&lt;</text>
<text text-anchor="middle" x="328" y="-102.5" font-family="Helvetica,sans-Serif" font-size="10.00" fill="#000000"> char &gt;</text>
</g>
<!-- Node4&#45;&gt;Node3 -->
<g id="edge4" class="edge">
<title>Node4&#45;&gt;Node3</title>
<path fill="none" stroke="#191970" d="M385.8449,-110.5C462.7087,-110.5 595.715,-110.5 655.2107,-110.5"/>
<polygon fill="#191970" stroke="#191970" points="385.8431,-107.0001 375.8431,-110.5 385.8431,-114.0001 385.8431,-107.0001"/>
</g>
<!-- Node5 -->
<g id="node6" class="node">
<title>Node5</title>
<g id="a_node6"><a xlink:title="STL class. ">
<polygon fill="#ffffff" stroke="#bfbfbf" points="0,-95.5 0,-125.5 95,-125.5 95,-95.5 0,-95.5"/>
<text text-anchor="start" x="8" y="-113.5" font-family="Helvetica,sans-Serif" font-size="10.00" fill="#000000">std::basic_string&lt;</text>
<text text-anchor="middle" x="47.5" y="-102.5" font-family="Helvetica,sans-Serif" font-size="10.00" fill="#000000"> Char &gt;</text>
</a>
</g>
</g>
<!-- Node5&#45;&gt;Node4 -->
<g id="edge5" class="edge">
<title>Node5&#45;&gt;Node4</title>
<path fill="none" stroke="#ffa500" stroke-dasharray="5,2" d="M105.0943,-110.5C156.7767,-110.5 231.7415,-110.5 280.1836,-110.5"/>
<polygon fill="#ffa500" stroke="#ffa500" points="105.083,-107.0001 95.083,-110.5 105.083,-114.0001 105.083,-107.0001"/>
<text text-anchor="middle" x="179.5" y="-113.5" font-family="Helvetica,sans-Serif" font-size="10.00" fill="#000000"> &lt; char &gt;</text>
</g>
<!-- Node6 -->
<g id="node7" class="node">
<title>Node6</title>
<g id="a_node7"><a xlink:href="structschwz_1_1Settings_1_1convergence__settings.html" target="_top" xlink:title="The various convergence settings available. ">
<polygon fill="#ffffff" stroke="#000000" points="611,-.5 611,-30.5 760,-30.5 760,-.5 611,-.5"/>
<text text-anchor="start" x="619" y="-18.5" font-family="Helvetica,sans-Serif" font-size="10.00" fill="#000000">schwz::Settings::convergence</text>
<text text-anchor="middle" x="685.5" y="-7.5" font-family="Helvetica,sans-Serif" font-size="10.00" fill="#000000">_settings</text>
</a>
</g>
</g>
<!-- Node6&#45;&gt;Node1 -->
<g id="edge6" class="edge">
<title>Node6&#45;&gt;Node1</title>
<path fill="none" stroke="#9a32cd" stroke-dasharray="5,2" d="M770.4923,-23.8222C809.1679,-28.6772 855.2921,-35.9718 896,-46.5 921.2198,-53.0226 949.0443,-64.0276 967.6263,-71.9579"/>
<polygon fill="#9a32cd" stroke="#9a32cd" points="770.6622,-20.317 760.3116,-22.5785 769.8134,-27.2654 770.6622,-20.317"/>
<text text-anchor="middle" x="840.5" y="-49.5" font-family="Helvetica,sans-Serif" font-size="10.00" fill="#000000"> convergence_settings</text>
</g>
<!-- Node7&#45;&gt;Node0 -->
<g id="edge7" class="edge">
<title>Node7&#45;&gt;Node0</title>
<path fill="none" stroke="#191970" d="M1074.2434,-221.5C1083.177,-221.5 1092.1452,-221.5 1100.7774,-221.5"/>
<polygon fill="#191970" stroke="#191970" points="1074.1916,-218.0001 1064.1915,-221.5 1074.1915,-225.0001 1074.1916,-218.0001"/>
</g>
<!-- Node8 -->
<g id="node9" class="node">
<title>Node8</title>
<polygon fill="#ffffff" stroke="#bfbfbf" points="410,-319 410,-360 586,-360 586,-319 410,-319"/>
<text text-anchor="start" x="418" y="-348" font-family="Helvetica,sans-Serif" font-size="10.00" fill="#000000">std::vector&lt; std::tuple</text>
<text text-anchor="start" x="418" y="-337" font-family="Helvetica,sans-Serif" font-size="10.00" fill="#000000">&lt; int, int, int, std::</text>
<text text-anchor="middle" x="498" y="-326" font-family="Helvetica,sans-Serif" font-size="10.00" fill="#000000">string, std::vector&lt; ValueType &gt; &gt; &gt;</text>
</g>
<!-- Node8&#45;&gt;Node7 -->
<g id="edge8" class="edge">
<title>Node8&#45;&gt;Node7</title>
<path fill="none" stroke="#9a32cd" stroke-dasharray="5,2" d="M596.1893,-321.0684C677.1802,-305.1415 794.7967,-280.3432 896,-252.5 912.9018,-247.85 931.2578,-241.9234 947.1618,-236.5004"/>
<polygon fill="#9a32cd" stroke="#9a32cd" points="595.1437,-317.7065 586.0025,-323.0628 596.4887,-324.5761 595.1437,-317.7065"/>
<text text-anchor="middle" x="685.5" y="-321.5" font-family="Helvetica,sans-Serif" font-size="10.00" fill="#000000"> time_struct</text>
</g>
<!-- Node9 -->
<g id="node10" class="node">
<title>Node9</title>
<g id="a_node10"><a xlink:title="STL class. ">
<polygon fill="#ffffff" stroke="#bfbfbf" points="4,-261 4,-280 91,-280 91,-261 4,-261"/>
<text text-anchor="middle" x="47.5" y="-268" font-family="Helvetica,sans-Serif" font-size="10.00" fill="#000000">std::vector&lt; T &gt;</text>
</a>
</g>
</g>
<!-- Node9&#45;&gt;Node8 -->
<g id="edge9" class="edge">
<title>Node9&#45;&gt;Node8</title>
<path fill="none" stroke="#ffa500" stroke-dasharray="5,2" d="M101.1099,-281.373C105.1291,-282.1168 109.1259,-282.8343 113,-283.5 214.516,-300.9452 331.7072,-317.4784 409.8738,-327.9954"/>
<polygon fill="#ffa500" stroke="#ffa500" points="101.607,-277.9051 91.1306,-279.4845 100.3054,-284.783 101.607,-277.9051"/>
<text text-anchor="start" x="113" y="-328.5" font-family="Helvetica,sans-Serif" font-size="10.00" fill="#000000"> &lt; std::tuple&lt; int,</text>
<text text-anchor="start" x="113" y="-317.5" font-family="Helvetica,sans-Serif" font-size="10.00" fill="#000000"> int, int, std::string,</text>
<text text-anchor="middle" x="179.5" y="-306.5" font-family="Helvetica,sans-Serif" font-size="10.00" fill="#000000"> std::vector&lt; ValueType &gt; &gt; &gt;</text>
</g>
<!-- Node11 -->
<g id="node12" class="node">
<title>Node11</title>
<polygon fill="#ffffff" stroke="#bfbfbf" points="264,-255 264,-274 392,-274 392,-255 264,-255"/>
<text text-anchor="middle" x="328" y="-262" font-family="Helvetica,sans-Serif" font-size="10.00" fill="#000000">std::vector&lt; ValueType &gt;</text>
</g>
<!-- Node9&#45;&gt;Node11 -->
<g id="edge13" class="edge">
<title>Node9&#45;&gt;Node11</title>
<path fill="none" stroke="#ffa500" stroke-dasharray="5,2" d="M101.1634,-269.3521C147.5086,-268.3608 214.5759,-266.9262 263.7662,-265.874"/>
<polygon fill="#ffa500" stroke="#ffa500" points="100.9432,-265.8559 91.0204,-269.5691 101.093,-272.8543 100.9432,-265.8559"/>
<text text-anchor="middle" x="179.5" y="-271.5" font-family="Helvetica,sans-Serif" font-size="10.00" fill="#000000"> &lt; ValueType &gt;</text>
</g>
<!-- Node12 -->
<g id="node13" class="node">
<title>Node12</title>
<polygon fill="#ffffff" stroke="#bfbfbf" points="268.5,-201.5 268.5,-231.5 387.5,-231.5 387.5,-201.5 268.5,-201.5"/>
<text text-anchor="start" x="276.5" y="-219.5" font-family="Helvetica,sans-Serif" font-size="10.00" fill="#000000">std::vector&lt; std::vector</text>
<text text-anchor="middle" x="328" y="-208.5" font-family="Helvetica,sans-Serif" font-size="10.00" fill="#000000">&lt; ValueType &gt; &gt;</text>
</g>
<!-- Node9&#45;&gt;Node12 -->
<g id="edge15" class="edge">
<title>Node9&#45;&gt;Node12</title>
<path fill="none" stroke="#ffa500" stroke-dasharray="5,2" d="M85.4456,-257.9337C94.4158,-255.2365 103.9929,-252.5766 113,-250.5 164.9221,-238.5291 224.8712,-229.4306 268.2539,-223.6719"/>
<polygon fill="#ffa500" stroke="#ffa500" points="84.1585,-254.6681 75.6385,-260.9659 86.2262,-261.3558 84.1585,-254.6681"/>
<text text-anchor="middle" x="179.5" y="-253.5" font-family="Helvetica,sans-Serif" font-size="10.00" fill="#000000"> &lt; std::vector&lt; ValueType &gt; &gt;</text>
</g>
<!-- Node13 -->
<g id="node14" class="node">
<title>Node13</title>
<polygon fill="#ffffff" stroke="#bfbfbf" points="437,-127 437,-190 559,-190 559,-127 437,-127"/>
<text text-anchor="start" x="445" y="-178" font-family="Helvetica,sans-Serif" font-size="10.00" fill="#000000">std::vector&lt; std::tuple</text>
<text text-anchor="start" x="445" y="-167" font-family="Helvetica,sans-Serif" font-size="10.00" fill="#000000">&lt; int, std::vector&lt; std</text>
<text text-anchor="start" x="445" y="-156" font-family="Helvetica,sans-Serif" font-size="10.00" fill="#000000">::tuple&lt; int, int &gt; &gt;, std</text>
<text text-anchor="start" x="445" y="-145" font-family="Helvetica,sans-Serif" font-size="10.00" fill="#000000">::vector&lt; std::tuple&lt; int,</text>
<text text-anchor="middle" x="498" y="-134" font-family="Helvetica,sans-Serif" font-size="10.00" fill="#000000"> int &gt; &gt;, int, int &gt; &gt;</text>
</g>
<!-- Node9&#45;&gt;Node13 -->
<g id="edge17" class="edge">
<title>Node9&#45;&gt;Node13</title>
<path fill="none" stroke="#ffa500" stroke-dasharray="5,2" d="M53.4393,-251.2377C62.1227,-226.7982 80.8489,-185.648 113,-167.5 166.6384,-137.2233 342.4992,-145.8664 436.8641,-153.0897"/>
<polygon fill="#ffa500" stroke="#ffa500" points="50.0735,-250.2673 50.2331,-260.8609 56.7146,-252.4799 50.0735,-250.2673"/>
<text text-anchor="start" x="126" y="-214.5" font-family="Helvetica,sans-Serif" font-size="10.00" fill="#000000"> &lt; std::tuple&lt; int,</text>
<text text-anchor="start" x="126" y="-203.5" font-family="Helvetica,sans-Serif" font-size="10.00" fill="#000000"> std::vector&lt; std::tuple</text>
<text text-anchor="start" x="126" y="-192.5" font-family="Helvetica,sans-Serif" font-size="10.00" fill="#000000">&lt; int, int &gt; &gt;, std::vector</text>
<text text-anchor="start" x="126" y="-181.5" font-family="Helvetica,sans-Serif" font-size="10.00" fill="#000000">&lt; std::tuple&lt; int, int &gt; &gt;</text>
<text text-anchor="middle" x="179.5" y="-170.5" font-family="Helvetica,sans-Serif" font-size="10.00" fill="#000000">, int, int &gt; &gt;</text>
</g>
<!-- Node14 -->
<g id="node15" class="node">
<title>Node14</title>
<polygon fill="#ffffff" stroke="#bfbfbf" points="785,-347.5 785,-377.5 896,-377.5 896,-347.5 785,-347.5"/>
<text text-anchor="start" x="793" y="-365.5" font-family="Helvetica,sans-Serif" font-size="10.00" fill="#000000">std::vector&lt; unsigned</text>
<text text-anchor="middle" x="840.5" y="-354.5" font-family="Helvetica,sans-Serif" font-size="10.00" fill="#000000"> int &gt;</text>
</g>
<!-- Node9&#45;&gt;Node14 -->
<g id="edge19" class="edge">
<title>Node9&#45;&gt;Node14</title>
<path fill="none" stroke="#ffa500" stroke-dasharray="5,2" d="M58.5574,-288.5179C69.9274,-305.2429 89.2927,-329.2058 113,-340.5 341.7221,-449.464 658.4262,-401.2411 784.9969,-375.2105"/>
<polygon fill="#ffa500" stroke="#ffa500" points="61.4696,-286.576 53.0865,-280.0973 55.5997,-290.3897 61.4696,-286.576"/>
<text text-anchor="middle" x="328" y="-408.5" font-family="Helvetica,sans-Serif" font-size="10.00" fill="#000000"> &lt; unsigned int &gt;</text>
</g>
<!-- Node10 -->
<g id="node11" class="node">
<title>Node10</title>
<g id="a_node11"><a xlink:href="structschwz_1_1Metadata_1_1post__process__data.html" target="_top" xlink:title="The struct used for storing data for post&#45;processing. ">
<polygon fill="#ffffff" stroke="#000000" points="604,-232.5 604,-262.5 767,-262.5 767,-232.5 604,-232.5"/>
<text text-anchor="start" x="612" y="-250.5" font-family="Helvetica,sans-Serif" font-size="10.00" fill="#000000">schwz::Metadata&lt; ValueType,</text>
<text text-anchor="middle" x="685.5" y="-239.5" font-family="Helvetica,sans-Serif" font-size="10.00" fill="#000000"> IndexType &gt;::post_process_data</text>
</a>
</g>
</g>
<!-- Node10&#45;&gt;Node7 -->
<g id="edge11" class="edge">
<title>Node10&#45;&gt;Node7</title>
<path fill="none" stroke="#9a32cd" stroke-dasharray="5,2" d="M777.2891,-239.6367C820.9801,-235.8938 872.5733,-231.474 913.8892,-227.9345"/>
<polygon fill="#9a32cd" stroke="#9a32cd" points="776.8964,-236.1574 767.2317,-240.4983 777.494,-243.1319 776.8964,-236.1574"/>
<text text-anchor="middle" x="840.5" y="-240.5" font-family="Helvetica,sans-Serif" font-size="10.00" fill="#000000"> post_process_data</text>
</g>
<!-- Node11&#45;&gt;Node10 -->
<g id="edge12" class="edge">
<title>Node11&#45;&gt;Node10</title>
<path fill="none" stroke="#9a32cd" stroke-dasharray="5,2" d="M367.4764,-252.2584C380.8403,-248.6878 395.9415,-245.2716 410,-243.5 474.7823,-235.3364 548.8065,-237.0158 603.7991,-240.3624"/>
<polygon fill="#9a32cd" stroke="#9a32cd" points="366.3377,-248.9422 357.6416,-254.9943 368.2138,-255.6861 366.3377,-248.9422"/>
<text text-anchor="middle" x="498" y="-301.5" font-family="Helvetica,sans-Serif" font-size="10.00" fill="#000000"> local_timestamp</text>
<text text-anchor="middle" x="498" y="-290.5" font-family="Helvetica,sans-Serif" font-size="10.00" fill="#000000">local_converged_resnorm</text>
<text text-anchor="start" x="442" y="-279.5" font-family="Helvetica,sans-Serif" font-size="10.00" fill="#000000">local_residual_vector</text>
<text text-anchor="middle" x="498" y="-268.5" font-family="Helvetica,sans-Serif" font-size="10.00" fill="#000000">_out</text>
<text text-anchor="start" x="442" y="-257.5" font-family="Helvetica,sans-Serif" font-size="10.00" fill="#000000">local_converged_iter</text>
<text text-anchor="middle" x="498" y="-246.5" font-family="Helvetica,sans-Serif" font-size="10.00" fill="#000000">_count</text>
</g>
<!-- Node12&#45;&gt;Node10 -->
<g id="edge14" class="edge">
<title>Node12&#45;&gt;Node10</title>
<path fill="none" stroke="#9a32cd" stroke-dasharray="5,2" d="M397.8651,-213.9361C449.959,-213.0378 522.733,-213.9256 586,-222.5 602.0614,-224.6767 619.2767,-228.4649 634.7962,-232.4438"/>
<polygon fill="#9a32cd" stroke="#9a32cd" points="397.6594,-210.4394 387.731,-214.1378 397.7987,-217.438 397.6594,-210.4394"/>
<text text-anchor="middle" x="498" y="-225.5" font-family="Helvetica,sans-Serif" font-size="10.00" fill="#000000"> global_residual_vector_out</text>
</g>
<!-- Node13&#45;&gt;Node7 -->
<g id="edge16" class="edge">
<title>Node13&#45;&gt;Node7</title>
<path fill="none" stroke="#9a32cd" stroke-dasharray="5,2" d="M569.229,-167.6394C661.0496,-179.4208 820.014,-199.8175 913.7478,-211.8444"/>
<polygon fill="#9a32cd" stroke="#9a32cd" points="569.5569,-164.1528 559.1927,-166.3516 568.6659,-171.0959 569.5569,-164.1528"/>
<text text-anchor="middle" x="685.5" y="-195.5" font-family="Helvetica,sans-Serif" font-size="10.00" fill="#000000"> comm_data_struct</text>
</g>
<!-- Node14&#45;&gt;Node0 -->
<g id="edge18" class="edge">
<title>Node14&#45;&gt;Node0</title>
<path fill="none" stroke="#9a32cd" stroke-dasharray="5,2" d="M884.3522,-343.4162C949.3958,-315.1101 1070.1381,-262.5649 1129.5859,-236.6941"/>
<polygon fill="#9a32cd" stroke="#9a32cd" points="882.9464,-340.2108 875.1737,-347.4105 885.7397,-346.6294 882.9464,-340.2108"/>
<text text-anchor="middle" x="989" y="-342.5" font-family="Helvetica,sans-Serif" font-size="10.00" fill="#000000"> cell_weights</text>
<text text-anchor="middle" x="989" y="-331.5" font-family="Helvetica,sans-Serif" font-size="10.00" fill="#000000">partition_indices</text>
</g>
</g>
</svg>
        <g id="navigator" transform="translate(0 0)" fill="#404254">
                <rect fill="#f2f5e9" fill-opacity="0.5" stroke="#606060" stroke-width=".5" x="0" y="0" width="60" height="60"/>
                <use id="zoomplus" xlink:href="#zoomPlus" x="17" y="9" onmousedown="handleZoom(evt,'in')"/>
                <use id="zoomminus" xlink:href="#zoomMin" x="42" y="9" onmousedown="handleZoom(evt,'out')"/>
                <use id="reset" xlink:href="#resetDef" x="30" y="36" onmousedown="handleReset()"/>
                <g id="arrowUp" xlink:href="#dirArrow" transform="translate(30 24)" onmousedown="handlePan(0,-1)">
                  <use xlink:href="#rim" fill="#404040">
                        <set attributeName="fill" to="#808080" begin="arrowUp.mouseover" end="arrowUp.mouseout"/>
                  </use>
                  <path fill="none" stroke="white" stroke-width="1.5" d="M0,-3.0v7 M-2.5,-0.5L0,-3.0L2.5,-0.5"/>
                </g>
                <g id="arrowRight" xlink:href="#dirArrow" transform="rotate(90) translate(36 -43)" onmousedown="handlePan(1,0)">
                  <use xlink:href="#rim" fill="#404040">
                        <set attributeName="fill" to="#808080" begin="arrowRight.mouseover" end="arrowRight.mouseout"/>
                  </use>
                  <path fill="none" stroke="white" stroke-width="1.5" d="M0,-3.0v7 M-2.5,-0.5L0,-3.0L2.5,-0.5"/>
                </g>
                <g id="arrowDown" xlink:href="#dirArrow" transform="rotate(180) translate(-30 -48)" onmousedown="handlePan(0,1)">
                  <use xlink:href="#rim" fill="#404040">
                        <set attributeName="fill" to="#808080" begin="arrowDown.mouseover" end="arrowDown.mouseout"/>
                  </use>
                  <path fill="none" stroke="white" stroke-width="1.5" d="M0,-3.0v7 M-2.5,-0.5L0,-3.0L2.5,-0.5"/>
                </g>
                <g id="arrowLeft" xlink:href="#dirArrow" transform="rotate(270) translate(-36 17)" onmousedown="handlePan(-1,0)">
                  <use xlink:href="#rim" fill="#404040">
                        <set attributeName="fill" to="#808080" begin="arrowLeft.mouseover" end="arrowLeft.mouseout"/>
                  </use>
                  <path fill="none" stroke="white" stroke-width="1.5" d="M0,-3.0v7 M-2.5,-0.5L0,-3.0L2.5,-0.5"/>
                </g>
        </g>
        <svg viewBox="0 0 15 15" width="100%" height="30px" preserveAspectRatio="xMaxYMin meet">
         <g id="arrow_out" transform="scale(0.3 0.3)">
          <a xlink:href="classschwz_1_1Initialize__coll__graph_org.svg" target="_base">
           <rect id="button" ry="5" rx="5" y="6" x="6" height="38" width="38"
                fill="#f2f5e9" fill-opacity="0.5" stroke="#606060" stroke-width="1.0"/>
           <path id="arrow"
             d="M 11.500037,31.436501 C 11.940474,20.09759 22.043105,11.32322 32.158766,21.979434 L 37.068811,17.246167 C 37.068811,17.246167 37.088388,32 37.088388,32 L 22.160133,31.978069 C 22.160133,31.978069 26.997745,27.140456 26.997745,27.140456 C 18.528582,18.264221 13.291696,25.230495 11.500037,31.436501 z"
             style="fill:#404040;"/>
          </a>
         </g>
        </svg>
</svg>
