<?xml version="1.0" encoding="UTF-8" standalone="no"?>
<!DOCTYPE svg PUBLIC "-//W3C//DTD SVG 1.1//EN"
 "http://www.w3.org/Graphics/SVG/1.1/DTD/svg11.dtd">
<!-- Generated by graphviz version 2.40.1 (20161225.0304)
 -->
<!-- Title: SchwarzWrappers::SchwarzBase&lt; ValueType, IndexType &gt; Pages: 1 -->
<!--zoomable 401 -->
<svg id="main" version="1.1" xmlns="http://www.w3.org/2000/svg" xmlns:xlink="http://www.w3.org/1999/xlink" xml:space="preserve" onload="init(evt)">
<style type="text/css"><![CDATA[
.edge:hover path { stroke: red; }
.edge:hover polygon { stroke: red; fill: red; }
]]></style>
<script type="text/javascript"><![CDATA[
var edges = document.getElementsByTagName('g');
if (edges && edges.length) {
  for (var i=0;i<edges.length;i++) {
    if (edges[i].id.substr(0,4)=='edge') {
      edges[i].setAttribute('class','edge');
    }
  }
}
]]></script>
        <defs>
                <circle id="rim" cx="0" cy="0" r="7"/>
                <circle id="rim2" cx="0" cy="0" r="3.5"/>
                <g id="zoomPlus">
                        <use xlink:href="#rim" fill="#404040">
                                <set attributeName="fill" to="#808080" begin="zoomplus.mouseover" end="zoomplus.mouseout"/>
                        </use>
                        <path d="M-4,0h8M0,-4v8" fill="none" stroke="white" stroke-width="1.5" pointer-events="none"/>
                </g>
                <g id="zoomMin">
                        <use xlink:href="#rim" fill="#404040">
                                <set attributeName="fill" to="#808080" begin="zoomminus.mouseover" end="zoomminus.mouseout"/>
                        </use>
                        <path d="M-4,0h8" fill="none" stroke="white" stroke-width="1.5" pointer-events="none"/>
                </g>
                <g id="dirArrow">
                        <path fill="none" stroke="white" stroke-width="1.5" d="M0,-3.0v7 M-2.5,-0.5L0,-3.0L2.5,-0.5"/>
                </g>
               <g id="resetDef">
                       <use xlink:href="#rim2" fill="#404040">
                               <set attributeName="fill" to="#808080" begin="reset.mouseover" end="reset.mouseout"/>
                       </use>
               </g>
        </defs>

<script type="text/javascript">
var viewWidth = 1383;
var viewHeight = 401;
var sectionId = 'dynsection-0';
</script>
<script xlink:href="svgpan.js"/>
<svg id="graph" class="graph">
<g id="viewport">
<title>SchwarzWrappers::SchwarzBase&lt; ValueType, IndexType &gt;</title>
<polygon fill="#ffffff" stroke="transparent" points="-4,4 -4,-397 1379,-397 1379,4 -4,4"/>
<!-- Node0 -->
<g id="node1" class="node">
<title>Node0</title>
<polygon fill="#bfbfbf" stroke="#000000" points="1220,-211 1220,-241 1375,-241 1375,-211 1220,-211"/>
<text text-anchor="start" x="1228" y="-229" font-family="Helvetica,sans-Serif" font-size="10.00" fill="#000000">SchwarzWrappers::Schwarz</text>
<text text-anchor="middle" x="1297.5" y="-218" font-family="Helvetica,sans-Serif" font-size="10.00" fill="#000000">Base&lt; ValueType, IndexType &gt;</text>
</g>
<!-- Node1 -->
<g id="node2" class="node">
<title>Node1</title>
<g id="a_node2"><a xlink:href="classSchwarzWrappers_1_1Initialize.html" target="_top" xlink:title="The initialization class that provides methods for initialization of the solver. ">
<polygon fill="#ffffff" stroke="#000000" points="1031.5,-154 1031.5,-184 1170.5,-184 1170.5,-154 1031.5,-154"/>
<text text-anchor="start" x="1039.5" y="-172" font-family="Helvetica,sans-Serif" font-size="10.00" fill="#000000">SchwarzWrappers::Initialize</text>
<text text-anchor="middle" x="1101" y="-161" font-family="Helvetica,sans-Serif" font-size="10.00" fill="#000000">&lt; ValueType, IndexType &gt;</text>
</a>
</g>
</g>
<!-- Node1&#45;&gt;Node0 -->
<g id="edge1" class="edge">
<title>Node1&#45;&gt;Node0</title>
<path fill="none" stroke="#191970" d="M1162.5142,-186.8438C1189.2185,-194.5901 1220.1525,-203.5633 1245.6651,-210.9639"/>
<polygon fill="#191970" stroke="#191970" points="1163.4643,-183.4752 1152.8851,-184.0506 1161.5141,-190.1981 1163.4643,-183.4752"/>
</g>
<!-- Node2 -->
<g id="node3" class="node">
<title>Node2</title>
<g id="a_node3"><a xlink:href="structSchwarzWrappers_1_1Settings.html" target="_top" xlink:title="The struct that contains the solver settings and the parameters to be set by the user. ">
<polygon fill="#ffffff" stroke="#000000" points="770.5,-216.5 770.5,-235.5 909.5,-235.5 909.5,-216.5 770.5,-216.5"/>
<text text-anchor="middle" x="840" y="-223.5" font-family="Helvetica,sans-Serif" font-size="10.00" fill="#000000">SchwarzWrappers::Settings</text>
</a>
</g>
</g>
<!-- Node2&#45;&gt;Node1 -->
<g id="edge2" class="edge">
<title>Node2&#45;&gt;Node1</title>
<path fill="none" stroke="#191970" d="M893.5321,-214.3091C933.6032,-205.5579 988.7398,-193.5166 1032.1013,-184.0468"/>
<polygon fill="#191970" stroke="#191970" points="892.7085,-210.9064 883.6855,-216.4595 894.2021,-217.7452 892.7085,-210.9064"/>
</g>
<!-- Node16 -->
<g id="node17" class="node">
<title>Node16</title>
<g id="a_node17"><a xlink:href="classSchwarzWrappers_1_1Solve.html" target="_top" xlink:title="The Solver class the provides the solver and the convergence checking methods. ">
<polygon fill="#ffffff" stroke="#000000" points="1034.5,-211 1034.5,-241 1167.5,-241 1167.5,-211 1034.5,-211"/>
<text text-anchor="start" x="1042.5" y="-229" font-family="Helvetica,sans-Serif" font-size="10.00" fill="#000000">SchwarzWrappers::Solve</text>
<text text-anchor="middle" x="1101" y="-218" font-family="Helvetica,sans-Serif" font-size="10.00" fill="#000000">&lt; ValueType, IndexType &gt;</text>
</a>
</g>
</g>
<!-- Node2&#45;&gt;Node16 -->
<g id="edge20" class="edge">
<title>Node2&#45;&gt;Node16</title>
<path fill="none" stroke="#191970" d="M919.7587,-226C956.4119,-226 999.3905,-226 1034.2942,-226"/>
<polygon fill="#191970" stroke="#191970" points="919.6004,-222.5001 909.6004,-226 919.6003,-229.5001 919.6004,-222.5001"/>
</g>
<!-- Node3 -->
<g id="node4" class="node">
<title>Node3</title>
<g id="a_node4"><a xlink:href="structSchwarzWrappers_1_1Settings_1_1convergence__settings.html" target="_top" xlink:title="The various convergence settings available. ">
<polygon fill="#ffffff" stroke="#000000" points="453.5,-184 453.5,-214 592.5,-214 592.5,-184 453.5,-184"/>
<text text-anchor="start" x="461.5" y="-202" font-family="Helvetica,sans-Serif" font-size="10.00" fill="#000000">SchwarzWrappers::Settings</text>
<text text-anchor="middle" x="523" y="-191" font-family="Helvetica,sans-Serif" font-size="10.00" fill="#000000">::convergence_settings</text>
</a>
</g>
</g>
<!-- Node3&#45;&gt;Node2 -->
<g id="edge3" class="edge">
<title>Node3&#45;&gt;Node2</title>
<path fill="none" stroke="#9a32cd" stroke-dasharray="5,2" d="M602.6783,-205.7865C654.2791,-210.1815 720.8315,-215.85 770.3219,-220.0653"/>
<polygon fill="#9a32cd" stroke="#9a32cd" points="602.828,-202.2866 592.567,-204.9253 602.2339,-209.2614 602.828,-202.2866"/>
<text text-anchor="middle" x="684.5" y="-221" font-family="Helvetica,sans-Serif" font-size="10.00" fill="#000000"> convergence_settings</text>
</g>
<!-- Node4 -->
<g id="node5" class="node">
<title>Node4</title>
<g id="a_node5"><a xlink:title="STL class. ">
<polygon fill="#ffffff" stroke="#bfbfbf" points="493,-320.5 493,-339.5 553,-339.5 553,-320.5 493,-320.5"/>
<text text-anchor="middle" x="523" y="-327.5" font-family="Helvetica,sans-Serif" font-size="10.00" fill="#000000">std::string</text>
</a>
</g>
</g>
<!-- Node4&#45;&gt;Node2 -->
<g id="edge4" class="edge">
<title>Node4&#45;&gt;Node2</title>
<path fill="none" stroke="#9a32cd" stroke-dasharray="5,2" d="M563.2274,-336.5839C610.7504,-341.9919 689.6928,-343.227 740,-303 758.4462,-288.2499 741.0715,-269.4698 758,-253 766.057,-245.1613 776.4312,-239.5982 787.0734,-235.6501"/>
<polygon fill="#9a32cd" stroke="#9a32cd" points="563.3681,-333.0741 553.01,-335.3014 562.4962,-340.0196 563.3681,-333.0741"/>
<text text-anchor="middle" x="684.5" y="-385" font-family="Helvetica,sans-Serif" font-size="10.00" fill="#000000"> factorization</text>
<text text-anchor="middle" x="684.5" y="-374" font-family="Helvetica,sans-Serif" font-size="10.00" fill="#000000">metis_objtype</text>
<text text-anchor="middle" x="684.5" y="-363" font-family="Helvetica,sans-Serif" font-size="10.00" fill="#000000">matrix_filename</text>
<text text-anchor="middle" x="684.5" y="-352" font-family="Helvetica,sans-Serif" font-size="10.00" fill="#000000">reorder</text>
<text text-anchor="middle" x="684.5" y="-341" font-family="Helvetica,sans-Serif" font-size="10.00" fill="#000000">executor_string</text>
</g>
<!-- Node5 -->
<g id="node6" class="node">
<title>Node5</title>
<polygon fill="#ffffff" stroke="#bfbfbf" points="171,-315 171,-345 266,-345 266,-315 171,-315"/>
<text text-anchor="start" x="179" y="-333" font-family="Helvetica,sans-Serif" font-size="10.00" fill="#000000">std::basic_string&lt;</text>
<text text-anchor="middle" x="218.5" y="-322" font-family="Helvetica,sans-Serif" font-size="10.00" fill="#000000"> char &gt;</text>
</g>
<!-- Node5&#45;&gt;Node4 -->
<g id="edge5" class="edge">
<title>Node5&#45;&gt;Node4</title>
<path fill="none" stroke="#191970" d="M276.0852,-330C340.529,-330 442.4862,-330 492.8302,-330"/>
<polygon fill="#191970" stroke="#191970" points="276.0782,-326.5001 266.0781,-330 276.0781,-333.5001 276.0782,-326.5001"/>
</g>
<!-- Node6 -->
<g id="node7" class="node">
<title>Node6</title>
<g id="a_node7"><a xlink:title="STL class. ">
<polygon fill="#ffffff" stroke="#bfbfbf" points="0,-315 0,-345 95,-345 95,-315 0,-315"/>
<text text-anchor="start" x="8" y="-333" font-family="Helvetica,sans-Serif" font-size="10.00" fill="#000000">std::basic_string&lt;</text>
<text text-anchor="middle" x="47.5" y="-322" font-family="Helvetica,sans-Serif" font-size="10.00" fill="#000000"> Char &gt;</text>
</a>
</g>
</g>
<!-- Node6&#45;&gt;Node5 -->
<g id="edge6" class="edge">
<title>Node6&#45;&gt;Node5</title>
<path fill="none" stroke="#ffa500" stroke-dasharray="5,2" d="M105.357,-330C126.6579,-330 150.524,-330 170.8261,-330"/>
<polygon fill="#ffa500" stroke="#ffa500" points="105.1331,-326.5001 95.133,-330 105.133,-333.5001 105.1331,-326.5001"/>
<text text-anchor="middle" x="133" y="-333" font-family="Helvetica,sans-Serif" font-size="10.00" fill="#000000"> &lt; char &gt;</text>
</g>
<!-- Node7 -->
<g id="node8" class="node">
<title>Node7</title>
<g id="a_node8"><a xlink:href="structSchwarzWrappers_1_1Settings_1_1comm__settings.html" target="_top" xlink:title="The settings for the various available communication paradigms. ">
<polygon fill="#ffffff" stroke="#000000" points="453.5,-233 453.5,-263 592.5,-263 592.5,-233 453.5,-233"/>
<text text-anchor="start" x="461.5" y="-251" font-family="Helvetica,sans-Serif" font-size="10.00" fill="#000000">SchwarzWrappers::Settings</text>
<text text-anchor="middle" x="523" y="-240" font-family="Helvetica,sans-Serif" font-size="10.00" fill="#000000">::comm_settings</text>
</a>
</g>
</g>
<!-- Node7&#45;&gt;Node2 -->
<g id="edge7" class="edge">
<title>Node7&#45;&gt;Node2</title>
<path fill="none" stroke="#9a32cd" stroke-dasharray="5,2" d="M602.6783,-242.4703C654.2791,-238.8891 720.8315,-234.2704 770.3219,-230.8357"/>
<polygon fill="#9a32cd" stroke="#9a32cd" points="602.3006,-238.988 592.567,-243.172 602.7854,-245.9712 602.3006,-238.988"/>
<text text-anchor="middle" x="684.5" y="-244" font-family="Helvetica,sans-Serif" font-size="10.00" fill="#000000"> comm_settings</text>
</g>
<!-- Node8 -->
<g id="node9" class="node">
<title>Node8</title>
<g id="a_node9"><a xlink:href="structSchwarzWrappers_1_1Metadata.html" target="_top" xlink:title="The solver metadata struct. ">
<polygon fill="#ffffff" stroke="#000000" points="768.5,-77 768.5,-107 911.5,-107 911.5,-77 768.5,-77"/>
<text text-anchor="start" x="776.5" y="-95" font-family="Helvetica,sans-Serif" font-size="10.00" fill="#000000">SchwarzWrappers::Metadata</text>
<text text-anchor="middle" x="840" y="-84" font-family="Helvetica,sans-Serif" font-size="10.00" fill="#000000">&lt; ValueType, IndexType &gt;</text>
</a>
</g>
</g>
<!-- Node8&#45;&gt;Node1 -->
<g id="edge8" class="edge">
<title>Node8&#45;&gt;Node1</title>
<path fill="none" stroke="#191970" d="M900.6273,-109.8862C945.8477,-123.2271 1006.9427,-141.2513 1049.7401,-153.8774"/>
<polygon fill="#191970" stroke="#191970" points="901.5247,-106.5019 890.943,-107.0292 899.5439,-113.2158 901.5247,-106.5019"/>
</g>
<!-- Node9 -->
<g id="node10" class="node">
<title>Node9</title>
<polygon fill="#ffffff" stroke="#bfbfbf" points="435,-.5 435,-41.5 611,-41.5 611,-.5 435,-.5"/>
<text text-anchor="start" x="443" y="-29.5" font-family="Helvetica,sans-Serif" font-size="10.00" fill="#000000">std::vector&lt; std::tuple</text>
<text text-anchor="start" x="443" y="-18.5" font-family="Helvetica,sans-Serif" font-size="10.00" fill="#000000">&lt; int, int, int, std::</text>
<text text-anchor="middle" x="523" y="-7.5" font-family="Helvetica,sans-Serif" font-size="10.00" fill="#000000">string, std::vector&lt; ValueType &gt; &gt; &gt;</text>
</g>
<!-- Node9&#45;&gt;Node8 -->
<g id="edge9" class="edge">
<title>Node9&#45;&gt;Node8</title>
<path fill="none" stroke="#9a32cd" stroke-dasharray="5,2" d="M621.3297,-43.0234C670.509,-54.0383 728.7641,-67.086 772.7755,-76.9434"/>
<polygon fill="#9a32cd" stroke="#9a32cd" points="621.8254,-39.5477 611.3022,-40.7775 620.2954,-46.3785 621.8254,-39.5477"/>
<text text-anchor="middle" x="684.5" y="-73" font-family="Helvetica,sans-Serif" font-size="10.00" fill="#000000"> time_struct</text>
</g>
<!-- Node10 -->
<g id="node11" class="node">
<title>Node10</title>
<g id="a_node11"><a xlink:title="STL class. ">
<polygon fill="#ffffff" stroke="#bfbfbf" points="175,-106.5 175,-125.5 262,-125.5 262,-106.5 175,-106.5"/>
<text text-anchor="middle" x="218.5" y="-113.5" font-family="Helvetica,sans-Serif" font-size="10.00" fill="#000000">std::vector&lt; T &gt;</text>
</a>
</g>
</g>
<!-- Node10&#45;&gt;Node9 -->
<g id="edge10" class="edge">
<title>Node10&#45;&gt;Node9</title>
<path fill="none" stroke="#ffa500" stroke-dasharray="5,2" d="M227.1512,-97.0555C237.4962,-76.8993 256.8791,-46.025 284,-32 329.935,-8.2457 387.7181,-4.9946 434.9609,-7.9222"/>
<polygon fill="#ffa500" stroke="#ffa500" points="223.9194,-95.6978 222.688,-106.2209 230.2129,-98.7625 223.9194,-95.6978"/>
<text text-anchor="start" x="284" y="-57" font-family="Helvetica,sans-Serif" font-size="10.00" fill="#000000"> &lt; std::tuple&lt; int,</text>
<text text-anchor="start" x="284" y="-46" font-family="Helvetica,sans-Serif" font-size="10.00" fill="#000000"> int, int, std::string,</text>
<text text-anchor="middle" x="350.5" y="-35" font-family="Helvetica,sans-Serif" font-size="10.00" fill="#000000"> std::vector&lt; ValueType &gt; &gt; &gt;</text>
</g>
<!-- Node11 -->
<g id="node12" class="node">
<title>Node11</title>
<polygon fill="#ffffff" stroke="#bfbfbf" points="462,-60.5 462,-123.5 584,-123.5 584,-60.5 462,-60.5"/>
<text text-anchor="start" x="470" y="-111.5" font-family="Helvetica,sans-Serif" font-size="10.00" fill="#000000">std::vector&lt; std::tuple</text>
<text text-anchor="start" x="470" y="-100.5" font-family="Helvetica,sans-Serif" font-size="10.00" fill="#000000">&lt; int, std::vector&lt; std</text>
<text text-anchor="start" x="470" y="-89.5" font-family="Helvetica,sans-Serif" font-size="10.00" fill="#000000">::tuple&lt; int, int &gt; &gt;, std</text>
<text text-anchor="start" x="470" y="-78.5" font-family="Helvetica,sans-Serif" font-size="10.00" fill="#000000">::vector&lt; std::tuple&lt; int,</text>
<text text-anchor="middle" x="523" y="-67.5" font-family="Helvetica,sans-Serif" font-size="10.00" fill="#000000"> int &gt; &gt;, int, int &gt; &gt;</text>
</g>
<!-- Node10&#45;&gt;Node11 -->
<g id="edge12" class="edge">
<title>Node10&#45;&gt;Node11</title>
<path fill="none" stroke="#ffa500" stroke-dasharray="5,2" d="M238.8467,-100.427C251.1833,-91.9839 267.655,-82.398 284,-78 342.9005,-62.1514 412.8094,-69.0735 461.7508,-77.8679"/>
<polygon fill="#ffa500" stroke="#ffa500" points="236.7553,-97.6196 230.6554,-106.2823 240.826,-103.3143 236.7553,-97.6196"/>
<text text-anchor="start" x="297" y="-125" font-family="Helvetica,sans-Serif" font-size="10.00" fill="#000000"> &lt; std::tuple&lt; int,</text>
<text text-anchor="start" x="297" y="-114" font-family="Helvetica,sans-Serif" font-size="10.00" fill="#000000"> std::vector&lt; std::tuple</text>
<text text-anchor="start" x="297" y="-103" font-family="Helvetica,sans-Serif" font-size="10.00" fill="#000000">&lt; int, int &gt; &gt;, std::vector</text>
<text text-anchor="start" x="297" y="-92" font-family="Helvetica,sans-Serif" font-size="10.00" fill="#000000">&lt; std::tuple&lt; int, int &gt; &gt;</text>
<text text-anchor="middle" x="350.5" y="-81" font-family="Helvetica,sans-Serif" font-size="10.00" fill="#000000">, int, int &gt; &gt;</text>
</g>
<!-- Node12 -->
<g id="node13" class="node">
<title>Node12</title>
<polygon fill="#ffffff" stroke="#bfbfbf" points="629,-142 629,-172 740,-172 740,-142 629,-142"/>
<text text-anchor="start" x="637" y="-160" font-family="Helvetica,sans-Serif" font-size="10.00" fill="#000000">std::vector&lt; unsigned</text>
<text text-anchor="middle" x="684.5" y="-149" font-family="Helvetica,sans-Serif" font-size="10.00" fill="#000000"> int &gt;</text>
</g>
<!-- Node10&#45;&gt;Node12 -->
<g id="edge14" class="edge">
<title>Node10&#45;&gt;Node12</title>
<path fill="none" stroke="#ffa500" stroke-dasharray="5,2" d="M260,-128.0621C267.9114,-129.9933 276.1673,-131.7609 284,-133 405.9487,-152.2919 551.0243,-156.3745 628.74,-157.0607"/>
<polygon fill="#ffa500" stroke="#ffa500" points="260.7768,-124.6482 250.2209,-125.5559 259.0389,-131.429 260.7768,-124.6482"/>
<text text-anchor="middle" x="350.5" y="-152" font-family="Helvetica,sans-Serif" font-size="10.00" fill="#000000"> &lt; unsigned int &gt;</text>
</g>
<!-- Node15 -->
<g id="node16" class="node">
<title>Node15</title>
<polygon fill="#ffffff" stroke="#bfbfbf" points="473.5,-282.5 473.5,-301.5 572.5,-301.5 572.5,-282.5 473.5,-282.5"/>
<text text-anchor="middle" x="523" y="-289.5" font-family="Helvetica,sans-Serif" font-size="10.00" fill="#000000">std::vector&lt; bool &gt;</text>
</g>
<!-- Node10&#45;&gt;Node15 -->
<g id="edge18" class="edge">
<title>Node10&#45;&gt;Node15</title>
<path fill="none" stroke="#ffa500" stroke-dasharray="5,2" d="M235.7113,-132.5252C270.3724,-164.804 352.3532,-236.1986 435,-272 446.9325,-277.169 460.3778,-281.0886 473.1008,-284.0255"/>
<polygon fill="#ffa500" stroke="#ffa500" points="237.9904,-129.8638 228.3115,-125.5546 233.1907,-134.9591 237.9904,-129.8638"/>
<text text-anchor="middle" x="350.5" y="-266" font-family="Helvetica,sans-Serif" font-size="10.00" fill="#000000"> &lt; bool &gt;</text>
</g>
<!-- Node11&#45;&gt;Node8 -->
<g id="edge11" class="edge">
<title>Node11&#45;&gt;Node8</title>
<path fill="none" stroke="#9a32cd" stroke-dasharray="5,2" d="M594.2513,-92C646.1669,-92 716.223,-92 768.2535,-92"/>
<polygon fill="#9a32cd" stroke="#9a32cd" points="594.1208,-88.5001 584.1208,-92 594.1208,-95.5001 594.1208,-88.5001"/>
<text text-anchor="middle" x="684.5" y="-95" font-family="Helvetica,sans-Serif" font-size="10.00" fill="#000000"> comm_data_struct</text>
</g>
<!-- Node12&#45;&gt;Node1 -->
<g id="edge13" class="edge">
<title>Node12&#45;&gt;Node1</title>
<path fill="none" stroke="#9a32cd" stroke-dasharray="5,2" d="M750.2567,-158.8946C826.9196,-161.1033 953.0834,-164.7383 1031.3693,-166.9938"/>
<polygon fill="#9a32cd" stroke="#9a32cd" points="750.3356,-155.3955 740.2389,-158.6059 750.1339,-162.3926 750.3356,-155.3955"/>
<text text-anchor="middle" x="840" y="-178" font-family="Helvetica,sans-Serif" font-size="10.00" fill="#000000"> cell_weights</text>
<text text-anchor="middle" x="840" y="-167" font-family="Helvetica,sans-Serif" font-size="10.00" fill="#000000">partition_indices</text>
</g>
<!-- Node13 -->
<g id="node14" class="node">
<title>Node13</title>
<g id="a_node14"><a xlink:href="classSchwarzWrappers_1_1Communicate.html" target="_top" xlink:title="The communication class that provides the methods for the communication between the subdomains...">
<polygon fill="#ffffff" stroke="#000000" points="1019,-264 1019,-294 1183,-294 1183,-264 1019,-264"/>
<text text-anchor="start" x="1027" y="-282" font-family="Helvetica,sans-Serif" font-size="10.00" fill="#000000">SchwarzWrappers::Communicate</text>
<text text-anchor="middle" x="1101" y="-271" font-family="Helvetica,sans-Serif" font-size="10.00" fill="#000000">&lt; ValueType, IndexType &gt;</text>
</a>
</g>
</g>
<!-- Node13&#45;&gt;Node0 -->
<g id="edge15" class="edge">
<title>Node13&#45;&gt;Node0</title>
<path fill="none" stroke="#191970" d="M1166.636,-261.2966C1190.9304,-254.744 1218.2257,-247.3819 1241.5771,-241.0835"/>
<polygon fill="#191970" stroke="#191970" points="1165.5269,-257.9706 1156.7834,-263.9541 1167.3499,-264.7291 1165.5269,-257.9706"/>
</g>
<!-- Node14 -->
<g id="node15" class="node">
<title>Node14</title>
<g id="a_node15"><a xlink:href="structSchwarzWrappers_1_1Communicate_1_1comm__struct.html" target="_top" xlink:title="The communication struct used to store the communication data. ">
<polygon fill="#ffffff" stroke="#000000" points="758,-262.5 758,-303.5 922,-303.5 922,-262.5 758,-262.5"/>
<text text-anchor="start" x="766" y="-291.5" font-family="Helvetica,sans-Serif" font-size="10.00" fill="#000000">SchwarzWrappers::Communicate</text>
<text text-anchor="start" x="766" y="-280.5" font-family="Helvetica,sans-Serif" font-size="10.00" fill="#000000">&lt; ValueType, IndexType &gt;</text>
<text text-anchor="middle" x="840" y="-269.5" font-family="Helvetica,sans-Serif" font-size="10.00" fill="#000000">::comm_struct</text>
</a>
</g>
</g>
<!-- Node14&#45;&gt;Node13 -->
<g id="edge16" class="edge">
<title>Node14&#45;&gt;Node13</title>
<path fill="none" stroke="#9a32cd" stroke-dasharray="5,2" d="M932.4626,-281.5829C960.6007,-281.1517 991.3241,-280.6809 1018.7412,-280.2607"/>
<polygon fill="#9a32cd" stroke="#9a32cd" points="932.1689,-278.0869 922.2238,-281.7399 932.2763,-285.0861 932.1689,-278.0869"/>
<text text-anchor="middle" x="970.5" y="-284" font-family="Helvetica,sans-Serif" font-size="10.00" fill="#000000"> comm_struct</text>
</g>
<!-- Node15&#45;&gt;Node14 -->
<g id="edge17" class="edge">
<title>Node15&#45;&gt;Node14</title>
<path fill="none" stroke="#9a32cd" stroke-dasharray="5,2" d="M582.7515,-290.3036C632.2269,-288.8989 703.0398,-286.8885 757.8492,-285.3324"/>
<polygon fill="#9a32cd" stroke="#9a32cd" points="582.4279,-286.8113 572.5313,-290.5938 582.6266,-293.8084 582.4279,-286.8113"/>
<text text-anchor="middle" x="684.5" y="-291" font-family="Helvetica,sans-Serif" font-size="10.00" fill="#000000"> is_local_neighbor</text>
</g>
<!-- Node16&#45;&gt;Node0 -->
<g id="edge19" class="edge">
<title>Node16&#45;&gt;Node0</title>
<path fill="none" stroke="#191970" d="M1177.9237,-226C1191.6955,-226 1206.0547,-226 1219.8468,-226"/>
<polygon fill="#191970" stroke="#191970" points="1177.526,-222.5001 1167.5259,-226 1177.5259,-229.5001 1177.526,-222.5001"/>
</g>
</g>
</svg>
        <g id="navigator" transform="translate(0 0)" fill="#404254">
                <rect fill="#f2f5e9" fill-opacity="0.5" stroke="#606060" stroke-width=".5" x="0" y="0" width="60" height="60"/>
                <use id="zoomplus" xlink:href="#zoomPlus" x="17" y="9" onmousedown="handleZoom(evt,'in')"/>
                <use id="zoomminus" xlink:href="#zoomMin" x="42" y="9" onmousedown="handleZoom(evt,'out')"/>
                <use id="reset" xlink:href="#resetDef" x="30" y="36" onmousedown="handleReset()"/>
                <g id="arrowUp" xlink:href="#dirArrow" transform="translate(30 24)" onmousedown="handlePan(0,-1)">
                  <use xlink:href="#rim" fill="#404040">
                        <set attributeName="fill" to="#808080" begin="arrowUp.mouseover" end="arrowUp.mouseout"/>
                  </use>
                  <path fill="none" stroke="white" stroke-width="1.5" d="M0,-3.0v7 M-2.5,-0.5L0,-3.0L2.5,-0.5"/>
                </g>
                <g id="arrowRight" xlink:href="#dirArrow" transform="rotate(90) translate(36 -43)" onmousedown="handlePan(1,0)">
                  <use xlink:href="#rim" fill="#404040">
                        <set attributeName="fill" to="#808080" begin="arrowRight.mouseover" end="arrowRight.mouseout"/>
                  </use>
                  <path fill="none" stroke="white" stroke-width="1.5" d="M0,-3.0v7 M-2.5,-0.5L0,-3.0L2.5,-0.5"/>
                </g>
                <g id="arrowDown" xlink:href="#dirArrow" transform="rotate(180) translate(-30 -48)" onmousedown="handlePan(0,1)">
                  <use xlink:href="#rim" fill="#404040">
                        <set attributeName="fill" to="#808080" begin="arrowDown.mouseover" end="arrowDown.mouseout"/>
                  </use>
                  <path fill="none" stroke="white" stroke-width="1.5" d="M0,-3.0v7 M-2.5,-0.5L0,-3.0L2.5,-0.5"/>
                </g>
                <g id="arrowLeft" xlink:href="#dirArrow" transform="rotate(270) translate(-36 17)" onmousedown="handlePan(-1,0)">
                  <use xlink:href="#rim" fill="#404040">
                        <set attributeName="fill" to="#808080" begin="arrowLeft.mouseover" end="arrowLeft.mouseout"/>
                  </use>
                  <path fill="none" stroke="white" stroke-width="1.5" d="M0,-3.0v7 M-2.5,-0.5L0,-3.0L2.5,-0.5"/>
                </g>
        </g>
        <svg viewBox="0 0 15 15" width="100%" height="30px" preserveAspectRatio="xMaxYMin meet">
         <g id="arrow_out" transform="scale(0.3 0.3)">
          <a xlink:href="classSchwarzWrappers_1_1SchwarzBase__coll__graph_org.svg" target="_base">
           <rect id="button" ry="5" rx="5" y="6" x="6" height="38" width="38"
                fill="#f2f5e9" fill-opacity="0.5" stroke="#606060" stroke-width="1.0"/>
           <path id="arrow"
             d="M 11.500037,31.436501 C 11.940474,20.09759 22.043105,11.32322 32.158766,21.979434 L 37.068811,17.246167 C 37.068811,17.246167 37.088388,32 37.088388,32 L 22.160133,31.978069 C 22.160133,31.978069 26.997745,27.140456 26.997745,27.140456 C 18.528582,18.264221 13.291696,25.230495 11.500037,31.436501 z"
             style="fill:#404040;"/>
          </a>
         </g>
        </svg>
</svg>
