<?xml version="1.0" encoding="UTF-8" standalone="no"?>
<!DOCTYPE svg PUBLIC "-//W3C//DTD SVG 1.1//EN"
 "http://www.w3.org/Graphics/SVG/1.1/DTD/svg11.dtd">
<!-- Generated by graphviz version 2.40.1 (20161225.0304)
 -->
<!-- Title: Communicate Pages: 1 -->
<svg width="316pt" height="89pt"
 viewBox="0.00 0.00 316.00 88.63" xmlns="http://www.w3.org/2000/svg" xmlns:xlink="http://www.w3.org/1999/xlink">
<g id="graph0" class="graph" transform="scale(1 1) rotate(0) translate(4 84.6332)">
<title>Communicate</title>
<polygon fill="#ffffff" stroke="transparent" points="-4,4 -4,-84.6332 312,-84.6332 312,4 -4,4"/>
<!-- Node2 -->
<g id="node1" class="node">
<title>Node2</title>
<g id="a_node1"><a xlink:href="group__solve.html" target="_top" xlink:title="A module dedicated to the solvers including local solution and convergence detection in schwarz&#45;lib...">
<polygon fill="#ffffff" stroke="#000000" points="253.5,-61.1332 253.5,-80.1332 294.5,-80.1332 294.5,-61.1332 253.5,-61.1332"/>
<text text-anchor="middle" x="274" y="-68.1332" font-family="Helvetica,sans-Serif" font-size="10.00" fill="#000000">Solve</text>
</a>
</g>
</g>
<!-- Node0 -->
<g id="node2" class="node">
<title>Node0</title>
<polygon fill="#bfbfbf" stroke="#000000" points="0,-27.1332 0,-46.1332 77,-46.1332 77,-27.1332 0,-27.1332"/>
<text text-anchor="middle" x="38.5" y="-34.1332" font-family="Helvetica,sans-Serif" font-size="10.00" fill="#000000">Communicate</text>
</g>
<!-- Node0&#45;&gt;Node2 -->
<g id="edge2" class="edge">
<title>Node0&#45;&gt;Node2</title>
<path fill="none" stroke="#ffa500" stroke-dasharray="5,2" d="M77.0629,-43.6806C83.0608,-44.7124 89.1925,-45.7303 95,-46.6332 152.1623,-55.5199 219.9055,-64.0632 253.2873,-68.1421"/>
<text text-anchor="middle" x="158.5" y="-66.6332" font-family="Helvetica,sans-Serif" font-size="10.00" fill="#000000">SchwarzWrappers::Metadata</text>
</g>
<!-- Node1 -->
<g id="node3" class="node">
<title>Node1</title>
<g id="a_node3"><a xlink:href="group__init.html" target="_top" xlink:title="A module dedicated to the initialization and setup and usage of the solvers in schwarz&#45;lib. ">
<polygon fill="#ffffff" stroke="#000000" points="240,-8.1332 240,-27.1332 308,-27.1332 308,-8.1332 240,-8.1332"/>
<text text-anchor="middle" x="274" y="-15.1332" font-family="Helvetica,sans-Serif" font-size="10.00" fill="#000000">Initialization</text>
</a>
</g>
</g>
<!-- Node0&#45;&gt;Node1 -->
<g id="edge1" class="edge">
<title>Node0&#45;&gt;Node1</title>
<path fill="none" stroke="#ffa500" stroke-dasharray="5,2" d="M77.1243,-33.517C122.4042,-29.8638 196.7383,-23.8666 239.9464,-20.3806"/>
<text text-anchor="middle" x="158.5" y="-34.6332" font-family="Helvetica,sans-Serif" font-size="10.00" fill="#000000">SchwarzWrappers::Metadata</text>
</g>
<!-- Node0&#45;&gt;Node1 -->
<g id="edge3" class="edge">
<title>Node0&#45;&gt;Node1</title>
<path fill="none" stroke="#8a2be2" stroke-dasharray="5,2" d="M52.1152,-26.9466C63.1014,-19.7581 79.2657,-10.5514 95,-6.6332 144.2461,5.6303 203.3489,-2.1825 239.7916,-9.4775"/>
<text text-anchor="middle" x="158.5" y="-9.6332" font-family="Helvetica,sans-Serif" font-size="10.00" fill="#000000">ProcessTopology</text>
</g>
</g>
</svg>
