<?xml version="1.0" encoding="UTF-8" standalone="no"?>
<!DOCTYPE svg PUBLIC "-//W3C//DTD SVG 1.1//EN"
 "http://www.w3.org/Graphics/SVG/1.1/DTD/svg11.dtd">
<!-- Generated by graphviz version 2.40.1 (20161225.0304)
 -->
<!-- Title: Graphical Class Hierarchy Pages: 1 -->
<svg width="316pt" height="218pt"
 viewBox="0.00 0.00 316.00 218.00" xmlns="http://www.w3.org/2000/svg" xmlns:xlink="http://www.w3.org/1999/xlink">
<g id="graph0" class="graph" transform="scale(1 1) rotate(0) translate(4 214)">
<title>Graphical Class Hierarchy</title>
<polygon fill="#ffffff" stroke="transparent" points="-4,4 -4,-214 312,-214 312,4 -4,4"/>
<!-- Node9 -->
<g id="node1" class="node">
<title>Node9</title>
<g id="a_node1"><a xlink:title="STL class. ">
<polygon fill="#ffffff" stroke="#bfbfbf" points="0,-95.5 0,-114.5 78,-114.5 78,-95.5 0,-95.5"/>
<text text-anchor="middle" x="39" y="-102.5" font-family="Helvetica,sans-Serif" font-size="10.00" fill="#000000">std::exception</text>
</a>
</g>
</g>
<!-- Node0 -->
<g id="node2" class="node">
<title>Node0</title>
<g id="a_node2"><a xlink:href="classError.html" target="_top" xlink:title="Error">
<polygon fill="#ffffff" stroke="#000000" points="114,-95.5 114,-114.5 152,-114.5 152,-95.5 114,-95.5"/>
<text text-anchor="middle" x="133" y="-102.5" font-family="Helvetica,sans-Serif" font-size="10.00" fill="#000000">Error</text>
</a>
</g>
</g>
<!-- Node9&#45;&gt;Node0 -->
<g id="edge1" class="edge">
<title>Node9&#45;&gt;Node0</title>
<path fill="none" stroke="#191970" d="M88.3242,-105C97.4472,-105 106.4532,-105 113.9627,-105"/>
<polygon fill="#191970" stroke="#191970" points="88.0479,-101.5001 78.0478,-105 88.0478,-108.5001 88.0479,-101.5001"/>
</g>
<!-- Node1 -->
<g id="node3" class="node">
<title>Node1</title>
<g id="a_node3"><a xlink:href="classBadDimension.html" target="_top" xlink:title="BadDimension is thrown if an operation is being applied to a LinOp with bad dimensions. ">
<polygon fill="#ffffff" stroke="#000000" points="208,-190.5 208,-209.5 288,-209.5 288,-190.5 208,-190.5"/>
<text text-anchor="middle" x="248" y="-197.5" font-family="Helvetica,sans-Serif" font-size="10.00" fill="#000000">BadDimension</text>
</a>
</g>
</g>
<!-- Node0&#45;&gt;Node1 -->
<g id="edge2" class="edge">
<title>Node0&#45;&gt;Node1</title>
<path fill="none" stroke="#191970" d="M142.1347,-123.8141C151.4195,-141.0534 167.3605,-166.0928 188,-181 193.9346,-185.2864 200.8727,-188.6306 207.8824,-191.2321"/>
<polygon fill="#191970" stroke="#191970" points="145.1354,-121.9956 137.4519,-114.7007 138.9092,-125.1949 145.1354,-121.9956"/>
</g>
<!-- Node2 -->
<g id="node4" class="node">
<title>Node2</title>
<g id="a_node4"><a xlink:href="classCudaError.html" target="_top" xlink:title="CudaError is thrown when a CUDA routine throws a non&#45;zero error code. ">
<polygon fill="#ffffff" stroke="#000000" points="217.5,-152.5 217.5,-171.5 278.5,-171.5 278.5,-152.5 217.5,-152.5"/>
<text text-anchor="middle" x="248" y="-159.5" font-family="Helvetica,sans-Serif" font-size="10.00" fill="#000000">CudaError</text>
</a>
</g>
</g>
<!-- Node0&#45;&gt;Node2 -->
<g id="edge3" class="edge">
<title>Node0&#45;&gt;Node2</title>
<path fill="none" stroke="#191970" d="M152.7121,-120.7584C162.818,-128.2684 175.5865,-136.917 188,-143 197.2231,-147.5195 207.7625,-151.2818 217.4082,-154.2334"/>
<polygon fill="#191970" stroke="#191970" points="154.6611,-117.8426 144.5925,-114.5449 150.407,-123.4016 154.6611,-117.8426"/>
</g>
<!-- Node3 -->
<g id="node5" class="node">
<title>Node3</title>
<g id="a_node5"><a xlink:href="classCusparseError.html" target="_top" xlink:title="CusparseError is thrown when a cuSPARSE routine throws a non&#45;zero error code. ">
<polygon fill="#ffffff" stroke="#000000" points="208,-114.5 208,-133.5 288,-133.5 288,-114.5 208,-114.5"/>
<text text-anchor="middle" x="248" y="-121.5" font-family="Helvetica,sans-Serif" font-size="10.00" fill="#000000">CusparseError</text>
</a>
</g>
</g>
<!-- Node0&#45;&gt;Node3 -->
<g id="edge4" class="edge">
<title>Node0&#45;&gt;Node3</title>
<path fill="none" stroke="#191970" d="M162.1636,-109.8183C175.9705,-112.0995 192.6837,-114.8608 207.6801,-117.3385"/>
<polygon fill="#191970" stroke="#191970" points="162.6852,-106.3571 152.2484,-108.1802 161.5441,-113.2635 162.6852,-106.3571"/>
</g>
<!-- Node4 -->
<g id="node6" class="node">
<title>Node4</title>
<g id="a_node6"><a xlink:href="classMetisError.html" target="_top" xlink:title="MetisError is thrown when a METIS routine throws a non&#45;zero error code. ">
<polygon fill="#ffffff" stroke="#000000" points="217,-76.5 217,-95.5 279,-95.5 279,-76.5 217,-76.5"/>
<text text-anchor="middle" x="248" y="-83.5" font-family="Helvetica,sans-Serif" font-size="10.00" fill="#000000">MetisError</text>
</a>
</g>
</g>
<!-- Node0&#45;&gt;Node4 -->
<g id="edge5" class="edge">
<title>Node0&#45;&gt;Node4</title>
<path fill="none" stroke="#191970" d="M162.529,-100.1213C179.2122,-97.3649 200.0486,-93.9224 216.9717,-91.1264"/>
<polygon fill="#191970" stroke="#191970" points="161.5441,-96.7365 152.2484,-101.8198 162.6852,-103.6429 161.5441,-96.7365"/>
</g>
<!-- Node5 -->
<g id="node7" class="node">
<title>Node5</title>
<g id="a_node7"><a xlink:href="classModuleNotImplemented.html" target="_top" xlink:title="ModuleNotImplemented">
<polygon fill="#ffffff" stroke="#000000" points="188,-38.5 188,-57.5 308,-57.5 308,-38.5 188,-38.5"/>
<text text-anchor="middle" x="248" y="-45.5" font-family="Helvetica,sans-Serif" font-size="10.00" fill="#000000">ModuleNotImplemented</text>
</a>
</g>
</g>
<!-- Node0&#45;&gt;Node5 -->
<g id="edge6" class="edge">
<title>Node0&#45;&gt;Node5</title>
<path fill="none" stroke="#191970" d="M152.7121,-89.2416C162.818,-81.7316 175.5865,-73.083 188,-67 195.4569,-63.3459 203.7744,-60.1869 211.7842,-57.551"/>
<polygon fill="#191970" stroke="#191970" points="150.407,-86.5984 144.5925,-95.4551 154.6611,-92.1574 150.407,-86.5984"/>
</g>
<!-- Node6 -->
<g id="node8" class="node">
<title>Node6</title>
<g id="a_node8"><a xlink:href="classNotImplemented.html" target="_top" xlink:title="NotImplemented">
<polygon fill="#ffffff" stroke="#000000" points="203.5,-.5 203.5,-19.5 292.5,-19.5 292.5,-.5 203.5,-.5"/>
<text text-anchor="middle" x="248" y="-7.5" font-family="Helvetica,sans-Serif" font-size="10.00" fill="#000000">NotImplemented</text>
</a>
</g>
</g>
<!-- Node0&#45;&gt;Node6 -->
<g id="edge7" class="edge">
<title>Node0&#45;&gt;Node6</title>
<path fill="none" stroke="#191970" d="M142.1347,-86.1859C151.4195,-68.9466 167.3605,-43.9072 188,-29 193.3146,-25.1614 199.4339,-22.0785 205.6887,-19.6079"/>
<polygon fill="#191970" stroke="#191970" points="138.9092,-84.8051 137.4519,-95.2993 145.1354,-88.0044 138.9092,-84.8051"/>
</g>
</g>
</svg>
