<?xml version="1.0" encoding="UTF-8" standalone="no"?>
<!DOCTYPE svg PUBLIC "-//W3C//DTD SVG 1.1//EN"
 "http://www.w3.org/Graphics/SVG/1.1/DTD/svg11.dtd">
<!-- Generated by graphviz version 2.40.1 (20161225.0304)
 -->
<!-- Title: Graphical Class Hierarchy Pages: 1 -->
<svg width="244pt" height="88pt"
 viewBox="0.00 0.00 244.00 88.00" xmlns="http://www.w3.org/2000/svg" xmlns:xlink="http://www.w3.org/1999/xlink">
<g id="graph0" class="graph" transform="scale(1 1) rotate(0) translate(4 84)">
<title>Graphical Class Hierarchy</title>
<polygon fill="#ffffff" stroke="transparent" points="-4,4 -4,-84 240,-84 240,4 -4,4"/>
<!-- Node7 -->
<g id="node1" class="node">
<title>Node7</title>
<polygon fill="#ffffff" stroke="#bfbfbf" points="0,-30 0,-49 59,-49 59,-30 0,-30"/>
<text text-anchor="middle" x="29.5" y="-37" font-family="Helvetica,sans-Serif" font-size="10.00" fill="#000000">Operation</text>
</g>
<!-- Node0 -->
<g id="node2" class="node">
<title>Node0</title>
<g id="a_node2"><a xlink:href="structschwz_1_1Gather.html" target="_top" xlink:title="schwz::Gather\&lt; ValueType,\l IndexType \&gt;">
<polygon fill="#ffffff" stroke="#000000" points="96,-49.5 96,-79.5 235,-79.5 235,-49.5 96,-49.5"/>
<text text-anchor="start" x="104" y="-67.5" font-family="Helvetica,sans-Serif" font-size="10.00" fill="#000000">schwz::Gather&lt; ValueType,</text>
<text text-anchor="middle" x="165.5" y="-56.5" font-family="Helvetica,sans-Serif" font-size="10.00" fill="#000000"> IndexType &gt;</text>
</a>
</g>
</g>
<!-- Node7&#45;&gt;Node0 -->
<g id="edge1" class="edge">
<title>Node7&#45;&gt;Node0</title>
<path fill="none" stroke="#191970" d="M68.9451,-46.7509C77.422,-48.3092 86.6222,-50.0004 95.8628,-51.699"/>
<polygon fill="#191970" stroke="#191970" points="69.478,-43.2903 59.01,-44.9246 68.2124,-50.175 69.478,-43.2903"/>
</g>
<!-- Node9 -->
<g id="node3" class="node">
<title>Node9</title>
<g id="a_node3"><a xlink:href="structschwz_1_1Scatter.html" target="_top" xlink:title="schwz::Scatter\&lt; ValueType,\l IndexType \&gt;">
<polygon fill="#ffffff" stroke="#000000" points="95,-.5 95,-30.5 236,-30.5 236,-.5 95,-.5"/>
<text text-anchor="start" x="103" y="-18.5" font-family="Helvetica,sans-Serif" font-size="10.00" fill="#000000">schwz::Scatter&lt; ValueType,</text>
<text text-anchor="middle" x="165.5" y="-7.5" font-family="Helvetica,sans-Serif" font-size="10.00" fill="#000000"> IndexType &gt;</text>
</a>
</g>
</g>
<!-- Node7&#45;&gt;Node9 -->
<g id="edge2" class="edge">
<title>Node7&#45;&gt;Node9</title>
<path fill="none" stroke="#191970" d="M68.9212,-32.5433C77.064,-31.1063 85.8752,-29.5514 94.749,-27.9855"/>
<polygon fill="#191970" stroke="#191970" points="68.2495,-29.1077 59.01,-34.2924 69.4661,-36.0012 68.2495,-29.1077"/>
</g>
</g>
</svg>
