<?xml version="1.0" encoding="UTF-8" standalone="no"?>
<!DOCTYPE svg PUBLIC "-//W3C//DTD SVG 1.1//EN"
 "http://www.w3.org/Graphics/SVG/1.1/DTD/svg11.dtd">
<!-- Generated by graphviz version 2.40.1 (20161225.0304)
 -->
<!-- Title: schwz::Metadata&lt; ValueType, IndexType &gt;::post_process_data Pages: 1 -->
<svg width="331pt" height="239pt"
 viewBox="0.00 0.00 331.00 239.00" xmlns="http://www.w3.org/2000/svg" xmlns:xlink="http://www.w3.org/1999/xlink">
<g id="graph0" class="graph" transform="scale(1 1) rotate(0) translate(4 235)">
<title>schwz::Metadata&lt; ValueType, IndexType &gt;::post_process_data</title>
<polygon fill="#ffffff" stroke="transparent" points="-4,4 -4,-235 327,-235 327,4 -4,4"/>
<!-- Node0 -->
<g id="node1" class="node">
<title>Node0</title>
<polygon fill="#bfbfbf" stroke="#000000" points="52.5,-.5 52.5,-30.5 215.5,-30.5 215.5,-.5 52.5,-.5"/>
<text text-anchor="start" x="60.5" y="-18.5" font-family="Helvetica,sans-Serif" font-size="10.00" fill="#000000">schwz::Metadata&lt; ValueType,</text>
<text text-anchor="middle" x="134" y="-7.5" font-family="Helvetica,sans-Serif" font-size="10.00" fill="#000000"> IndexType &gt;::post_process_data</text>
</g>
<!-- Node1 -->
<g id="node2" class="node">
<title>Node1</title>
<polygon fill="#ffffff" stroke="#bfbfbf" points="0,-139 0,-158 128,-158 128,-139 0,-139"/>
<text text-anchor="middle" x="64" y="-146" font-family="Helvetica,sans-Serif" font-size="10.00" fill="#000000">std::vector&lt; ValueType &gt;</text>
</g>
<!-- Node1&#45;&gt;Node0 -->
<g id="edge1" class="edge">
<title>Node1&#45;&gt;Node0</title>
<path fill="none" stroke="#9a32cd" stroke-dasharray="5,2" d="M59.8668,-128.8867C56.4825,-107.4616 54.4664,-73.0014 70,-49 74.9743,-41.3141 82.3157,-35.2876 90.2699,-30.599"/>
<polygon fill="#9a32cd" stroke="#9a32cd" points="56.4337,-129.5707 61.6755,-138.778 63.3196,-128.3115 56.4337,-129.5707"/>
<text text-anchor="middle" x="126" y="-107" font-family="Helvetica,sans-Serif" font-size="10.00" fill="#000000"> local_timestamp</text>
<text text-anchor="middle" x="126" y="-96" font-family="Helvetica,sans-Serif" font-size="10.00" fill="#000000">local_converged_resnorm</text>
<text text-anchor="start" x="70" y="-85" font-family="Helvetica,sans-Serif" font-size="10.00" fill="#000000">local_residual_vector</text>
<text text-anchor="middle" x="126" y="-74" font-family="Helvetica,sans-Serif" font-size="10.00" fill="#000000">_out</text>
<text text-anchor="start" x="70" y="-63" font-family="Helvetica,sans-Serif" font-size="10.00" fill="#000000">local_converged_iter</text>
<text text-anchor="middle" x="126" y="-52" font-family="Helvetica,sans-Serif" font-size="10.00" fill="#000000">_count</text>
</g>
<!-- Node2 -->
<g id="node3" class="node">
<title>Node2</title>
<g id="a_node3"><a xlink:title="STL class. ">
<polygon fill="#ffffff" stroke="#bfbfbf" points="90.5,-211.5 90.5,-230.5 177.5,-230.5 177.5,-211.5 90.5,-211.5"/>
<text text-anchor="middle" x="134" y="-218.5" font-family="Helvetica,sans-Serif" font-size="10.00" fill="#000000">std::vector&lt; T &gt;</text>
</a>
</g>
</g>
<!-- Node2&#45;&gt;Node1 -->
<g id="edge2" class="edge">
<title>Node2&#45;&gt;Node1</title>
<path fill="none" stroke="#ffa500" stroke-dasharray="5,2" d="M115.2398,-204.6964C111.1222,-200.9426 106.8458,-196.9038 103,-193 91.7533,-181.5837 79.7314,-167.5565 72.0553,-158.3397"/>
<polygon fill="#ffa500" stroke="#ffa500" points="113.0171,-207.404 122.8075,-211.4537 117.6794,-202.1826 113.0171,-207.404"/>
<text text-anchor="middle" x="137" y="-185" font-family="Helvetica,sans-Serif" font-size="10.00" fill="#000000"> &lt; ValueType &gt;</text>
</g>
<!-- Node3 -->
<g id="node4" class="node">
<title>Node3</title>
<polygon fill="#ffffff" stroke="#bfbfbf" points="146.5,-133.5 146.5,-163.5 265.5,-163.5 265.5,-133.5 146.5,-133.5"/>
<text text-anchor="start" x="154.5" y="-151.5" font-family="Helvetica,sans-Serif" font-size="10.00" fill="#000000">std::vector&lt; std::vector</text>
<text text-anchor="middle" x="206" y="-140.5" font-family="Helvetica,sans-Serif" font-size="10.00" fill="#000000">&lt; ValueType &gt; &gt;</text>
</g>
<!-- Node2&#45;&gt;Node3 -->
<g id="edge4" class="edge">
<title>Node2&#45;&gt;Node3</title>
<path fill="none" stroke="#ffa500" stroke-dasharray="5,2" d="M156.503,-205.4297C161.4786,-201.5955 166.5804,-197.3379 171,-193 180.1191,-184.0495 189.0021,-172.714 195.5374,-163.7238"/>
<polygon fill="#ffa500" stroke="#ffa500" points="154.3546,-202.6653 148.391,-211.4224 158.5139,-208.2956 154.3546,-202.6653"/>
<text text-anchor="middle" x="247.5" y="-185" font-family="Helvetica,sans-Serif" font-size="10.00" fill="#000000"> &lt; std::vector&lt; ValueType &gt; &gt;</text>
</g>
<!-- Node3&#45;&gt;Node0 -->
<g id="edge3" class="edge">
<title>Node3&#45;&gt;Node0</title>
<path fill="none" stroke="#9a32cd" stroke-dasharray="5,2" d="M204.8242,-123.0821C202.741,-101.6845 197.1028,-71.1195 182,-49 177.072,-41.7824 170.038,-35.6336 162.8691,-30.6499"/>
<polygon fill="#9a32cd" stroke="#9a32cd" points="201.3572,-123.6437 205.6209,-133.3428 208.3362,-123.1018 201.3572,-123.6437"/>
<text text-anchor="middle" x="263.5" y="-79.5" font-family="Helvetica,sans-Serif" font-size="10.00" fill="#000000"> global_residual_vector_out</text>
</g>
</g>
</svg>
