<?xml version="1.0" encoding="UTF-8" standalone="no"?>
<!DOCTYPE svg PUBLIC "-//W3C//DTD SVG 1.1//EN"
 "http://www.w3.org/Graphics/SVG/1.1/DTD/svg11.dtd">
<!-- Generated by graphviz version 2.40.1 (20161225.0304)
 -->
<!-- Title: schwz::Communicate&lt; ValueType, IndexType &gt;::comm_struct Pages: 1 -->
<svg width="149pt" height="184pt"
 viewBox="0.00 0.00 149.00 184.00" xmlns="http://www.w3.org/2000/svg" xmlns:xlink="http://www.w3.org/1999/xlink">
<g id="graph0" class="graph" transform="scale(1 1) rotate(0) translate(4 180)">
<title>schwz::Communicate&lt; ValueType, IndexType &gt;::comm_struct</title>
<polygon fill="#ffffff" stroke="transparent" points="-4,4 -4,-180 145,-180 145,4 -4,4"/>
<!-- Node0 -->
<g id="node1" class="node">
<title>Node0</title>
<polygon fill="#bfbfbf" stroke="#000000" points="0,-.5 0,-41.5 124,-41.5 124,-.5 0,-.5"/>
<text text-anchor="start" x="8" y="-29.5" font-family="Helvetica,sans-Serif" font-size="10.00" fill="#000000">schwz::Communicate</text>
<text text-anchor="start" x="8" y="-18.5" font-family="Helvetica,sans-Serif" font-size="10.00" fill="#000000">&lt; ValueType, IndexType</text>
<text text-anchor="middle" x="62" y="-7.5" font-family="Helvetica,sans-Serif" font-size="10.00" fill="#000000"> &gt;::comm_struct</text>
</g>
<!-- Node1 -->
<g id="node2" class="node">
<title>Node1</title>
<polygon fill="#ffffff" stroke="#bfbfbf" points="12.5,-89.5 12.5,-108.5 111.5,-108.5 111.5,-89.5 12.5,-89.5"/>
<text text-anchor="middle" x="62" y="-96.5" font-family="Helvetica,sans-Serif" font-size="10.00" fill="#000000">std::vector&lt; bool &gt;</text>
</g>
<!-- Node1&#45;&gt;Node0 -->
<g id="edge1" class="edge">
<title>Node1&#45;&gt;Node0</title>
<path fill="none" stroke="#9a32cd" stroke-dasharray="5,2" d="M62,-79.1881C62,-67.7521 62,-53.3843 62,-41.7873"/>
<polygon fill="#9a32cd" stroke="#9a32cd" points="58.5001,-79.4356 62,-89.4357 65.5001,-79.4357 58.5001,-79.4356"/>
<text text-anchor="middle" x="101.5" y="-63" font-family="Helvetica,sans-Serif" font-size="10.00" fill="#000000"> is_local_neighbor</text>
</g>
<!-- Node2 -->
<g id="node3" class="node">
<title>Node2</title>
<g id="a_node3"><a xlink:title="STL class. ">
<polygon fill="#ffffff" stroke="#bfbfbf" points="18.5,-156.5 18.5,-175.5 105.5,-175.5 105.5,-156.5 18.5,-156.5"/>
<text text-anchor="middle" x="62" y="-163.5" font-family="Helvetica,sans-Serif" font-size="10.00" fill="#000000">std::vector&lt; T &gt;</text>
</a>
</g>
</g>
<!-- Node2&#45;&gt;Node1 -->
<g id="edge2" class="edge">
<title>Node2&#45;&gt;Node1</title>
<path fill="none" stroke="#ffa500" stroke-dasharray="5,2" d="M62,-146.1079C62,-133.714 62,-118.3263 62,-108.5817"/>
<polygon fill="#ffa500" stroke="#ffa500" points="58.5001,-146.4005 62,-156.4005 65.5001,-146.4006 58.5001,-146.4005"/>
<text text-anchor="middle" x="82" y="-130" font-family="Helvetica,sans-Serif" font-size="10.00" fill="#000000"> &lt; bool &gt;</text>
</g>
</g>
</svg>
