<?xml version="1.0" encoding="UTF-8" standalone="no"?>
<!DOCTYPE svg PUBLIC "-//W3C//DTD SVG 1.1//EN"
 "http://www.w3.org/Graphics/SVG/1.1/DTD/svg11.dtd">
<!-- Generated by graphviz version 2.40.1 (20161225.0304)
 -->
<!-- Title: schwz::Communicate&lt; ValueType, IndexType, MixedValueType &gt;::comm_struct Pages: 1 -->
<svg width="154pt" height="195pt"
 viewBox="0.00 0.00 154.00 195.00" xmlns="http://www.w3.org/2000/svg" xmlns:xlink="http://www.w3.org/1999/xlink">
<g id="graph0" class="graph" transform="scale(1 1) rotate(0) translate(4 191)">
<title>schwz::Communicate&lt; ValueType, IndexType, MixedValueType &gt;::comm_struct</title>
<polygon fill="#ffffff" stroke="transparent" points="-4,4 -4,-191 150,-191 150,4 -4,4"/>
<!-- Node0 -->
<g id="node1" class="node">
<title>Node0</title>
<polygon fill="#bfbfbf" stroke="#000000" points="0,-.5 0,-52.5 134,-52.5 134,-.5 0,-.5"/>
<text text-anchor="start" x="8" y="-40.5" font-family="Helvetica,sans-Serif" font-size="10.00" fill="#000000">schwz::Communicate</text>
<text text-anchor="start" x="8" y="-29.5" font-family="Helvetica,sans-Serif" font-size="10.00" fill="#000000">&lt; ValueType, IndexType,</text>
<text text-anchor="start" x="8" y="-18.5" font-family="Helvetica,sans-Serif" font-size="10.00" fill="#000000"> MixedValueType &gt;::comm</text>
<text text-anchor="middle" x="67" y="-7.5" font-family="Helvetica,sans-Serif" font-size="10.00" fill="#000000">_struct</text>
</g>
<!-- Node1 -->
<g id="node2" class="node">
<title>Node1</title>
<polygon fill="#ffffff" stroke="#bfbfbf" points="17.5,-100.5 17.5,-119.5 116.5,-119.5 116.5,-100.5 17.5,-100.5"/>
<text text-anchor="middle" x="67" y="-107.5" font-family="Helvetica,sans-Serif" font-size="10.00" fill="#000000">std::vector&lt; bool &gt;</text>
</g>
<!-- Node1&#45;&gt;Node0 -->
<g id="edge1" class="edge">
<title>Node1&#45;&gt;Node0</title>
<path fill="none" stroke="#9a32cd" stroke-dasharray="5,2" d="M67,-90.3677C67,-79.1228 67,-64.8683 67,-52.6801"/>
<polygon fill="#9a32cd" stroke="#9a32cd" points="63.5001,-90.4215 67,-100.4215 70.5001,-90.4215 63.5001,-90.4215"/>
<text text-anchor="middle" x="106.5" y="-74" font-family="Helvetica,sans-Serif" font-size="10.00" fill="#000000"> is_local_neighbor</text>
</g>
<!-- Node2 -->
<g id="node3" class="node">
<title>Node2</title>
<g id="a_node3"><a xlink:title="STL class. ">
<polygon fill="#ffffff" stroke="#bfbfbf" points="23.5,-167.5 23.5,-186.5 110.5,-186.5 110.5,-167.5 23.5,-167.5"/>
<text text-anchor="middle" x="67" y="-174.5" font-family="Helvetica,sans-Serif" font-size="10.00" fill="#000000">std::vector&lt; T &gt;</text>
</a>
</g>
</g>
<!-- Node2&#45;&gt;Node1 -->
<g id="edge2" class="edge">
<title>Node2&#45;&gt;Node1</title>
<path fill="none" stroke="#ffa500" stroke-dasharray="5,2" d="M67,-157.1079C67,-144.714 67,-129.3263 67,-119.5817"/>
<polygon fill="#ffa500" stroke="#ffa500" points="63.5001,-157.4005 67,-167.4005 70.5001,-157.4006 63.5001,-157.4005"/>
<text text-anchor="middle" x="87" y="-141" font-family="Helvetica,sans-Serif" font-size="10.00" fill="#000000"> &lt; bool &gt;</text>
</g>
</g>
</svg>
