<?xml version="1.0" encoding="UTF-8" standalone="no"?>
<!DOCTYPE svg PUBLIC "-//W3C//DTD SVG 1.1//EN"
 "http://www.w3.org/Graphics/SVG/1.1/DTD/svg11.dtd">
<!-- Generated by graphviz version 2.40.1 (20161225.0304)
 -->
<!-- Title: schwz::SolverRAS&lt; ValueType, IndexType &gt; Pages: 1 -->
<!--zoomable 530 -->
<svg id="main" version="1.1" xmlns="http://www.w3.org/2000/svg" xmlns:xlink="http://www.w3.org/1999/xlink" xml:space="preserve" onload="init(evt)">
<style type="text/css"><![CDATA[
.edge:hover path { stroke: red; }
.edge:hover polygon { stroke: red; fill: red; }
]]></style>
<script type="text/javascript"><![CDATA[
var edges = document.getElementsByTagName('g');
if (edges && edges.length) {
  for (var i=0;i<edges.length;i++) {
    if (edges[i].id.substr(0,4)=='edge') {
      edges[i].setAttribute('class','edge');
    }
  }
}
]]></script>
        <defs>
                <circle id="rim" cx="0" cy="0" r="7"/>
                <circle id="rim2" cx="0" cy="0" r="3.5"/>
                <g id="zoomPlus">
                        <use xlink:href="#rim" fill="#404040">
                                <set attributeName="fill" to="#808080" begin="zoomplus.mouseover" end="zoomplus.mouseout"/>
                        </use>
                        <path d="M-4,0h8M0,-4v8" fill="none" stroke="white" stroke-width="1.5" pointer-events="none"/>
                </g>
                <g id="zoomMin">
                        <use xlink:href="#rim" fill="#404040">
                                <set attributeName="fill" to="#808080" begin="zoomminus.mouseover" end="zoomminus.mouseout"/>
                        </use>
                        <path d="M-4,0h8" fill="none" stroke="white" stroke-width="1.5" pointer-events="none"/>
                </g>
                <g id="dirArrow">
                        <path fill="none" stroke="white" stroke-width="1.5" d="M0,-3.0v7 M-2.5,-0.5L0,-3.0L2.5,-0.5"/>
                </g>
               <g id="resetDef">
                       <use xlink:href="#rim2" fill="#404040">
                               <set attributeName="fill" to="#808080" begin="reset.mouseover" end="reset.mouseout"/>
                       </use>
               </g>
        </defs>

<script type="text/javascript">
var viewWidth = 1732;
var viewHeight = 530;
var sectionId = 'dynsection-0';
</script>
<script xlink:href="svgpan.js"/>
<svg id="graph" class="graph">
<g id="viewport">
<title>schwz::SolverRAS&lt; ValueType, IndexType &gt;</title>
<polygon fill="#ffffff" stroke="transparent" points="-4,4 -4,-525.5 1728,-525.5 1728,4 -4,4"/>
<!-- Node0 -->
<g id="node1" class="node">
<title>Node0</title>
<polygon fill="#bfbfbf" stroke="#000000" points="1566,-102 1566,-132 1724,-132 1724,-102 1566,-102"/>
<text text-anchor="start" x="1574" y="-120" font-family="Helvetica,sans-Serif" font-size="10.00" fill="#000000">schwz::SolverRAS&lt; ValueType,</text>
<text text-anchor="middle" x="1645" y="-109" font-family="Helvetica,sans-Serif" font-size="10.00" fill="#000000"> IndexType &gt;</text>
</g>
<!-- Node1 -->
<g id="node2" class="node">
<title>Node1</title>
<g id="a_node2"><a xlink:href="classschwz_1_1SchwarzBase.html" target="_top" xlink:title="The Base solver class is meant to be the class implementing the common implementations for all the sc...">
<polygon fill="#ffffff" stroke="#000000" points="1396,-102 1396,-132 1529,-132 1529,-102 1396,-102"/>
<text text-anchor="start" x="1404" y="-120" font-family="Helvetica,sans-Serif" font-size="10.00" fill="#000000">schwz::SchwarzBase</text>
<text text-anchor="middle" x="1462.5" y="-109" font-family="Helvetica,sans-Serif" font-size="10.00" fill="#000000">&lt; ValueType, IndexType &gt;</text>
</a>
</g>
</g>
<!-- Node1&#45;&gt;Node0 -->
<g id="edge1" class="edge">
<title>Node1&#45;&gt;Node0</title>
<path fill="none" stroke="#191970" d="M1539.3367,-117C1548.0926,-117 1557.0302,-117 1565.8159,-117"/>
<polygon fill="#191970" stroke="#191970" points="1539.1614,-113.5001 1529.1614,-117 1539.1613,-120.5001 1539.1614,-113.5001"/>
</g>
<!-- Node2 -->
<g id="node3" class="node">
<title>Node2</title>
<g id="a_node3"><a xlink:href="classschwz_1_1Initialize.html" target="_top" xlink:title="The initialization class that provides methods for initialization of the solver. ">
<polygon fill="#ffffff" stroke="#000000" points="1228.5,-293 1228.5,-323 1355.5,-323 1355.5,-293 1228.5,-293"/>
<text text-anchor="start" x="1236.5" y="-311" font-family="Helvetica,sans-Serif" font-size="10.00" fill="#000000">schwz::Initialize&lt;</text>
<text text-anchor="middle" x="1292" y="-300" font-family="Helvetica,sans-Serif" font-size="10.00" fill="#000000"> ValueType, IndexType &gt;</text>
</a>
</g>
</g>
<!-- Node2&#45;&gt;Node1 -->
<g id="edge2" class="edge">
<title>Node2&#45;&gt;Node1</title>
<path fill="none" stroke="#191970" d="M1312.6408,-284.8775C1348.0173,-245.2474 1419.2878,-165.4078 1449.0071,-132.1152"/>
<polygon fill="#191970" stroke="#191970" points="1309.7129,-282.9016 1305.6645,-292.6925 1314.935,-287.5632 1309.7129,-282.9016"/>
</g>
<!-- Node3 -->
<g id="node4" class="node">
<title>Node3</title>
<g id="a_node4"><a xlink:href="structschwz_1_1Settings.html" target="_top" xlink:title="The struct that contains the solver settings and the parameters to be set by the user. ">
<polygon fill="#ffffff" stroke="#000000" points="937.5,-369.5 937.5,-388.5 1024.5,-388.5 1024.5,-369.5 937.5,-369.5"/>
<text text-anchor="middle" x="981" y="-376.5" font-family="Helvetica,sans-Serif" font-size="10.00" fill="#000000">schwz::Settings</text>
</a>
</g>
</g>
<!-- Node3&#45;&gt;Node2 -->
<g id="edge3" class="edge">
<title>Node3&#45;&gt;Node2</title>
<path fill="none" stroke="#191970" d="M1034.9037,-372.1603C1081.0578,-365.6642 1149.0432,-354.5697 1207,-339 1223.0801,-334.6802 1240.4169,-328.6229 1255.2128,-323.0075"/>
<polygon fill="#191970" stroke="#191970" points="1034.2462,-368.7178 1024.8201,-373.5552 1035.2055,-375.6518 1034.2462,-368.7178"/>
</g>
<!-- Node20 -->
<g id="node20" class="node">
<title>Node20</title>
<g id="a_node20"><a xlink:href="classschwz_1_1Solve.html" target="_top" xlink:title="The Solver class the provides the solver and the convergence checking methods. ">
<polygon fill="#ffffff" stroke="#000000" points="1225,-356 1225,-386 1359,-386 1359,-356 1225,-356"/>
<text text-anchor="start" x="1233" y="-374" font-family="Helvetica,sans-Serif" font-size="10.00" fill="#000000">schwz::Solve&lt; ValueType,</text>
<text text-anchor="middle" x="1292" y="-363" font-family="Helvetica,sans-Serif" font-size="10.00" fill="#000000"> IndexType &gt;</text>
</a>
</g>
</g>
<!-- Node3&#45;&gt;Node20 -->
<g id="edge26" class="edge">
<title>Node3&#45;&gt;Node20</title>
<path fill="none" stroke="#191970" d="M1034.7198,-377.6181C1087.3938,-376.2632 1167.8553,-374.1934 1224.7518,-372.7299"/>
<polygon fill="#191970" stroke="#191970" points="1034.4773,-374.1231 1024.5707,-377.8792 1034.6574,-381.1208 1034.4773,-374.1231"/>
</g>
<!-- Node4 -->
<g id="node5" class="node">
<title>Node4</title>
<g id="a_node5"><a xlink:href="structschwz_1_1Settings_1_1comm__settings.html" target="_top" xlink:title="The settings for the various available communication paradigms. ">
<polygon fill="#ffffff" stroke="#000000" points="617.5,-442 617.5,-472 737.5,-472 737.5,-442 617.5,-442"/>
<text text-anchor="start" x="625.5" y="-460" font-family="Helvetica,sans-Serif" font-size="10.00" fill="#000000">schwz::Settings::comm</text>
<text text-anchor="middle" x="677.5" y="-449" font-family="Helvetica,sans-Serif" font-size="10.00" fill="#000000">_settings</text>
</a>
</g>
</g>
<!-- Node4&#45;&gt;Node3 -->
<g id="edge4" class="edge">
<title>Node4&#45;&gt;Node3</title>
<path fill="none" stroke="#9a32cd" stroke-dasharray="5,2" d="M747.8987,-455.629C789.5324,-453.1127 842.7897,-446.8869 888,-432 918.8899,-421.8285 951.0065,-400.7964 968.2377,-388.5054"/>
<polygon fill="#9a32cd" stroke="#9a32cd" points="747.6424,-452.1377 737.8484,-456.1786 748.0246,-459.1273 747.6424,-452.1377"/>
<text text-anchor="middle" x="832.5" y="-455" font-family="Helvetica,sans-Serif" font-size="10.00" fill="#000000"> comm_settings</text>
</g>
<!-- Node5 -->
<g id="node6" class="node">
<title>Node5</title>
<g id="a_node6"><a xlink:title="STL class. ">
<polygon fill="#ffffff" stroke="#bfbfbf" points="647.5,-349.5 647.5,-368.5 707.5,-368.5 707.5,-349.5 647.5,-349.5"/>
<text text-anchor="middle" x="677.5" y="-356.5" font-family="Helvetica,sans-Serif" font-size="10.00" fill="#000000">std::string</text>
</a>
</g>
</g>
<!-- Node5&#45;&gt;Node3 -->
<g id="edge5" class="edge">
<title>Node5&#45;&gt;Node3</title>
<path fill="none" stroke="#9a32cd" stroke-dasharray="5,2" d="M717.7861,-361.6548C774.7763,-365.4103 878.5281,-372.2473 937.3139,-376.1212"/>
<polygon fill="#9a32cd" stroke="#9a32cd" points="717.9188,-358.156 707.7103,-360.9908 717.4585,-365.1409 717.9188,-358.156"/>
<text text-anchor="middle" x="832.5" y="-420" font-family="Helvetica,sans-Serif" font-size="10.00" fill="#000000"> factorization</text>
<text text-anchor="middle" x="832.5" y="-409" font-family="Helvetica,sans-Serif" font-size="10.00" fill="#000000">metis_objtype</text>
<text text-anchor="middle" x="832.5" y="-398" font-family="Helvetica,sans-Serif" font-size="10.00" fill="#000000">matrix_filename</text>
<text text-anchor="middle" x="832.5" y="-387" font-family="Helvetica,sans-Serif" font-size="10.00" fill="#000000">reorder</text>
<text text-anchor="middle" x="832.5" y="-376" font-family="Helvetica,sans-Serif" font-size="10.00" fill="#000000">executor_string</text>
</g>
<!-- Node9 -->
<g id="node9" class="node">
<title>Node9</title>
<g id="a_node9"><a xlink:href="structschwz_1_1Metadata.html" target="_top" xlink:title="The solver metadata struct. ">
<polygon fill="#ffffff" stroke="#000000" points="906,-260 906,-290 1056,-290 1056,-260 906,-260"/>
<text text-anchor="start" x="914" y="-278" font-family="Helvetica,sans-Serif" font-size="10.00" fill="#000000">schwz::Metadata&lt; ValueType,</text>
<text text-anchor="middle" x="981" y="-267" font-family="Helvetica,sans-Serif" font-size="10.00" fill="#000000"> IndexType &gt;</text>
</a>
</g>
</g>
<!-- Node5&#45;&gt;Node9 -->
<g id="edge11" class="edge">
<title>Node5&#45;&gt;Node9</title>
<path fill="none" stroke="#9a32cd" stroke-dasharray="5,2" d="M700.5251,-344.1916C720.1017,-332.2949 749.3553,-316.1177 777,-307 800.4916,-299.252 857.9363,-290.5585 905.9021,-284.1903"/>
<polygon fill="#9a32cd" stroke="#9a32cd" points="698.6534,-341.2339 691.997,-349.4767 702.3408,-347.184 698.6534,-341.2339"/>
<text text-anchor="middle" x="832.5" y="-310" font-family="Helvetica,sans-Serif" font-size="10.00" fill="#000000"> local_precond</text>
</g>
<!-- Node6 -->
<g id="node7" class="node">
<title>Node6</title>
<polygon fill="#ffffff" stroke="#bfbfbf" points="272.5,-341 272.5,-371 367.5,-371 367.5,-341 272.5,-341"/>
<text text-anchor="start" x="280.5" y="-359" font-family="Helvetica,sans-Serif" font-size="10.00" fill="#000000">std::basic_string&lt;</text>
<text text-anchor="middle" x="320" y="-348" font-family="Helvetica,sans-Serif" font-size="10.00" fill="#000000"> char &gt;</text>
</g>
<!-- Node6&#45;&gt;Node5 -->
<g id="edge6" class="edge">
<title>Node6&#45;&gt;Node5</title>
<path fill="none" stroke="#191970" d="M377.8449,-356.4854C454.7087,-357.1304 587.715,-358.2466 647.2107,-358.7458"/>
<polygon fill="#191970" stroke="#191970" points="377.8721,-352.9856 367.8431,-356.4015 377.8133,-359.9854 377.8721,-352.9856"/>
</g>
<!-- Node8 -->
<g id="node8" class="node">
<title>Node8</title>
<g id="a_node8"><a xlink:href="structschwz_1_1Settings_1_1convergence__settings.html" target="_top" xlink:title="The various convergence settings available. ">
<polygon fill="#ffffff" stroke="#000000" points="603,-491 603,-521 752,-521 752,-491 603,-491"/>
<text text-anchor="start" x="611" y="-509" font-family="Helvetica,sans-Serif" font-size="10.00" fill="#000000">schwz::Settings::convergence</text>
<text text-anchor="middle" x="677.5" y="-498" font-family="Helvetica,sans-Serif" font-size="10.00" fill="#000000">_settings</text>
</a>
</g>
</g>
<!-- Node8&#45;&gt;Node3 -->
<g id="edge7" class="edge">
<title>Node8&#45;&gt;Node3</title>
<path fill="none" stroke="#9a32cd" stroke-dasharray="5,2" d="M762.3946,-501.3795C802.2491,-496.4887 849.3662,-486.6484 888,-467 926.4375,-447.4514 960.0262,-406.9945 974.0412,-388.5449"/>
<polygon fill="#9a32cd" stroke="#9a32cd" points="761.9657,-497.9056 752.4281,-502.5192 762.7611,-504.8603 761.9657,-497.9056"/>
<text text-anchor="middle" x="832.5" y="-502" font-family="Helvetica,sans-Serif" font-size="10.00" fill="#000000"> convergence_settings</text>
</g>
<!-- Node9&#45;&gt;Node2 -->
<g id="edge8" class="edge">
<title>Node9&#45;&gt;Node2</title>
<path fill="none" stroke="#191970" d="M1066.3497,-284.0564C1117.5772,-289.4921 1181.6557,-296.2914 1228.4256,-301.2542"/>
<polygon fill="#191970" stroke="#191970" points="1066.5979,-280.5632 1056.2844,-282.9884 1065.8593,-287.5241 1066.5979,-280.5632"/>
</g>
<!-- Node10 -->
<g id="node10" class="node">
<title>Node10</title>
<polygon fill="#ffffff" stroke="#bfbfbf" points="402,-233.5 402,-274.5 578,-274.5 578,-233.5 402,-233.5"/>
<text text-anchor="start" x="410" y="-262.5" font-family="Helvetica,sans-Serif" font-size="10.00" fill="#000000">std::vector&lt; std::tuple</text>
<text text-anchor="start" x="410" y="-251.5" font-family="Helvetica,sans-Serif" font-size="10.00" fill="#000000">&lt; int, int, int, std::</text>
<text text-anchor="middle" x="490" y="-240.5" font-family="Helvetica,sans-Serif" font-size="10.00" fill="#000000">string, std::vector&lt; ValueType &gt; &gt; &gt;</text>
</g>
<!-- Node10&#45;&gt;Node9 -->
<g id="edge9" class="edge">
<title>Node10&#45;&gt;Node9</title>
<path fill="none" stroke="#9a32cd" stroke-dasharray="5,2" d="M588.2676,-242.4867C590.8706,-242.3069 593.4517,-242.1438 596,-242 668.3294,-237.9189 686.7491,-236.7077 759,-242 816.797,-246.2335 830.6802,-252.4644 888,-261 893.8139,-261.8658 899.8317,-262.7649 905.8812,-263.6708"/>
<polygon fill="#9a32cd" stroke="#9a32cd" points="587.847,-239.0086 578.142,-243.2586 588.3791,-245.9883 587.847,-239.0086"/>
<text text-anchor="middle" x="677.5" y="-245" font-family="Helvetica,sans-Serif" font-size="10.00" fill="#000000"> time_struct</text>
</g>
<!-- Node11 -->
<g id="node11" class="node">
<title>Node11</title>
<g id="a_node11"><a xlink:title="STL class. ">
<polygon fill="#ffffff" stroke="#bfbfbf" points="0,-203.5 0,-222.5 87,-222.5 87,-203.5 0,-203.5"/>
<text text-anchor="middle" x="43.5" y="-210.5" font-family="Helvetica,sans-Serif" font-size="10.00" fill="#000000">std::vector&lt; T &gt;</text>
</a>
</g>
</g>
<!-- Node11&#45;&gt;Node10 -->
<g id="edge10" class="edge">
<title>Node11&#45;&gt;Node10</title>
<path fill="none" stroke="#ffa500" stroke-dasharray="5,2" d="M97.353,-217.9451C172.8691,-224.8794 311.1217,-237.5744 401.7839,-245.8995"/>
<polygon fill="#ffa500" stroke="#ffa500" points="97.4034,-214.4351 87.1253,-217.0059 96.7633,-221.4057 97.4034,-214.4351"/>
<text text-anchor="start" x="105" y="-256" font-family="Helvetica,sans-Serif" font-size="10.00" fill="#000000"> &lt; std::tuple&lt; int,</text>
<text text-anchor="start" x="105" y="-245" font-family="Helvetica,sans-Serif" font-size="10.00" fill="#000000"> int, int, std::string,</text>
<text text-anchor="middle" x="171.5" y="-234" font-family="Helvetica,sans-Serif" font-size="10.00" fill="#000000"> std::vector&lt; ValueType &gt; &gt; &gt;</text>
</g>
<!-- Node13 -->
<g id="node13" class="node">
<title>Node13</title>
<polygon fill="#ffffff" stroke="#bfbfbf" points="256,-168.5 256,-187.5 384,-187.5 384,-168.5 256,-168.5"/>
<text text-anchor="middle" x="320" y="-175.5" font-family="Helvetica,sans-Serif" font-size="10.00" fill="#000000">std::vector&lt; ValueType &gt;</text>
</g>
<!-- Node11&#45;&gt;Node13 -->
<g id="edge14" class="edge">
<title>Node11&#45;&gt;Node13</title>
<path fill="none" stroke="#ffa500" stroke-dasharray="5,2" d="M92.1287,-201.3353C96.4678,-200.475 100.8046,-199.6796 105,-199 155.3491,-190.8439 212.881,-185.4269 255.7541,-182.1405"/>
<polygon fill="#ffa500" stroke="#ffa500" points="91.1391,-197.9664 82.0659,-203.437 92.5703,-204.8185 91.1391,-197.9664"/>
<text text-anchor="middle" x="171.5" y="-202" font-family="Helvetica,sans-Serif" font-size="10.00" fill="#000000"> &lt; ValueType &gt;</text>
</g>
<!-- Node14 -->
<g id="node14" class="node">
<title>Node14</title>
<polygon fill="#ffffff" stroke="#bfbfbf" points="260.5,-119 260.5,-149 379.5,-149 379.5,-119 260.5,-119"/>
<text text-anchor="start" x="268.5" y="-137" font-family="Helvetica,sans-Serif" font-size="10.00" fill="#000000">std::vector&lt; std::vector</text>
<text text-anchor="middle" x="320" y="-126" font-family="Helvetica,sans-Serif" font-size="10.00" fill="#000000">&lt; ValueType &gt; &gt;</text>
</g>
<!-- Node11&#45;&gt;Node14 -->
<g id="edge16" class="edge">
<title>Node11&#45;&gt;Node14</title>
<path fill="none" stroke="#ffa500" stroke-dasharray="5,2" d="M61.5414,-196.6749C73.137,-187.0939 88.9836,-175.606 105,-169 154.8191,-148.4519 215.793,-139.9349 260.0669,-136.4218"/>
<polygon fill="#ffa500" stroke="#ffa500" points="59.223,-194.0523 53.9076,-203.2173 63.7782,-199.3674 59.223,-194.0523"/>
<text text-anchor="middle" x="171.5" y="-172" font-family="Helvetica,sans-Serif" font-size="10.00" fill="#000000"> &lt; std::vector&lt; ValueType &gt; &gt;</text>
</g>
<!-- Node15 -->
<g id="node15" class="node">
<title>Node15</title>
<polygon fill="#ffffff" stroke="#bfbfbf" points="429,-280.5 429,-343.5 551,-343.5 551,-280.5 429,-280.5"/>
<text text-anchor="start" x="437" y="-331.5" font-family="Helvetica,sans-Serif" font-size="10.00" fill="#000000">std::vector&lt; std::tuple</text>
<text text-anchor="start" x="437" y="-320.5" font-family="Helvetica,sans-Serif" font-size="10.00" fill="#000000">&lt; int, std::vector&lt; std</text>
<text text-anchor="start" x="437" y="-309.5" font-family="Helvetica,sans-Serif" font-size="10.00" fill="#000000">::tuple&lt; int, int &gt; &gt;, std</text>
<text text-anchor="start" x="437" y="-298.5" font-family="Helvetica,sans-Serif" font-size="10.00" fill="#000000">::vector&lt; std::tuple&lt; int,</text>
<text text-anchor="middle" x="490" y="-287.5" font-family="Helvetica,sans-Serif" font-size="10.00" fill="#000000"> int &gt; &gt;, int, int &gt; &gt;</text>
</g>
<!-- Node11&#45;&gt;Node15 -->
<g id="edge18" class="edge">
<title>Node11&#45;&gt;Node15</title>
<path fill="none" stroke="#ffa500" stroke-dasharray="5,2" d="M57.6193,-230.4233C68.9851,-243.1247 86.1317,-259.5348 105,-268 211.4959,-315.7789 350.4796,-319.0053 428.9988,-316.1226"/>
<polygon fill="#ffa500" stroke="#ffa500" points="60.1916,-228.0462 51.0252,-222.7331 54.8776,-232.6027 60.1916,-228.0462"/>
<text text-anchor="start" x="118" y="-353" font-family="Helvetica,sans-Serif" font-size="10.00" fill="#000000"> &lt; std::tuple&lt; int,</text>
<text text-anchor="start" x="118" y="-342" font-family="Helvetica,sans-Serif" font-size="10.00" fill="#000000"> std::vector&lt; std::tuple</text>
<text text-anchor="start" x="118" y="-331" font-family="Helvetica,sans-Serif" font-size="10.00" fill="#000000">&lt; int, int &gt; &gt;, std::vector</text>
<text text-anchor="start" x="118" y="-320" font-family="Helvetica,sans-Serif" font-size="10.00" fill="#000000">&lt; std::tuple&lt; int, int &gt; &gt;</text>
<text text-anchor="middle" x="171.5" y="-309" font-family="Helvetica,sans-Serif" font-size="10.00" fill="#000000">, int, int &gt; &gt;</text>
</g>
<!-- Node16 -->
<g id="node16" class="node">
<title>Node16</title>
<polygon fill="#ffffff" stroke="#bfbfbf" points="777,-325 777,-355 888,-355 888,-325 777,-325"/>
<text text-anchor="start" x="785" y="-343" font-family="Helvetica,sans-Serif" font-size="10.00" fill="#000000">std::vector&lt; unsigned</text>
<text text-anchor="middle" x="832.5" y="-332" font-family="Helvetica,sans-Serif" font-size="10.00" fill="#000000"> int &gt;</text>
</g>
<!-- Node11&#45;&gt;Node16 -->
<g id="edge20" class="edge">
<title>Node11&#45;&gt;Node16</title>
<path fill="none" stroke="#ffa500" stroke-dasharray="5,2" d="M45.2105,-233.2443C49.2194,-266.7271 62.3965,-333.1027 105,-365 200.2117,-436.2851 721.5283,-391.6798 759,-378 768.7822,-374.4288 768.0885,-368.388 777,-363 781.7305,-360.1399 786.8811,-357.4782 792.0751,-355.0554"/>
<polygon fill="#ffa500" stroke="#ffa500" points="48.6495,-232.4713 44.1417,-222.8832 41.6864,-233.1896 48.6495,-232.4713"/>
<text text-anchor="middle" x="320" y="-407" font-family="Helvetica,sans-Serif" font-size="10.00" fill="#000000"> &lt; unsigned int &gt;</text>
</g>
<!-- Node19 -->
<g id="node19" class="node">
<title>Node19</title>
<polygon fill="#ffffff" stroke="#bfbfbf" points="270.5,-60.5 270.5,-79.5 369.5,-79.5 369.5,-60.5 270.5,-60.5"/>
<text text-anchor="middle" x="320" y="-67.5" font-family="Helvetica,sans-Serif" font-size="10.00" fill="#000000">std::vector&lt; bool &gt;</text>
</g>
<!-- Node11&#45;&gt;Node19 -->
<g id="edge24" class="edge">
<title>Node11&#45;&gt;Node19</title>
<path fill="none" stroke="#ffa500" stroke-dasharray="5,2" d="M51.6149,-193.9887C61.3212,-173.5639 79.5142,-141.665 105,-124 154.5017,-89.6889 223.8301,-77.1475 270.244,-72.5817"/>
<polygon fill="#ffa500" stroke="#ffa500" points="48.3649,-192.6812 47.4278,-203.2345 54.7415,-195.569 48.3649,-192.6812"/>
<text text-anchor="middle" x="171.5" y="-127" font-family="Helvetica,sans-Serif" font-size="10.00" fill="#000000"> &lt; bool &gt;</text>
</g>
<!-- Node12 -->
<g id="node12" class="node">
<title>Node12</title>
<g id="a_node12"><a xlink:href="structschwz_1_1Metadata_1_1post__process__data.html" target="_top" xlink:title="The struct used for storing data for post&#45;processing. ">
<polygon fill="#ffffff" stroke="#000000" points="596,-158 596,-188 759,-188 759,-158 596,-158"/>
<text text-anchor="start" x="604" y="-176" font-family="Helvetica,sans-Serif" font-size="10.00" fill="#000000">schwz::Metadata&lt; ValueType,</text>
<text text-anchor="middle" x="677.5" y="-165" font-family="Helvetica,sans-Serif" font-size="10.00" fill="#000000"> IndexType &gt;::post_process_data</text>
</a>
</g>
</g>
<!-- Node12&#45;&gt;Node9 -->
<g id="edge12" class="edge">
<title>Node12&#45;&gt;Node9</title>
<path fill="none" stroke="#9a32cd" stroke-dasharray="5,2" d="M769.1072,-175.7846C807.0893,-179.5247 850.8614,-187.29 888,-203 919.4056,-216.2849 949.413,-242.8769 966.4818,-259.761"/>
<polygon fill="#9a32cd" stroke="#9a32cd" points="769.3473,-172.2921 759.0723,-174.8755 768.7157,-179.2636 769.3473,-172.2921"/>
<text text-anchor="middle" x="832.5" y="-206" font-family="Helvetica,sans-Serif" font-size="10.00" fill="#000000"> post_process_data</text>
</g>
<!-- Node13&#45;&gt;Node1 -->
<g id="edge27" class="edge">
<title>Node13&#45;&gt;Node1</title>
<path fill="none" stroke="#9a32cd" stroke-dasharray="5,2" d="M372.9759,-164.433C376.8516,-162.5518 380.5773,-160.4182 384,-158 394.8896,-150.3062 390.1225,-140.0582 402,-134 490.0652,-89.0816 1176.6523,-107.5615 1395.6292,-114.6832"/>
<polygon fill="#9a32cd" stroke="#9a32cd" points="371.5545,-161.2341 363.7319,-168.3796 374.3031,-167.6719 371.5545,-161.2341"/>
<text text-anchor="middle" x="981" y="-110" font-family="Helvetica,sans-Serif" font-size="10.00" fill="#000000"> local_residual_vector_out</text>
</g>
<!-- Node13&#45;&gt;Node12 -->
<g id="edge13" class="edge">
<title>Node13&#45;&gt;Node12</title>
<path fill="none" stroke="#9a32cd" stroke-dasharray="5,2" d="M394.3866,-169.477C396.9539,-169.2972 399.4975,-169.1369 402,-169 467.0777,-165.4394 540.9228,-166.8019 595.7685,-168.8558"/>
<polygon fill="#9a32cd" stroke="#9a32cd" points="394.0992,-165.9886 384.4031,-170.2589 394.6459,-172.9673 394.0992,-165.9886"/>
<text text-anchor="middle" x="490" y="-216" font-family="Helvetica,sans-Serif" font-size="10.00" fill="#000000"> local_converged_resnorm</text>
<text text-anchor="start" x="432.5" y="-205" font-family="Helvetica,sans-Serif" font-size="10.00" fill="#000000">local_residual_vector</text>
<text text-anchor="middle" x="490" y="-194" font-family="Helvetica,sans-Serif" font-size="10.00" fill="#000000">_out</text>
<text text-anchor="start" x="432.5" y="-183" font-family="Helvetica,sans-Serif" font-size="10.00" fill="#000000">local_converged_iter</text>
<text text-anchor="middle" x="490" y="-172" font-family="Helvetica,sans-Serif" font-size="10.00" fill="#000000">_count</text>
</g>
<!-- Node14&#45;&gt;Node1 -->
<g id="edge28" class="edge">
<title>Node14&#45;&gt;Node1</title>
<path fill="none" stroke="#9a32cd" stroke-dasharray="5,2" d="M352.0443,-113.8624C366.7176,-105.6378 384.6701,-96.9181 402,-92 520.1679,-58.465 554.6658,-70 677.5,-70 677.5,-70 677.5,-70 1292,-70 1340.9741,-70 1395.1078,-88.2448 1428.9607,-101.9997"/>
<polygon fill="#9a32cd" stroke="#9a32cd" points="350.2711,-110.8447 343.3668,-118.8809 353.7757,-116.9042 350.2711,-110.8447"/>
<text text-anchor="middle" x="981" y="-73" font-family="Helvetica,sans-Serif" font-size="10.00" fill="#000000"> global_residual_vector_out</text>
</g>
<!-- Node14&#45;&gt;Node12 -->
<g id="edge15" class="edge">
<title>Node14&#45;&gt;Node12</title>
<path fill="none" stroke="#9a32cd" stroke-dasharray="5,2" d="M389.8058,-136.2559C441.8697,-138.5715 514.6323,-143.1458 578,-152 589.2778,-153.5758 601.189,-155.6907 612.6984,-157.9729"/>
<polygon fill="#9a32cd" stroke="#9a32cd" points="389.8185,-132.7533 379.6779,-135.8223 389.519,-139.7469 389.8185,-132.7533"/>
<text text-anchor="middle" x="490" y="-155" font-family="Helvetica,sans-Serif" font-size="10.00" fill="#000000"> global_residual_vector_out</text>
</g>
<!-- Node15&#45;&gt;Node9 -->
<g id="edge17" class="edge">
<title>Node15&#45;&gt;Node9</title>
<path fill="none" stroke="#9a32cd" stroke-dasharray="5,2" d="M561.1787,-306.068C619.2436,-301.2837 703.4059,-294.474 777,-289 819.6596,-285.8269 867.3577,-282.5392 905.8994,-279.9477"/>
<polygon fill="#9a32cd" stroke="#9a32cd" points="560.6883,-302.5965 551.01,-306.9071 561.264,-309.5727 560.6883,-302.5965"/>
<text text-anchor="middle" x="677.5" y="-306" font-family="Helvetica,sans-Serif" font-size="10.00" fill="#000000"> comm_data_struct</text>
</g>
<!-- Node16&#45;&gt;Node2 -->
<g id="edge19" class="edge">
<title>Node16&#45;&gt;Node2</title>
<path fill="none" stroke="#9a32cd" stroke-dasharray="5,2" d="M898.5261,-335.4019C986.625,-329.2666 1141.5742,-318.4758 1228.4168,-312.428"/>
<polygon fill="#9a32cd" stroke="#9a32cd" points="898.117,-331.9218 888.3843,-336.1082 898.6034,-338.9049 898.117,-331.9218"/>
<text text-anchor="middle" x="981" y="-349" font-family="Helvetica,sans-Serif" font-size="10.00" fill="#000000"> cell_weights</text>
<text text-anchor="middle" x="981" y="-338" font-family="Helvetica,sans-Serif" font-size="10.00" fill="#000000">partition_indices</text>
</g>
<!-- Node17 -->
<g id="node17" class="node">
<title>Node17</title>
<g id="a_node17"><a xlink:href="classschwz_1_1Communicate.html" target="_top" xlink:title="The communication class that provides the methods for the communication between the subdomains...">
<polygon fill="#ffffff" stroke="#000000" points="1074,-12 1074,-42 1207,-42 1207,-12 1074,-12"/>
<text text-anchor="start" x="1082" y="-30" font-family="Helvetica,sans-Serif" font-size="10.00" fill="#000000">schwz::Communicate</text>
<text text-anchor="middle" x="1140.5" y="-19" font-family="Helvetica,sans-Serif" font-size="10.00" fill="#000000">&lt; ValueType, IndexType &gt;</text>
</a>
</g>
</g>
<!-- Node17&#45;&gt;Node1 -->
<g id="edge21" class="edge">
<title>Node17&#45;&gt;Node1</title>
<path fill="none" stroke="#191970" d="M1217.4341,-26.7284C1265.1249,-28.8826 1326.8334,-35.9548 1378,-56 1404.7861,-66.4938 1430.8954,-87.4836 1446.8356,-101.8832"/>
<polygon fill="#191970" stroke="#191970" points="1217.3004,-23.2207 1207.1722,-26.3305 1217.0291,-30.2154 1217.3004,-23.2207"/>
</g>
<!-- Node18 -->
<g id="node18" class="node">
<title>Node18</title>
<g id="a_node18"><a xlink:href="structschwz_1_1Communicate_1_1comm__struct.html" target="_top" xlink:title="The communication struct used to store the communication data. ">
<polygon fill="#ffffff" stroke="#000000" points="615.5,-.5 615.5,-41.5 739.5,-41.5 739.5,-.5 615.5,-.5"/>
<text text-anchor="start" x="623.5" y="-29.5" font-family="Helvetica,sans-Serif" font-size="10.00" fill="#000000">schwz::Communicate</text>
<text text-anchor="start" x="623.5" y="-18.5" font-family="Helvetica,sans-Serif" font-size="10.00" fill="#000000">&lt; ValueType, IndexType</text>
<text text-anchor="middle" x="677.5" y="-7.5" font-family="Helvetica,sans-Serif" font-size="10.00" fill="#000000"> &gt;::comm_struct</text>
</a>
</g>
</g>
<!-- Node18&#45;&gt;Node17 -->
<g id="edge22" class="edge">
<title>Node18&#45;&gt;Node17</title>
<path fill="none" stroke="#9a32cd" stroke-dasharray="5,2" d="M750.1959,-21.9421C838.9646,-23.0924 987.8661,-25.022 1073.813,-26.1358"/>
<polygon fill="#9a32cd" stroke="#9a32cd" points="749.9868,-18.4392 739.9422,-21.8092 749.896,-25.4386 749.9868,-18.4392"/>
<text text-anchor="middle" x="832.5" y="-27" font-family="Helvetica,sans-Serif" font-size="10.00" fill="#000000"> comm_struct</text>
</g>
<!-- Node19&#45;&gt;Node18 -->
<g id="edge23" class="edge">
<title>Node19&#45;&gt;Node18</title>
<path fill="none" stroke="#9a32cd" stroke-dasharray="5,2" d="M356.0773,-57.2193C370.2299,-52.6776 386.7153,-47.9619 402,-45 474.4688,-30.9568 559.2639,-25.125 615.4396,-22.7067"/>
<polygon fill="#9a32cd" stroke="#9a32cd" points="354.6339,-54.0099 346.2349,-60.468 356.828,-60.6572 354.6339,-54.0099"/>
<text text-anchor="middle" x="490" y="-48" font-family="Helvetica,sans-Serif" font-size="10.00" fill="#000000"> is_local_neighbor</text>
</g>
<!-- Node20&#45;&gt;Node1 -->
<g id="edge25" class="edge">
<title>Node20&#45;&gt;Node1</title>
<path fill="none" stroke="#191970" d="M1335.6312,-350.7076C1344.0772,-345.4403 1352.3548,-339.1884 1359,-332 1416.5072,-269.792 1448.1838,-169.7738 1458.6013,-132.0497"/>
<polygon fill="#191970" stroke="#191970" points="1333.7065,-347.7782 1326.8299,-355.8382 1337.2319,-353.8257 1333.7065,-347.7782"/>
</g>
</g>
</svg>
        <g id="navigator" transform="translate(0 0)" fill="#404254">
                <rect fill="#f2f5e9" fill-opacity="0.5" stroke="#606060" stroke-width=".5" x="0" y="0" width="60" height="60"/>
                <use id="zoomplus" xlink:href="#zoomPlus" x="17" y="9" onmousedown="handleZoom(evt,'in')"/>
                <use id="zoomminus" xlink:href="#zoomMin" x="42" y="9" onmousedown="handleZoom(evt,'out')"/>
                <use id="reset" xlink:href="#resetDef" x="30" y="36" onmousedown="handleReset()"/>
                <g id="arrowUp" xlink:href="#dirArrow" transform="translate(30 24)" onmousedown="handlePan(0,-1)">
                  <use xlink:href="#rim" fill="#404040">
                        <set attributeName="fill" to="#808080" begin="arrowUp.mouseover" end="arrowUp.mouseout"/>
                  </use>
                  <path fill="none" stroke="white" stroke-width="1.5" d="M0,-3.0v7 M-2.5,-0.5L0,-3.0L2.5,-0.5"/>
                </g>
                <g id="arrowRight" xlink:href="#dirArrow" transform="rotate(90) translate(36 -43)" onmousedown="handlePan(1,0)">
                  <use xlink:href="#rim" fill="#404040">
                        <set attributeName="fill" to="#808080" begin="arrowRight.mouseover" end="arrowRight.mouseout"/>
                  </use>
                  <path fill="none" stroke="white" stroke-width="1.5" d="M0,-3.0v7 M-2.5,-0.5L0,-3.0L2.5,-0.5"/>
                </g>
                <g id="arrowDown" xlink:href="#dirArrow" transform="rotate(180) translate(-30 -48)" onmousedown="handlePan(0,1)">
                  <use xlink:href="#rim" fill="#404040">
                        <set attributeName="fill" to="#808080" begin="arrowDown.mouseover" end="arrowDown.mouseout"/>
                  </use>
                  <path fill="none" stroke="white" stroke-width="1.5" d="M0,-3.0v7 M-2.5,-0.5L0,-3.0L2.5,-0.5"/>
                </g>
                <g id="arrowLeft" xlink:href="#dirArrow" transform="rotate(270) translate(-36 17)" onmousedown="handlePan(-1,0)">
                  <use xlink:href="#rim" fill="#404040">
                        <set attributeName="fill" to="#808080" begin="arrowLeft.mouseover" end="arrowLeft.mouseout"/>
                  </use>
                  <path fill="none" stroke="white" stroke-width="1.5" d="M0,-3.0v7 M-2.5,-0.5L0,-3.0L2.5,-0.5"/>
                </g>
        </g>
        <svg viewBox="0 0 15 15" width="100%" height="30px" preserveAspectRatio="xMaxYMin meet">
         <g id="arrow_out" transform="scale(0.3 0.3)">
          <a xlink:href="classschwz_1_1SolverRAS__coll__graph_org.svg" target="_base">
           <rect id="button" ry="5" rx="5" y="6" x="6" height="38" width="38"
                fill="#f2f5e9" fill-opacity="0.5" stroke="#606060" stroke-width="1.0"/>
           <path id="arrow"
             d="M 11.500037,31.436501 C 11.940474,20.09759 22.043105,11.32322 32.158766,21.979434 L 37.068811,17.246167 C 37.068811,17.246167 37.088388,32 37.088388,32 L 22.160133,31.978069 C 22.160133,31.978069 26.997745,27.140456 26.997745,27.140456 C 18.528582,18.264221 13.291696,25.230495 11.500037,31.436501 z"
             style="fill:#404040;"/>
          </a>
         </g>
        </svg>
</svg>
