<?xml version="1.0" encoding="UTF-8" standalone="no"?>
<!DOCTYPE svg PUBLIC "-//W3C//DTD SVG 1.1//EN"
 "http://www.w3.org/Graphics/SVG/1.1/DTD/svg11.dtd">
<!-- Generated by graphviz version 2.40.1 (20161225.0304)
 -->
<!-- Title: schwz::Metadata&lt; ValueType, IndexType &gt;::post_process_data Pages: 1 -->
<svg width="330pt" height="228pt"
 viewBox="0.00 0.00 330.00 228.00" xmlns="http://www.w3.org/2000/svg" xmlns:xlink="http://www.w3.org/1999/xlink">
<g id="graph0" class="graph" transform="scale(1 1) rotate(0) translate(4 224)">
<title>schwz::Metadata&lt; ValueType, IndexType &gt;::post_process_data</title>
<polygon fill="#ffffff" stroke="transparent" points="-4,4 -4,-224 326,-224 326,4 -4,4"/>
<!-- Node0 -->
<g id="node1" class="node">
<title>Node0</title>
<polygon fill="#bfbfbf" stroke="#000000" points="53.5,-.5 53.5,-30.5 216.5,-30.5 216.5,-.5 53.5,-.5"/>
<text text-anchor="start" x="61.5" y="-18.5" font-family="Helvetica,sans-Serif" font-size="10.00" fill="#000000">schwz::Metadata&lt; ValueType,</text>
<text text-anchor="middle" x="135" y="-7.5" font-family="Helvetica,sans-Serif" font-size="10.00" fill="#000000"> IndexType &gt;::post_process_data</text>
</g>
<!-- Node1 -->
<g id="node2" class="node">
<title>Node1</title>
<polygon fill="#ffffff" stroke="#bfbfbf" points="0,-128 0,-147 128,-147 128,-128 0,-128"/>
<text text-anchor="middle" x="64" y="-135" font-family="Helvetica,sans-Serif" font-size="10.00" fill="#000000">std::vector&lt; ValueType &gt;</text>
</g>
<!-- Node1&#45;&gt;Node0 -->
<g id="edge1" class="edge">
<title>Node1&#45;&gt;Node0</title>
<path fill="none" stroke="#9a32cd" stroke-dasharray="5,2" d="M59.5389,-117.7812C56.357,-98.6167 54.6914,-69.4846 68,-49 73.0305,-41.2571 80.4242,-35.2324 88.4834,-30.5682"/>
<polygon fill="#9a32cd" stroke="#9a32cd" points="56.1377,-118.6264 61.4859,-127.7723 63.0085,-117.2875 56.1377,-118.6264"/>
<text text-anchor="middle" x="125.5" y="-96" font-family="Helvetica,sans-Serif" font-size="10.00" fill="#000000"> local_converged_resnorm</text>
<text text-anchor="start" x="68" y="-85" font-family="Helvetica,sans-Serif" font-size="10.00" fill="#000000">local_residual_vector</text>
<text text-anchor="middle" x="125.5" y="-74" font-family="Helvetica,sans-Serif" font-size="10.00" fill="#000000">_out</text>
<text text-anchor="start" x="68" y="-63" font-family="Helvetica,sans-Serif" font-size="10.00" fill="#000000">local_converged_iter</text>
<text text-anchor="middle" x="125.5" y="-52" font-family="Helvetica,sans-Serif" font-size="10.00" fill="#000000">_count</text>
</g>
<!-- Node2 -->
<g id="node3" class="node">
<title>Node2</title>
<g id="a_node3"><a xlink:title="STL class. ">
<polygon fill="#ffffff" stroke="#bfbfbf" points="90.5,-200.5 90.5,-219.5 177.5,-219.5 177.5,-200.5 90.5,-200.5"/>
<text text-anchor="middle" x="134" y="-207.5" font-family="Helvetica,sans-Serif" font-size="10.00" fill="#000000">std::vector&lt; T &gt;</text>
</a>
</g>
</g>
<!-- Node2&#45;&gt;Node1 -->
<g id="edge2" class="edge">
<title>Node2&#45;&gt;Node1</title>
<path fill="none" stroke="#ffa500" stroke-dasharray="5,2" d="M115.2398,-193.6964C111.1222,-189.9426 106.8458,-185.9038 103,-182 91.7533,-170.5837 79.7314,-156.5565 72.0553,-147.3397"/>
<polygon fill="#ffa500" stroke="#ffa500" points="113.0171,-196.404 122.8075,-200.4537 117.6794,-191.1826 113.0171,-196.404"/>
<text text-anchor="middle" x="137" y="-174" font-family="Helvetica,sans-Serif" font-size="10.00" fill="#000000"> &lt; ValueType &gt;</text>
</g>
<!-- Node3 -->
<g id="node4" class="node">
<title>Node3</title>
<polygon fill="#ffffff" stroke="#bfbfbf" points="146.5,-122.5 146.5,-152.5 265.5,-152.5 265.5,-122.5 146.5,-122.5"/>
<text text-anchor="start" x="154.5" y="-140.5" font-family="Helvetica,sans-Serif" font-size="10.00" fill="#000000">std::vector&lt; std::vector</text>
<text text-anchor="middle" x="206" y="-129.5" font-family="Helvetica,sans-Serif" font-size="10.00" fill="#000000">&lt; ValueType &gt; &gt;</text>
</g>
<!-- Node2&#45;&gt;Node3 -->
<g id="edge4" class="edge">
<title>Node2&#45;&gt;Node3</title>
<path fill="none" stroke="#ffa500" stroke-dasharray="5,2" d="M156.503,-194.4297C161.4786,-190.5955 166.5804,-186.3379 171,-182 180.1191,-173.0495 189.0021,-161.714 195.5374,-152.7238"/>
<polygon fill="#ffa500" stroke="#ffa500" points="154.3546,-191.6653 148.391,-200.4224 158.5139,-197.2956 154.3546,-191.6653"/>
<text text-anchor="middle" x="247.5" y="-174" font-family="Helvetica,sans-Serif" font-size="10.00" fill="#000000"> &lt; std::vector&lt; ValueType &gt; &gt;</text>
</g>
<!-- Node3&#45;&gt;Node0 -->
<g id="edge3" class="edge">
<title>Node3&#45;&gt;Node0</title>
<path fill="none" stroke="#9a32cd" stroke-dasharray="5,2" d="M204.1648,-112.4567C201.7366,-93.5829 196.0968,-67.8241 183,-49 178.0087,-41.826 170.954,-35.6915 163.7854,-30.7076"/>
<polygon fill="#9a32cd" stroke="#9a32cd" points="200.6855,-112.8381 205.2331,-122.4073 207.6455,-112.0908 200.6855,-112.8381"/>
<text text-anchor="middle" x="262.5" y="-74" font-family="Helvetica,sans-Serif" font-size="10.00" fill="#000000"> global_residual_vector_out</text>
</g>
</g>
</svg>
